<?xml version="1.0" encoding="utf-8"?>
<!-- Generator: Adobe Illustrator 19.2.0, SVG Export Plug-In . SVG Version: 6.00 Build 0)  -->
<svg version="1.1" id="Layer_1" xmlns="http://www.w3.org/2000/svg" xmlns:xlink="http://www.w3.org/1999/xlink" x="0px" y="0px"
	 viewBox="0 0 940 157" style="enable-background:new 0 0 940 157;" xml:space="preserve">
<style type="text/css">
	.st0{fill:#B1D9DB;}
	.st1{fill:#196E86;}
	.st2{fill:#29B7B9;}
	.st3{fill:#3A5277;}
	.st4{fill:#ACD6D8;}
	.st5{fill:#FFFFFF;}
</style>
<path class="st0" d="M111,101.8H55.6v6.3h1.1v-5.3h54.7l0.7-0.7V80.5l-0.9-0.9H111V101.8z M113.4,151.1H30.1v0.2l1.1,0.9h82.6
	l0.7-0.7v-20.6l-0.9-0.9h-0.2V151.1z M114.5,53.3H55.6V58h1.1v-3.7h58.2l0.7-0.7V32l-0.9-0.9h-0.2C114.5,31.1,114.5,53.3,114.5,53.3
	z"/>
<path class="st0" d="M168.5,34.1l-1.2-1.4h-0.2l10.5,34.6l0.5-1.8L168.5,34.1z M242,29.4l-0.7-0.7h-0.2l-41.5,122.4h-22.3v0.2
	l1.1,0.9h22.2L242,29.4z"/>
<path class="st0" d="M354.6,101.8h-55.4v6.3h1.1v-5.3H355l0.7-0.7V80.5l-0.9-0.9h-0.2V101.8z M357.1,151.1h-83.3v0.2l1.1,0.9h82.6
	l0.7-0.7v-20.6l-0.9-0.9h-0.2V151.1z M358.2,53.3h-58.9V58h1.1v-3.7h58.2l0.7-0.7V32l-0.9-0.9h-0.2L358.2,53.3L358.2,53.3z"/>
<path class="st0" d="M436,36.3l-1.6-1.2H434l7.6,13.2V46L436,36.3z M488.1,151.1h-25.5v0.2l0.9,0.9h25l0.7-0.7V32l-0.9-0.9h-0.2
	V151.1z M422.7,96.7V151h-25.3v0.2l0.9,0.9H423l0.7-0.7V98.7L422.7,96.7z"/>
<path class="st0" d="M529.8,53.3H518v0.2l0.9,0.9h10.9L529.8,53.3L529.8,53.3z M577.4,54.4h32.7l0.7-0.7V32l-0.9-0.9h-0.2v22.2
	h-33.4V151h-25.5v0.2l1.1,0.9h24.8l0.7-0.7L577.4,54.4L577.4,54.4z"/>
<polygon class="st0" points="669.5,151.1 644,151.1 644,151.2 644.9,152.1 669.9,152.1 670.6,151.4 670.6,32 669.7,31.2 669.5,31.2 
	"/>
<path class="st0" d="M803.5,128.6L781,151.1h-68.9v0.2l1.1,0.9h68.4l23-23.2V50l-0.9-0.9h-0.2L803.5,128.6L803.5,128.6z
	 M738.6,108.2V54.4h18.3v-1.1h-19.3v54.9L738.6,108.2L738.6,108.2z"/>
<path class="st0" d="M924.4,101.8H869v6.3h1.1v-5.3h54.7l0.7-0.7V80.5l-0.9-0.9h-0.2L924.4,101.8L924.4,101.8z M926.9,151.1h-83.3
	v0.2l1.1,0.9h82.6l0.7-0.7v-20.6l-0.9-0.9h-0.2L926.9,151.1L926.9,151.1z M928,53.3h-58.9V58h1.1v-3.7h58.2l0.7-0.7V32l-0.9-0.9H928
	V53.3z"/>
<polygon class="st1" points="223.5,10.9 182.2,132.6 195.4,145.8 236.7,24.1 "/>
<polygon class="st1" points="778.2,145.8 798,125.9 783.1,113.6 764.1,132.6 "/>
<path class="st2" d="M50.2,108.2V96.6L35.3,83.4v24.8H50.2z M107.3,145.8l0.7-0.7v-20.7l-15-15v23.2L107.3,145.8z M50.2,58.1V48
	l-15-13.2V58L50.2,58.1L50.2,58.1z M108.3,48l0.7-0.7V25.5L94.1,10.6v24.3L108.3,48z M104.8,96.6l0.7-0.7V74.1l-14.9-15v24.3
	L104.8,96.6z"/>
<polygon class="st2" points="174.6,77 158.4,23.9 144,9.5 169.5,92 169.9,92 "/>
<path class="st2" d="M293.8,108.2V96.6l-14.9-13.2v24.8H293.8z M351,145.8l0.7-0.7v-20.7l-14.9-14.9v23.2L351,145.8z M293.8,58.1V48
	l-14.9-13.2V58L293.8,58.1L293.8,58.1z M352,48l0.7-0.7V25.5l-14.9-14.9v24.3L352,48z M348.5,96.6l0.7-0.7V74.1l-14.9-14.9v24.3
	L348.5,96.6z"/>
<path class="st2" d="M402.5,132.6l14.1,13.2l0.7-0.7V86.9l-14.4-25.7h-0.4L402.5,132.6L402.5,132.6z M441.7,59.6L422,25.2L402.3,9.6
	l39,69.3h0.4L441.7,59.6L441.7,59.6z M481.9,145.8l0.7-0.7V25.5l-14.8-14.9v122L481.9,145.8z"/>
<path class="st2" d="M555.9,132.6l14.2,13.2l0.7-0.7V48l-14.9-13.2V132.6z M603.6,48l0.7-0.7V25.5l-14.9-14.9v24.3L603.6,48z"/>
<polygon class="st2" points="663.4,145.8 664.1,145.1 664.1,25.5 649.1,10.6 649.1,132.6 "/>
<path class="st2" d="M717.2,34.8v73.3h14.9V48L717.2,34.8z M798,125.9V43.5l-14.9-14.9v85.1L798,125.9z"/>
<path class="st2" d="M863.6,108.2V96.6l-14.9-13.2v24.8H863.6z M920.7,145.8l0.7-0.7v-20.7l-14.9-14.9v23.2L920.7,145.8z
	 M863.6,58.1V48l-14.9-13.2V58L863.6,58.1L863.6,58.1z M921.8,48l0.7-0.7V25.5l-14.9-14.9v24.3L921.8,48z M918.3,96.6l0.7-0.7V74.1
	l-15-15v24.3L918.3,96.6z"/>
<path class="st3" d="M10.1,132.6l14.2,13.2h83L93,132.6H10.1z M50.2,48h58.2L94.1,34.8H35.2L50.2,48z M50.2,96.6h54.7L90.7,83.4
	H35.2L50.2,96.6z"/>
<polygon class="st3" points="182.2,132.6 157.2,132.6 171.5,145.8 195.4,145.8 "/>
<path class="st3" d="M253.7,132.6l14.2,13.2h83l-14.2-13.2H253.7z M293.8,48H352l-14.2-13.2h-58.9L293.8,48z M293.8,96.6h54.7
	l-14.2-13.2h-55.4L293.8,96.6z"/>
<path class="st3" d="M402.5,132.6h-25.1l14.2,13.2h25L402.5,132.6z M467.9,132.6h-25.3l14.2,13.2h25.1L467.9,132.6z"/>
<path class="st3" d="M555.9,132.6h-25.1l14.2,13.2h25.1L555.9,132.6z M512.5,48h17.2V34.8h-32.3L512.5,48z M570.9,48h32.7
	l-14.2-13.2H556L570.9,48z"/>
<polygon class="st3" points="649.1,132.6 624,132.6 638.1,145.8 663.4,145.8 "/>
<path class="st3" d="M706.3,145.8h71.9l-14.1-13.2H692L706.3,145.8z M717.2,34.8L732.1,48h24.8V34.8H717.2z"/>
<path class="st3" d="M823.5,132.6l14.2,13.2h83l-14.2-13.2H823.5z M863.6,48h58.2l-14.2-13.2h-58.9L863.6,48z M863.6,96.6h54.7
	L904,83.4h-55.4L863.6,96.6z"/>
<polygon class="st4" points="34.2,82.3 89.5,82.3 89.5,59.6 89,59.1 34.2,59.1 34.2,33.8 93,33.8 93,11.1 92.5,10.6 10.1,10.6 
	10.1,131 10.6,131.5 92,131.5 92,109.7 91.5,109.2 34.2,109.2 "/>
<polygon class="st4" points="170.1,94.8 169.3,94.8 143.3,10.6 117,10.6 158.1,131.5 181.3,131.5 222.3,11.1 221.7,10.6 196.4,10.6 
	"/>
<polygon class="st4" points="277.8,82.3 333.2,82.3 333.2,59.6 332.7,59.1 277.8,59.1 277.8,33.8 336.7,33.8 336.7,11.1 336.2,10.6 
	253.7,10.6 253.7,131 254.3,131.5 335.7,131.5 335.7,109.7 335.1,109.2 277.8,109.2 "/>
<polygon class="st4" points="402.1,58.1 443.3,131.5 466.8,131.5 466.8,11.1 466.3,10.6 442.7,10.6 442.7,82.3 442,82.3 401.4,10.6 
	377.3,10.6 377.3,131 377.9,131.5 401.4,131.5 401.4,58.1 "/>
<polygon class="st4" points="530.8,130.8 531.5,131.5 554.9,131.5 554.9,33.8 588.3,33.8 588.3,11.1 587.8,10.6 497.4,10.6 
	497.4,33.1 498.1,33.8 530.8,33.8 "/>
<polygon class="st4" points="624,131 624.5,131.5 648.1,131.5 648.1,11.1 647.5,10.6 624,10.6 "/>
<path class="st4" d="M782,113.3V28.9l-18.3-18.3H692V131l0.5,0.5h71.2L782,113.3z M758,33.8v75.4h-41.8V33.8H758z"/>
<polygon class="st4" points="847.6,82.3 903,82.3 903,59.6 902.5,59.1 847.6,59.1 847.6,33.8 906.5,33.8 906.5,11.1 906,10.6 
	823.5,10.6 823.5,131 824.1,131.5 905.5,131.5 905.5,109.7 904.9,109.2 847.6,109.2 "/>
<path class="st1" d="M35.2,108.2V83.4h55.4V59.1L89.5,58H35.2V34.8h58.9V10.6L93,9.5H9.7L9,10.2v121.3l1.1,1.1h83v-23.2l-1.4-1.2
	L35.2,108.2L35.2,108.2z M34.2,109.2h57.3l0.5,0.5v21.8H10.6l-0.5-0.5V10.6h82.5l0.5,0.5v22.7H34.2v25.3H89l0.5,0.5v22.7H34.2V109.2
	z"/>
<path class="st1" d="M196.4,10.6h25.3l0.5,0.5l-41,120.4H158L117,10.6h26.4l26,84.2h0.7L196.4,10.6z M144,9.5h-27.6l-0.7,0.9
	l41.5,122.2h25l41.3-121.7l-1.4-1.4h-26.5L169.9,92h-0.4L144,9.5z"/>
<path class="st1" d="M278.9,108.2V83.4h55.4V59.1l-1.1-1.1h-54.3V34.8h58.9V10.6l-1.1-1.1h-83.3l-0.7,0.7v121.3l1.1,1.1h83v-23.2
	l-1.4-1.2L278.9,108.2L278.9,108.2z M277.8,109.2h57.3l0.5,0.5v21.8h-81.4l-0.5-0.5V10.6h82.5l0.5,0.5v22.7h-58.9v25.3h54.9l0.5,0.5
	v22.7h-55.4V109.2z"/>
<path class="st1" d="M402.5,61.2h0.4l39.7,71.4h25.3v-122l-1.1-1.1h-24.4l-0.7,0.7v68.6h-0.4l-39-69.3H377l-0.7,0.7v121.3l1.1,1.1
	h25.1V61.2z M401.4,58.1v73.5h-23.6l-0.5-0.5V10.6h24.1L442,82.3h0.7V10.6h23.6l0.5,0.5v120.4h-23.6L402.1,58L401.4,58.1L401.4,58.1
	z"/>
<path class="st1" d="M529.8,131.5l1.1,1.1H556V34.8h33.4V10.6l-1.1-1.1h-91.2l-0.7,0.7v23.6l1.1,1.1h32.3V131.5z M530.8,33.8h-32.7
	l-0.7-0.7V10.6h90.4l0.5,0.5v22.7h-33.4v97.7h-23.4l-0.7-0.7L530.8,33.8L530.8,33.8z"/>
<path class="st1" d="M622.9,131.5l1.1,1.1h25.1v-122L648,9.5h-24.4l-0.7,0.7L622.9,131.5L622.9,131.5z M624,10.6h23.6l0.5,0.5v120.4
	h-23.6L624,131V10.6z"/>
<path class="st1" d="M763.8,131.5h-71.2L692,131V10.6h71.7L782,28.9v84.4L763.8,131.5z M716.1,33.8v75.4H758V33.8H716.1z
	 M756.9,34.8v73.3h-39.7V34.8H756.9z M764.1,132.6l19-19V28.5l-19-19h-72.4l-0.7,0.7v121.3l1.1,1.1H764.1z"/>
<path class="st1" d="M848.7,108.2V83.4H904V59.1l-1.1-1.1h-54.3V34.8h58.9V10.6l-1.1-1.1h-83.3l-0.7,0.7v121.3l1.1,1.1h83v-23.2
	l-1.4-1.2L848.7,108.2L848.7,108.2z M847.6,109.2h57.3l0.5,0.5v21.8H824l-0.5-0.5V10.6H906l0.5,0.5v22.7h-58.9v25.3h54.9l0.5,0.5
	v22.7h-55.4V109.2z"/>
<path class="st5" d="M22.4,102.2c1.1-2.1,3.2-4.7,5.5-7.2l-0.2-0.4c-2.1,1.1-4.6,3-5.5,3.9h-0.4c-1.6-1.6-3.5-3.2-5.6-4L16,94.9
	c1.4,1.2,4.7,5.6,6,7.4L22.4,102.2L22.4,102.2z M22.4,110.4c0.9-1.6,4-6,5.6-7.4l-0.2-0.4c-2.1,0.9-4.2,2.6-5.6,4h-0.4
	c-0.9-0.7-3.3-2.8-5.5-4l-0.2,0.4c2.3,2.8,4.4,5.5,5.8,7.4H22.4z M84.3,77.9l0.7-0.7v-13l-0.7-0.7H29.6V29.4h58.2l0.7-0.7v-13
	L87.8,15H15.3l-0.7,0.7v68.6h0.7l6.5-6.3h0.5l6.5,6.3h0.7V78L84.3,77.9L84.3,77.9z"/>
<path class="st5" d="M180.6,101.1c1.6-1.8,4.4-3.7,7.2-5.5v-0.4c-2.3,0.5-5.3,1.8-6.3,2.5l-0.4-0.2c-1.1-1.9-2.5-4-4.2-5.6l-0.4,0.4
	c1.1,1.6,3,6.7,3.7,8.8H180.6z M159.2,101.3c0.7-2.1,2.6-7.2,3.7-8.8l-0.4-0.4c-1.8,1.6-3.2,3.5-4.2,5.4l-0.4,0.2
	c-1.1-0.7-4-1.8-6.3-2.3v0.4c2.8,1.8,5.6,3.7,7.2,5.5L159.2,101.3L159.2,101.3z M178.3,109.2c1.4-1.4,5.6-4.7,7.6-5.6l-0.2-0.4
	c-2.3,0.2-4.7,1.6-6.5,2.5l-0.4-0.2c-0.5-0.9-2.5-3.7-4-5.5l-0.4,0.4c1.4,3.2,2.8,6.3,3.5,8.6L178.3,109.2z M161.4,109.2
	c0.7-2.3,2.1-5.5,3.5-8.6l-0.4-0.4c-1.6,1.8-3.5,4.4-4,5.3l-0.4,0.2c-1.8-0.9-4.2-2.1-6.5-2.3l-0.2,0.4c1.9,0.9,6.2,4.2,7.6,5.6
	L161.4,109.2z M199.9,15l-21.6,67.3l0.7,0.4l7.4-4.7h0.5l4.6,7h0.7l23.6-69.4l-0.5-0.5h-15.4V15z M123.8,15l-0.4,0.7l23.4,69.4h0.5
	l4.7-7h0.5l7.4,4.7l0.7-0.4L139.8,15H123.8z"/>
<path class="st5" d="M266,102.2c1.1-2.1,3.2-4.7,5.5-7.2l-0.2-0.4c-2.1,1.1-4.6,3-5.4,3.9h-0.4c-1.6-1.6-3.5-3.2-5.6-4l-0.2,0.4
	c1.4,1.2,4.7,5.6,6,7.4L266,102.2L266,102.2z M266,110.4c0.9-1.6,4-6,5.6-7.4l-0.2-0.4c-2.1,0.9-4.2,2.6-5.6,4h-0.4
	c-0.9-0.7-3.3-2.8-5.5-4l-0.2,0.4c2.3,2.8,4.4,5.5,5.8,7.4H266z M327.9,77.9l0.7-0.7v-13l-0.7-0.7h-54.7V29.4h58.2l0.7-0.7v-13
	l-0.7-0.7H259l-0.7,0.7v68.6h0.7l6.5-6.3h0.5l6.5,6.3h0.7V78L327.9,77.9L327.9,77.9z"/>
<path class="st5" d="M443.1,110.6c0-1.8,1.1-7.2,1.8-9.1l-0.2-0.2c-1.6,1.8-2.6,4.4-3.2,6.2l-0.4,0.2c-1.1-0.2-4.4-1.2-6.9-1.4v0.4
	c3.3,1.6,6.3,3,8.4,4.2L443.1,110.6z M389.6,102.2c1.1-2.1,3.2-4.7,5.5-7.2l-0.2-0.4c-2.1,1.1-4.6,3-5.4,3.9h-0.4
	c-1.6-1.6-3.5-3.2-5.6-4l-0.2,0.4c1.4,1.2,4.7,5.6,6,7.4L389.6,102.2L389.6,102.2z M455,102.2c1.1-2.1,3.2-4.7,5.5-7.2l-0.2-0.4
	c-2.1,1.1-4.6,3-5.4,3.9h-0.4c-1.6-1.6-3.5-3.2-5.6-4l-0.2,0.4c1.4,1.2,4.7,5.6,6,7.4L455,102.2L455,102.2z M439.2,102.9
	c0.2-2.5,0.9-5.8,1.9-9l-0.4-0.2c-1.4,1.8-2.8,4.6-3.3,5.8l-0.2,0.2c-2.1-0.7-4.6-1.4-6.9-1.2v0.4c1.8,0.5,6.5,2.8,8.4,4.2
	L439.2,102.9z M389.6,110.4c0.9-1.6,4-6,5.6-7.4l-0.2-0.4c-2.1,0.9-4.2,2.6-5.6,4H389c-0.9-0.7-3.3-2.8-5.4-4l-0.2,0.4
	c2.3,2.8,4.4,5.5,5.8,7.4H389.6z M455,110.4c0.9-1.6,4-6,5.6-7.4l-0.2-0.4c-2.1,0.9-4.2,2.6-5.6,4h-0.4c-0.9-0.7-3.3-2.8-5.5-4
	l-0.2,0.4c2.3,2.8,4.4,5.5,5.8,7.4H455z M447.3,84.3h0.7l6.3-6.3h0.5l6.7,6.3h0.7V15.7l-0.7-0.7H448l-0.7,0.7V84.3z M397.5,41.4
	l26.9,47.1l0.7-0.4l2.3-6.9l0.5-0.4l8.4,2.5l0.5-0.4l-38.5-68h-15.8l-0.7,0.7v68.6h0.7l6.3-6.3h0.5l6.7,6.3h0.7V41.4H397.5z"/>
<path class="st5" d="M543.1,102.2c1.1-2.1,3.2-4.7,5.5-7.2l-0.2-0.4c-2.1,1.1-4.6,3-5.5,3.9h-0.4c-1.6-1.6-3.5-3.2-5.6-4l-0.2,0.4
	c1.4,1.2,4.7,5.6,6,7.4L543.1,102.2L543.1,102.2z M543.1,110.4c0.9-1.6,4-6,5.6-7.4l-0.2-0.4c-2.1,0.9-4.2,2.6-5.6,4h-0.4
	c-0.9-0.7-3.3-2.8-5.4-4l-0.2,0.4c2.3,2.8,4.4,5.5,5.8,7.4H543.1z M535.4,84.3h0.7l6.7-6.3h0.2l6.7,6.3h0.7V29.4H583l0.7-0.7v-13
	L583,15h-80.3l-0.7,0.7v13l0.7,0.7h32.7V84.3z"/>
<path class="st5" d="M636.3,102.2c1.1-2.1,3.2-4.7,5.5-7.2l-0.2-0.4c-2.1,1.1-4.6,3-5.4,3.9h-0.4c-1.6-1.6-3.5-3.2-5.6-4l-0.2,0.4
	c1.4,1.2,4.7,5.6,6,7.4L636.3,102.2L636.3,102.2z M636.3,110.4c0.9-1.6,4-6,5.6-7.4l-0.2-0.4c-2.1,0.9-4.2,2.6-5.6,4h-0.4
	c-0.9-0.7-3.3-2.8-5.5-4L630,103c2.3,2.8,4.4,5.5,5.8,7.4H636.3z M628.6,84.3h0.7l6.5-6.3h0.5l6.5,6.3h0.7V15.7l-0.7-0.7h-13.5
	l-0.7,0.7V84.3z"/>
<path class="st5" d="M770.1,101.7c1.1-2.1,3-4.6,5.3-7l-0.2-0.4c-2.1,1.1-4.4,3-5.3,3.9h-0.4c-1.6-1.6-3.3-3.2-5.5-4l-0.2,0.4
	c1.4,1.2,4.6,5.5,5.8,7.2L770.1,101.7L770.1,101.7z M770.1,109.6c0.9-1.6,4-5.8,5.5-7.2l-0.2-0.2c-2.1,0.7-4,2.5-5.5,3.9h-0.4
	c-0.9-0.7-3.2-2.8-5.3-3.9l-0.2,0.4c2.3,2.6,4.2,5.1,5.6,7H770.1z M704.3,102.2c1.1-2.1,3.2-4.7,5.5-7.2l-0.2-0.4
	c-2.1,1.1-4.6,3-5.5,3.9h-0.4c-1.6-1.6-3.5-3.2-5.6-4l-0.2,0.4c1.4,1.2,4.7,5.6,6,7.4L704.3,102.2L704.3,102.2z M704.3,110.4
	c0.9-1.6,4-6,5.6-7.4l-0.2-0.4c-2.1,0.9-4.2,2.6-5.6,4h-0.4c-0.9-0.7-3.3-2.8-5.5-4L698,103c2.3,2.8,4.4,5.5,5.8,7.4H704.3z
	 M711.5,29.4h51v54.9h0.7l6.3-6.3h0.5l6.7,6.3h0.7V30.6L761.8,15h-64.5l-0.7,0.7v68.6h0.7l6.3-6.3h0.5l6.7,6.3h0.7V29.4z"/>
<path class="st5" d="M835.8,102.2c1.1-2.1,3.2-4.7,5.5-7.2l-0.2-0.4c-2.1,1.1-4.6,3-5.5,3.9h-0.4c-1.6-1.6-3.5-3.2-5.6-4l-0.2,0.4
	c1.4,1.2,4.7,5.6,6,7.4L835.8,102.2L835.8,102.2z M835.8,110.4c0.9-1.6,4-6,5.6-7.4l-0.2-0.4c-2.1,0.9-4.2,2.6-5.6,4h-0.4
	c-0.9-0.7-3.3-2.8-5.5-4l-0.2,0.4c2.3,2.8,4.4,5.5,5.8,7.4H835.8z M897.7,77.9l0.7-0.7v-13l-0.7-0.7H843V29.4h58.2l0.7-0.7v-13
	l-0.7-0.7h-72.4l-0.7,0.7v68.6h0.7l6.5-6.3h0.5l6.5,6.3h0.7V78L897.7,77.9L897.7,77.9z"/>
<path class="st2" d="M20.4,115c0,0.9,0.7,1.6,1.6,1.6s1.6-0.7,1.6-1.6c0-0.9-0.7-1.6-1.6-1.6S20.4,114.1,20.4,115z M19,88.5
	c0,1.6,1.4,3,3,3s3-1.4,3-3s-1.4-3-3-3S19,86.9,19,88.5z"/>
<path class="st2" d="M164.6,114c0-0.9-0.7-1.6-1.6-1.6c-0.9,0-1.6,0.7-1.6,1.6c0,0.9,0.7,1.6,1.6,1.6
	C163.9,115.5,164.6,114.8,164.6,114z M158.3,88.5c0-1.8-1.4-3-3-3s-3,1.2-3,3c0,1.6,1.4,3,3,3C156.9,91.5,158.3,90.1,158.3,88.5z
	 M174.8,113.8c0,0.9,0.7,1.6,1.6,1.6c0.9,0,1.6-0.7,1.6-1.6c0-0.9-0.7-1.6-1.6-1.6S174.8,112.9,174.8,113.8z M181.1,88.3
	c0,1.6,1.4,3,3,3s3-1.4,3-3c0-1.8-1.4-3-3-3S181.1,86.5,181.1,88.3z"/>
<path class="st2" d="M264.1,115c0,0.9,0.7,1.6,1.6,1.6s1.6-0.7,1.6-1.6c0-0.9-0.7-1.6-1.6-1.6C264.8,113.4,264.1,114.1,264.1,115z
	 M262.7,88.5c0,1.6,1.4,3,3,3s3-1.4,3-3s-1.4-3-3-3S262.7,86.9,262.7,88.5z"/>
<path class="st2" d="M453.1,115c0,0.9,0.7,1.6,1.6,1.6s1.6-0.7,1.6-1.6c0-0.9-0.7-1.6-1.6-1.6S453.1,114.1,453.1,115z M451.7,88.5
	c0,1.6,1.4,3,3,3s3-1.4,3-3c0-1.8-1.4-3-3-3S451.7,86.7,451.7,88.5z M387.7,115c0,0.9,0.7,1.6,1.6,1.6s1.6-0.7,1.6-1.6
	c0-0.9-0.7-1.6-1.6-1.6C388.4,113.4,387.7,114.1,387.7,115z M386.3,88.5c0,1.6,1.4,3,3,3s3-1.4,3-3c0-1.8-1.4-3-3-3
	C387.7,85.5,386.3,86.7,386.3,88.5z M443.3,115c0,0.9,0.7,1.6,1.6,1.6s1.6-0.7,1.6-1.6c0-0.9-0.7-1.6-1.6-1.6S443.3,114.1,443.3,115
	z M429.7,90.1c0,1.6,1.4,3,3,3s3-1.4,3-3c0-1.8-1.4-3-3-3C431.1,87.1,429.7,88.3,429.7,90.1z"/>
<path class="st2" d="M541.2,115c0,0.9,0.7,1.6,1.6,1.6c0.9,0,1.6-0.7,1.6-1.6c0-0.9-0.7-1.6-1.6-1.6S541.2,114.1,541.2,115z
	 M539.8,88.5c0,1.6,1.4,3,3,3s3-1.4,3-3c0-1.8-1.4-3-3-3S539.8,86.7,539.8,88.5z"/>
<path class="st2" d="M634.4,115c0,0.9,0.7,1.6,1.6,1.6c0.9,0,1.6-0.7,1.6-1.6c0-0.9-0.7-1.6-1.6-1.6
	C635.1,113.4,634.4,114.1,634.4,115z M633,88.5c0,1.6,1.4,3,3,3s3-1.4,3-3c0-1.8-1.4-3-3-3S633,86.7,633,88.5z"/>
<path class="st2" d="M766.7,88.5c0,1.6,1.4,3,3,3s3-1.4,3-3c0-1.8-1.4-3-3-3C768.1,85.5,766.7,86.7,766.7,88.5z M768.1,114
	c0,0.9,0.7,1.6,1.6,1.6c0.9,0,1.6-0.7,1.6-1.6c0-0.9-0.7-1.6-1.6-1.6C768.9,112.4,768.1,113.1,768.1,114z M702.4,115
	c0,0.9,0.7,1.6,1.6,1.6c0.9,0,1.6-0.7,1.6-1.6c0-0.9-0.7-1.6-1.6-1.6C703.1,113.4,702.4,114.1,702.4,115z M701,88.5c0,1.6,1.4,3,3,3
	s3-1.4,3-3c0-1.8-1.4-3-3-3S701,86.7,701,88.5z"/>
<path class="st2" d="M833.9,115c0,0.9,0.7,1.6,1.6,1.6c0.9,0,1.6-0.7,1.6-1.6c0-0.9-0.7-1.6-1.6-1.6
	C834.6,113.4,833.9,114.1,833.9,115z M832.5,88.5c0,1.6,1.4,3,3,3s3-1.4,3-3s-1.4-3-3-3S832.5,86.9,832.5,88.5z"/>
</svg>
