<?xml version="1.0" encoding="utf-8"?>
<!-- Generator: Adobe Illustrator 19.2.0, SVG Export Plug-In . SVG Version: 6.00 Build 0)  -->
<svg version="1.1" id="Layer_1" xmlns="http://www.w3.org/2000/svg" xmlns:xlink="http://www.w3.org/1999/xlink" x="0px" y="0px"
	 viewBox="0 0 940 120.8" style="enable-background:new 0 0 940 120.8;" xml:space="preserve">
<style type="text/css">
	.st0{opacity:0.25;enable-background:new    ;}
	.st1{fill:#203223;}
	.st2{fill:#99C4AB;}
	.st3{fill:#426847;}
</style>
<path class="st0" d="M131.7,111.7l0.4,0.8l3.1-0.7l4.9-1.9l3.9-3.1l-0.3-0.4l-4.8,0.9l-4.7,2.5L131.7,111.7z M120.3,111.6l0.3,0.7
	l2.7-0.3l4.2-2.2l4.6-1.4l4.5-2.1l5.4-3.8l-0.4-0.8l-6.4,1.7l-4.6,2.1l-4,2.5l-4.4,1.9L120.3,111.6z M108.8,111.6l0.2,0.4l3.8-1.1
	l3.9-1.1l3.7-1.8l5.3-2.4l2.6-1.7l4.7-2.3l5.1-3l-0.3-0.8l-5.7,1.9l-4.7,2.1l-3,0.9l-5.3,2.5l-3.7,1.6l-3.3,2.4L108.8,111.6z
	 M97.1,111.3l0.4,0.8l3.9-1.4l2.8-0.8l4.4-1.9l4.1-1.9l4.1-2.1l4.1-1.9l5.6-2.9l3.3-0.5l4.8-4l-0.3-0.5l-6.2,1.2l-2.5,2.1l-5.8,2.5
	l-4.1,1.9l-4.2,1.8l-4.1,1.9l-4.4,2.1l-2.3,1.6L97.1,111.3z M128.1,91.7l0.2,0.4l4.4-0.3l2.5-2l4.8-3l-0.3-0.8l-5.4,1.9l-3.1,0.5
	L128.1,91.7z M85.4,111.5l0.2,0.4l4.2-1.4l2.9-0.8l4.9-2.8l4.7-2.2l4.1-1.4l3-1.4l4.6-3.2l5-2.3l-0.3-0.4l-5.1,1.9l-5.4,1.5
	l-2.9,1.4l-3.8,2.3l-4.7,2.2l-5.3,1.9L89,109L85.4,111.5z M126.6,86.7l0.2,0.4l3.6,0.1l5.3-3l4-3l-0.2-0.5l-4.9,1.1l-5.7,2.3
	L126.6,86.7z M73.4,111.6l0.2,0.4l4-0.9l3.1-1.7l4.5-2.2l4.7-1.3L93,104l6.4-2.2l3.4-1.9l4.4-3.5l-0.2-0.3l-5.5,1l-3.6,1.4l-5.8,3.5
	l-3.5,1.1l-4.1,2.9l-4.5,2l-3.4,1.3L73.4,111.6z M153.4,68.7l0.3,0.7l1.4,0.3l1.3-0.3l1.4-1.9l-0.3-0.5l-2.5-0.1l-1,0.8L153.4,68.7z
	 M122.8,82.9l0.3,0.3l3.8-0.5l4-1.6l2.7-2.1l6-3.1l-0.3-0.6l-6.3,2.5l-3.5,0.8l-3.8,1.9L122.8,82.9z M61.2,111.7l0.3,0.6l3.2-0.3
	l4.2-2.5l5.4-1.7l3.1-1.9l5.3-2.8l2.8-0.7l5.8-3l4.3-3.2l-0.2-0.3l-5.3,1.3l-5.9,2.5l-2.4,1.7l-5.4,2.2l-3.4,1l-4.7,3l-4.7,1.6
	L61.2,111.7z M147.8,65.8l0.3,0.6l3-0.1l4-2l3-2.6l-0.2-0.5l-4,0.7l-4.1,1.8L147.8,65.8z M124,77.3l0.2,0.3l3-0.7l6.4-2.9l6.1-3.6
	l-0.3-0.8l-6.7,2.4l-6.3,3L124,77.3z M119.1,79l0.3,0.6l1.4,0.8l1.9-0.5l0.9-2l-0.1-0.3l-2.4-0.8l-1.6,1.1L119.1,79z M49.2,111.7
	l0.3,0.6l3.4-1.2l4.4-1.2l5.3-2.3l4.6-2.1l2.5-1.7l5.4-1.8l3.8-2.1l5.3-3.7l-0.3-0.4l-6.4,1.4l-4.1,1.5l-4.7,3l-3,0.8l-4.5,2.1
	l-5.3,2.6l-3.7,2.6L49.2,111.7z M142.2,62.9l0.4,0.8l4.3-0.8l3.4-1.5l3.6-2.6l4.6-2.5l-0.3-0.7l-4.9,1.9l-4.3,1.1l-3.5,1.6
	L142.2,62.9z M123.9,71.7l0.2,0.5l4.1-0.5l4.2-2.3l7.4-4.6l-0.3-0.6l-8.2,2.7l-4.5,1.9L123.9,71.7z M39.2,110.8l0.3,0.8l2.9-0.4
	l5.6-2.3l4.2-1.7l2.8-2.5l5.1-1.4l4.1-2.9l4.1-1.2l4.1-3l-0.2-0.3l-5.1,0.9l-3.6,2.4l-4.8,1.3l-4.2,3l-3.8,0.5l-4,2.1l-5.3,2.8
	L39.2,110.8z M123.7,66.3l0.2,0.4l3.7-1.4l4.2-1.3l5.2-2.7l3-1l4.3-1.8l5.3-3l5.3-2.6l4.1-2.5l-0.3-0.8L154,51l-5.3,2.3l-5.8,2.3
	l-4.1,2.1l-2.7,1.6l-5.3,2.2l-3.7,2.5L123.7,66.3z M35.4,107.1l0.4,0.8l2.4-0.6l6.2-2.5l3.1-1.7l4.1-1.5l4.1-2.3l4.7-3l-0.3-0.4
	l-5.4,1.4l-4.4,1.8l-3.9,2.2l-3.2,1.3l-5.9,3L35.4,107.1z M141.7,52.4l0.2,0.4l4.8-1.1l2.9-1l4.2-2.5l5.5-3.5l-0.2-0.5l-6.3,2
	l-4.7,1.6l-2.6,1.6L141.7,52.4z M123.6,60.8l0.2,0.5l3.5-0.4l6.4-3l5.4-3.6l-0.2-0.4l-6.4,1.6l-6.4,2.9L123.6,60.8z M31.8,103.4
	l0.2,0.5l4.6-1l2.6-0.8l5.2-2.5l4.1-3.1L48.2,96L43,96.9l-5.3,2.4l-2.4,1.4L31.8,103.4z M142.1,46.8l0.2,0.4l2.6-0.5l4.7-1.9
	l4.8-2.1l4.5-3.4l-0.3-0.4l-5.5,1.3l-4.7,2.4l-4.4,2.3L142.1,46.8z M123.6,55.4l0.3,0.5l2.8-0.8l3.3-0.8l3.6-3.1l-0.2-0.4l-4.7,0.6
	l-2.7,2L123.6,55.4z M28,99.6l0.3,0.7l3,0.2l1.4-1.4l3.6-2.5L36,96.2l-4.3,1l-1.9,0.2L28,99.6z M142.5,41.1l0.2,0.4l3.6-1l4.4-1.8
	l4.5-3l-0.3-0.8l-5.2,1.6l-4.1,2.2L142.5,41.1z M123.7,49.9l0.2,0.4l1.4,0.2l1.4,0.1l1.2-2.2l-0.2-0.4l-2.6-0.8l-0.8,1.2L123.7,49.9
	z M142.9,35.4l0.2,0.4l2.4-0.1l3.1-1l2.8-2.9l-0.3-0.4l-4,0.3l-2.8,1.8L142.9,35.4z M143.2,29.8l0.2,0.3l1.5,0.6l1.5-1l1.2-1.5
	l-0.3-0.5l-1.9-0.1l-1.7,0.5L143.2,29.8z M26.9,34.2l0.3,0.8l1.4,0.9L29,35l0.9-1.7l-0.2-0.4l-1.8-0.1l-1-0.3L26.9,34.2z"/>
<path class="st0" d="M272.6,111.9l0.3,0.8l1.2,0.3l2-0.7l1.1-1.9L277,110l-2.1-0.3l-1.9,1.1L272.6,111.9z M260.9,112.1l0.3,0.4
	l4.4-0.9l5.8-2.8l5.7-3.6l-0.3-0.6l-6.4,2l-5.8,2.6L260.9,112.1z M249.4,111.9l0.3,0.5l2.9-0.7l6-1.9l4.2-2.7l3.8-1.6l4.8-2.2
	l5.3-3.6l-0.2-0.5l-6.2,1.8l-4.7,2.2l-3.7,1.9l-4.8,1.4l-5.3,3.5L249.4,111.9z M237.8,111.7l0.3,0.8l3.4-1.3l5.5-1.8l3.3-1.4
	l3.6-2.2l4.2-1.6l5.1-2.6l4-1.4l5.2-3.2l4.1-2.5l-0.3-0.4l-4.5,1.4l-5.8,1.9l-3.7,2.1l-5.3,2.2l-4,2.2l-4,1.4l-3.1,1.6l-4.8,3
	L237.8,111.7z M261.4,95.6l0.3,0.4l4.7-1.4l4.7-2.5l5.3-2.9l-0.3-0.8l-5.6,2.1l-5,1.9L261.4,95.6z M226.3,111.7l0.2,0.4l4.4-1.4
	l2.2-0.9l4-2.1l5.3-1.6l3.6-2.1l5.6-2.9l3-1.4l5.2-3l-0.1-0.3l-5.8,1.9l-2.9,1.4l-5.8,2.5l-3.9,1.4l-4.6,3l-4.1,1.7l-2.2,1.1
	L226.3,111.7z M261,90.1l0.3,0.4l3.9-0.8l5.3-1.9l5.3-4l-0.3-0.8l-6.5,1.6l-4.8,2.9L261,90.1z M214.4,111.7l0.3,0.6l4.3-1.4l2.8-0.5
	l3.8-1.7l5.2-2.7l3.6-1.7l4.3-1.9l4.3-2.5l4.9-3.1l-0.2-0.3L242,98l-4.7,1.7l-4.2,2.1l-3.6,1.7l-5.4,2.1l-3.7,1.9l-2.1,1.9
	L214.4,111.7z M260.8,84.8l0.2,0.3l3-0.8l6.5-2.3l5.1-3.6l-0.3-0.8l-6,1.5l-5.9,3.6L260.8,84.8z M202.7,111.7l0.3,0.6l3.2-0.9
	l4.1-1.5l4.9-1.8l4.6-2.4l3-1.6l3.6-2.1l5.3-2.5l4.9-2.7l-0.2-0.5l-5.5,1.7l-5.3,2.5l-3.9,1.4l-3.1,1.3l-4.7,1.9l-4.5,2.6l-3.9,2.1
	L202.7,111.7z M260.5,79.5l0.2,0.3l2.4,0.2l4.7-2.5l4.2-2.9l-0.3-0.6l-4.9,1.4l-5,1.9L260.5,79.5z M190.6,111.9l0.2,0.4l2.8-0.8
	l5.1-1.7l5.1-2.4l3.2-1.4l3.9-1.8l4.3-1.8l4.2-2.2l5.5-3.6l-0.3-0.5l-6.4,1.7l-4.5,1.8l-4.1,2.2l-3.9,1.8l-3.1,1.6l-5.2,2.4
	l-4.6,2.8L190.6,111.9z M272,68.4l0.3,0.7l1.1,0.3l1.1-0.2l1.3-1.7l-0.3-0.8l-2.1-0.1l-0.8,0.8L272,68.4z M260.2,74.1l0.2,0.4l2,0.4
	l3.5-2.2l2.7-1.9l-0.3-0.8l-3.3,0.8l-3.8,1.3L260.2,74.1z M178.5,111.9l0.3,0.6l2.8-0.7l6.1-2.3l3.3-1.9l4.2-1.5l5.1-2.8l4.6-1.9
	l2.6-1.4l5.8-3.6l-0.2-0.4l-6.6,1.9l-2.7,1.3l-4.4,2.2l-5.5,2.1l-3.8,2.2l-3.6,1.4l-5.6,3.1L178.5,111.9z M259.8,68.8l0.3,0.4
	l2.9-0.8l4.4-1.3l4.9-2.7l3.8-2.7l-0.3-0.7l-4.6,1.2l-5.3,2l-3.7,2.5L259.8,68.8z M166.6,112.1l0.3,0.4l4.6-1.3l3-0.9l3.7-1.9
	l6.4-3.3l3.3-1.7l5.1-1.4l4.2-2.6l4.5-2.9l-0.2-0.4l-5.3,1.3l-4.7,1.5l-4.2,3l-3.6,1.4l-6.5,2.7l-3.9,1.6l-2.6,1.7L166.6,112.1z
	 M259.6,63.4l0.2,0.4l3.6-0.8l4-1.1l4.8-2.2l4.3-3.6l-0.2-0.5l-5.7,0.9l-4.7,2.4l-3.5,2.3L259.6,63.4z M156.9,111.1l0.3,0.4l3.1-1.1
	l4.8-2l3-1.4l5.4-2.3l3.4-0.7l5.2-2.5l3.5-2.5l4.2-2.5l-0.3-0.5l-4.7,1.4l-4.2,1l-5.2,2.3l-2.7,2.2l-5.2,2.7l-3.1,1.4l-4.7,2.4
	L156.9,111.1z M256.7,59.1l0.2,0.4l2.7-0.7l5.5-1.9l7.1-3.5l4.7-3.1l-0.3-0.5l-5.3,1.5l-7.2,3.2l-5.1,3L256.7,59.1z M153.2,107.2
	l0.3,0.6l3.6-1l3.6-0.8l4.9-2.5l3.3-1.5l4.9-2.5l3.9-3l-0.2-0.5l-4.9,0.9l-5.1,2.2l-3.3,1.5l-5.1,2.1l-3,2.3L153.2,107.2z
	 M259.7,52.5l0.1,0.3l3-0.4l5.7-2.3l2.7-1.4l6-4.1l-0.3-0.5L270,46l-2.8,1.3l-5.3,2.9L259.7,52.5z M252.9,55.2l0.3,0.5l1.5,0.4
	l1.1-0.6l1.9-1.7l-0.3-0.5l-2.6,0.2l-1.2,0.5L252.9,55.2z M149.4,103.5l0.3,0.6l4.9-1.8l5.4-2.8l5.7-2.8l-0.3-0.5l-5.9,2.3l-5.6,2.3
	L149.4,103.5z M260,46.7l0.2,0.4l4.2-0.7l2.5-1.6l5.4-1.7l4.7-3.9l-0.3-0.4l-5.9,1.1l-4.7,3l-2.8,0.8L260,46.7z M145.7,99.7l0.3,0.7
	l2.3-0.5L151,99l2.7-2.1l-0.3-0.5l-3.5,0.4l-2.5,1.4L145.7,99.7z M260.3,41.1l0.3,0.5l3.8-0.9l3.8-1.1l5-4l-0.3-0.6l-6.3,1.3
	l-3.2,2.2L260.3,41.1z M260.8,35.4l0.2,0.4l2.4-0.1l3.2-1.1l2.9-2.9l-0.3-0.4l-4.1,0.3l-2.8,1.8L260.8,35.4z M261.1,29.8l0.2,0.3
	l1.5,0.6l1.6-1l1.3-1.6l-0.3-0.5l-2-0.1l-1.8,0.6L261.1,29.8z M144.8,34.2l0.3,0.8l1.4,0.9l0.4-0.9l0.9-1.7l-0.2-0.4l-1.8-0.1
	l-1-0.3L144.8,34.2z"/>
<path class="st0" d="M374.5,110.1l0.3,0.8l3-0.3l4-2.7l5.5-2.4l4.7-1.4l3.8-2.5l6.4-3.5l-0.3-0.8L395,100l-4.4,1.4l-4.1,2.7
	l-5.3,2.7l-4.7,1.3L374.5,110.1z M358.8,111.8l0.4,0.8l3-1.2l4.4-1.3l4.9-2.3l4.1-1.9l4.1-2.4l2.5-0.8l4.7-2.4l4.4-2.4l4.7-2
	l4.2-1.9l3.2-1.8l5-2.9l-0.2-0.5l-5.5,2l-3.4,1.3l-4.1,2l-4.6,2.3l-4.7,1.9l-4.8,2l-2.2,1.4l-4.5,1.6l-4.1,1.9l-4.9,2.4l-3.8,2.5
	L358.8,111.8z M346.6,112.1l0.3,0.4l2.7-0.3l4.9-2.2l3.7-1.5l5.1-2.6l3.6-1.8l3-1.4l5-1.4l4.1-2.7l2.4-1.6l5.6-1.7l3.4-1.9l3.7-1.3
	l5.1-2.5l2.4-1.8l4.5-2.5l5.2-2.6l-0.3-0.6l-5.3,2.3l-4.7,1.9l-3,0.7l-5.2,2.2l-3.4,2.1l-3.6,1.3l-4.9,3.2l-2.7,0.8l-4.7,1.4
	l-4.3,2.9l-3,1.4l-3.7,1.6l-5.3,2.2l-3.6,1.9l-4.7,2.4L346.6,112.1z M334.8,111.8l0.3,0.6l3-0.5l3.6-1.8l5.6-2.6l2.9-1.5l5.4-1.8
	l2.5-1.6l3.4-2l5.3-1.5l4.9-2.5l2.7-0.8l4.5-3.1l4.7-1.7l4.1-1.3l2.5-1.9l4.7-2.7l3.6-1.3l3.3-1.9l5.2-2.5l4.7-2.5l-0.3-0.8l-5,1.9
	l-5.2,2.3l-3.6,1.4l-3.3,1.9l-5.2,1.8l-3,0.8l-3.6,2.3l-4.3,2.6l-5.3,1.4l-2.5,1.5l-5,2.1l-4.6,3l-3.8,1.4l-2.8,0.8l-4.9,3l-3,1.2
	l-5.6,2.6l-3.7,1.7L334.8,111.8z M384.4,83.3l0.2,0.4l3.2-0.7l5.9-2.2l4.9-2.5l4.1-1.4l2.9-1.9l6.4-4.1l-0.3-0.5l-7.3,2.3l-3.3,1
	l-3.6,2.1l-5.2,2.2l-5.3,3.6L384.4,83.3z M323,111.7l0.3,0.6l3.6-0.8l4.2-1.9l4.7-2.2l3.2-1.1l3.4-2.5l5.5-2.1l4-2l4.4-2.1l4.7-3
	l-0.1-0.3l-5.4,1.5l-4.4,2l-4.1,1.7l-5.2,2.9l-4.1,1l-2.9,1.7l-4.7,2.2l-4.1,2L323,111.7z M392,74l0.3,0.5l2.8-0.5l6.4-2.6l4.4-1.9
	l5.3-3.7l-0.3-0.8l-6.3,1.7l-4.3,2.1l-6.2,3.3L392,74z M311,111.7l0.2,0.4l2.3-0.7l6.7-1.9l2.4-1.6l4.8-2.1l4.8-2.8l3.5-0.7l3.6-2.2
	l5.5-3.5l-0.3-0.5l-6.3,1.7l-4.1,1.4l-2.7,2.2l-5.3,1.9l-4.7,2.4l-2.7,0.8l-5.8,3.9L311,111.7z M394.9,67.2l0.2,0.3l5.1-0.8l3.5-2.3
	l6.1-3.6l-0.3-0.5l-6.7,2.3l-4,1.2L394.9,67.2z M298.5,111.8l0.2,0.5l2.6-0.8l5.3-1.4l3.7-2l4.7-2.6l4.7-1.4l4.1-2.1l3.6-1.4
	l4.7-3.8l-0.2-0.4l-6.2,0.8l-3.3,1.9l-4.3,1.7l-4.1,2.8l-5.1,1.9l-4,1.6l-4.5,3.2L298.5,111.8z M395.8,61.2l0.2,0.4l3.6-1.2l3.6-0.6
	l4.5-3.7l-0.3-0.8l-5.7,1.1l-2.8,2.4L395.8,61.2z M285.9,112l0.3,0.6l3.1,0.2l5.1-3l3.6-2.1l5.3-1.4l2.9-1.6l4.4-2.3l4-1.9l6-3.7
	l-0.3-0.5l-6.9,1.9l-4.1,1.8l-4.6,1.9l-3,1.2l-4.5,3.1l-3.9,1.4l-5.5,2L285.9,112z M396,55.3l0.3,0.5h2.3l2.8-0.9l3.8-3.2l-0.3-0.8
	l-5,0.8l-2.5,1.5L396,55.3z M275.1,111.3l0.3,0.8l3.3-0.9l3.1-1.6l5.5-2.4l5-1.5l3.5-1.9l3.9-2.5l4.3-1.7l4.8-3l-0.3-0.5l-5.6,1.4
	l-4,2.3l-4.5,1.3l-3.7,1.4l-4.3,2.9l-5.3,2.7l-3.2,1.4L275.1,111.3z M395.3,50l0.3,0.5l2.4-0.4l1.9-0.3l2.4-2.3l-0.3-0.8l-3.3,0.3
	l-1.4,1.2L395.3,50z M271.2,107.6l0.3,0.6l3.8-0.3l2.8-2l4.4-2.1l6.1-2.7l3.4-1.1l4.7-3.6l-0.2-0.3l-5.8,1.1l-3,1.9l-6,3l-4.5,2
	l-3.3,0.8L271.2,107.6z M394,45l0.1,0.2l1.7,0.8l1-1.1l1.9-1.4l-0.3-0.8l-2.4,0.5l-1.5,0.1L394,45z M267.4,103.8l0.3,0.4l3.6-1
	l4.2-1.1l4.7-2.4l4.1-3.1l-0.2-0.4l-5.2,0.8l-4.8,2.1l-3.6,2.5L267.4,103.8z M392,40.3v0.2l1.1,0.3l0.9-0.1l0.7-1.4l-0.3-0.4
	l-1.4-0.3l-0.6,0.7L392,40.3z M263.5,99.9l0.3,0.6l2,0.4l2.9-1.4l3-2.6l-0.2-0.5l-4.2,0.4l-2.9,1.3L263.5,99.9z M325.6,65.6l0.3,0.5
	h1.1l1.1-0.5l1.2-1.4l-0.3-0.5l-2-0.5l-0.8,1.2L325.6,65.6z M325.6,60l0.2,0.3l2.6,0.5l1-1.4l2.9-2.4l-0.3-0.4l-3.6,0.8l-1.7-0.1
	L325.6,60z M325.6,54.3l0.2,0.4l2.4-0.4l2.7-1l2.5-2.3l-0.3-0.6l-3.3,0.8l-2.5,1.4L325.6,54.3z M325.6,48.6l0.3,0.5l2.5-0.3l2.6-0.3
	l2.8-3.4l-0.2-0.4l-4.3,0.3l-1.9,1.7L325.6,48.6z M325.6,43.1l0.2,0.3l2.3,0.1l3-0.9l2.5-3l-0.2-0.4l-3.9,0.2l-2.6,1.7L325.6,43.1z
	 M325.6,37.4l0.2,0.3l2.3,0.3l2.6-1.5l2.2-2.3l-0.2-0.3l-3.1,0.3l-2.8,1.1L325.6,37.4z M261.4,33.1l0.3,0.8l1.4,1l0.3-0.9l1-1.4
	l-0.3-0.5l-1.5,0.2l-0.9-0.3L261.4,33.1z"/>
<path class="st0" d="M523.8,111.9l0.3,0.8l1.2,0.3l2-0.7l1.1-1.9l-0.2-0.4l-2.1-0.3l-1.9,1.1L523.8,111.9z M512.1,112.1l0.3,0.4
	l4.4-0.9l5.8-2.8l5.7-3.6l-0.3-0.6l-6.4,2l-5.8,2.6L512.1,112.1z M500.6,111.9l0.3,0.5l2.9-0.7l6-1.9l4.2-2.7l3.8-1.6l4.8-2.2
	l5.3-3.6l-0.2-0.5l-6.2,1.8l-4.7,2.2l-3.7,1.9l-4.8,1.4L503,110L500.6,111.9z M489,111.7l0.3,0.8l3.4-1.3l5.5-1.8l3.3-1.4l3.6-2.2
	l4.2-1.6l5.1-2.6l4-1.4l5.2-3.2l4.1-2.5l-0.3-0.4l-4.5,1.4l-5.8,1.9l-3.7,2.1l-5.3,2.2l-4,2.2l-4,1.4l-3.1,1.6l-4.8,3L489,111.7z
	 M512.6,95.6l0.3,0.4l4.7-1.4l4.7-2.5l5.3-2.9l-0.3-0.8l-5.6,2.1l-5,1.9L512.6,95.6z M477.5,111.7l0.2,0.4l4.4-1.4l2.2-0.9l4-2.1
	l5.3-1.6l3.6-2.1l5.6-2.9l3-1.4l5.2-3l-0.1-0.3l-5.8,1.9l-2.9,1.4l-5.8,2.5l-3.9,1.4l-4.6,3l-4.1,1.7l-2.2,1.1L477.5,111.7z
	 M512.2,90.1l0.3,0.4l3.9-0.8l5.3-1.9l5.3-4l-0.3-0.8l-6.5,1.5l-4.8,2.9L512.2,90.1z M465.6,111.7l0.3,0.6l4.3-1.4l2.8-0.5l3.8-1.7
	l5.2-2.7l3.6-1.7l4.3-1.9l4.3-2.5l4.9-3.1l-0.2-0.3l-5.7,1.5l-4.7,1.7l-4.2,2.1l-3.6,1.7l-5.4,2.1l-3.7,1.9l-2.1,1.9L465.6,111.7z
	 M512,84.8l0.2,0.3l3-0.8l6.5-2.3l5.1-3.6l-0.3-0.8l-6,1.5l-5.9,3.6L512,84.8z M453.9,111.7l0.3,0.6l3.2-0.9l4.1-1.5l4.9-1.8
	l4.6-2.4l3-1.6l3.6-2.1l5.3-2.5l4.9-2.7l-0.2-0.5l-5.5,1.7l-5.3,2.5l-3.9,1.4l-3.1,1.3l-4.7,1.9l-4.5,2.6l-3.9,2.1L453.9,111.7z
	 M511.7,79.5l0.2,0.3l2.4,0.2l4.7-2.5l4.2-2.9l-0.3-0.6l-4.9,1.4l-5,1.9L511.7,79.5z M441.8,111.9l0.2,0.4l2.8-0.8l5.1-1.7l5.1-2.4
	l3.2-1.4l3.9-1.8l4.3-1.8l4.2-2.2l5.5-3.6l-0.3-0.5l-6.4,1.7l-4.5,1.8l-4.1,2.2l-3.9,1.8l-3.1,1.6l-5.2,2.4l-4.6,2.8L441.8,111.9z
	 M523.2,68.4l0.3,0.7l1.1,0.3l1.1-0.2l1.3-1.7l-0.3-0.8l-2.1-0.1l-0.8,0.8L523.2,68.4z M511.4,74.1l0.2,0.4l2,0.4l3.5-2.2l2.7-1.9
	l-0.3-0.8l-3.3,0.8l-3.8,1.3L511.4,74.1z M429.7,111.9l0.3,0.6l2.8-0.7l6.1-2.3l3.3-1.9l4.2-1.5l5.1-2.8l4.6-1.9l2.6-1.4l5.8-3.6
	l-0.2-0.4l-6.6,1.9l-2.7,1.3l-4.4,2.2l-5.5,2.1l-3.8,2.2l-3.6,1.4l-5.6,3.1L429.7,111.9z M511,68.8l0.3,0.4l2.9-0.8l4.4-1.3l4.9-2.7
	l3.8-2.7L527,61l-4.6,1.2l-5.3,2l-3.7,2.5L511,68.8z M417.8,112.1l0.3,0.4l4.6-1.3l3-0.9l3.7-1.9l6.4-3.3l3.3-1.7l5.1-1.4l4.2-2.6
	l4.5-2.9l-0.2-0.4l-5.3,1.3l-4.7,1.5l-4.2,3l-3.6,1.4l-6.5,2.7l-3.9,1.6l-2.6,1.7L417.8,112.1z M510.8,63.4l0.2,0.4l3.6-0.8l4-1.1
	l4.8-2.2l4.3-3.6l-0.2-0.5l-5.7,0.9l-4.7,2.4l-3.5,2.3L510.8,63.4z M408.1,111.1l0.3,0.4l3.1-1.1l4.8-2l3-1.4l5.4-2.3l3.4-0.7
	l5.2-2.5l3.5-2.5l4.2-2.5l-0.3-0.5l-4.7,1.4l-4.2,1l-5.2,2.3l-2.7,2.2l-5.2,2.7l-3.1,1.4l-4.7,2.4L408.1,111.1z M507.9,59.1l0.2,0.4
	l2.7-0.7l5.5-1.9l7.1-3.5l4.7-3.1l-0.3-0.5l-5.3,1.5l-7.2,3.2l-5.1,3L507.9,59.1z M404.4,107.2l0.3,0.6l3.6-1l3.6-0.8l4.9-2.5
	l3.3-1.5l4.9-2.5l3.9-3l-0.2-0.5l-4.9,0.9l-5.1,2.2l-3.3,1.5l-5.1,2.1l-3,2.3L404.4,107.2z M510.9,52.5l0.1,0.3l3-0.4l5.7-2.3
	l2.7-1.4l6-4.1l-0.3-0.5l-6.9,1.9l-2.8,1.3l-5.3,2.9L510.9,52.5z M504.1,55.2l0.3,0.5l1.5,0.4l1.1-0.6l1.9-1.7l-0.3-0.5l-2.6,0.3
	l-1.2,0.5L504.1,55.2z M400.6,103.5l0.3,0.6l4.9-1.8l5.4-2.8l5.7-2.8l-0.3-0.5l-5.9,2.3l-5.6,2.3L400.6,103.5z M511.2,46.7l0.2,0.4
	l4.2-0.7l2.5-1.6l5.4-1.7l4.7-3.9l-0.3-0.4l-5.9,1.1l-4.7,3l-2.8,0.8L511.2,46.7z M396.9,99.7l0.3,0.7l2.3-0.5l2.7-0.9l2.7-2.1
	l-0.3-0.5l-3.5,0.4l-2.5,1.4L396.9,99.7z M511.5,41.1l0.3,0.5l3.8-0.9l3.8-1.1l5-4l-0.3-0.6l-6.3,1.3l-3.2,2.2L511.5,41.1z
	 M512,35.4l0.2,0.4l2.4-0.1l3.2-1.1l2.9-2.9l-0.3-0.4l-4.1,0.3l-2.8,1.8L512,35.4z M512.3,29.8l0.2,0.3l1.5,0.6l1.6-1l1.3-1.6
	l-0.3-0.5l-2-0.1l-1.8,0.6L512.3,29.8z M396,34.2l0.3,0.8l1.4,0.9l0.4-0.9l0.9-1.7l-0.2-0.4l-1.8-0.1l-1-0.3L396,34.2z"/>
<path class="st0" d="M670.5,112.3l0.3,0.8l2.5-0.8h2.6l1.9-2.7l-0.3-0.5l-3.3-0.3l-1.7,1.9L670.5,112.3z M656.4,113.3l0.3,0.6l3-0.8
	l4.8-1.9l4.6-2.5l4.5-1.5l4.1-3.2l-0.3-0.4l-5,1l-4.1,2.5l-4.9,1.9l-4.5,2.5L656.4,113.3z M644,113.5l0.2,0.4l2.9-1l5-1.2l3.6-1.9
	l4.8-2.2l4.3-1.5l4.5-2.7l4.4-3.1l-0.2-0.5l-5.3,1.4l-4.9,1.7l-4,2.4l-4.7,2.2l-3.8,1.6l-4.2,3L644,113.5z M633.3,112.8l0.3,0.6
	l3.5-1.3l4.6-1.6l2.5-1.4l5.6-1.9l3.6-1.6l3.4-2l5.3-1.9l2.6-1.4l5.3-3.9l-0.3-0.4l-6.4,1.5l-2.8,1.1l-4.9,2.9l-3.7,1.3l-3.5,1.7
	l-5,3.1l-2.7,0.9l-4.2,2.5L633.3,112.8z M662,93.9l0.2,0.5l1.4,0.8l1.4-0.9l1.1-1.9l-0.3-0.4l-2-0.3l-1.6,0.4L662,93.9z
	 M624.8,111.1l0.2,0.4l3.2-0.8l5.3-1.6l4-2.2l5.5-2l3.5-2.1l5.7-2.5l4.3-3.4l-0.2-0.3l-5.4,1l-5.6,2.7l-3.9,1.3l-5,3l-4.3,1.6
	l-4.7,3L624.8,111.1z M617.7,108.6l0.3,0.7l3.6-1.3l4.7-1.5l4.5-2.3l6.4-3.6l4.8-2.5l-0.3-0.4l-5.2,1.8l-6.9,2.6L625,104l-4.2,2.6
	L617.7,108.6z M610.4,112l0.3,0.8l0.8,0.7l0.3-0.5l0.3-1l-0.3-0.4l-0.9-0.5h-0.6v0.9H610.4z M612.2,105.5l0.3,0.8l4.1-0.8l3.4-1.7
	l3.8-2l5.7-3.4l-0.2-0.5l-6.4,2l-4.1,1.6l-3.4,1.5L612.2,105.5z M598.5,111.9l0.3,0.7l4.4-0.9l3.3-1.8l5.7-3.5l-0.4-0.8l-6.3,2.1
	l-3.5,1.4L598.5,111.9z M654.1,80.2l0.3,0.5l0.4,0.3l0.8,0.4l0.3-1.2l-0.3-0.5l-1-0.6l-0.5,0.3V80.2z M586.7,111.7l0.3,0.7l4.2-1.8
	l3-0.8l5.3-2.4l4.4-1.7l5-2.7l4-1.8l5.7-3.6l-0.3-0.4l-6.4,1.8l-4,1.9l-5.3,2.1l-4.1,2.3l-5.3,2.5l-2.6,1.8L586.7,111.7z
	 M650.3,76.5l0.3,0.5l0.6,0.3l0.9,0.5l0.1-1.4l-0.3-0.8l-1.1-0.8l-0.3,1L650.3,76.5z M574.7,111.6l0.4,0.8l3.2-0.8l4.2-1.5l4.1-2.3
	l4.8-1.4l3.9-1.9l4.7-3.4l5.1-2.5l4.7-2.5l-0.3-0.5l-5,1.8l-5.3,2.4l-5.6,1.4l-3.9,1.8l-4.1,2.8l-4.4,1.7l-3.9,2.2L574.7,111.6z
	 M646.2,72.9l0.3,0.3l4.5-0.3l4.2-2.3l6.4-4.2l-0.4-0.8l-7.3,2.1l-4.4,1.8L646.2,72.9z M596.1,96.2l0.2,0.3l1.8,0.3l2.6-1.2l2-2
	l-0.3-0.5l-2.9,0.1l-2.6,1.3L596.1,96.2z M562.6,111.6l0.3,0.8l2.4-0.9l6-2l2.5-1.4l4.9-2.2l3.7-1.8l4.7-2.4l4.3-2.2l4.4-2.6
	l-0.3-0.4l-4.8,1.5l-4.5,1.9l-4.9,2.1l-3.7,1.7l-4.8,2.4l-2.6,1.1l-5.5,3.2L562.6,111.6z M643,68.8l0.1,0.3l5.2-1.4l3.9-1.3l4.1-2
	l6.4-4.2l-0.3-0.6l-7.3,2.1l-4.2,1.9l-3.5,2.2L643,68.8z M550.2,111.9l0.3,0.4l3.8-1.2l4.4-1.9l3-1.7l5.2-1l4.3-2.8l3.5-2l5.1-1.5
	l4.4-3.5l-0.2-0.4l-5.6,0.9l-4.5,3l-3.7,1.3l-4.9,1.5l-4.1,3.3l-3.2,1.2l-4.2,2.2L550.2,111.9z M639.9,64.2l0.2,0.5l4.5-1.1l3-0.9
	l5.8-2.3l4.1-1.9l4.4-3.6l-0.3-0.6l-5.7,1l-4.1,1.9l-5.4,3l-2.7,1.7L639.9,64.2z M537.5,111.9l0.3,0.8l3.1-1l4.9-2l4.1-1.4l5-2.8
	l2.9-1l4.2-1.7l5.3-3l4.8-3.1l-0.2-0.4l-5.7,1.4l-5.7,2.1l-4,2.1l-2.7,1.5l-5.3,2l-3.7,2.3l-4.7,2.5L537.5,111.9z M636.3,60.2
	l0.3,0.5l5.2-1.3l3.7-1.4l4.5-2.4l4.9-2.3l5.2-3.6l-0.2-0.4l-6.1,1.7l-4.9,2.3l-4.7,1.9l-3.5,1.9L636.3,60.2z M526.5,111.5l0.3,0.6
	l4.1-1.2l3-0.8l5.3-2.4l3.6-2.1l4.8-1.8l3.4-1.7l4.9-3l4.2-2.7l-0.2-0.3l-4.8,1.4l-5.5,1.8l-3.5,1.5l-4.5,2.5l-3.9,1.4l-5.3,2.5
	l-2.7,1.8L526.5,111.5z M645.1,50.8l0.2,0.4l2.9-0.3l5.3-1.9l3.9-3.3l-0.3-0.6l-5.1,0.8l-4.9,2.9L645.1,50.8z M522.6,107.7l0.3,0.4
	h2.6l4.5-2.5l5.1-1.9l3.2-1.4l4.3-1.9l5.6-3.7l-0.3-0.5l-6.6,1.6l-4.2,2.1l-3.1,1.4l-4.7,2.7l-4.9,1.8L522.6,107.7z M646.5,44.5
	l0.2,0.3l2.5,0.3l2.7-1.2l2.3-2.5l-0.3-0.7l-3.4,0.2l-2.6,1.4L646.5,44.5z M518.7,103.6l0.3,0.8l3.6-1.2l4.3-1.8l4.1-2l4.5-3
	l-0.1-0.3l-5.3,1.4l-4.1,1.9l-4.2,2.1L518.7,103.6z M646,39.1l0.2,0.5l1.5,0.1l1.4,0.2l1.2-2.3l-0.3-0.7l-2.5-0.6l-0.8,1.3L646,39.1
	z M576.9,71.3l0.2,0.4l0.9,0.7l0.9,0.1l0.2-1.8l-0.3-0.4l-1.4-1l-0.4,1.1L576.9,71.3z M514.9,100l0.3,0.4l2.5,0.3l3-1.7l2.5-2.3
	l-0.2-0.3l-3.5,0.3l-3.1,1.2L514.9,100z M512.6,32.9l0.3,0.8l1.3,1l0.3-0.8l0.7-1.3l-0.2-0.4h-1.4l-0.3,0.7L512.6,32.9z"/>
<path class="st0" d="M810.5,112.1l0.3,0.4l1.4,0.7l2.2-0.8l1.4-2.1l-0.3-0.4l-2.5-0.3l-2,1.1L810.5,112.1z M798.1,111.8l0.3,0.8
	l3.1-0.3l4.9-2.6l4.1-1.4l5-3.8l-0.3-0.6l-6.2,1.4l-3.6,2.4l-5.2,2L798.1,111.8z M786,111.8l0.2,0.4l3.4-0.3l5.2-1.9l3.6-1.5
	l5.1-2.9l2.7-0.8l5.6-4.4l-0.3-0.4l-6.9,1.4l-2.5,1.6l-5.5,2l-3.4,1.7l-4.7,2.7L786,111.8z M773.7,111.7l0.3,0.6l4.1-1.4l4.2-1.4
	l3-1.3l4.7-3l3.8-1.2l3.6-1.6l5.2-3l4.9-2.7l-0.3-0.6l-5.3,2l-5.6,2l-3.6,1.8l-3.4,2.1l-5.4,1.7l-2.9,1.5l-3.8,2.4L773.7,111.7z
	 M799.7,94l0.2,0.3l1.8,0.6l0.7-0.8l1.4-1.5l-0.3-0.6l-2.1,0.2h-1L799.7,94z M761.2,111.7l0.2,0.4l3.5-0.8l3.4-1l6-3l3.7-1.2
	l2.8-1.3l5.1-2.8l3.5-1.9l5.4-3.4l-0.3-0.5l-6.2,1.7l-3.6,1.4l-5.4,2.2l-2.8,1.3l-3.3,2.1l-6.1,2.6l-3,1.9L761.2,111.7z
	 M748.3,111.7l0.3,0.7l2.8-0.8l3.7-1.8l5.3-2.5l4.4-1.4l4.2-2.5l3.8-1.4l4.7-2.5l4.6-3l-0.2-0.3l-5.3,1.4l-5,2l-3.5,2l-4.7,1.7
	l-3.8,2.5l-5.3,2.5l-3.7,1.7L748.3,111.7z M735.4,111.9l0.4,0.8l3.8-1.4l3.3-0.6l4.7-2.5l5.3-2.9l2.9-0.6l6-2.5l3.8-2.5l4.7-3.2
	l-0.3-0.4l-5.5,1.4l-4.3,1.4l-5.8,3l-2.4,1.8l-5.5,2.2l-4.9,1.9L739,110L735.4,111.9z M722.7,112l0.4,0.8l4.2-1.5l3.4-1.4l4.1-2.1
	l5.1-1.8l5-2.3l4.4-2.5l4.2-2.5l4.4-2.1l-0.3-0.4l-4.6,1.7l-4.7,1.5l-4.7,1.8l-5,2.5l-4.7,2.7l-4.2,1.8l-3.2,1.7L722.7,112z
	 M710.8,111.9l0.2,0.4l2.7-0.8l5.4-1.4l3.8-2.1l4.8-2.7l4.8-1.4l4.2-2.1l3.6-1.4l4.9-3.9l-0.3-0.4l-6.2,0.9l-3.5,1.9l-4.3,1.9
	l-4.2,2.8l-5.3,1.9l-4,1.5l-4.6,3.3L710.8,111.9z M698.6,111.7l0.2,0.4l3.6-0.5l5-2.5l2.3-1.3l5.1-2.5l5.6-1.4l4-2.4l4.3-2.1l4-2.9
	l-0.3-0.6l-4.8,1l-4.4,1.9l-4.4,1.4l-4.7,3.4l-5.3,2.3l-2.5,0.9l-5,2.3L698.6,111.7z M774.5,70.7v0.2l3,0.5l1.8-1.7l2.4-1.8
	l-0.3-0.8l-2.9,0.7l-2.5,0.3L774.5,70.7z M685.6,111.7l0.3,0.8l3-1l4.5-1.1l4.7-2.7l3.7-0.8l4.7-3.6l4-1.3l5.2-2.2l3.9-3l-0.1-0.3
	l-5,0.9l-5,2.5l-3.5,2.2l-5.8,1.3l-3.1,2.3l-5.1,1.8l-3.6,2.8L685.6,111.7z M772.1,66l0.1,0.3l2.3,0.2l2.5-0.8l2.6-2.6l-0.3-0.4
	l-3.6,0.3l-2.3,1.3L772.1,66z M673,111.9l0.3,0.6l3.6-0.8l4.2-1.8l4.4-1.9l4.8-1.5l4.2-2.1l3.6-2.1l4.7-3l4.1-2.4l-0.2-0.4l-4.6,1.4
	l-5.3,1.7l-3.9,1.4l-4.4,1.9l-4.2,2.7l-4.3,2.1l-4.1,2.1L673,111.9z M769.8,61.2l0.2,0.3h2.3l2.5-1l2.5-2.1l-0.3-0.8l-3.2,0.6
	l-2.5,1.3L769.8,61.2z M669,107.8l0.3,0.8l3-0.8l5.8-1.8l3-1.2l5.2-3l3.7-2.1l5.1-3l-0.3-0.6l-5.7,1.8l-4.1,1.4l-5.6,2l-2.8,1.6
	l-5.1,3.1L669,107.8z M767.7,56.4L767.7,56.4l3,0.1l1.6-0.5l2.8-2.7l-0.2-0.4l-4,0.4l-1.4,0.8L767.7,56.4z M665,103.9l0.3,0.6
	l2.8-0.4l4.8-2l5.2-2.1l4.7-3.6l-0.2-0.3l-5.8,1.2l-4.9,2.5l-4.7,2.5L665,103.9z M765.6,51.5l0.1,0.2l2.3-0.1l2.5-0.4l2.5-2.6
	l-0.3-0.7l-3.7,0.3l-1.9,1.8L765.6,51.5z M661,100l0.3,0.6l3.2,0.3l1.4-1.5l3.8-2.6l-0.2-0.5l-4.6,1.1l-2.1,0.2L661,100z
	 M763.5,46.7v0.2l2.4-0.2l2.6-0.8l2.5-2l-0.3-0.8l-3.2,0.6l-2.3,1.4L763.5,46.7z M761.3,41.9l0.1,0.2l2.4,0.2L766,42l2.4-2.9
	l-0.3-0.6l-3.7-0.1l-1.7,1.5L761.3,41.9z M759.2,37l0.1,0.2l1.7,0.6l1.9-0.4l1.4-2.4l-0.3-0.4l-2.6-0.4l-1.6,1.2L759.2,37z
	 M757.1,32.2v0.2l1.4,1l1.1-0.9l0.8-1.4l-0.2-0.4l-1.7-0.4l-1.4,0.3L757.1,32.2z M754.9,27.3l0.1,0.3l1.1,1.4l0.1-0.8l0.3-1
	l-0.3-0.8l-1-0.5l-0.6-0.4L754.9,27.3z"/>
<path class="st0" d="M925.2,112.2l0.3,0.4l1.9,0.6l1-1.4l1.6-1.3l-0.3-0.4l-2,0.3l-1.7-0.2L925.2,112.2z M913.4,112.2l0.2,0.4
	l3.9-0.3l4.6-2.5l4.1-1.4l3.6-3.1l-0.3-0.6l-4.7,0.7l-3.7,2.3l-4.9,1.9L913.4,112.2z M901.5,112l0.3,0.8l3.1-0.8l5.8-2.4l3-1.2
	l5.4-2.8l4.6-2.3l5.6-3.6l-0.3-0.5l-6.3,2l-4.7,2l-5.8,2.4l-2.8,1.5l-5.6,3L901.5,112z M889.8,112.2l0.3,0.4l3.2-0.9l4-1l3.9-2.7
	l5.3-1.8l5.8-2.5l3.1-1.9l4.3-1.6l4.5-2.4l5.2-3.5l-0.3-0.4l-5.9,1.7l-4.7,1.9l-4.1,2.3L911,101l-5.7,2.8l-4.7,2.9l-4.6,1.2
	l-3.3,2.5L889.8,112.2z M914,95.5l0.2,0.3l5.4-1.2l3.6-2.3L929,89l-0.3-0.7l-6.3,2.4l-4.1,1.3L914,95.5z M878,112.1l0.3,0.6l4.3-1
	l2.6-1.2l4.5-2.1l4.2-1.9l4.2-2.1l4.3-1.9l5.7-3.2l4.1-2.5l-0.2-0.3l-4.7,1.4l-6.1,2.3l-4.1,2.1l-4.3,1.9l-4.1,2l-4.6,2.1l-2.5,1.3
	L878,112.1z M913.7,90.1l0.3,0.5l5.3-0.8l3.2-2.5l6.3-3.6l-0.3-0.8l-6.8,2.5l-3.9,0.9L913.7,90.1z M866.6,112l0.3,0.4l4.2-1.4l3-0.7
	l4.9-2.9l4.7-2.2l4.2-1.4l3-1.4l4.7-3.2l5-2.4l-0.2-0.4l-5.2,1.9l-5.5,1.6l-2.9,1.4l-3.8,2.3l-4.7,2.2l-5.3,1.9l-2.5,1.8L866.6,112z
	 M913.5,84.7l0.3,0.4l3.9-0.3l6.2-3.3l4.7-3.2l-0.2-0.5l-5.5,1.4l-6.6,2.6L913.5,84.7z M855.2,111.7l0.3,0.5l3.9-0.9l3.1-1.7
	l4.4-2.2l4.7-1.3l3-1.9l6.4-2.2l3.3-1.9l4.3-3.5l-0.1-0.3l-5.5,0.9l-3.6,1.3l-5.8,3.5l-3.3,1.1l-4.1,2.8l-4.4,2l-3.4,1.3
	L855.2,111.7z M913.3,79.4l0.2,0.3l4-0.7l4.2-1.8l6.5-4.4l-0.2-0.4l-7.5,2.2l-4.2,2L913.3,79.4z M843.5,111.7l0.3,0.4l3.6-0.9
	l4.1-1.6l3.6-1.6l4.3-2.5l4.7-1.5l4.2-1.9l4.3-2.6l4.3-2.6l-0.3-0.3l-4.8,1.3l-4.8,1.7l-4.1,2l-4.2,2.6l-4.7,1.7l-3.5,1.7l-4,2.1
	L843.5,111.7z M913.1,74l0.2,0.4l4.3-0.3l3.5-1.7l5.3-4.1l-0.3-0.7l-6.5,1.5l-3.6,1.5L913.1,74z M831.5,111.7l0.3,0.7l2.5-0.5
	l5.3-1.9l4.1-2.2l3.7-1.6l4.1-1.8l5.5-3l2.5-1.2l5.5-3.4l-0.2-0.3l-6.2,1.8l-2.5,1.2l-5.9,2.4l-4,2l-3.6,1.8l-4.3,1.7l-4.9,2.9
	L831.5,111.7z M912.8,68.6l0.3,0.5l2.3,0.1l4.1-1.5l3.1-3.2l-0.2-0.4l-4.4,0.4l-3.8,2.1L912.8,68.6z M819.2,112l0.3,0.6l3.2-0.8
	l5.7-1.9l2.6-1l5.8-2.9l2.5-1.7l5.3-1.7l3.7-2.1l5.3-3.6l-0.3-0.5l-6.3,1.4l-4.1,1.5l-4.7,3l-2.9,0.8l-6,2.6l-2.5,1.4l-5.1,3
	L819.2,112z M912.6,63.2l0.2,0.4l2.5,0.3l1.4-1l2.2-1.9l-0.3-0.8l-3,0.4l-1.7,0.4L912.6,63.2z M809.6,111.1l0.3,0.4l2.2-0.7l5.9-2.3
	l4-2.2l3-0.1l4.7-3l3.3-2l4.9-1.4l4.2-3.3l-0.2-0.3l-5.3,0.8l-4.2,2.9l-3.7,1.2l-5.3,1.8l-2.1,2.3l-4.2,1.6l-5.5,3.1L809.6,111.1z
	 M912.3,58l0.3,0.4l1.1,0.3l0.8,0.3l0.6-1.9l-0.2-0.5l-1.9-0.7l-0.3,0.8L912.3,58z M805.8,107.2l0.4,0.8l3-0.8l4.4-1.4l4.5-2
	l4.8-2.1l2-1.9l5.8-3.2l-0.3-0.5l-6.3,2l-2.7,0.3l-4.8,2.5l-4.3,2.1l-4,2.4L805.8,107.2z M802,103.5l0.3,0.6l3.2,0.1l4-2.6l4.7-1.8
	l4.4-3.2l-0.3-0.5l-5.4,1l-4.4,2.5L804,101L802,103.5z M798.3,99.6l0.3,0.8l2.8,0.2l2.3-1.6l2.6-2.3l-0.1-0.3l-3.6,0.4l-2.7,0.7
	L798.3,99.6z M903.7,45.3l0.2,0.3l1.4,1.1l0.3-1.1l1.2-1.2l-0.3-0.6l-1.7,0.2l-1-0.5L903.7,45.3z M899.8,41.4l0.2,0.5l2,0.5l1.5-1.3
	l2.5-1.7l-0.3-0.8l-3,0.8l-1.9,0.3L899.8,41.4z M865,57.9l0.2,0.4l2.5-0.3l5-1.8l4.9-3.3l4.3-2.6l-0.3-0.4l-5,1.1l-5.3,2.4l-4.6,2.7
	L865,57.9z M865,52.5l0.2,0.4l3-0.5l4.7-2l3.2-1.1l4.5-2.3l4.7-2.5l3.3-0.9l3.8-2.8l4.6-1.9l5.3-3.1l-0.3-0.7l-5.8,2.1l-4.8,1.4
	l-4.2,1.9l-2.9,1.9l-4.9,2l-4.7,1.9l-3,1.8l-4.6,2.3L865,52.5z M865.3,46.9l0.3,0.5l2.5-0.9l4.8-1.4l5.5-2.3l2.9-2.2l4.3-2.1
	l4.3-1.8l4-2.2l4.7-2.6l-0.3-0.6l-5,1.9l-4.3,1.7l-4.1,2.1l-4.3,1.9l-3.6,0.8l-5.3,2.7l-4.2,2.8L865.3,46.9z M890.7,29.4L891,30
	l1.1-0.2l1.9,0.1l1-1.8l-0.4-0.8l-1.9-0.4l-1.1,1.5L890.7,29.4z M867.5,40.3l0.2,0.3l3.6-0.8l5.3-1.9l3-1.7l5.8-3.7l-0.3-0.5
	l-6.6,1.9l-3.3,1.3l-4.9,2.8L867.5,40.3z M797.5,34.2l0.3,0.8l1.4,0.9l0.4-0.9l0.8-1.6l-0.2-0.5h-1.7l-1-0.3V34.2z"/>
<path class="st1" d="M122.8,58.9c0-0.8,0.3-13,0.4-14.3c2.6,1.4,17.6,9.2,17.6,9.2l1.9-29.1L127.5,9.5c-16.7,0-43.4,0.4-58.7,0.4
	c-15.2,0-42-0.4-58.9-0.4v6.4l15.2,15.2c2.1,0,3.9,0.1,5.5,0.3c0.7,3.1,0.9,6.9,0.9,11.2c0,21.3-4.8,31.3-21.6,31.3v6.4l15.2,15.2
	c14.6,0,37.7-0.4,50.9-0.4s36.3,0.4,51.2,0.4v-6.4L116,77.8l1.1-4.2l6.1,3C123.2,69.7,122.8,62.9,122.8,58.9z"/>
<path class="st1" d="M260.7,24.4L245.5,9.2c-16.7,0-43.4,0.4-58.7,0.4s-42-0.4-58.9-0.4v6.7L143,31.1c2.1,0,3.9,0.1,5.5,0.3
	c0.7,3,0.9,6.8,0.9,11.2c0,22.6-5.3,31.3-21.6,31.3v6.7L143,95.8c16.6,0,43.4-0.4,58.6-0.4s42,0.4,59,0.4l-1.9-32.6l-9.7-9.7
	l2.5-3.7c3.9,1.9,7.2,3.7,7.2,3.7L260.7,24.4z"/>
<path class="st1" d="M332.9,31.6c0.8,3,1.4,6.8,1.4,11.1c0,13.3-2.6,21.7-9.2,26.8v-39C327.8,30.6,330.5,30.9,332.9,31.6z
	 M245.6,73.9v6.7l15.2,15.2c11.7,0,29.8-0.4,40.1-0.4s28.5,0.4,38.8,0.4c29.5,0.2,55.7-11.1,55.7-37.9c0-11.3-5.2-22.4-15.3-32.4
	c-11.4-11.1-28.6-16.1-58.6-16.3c-9.9,0-27.2,0.4-37.1,0.4s-27.2-0.4-38.8-0.4v6.7l15.2,15.2c2.1,0,3.9,0.1,5.6,0.3
	c0.6,3.1,0.8,6.9,0.8,11.3C267.2,65.2,261.9,73.9,245.6,73.9z"/>
<path class="st1" d="M511.9,24.4L496.7,9.2c-16.7,0-43.4,0.4-58.7,0.4c-15.2,0-42-0.4-58.9-0.4v6.7l15.2,15.2c2.1,0,3.9,0.1,5.5,0.3
	c0.7,3,0.9,6.8,0.9,11.2c0,22.6-5.3,31.3-21.6,31.3v6.7l15.2,15.2c16.6,0,43.4-0.4,58.6-0.4s42,0.4,59,0.4L510,63.2l-9.7-9.7
	l2.5-3.7c3.9,1.9,7.2,3.7,7.2,3.7L511.9,24.4z"/>
<path class="st1" d="M634.3,59.1c6.1-2,11.6-6.5,11.6-15.4c0-4.8-2.1-11.8-10.4-20.2c-9.8-10.1-24.1-13.9-56.4-13.9H497V16
	l15.2,15.2c2.1,0,4,0.1,5.6,0.5c0.9,3.3,1.3,7.1,1.3,11.1c0,13.3-4.7,31.2-22,31.2v6.7l15.2,15.2c12,0,30.8-0.4,41.5-0.4
	s29.4,0.4,41.8,0.4v-6.8l-14.8-14.8c-1.5,0-3-0.3-4.1-0.5c0-0.1,0-10.6,0-10.6h1c1.9,8,4.5,12.9,14.2,22.2c8.6,8,19,11.9,39,11.9
	c15,0,22.7-0.5,30.5-1.9v-6.2L646,73.9c-0.5,0-1,0-1.4-0.1C642.1,67.4,638.2,62.4,634.3,59.1z"/>
<path class="st1" d="M752.8,24.6L737.7,9.5h-47l-18.1,40.1c-6.9,15.2-16.3,24.3-29.6,24.3v6.7l15.2,15.2c7.8,0,19.1-0.4,25.6-0.4
	c6.4,0,17.7,0.4,24.1,0.4c11.9,0,32.8-0.4,44.7-0.4s32.7,0.4,46.3,0.4v-6.7l-15.2-15.2c-3.6,0-6.7-0.6-9.5-1.8
	c-1.4-2.5-2.6-5.1-3.8-7.7L752.8,24.6z"/>
<path class="st1" d="M911.5,55.2L896,39.8c0,0-15.1,12.4-23.8,18.8c-2.4,1.8-5.3,3.7-8,5.6c0-1.1,0-14,0-14c0-14.1,9-19.1,25.7-19.1
	v-6.7L874.7,9.2c-13.6,0-34.7,0.4-46.9,0.4s-33.5-0.4-47.3-0.4v6.7l15.2,15.2c2,0,3.8,0.1,5.4,0.3c0.7,3.5,1,7.6,1,12.7
	c0,22-5.8,29.8-21.6,29.8v6.7l15.2,15.2c10.2,0,25.4-0.4,34.2-0.4s24.1,0.4,32.9,0.4h50.6L911.5,55.2z"/>
<path class="st2" d="M77.2,41.5V14.6h3.4c0,0,13.7,6.4,22.2,10.5c8.6,4.2,21.7,11.2,21.7,11.2l1.7-25.1c-15.2,0-42,0.4-57.3,0.4
	c-15.2,0-42-0.4-57.3-0.4v3.4c16.2,0,21.6,8.5,21.6,28c0,22.7-5.5,32.9-21.6,32.9v3.4c13.2,0,36.3-0.4,49.5-0.4s36.3,0.4,49.5,0.4
	v-3.3c-22.8,0-33.5-6.8-33.5-20.8V45h1.6l27.9,14c0-4-0.4-10.8-0.4-14.8s0.4-10.8,0.4-14.8L78.9,41.5H77.2z"/>
<path class="st2" d="M195.1,41.5V14.6h3.4c0,0,13.6,6.4,22.1,10.6c8.6,4.2,21.8,11.1,21.8,11.1l1.7-25.3c-15.2,0-42,0.4-57.3,0.4
	s-42-0.4-57.3-0.4v3.6c14.9,0,21.6,6.6,21.6,28c0,24.1-6,32.9-21.6,32.9v3.6c15.2,0,42-0.4,57.3-0.4s42,0.4,57.3,0.4l-1.7-28.7
	c0,0-13,8.1-21.6,13s-22.3,12-22.3,12h-3.4V44.7h1.7l27.8,14c0-4-0.4-10.8-0.4-14.8s0.4-10.8,0.4-14.8l-27.8,12.3L195.1,41.5
	L195.1,41.5z"/>
<path class="st2" d="M335.4,42.7c0,22.9-8.4,32.9-26.3,32.9v-61C323.1,14.6,335.4,20.6,335.4,42.7z M378.9,43.1
	c0-24.9-20.3-31.9-57.4-32.1c-9.9,0-27.2,0.4-37.1,0.4S257.2,11,247.3,11v3.6c15.8,0,21.6,7.5,21.6,28.1c0,23.8-6,32.9-21.6,32.9
	v3.6c10.3,0,28.5-0.4,38.8-0.4s28.5,0.4,38.8,0.4C353.3,79.4,378.9,68.9,378.9,43.1z"/>
<path class="st2" d="M446.3,41.5V14.6h3.4c0,0,13.6,6.4,22.1,10.6c8.6,4.2,21.8,11.1,21.8,11.1l1.7-25.3c-15.2,0-42,0.4-57.3,0.4
	c-15.2,0-42-0.4-57.3-0.4v3.6c14.9,0,21.6,6.6,21.6,28c0,24.1-6,32.9-21.6,32.9v3.6c15.2,0,42-0.4,57.3-0.4c15.2,0,42,0.4,57.3,0.4
	l-1.7-28.7c0,0-13,8.1-21.6,13s-22.3,12-22.3,12h-3.4V44.7h1.7l27.8,14c0-4-0.4-10.8-0.4-14.8s0.4-10.8,0.4-14.8L448,41.5H446.3z"/>
<path class="st2" d="M581.8,28.5c0,8.2-4.9,14.1-21.3,14.1v-28C575,14.6,581.8,17.6,581.8,28.5z M644.7,79v-3.4
	c-7.8,0-12.4-7.2-16.2-15.4c-3.8-8.1-9.9-14.1-19.8-14.1v-1.7c8.2,0,20.7-2.7,20.7-15.5c0-13.7-15.9-17.6-50.3-17.6h-80.4v3.3
	c16.3,0,22,12.7,22,28.1c0,14.1-5.3,32.9-22,32.9v3.6c10.7,0,29.5-0.4,40.1-0.4c10.7,0,29.4,0.4,40.1,0.4v-3.6
	c-13.1,0-18.4-4.5-18.4-15.4V46.6h4.1c11,0,12.4,7.4,14,14.7c2.5,12.2,8.2,19.5,37.3,19.5C630.7,80.7,638.3,80.1,644.7,79z"/>
<path class="st2" d="M705.2,53.6c0,9.4-3.2,21.9-12.2,21.9c-10.3,0-13.1-13-13.1-21.9C679.9,53.6,705.2,53.6,705.2,53.6z M705,49.7
	h-24.7l12.5-29L705,49.7z M782.4,79.2v-3.6c-13.9,0-22.2-11.6-28.3-25.3l-17.3-39h-45l-17.7,39c-7.2,15.9-17.3,25.3-29.5,25.3v3.6
	c6.4,0,17.8-0.4,24.2-0.4s17.7,0.4,24.1,0.4c11.9,0,32.8-0.4,44.7-0.4C749.7,78.8,770.4,79.2,782.4,79.2z"/>
<path class="st2" d="M896.7,79.2L895,42.9c0,0-13,10.8-21.8,17.1c-8.7,6.4-22.7,15.6-22.7,15.6h-2.8V35.4c0-15.1,9.5-20.8,25.7-20.8
	V11c-12.2,0-33.4,0.4-45.6,0.4c-12.2,0-33.5-0.4-45.6-0.4v3.6c14.7,0,21.6,5.9,21.6,29.5c0,23.5-6.5,31.5-21.6,31.5v3.6
	c8.8,0,24.1-0.4,32.9-0.4s24.1,0.4,32.9,0.4H896.7z"/>
<path class="st3" d="M83.8,76L83.8,76l0.7,0.2l0.5-0.3l0.8-0.5l-0.1-0.3l-1.3-0.5l-0.5,0.3L83.8,76z M72,76L72,76l1.9-0.4l3-0.8
	l4-2.7l-0.1-0.2l-4.6,1.3l-3,1.1L72,76z M60.1,75.9l0.2,0.2l4.5-0.3l2.9-2.7l4.1-1.6l5.8-3.4l-0.1-0.2l-6.3,2.3l-4,2.1l-3.9,0.4
	L60.1,75.9z M99.2,52.3l0.1,0.2l2.2,0.3l1.4-1.4l1.5-1.4l-0.1-0.2l-2,0.3l-1.9,0.3L99.2,52.3z M48.4,75.9l0.1,0.2l3.9-0.4l2.6-0.8
	l4.6-2.5l4-1.5l4.2-3l3.9-1.8l4-2.5l-0.1-0.3l-4.5,1.5l-3.9,1.8l-5.1,1.3L58.4,70l-4.8,1.9l-2.3,1.5L48.4,75.9z M93.3,49.5l0.1,0.2
	l3.6,0.7l3-1.9l4.4-3.9l-0.1-0.2l-5.8,0.9L95,46.4L93.3,49.5z M36.6,76L36.6,76l2.8-0.6l4.8-1.3l4.3-1.5l1.9-2.2l5.1-1.9l3.1-1.9
	l4.1-0.2l4.2-3.6l2.4-1.4l5.3-3l-0.1-0.2l-5.8,2.1l-2.5,1l-5.5,0.9l-2.7,3l-3.5,1.2L49.7,69l-2.9,0.2l-4,2.3l-4.1,2.8L36.6,76z
	 M87.4,46.8l0.1,0.2l3.7,0.3l5.3-2.6l2.5-2.1l5.5-3.4l-0.1-0.3L98.2,41L95,41.4l-5.3,2.4L87.4,46.8z M24.8,75.9l0.1,0.2l3.3-0.9
	l4.6-1.5l3.9-1.2l2.5-1.4l4.4-2.7l3.4-1.3l3.2-1.6l4.8-2.4l3.4-2.1l3.4-1.2l3.4-1.9l5.6-2.7l3.7-2.2l-0.1-0.2l-4.1,1.4l-5.7,2.5
	L61,58.1l-3.1,1.8l-3.8,1.4l-4.9,2.1l-3.3,1.4l-3.1,1.7l-4.9,1.7l-2.7,1l-3.5,2.2l-4,2.5L24.8,75.9z M115.3,28.3L115.3,28.3h2.5
	l2.4-1.4l2.2-1.7l-0.2-0.3l-2.6,0.7l-2.7,0.9L115.3,28.3z M81.6,44l0.1,0.2l4,0.2l2.4-1.6l4.8-2.4l3.1-1.9l4.1-1.4l4.6-3.6v-0.2
	l-5.3,2.3l-4,1.9l-3.2,1.6l-5,2.1L84.5,42L81.6,44z M31.9,67.2l0.1,0.2l3.1-0.4l3.9-1.3l4.4-1.9l4.1-2.3l2.8-1.4l3-2.4l5.2-1.8
	l3.7-1.8l4-2.1l3.8-0.5l4.4-4.1l-0.1-0.2L68.4,48l-2.9,2.5l-4.1,1.8l-3.7,1.6L53,56.8l-3.8,0.7l-2.9,1.3l-4.5,1.7l-4.2,2.3l-3.5,2.1
	L31.9,67.2z M109.5,25.4l0.2,0.3l3.1,0.9l5-4.1l5.1-3l-0.2-0.2l-5.5,1.9l-6.4,1.2L109.5,25.4z M34.3,60.5l0.1,0.2l2.7-0.2l3.6-0.8
	l4.3-2.5l3.7-1.7l3.3-1.2l3.6-1.6l4.6-3.4l2.2-1.1l4.2-1.8l4.6-1.6l3.4-2.8l-0.1-0.2l-4.4,0.8L66,45.1l-4.1,2.1l-2.3,0.9l-5.5,1.4
	l-3.6,1.7l-3,1.8l-3.6,1.8l-4.7,1.7l-3,2.2L34.3,60.5z M103.9,22.6L103.9,22.6l3,0.8l4.6-2.7l2.2-1.2l4.4-1.8l4.1-3.4l-0.1-0.2
	l-5.3,0.8l-4.1,2.2l-2.3,1l-5.1,1.7L103.9,22.6z M35.3,54.6l0.1,0.3l4.2-0.7l3.7-0.8l3.6-2.5l4.4-2.5l3-1.3l3.4-1.8l4.4-2.5l4.5-1.8
	l3.1-1.6l4.8-3l-0.1-0.1l-5.3,1.8l-3.3,1.4l-4.2,2.3l-4.7,1.8L53.3,45l-2.9,1.4l-4.7,1.8l-4.2,1.1l-3,2.4L35.3,54.6z M98.2,19.8
	l0.1,0.2l3.7-0.3l4.6-2.3l3.8-3.1l-0.1-0.1l-4.7,0.8l-4.7,2L98.2,19.8z M35.8,48.8l0.2,0.3l3-0.5l3.9-1.4l4.6-1.8l3-1.8l4.7-2.4
	l3.2-1.9l4.6-2.4l4-1.6l3-1.7l4.7-2.5l-0.1-0.3l-5,2l-3.2,1.1l-3.7,2L58,37.8l-3.6,1.3l-4.9,2.1l-3.2,1.1L42,44.6l-3.6,2.1
	L35.8,48.8z M92.5,16.9l0.1,0.2l2,0.7l2-0.7l1.9-2.8v-0.1l-2.9,0.7L93.3,15L92.5,16.9z M36,43.3l0.1,0.2l3-0.1l3.1-1.8l4.1-1.8
	l5.5-2.8l3-1.2l3.7-1.8l3.8-2.2l4.1-2.1l4-1.7l4-2.5l-0.1-0.2l-4.6,1.4l-3.8,1.9l-4.2,1.9l-4.1,1.4l-3.8,1.8L51,35.3l-5.6,2.4
	l-4.1,2l-3.4,1.2L36,43.3z M35.8,37.8l0.1,0.2l3.6-0.3l4.9-1.5l2.4-1.1l4.7-2.8l2.4-1.3l4.1-2.7l4.4-2.3l4.1-0.9l4.7-1.6l3.5-3.5
	l-0.1-0.3l-4.9,0.5l-4.2,2.5L62,25.3l-4.6,1.9l-4.6,1.4l-2.5,1l-5.2,1.7l-2.3,1.2l-4.3,2.8L35.8,37.8z M35.6,32.5L35.6,32.5l4.1-0.7
	l3.5-1.7l4-1.3l2.6-1.6l5.3-2.3l2.9-1.7l3.7-1.9l4.2-2.3l4.2-1.9l4.4-2.7l-0.1-0.3l-4.9,1.7l-4.1,2l-4.5,1.8l-3.8,1.7L54,22.6
	l-5.2,2.6l-3,0.9l-3.5,2.3l-3.6,1.5L35.6,32.5z M34.6,27.4l0.1,0.2H39l2.5-1.4l4.9-3.2l3.5-1.6l5.2-3l2.5-0.9l5.6-3.1l-0.1-0.1
	l-5.9,2.3l-2.3,1.3l-5.8,1.9l-3.4,1.6L40,23.1l-2.6,1.2L34.6,27.4z M32.9,22.7l0.1,0.2h3.2l4.5-1.6l2.3-2l3.4-2.1l5.1-2.9l-0.1-0.1
	l-5.4,2l-3.8,1.2l-3,0.5L35,20.3L32.9,22.7z M29.9,18.5l0.2,0.3l3.6,0.6l1.7-2.3l4.3-2.7l-0.1-0.2l-5,1.4l-2.8-0.1L29.9,18.5z"/>
<path class="st3" d="M236.8,75.9l0.1,0.2l1.5-0.1h1.3l1.4-1.8L241,74l-2.3-0.2l-1.4-0.3L236.8,75.9z M225,75.9l0.1,0.2l3.4-0.3
	l4.4-2.1l3.2-2.2l4.6-2.5l-0.1-0.2l-4.9,1.8l-3.7,1l-4.5,2L225,75.9z M213.2,75.9l0.2,0.2l3.6-1.5l4.5-1.2l3.2-1.6l4.2-1.7l3.2-0.6
	l3.1-3l5.2-3l-0.1-0.2l-5.6,1.9l-4.3,0.6l-2.5,2l-4.1,2.1l-3.3,1.4l-4.6,1L213.2,75.9z M209.8,72.1l0.1,0.3l3.5-0.2l3.6-0.9l4.1-1.9
	l2.6-2.5l4.8-2.5L231,63l5.1-2.5l4-2.3l-0.1-0.3l-4.3,1.6l-5.2,2.3l-2.7,1l-5,2l-2.8,2l-4.2,1.7l-3.2,1.9L209.8,72.1z M189.6,76
	L189.6,76l0.8,0.2l0.8-0.6l1.3-0.7l-0.1-0.2l-1.6-0.1l-0.9,0.2L189.6,76z M177.9,75.9l0.1,0.2l3.3-1.4l2.9-1.1l3.5-1.4l4.8-2.9
	l-0.1-0.2l-5.3,1.8l-3.2,1.9l-3.4,0.2L177.9,75.9z M217.2,52.1l0.1,0.2l2.1,0.3l1.4-1.4l1.4-1.3l-0.1-0.3l-1.9,0.3l-1.9,0.3
	L217.2,52.1z M166.1,75.9l0.1,0.2l3.7-0.4l2.5-0.7l4.4-2.5l3.9-1.4l4.1-3l3.8-1.7l3.8-2.5l-0.1-0.3L188,65l-3.7,1.8l-5,1.2l-3.6,2
	l-4.7,1.8l-2.1,1.5L166.1,75.9z M211.4,49.3l0.1,0.2l3.6,0.7l3-1.9l4.3-3.8l-0.2-0.3l-5.6,0.9l-3.5,1.1L211.4,49.3z M154.3,76
	L154.3,76l2.8-0.6l4.7-1.3l4.3-1.6l1.9-2.1l5.2-2l3.1-1.9l4.1-0.2l4.1-3.6l2.5-1.3l5.3-3l-0.1-0.2l-5.8,2.1l-2.5,1l-5.5,0.8l-2.7,3
	l-3.5,1.2l-4.8,2.6l-2.9,0.2l-4,2.3l-4.1,2.8L154.3,76z M205.7,46.5L205.7,46.5l3.7,0.5l5.1-2.6l2.4-2.1l5.3-3.3l-0.1-0.3l-6,2
	l-3.1,0.4l-5.3,2.3L205.7,46.5z M142.5,75.9l0.1,0.2l3.4-0.9l4.6-1.5l3.9-1.3l2.6-1.4l4.3-2.7l3.4-1.3l3.3-1.6l4.8-2.5l3.5-2.1
	l3.4-1.2l3.4-1.9l5.5-2.7l3.8-2.2l-0.1-0.2l-4.1,1.4l-5.6,2.5l-3.6,1.4l-3,1.8l-3.9,1.4l-4.9,2.1l-3.4,1.4l-3.1,1.8l-4.9,1.6
	l-2.7,1.1l-3.5,2.2l-4.1,2.5L142.5,75.9z M233.1,28.2l0.1,0.2l2.5-0.2l2.5-1.4l2.2-1.7l-0.2-0.3l-2.6,0.7l-2.7,0.9L233.1,28.2z
	 M200,43.6l0.1,0.2l3.8,0.3l2.3-1.6l4.7-2.3l3-1.9l4.1-1.4l4.4-3.5l-0.1-0.2l-5,2.2l-3.8,1.8l-3.2,1.6l-4.7,2l-2.7,0.8L200,43.6z
	 M150.3,66.8l0.2,0.3l3-0.4l3.8-1.3l4.4-1.8l4.1-2.3l2.8-1.4l3-2.4l5.1-1.7l3.7-1.9l3.9-1.9l3.8-0.6l4.3-4l-0.1-0.3l-5.8,0.8
	l-2.8,2.5l-4.1,1.7l-3.7,1.7l-4.6,2.8l-3.7,0.7l-2.9,1.3l-4.4,1.7l-4.1,2.2l-3.5,2.1L150.3,66.8z M227.4,25.4L227.4,25.4l3.2,1.1
	l5-4.1l5.2-3l-0.2-0.3l-5.6,2l-6.4,1.3L227.4,25.4z M152.5,60.2l0.1,0.2l2.7-0.2l3.6-0.8l4.2-2.5l3.7-1.6l3.2-1.2l3.6-1.7l4.6-3.3
	l2.1-1.1l4.2-1.8l4.6-1.5l3.3-2.8l-0.1-0.3l-4.2,0.8l-4.1,2.5l-4.1,2l-2.2,1l-5.5,1.3l-3.5,1.7l-3,1.8l-3.7,1.9l-4.7,1.6l-2.9,2.2
	L152.5,60.2z M221.6,22.6l0.1,0.2l3,0.7l4.5-2.8l2.2-1.1l4.4-1.8l4.1-3.4l-0.2-0.2l-5.2,0.8l-4.1,2.2l-2.3,0.9l-5,1.7L221.6,22.6z
	 M153.4,54.4l0.1,0.3l4.2-0.7l3.7-0.8l3.6-2.5l4.4-2.5l3-1.3l3.3-1.7l4.4-2.5l4.4-1.8l3.1-1.7l4.8-2.9l-0.1-0.2L187,38l-3.2,1.4
	l-4.2,2.2l-4.7,1.9l-3.4,1.4l-3,1.4l-4.7,1.7l-4.2,1.1l-3,2.4L153.4,54.4z M216,19.7l0.1,0.2l3.6-0.2l4.6-2.4l3.7-3l-0.1-0.1
	l-4.7,0.8l-4.7,2L216,19.7z M153.7,48.7l0.1,0.2l3-0.4l3.9-1.4l4.6-1.9l3-1.7L173,41l3.2-1.9l4.6-2.4l4-1.6l3-1.7l4.7-2.6l-0.1-0.2
	l-5,1.9l-3.2,1.2l-3.7,2l-4.7,1.9l-3.6,1.3l-4.9,2l-3.2,1.2l-4.3,2.3l-3.6,2L153.7,48.7z M210.3,16.9l0.1,0.2l2,0.6l1.9-0.6l1.9-2.8
	l-0.1-0.1l-2.8,0.6L211,15L210.3,16.9z M153.9,43.1l0.1,0.3l3-0.1l3.2-1.9l4.1-1.7l5.4-2.8l3-1.2l3.7-1.8l3.9-2.2l4.1-2.1l4-1.7
	l4-2.6l-0.1-0.1l-4.6,1.4l-3.7,2l-4.2,1.8l-4.1,1.5l-3.8,1.8l-2.9,1.6l-5.6,2.3l-4.1,2.1l-3.4,1.2L153.9,43.1z M153.7,37.7l0.1,0.2
	l3.6-0.3l4.9-1.6l2.4-1l4.7-2.8l2.4-1.3l4.1-2.8l4.4-2.2l4.1-0.9l4.7-1.6l3.5-3.5l-0.1-0.3l-4.9,0.5l-4.2,2.5l-3.3,2.5l-4.6,1.9
	l-4.7,1.4l-2.5,0.9l-5.2,1.8l-2.3,1.2l-4.3,2.8L153.7,37.7z M153.5,32.4l0.1,0.2l4-0.8l3.6-1.8l4-1.2l2.6-1.7l5.3-2.3l2.9-1.6
	l3.7-1.9l4.2-2.2l4.2-1.9l4.4-2.7l-0.1-0.2l-4.9,1.6l-4.1,2l-4.4,1.8l-3.9,1.6l-3.1,1.2l-5.1,2.6l-3,0.8l-3.5,2.3l-3.6,1.6
	L153.5,32.4z M152.6,27.2l0.1,0.2h4.3l2.5-1.3l4.8-3.2l3.4-1.6l5.2-3l2.4-0.9l5.5-3l-0.1-0.1l-5.8,2.2l-2.3,1.3l-5.6,1.8l-3.4,1.6
	l-5.6,1.7l-2.6,1.1L152.6,27.2z M150.9,22.6l0.1,0.2h3.2l4.3-1.6l2.2-1.9l3.4-2.1l4.9-2.8l-0.1-0.1l-5.3,1.9l-3.8,1.2l-3,0.5
	l-3.9,2.3L150.9,22.6z M148,18.4v0.2l3.5,0.6l1.7-2.2l4.1-2.6l-0.1-0.2l-4.7,1.4l-2.8-0.2L148,18.4z"/>
<path class="st3" d="M350.4,72.9l0.1,0.3l3-0.8l4.9-2.6l3.9-2.1l-0.1-0.1l-4.3,0.9l-5.5,1.6L350.4,72.9z M331.8,76l0.1,0.2l2.5-0.8
	l4.3-1.4l3.3-1l3.6-1l4-2.7l3.6-1.5l4.9-2.2l2.4-1.9l4.1-1.9l4.7-0.8l3.1-3.6l-0.1-0.2l-4.7,0.2l-3.6,3.1l-4.1,1.9l-3,0.5l-4.9,2.4
	l-3.5,1.9l-4.7,1.3l-3,2.1l-2.9,1.8l-4.7,0.8L331.8,76z M330.3,71.1l0.1,0.2l2.8,0.3l3.4-1.6l4-2l3.7-1.6l4.9-2.2l2.6-1.6l4.8-1.3
	l3.1-2.3l4.1-2.7l4.1-1.5l3.9-0.3l3.4-4.1l-0.1-0.3h-5.3l-2.6,2.9l-3.9,2.1l-4.7,1.4l-3.7,1l-4.1,2.9l-2.9,0.9l-4.9,2.3l-3.6,1.8
	l-4.1,1.8l-2.9,2.5L330.3,71.1z M335.1,63.2l0.1,0.2l3.2-0.1l4.1-2.5l3-0.7l3.7-2.9l4-1.4l4.3-1.9l3.9-2l2.1-1.2l5.4-1.7l3-2.3
	l4.1-2.5l-0.1-0.2l-4.5,1.5l-3.8,0.8l-4.7,3l-2.2,0.9l-4.1,1.7l-4.1,2l-3.6,2.1l-4.7,1l-2.5,1.9l-4.5,1.5L335.1,63.2z M337.2,56.6
	v0.2l2.5-0.3l5.5-1.4l2.5-1.4l4.7-3.3l3.6-1.6l4.7-1.9l1.9-1.5l6-1l3.1-3.3l3.9-2.3v-0.2l-4.3,1.5l-4.6,0.3l-4.7,4l-2.4,0.5
	l-4.4,2.4l-3.6,1.7l-5.6,1.5l-2.8,1l-4.5,3.3L337.2,56.6z M295.6,76L295.6,76l2.3-0.9l4-0.9l4.1-2.8l-0.1-0.2l-4.8,1.3l-3.8,1.3
	L295.6,76z M338.1,50.5l0.1,0.3l3.7,0.2l4.1-2.5l3.9-0.9l2.1-1.9l4.6-2.6l2.7-1.1l2.9-2.1l5.2-1l2.7-2.5l4.4-2.5l-0.1-0.2l-4.7,1.8
	l-3.6,0.5l-4.1,3.3l-3.4,0.8l-2.6,1.4l-5,1.8l-3,0.3l-3.2,2.3l-4.5,1.6L338.1,50.5z M283.5,75.9l0.1,0.2l2.5-0.9l5.1-1.1l2.3-1.2
	l4.3-2.7l4-1.2l4.3-3.3l-0.1-0.2l-5.3,1.2l-3.5,2.3l-4.7,1.5l-2.5,1l-4.7,1.9L283.5,75.9z M338.4,44.7l0.1,0.2l3-0.3l3.6-0.4l3-3
	l4.4-1.8l4.8-2.4l2.7-1.7l3.6-1.7l4.1-1.6l4.4-3l-0.1-0.1l-5.1,1.5l-3.8,2l-3.6,1.7l-3,0.9l-4.9,2.2l-4.2,2.1l-4.2,0.5l-2.6,2.5
	L338.4,44.7z M271.4,76L271.4,76l4.1-0.1l3.9-1.4l4-2.7l3-0.5l4.9-2.4l1.9-2.5l4.3-0.6l4.3-2.7l4.1-3.2l-0.1-0.3l-5.1,1.2l-4.9,1.6
	l-3.2,2.9h-3.1l-4.9,2.2l-2.4,1.9l-4.6,1.3l-3.6,2.1L271.4,76z M338.3,39.1l0.1,0.2l2.8,0.2l5-3l2.9-0.9l3.5-1.8l4.1-1.9l3-1.9
	l3.9-2l5.3-2.9l-0.1-0.2l-5.6,2.1l-4.1,1.7l-3.4,1.1l-4.1,1.9l-3.6,1.6l-2.5,1.6l-5.5,1.9L338.3,39.1z M259.2,75.9l0.1,0.2l4.1-0.4
	l2.2-0.8l3.6-0.8l4.2-2.9l3-1.7l4.1-0.9l3.4-2.9l4.1-1.3l2.3-2l3.6-1.9l4.9-1.5l3.3-2.1l3.8-2.4l-0.1-0.1l-4.2,1.4l-3.7,1.2
	l-4.3,2.8l-3.9,1.5l-3,0.5l-3.6,2.3l-4.3,0.8l-3.3,2.5l-3.2,1.2l-4.9,1.4l-2.6,3l-1.9,1.2L259.2,75.9z M337.7,33.7l0.1,0.2l3-0.3
	l4.8-1.7l3.2-1.9l3.2-1.9l3.4-1.1l4.2-2.6l4.4-2.6l-0.1-0.2l-4.9,1.6l-4.7,1.5l-3,1.9l-3.6,1.3l-3.6,1.2l-4.4,2.6L337.7,33.7z
	 M268.6,66l0.1,0.2l4.2,0.5l2.5-2.2l4.7-1.9l2.1-1.3l5.1-2.6l3.9-0.9l3.3-2.9l3.6-1.2l3.5-2.4l4.3-2.5l-0.1-0.3l-4.7,1.7l-4.1,1.2
	l-3.2,2l-4.4,0.7l-3.1,2.4l-5.3,2.2l-2.4,0.8l-4.6,2.4l-3.2,0.5L268.6,66z M336.4,28.7l0.1,0.2L341,29l4.7-2.6l2.8-2.3l5.3-2.2
	l4.1-2.9l-0.1-0.2l-4.8,1.3l-5.1,2.5l-3.6,0.7l-5,1.9L336.4,28.7z M270.3,59.5l0.1,0.2l4.1-0.3l3.6-0.8l2.9-1.8l4.1-2.4l5-3l2.3-1.4
	l5-1.4l3.5-1.1l5-4.3l-0.1-0.3l-6.4,1.2l-3.1,1.9l-4.3,3l-2.5,0.9l-5.5,1.8l-4.5,1.7l-3.2,1.1l-3,2.2L270.3,59.5z M334.5,23.9
	l0.1,0.2l3.2-0.2l5-2.3l2.2-1.4l5.3-3.4l-0.1-0.2l-6,1.9l-2.6,0.7l-4.9,2.5L334.5,23.9z M271.2,53.5v0.2l3.8-0.3l3.3-1.7l4.7-1.5
	l2.4-1.8l4.4-1.3l3-2.9l5.1-1.5l4.2-3l3.9-2.4l-0.1-0.2l-4.3,1.5l-5,1.4l-4.4,2.9l-4.2,0.5l-3.7,2.5l-3,0.7l-4.1,2.5l-3.3,1.5
	L271.2,53.5z M331.5,19.7l0.1,0.2l3.7,0.5l3-3l3-2l-0.1-0.2l-3.5,1.1l-4.2,0.3L331.5,19.7z M271.5,47.6l0.1,0.3l3.9,0.3l3.6-2.3
	l4.5-2.4l2.6-1.1l4-1.8l3.9-2.5l4.4-2.2l2.4-0.8l5.2-3.4l-0.1-0.3l-5.9,1.9l-2.1,1.2l-4.7,1.9l-4.3,1.4l-3.9,1.9l-2.5,1.3l-4.7,2
	l-4.1,1.3L271.5,47.6z M327.4,15.9l0.1,0.2l1.4,0.3l0.8-0.6l1.3-1.2l-0.1-0.3l-1.8,0.1l-0.9,0.3L327.4,15.9z M271.6,42l0.1,0.3
	l4.1-1l4-1.6l2.8-0.3l3.6-2.4l3.3-2l4.5-2.4l3.8-1.9l3.9-1.9l4.3-2.5l-0.1-0.2l-4.7,1.7l-4,1.7l-3.9,1.7l-4.7,1.9l-3.7,1.3l-4.1,1.2
	l-2,1.9l-3.8,2L271.6,42z M271.4,36.4l0.1,0.3l3.3-0.5l4.7-2l3-1.4l3.3-1.8l3.9-1.6l4.4-1.8l3.9-2.9l4.2-0.8l3.7-3.4l-0.1-0.2
	l-5,0.7l-3.4,2.7l-4.7,1.2l-4.1,2.2l-3.7,1.9l-3.5,1.4l-2.9,1.4l-4.7,2.3L271.4,36.4z M271,30.9l0.1,0.2l3.2,0.5l4.9-2.4l3.6-2.2
	l3-1.6l4.5-2.6l2.5-0.8l4.5-2.8l3.2-0.9l5.4-3.5l-0.1-0.1l-6.1,1.9l-2.9,1.9l-4.9,1.7l-2.3,1.4l-4.9,1.7l-3.1,1.3l-4.1,1.4l-4.9,2.2
	L271,30.9z M269.9,25.8L270,26l3.7-0.3l4.6-2.2l4.6-1.3l2.4-1.9l5-3.3l4.7-2.8l-0.1-0.1l-5.2,1.8l-5.8,1.8l-2.9,0.6l-3.9,2.7l-4.7,2
	L269.9,25.8z M268,21l0.1,0.2h3.3l4.4-1.6l2.1-2.5l5-2.8l-0.1-0.2l-5.4,1.9h-3.2l-4.1,2.4L268,21z M264.5,17l0.1,0.2l2.6,1.1
	l0.8-1.9l2.7-1.9l-0.1-0.2l-3.2,0.7l-2.1-0.6L264.5,17z"/>
<path class="st3" d="M488,75.9l0.1,0.2l1.5-0.1h1.3l1.4-1.8l-0.1-0.2l-2.3-0.2l-1.4-0.3L488,75.9z M476.2,75.9l0.1,0.2l3.4-0.3
	l4.4-2.1l3.2-2.2l4.6-2.5l-0.1-0.2l-4.9,1.8l-3.7,1.1l-4.5,2L476.2,75.9z M464.4,75.9l0.2,0.2l3.6-1.5l4.5-1.2l3.2-1.6l4.2-1.7
	l3.2-0.6l3.1-3l5.2-3l-0.1-0.2l-5.6,1.9l-4.3,0.6l-2.5,2l-4.1,2.1l-3.3,1.4l-4.6,1L464.4,75.9z M461,72.1l0.1,0.3l3.5-0.2l3.6-0.9
	l4.1-1.9l2.6-2.5l4.8-2.5l2.5-1.4l5.1-2.5l4-2.3l-0.1-0.3l-4.3,1.6l-5.2,2.3l-2.7,1l-5,2l-2.8,2l-4.2,1.7l-3.2,1.9L461,72.1z
	 M440.8,76L440.8,76l0.8,0.2l0.8-0.6l1.3-0.7l-0.1-0.2l-1.6-0.1l-0.9,0.2L440.8,76z M429.1,75.9l0.1,0.2l3.3-1.4l2.9-1.1l3.5-1.4
	l4.8-2.9l-0.1-0.2l-5.3,1.8l-3.2,1.9l-3.4,0.2L429.1,75.9z M468.3,52.1l0.1,0.2l2.1,0.3l1.4-1.4l1.4-1.3l-0.1-0.3l-1.9,0.3l-1.9,0.3
	L468.3,52.1z M417.3,75.9l0.1,0.2l3.7-0.4l2.5-0.7l4.4-2.5l3.9-1.4l4.1-3l3.8-1.7l3.8-2.5l-0.1-0.3l-4.3,1.4l-3.7,1.8l-5,1.2l-3.6,2
	l-4.7,1.8l-2.1,1.5L417.3,75.9z M462.6,49.3l0.1,0.2l3.6,0.7l3-1.9l4.3-3.8l-0.2-0.3l-5.6,0.9l-3.5,1.1L462.6,49.3z M405.5,76
	L405.5,76l2.8-0.6l4.7-1.3l4.3-1.6l1.9-2.1l5.2-2l3.1-1.9l4.1-0.2l4.1-3.6l2.5-1.3l5.3-3l-0.1-0.2l-5.8,2.1l-2.5,1l-5.5,0.8l-2.7,3
	l-3.5,1.2l-4.8,2.6l-2.9,0.2l-4,2.3l-4.1,2.8L405.5,76z M456.9,46.5L456.9,46.5l3.7,0.5l5.1-2.6l2.4-2.1l5.3-3.3l-0.1-0.3l-6,2
	l-3.1,0.4l-5.3,2.3L456.9,46.5z M393.7,75.9l0.1,0.2l3.4-0.9l4.6-1.5l3.9-1.3l2.6-1.4l4.3-2.7L416,67l3.3-1.6l4.8-2.5l3.5-2.1
	l3.4-1.2l3.4-1.9l5.5-2.7l3.8-2.2l-0.1-0.2l-4.1,1.4l-5.6,2.5l-3.6,1.4l-3,1.8l-3.9,1.4l-4.9,2.1l-3.4,1.4l-3.1,1.8l-4.9,1.6
	l-2.7,1.1l-3.5,2.2l-4.1,2.5L393.7,75.9z M484.3,28.2l0.1,0.2l2.5-0.2l2.5-1.4l2.2-1.7l-0.2-0.3l-2.6,0.7l-2.7,0.9L484.3,28.2z
	 M451.2,43.6l0.1,0.2l3.8,0.3l2.3-1.6l4.7-2.3l3-1.9l4.1-1.4l4.4-3.5l-0.1-0.2l-5,2.2l-3.8,1.8l-3.2,1.6l-4.7,2l-2.7,0.8L451.2,43.6
	z M401.5,66.8l0.2,0.3l3-0.4l3.8-1.3l4.4-1.8l4.1-2.3l2.8-1.4l3-2.4l5.1-1.7l3.7-1.9l3.9-1.9l3.8-0.6l4.3-4l-0.1-0.3l-5.8,0.8
	l-2.8,2.5l-4.1,1.7l-3.7,1.7l-4.6,2.8l-3.7,0.7l-2.9,1.3l-4.4,1.7l-4.1,2.2l-3.5,2.1L401.5,66.8z M478.6,25.4L478.6,25.4l3.2,1.1
	l5-4.1l5.2-3l-0.2-0.3l-5.6,2l-6.4,1.3L478.6,25.4z M403.7,60.2l0.1,0.2l2.7-0.2l3.6-0.8l4.2-2.5l3.7-1.6l3.2-1.2l3.6-1.7l4.6-3.3
	l2.1-1.1l4.2-1.8l4.6-1.5l3.3-2.8l-0.1-0.3l-4.2,0.8l-4.1,2.5l-4.1,2l-2.2,1l-5.5,1.3l-3.5,1.7l-3,1.8l-3.6,1.8l-4.7,1.6l-2.9,2.2
	L403.7,60.2z M472.8,22.6l0.1,0.2l3,0.7l4.5-2.8l2.2-1.1l4.4-1.8l4.1-3.4l-0.2-0.2l-5.2,0.8l-4.1,2.2l-2.3,0.9l-5,1.7L472.8,22.6z
	 M404.6,54.4l0.1,0.3l4.2-0.7l3.7-0.8l3.6-2.5l4.4-2.5l3-1.3l3.3-1.7l4.4-2.5l4.4-1.8l3.1-1.7l4.8-2.9l-0.1-0.2l-5.3,1.9l-3.2,1.4
	l-4.2,2.2l-4.7,1.9l-3.4,1.4l-3,1.4L415,48l-4.2,1.1l-3,2.4L404.6,54.4z M467.2,19.7l0.1,0.2l3.6-0.2l4.6-2.4l3.7-3l-0.1-0.1
	l-4.7,0.8l-4.7,2L467.2,19.7z M404.9,48.7l0.1,0.2l3-0.4l3.9-1.4l4.6-1.9l3-1.7l4.7-2.5l3.2-1.9l4.6-2.4l4-1.6l3-1.7l4.7-2.6
	l-0.1-0.2l-5,1.9l-3.2,1.2l-3.7,2l-4.7,1.9l-3.6,1.3l-4.9,2l-3.2,1.2l-4.3,2.3l-3.6,2L404.9,48.7z M461.5,16.9l0.1,0.2l2,0.6
	l1.9-0.6l1.9-2.8l-0.1-0.1l-2.8,0.6l-2.3,0.2L461.5,16.9z M405.1,43.1l0.1,0.3l3-0.1l3.2-1.9l4.1-1.7l5.4-2.8l3-1.2l3.7-1.8l3.9-2.2
	l4.1-2.1l4-1.7l4-2.6l-0.1-0.1l-4.5,1.4l-3.8,1.9l-4.2,1.8l-4.1,1.5l-3.8,1.8l-2.9,1.6l-5.6,2.3l-4.1,2.1l-3.4,1.2L405.1,43.1z
	 M404.9,37.7l0.1,0.2l3.6-0.3l4.9-1.6l2.4-1l4.7-2.8l2.4-1.3l4.1-2.8l4.4-2.2l4.1-0.9l4.7-1.6l3.5-3.5l-0.1-0.3l-4.9,0.5l-4.2,2.5
	l-3.3,2.5l-4.6,1.9l-4.7,1.4l-2.5,0.9l-5.2,1.8l-2.3,1.2l-4.3,2.8L404.9,37.7z M404.7,32.4l0.1,0.2l4-0.8l3.6-1.8l4-1.2l2.6-1.7
	l5.3-2.3l2.9-1.6l3.7-1.9l4.2-2.2l4.2-1.9l4.4-2.7l-0.1-0.2l-4.9,1.6l-4.1,2l-4.4,1.8l-3.9,1.6l-3.1,1.2l-5.1,2.6l-3,0.8l-3.5,2.3
	l-3.6,1.6L404.7,32.4z M403.8,27.2l0.1,0.2h4.3l2.5-1.3l4.8-3.2l3.4-1.6l5.2-3l2.4-0.9l5.5-3l-0.1-0.1l-5.8,2.2l-2.3,1.3l-5.6,1.9
	l-3.4,1.6l-5.6,1.7l-2.6,1.1L403.8,27.2z M402.1,22.6l0.1,0.2h3.2l4.3-1.6l2.2-1.9l3.4-2.1l4.9-2.8l-0.1-0.1l-5.3,1.9l-3.8,1.2
	l-3,0.5l-3.9,2.3L402.1,22.6z M399.2,18.4l0.1,0.2l3.5,0.6l1.7-2.2l4.1-2.6l-0.1-0.2l-4.7,1.4l-2.8-0.2L399.2,18.4z"/>
<path class="st3" d="M624.4,77.9L624.4,77.9l2-0.8l3.4,0.3l3.6-3.4l-0.1-0.3l-5,0.6l-2.6,1.2L624.4,77.9z M611.9,77.9l0.1,0.3
	l2.7-0.7l3.6-0.3l3.4-2.5l3.6-2.5l4.9-2.6l-0.1-0.2l-5.2,2l-4.1,1.2l-4.1,1l-2.9,1.9L611.9,77.9z M601.6,77.1l0.1,0.3l2.2-0.3l4.6-1
	l4.2-2.5l3.2-1.8l4.4-2.8l2.1-0.8l5.3-2.9l-0.1-0.2l-5.7,2.1l-1.9,1.1l-5.1,1.6l-3.3,1.4l-4.7,1.6l-3.6,2.8L601.6,77.1z M593.6,75.2
	l0.1,0.2l3.9-0.6l4.2-0.9l3.2-2l3.9-1.9l4.5-3.4l3.2-0.8l4.8-2.5l4.1-2.6l-0.1-0.2l-4.6,1.4l-5.2,2.1l-2.6,1.9l-5.5,1.2l-3.9,1.8
	l-3.6,1.2l-3.4,2.6L593.6,75.2z M588,72.2l0.1,0.2l3.5-0.3l4.3-1.4l3.1-1.8l4.2-2.7l2.9-1.4l4.5-2.1l3.6-2l3.4-1.4l5.3-3.1l-0.2-0.3
	l-5.8,2l-3.2,1.7l-3.8,1.4l-4.6,2l-2.9,1.4l-4.7,1.5l-3.5,1.3l-3.7,2.4L588,72.2z M584.3,68.3v0.2l3,0.9l4.4-2.4l3.5-2.3l3.9-2.1
	l3.7-1.5l3.5-2.5l3.8-1l5.8-1.9l3.6-3.4l-0.1-0.3l-4.9,0.4l-5.3,3.2l-3.2,2.2l-4.1,1.1l-3.6,1.9l-4.1,1.6l-4,1.2l-4.7,1.9
	L584.3,68.3z M582.1,63.6L582.1,63.6l3.8-0.7l5.2-1l2.1-1.9l4.1-1.3l4.1-1.7l4.7-4l4.1-1.8l4.1-2.5l-0.1-0.1l-4.5,1.4l-4.1,2
	l-6.1,1.1l-4,2l-3.6,2.3l-2.8,0.4l-4.1,3.3L582.1,63.6z M555.6,76L555.6,76l1.6-0.4l1.9-0.2l2.3-1.9l-0.1-0.2l-3,0.6l-1.7,0.4
	L555.6,76z M580.8,58.6v0.2l3.7-0.3l4.5-1.7l3.4-1.3l3.6-2.8l2.7-0.4l3.4-1.6l4.9-4.1l-0.1-0.1l-6.4,1l-3.4,1.6l-2,1.8l-4.5,1
	l-3.1,1.8l-4.1,2.4L580.8,58.6z M543.4,76L543.4,76l3.4-0.5l4.8-1.9l2.2-1.7l4.9-2.9l-0.1-0.2l-5.4,1.9l-2.7,0.6l-4.5,2.5L543.4,76z
	 M579.3,53.6l0.1,0.2l4.1-0.3l3.7-1.4l3.7-1.5l2.7-1.9l3.3-1.1l4.3-3.1l3.1-1.4l3.3-1.7l3.2-1.8l4.5-2.2l2.3-0.8l3.8-1.9l4.8-2.9
	l-0.1-0.2l-5.3,1.8l-3.9,1.7l-2.1,1.3l-4.5,1.9l-3.6,1.4l-3.4,1.5l-3,1.5L595,44l-3,1.8l-3.1,0.9l-3.6,1.8l-3.5,2L579.3,53.6z
	 M531.3,76L531.3,76l2.6-0.1l3.5-1.6l4.3-2.4l3.9-0.8l3.2-1.9l5.8-1.5l3-3.7l-0.1-0.3h-4.7l-4.9,3.4l-3.5,1.3l-3.2,2.5l-4.7,1.8
	l-3.4,1.6L531.3,76z M577.1,48.9l0.1,0.2l4.3-0.3l3.4-1l3.5-1.4l3.5-2.3l4.2-2.8l3.9-1.4l3.7-2.2l2.4-0.6l3.9-2.9l4.4-1.6l4.1-2.5
	l4.1-1.2l3.6-2.7l-0.1-0.3l-4.5,1.1l-3.6,2.3l-4.4,1.5l-4.1,2.4l-4.7,1.2l-2,1.4l-4.1,1.4l-3.6,2.1l-4.9,1.4l-4,1.3l-3.2,1.8l-3,1.9
	L577.1,48.9z M519.1,76L519.1,76l4-0.5h3l3.7-3.4l3.6-0.8l3.3-2.5l4.5-1.8l4.8-2.8l2.9-1.4l3.6-1.6l4.9-2.9l-0.1-0.3l-5.3,2
	l-3.6,1.7l-3,1.3l-5.3,1.9l-4.1,2.4l-4.1,0.8l-2.8,2.3l-5.1,0.7l-1.9,2.3L519.1,76z M572.4,45.4l0.1,0.2l3.3-1l4.6-0.8l2.4-1.6
	l3.8-1.3l4.1-1.7l3.1-1.9l4.6-1.2l2.5-2.6l4.5-2.2l2.5-0.4l3.5-2.5l3.6-1.9l4.1-0.8l4.5-3.8l-0.1-0.1l-5.8,0.9l-3.2,2.6l-3.6,1.5
	l-4.2,1.1l-1.9,1.6l-4.6,2l-3.6,0.2l-3.9,2.7l-3.7,1.2l-3.9,2l-3.5,2.1l-2.4,1.8l-4,1.9L572.4,45.4z M514,72.7L514,72.7l4.1-0.3
	l3.4-1.4l3.6-1.8l3.7-2l3.1-1.6l3.6-1.9l4-1.8l2.3-1.4l3-1.8l4.5-1.9l4.4-2.2l3.6-2.1l-0.1-0.2l-3.9,1.4l-4.5,2l-4.3,2.2l-3.4,1.2
	l-2.5,0.8l-3.9,1.9l-3.8,1.5l-3.2,1.4l-4,1.6l-3.6,1.6l-3.2,1.7L514,72.7z M583.6,34.5l0.1,0.2l3.3-1l4.2-1l4.3-2.3l2.7-1.4l4.7-2.1
	l2.9-1.8l4-2l4.1-2.1l4.5-2.4l-0.1-0.2l-4.7,1.9l-4.3,1.9l-4.1,1.8l-3.2,1l-4.7,2.2l-2.8,1.2l-4.5,1.8l-3.6,2.6L583.6,34.5z
	 M519.9,64.2l0.1,0.3l3.8-0.5l3.8-1.1l3.9-1.7l3.5-1.5l3.2-3l3.6-1.6l3.1-1.6l3.9-2.2l4.2-1.5l4.2-2.8l-0.1-0.2l-4.9,1.4l-3.8,2.3
	l-4.1,1.6l-3.3,1.3l-3.6,1.8l-4.2,0.6l-3.5,1.7l-3.8,1.9l-3.3,2.2L519.9,64.2z M584.5,28.5L584.5,28.5l4-0.1l4.4-1.9l2.5-1.9
	l4.6-2.1l2.6-1.8l3.6-1.4l5-3l-0.1-0.3l-5.6,1.9l-3.4,1.9l-3,0.8l-4.6,2.1l-3.1,0.7l-4.3,2.2L584.5,28.5z M521.9,57.6l0.2,0.3l4-0.4
	l3.6-0.8l3-1.7l4.1-2.5l4.9-3l2.4-1.4l5-1.4l3.5-1.1l4.9-4.3l-0.1-0.3l-6.4,1.2l-3,1.9l-4.3,3l-2.5,0.8l-5.5,1.9l-4.5,1.6l-3.2,1.1
	l-3,2.3L521.9,57.6z M583.9,23.1v0.2l2.6,0.5l4.4-2.4l4.1-1.9l2.8-0.3l4.3-4.3l-0.1-0.2l-6.1,0.5l-2.1,1.9l-4.1,1.9l-4.6,1.9
	L583.9,23.1z M522.9,51.5L522.9,51.5l4.1-0.6l4-1.4l2.5-1.1l4.5-2.7l3.4-1.4l4.6-1.5l2.5-1.4l4.2-1.4l4.7-4.3l-0.1-0.3l-6.3,0.9
	l-3.8,2.3l-2.7,1.1l-4.1,2.5l-3.3,1.6l-5,1.7l-2.4,1.2l-3.7,2.1L522.9,51.5z M581.8,18.4v0.2l2.7,0.1l4.1-2.6l3.1-2.1l-0.1-0.2
	l-3.6,1l-4.7,1.4L581.8,18.4z M523.3,45.6l0.1,0.3l4.4-0.2l3.6-1.7l2.3-1.5l3.6-1.8l4.9-2l4.2-2.6l2.4-1.7l4.6-0.3l4.1-4.1l-0.1-0.3
	l-5.8,0.7l-3.1,3.2l-2.8,0.8l-4.7,1.5l-4.7,2.5l-3.6,1.6l-2.6,0.7l-3.6,1.7L523.3,45.6z M577.3,14.8L577.3,14.8h0.7l1.5-0.6l0.8-0.7
	l-0.1-0.2l-1.1,0.3l-1.4,0.8L577.3,14.8z M523.3,39.9l0.1,0.3l3,0.1l4.8-1.8l2.8-2l4.5-2.5l3.7,0.1l2.6-3l4.9-2.6l3.9-0.2l3.7-3.9
	l-0.1-0.3l-5.4,0.5l-2.5,2.9l-5.2,2l-4.1,0.1l-2.3,2.9l-4.8,1.8l-3.4,0.8l-4.5,2.6L523.3,39.9z M522.9,34.4l0.1,0.2l2.6,0.2l4-1.5
	l4.2-1.8l4.1-2.5l3.5-2.1l3-1.2l5.7-1.4l2.8-1.6l4.5-4l-0.1-0.3l-5.9,1l-3,1.1l-4.7,3.5l-2.9,1.4l-3.8,1.3l-4.7,1.6l-4.1,2l-3.7,2.1
	L522.9,34.4z M522,29.2l0.1,0.2l3.2-0.8l3.9-1.1l3.3-2.3l4.1-1.4l2.9-1.4l4.4-1.7l2.4-2.3l4.4-1.8l3.7-2.3l-0.1-0.2l-4.1,1.4
	l-4.2,2.1l-3.3,0.4l-4.1,2.3l-3,1.3l-3.6,2.2l-3.9,1.1l-3.4,2.3L522,29.2z M520.3,24.3L520.3,24.3l3.3,0.3l4.1-1.4l3.4-2.3l2.9-1.5
	l4.4-2.5l3.9-2.5l-0.1-0.2l-4.5,1.2l-4.8,1.8l-3,1.3l-3.8,1.1l-3.6,2.3L520.3,24.3z M517.5,19.9l0.1,0.2l3.8,0.3l4.6-2.6l4.1-3.5
	l-0.1-0.1l-5.3,0.9l-5,1.8L517.5,19.9z M513.3,16.1l0.1,0.3l2.2,1.4l0.4-1.9l1.9-1.5l-0.1-0.2l-2.4,0.3l-0.8,1L513.3,16.1z"/>
<path class="st3" d="M765.4,76L765.4,76l1.2,0.2l0.6-0.6l1.2-0.7l-0.1-0.3l-1.6-0.3l-1.1-0.4L765.4,76z M752.9,75.9l0.1,0.2l3.3-0.2
	l3.8-2.5l3.6-2.2l-0.1-0.3l-4.1,1.4l-4.3,1.3L752.9,75.9z M740.5,76L740.5,76l2.3-0.4l6.4-1.2l3.2-2.5l2.1-1.9l5.8-3l-0.1-0.2
	l-6.1,2.5l-2.8,0.4l-3.9,0.8L742,74L740.5,76z M727.9,76L727.9,76l2.1-0.6l4.1-0.5l4.1-2.2l4.6-2.5l2.8-1.3l3.2-2.1l4-1.4l4.4-2.7
	l-0.2-0.3l-4.8,1.6l-3.7,2.1l-3.7,1.2l-2.7,1.3l-4.9,1.9l-4.2,1.7l-3.6,1.6L727.9,76z M715.4,76L715.4,76l2.5-0.8l4.7-0.1l3.7-2.3
	l5.3-2.6l3-0.8l4.7-2.8l2.3-2l4.2-0.8l4.7-2.5l4.1-3.4l-0.1-0.2l-5.3,0.9l-4.8,1.9l-3.4,2.8l-3,0.4l-5.3,1.9l-2.5,1.7l-5.4,2.5
	l-4.1,1.4l-3.6,2.5L715.4,76z M702.9,76L702.9,76l3-0.8l4.1-1l4.1-1.4l3.7-2.5l3.7-1.9L726,67l3.4-2.4l2.7-1.2l4.3-2.5L740,60
	l3.1-1.9l4.8-2.2l4.3-2.7l-0.1-0.3l-4.8,1.6l-4.9,2.3L739,58l-3,2.1l-4.8,1.7l-2.6,1.4l-4,1l-4,2.5l-3.8,1.7l-4.2,1.2l-3.8,2.4
	l-3.4,2.5L702.9,76z M704.8,69.2l0.1,0.3l2.5-0.2l5.1-0.9l2.4-2.5l5.3-1.9l3.7-2.6l2.7-0.8l4.3-2.7l3.5-1.3l3-1.9l5.5-1.4l4.5-1.4
	l3-3.7l-0.2-0.3l-4.7-0.1l-3.9,2.5l-4.6,3.4l-3.4,1.1l-3.2,1.8l-4.8,1.6l-2.4,1.5l-4.3,1.2l-4.8,2.9l-3.5,0.2l-4,3.2L704.8,69.2z
	 M707,62.4l0.2,0.3l4.1-0.1l2.3-0.8l5.1-2.5l3.6-1.6l3.4-2.7l3.8-0.8l3.4-2.6l3.5-1.9l3.2-1.5l4-1.9l4.7-2.6l-0.1-0.2l-5,1.9
	l-4.1,1.9l-3.2,1.4l-3.7,1.4l-4.1,0.8l-3,2.5l-4.3,0.8l-3.5,1.8l-5.2,2.2l-2.2,1.2L707,62.4z M677.9,76L677.9,76l1.7-0.7l1.4,0.6
	l2-2l-0.2-0.3l-2.9,0.2l-1.1-0.1L677.9,76z M707.9,56.2l0.1,0.2l4.4-0.2l2.6-1.8l3.5-0.8l4.7-3.5l3.3-1.5l4.1-1.6l2.8-1.9l4.8-2
	l2.6-1.4l5.2-3l-0.1-0.3l-5.7,2l-2.8,1.2l-4.6,2.3l-3.2,0.9l-4,2.2l-3.3,1.6l-5.6,1.3l-2.9,2.1l-3.1,0.8L707.9,56.2z M665.3,76
	L665.3,76l2.7-0.5l4.8-1.8l3.2-2.2l3.7-2.1l-0.1-0.2l-4,1.5l-3.8,1l-5.2,1L665.3,76z M707.6,50.4v0.2l3-0.1l3.4-0.8l3.8-1.7l3.2-2
	l4.2-2.5l4.2-2.1l1.9-1.2l4.5-2l4.2-2.3l3.7-2l-0.2-0.3l-4,1.4l-4.5,1.9l-4.4,2.1l-2.1,0.8l-4.4,1.9l-4.7,1.6l-3.6,1.1l-3.7,1.9
	l-2.7,2L707.6,50.4z M663,71.3l0.1,0.3l4.2,0.4l3.3-3.6l2.8-1.6l4.5-2.3l-0.1-0.2l-4.7,1.9l-3,1.2l-4,2.1L663,71.3z M706.2,45.3
	l0.1,0.2l4,0.4l3.7-2.4l4.7-2.4l2.7-1.2l4-1.9l4.1-2.5l4.6-2.3l2.4-0.8l5.4-3.4l-0.2-0.3l-6.1,1.9l-2.2,1.4l-4.7,2l-4.5,1.4l-4,1.9
	l-2.6,1.3l-4.8,2.1l-4.2,1.3L706.2,45.3z M671.5,61.4l0.1,0.2l1.9,0.1l1.2-0.8l2-1.8l-0.2-0.2l-2.5,0.4l-1.4,0.4L671.5,61.4z
	 M704.2,40.3l0.1,0.2l4.2-0.8l4.1-1.9l2.9-0.2l3.7-2.5l3.4-2l4.6-2.5l3.9-1.9l4-1.9l4.5-2.7l-0.1-0.1l-4.9,1.7l-4.1,1.8l-4,1.7
	l-4.8,2l-3.8,1.3l-4.2,1.2l-2,2.1l-4,1.9L704.2,40.3z M702.1,35.4l0.1,0.2l3.4-0.4l4.8-2.1l3-1.4l3.5-1.7l4-1.8l4.5-1.7l4-3l4.3-0.8
	l3.8-3.6l-0.1-0.1l-5.1,0.6l-3.5,2.8l-4.8,1.1l-4.2,2.4l-3.9,1.9l-3.5,1.6l-3,1.4l-4.7,2.4L702.1,35.4z M700,30.6l0.1,0.2l3.3,0.5
	l4.9-2.4l3.7-2.1l3-1.7l4.5-2.6l2.5-0.8l4.4-2.8l3.3-1l5.4-3.5l-0.1-0.2l-6.1,1.9L726,18l-5,1.5l-2.3,1.4l-4.9,1.8l-3.2,1.2l-4,1.5
	l-5,2.2L700,30.6z M697.9,25.7l0.1,0.2l3.7-0.2l4.5-2.3l4.6-1.2l2.4-1.9l5-3.3l4.7-2.8l-0.1-0.1l-5.1,1.8l-5.8,1.7l-3,0.6l-3.8,2.7
	l-4.7,2L697.9,25.7z M695.8,20.9l0.1,0.2l3.2,0.1l4.4-1.5l1.9-2.5l4.9-2.8l-0.1-0.2l-5.3,1.9l-3.1-0.1l-4,2.4L695.8,20.9z M693.8,16
	L693.8,16l2.1,1.6l0.3-1.8l1.6-1.5l-0.1-0.2l-2.3,0.2l-0.7,1L693.8,16z"/>
<path class="st3" d="M890.4,76L890.4,76l0.8-0.2l0.9-0.3l1.1-0.7l-0.1-0.2l-1.5-0.3h-1L890.4,76z M878.7,75.9l0.1,0.2l3-0.3l5.8-3.5
	l5.4-2.9l-0.1-0.3l-5.7,2.4l-6.4,2.2L878.7,75.9z M866.9,76L866.9,76l3.8-1l4.2-0.8l2.4-1.3l3.6-2.4l4.6-2.8l3-1L893,64l-0.1-0.2
	l-5,1.7l-2.6,1.5l-5.2,1.8L876,70l-2.5,1l-3.9,1.4L866.9,76z M858.4,74.4v0.2l3.5,0.1l3.6-1.3l4.2-2l3.5-2.5l4.2-2l2.4-1.5l5.8-1.9
	l3-2.3l4.1-2.6l-0.1-0.1l-4.5,1.4l-3.8,0.8l-5.2,3.3l-2.7,0.8l-4.2,1.9l-4.1,1.1l-3.7,3.1l-3.2,1.9L858.4,74.4z M878.8,59.4l0.1,0.3
	l4.3-0.3l3.1-1.7l6.3-4.5l-0.1-0.1L885,55l-2.8,2.4L878.8,59.4z M843.4,76L843.4,76l0.6,0.1l0.4-0.3l0.7-0.5l-0.1-0.2l-1-0.3
	l-0.7-0.1L843.4,76z M831.5,75.9l0.1,0.2l3.1-0.3l6-3.4l4.3-2.6l-0.1-0.1l-4.7,1.6l-6.4,2.4L831.5,75.9z M819.7,76L819.7,76l2.5-0.5
	l4-0.8l3.5-1.9l3.7-1.5l3.2-2.4l5.3-1.9l3.2-2.7l-0.1-0.1l-4.1,0.7l-4.7,2.9l-3.9,0.9l-3.6,1.9L825,72l-3.6,1.6L819.7,76z M808,76
	L808,76l2.8-1l5.1-0.5l2.4-1.7l4.1-2.7l3.3-1.2l3.1-1.6l4.7-2.3l3.5-1.8l3.4-0.9l4.7-3.4l-0.1-0.3l-5.7,1.4l-2.9,2l-3.6,1.5
	l-4.8,2.1l-3.2,1.4l-3,1.8l-4.8,1.4l-2.8,0.8l-4.2,2.4L808,76z M796.2,76L796.2,76l2.9-0.3l4.1-1.3l4.1-2.2l3.4-1.4l3.1-1.5l5.1-2.1
	l4.5-1.4l3-1.6l1.9-2.4l4.7-2.4l3.3-1.4l4.1-1.2l4.5-3.5l-0.1-0.2l-5.6,1.2l-3.6,2.4l-3.1,1.7l-4.8,2.1l-3.1-0.1l-3.2,1.4l-3.9,2.5
	l-4.9,2.5l-3.1,1.4l-3.3,1.7l-4.2,1.7l-3.7,2.4L796.2,76z M803.5,67l0.2,0.3h2.3l5-2l3.7-1.5l3.2-1.4l3.6-3l4.3-1.3l3.6-2.2l4.4-1.5
	l2.6-1.8l4.1-2.1l4.4-2.5l0.1-0.4l-4.7,1.9l-4.3,1.8l-3,0.8l-4,2.4l-4.1,1.4l-3.7,2.5l-4.6,0.8l-3.2,1.6l-3.6,1.9l-4.7,2.5L803.5,67
	z M805.3,60.7l0.1,0.2l2.6-0.2l3.6-0.8l4.2-2.5l3.6-1.6l3.3-1.2l3.6-1.6l4.5-3.3l2.2-1.1l4.1-1.8l4.6-1.6l3.3-2.7l-0.1-0.3l-4.2,0.8
	l-4.1,2.5l-4,2.1l-2.3,0.9l-5.4,1.4l-3.6,1.6l-3,1.8l-3.6,1.8l-4.7,1.6l-2.9,2.2L805.3,60.7z M806.1,54.8l0.1,0.2l2.7,0.2l5.3-2.3
	l4.3-1.4l2-2.1l4.5-2.3l4-0.6l4.3-2.7l3.8-2.5l3.8-1.9l4.1-2.5l0-0.3l-4.6,1.6l-3.9,1.7l-4.4,1.4l-4.8,1.5l-3,2.7l-4.7,1.9l-2.9,0.2
	l-3.8,2.5l-5.1,2.6L806.1,54.8z M806.4,49.2L806.4,49.2l2.7-0.4l4.7-1.1l4.4-1.6l3-2.4l4.5-1.9l2.6-1.4l4.3-1.3l3.1-2.8l5-1.8
	l4.4-3.3l-0.2-0.3l-5.3,1.4L835,35l-4.1,0.6l-3.8,2.5l-2.7,1.1l-4.3,2.3l-3.7,0.8l-4.1,2.3l-3.9,3L806.4,49.2z M806.5,43.6l0.1,0.2
	l3.5-0.3l4.4-1.9l2.5-0.9l3.8-1.5l3.6-2.5l4.2-2l2.1-1l4.7-3l2.8-1l4.4-1.3l4-3.2l-0.2-0.2l-4.9,1.1l-3.8,2.5l-2.6,1.5l-5.3,1.6
	l-2.1,0.9l-4.3,1.9l-4.2,1.2l-3.6,1.9l-2.4,1.4l-4.3,2.1L806.5,43.6z M806.4,38.2l0.1,0.2l2.8-0.1l4.8-1.5l3-1.5l4.7-1.9l3-1.1
	l2.6-3l4.9-2.2l3.7-0.3l3-2.9l3.7-1.8l3.7-1.8l3.6-1.7l2.5-1.6l5.5-2.6l-0.1-0.2l-5.8,1.9l-3,0.4l-3,2.6l-3.9,1.7l-3.7,1.7l-4.1,0.5
	l-2.6,2.6l-4.9,2.4l-3.9,0.2l-2.8,1.5l-4.6,2.3l-3,1.4l-4.2,2.7L806.4,38.2z M805.9,32.9l0.1,0.2l3.5-1l3.9-1.5l3.7-0.5l2.7-1.9
	l3.3-1.7l3.7-1.9l3.7-2.3l4.1-2.2l3.6-1.3l3-0.9l5-3.5l-0.1-0.2l-5.9,1.5l-2.6,1.7l-3.3,1.9l-4.3,1.8l-4.1,1.4l-3.8,1.6l-3.5,1.5
	l-3.2,0.8l-2.8,2.5l-3.6,2L805.9,32.9z M805.2,27.8l0.1,0.2l4.2-0.3l2.8-1.4l3.6-2.4l3.6-1.9l3.6-1.7l3.9-2.1l3.1-0.9l4.3-3v-0.1
	l-5.1,1.4l-2.7,1.8l-4.1,1.6l-3.7,1.7l-3.8,1.6l-4.1,1.2l-2.9,1.3L805.2,27.8z M803.6,23.1L803.6,23.1l3.6,0.8l3.9-2.4l3.5-2.5
	l3.5-0.7l4.7-4l-0.1-0.1l-6,1l-2.8,2.2l-4.1,1l-4.3,1.4L803.6,23.1z M801,18.7v0.2l3.2,0.5l3.6-2.3l3.1-2.9l-0.1-0.1l-4.2,0.5
	l-4,1.4L801,18.7z M796.8,15.1l0.1,0.3l0.7-0.3l0.8,0.3l0.8-1.1l-0.1-0.2l-1.2,0.3l-0.4,0.4L796.8,15.1z"/>
</svg>
