<?xml version="1.0" encoding="utf-8"?>
<!-- Generator: Adobe Illustrator 17.1.0, SVG Export Plug-In . SVG Version: 6.00 Build 0)  -->
<!DOCTYPE svg PUBLIC "-//W3C//DTD SVG 1.1//EN" "http://www.w3.org/Graphics/SVG/1.1/DTD/svg11.dtd">
<svg version="1.1" xmlns="http://www.w3.org/2000/svg" xmlns:xlink="http://www.w3.org/1999/xlink" x="0px" y="0px"
	 viewBox="0 0 2125 2000" enable-background="new 0 0 2125 2000" xml:space="preserve">
<g id="Layer_2_copy">
	<g>
		<path fill="#1B586B" d="M29.89,318.72V211.43c0-28.85,4.06-34.95,16.26-66.24l31.29-92.25c4.06-12.19,11.78-16.26,24.38-16.26
			h105.25c12.6,0,19.91,4.06,23.97,15.85l35.36,92.25c12.19,31.7,16.26,37.79,16.26,66.64v107.29c0,13-5.69,18.69-18.7,18.69H202.6
			c-13,0-19.91-6.1-19.91-18.69v-52.83h-55.67v52.83c0,13-5.69,18.69-18.69,18.69H48.58C35.17,337.41,29.89,331.72,29.89,318.72z
			 M159.93,127.71c-1.22-2.84-1.22-4.47-4.06-4.47h-2.03c-2.84,0-2.84,1.62-4.06,4.47l0.4-0.41l-17.88,56.49H177l-17.48-56.49
			L159.93,127.71z"/>
		<path fill="#1B586B" d="M30.7,724.71V461.37c0-13,5.69-18.7,18.69-18.7h125.98c58.93,0,82.09,28.45,82.09,66.24v19.51
			c0,18.29-4.47,32.51-16.26,41.86c25.2,6.91,43.48,29.26,43.48,65.02v37.39c0,43.07-27.64,70.71-82.9,70.71H49.39
			C36.39,743.4,30.7,737.71,30.7,724.71z M130.26,519.89v35.76h26.82c9.75,0,11.38-6.1,11.38-12.19v-11.38
			c0-6.1-1.63-12.19-11.38-12.19H130.26z M130.26,626.36v39.83h45.11c9.75,0,11.38-6.1,11.38-12.19v-15.85
			c0-6.1-1.62-11.78-11.38-11.78H130.26z"/>
		<path fill="#1B586B" d="M259.9,1150.2H132.7c-80.46,0-104.03-35.76-104.03-86.97V936.85c0-51.61,23.57-87.37,104.03-87.37h127.2
			c13,0,18.69,5.69,18.69,18.69v49.17c0,13-5.69,18.7-18.69,18.7H150.17c-17.07,0-20.72,7.31-20.72,16.26v96.72
			c0,9.35,4.06,15.44,20.72,15.44H259.9c13,0,18.69,5.69,18.69,18.69v48.37C278.59,1144.51,272.9,1150.2,259.9,1150.2z"/>
		<path fill="#1B586B" d="M180.25,1556.59H48.98c-13,0-18.69-5.69-18.69-18.69v-263.33c0-13,5.69-18.69,18.69-18.69h131.26
			c80.46,0,104.03,35.76,104.03,86.96v126.79C284.28,1520.83,260.71,1556.59,180.25,1556.59z M130.67,1341.62v130.04h38.61
			c13,0,15.03-7.32,15.03-15.85v-98.75c0-8.13-2.03-15.44-15.03-15.44H130.67z"/>
		<path fill="#1B586B" d="M30.7,1944.29v-263.33c0-13,5.69-18.69,18.69-18.69H259.9c13,0,18.69,5.69,18.69,18.69v47.55
			c0,13-5.69,18.69-18.69,18.69H129.86v23.16h97.12c13,0,18.69,5.29,18.69,18.69v43.48c0,13-5.69,18.69-18.69,18.69h-97.12v26.82
			H259.9c13,0,18.69,5.69,18.69,18.69v47.55c0,13-5.69,18.69-18.69,18.69H49.39C36.39,1962.99,30.7,1957.3,30.7,1944.29z"/>
	</g>
	<g>
		<path fill="#1B586B" d="M481.86,318.31V54.97c0-13,5.69-18.7,18.69-18.7h210.51c13,0,18.69,5.69,18.69,18.7v48.36
			c0,13-5.69,18.69-18.69,18.69H582.24v34.14h95.91c13,0,18.69,5.69,18.69,18.69v48.77c0,13-5.69,18.69-18.69,18.69h-95.91v75.99
			c0,13-5.69,19.1-18.69,19.1h-62.99C487.55,337.41,481.86,331.31,481.86,318.31z"/>
		<path fill="#1B586B" d="M479.42,656.84V530.05c0-51.21,23.57-86.97,104.03-86.97H688.3c13,0,18.69,5.69,18.69,18.69v49.17
			c0,13-5.69,18.7-18.69,18.7h-87.78c-17.07,0-20.73,7.31-20.73,16.26v97.12c0,8.53,1.63,15.85,14.63,15.85h38.61v-59.33
			c0-13,5.69-18.69,18.69-18.69h62.99c13,0,18.7,5.69,18.7,18.69v125.57c0,13-5.69,18.69-18.7,18.69H583.46
			C503,743.8,479.42,708.04,479.42,656.84z"/>
		<path fill="#1B586B" d="M481.46,1131.51V868.17c0-13,5.69-18.69,18.69-18.69h62.99c13,0,18.69,5.69,18.69,18.69v84.12h51.21
			v-84.12c0-13,5.69-18.69,18.69-18.69h62.99c13,0,18.7,5.69,18.7,18.69v263.34c0,13-5.69,18.69-18.7,18.69h-62.99
			c-13,0-18.69-5.69-18.69-18.69v-86.15h-51.21v86.15c0,13-5.69,18.69-18.69,18.69h-62.99
			C487.14,1150.2,481.46,1144.51,481.46,1131.51z"/>
		<path fill="#1B586B" d="M481.46,1537.9v-49.17c0-13,5.69-18.69,18.69-18.69h107.29c16.66,0,25.6-6.5,25.6-23.16v-172.3
			c0-13,5.69-18.69,18.69-18.69h62.99c13,0,18.7,5.69,18.7,18.69v192.62c0,56.08-34.54,89.4-90.62,89.4H500.15
			C487.14,1556.59,481.46,1550.9,481.46,1537.9z M563.14,1422.49h-62.99c-13,0-18.69-5.69-18.69-18.69v-129.23
			c0-13,5.69-18.69,18.69-18.69h62.99c13,0,18.69,5.69,18.69,18.69v129.23C581.83,1416.8,576.14,1422.49,563.14,1422.49z"/>
		<path fill="#1B586B" d="M500.55,1962.99c-13,0-18.69-5.69-18.69-18.69v-263.33c0-13,5.69-18.69,18.69-18.69h62.99
			c13,0,18.69,5.69,18.69,18.69v89.4h2.84l40.64-92.25c4.87-11.38,11.38-15.85,23.97-15.85h62.58c13.41,0,17.88,6.91,12.6,19.1
			l-39.01,89.4c29.26,4.07,47.96,26.01,47.96,58.93v114.6c0,13-5.69,18.69-18.7,18.69h-62.58c-13,0-18.7-5.69-18.7-18.69v-79.24
			c0-6.1-2.84-9.76-8.94-9.76h-42.67v89c0,13-5.69,18.69-18.69,18.69H500.55z"/>
	</g>
	<g>
		<path fill="#1B586B" d="M933.03,318.72V55.38c0-13,5.69-18.69,18.69-18.69h62.99c13,0,18.69,5.69,18.69,18.69v197.1h55.27V190.7
			c0-13,5.69-18.69,18.69-18.69h58.92c13,0,18.69,5.69,18.69,18.69v128.01c0,13-5.69,18.69-18.69,18.69H951.72
			C938.72,337.41,933.03,331.72,933.03,318.72z"/>
		<path fill="#1B586B" d="M942.78,743.8c-13,0-18.69-5.69-18.69-18.69l1.62-263.34c0-13,5.69-18.69,18.7-18.69h53.23
			c12.19,0,23.98,3.66,30.07,14.22v0.41l27.63,69.08h4.47l30.48-69.49h0.4c6.5-10.57,13.82-14.22,26.01-14.22h56.89
			c13.41,0,18.69,5.69,18.69,18.69l1.63,263.34c0,13-5.28,18.69-18.69,18.69h-61.37c-13,0-18.69-5.69-18.69-18.69l-1.62-112.57
			l-7.72,22.76v0.41c-6.1,10.97-13,15.03-25.2,15.03h-10.97c-12.19,0-19.1-4.06-25.19-15.03v-0.41l-8.13-23.16l-1.22,112.98
			c0,13-5.69,18.69-18.69,18.69H942.78z"/>
		<path fill="#1B586B" d="M951.31,1150.2c-13,0-18.69-5.69-18.69-18.69V868.17c0-13,5.69-18.69,18.69-18.69h42.27
			c11.78,0,19.1,3.25,27.23,12.6l65.83,81.28v-75.18c0-13,5.69-18.69,18.69-18.69h60.96c13,0,18.69,5.69,18.69,18.69v263.34
			c0,13-5.69,18.69-18.69,18.69h-60.96c-13,0-18.69-5.69-18.69-18.69v-48.77l-55.67-73.15v121.92c0,13-5.69,18.69-18.69,18.69
			H951.31z"/>
		<path fill="#1B586B" d="M1186.2,1475.72c0,51.2-23.16,86.97-127.6,86.97c-104.44,0-127.6-35.76-127.6-86.97v-138.57
			c0-51.2,23.16-87.37,127.6-87.37c104.43,0,127.6,36.17,127.6,87.37V1475.72z M1031.37,1461.1c0,9.35,6.1,15.03,27.23,15.03
			c21.54,0,27.63-5.29,27.63-15.03v-109.32c0-9.35-6.5-14.63-27.63-14.63c-21.13,0-27.23,5.29-27.23,14.63V1461.1z"/>
		<path fill="#1B586B" d="M932.62,1944.29v-263.33c0-13,5.69-18.69,18.69-18.69h134.92c77.62,0,99.97,34.13,99.97,83.3v52.02
			c0,49.17-22.34,83.31-99.97,83.31H1033v63.39c0,13-5.69,18.69-18.69,18.69h-62.99C938.31,1962.99,932.62,1957.3,932.62,1944.29z
			 M1032.19,1746.39v53.23h43.07c12.59,0,15.04-7.72,15.04-15.85v-21.54c0-8.12-2.45-15.85-15.04-15.85H1032.19z"/>
	</g>
	<g>
		<path fill="#1B586B" d="M1459.37,355.29v-19.1c-61.77-10.16-77.21-41.86-77.21-83.31V117.96c0-51.2,23.16-87.37,127.61-87.37
			c104.44,0,127.6,36.17,127.6,87.37v134.92c0,41.86-15.44,73.15-78.02,83.31v19.1c0,13-5.69,18.69-18.69,18.69h-62.59
			C1465.06,373.98,1459.37,368.29,1459.37,355.29z M1482.54,243.94c0,9.35,6.1,15.04,27.23,15.04c21.54,0,27.63-5.28,27.63-15.04
			V133c0-9.35-6.5-14.63-27.63-14.63c-21.13,0-27.23,5.29-27.23,14.63V243.94z"/>
		<path fill="#1B586B" d="M1402.48,743.8c-13,0-18.69-5.69-18.69-18.69V461.77c0-13,5.69-18.69,18.69-18.69h130.86
			c64.61,0,84.12,29.67,84.12,71.93v18.69c0,20.32-4.46,35.76-16.25,44.7c21.95,7.31,38.61,28.85,38.61,60.55v86.15
			c0,13-5.7,18.69-18.7,18.69h-62.98c-13,0-18.7-5.69-18.7-18.69v-62.18c0-8.94-2.84-13.41-11.38-13.41h-44.29v75.59
			c0,13-5.7,18.69-18.7,18.69H1402.48z M1483.76,524.36v43.89h21.94c11.38,0,13.82-6.5,13.82-15.04V539.4
			c0-8.54-2.44-15.04-13.82-15.04H1483.76z"/>
		<path fill="#1B586B" d="M1547.97,1150.2h-145.49c-13,0-18.69-5.69-18.69-18.69v-47.55c0-13,5.69-18.69,18.69-18.69h126.38
			c4.47,0,6.5-3.66,6.5-7.72c0-6.1-2.03-9.35-6.91-9.76l-78.02-8.53c-40.64-6.09-66.65-23.57-66.65-71.52v-42.67
			c0-48.77,32.51-75.59,88.18-75.59h134.92c13,0,18.69,5.69,18.69,18.69v48.36c0,13-5.69,18.69-18.69,18.69h-115.82
			c-4.46,0-6.91,3.66-6.91,8.13c0,4.88,2.44,8.54,7.32,8.94l77.61,8.13c40.64,6.1,67.06,23.57,67.06,71.52v42.67
			C1636.15,1123.38,1603.23,1150.2,1547.97,1150.2z"/>
		<path fill="#1B586B" d="M1456.94,1537.9v-195.47h-54.46c-13,0-18.69-5.69-18.69-18.69v-49.17c0-13,5.69-18.69,18.69-18.69h214.57
			c13,0,18.69,5.69,18.69,18.69v49.17c0,13-5.69,18.69-18.69,18.69h-54.46v195.47c0,13-5.69,18.69-18.69,18.69h-68.27
			C1462.63,1556.59,1456.94,1550.9,1456.94,1537.9z"/>
		<path fill="#1B586B" d="M1635.74,1882.12c0,51.2-23.57,86.97-125.97,86.97c-102.41,0-125.98-35.76-125.98-86.97v-201.15
			c0-13,5.69-18.69,18.69-18.69h63.8c13,0,18.69,5.69,18.69,18.69v185.31c0,9.35,6.09,15.03,25.6,15.03
			c19.92,0,26.01-5.69,26.01-15.03v-185.31c0-13,5.29-18.69,18.7-18.69h61.77c13,0,18.69,5.69,18.69,18.69V1882.12z"/>
	</g>
	<g>
		<path fill="#1B586B" d="M2012.54,337.41h-102.82c-14.22,0-21.54-4.06-26.01-16.26l-35.76-99.16
			c-10.16-25.19-13.41-32.92-13.41-59.33V55.38c0-13,5.7-18.69,18.7-18.69h61.36c13,0,19.91,6.1,19.91,18.69v112.16
			c0,5.28,0.81,9.75,3.25,15.44l17.07,56.49c1.22,2.84,1.63,4.47,4.06,4.47h6.1c2.44,0,2.84-1.62,4.06-4.47l-0.4,0.41l17.88-57.3
			v-0.4c2.03-5.29,2.84-9.76,2.84-15.04V55.38c0-13,5.69-18.69,18.69-18.69h60.55c13.41,0,18.7,5.69,18.7,18.69v107.29
			c0,26.41,0.81,34.13-9.35,59.33l-39.83,99.57C2033.67,333.34,2026.76,337.41,2012.54,337.41z"/>
		<path fill="#1B586B" d="M1849.58,726.33l-14.63-56.08c-7.32-28.45-7.32-34.13-7.32-59.74l-1.63-148.74
			c0-13,5.69-18.69,18.69-18.69h60.15c13,0,18.69,5.69,18.69,18.69l1.63,115.82l8.53-26.01v-0.41c6.5-10.57,13-14.63,25.19-14.63
			h12.6c12.19,0,18.69,4.06,25.19,14.63v0.41l8.53,25.6l1.22-115.41c0-13.41,3.65-18.69,16.66-18.69h54.05
			c13.41,0,18.69,5.69,18.69,18.69l-1.63,149.55c0,25.2,0,31.29-7.32,59.74l-14.63,54.86c-3.25,12.19-9.75,17.88-21.94,17.88h-40.64
			c-15.44,0-21.13-4.88-24.38-15.04l-20.73-68.68h-3.25l-20.72,68.68c-3.25,9.75-8.94,15.04-24.39,15.04h-43.89
			C1860.15,743.8,1852.83,737.71,1849.58,726.33z"/>
		<path fill="#1B586B" d="M1853.64,1150.2c-13,0-18.69-5.69-18.69-18.69v-43.48c0-26.42,5.29-34.14,16.25-52.43l25.2-41.85
			l-25.2-41.86c-10.97-18.29-16.25-26.01-16.25-52.42v-31.29c0-13,5.69-18.69,18.69-18.69h62.58c13,0,18.7,5.69,18.7,18.69v28.04
			c0,4.87,0.4,10.16,3.25,15.03l14.63,25.6c1.63,2.84,3.25,4.88,6.09,4.88h4.88c2.84,0,4.46-1.63,6.09-4.88l14.63-25.6
			c2.84-4.87,3.25-10.16,3.25-15.03v-28.04c0-13,5.7-18.69,18.7-18.69h61.77c13,0,18.69,5.69,18.69,18.69v31.29
			c0,26.42-5.28,34.13-16.25,52.42l-25.19,42.26l25.19,41.45c11.38,18.29,16.25,26.01,16.25,52.43v43.48
			c0,13-5.69,18.69-18.69,18.69h-61.77c-13,0-18.7-5.69-18.7-18.69v-40.24c0-4.87-0.4-9.75-3.25-15.03l-14.22-25.6
			c-1.63-3.25-3.25-4.87-6.1-4.87h-5.69c-2.84,0-4.47,1.63-6.1,4.87l-15.03,25.6c-2.84,4.87-3.25,10.16-3.25,15.03v40.24
			c0,13-5.69,18.69-18.69,18.69H1853.64z"/>
		<path fill="#1B586B" d="M1909.32,1537.9v-51.2l-58.52-81.68c-13-17.48-16.26-30.07-16.26-52.42v-78.02c0-13,5.7-18.69,18.7-18.69
			h62.58c13,0,18.69,5.69,18.69,18.69v66.64c0,4.88,0,9.76,3.25,15.04l15.85,29.26c1.62,3.25,3.25,4.87,6.09,4.87h4.07
			c2.84,0,4.46-1.62,6.09-4.87l16.66-29.26c2.84-5.29,2.84-10.16,2.84-15.04v-66.64c0-13,5.69-18.69,18.69-18.69h60.55
			c13,0,18.7,5.69,18.7,18.69v78.02c0,22.35-3.25,34.94-16.26,52.42l-58.52,82.09v50.79c0,13-5.69,18.69-18.69,18.69h-65.83
			C1914.6,1556.59,1909.32,1550.9,1909.32,1537.9z"/>
		<path fill="#1B586B" d="M1834.95,1944.29v-54.45c0-11.79,3.25-19.51,11.38-28.05l109.32-112.97h-98.75c-13,0-18.7-5.69-18.7-18.69
			v-49.17c0-13,5.7-18.69,18.7-18.69h208.07c13,0,18.69,5.69,18.69,18.69v60.55c0,12.19-3.25,19.91-11.38,28.45l-104.44,107.28
			h100.38c13,0,18.69,5.69,18.69,18.69v48.36c0,13-5.69,18.69-18.69,18.69h-214.57C1840.64,1962.99,1834.95,1957.3,1834.95,1944.29z
			"/>
	</g>
</g>
<g id="Layer_1">
	<g>
		<path fill="#EFE445" d="M108.32,333.34H48.58c-10.57,0-14.63-4.47-14.63-14.63V211.43c0-28.04,4.06-34.13,15.85-65.02l31.29-92.25
			C84.75,44,91.25,40.75,101.81,40.75h105.25c10.57,0,16.66,3.25,20.32,13.41l35.35,92.25c11.78,30.89,15.85,36.98,15.85,65.02
			v107.29c0,10.16-4.47,14.63-14.63,14.63H202.6c-10.16,0-15.85-4.47-15.85-14.63v-56.89h-63.8v56.89
			C122.95,328.87,118.48,333.34,108.32,333.34z M127.01,187.86h55.67l-19.1-61.77c-2.44-5.28-3.25-6.91-7.72-6.91h-2.03
			c-4.47,0-5.28,1.62-7.72,6.91L127.01,187.86z"/>
		<path fill="#EFE445" d="M49.39,739.33c-10.16,0-14.63-4.47-14.63-14.63V461.37c0-10.16,4.47-14.63,14.63-14.63h125.98
			c55.27,0,78.02,26.42,78.02,62.18v19.51c0,20.73-6.1,36.17-23.98,43.89c29.26,2.85,51.2,24.79,51.2,62.99v37.39
			c0,41.04-26.82,66.64-78.84,66.64H49.39z M126.2,559.71h30.88c13,0,15.44-7.72,15.44-16.26v-11.38c0-8.53-2.44-16.26-15.44-16.26
			H126.2V559.71z M126.2,670.25h49.17c13,0,15.44-7.72,15.44-16.26v-15.85c0-8.53-2.44-15.85-15.44-15.85H126.2V670.25z"/>
		<path fill="#EFE445" d="M132.7,1146.13c-76.81,0-99.97-33.73-99.97-82.9V936.85c0-49.58,23.16-83.31,99.97-83.31h127.2
			c10.16,0,14.63,4.47,14.63,14.63v49.17c0,10.16-4.47,14.63-14.63,14.63H150.17c-21.13,0-24.79,9.75-24.79,20.32v96.72
			c0,11.38,3.66,19.51,24.79,19.51H259.9c10.16,0,14.63,4.47,14.63,14.62v48.37c0,10.15-4.47,14.62-14.63,14.62H132.7z"/>
		<path fill="#EFE445" d="M48.98,1552.53c-10.16,0-14.63-4.47-14.63-14.63v-263.33c0-10.16,4.47-14.63,14.63-14.63h131.26
			c76.8,0,99.97,33.73,99.97,82.9v126.79c0,49.17-23.16,82.9-99.97,82.9H48.98z M126.61,1475.72h42.67c16.25,0,19.1-8.94,19.1-19.91
			v-98.75c0-10.57-2.85-19.51-19.1-19.51h-42.67V1475.72z"/>
		<path fill="#EFE445" d="M49.39,1958.92c-10.16,0-14.63-4.47-14.63-14.63v-263.33c0-10.16,4.47-14.63,14.63-14.63H259.9
			c10.16,0,14.63,4.47,14.63,14.63v47.55c0,10.16-4.47,14.63-14.63,14.63H125.79v31.29h101.19c10.16,0,14.63,4.07,14.63,14.63v43.48
			c0,10.16-4.47,14.63-14.63,14.63H125.79v34.94H259.9c10.16,0,14.63,4.47,14.63,14.63v47.55c0,10.16-4.47,14.63-14.63,14.63H49.39z
			"/>
	</g>
	<g>
		<path fill="#EFE445" d="M500.55,333.34c-10.16,0-14.63-4.88-14.63-15.03V54.97c0-10.16,4.47-14.63,14.63-14.63h210.51
			c10.16,0,14.63,4.47,14.63,14.63v48.36c0,10.16-4.47,14.63-14.63,14.63H578.17v42.26h99.97c10.16,0,14.63,4.47,14.63,14.63v48.77
			c0,10.16-4.47,14.63-14.63,14.63h-99.97v80.06c0,10.16-4.47,15.03-14.63,15.03H500.55z"/>
		<path fill="#EFE445" d="M583.46,739.74c-76.81,0-99.97-33.73-99.97-82.9V530.05c0-49.17,23.16-82.9,99.97-82.9H688.3
			c10.16,0,14.63,4.47,14.63,14.63v49.17c0,10.16-4.47,14.63-14.63,14.63h-87.78c-21.13,0-24.79,9.75-24.79,20.32v97.12
			c0,10.97,2.44,19.91,18.7,19.91h42.67v-63.4c0-10.16,4.47-14.63,14.63-14.63h62.99c10.16,0,14.63,4.47,14.63,14.63v125.57
			c0,10.16-4.47,14.63-14.63,14.63H583.46z"/>
		<path fill="#EFE445" d="M500.15,1146.13c-10.16,0-14.63-4.47-14.63-14.62V868.17c0-10.16,4.47-14.63,14.63-14.63h62.99
			c10.16,0,14.63,4.47,14.63,14.63v88.18h59.33v-88.18c0-10.16,4.47-14.63,14.63-14.63h62.99c10.16,0,14.63,4.47,14.63,14.63v263.34
			c0,10.15-4.47,14.62-14.63,14.62h-62.99c-10.16,0-14.63-4.47-14.63-14.62v-90.22h-59.33v90.22c0,10.15-4.47,14.62-14.63,14.62
			H500.15z"/>
		<path fill="#EFE445" d="M485.52,1488.73c0-10.16,4.47-14.62,14.63-14.62h107.29c19.51,0,29.66-7.73,29.66-27.23v-172.3
			c0-10.16,4.47-14.63,14.63-14.63h62.99c10.16,0,14.63,4.47,14.63,14.63v192.62c0,53.64-32.92,85.34-86.56,85.34H500.15
			c-10.16,0-14.63-4.47-14.63-14.63V1488.73z M500.15,1418.43c-10.16,0-14.63-4.47-14.63-14.63v-129.23
			c0-10.16,4.47-14.63,14.63-14.63h62.99c10.16,0,14.63,4.47,14.63,14.63v129.23c0,10.16-4.47,14.63-14.63,14.63H500.15z"/>
		<path fill="#EFE445" d="M500.55,1958.92c-10.16,0-14.63-4.47-14.63-14.63v-263.33c0-10.16,4.47-14.63,14.63-14.63h62.99
			c10.16,0,14.63,4.47,14.63,14.63v93.46h9.35l41.86-94.69c4.06-9.75,9.75-13.41,20.32-13.41h62.58c9.35,0,12.6,4.88,8.94,13.41
			l-41.45,94.69c30.48,1.63,49.99,22.76,49.99,55.27v114.6c0,10.16-4.47,14.63-14.63,14.63h-62.58c-10.16,0-14.63-4.47-14.63-14.63
			v-79.24c0-8.94-4.47-13.82-13-13.82h-46.73v93.06c0,10.16-4.47,14.63-14.63,14.63H500.55z"/>
	</g>
	<g>
		<path fill="#EFE445" d="M951.72,333.34c-10.16,0-14.63-4.47-14.63-14.63V55.38c0-10.16,4.47-14.63,14.63-14.63h62.99
			c10.16,0,14.63,4.47,14.63,14.63v201.16h63.4V190.7c0-10.16,4.47-14.63,14.63-14.63h58.92c10.16,0,14.63,4.47,14.63,14.63v128.01
			c0,10.16-4.47,14.63-14.63,14.63H951.72z"/>
		<path fill="#EFE445" d="M942.78,739.74c-10.16,0-14.63-4.47-14.63-14.63l1.62-263.34c0-10.16,4.47-14.63,14.63-14.63h53.23
			c10.57,0,21.13,2.84,26.42,12.19l28.45,71.52h9.75l31.7-71.52c5.69-8.94,12.2-12.19,22.76-12.19h56.89
			c10.57,0,14.63,4.47,14.63,14.63l1.63,263.34c0,10.16-4.07,14.63-14.63,14.63h-61.37c-10.15,0-14.62-4.47-14.62-14.63
			l-1.62-119.07v-17.07l-15.45,44.7c-5.28,9.35-10.97,13-21.53,13h-10.97c-10.56,0-16.26-3.66-21.54-13l-15.85-44.7v17.07
			l-1.22,119.07c0,10.16-4.47,14.63-14.63,14.63H942.78z"/>
		<path fill="#EFE445" d="M951.31,1146.13c-10.16,0-14.63-4.47-14.63-14.62V868.17c0-10.16,4.47-14.63,14.63-14.63h42.27
			c10.56,0,17.07,2.84,23.97,10.97l73.15,90.22v-86.56c0-10.16,4.46-14.63,14.62-14.63h60.96c10.16,0,14.63,4.47,14.63,14.63v263.34
			c0,10.15-4.47,14.62-14.63,14.62h-60.96c-10.16,0-14.62-4.47-14.62-14.62v-49.99l-63.8-84.12v134.11
			c0,10.15-4.47,14.62-14.63,14.62H951.31z"/>
		<path fill="#EFE445" d="M1058.6,1558.63c-99.57,0-123.54-33.32-123.54-82.91v-138.57c0-49.58,23.97-83.31,123.54-83.31
			s123.54,33.73,123.54,83.31v138.57C1182.14,1525.3,1158.17,1558.63,1058.6,1558.63z M1058.6,1480.19c27.23,0,31.7-8.13,31.7-19.1
			v-109.32c0-10.57-4.47-18.69-31.7-18.69c-26.82,0-31.29,8.12-31.29,18.69v109.32C1027.31,1472.06,1031.78,1480.19,1058.6,1480.19z
			"/>
		<path fill="#EFE445" d="M951.31,1958.92c-10.16,0-14.63-4.47-14.63-14.63v-263.33c0-10.16,4.47-14.63,14.63-14.63h134.92
			c73.96,0,95.9,32.11,95.9,79.24v52.02c0,47.14-21.95,79.25-95.9,79.25h-57.3v67.45c0,10.16-4.47,14.63-14.63,14.63H951.31z
			 M1028.12,1803.69h47.14c15.85,0,19.1-9.35,19.1-19.92v-21.54c0-10.56-3.25-19.91-19.1-19.91h-47.14V1803.69z"/>
	</g>
	<g>
		<path fill="#EFE445" d="M1478.06,369.92c-10.16,0-14.62-4.47-14.62-14.63v-22.76c-60.96-9.35-77.21-39.01-77.21-79.65V117.96
			c0-49.58,23.97-83.31,123.54-83.31c99.56,0,123.54,33.73,123.54,83.31v134.92c0,41.04-16.26,70.71-78.02,80.06v22.35
			c0,10.16-4.47,14.63-14.63,14.63H1478.06z M1509.77,263.04c27.23,0,31.7-8.13,31.7-19.1V133c0-10.57-4.47-18.7-31.7-18.7
			c-26.82,0-31.29,8.13-31.29,18.7v110.94C1478.48,254.91,1482.95,263.04,1509.77,263.04z"/>
		<path fill="#EFE445" d="M1402.48,739.74c-10.16,0-14.63-4.47-14.63-14.63V461.77c0-10.16,4.47-14.63,14.63-14.63h130.86
			c60.96,0,80.06,27.63,80.06,67.86v18.69c0,22.76-5.69,39.01-22.75,46.33c24.78,3.25,45.1,24.79,45.1,58.93v86.15
			c0,10.16-4.47,14.63-14.63,14.63h-62.98c-10.16,0-14.63-4.47-14.63-14.63v-62.18c0-12.19-4.07-17.48-15.44-17.48h-48.36v79.65
			c0,10.16-4.47,14.63-14.63,14.63H1402.48z M1479.69,572.31h26.01c14.22,0,17.88-8.13,17.88-19.1V539.4
			c0-10.97-3.66-19.1-17.88-19.1h-26.01V572.31z"/>
		<path fill="#EFE445" d="M1402.48,1146.13c-10.16,0-14.63-4.47-14.63-14.62v-47.55c0-10.16,4.47-14.62,14.63-14.62h126.38
			c6.91,0,10.56-5.28,10.56-11.79c0-9.35-3.65-13-10.56-13.82l-78.02-8.53c-38.2-5.69-62.99-21.95-62.99-67.46v-42.67
			c0-46.33,31.29-71.52,84.12-71.52h134.92c10.16,0,14.63,4.47,14.63,14.63v48.36c0,10.16-4.47,14.63-14.63,14.63h-115.82
			c-6.91,0-10.97,4.88-10.97,12.19c0,7.32,4.06,12.19,10.97,13l77.62,8.13c38.2,5.69,63.39,21.94,63.39,67.45v42.67
			c0,46.33-31.7,71.52-84.12,71.52H1402.48z"/>
		<path fill="#EFE445" d="M1475.63,1552.53c-10.16,0-14.63-4.47-14.63-14.63v-199.53h-58.52c-10.16,0-14.63-4.46-14.63-14.62v-49.17
			c0-10.16,4.47-14.63,14.63-14.63h214.57c10.16,0,14.63,4.47,14.63,14.63v49.17c0,10.16-4.47,14.62-14.63,14.62h-58.52v199.53
			c0,10.16-4.47,14.63-14.63,14.63H1475.63z"/>
		<path fill="#EFE445" d="M1509.77,1965.02c-97.53,0-121.92-33.32-121.92-82.91v-201.15c0-10.16,4.47-14.63,14.63-14.63h63.8
			c10.16,0,14.62,4.47,14.62,14.63v185.31c0,10.97,4.88,19.1,29.67,19.1c25.2,0,30.08-8.13,30.08-19.1v-185.31
			c0-10.16,4.06-14.63,14.63-14.63h61.77c10.16,0,14.63,4.47,14.63,14.63v201.15C1631.68,1931.7,1607.3,1965.02,1509.77,1965.02z"/>
	</g>
	<g>
		<path fill="#EFE445" d="M1909.72,333.34c-12.19,0-18.28-3.25-22.35-13.41l-35.76-99.56c-9.76-24.38-13-32.1-13-57.71V55.38
			c0-10.16,4.47-14.63,14.63-14.63h61.36c10.16,0,15.85,4.47,15.85,14.63v112.16c0,5.69,0.81,10.57,3.25,16.66l17.48,56.89
			c2.03,5.29,3.25,6.91,7.72,6.91h6.1c4.47,0,5.69-1.62,7.72-6.91l17.48-57.3c2.44-6.1,3.25-10.97,3.25-16.66V55.38
			c0-10.16,4.46-14.63,14.62-14.63h60.55c10.57,0,14.63,4.47,14.63,14.63v107.29c0,25.6,0.81,33.32-8.94,57.71l-39.83,99.56
			c-4.07,10.16-9.76,13.41-21.95,13.41H1909.72z"/>
		<path fill="#EFE445" d="M2077.16,447.15c10.56,0,14.62,4.47,14.62,14.63l-1.62,149.55c0,24.79,0,30.89-7.32,58.52l-14.63,55.27
			c-2.44,9.75-7.72,14.63-17.88,14.63h-40.64c-12.6,0-17.88-3.66-20.32-12.19l-21.54-71.52h-9.76l-21.54,71.52
			c-2.43,8.13-7.72,12.19-20.32,12.19h-43.89c-10.16,0-16.25-4.88-18.69-14.63l-14.63-56.08c-7.32-27.64-7.32-33.32-7.32-58.52
			l-1.62-148.74c0-10.16,4.46-14.63,14.62-14.63h60.15c10.16,0,14.63,4.47,14.63,14.63l1.63,126.79v12.6l16.25-47.96
			c5.29-8.94,10.97-12.6,21.54-12.6h12.6c10.56,0,16.25,3.66,21.54,12.6l16.26,47.96v-12.6l1.22-126.79
			c0-10.16,2.44-14.63,12.59-14.63H2077.16z"/>
		<path fill="#EFE445" d="M1915.42,1146.13h-61.77c-10.16,0-14.63-4.47-14.63-14.62v-43.48c0-25.19,4.88-32.51,15.44-49.99
			l26.82-44.29l-26.82-44.29c-10.56-17.48-15.44-24.79-15.44-49.99v-31.29c0-10.16,4.47-14.63,14.63-14.63h62.58
			c10.16,0,14.63,4.47,14.63,14.63v28.04c0,5.69,0.41,11.78,3.66,17.07l14.63,25.6c2.43,4.47,5.29,6.91,9.75,6.91h4.88
			c4.46,0,6.91-2.03,9.75-6.91l14.63-25.6c3.25-5.69,3.66-11.38,3.66-17.07v-28.04c0-10.16,4.47-14.63,14.63-14.63h61.77
			c10.16,0,14.63,4.47,14.63,14.63v31.29c0,25.19-4.87,32.51-15.44,49.99l-26.82,44.7l26.82,43.89
			c10.57,17.48,15.44,24.79,15.44,49.99v43.48c0,10.15-4.47,14.62-14.63,14.62h-61.77c-10.16,0-14.63-4.47-14.63-14.62v-40.24
			c0-5.69-0.41-10.97-3.66-17.07l-14.22-25.6c-2.85-5.28-5.29-6.91-9.76-6.91h-5.69c-4.47,0-6.91,2.03-9.76,6.91l-15.03,25.6
			c-3.25,5.69-3.66,11.38-3.66,17.07v40.24C1930.04,1141.66,1925.57,1146.13,1915.42,1146.13z"/>
		<path fill="#EFE445" d="M1928.01,1552.53c-10.56,0-14.63-4.47-14.63-14.63v-52.42l-59.33-82.9
			c-12.59-16.66-15.44-28.85-15.44-49.99v-78.02c0-10.16,4.47-14.63,14.63-14.63h62.58c10.16,0,14.63,4.47,14.63,14.63v66.64
			c0,5.7,0,11.38,3.66,17.07l15.85,29.26c2.84,4.88,5.28,6.91,9.75,6.91h4.07c4.46,0,6.91-2.03,9.75-6.91l16.26-29.26
			c3.66-5.69,3.66-11.38,3.66-17.07v-66.64c0-10.16,4.46-14.63,14.62-14.63h60.55c10.16,0,14.63,4.47,14.63,14.63v78.02
			c0,21.13-3.25,33.32-15.44,49.99l-59.33,83.3v52.02c0,10.16-4.47,14.63-14.63,14.63H1928.01z"/>
		<path fill="#EFE445" d="M1853.64,1958.92c-10.16,0-14.63-4.47-14.63-14.63v-54.45c0-10.57,2.84-17.48,10.16-25.2l115.82-119.88
			H1856.9c-10.16,0-14.63-4.46-14.63-14.62v-49.17c0-10.16,4.47-14.63,14.63-14.63h208.07c10.15,0,14.62,4.47,14.62,14.63v60.55
			c0,10.97-2.84,17.88-10.16,25.6l-111.35,114.19h110.13c10.16,0,14.63,4.47,14.63,14.63v48.36c0,10.16-4.47,14.63-14.63,14.63
			H1853.64z"/>
	</g>
</g>
<g id="Layer_2">
	<g>
		<path fill="#FFFFFF" d="M230.64,226.87H80.68v69.9h-4.06v-86.56c0-15.03,2.44-27.64,6.91-39.42l26.01-66.64
			c6.1-15.04,10.97-26.82,29.67-26.82h31.29c17.88,0,22.76,11.38,29.26,27.23l28.04,66.24c4.47,11.78,6.91,24.38,6.91,39.42v86.56
			h-4.06V226.87z M80.68,222.81h149.95v-12.6c0-14.63-2.44-26.82-6.5-37.8l-28.04-66.24c-6.1-14.22-10.57-24.79-25.6-24.79H139.2
			c-16.26,0-20.73,10.57-26.01,24.38l-26.01,66.64c-4.06,10.97-6.5,23.16-6.5,37.8V222.81z"/>
		<path fill="#FFFFFF" d="M78.65,703.16V483.72h78.84c45.11,0,53.24,19.51,53.24,43.07v26.01c0,16.26-2.84,30.89-26.01,36.98
			c45.11,0,52.83,19.91,52.83,46.73v26.01c0,23.97-7.72,40.64-53.23,40.64H78.65z M82.72,487.78v102h74.77
			c44.7,0,49.17-17.48,49.17-36.98V526.8c0-21.94-8.13-39.01-49.17-39.01H82.72z M82.72,593.85V699.1h101.6
			c40.64,0,49.17-14.22,49.17-36.58v-26.01c0-24.38-7.72-42.67-48.77-42.67H82.72z"/>
		<path fill="#FFFFFF" d="M237.95,1109.56h-95.9c-52.83,0-65.02-14.63-65.02-52.43V943.35c0-38.61,13-53.23,65.02-53.23h95.9v4.06
			h-95.9c-47.95,0-60.96,13-60.96,49.17v113.78c0,35.36,12.19,48.37,60.96,48.37h95.9V1109.56z"/>
		<path fill="#FFFFFF" d="M78.65,1296.51h92.66c55.27,0,65.02,25.2,65.02,56.49v107.69c0,31.29-8.94,55.27-65.02,55.27H78.65
			V1296.51z M82.72,1300.58v211.31h88.59c52.02,0,60.96-21.54,60.96-51.2V1353c0-29.67-9.75-52.42-60.96-52.42H82.72z"/>
		<path fill="#FFFFFF" d="M237.95,1922.35H78.25V1702.9h159.7v4.07H82.31v102h122.73v4.06H82.31v105.25h155.64V1922.35z"/>
	</g>
	<g>
		<path fill="#FFFFFF" d="M530.22,77.33h158.89v4.06H534.29v116.23H656.2v4.06H534.29v95.09h-4.06V77.33z"/>
		<path fill="#FFFFFF" d="M527.78,650.74V536.96c0-38.61,13-53.23,65.02-53.23h73.55v4.06H592.8c-47.95,0-60.96,13-60.96,49.17
			v113.79c0,35.36,14.22,48.36,69.09,48.36h80.46v-77.62h4.06v81.68h-84.53C541.19,703.16,527.78,688.54,527.78,650.74z"/>
		<path fill="#FFFFFF" d="M529.81,890.12h4.06v107.69h147.11V890.12h4.06v219.44h-4.06v-107.69H533.88v107.69h-4.06V890.12z"/>
		<path fill="#FFFFFF" d="M522.5,1515.96v-4.07h106.06c43.48,0,52.42-21.54,52.42-63.39v-151.99h4.06v151.99
			c0,43.48-8.94,67.46-56.49,67.46H522.5z M529.81,1381.85v-85.34h4.06v85.34H529.81z"/>
		<path fill="#FFFFFF" d="M530.22,1922.35V1702.9h4.06V1811h81.28l46.73-108.1h4.47L620.03,1811h16.66
			c33.32,0,49.17,11.38,49.17,39.83v71.52h-4.06v-71.52c0-26.01-15.04-35.76-45.11-35.76H534.29v107.29H530.22z"/>
	</g>
	<g>
		<path fill="#FFFFFF" d="M981.39,77.33h4.06v215.38h149.14v-80.06h4.06v84.12H981.39V77.33z"/>
		<path fill="#FFFFFF" d="M1073.63,574.34l37.8-83.71c2.84-6.1,8.53-6.91,13.41-6.91h8.53c8.12,0,11.79,3.66,11.79,12.6l0.81,206.85
			h-4.06l-0.81-206.85c0-4.47-1.22-8.54-7.72-8.54h-7.73c-4.06,0-8.53,0-10.97,5.69l-37.8,82.9c-6.91,15.44-10.16,19.1-19.91,19.1
			c-9.75,0-13-3.66-19.91-19.1l-37.79-82.9c-2.44-5.69-6.91-5.69-10.97-5.69h-6.1c-7.72,0-9.35,4.06-9.35,8.54l-0.81,206.85h-4.06
			l0.81-206.85c0-8.94,4.06-12.6,13.41-12.6h6.91c4.87,0,10.97,1.22,13.41,6.91l37.79,83.71c6.5,14.63,8.94,17.07,16.66,17.07
			C1064.7,591.41,1066.73,589.79,1073.63,574.34z"/>
		<path fill="#FFFFFF" d="M990.73,893.37l143.05,168.24V890.12h4.07v219.44h-4.07v-41.86L986.67,895.4
			c-0.81-0.81-1.22-1.22-2.03-1.22s-0.81,0.81-0.81,1.22v214.16h-4.06V894.59c0-3.25,2.44-4.87,4.87-4.87
			C987.08,889.71,987.89,890.52,990.73,893.37z"/>
		<path fill="#FFFFFF" d="M1058.2,1521.24c-61.77,0-78.84-21.94-78.84-54.86v-119.88c0-32.91,17.07-54.86,78.84-54.86
			c61.77,0,80.06,21.95,80.06,54.86v119.88C1138.25,1499.3,1119.96,1521.24,1058.2,1521.24z M1058.2,1517.17
			c58.52,0,75.99-20.32,75.99-50.8v-119.88c0-30.48-17.47-50.79-75.99-50.79c-58.52,0-74.77,20.31-74.77,50.79v119.88
			C983.42,1496.85,999.68,1517.17,1058.2,1517.17z"/>
		<path fill="#FFFFFF" d="M985.05,1842.29v80.06h-4.06V1702.9h98.34c51.21,0,60.96,23.57,60.96,55.27v30.07
			c0,31.7-9.75,54.05-60.96,54.05H985.05z M1079.32,1838.23c47.96,0,56.9-20.72,56.9-49.99v-30.07c0-29.26-8.94-51.2-56.9-51.2
			h-94.28v131.26H1079.32z"/>
	</g>
	<g>
		<path fill="#FFFFFF" d="M1507.33,302.05c-60.15-0.41-76.81-22.35-76.81-54.86V127.31c0-32.92,17.07-54.86,78.84-54.86
			c61.77,0,80.06,21.94,80.06,54.86v119.88c0,32.51-17.88,54.45-78.02,54.86v31.29h-4.06V302.05z M1509.36,297.99
			c58.52,0,75.99-20.32,75.99-50.8V127.31c0-30.48-17.48-50.8-75.99-50.8s-74.77,20.32-74.77,50.8v119.88
			C1434.59,277.67,1450.84,297.99,1509.36,297.99z"/>
		<path fill="#FFFFFF" d="M1431.74,703.16V483.72h92.65c31.7,0,46.33,19.51,46.33,46.33v28.04c0,24.79-4.87,41.04-24.38,47.14h4.47
			c33.32,0,40.63,15.04,40.63,43.48v54.45h-4.06v-54.45c0-26.82-5.69-39.83-36.57-39.83H1435.8v94.28H1431.74z M1435.8,487.78
			v117.44h88.59c33.73,0,42.27-16.66,42.27-46.73v-28.45c0-25.2-13.41-42.27-42.27-42.27H1435.8z"/>
		<path fill="#FFFFFF" d="M1584.94,894.18H1473.6c-23.16,0-37.39,12.6-37.39,32.92v37.39c0,16.26,10.97,27.23,28.85,28.85
			l86.56,8.53c24.38,2.44,36.17,15.03,36.17,36.98v33.73c0,22.76-17.48,36.98-45.11,36.98h-118.25v-4.06h118.25
			c25.19,0,41.04-12.6,41.04-32.92v-33.73c0-19.51-10.56-30.88-32.91-32.92l-86.56-8.53c-19.92-2.03-32.11-14.63-32.11-32.92V927.1
			c0-22.76,15.85-36.98,41.45-36.98h111.34V894.18z"/>
		<path fill="#FFFFFF" d="M1507.73,1300.58h-83.3v-4.07h170.67v4.07h-83.3v215.38h-4.07V1300.58z"/>
		<path fill="#FFFFFF" d="M1436.62,1702.9v169.46c0,30.48,15.44,50.8,71.93,50.8c58.93,0,75.59-20.32,75.59-50.8V1702.9h4.06v169.46
			c0,32.91-17.48,54.86-79.65,54.86c-59.74,0-75.99-21.95-75.99-54.86V1702.9H1436.62z"/>
	</g>
	<g>
		<path fill="#FFFFFF" d="M1881.28,77.33h4.06v86.56c0,14.63,2.44,26.82,6.5,37.8l28.04,66.24c6.1,14.22,10.57,24.79,25.6,24.79
			h31.29c16.25,0,20.72-10.57,26.01-24.38l26.01-66.64c4.06-10.97,6.5-23.16,6.5-37.8V77.33h4.06v86.56
			c0,15.03-2.44,27.64-6.91,39.42l-26.01,66.64c-6.1,15.04-10.97,26.82-29.67,26.82h-31.29c-17.88,0-22.76-11.38-29.26-27.23
			l-28.04-66.24c-4.47-11.78-6.91-24.38-6.91-39.42V77.33z"/>
		<path fill="#FFFFFF" d="M1988.56,618.64l25.19,74.77c2.04,5.69,6.91,5.69,10.97,5.69h2.03c4.47,0,8.54-4.06,9.35-8.54l10.16-46.33
			c2.04-10.16,2.04-28.85,2.04-41.04V483.72h4.06V603.6c0,12.19,0.4,30.88-2.03,41.04l-10.16,45.92c-2.03,8.94-6.91,12.6-13.41,12.6
			h-2.84c-4.87,0-11.38-1.22-13.41-6.91l-25.19-75.58c-5.29-15.44-10.16-17.07-16.66-17.07h-10.16c-6.5,0-11.38,1.62-16.66,17.07
			l-26.41,75.58c-2.04,5.69-8.54,6.91-13.41,6.91h-2.84c-6.5,0-11.38-3.66-13.41-12.6l-10.16-45.92
			c-2.44-10.16-2.04-28.85-2.04-41.04V483.72h4.07V603.2c0,12.19,0,30.89,2.03,41.04l10.16,46.33c0.81,4.47,4.87,8.54,9.35,8.54
			h2.03c4.07,0,8.94,0,10.97-5.69l26.41-74.77c5.7-15.85,11.38-19.1,19.92-19.1h10.16C1977.18,599.54,1983.28,602.79,1988.56,618.64
			z"/>
		<path fill="#FFFFFF" d="M1886.56,1109.56h-4.06v-18.29c0-11.78,0-21.94,6.1-31.29l44.7-66.65l-44.7-65.83
			c-5.69-8.53-6.1-19.51-6.1-31.29v-6.1h4.06v6.1c0,11.38,0.41,21.54,5.7,29.67l44.7,65.83h48.36l44.7-65.83
			c5.29-7.72,5.69-18.29,5.69-29.67v-6.1h4.06v6.1c0,11.78,0,22.35-6.09,31.29l-45.51,66.65l45.51,65.83
			c5.69,8.53,6.09,19.51,6.09,31.29v18.29h-4.06v-18.29c0-11.38-0.4-21.54-5.69-29.67l-45.11-65.83h-48.76l-43.89,65.83
			c-4.88,7.32-5.7,18.29-5.7,29.67V1109.56z"/>
		<path fill="#FFFFFF" d="M1958.89,1444.43h-5.28c-11.79,0-21.13-4.47-29.67-17.07l-35.35-52.83c-5.69-8.53-6.1-19.51-6.1-31.29
			v-46.74h4.06v46.74c0,11.38,0.41,21.54,5.7,29.67l35.35,52.83c7.32,10.97,16.66,14.62,26.01,14.62h13.82
			c10.15,0,19.1-3.66,26.41-14.62l36.57-52.83c5.29-7.73,5.69-18.29,5.69-29.67v-46.74h4.07v46.74c0,11.78-0.41,22.75-6.1,31.29
			l-36.57,52.83c-8.53,12.19-17.48,17.07-30.07,17.07h-4.47v71.52h-4.07V1444.43z"/>
		<path fill="#FFFFFF" d="M1885.34,1890.65c-4.06,4.88-5.69,7.32-5.69,12.6v5.69c0,7.72,4.06,9.35,8.53,9.35h158.08v4.07h-158.08
			c-8.94,0-12.59-4.07-12.59-13.41v-6.5c0-6.09,2.84-10.16,6.91-15.03l150.76-152.8c4.47-4.46,5.7-7.31,5.7-12.59v-5.69
			c0-7.73-4.07-9.35-8.54-9.35h-151.58v-4.07h151.58c8.94,0,12.6,4.07,12.6,13.41v6.5c0,6.09-2.44,10.56-6.91,15.03L1885.34,1890.65
			z"/>
	</g>
</g>
</svg>
