<?xml version="1.0" encoding="utf-8"?>
<!-- Generator: Adobe Illustrator 19.2.1, SVG Export Plug-In . SVG Version: 6.00 Build 0)  -->
<svg version="1.1" id="Layer_1" xmlns="http://www.w3.org/2000/svg" xmlns:xlink="http://www.w3.org/1999/xlink" x="0px" y="0px"
	 width="2000px" height="1500px" viewBox="0 0 2000 1500" style="enable-background:new 0 0 2000 1500;" xml:space="preserve">
<style type="text/css">
	.st0{fill:#1B586B;}
	.st1{fill:#EFE445;}
	.st2{fill:#FFFFFF;}
</style>
<path class="st0" d="M2.9,214.1v-80.7c0-21.7,3.1-26.3,12.2-49.8l23.5-69.3C41.7,5.1,47.5,2,56.9,2H136c9.4,0,14.9,3.1,18,11.9
	l26.6,69.3c9.1,23.8,12.2,28.4,12.2,50.1V214c0,9.7-4.2,14.1-14.1,14.1h-46.1c-9.7,0-14.9-4.6-14.9-14.1v-39.7H75.9V214
	c0,9.7-4.2,14.1-14.1,14.1H16.9C6.8,228.1,2.9,223.8,2.9,214.1z M100.6,70.5c-0.9-2.1-0.9-3.4-3.1-3.4h-1.5c-2.1,0-2.1,1.2-3.1,3.4
	l0.3-0.3l-13.5,42.5h33.6l-13.1-42.5L100.6,70.5z M3.5,519.2v-198c0-9.7,4.2-14.1,14.1-14.1h94.7c44.3,0,61.7,21.4,61.7,49.8v14.6
	c0,13.8-3.4,24.5-12.2,31.5c19,5.2,32.7,22,32.7,48.8V480c0,32.4-20.8,53.2-62.3,53.2H17.5C7.8,533.2,3.5,529,3.5,519.2z
	 M78.4,365.2v26.9h20.1c7.3,0,8.6-4.6,8.6-9.2v-8.6c0-4.6-1.2-9.2-8.6-9.2L78.4,365.2L78.4,365.2z M78.4,445.3v30h33.9
	c7.3,0,8.6-4.6,8.6-9.2v-11.9c0-4.6-1.2-8.9-8.6-8.9L78.4,445.3L78.4,445.3z M175.8,839.1H80.2C19.7,839.1,2,812.2,2,773.7v-95
	C2,639.8,19.7,613,80.2,613h95.6c9.7,0,14.1,4.2,14.1,14.1v37c0,9.7-4.2,14.1-14.1,14.1H93.3c-12.8,0-15.6,5.5-15.6,12.2V763
	c0,7,3.1,11.6,15.6,11.6h82.4c9.7,0,14.1,4.3,14.1,14.1v36.4C189.8,834.7,185.6,839.1,175.8,839.1z M115.9,1144.5H17.2
	c-9.7,0-14.1-4.2-14.1-14.1V932.5c0-9.7,4.3-14.1,14.1-14.1h98.6c60.5,0,78.2,26.9,78.2,65.4v95.3
	C194.1,1117.6,176.4,1144.5,115.9,1144.5z M78.7,982.9v97.8h29c9.7,0,11.3-5.5,11.3-11.9v-74.2c0-6.1-1.5-11.6-11.3-11.6L78.7,982.9
	L78.7,982.9z M3.5,1435.9V1238c0-9.7,4.2-14.1,14.1-14.1h158.2c9.7,0,14.1,4.2,14.1,14.1v35.7c0,9.7-4.2,14.1-14.1,14.1H78v17.4h73
	c9.7,0,14.1,3.9,14.1,14.1v32.7c0,9.7-4.2,14.1-14.1,14.1H78v20.1h97.8c9.7,0,14.1,4.2,14.1,14.1v35.7c0,9.7-4.2,14.1-14.1,14.1
	H17.5C7.8,1449.9,3.5,1445.7,3.5,1435.9z M454,218.9v-198c0-9.7,4.2-14.1,14.1-14.1h158.2c9.7,0,14.1,4.2,14.1,14.1v36.3
	c0,9.7-4.2,14.1-14.1,14.1h-96.9v25.6h72.1c9.7,0,14.1,4.2,14.1,14.1v36.7c0,9.7-4.2,14.1-14.1,14.1h-72.1v57.1
	c0,9.7-4.2,14.4-14.1,14.4H468C458.3,233.2,454,228.6,454,218.9z M452.2,473.3V378c0-38.5,17.7-65.4,78.2-65.4h78.8
	c9.7,0,14.1,4.2,14.1,14.1v37c0,9.7-4.2,14.1-14.1,14.1h-66c-12.8,0-15.6,5.5-15.6,12.2v73c0,6.4,1.2,11.9,11,11.9h29v-44.6
	c0-9.7,4.2-14.1,14.1-14.1H629c9.7,0,14.1,4.2,14.1,14.1v94.4c0,9.7-4.2,14.1-14.1,14.1h-98.6C469.9,538.7,452.2,511.8,452.2,473.3z
	 M453.7,830.1v-198c0-9.7,4.2-14.1,14.1-14.1h47.4c9.7,0,14.1,4.2,14.1,14.1v63.3h38.5v-63.3c0-9.7,4.2-14.1,14.1-14.1h47.4
	c9.7,0,14.1,4.2,14.1,14.1v197.9c0,9.7-4.2,14.1-14.1,14.1h-47.4c-9.7,0-14.1-4.2-14.1-14.1v-64.7h-38.5v64.7
	c0,9.7-4.2,14.1-14.1,14.1h-47.4C458,844.2,453.7,839.9,453.7,830.1z M453.7,1135.6v-37c0-9.7,4.2-14.1,14.1-14.1h80.6
	c12.5,0,19.3-4.9,19.3-17.4V937.6c0-9.7,4.2-14.1,14.1-14.1h47.4c9.7,0,14.1,4.2,14.1,14.1v144.8c0,42.2-26,67.2-68.1,67.2H467.8
	C458,1149.6,453.7,1145.3,453.7,1135.6z M515.1,1048.8h-47.4c-9.7,0-14.1-4.2-14.1-14.1v-97.2c0-9.7,4.2-14.1,14.1-14.1h47.4
	c9.7,0,14.1,4.2,14.1,14.1v97.2C529.2,1044.5,524.9,1048.8,515.1,1048.8z M468.1,1455.1c-9.7,0-14.1-4.2-14.1-14.1v-197.9
	c0-9.7,4.2-14.1,14.1-14.1h47.4c9.7,0,14.1,4.2,14.1,14.1v67.2h2.1l30.5-69.3c3.7-8.6,8.6-11.9,18-11.9h47c10.1,0,13.5,5.2,9.5,14.3
	l-29.3,67.2c22,3.1,36,19.6,36,44.3v86.1c0,9.7-4.2,14.1-14.1,14.1h-47c-9.7,0-14.1-4.2-14.1-14.1v-59.5c0-4.6-2.1-7.3-6.7-7.3
	h-32.1v66.9c0,9.7-4.2,14.1-14.1,14.1L468.1,1455.1L468.1,1455.1z M902.7,219.2v-198c0-9.7,4.2-14.1,14.1-14.1h47.4
	c9.7,0,14.1,4.2,14.1,14.1v148.1h41.5v-46.4c0-9.7,4.2-14.1,14.1-14.1h44.3c9.7,0,14.1,4.2,14.1,14.1v96.2c0,9.7-4.2,14.1-14.1,14.1
	H916.6C906.9,233.2,902.7,228.9,902.7,219.2z M910,538.7c-9.7,0-14.1-4.2-14.1-14.1l1.2-197.9c0-9.7,4.2-14.1,14.1-14.1h40
	c9.2,0,18,2.8,22.6,10.7v0.3l20.8,51.9h3.4l22.9-52.2h0.3c4.9-8,10.4-10.7,19.6-10.7h42.8c10.1,0,14.1,4.2,14.1,14.1l1.2,197.9
	c0,9.7-3.9,14.1-14.1,14.1h-46.1c-9.7,0-14.1-4.2-14.1-14.1l-1.2-84.6l-5.8,17.1v0.3c-4.6,8.3-9.7,11.3-19,11.3h-8.3
	c-9.2,0-14.3-3.1-19-11.3v-0.3l-6.1-17.4l-1,84.9c0,9.7-4.2,14.1-14.1,14.1H910L910,538.7z M916.3,844.2c-9.7,0-14.1-4.2-14.1-14.1
	v-198c0-9.7,4.2-14.1,14.1-14.1h31.8c8.9,0,14.3,2.4,20.5,9.5l49.5,61.1v-56.5c0-9.7,4.2-14.1,14.1-14.1h45.8
	c9.7,0,14.1,4.2,14.1,14.1V830c0,9.7-4.2,14.1-14.1,14.1h-45.8c-9.7,0-14.1-4.2-14.1-14.1v-36.7l-41.8-55V830
	c0,9.7-4.2,14.1-14.1,14.1L916.3,844.2L916.3,844.2z M1092.9,1088.8c0,38.5-17.4,65.4-95.9,65.4s-95.9-26.9-95.9-65.4V984.6
	c0-38.5,17.4-65.7,95.9-65.7s95.9,27.2,95.9,65.7V1088.8z M976.5,1077.8c0,7,4.6,11.3,20.5,11.3c16.2,0,20.8-3.9,20.8-11.3v-82.2
	c0-7-4.9-11-20.8-11c-15.9,0-20.5,3.9-20.5,11V1077.8z M902.3,1441v-197.9c0-9.7,4.2-14.1,14.1-14.1h101.4
	c58.4,0,75.1,25.6,75.1,62.6v39.1c0,37-16.8,62.6-75.1,62.6h-40v47.7c0,9.7-4.2,14.1-14.1,14.1h-47.4
	C906.6,1455.1,902.3,1450.8,902.3,1441z M977.1,1292.3v40h32.4c9.5,0,11.3-5.8,11.3-11.9v-16.2c0-6.1-1.8-11.9-11.3-11.9
	L977.1,1292.3L977.1,1292.3z M1408.2,246.6v-14.4c-46.4-7.6-58.1-31.5-58.1-62.6V68.3c0-38.5,17.4-65.7,95.9-65.7
	s95.9,27.2,95.9,65.7v101.4c0,31.5-11.6,55-58.7,62.6v14.4c0,9.7-4.2,14.1-14.1,14.1h-47.1C1412.4,260.7,1408.2,256.4,1408.2,246.6z
	 M1425.6,162.9c0,7,4.6,11.3,20.5,11.3c16.2,0,20.8-4,20.8-11.3V79.5c0-7-4.9-11-20.8-11c-15.9,0-20.5,4-20.5,11V162.9z
	 M1365.4,538.7c-9.7,0-14.1-4.2-14.1-14.1v-198c0-9.7,4.2-14.1,14.1-14.1h98.3c48.6,0,63.3,22.3,63.3,54v14.1
	c0,15.3-3.4,26.9-12.2,33.6c16.5,5.5,29,21.7,29,45.5v64.8c0,9.7-4.3,14.1-14.1,14.1h-47.4c-9.7,0-14.1-4.2-14.1-14.1v-46.7
	c0-6.7-2.1-10.1-8.6-10.1h-33.3v56.8c0,9.7-4.3,14.1-14.1,14.1L1365.4,538.7L1365.4,538.7z M1426.5,373.7v33h16.5
	c8.6,0,10.4-4.9,10.4-11.3v-10.4c0-6.4-1.8-11.3-10.4-11.3L1426.5,373.7L1426.5,373.7z M1474.7,844.2h-109.4
	c-9.7,0-14.1-4.2-14.1-14.1v-35.7c0-9.7,4.2-14.1,14.1-14.1h95c3.4,0,4.9-2.8,4.9-5.8c0-4.6-1.5-7-5.2-7.3l-58.7-6.4
	c-30.5-4.6-50.1-17.7-50.1-53.7V675c0-36.7,24.5-56.8,66.3-56.8h101.4c9.7,0,14.1,4.2,14.1,14.1v36.3c0,9.7-4.2,14.1-14.1,14.1
	h-87.1c-3.4,0-5.2,2.8-5.2,6.1c0,3.7,1.8,6.4,5.5,6.7l58.4,6.1c30.5,4.6,50.4,17.7,50.4,53.7v32.1
	C1541.1,824,1516.3,844.2,1474.7,844.2z M1406.3,1135.6V988.7h-40.9c-9.7,0-14.1-4.2-14.1-14.1v-37c0-9.7,4.2-14.1,14.1-14.1h161.2
	c9.7,0,14.1,4.2,14.1,14.1v37c0,9.7-4.2,14.1-14.1,14.1h-40.9v146.9c0,9.7-4.2,14.1-14.1,14.1h-51.3
	C1410.6,1149.6,1406.3,1145.3,1406.3,1135.6z M1540.7,1394.3c0,38.5-17.7,65.4-94.7,65.4c-76.9,0-94.7-26.9-94.7-65.4v-151.2
	c0-9.7,4.2-14.1,14.1-14.1h48c9.7,0,14.1,4.2,14.1,14.1v139.3c0,7,4.6,11.3,19.3,11.3c14.9,0,19.6-4.2,19.6-11.3v-139.3
	c0-9.7,3.9-14.1,14.1-14.1h46.4c9.7,0,14.1,4.2,14.1,14.1L1540.7,1394.3L1540.7,1394.3z M1935.2,233.2h-77.3
	c-10.7,0-16.2-3.1-19.6-12.2l-26.9-74.5c-7.6-19-10.1-24.8-10.1-44.6V21.2c0-9.7,4.3-14.1,14.1-14.1h46.1c9.7,0,14.9,4.6,14.9,14.1
	v84.3c0,4,0.6,7.3,2.4,11.6l12.8,42.5c0.9,2.1,1.2,3.4,3.1,3.4h4.6c1.8,0,2.1-1.2,3.1-3.4l-0.3,0.3l13.5-43v-0.3
	c1.5-4,2.1-7.3,2.1-11.3V21.2c0-9.7,4.2-14.1,14.1-14.1h45.5c10.1,0,14.1,4.2,14.1,14.1v80.6c0,19.8,0.6,25.6-7,44.6l-29.9,74.8
	C1951.1,230.2,1945.9,233.2,1935.2,233.2z M1812.8,525.5l-11-42.2c-5.5-21.4-5.5-25.6-5.5-44.9l-1.2-111.8c0-9.7,4.2-14.1,14.1-14.1
	h45.2c9.7,0,14.1,4.2,14.1,14.1l1.2,87.1l6.4-19.5v-0.3c4.9-8,9.7-11,19-11h9.4c9.2,0,14.1,3.1,19,11v0.3l6.4,19.3l0.9-86.8
	c0-10.1,2.7-14.1,12.5-14.1h40.6c10.1,0,14.1,4.2,14.1,14.1l-1.2,112.4c0,19,0,23.5-5.5,44.9l-11,41.2c-2.4,9.2-7.3,13.5-16.5,13.5
	h-30.5c-11.6,0-15.9-3.7-18.3-11.3l-15.6-51.6h-2.4l-15.6,51.6c-2.4,7.3-6.7,11.3-18.3,11.3h-33
	C1820.7,538.7,1815.2,534.1,1812.8,525.5z M1815.8,844.2c-9.7,0-14.1-4.2-14.1-14.1v-32.7c0-19.8,3.9-25.6,12.2-39.4l19-31.5
	l-19-31.5c-8.3-13.8-12.2-19.5-12.2-39.4v-23.5c0-9.7,4.2-14.1,14.1-14.1h47c9.7,0,14.1,4.2,14.1,14.1v21.1c0,3.7,0.3,7.6,2.4,11.3
	l11,19.3c1.2,2.1,2.4,3.7,4.6,3.7h3.7c2.1,0,3.4-1.2,4.6-3.7l11-19.3c2.1-3.7,2.4-7.6,2.4-11.3v-21.1c0-9.7,4.3-14.1,14.1-14.1h46.4
	c9.7,0,14.1,4.2,14.1,14.1v23.5c0,19.8-3.9,25.6-12.2,39.4l-19,31.8l19,31.2c8.6,13.8,12.2,19.5,12.2,39.4v32.7
	c0,9.7-4.2,14.1-14.1,14.1h-46.4c-9.7,0-14.1-4.2-14.1-14.1v-30.2c0-3.7-0.3-7.3-2.4-11.3l-10.7-19.3c-1.2-2.4-2.4-3.7-4.6-3.7h-4.2
	c-2.1,0-3.4,1.2-4.6,3.7l-11.3,19.3c-2.1,3.7-2.4,7.6-2.4,11.3v30.2c0,9.7-4.2,14.1-14.1,14.1L1815.8,844.2L1815.8,844.2z
	 M1857.6,1135.6v-38.5l-44-61.4c-9.7-13.1-12.2-22.6-12.2-39.4v-58.7c0-9.7,4.3-14.1,14.1-14.1h47c9.7,0,14.1,4.2,14.1,14.1v50.1
	c0,3.7,0,7.3,2.4,11.3l11.9,22c1.2,2.4,2.4,3.7,4.6,3.7h3.1c2.1,0,3.4-1.2,4.6-3.7l12.5-22c2.1-3.9,2.1-7.6,2.1-11.3v-50.1
	c0-9.7,4.2-14.1,14.1-14.1h45.5c9.7,0,14.1,4.2,14.1,14.1v58.7c0,16.8-2.4,26.3-12.2,39.4l-44,61.7v38.2c0,9.7-4.2,14.1-14.1,14.1
	h-49.5C1861.6,1149.6,1857.6,1145.3,1857.6,1135.6z M1801.7,1441v-40.9c0-8.9,2.4-14.6,8.6-21.1l82.2-84.9h-74.2
	c-9.7,0-14.1-4.2-14.1-14.1v-37c0-9.7,4.3-14.1,14.1-14.1h156.4c9.7,0,14.1,4.2,14.1,14.1v45.5c0,9.2-2.4,14.9-8.6,21.4l-78.5,80.6
	h75.4c9.7,0,14.1,4.2,14.1,14.1v36.3c0,9.7-4.2,14.1-14.1,14.1h-161.3C1806,1455.1,1801.7,1450.8,1801.7,1441z"/>
<path class="st1" d="M61.8,225H16.9c-8,0-11-3.4-11-11v-80.7c0-21.1,3.1-25.6,11.9-48.8l23.5-69.3C44.1,7.6,49,5.1,56.9,5.1H136
	c8,0,12.5,2.4,15.3,10.1l26.6,69.3c8.9,23.2,11.9,27.8,11.9,48.8V214c0,7.6-3.4,11-11,11h-46.1c-7.6,0-11.9-3.4-11.9-11v-42.8H72.9
	V214C72.9,221.7,69.5,225,61.8,225z M75.9,115.6h41.8l-14.3-46.4c-1.8-4-2.4-5.2-5.8-5.2h-1.5c-3.4,0-3.9,1.2-5.8,5.2L75.9,115.6z
	 M17.5,530.2c-7.6,0-11-3.4-11-11v-198c0-7.6,3.4-11,11-11h94.7c41.5,0,58.7,19.8,58.7,46.7v14.6c0,15.6-4.6,27.2-18,33
	c22,2.1,38.5,18.6,38.5,47.4v28.1c0,30.8-20.1,50.1-59.2,50.1L17.5,530.2L17.5,530.2z M75.3,395.2h23.2c9.7,0,11.6-5.8,11.6-12.2
	v-8.6c0-6.4-1.8-12.2-11.6-12.2H75.3C75.3,362.2,75.3,395.2,75.3,395.2z M75.3,478.3h37c9.7,0,11.6-5.8,11.6-12.2v-11.9
	c0-6.4-1.8-11.9-11.6-11.9h-37C75.3,442.2,75.3,478.3,75.3,478.3z M80.2,836c-57.8,0-75.1-25.3-75.1-62.3v-95
	c0-37.3,17.4-62.6,75.1-62.6h95.6c7.6,0,11,3.4,11,11v37c0,7.6-3.4,11-11,11H93.3c-15.9,0-18.6,7.3-18.6,15.3V763
	c0,8.6,2.8,14.6,18.6,14.6h82.4c7.6,0,11,3.4,11,11V825c0,7.6-3.4,11-11,11H80.2z M17.2,1141.5c-7.6,0-11-3.4-11-11v-198
	c0-7.6,3.4-11,11-11h98.6c57.7,0,75.1,25.3,75.1,62.3v95.3c0,37-17.4,62.3-75.1,62.3L17.2,1141.5L17.2,1141.5z M75.6,1083.7h32.1
	c12.2,0,14.4-6.7,14.4-14.9v-74.2c0-8-2.1-14.6-14.4-14.6H75.6V1083.7z M17.5,1446.9c-7.6,0-11-3.4-11-11V1238c0-7.6,3.4-11,11-11
	h158.2c7.6,0,11,3.4,11,11v35.7c0,7.6-3.4,11-11,11H75v23.5h76c7.6,0,11,3.1,11,11v32.7c0,7.6-3.4,11-11,11H75v26.3h100.8
	c7.6,0,11,3.4,11,11v35.7c0,7.6-3.4,11-11,11L17.5,1446.9L17.5,1446.9z M468.1,230.2c-7.6,0-11-3.7-11-11.3v-198c0-7.6,3.4-11,11-11
	h158.2c7.6,0,11,3.4,11,11v36.3c0,7.6-3.4,11-11,11h-99.9V100h75.1c7.6,0,11,3.4,11,11v36.7c0,7.6-3.4,11-11,11h-75.1v60.2
	c0,7.6-3.4,11.3-11,11.3L468.1,230.2L468.1,230.2L468.1,230.2z M530.4,535.6c-57.8,0-75.1-25.3-75.1-62.3V378
	c0-37,17.4-62.3,75.1-62.3h78.8c7.6,0,11,3.4,11,11v37c0,7.6-3.4,11-11,11h-66c-15.9,0-18.6,7.3-18.6,15.3v73
	c0,8.3,1.8,14.9,14.1,14.9h32.1v-47.7c0-7.6,3.4-11,11-11h47.4c7.6,0,11,3.4,11,11v94.5c0,7.6-3.4,11-11,11L530.4,535.6L530.4,535.6
	z M467.8,841.1c-7.6,0-11-3.4-11-11v-198c0-7.6,3.4-11,11-11h47.4c7.6,0,11,3.4,11,11v66.3h44.6v-66.3c0-7.6,3.4-11,11-11h47.4
	c7.6,0,11,3.4,11,11v197.9c0,7.6-3.4,11-11,11h-47.4c-7.6,0-11-3.4-11-11v-67.8h-44.6v67.8c0,7.6-3.4,11-11,11L467.8,841.1
	L467.8,841.1L467.8,841.1z M456.8,1098.6c0-7.6,3.4-11,11-11h80.6c14.6,0,22.3-5.8,22.3-20.5V937.6c0-7.6,3.4-11,11-11H629
	c7.6,0,11,3.4,11,11v144.8c0,40.3-24.8,64.1-65.1,64.1H467.8c-7.6,0-11-3.4-11-11V1098.6z M467.8,1045.8c-7.6,0-11-3.4-11-11v-97.2
	c0-7.6,3.4-11,11-11h47.4c7.6,0,11,3.4,11,11v97.2c0,7.6-3.4,11-11,11H467.8z M468.1,1452.1c-7.6,0-11-3.4-11-11v-197.9
	c0-7.6,3.4-11,11-11h47.4c7.6,0,11,3.4,11,11v70.2h7l31.5-71.2c3.1-7.3,7.3-10.1,15.3-10.1h47c7,0,9.5,3.7,6.7,10.1l-31.2,71.2
	c22.9,1.2,37.6,17.1,37.6,41.5v86.1c0,7.6-3.4,11-11,11h-47c-7.6,0-11-3.4-11-11v-59.5c0-6.7-3.4-10.4-9.7-10.4h-35.2v69.9
	c0,7.6-3.4,11-11,11L468.1,1452.1L468.1,1452.1L468.1,1452.1z M916.6,230.2c-7.6,0-11-3.4-11-11v-198c0-7.6,3.4-11,11-11H964
	c7.6,0,11,3.4,11,11v151.3h47.7V123c0-7.6,3.4-11,11-11h44.3c7.6,0,11,3.4,11,11v96.2c0,7.6-3.4,11-11,11L916.6,230.2L916.6,230.2z
	 M910,535.6c-7.6,0-11-3.4-11-11l1.2-197.9c0-7.6,3.4-11,11-11h40c8,0,15.9,2.1,19.8,9.2l21.4,53.7h7.3l23.8-53.7
	c4.2-6.7,9.2-9.2,17.1-9.2h42.8c8,0,11,3.4,11,11l1.2,197.9c0,7.6-3.1,11-11,11h-46.1c-7.6,0-11-3.4-11-11l-1.2-89.5v-12.8
	l-11.6,33.6c-4,7-8.3,9.7-16.2,9.7h-8.3c-7.9,0-12.2-2.8-16.2-9.7l-11.9-33.6v12.8l-0.8,89.5c0,7.6-3.4,11-11,11H910z M916.3,841.1
	c-7.6,0-11-3.4-11-11v-198c0-7.6,3.4-11,11-11h31.8c7.9,0,12.8,2.1,18,8.3l55,67.8v-65.1c0-7.6,3.4-11,11-11h45.8
	c7.6,0,11,3.4,11,11v197.9c0,7.6-3.4,11-11,11h-45.8c-7.6,0-11-3.4-11-11v-37.6l-48-63.3V830c0,7.6-3.4,11-11,11L916.3,841.1
	L916.3,841.1z M997,1151.1c-74.8,0-92.8-25-92.8-62.3V984.6c0-37.3,18-62.6,92.8-62.6s92.8,25.3,92.8,62.6v104.2
	C1089.9,1126.1,1071.9,1151.1,997,1151.1z M997,1092.2c20.5,0,23.8-6.1,23.8-14.3v-82.2c0-8-3.4-14.1-23.8-14.1
	c-20.1,0-23.5,6.1-23.5,14.1v82.2C973.5,1086.1,976.8,1092.2,997,1092.2z M916.3,1452.1c-7.6,0-11-3.4-11-11v-197.9
	c0-7.6,3.4-11,11-11h101.4c55.6,0,72.1,24.2,72.1,59.5v39.1c0,35.4-16.5,59.6-72.1,59.6h-43v50.7c0,7.6-3.4,11-11,11H916.3
	L916.3,1452.1z M974.1,1335.3h35.4c11.9,0,14.3-7,14.3-14.9v-16.2c0-7.9-2.4-14.9-14.3-14.9h-35.4V1335.3z M1422.2,257.6
	c-7.6,0-11-3.4-11-11v-17.1c-45.8-7-58.1-29.3-58.1-59.9V68.3c0-37.3,18-62.6,92.8-62.6s92.8,25.3,92.8,62.6v101.4
	c0,30.8-12.2,53.2-58.7,60.2v16.8c0,7.6-3.4,11-11,11L1422.2,257.6L1422.2,257.6z M1446,177.3c20.5,0,23.8-6.1,23.8-14.4V79.5
	c0-8-3.4-14.1-23.8-14.1c-20.1,0-23.5,6.1-23.5,14.1v83.4C1422.5,171.2,1425.9,177.3,1446,177.3z M1365.4,535.6c-7.6,0-11-3.4-11-11
	v-198c0-7.6,3.4-11,11-11h98.3c45.8,0,60.2,20.8,60.2,51v14.1c0,17.1-4.2,29.3-17.1,34.8c18.6,2.4,33.9,18.6,33.9,44.3v64.7
	c0,7.6-3.4,11-11,11h-47.4c-7.6,0-11-3.4-11-11v-46.7c0-9.2-3.1-13.1-11.6-13.1h-36.3v59.8c0,7.6-3.4,11-11,11L1365.4,535.6
	L1365.4,535.6z M1423.4,409.8h19.6c10.7,0,13.5-6.1,13.5-14.3V385c0-8.3-2.8-14.3-13.5-14.3h-19.6V409.8z M1365.4,841.1
	c-7.6,0-11-3.4-11-11v-35.7c0-7.6,3.4-11,11-11h95c5.2,0,7.9-3.9,7.9-8.9c0-7-2.7-9.7-7.9-10.4l-58.7-6.4
	c-28.7-4.2-47.4-16.5-47.4-50.7v-32.1c0-34.8,23.5-53.7,63.3-53.7H1519c7.6,0,11,3.4,11,11v36.3c0,7.6-3.4,11-11,11H1432
	c-5.2,0-8.3,3.7-8.3,9.2c0,5.5,3.1,9.2,8.3,9.7l58.4,6.1c28.7,4.2,47.7,16.5,47.7,50.7v32.1c0,34.8-23.8,53.7-63.3,53.7h-109.3
	L1365.4,841.1L1365.4,841.1z M1420.4,1146.6c-7.6,0-11-3.4-11-11v-150h-44c-7.6,0-11-3.4-11-11v-37.1c0-7.6,3.4-11,11-11h161.2
	c7.6,0,11,3.4,11,11v37c0,7.6-3.4,11-11,11h-43.9v150c0,7.6-3.4,11-11,11L1420.4,1146.6L1420.4,1146.6z M1446,1456.6
	c-73.3,0-91.7-25-91.7-62.3v-151.2c0-7.6,3.4-11,11-11h48c7.6,0,11,3.4,11,11v139.3c0,8.3,3.7,14.3,22.3,14.3
	c19,0,22.6-6.1,22.6-14.3v-139.3c0-7.6,3.1-11,11-11h46.4c7.6,0,11,3.4,11,11v151.2C1537.7,1431.6,1519.3,1456.6,1446,1456.6z
	 M1857.9,230.2c-9.2,0-13.8-2.4-16.8-10.1l-26.9-74.8c-7.3-18.3-9.7-24.2-9.7-43.4V21.2c0-7.6,3.4-11,11-11h46.1
	c7.6,0,11.9,3.4,11.9,11v84.3c0,4.2,0.6,8,2.4,12.5l13.1,42.8c1.5,4,2.4,5.2,5.8,5.2h4.6c3.4,0,4.2-1.2,5.8-5.2l13.1-43
	c1.8-4.6,2.4-8.3,2.4-12.5v-84c0-7.6,3.4-11,11-11h45.5c8,0,11,3.4,11,11v80.6c0,19.3,0.6,25-6.7,43.4l-29.9,74.9
	c-3.1,7.6-7.3,10.1-16.5,10.1L1857.9,230.2L1857.9,230.2z M1983.8,315.7c7.9,0,11,3.4,11,11l-1.2,112.4c0,18.6,0,23.2-5.5,44
	l-11,41.5c-1.8,7.3-5.8,11-13.5,11h-30.5c-9.4,0-13.5-2.8-15.3-9.2l-16.2-53.7h-7.3l-16.2,53.7c-1.8,6.1-5.8,9.2-15.3,9.2h-33
	c-7.6,0-12.2-3.7-14.1-11l-11-42.2c-5.5-20.8-5.5-25-5.5-44l-1.2-111.8c0-7.6,3.4-11,11-11h45.2c7.6,0,11,3.4,11,11l1.2,95.3v9.5
	l12.2-36c3.9-6.7,8.3-9.5,16.2-9.5h9.4c7.9,0,12.2,2.8,16.2,9.5l12.2,36v-9.5l0.9-95.3c0-7.6,1.8-11,9.4-11L1983.8,315.7
	L1983.8,315.7L1983.8,315.7z M1862.2,841.1h-46.4c-7.6,0-11-3.4-11-11v-32.7c0-19,3.7-24.5,11.6-37.6l20.1-33.3l-20.1-33.3
	c-7.9-13.1-11.6-18.6-11.6-37.6v-23.5c0-7.6,3.4-11,11-11h47c7.6,0,11,3.4,11,11v21.1c0,4.2,0.3,8.9,2.8,12.8l11,19.3
	c1.8,3.4,3.9,5.2,7.3,5.2h3.7c3.4,0,5.2-1.5,7.3-5.2l11-19.3c2.4-4.2,2.8-8.6,2.8-12.8v-21.1c0-7.6,3.4-11,11-11h46.4
	c7.6,0,11,3.4,11,11v23.5c0,19-3.7,24.5-11.6,37.6l-20.1,33.6l20.1,33c8,13.1,11.6,18.6,11.6,37.6v32.7c0,7.6-3.4,11-11,11h-46.4
	c-7.6,0-11-3.4-11-11v-30.2c0-4.2-0.3-8.3-2.8-12.8l-10.7-19.3c-2.1-4-3.9-5.2-7.3-5.2h-4.2c-3.4,0-5.2,1.5-7.3,5.2l-11.3,19.3
	c-2.4,4.2-2.8,8.6-2.8,12.8v30.2C1873.2,837.7,1869.9,841.1,1862.2,841.1z M1871.7,1146.6c-7.9,0-11-3.4-11-11v-39.4l-44.6-62.3
	c-9.4-12.5-11.6-21.7-11.6-37.6v-58.7c0-7.6,3.4-11,11-11h47c7.6,0,11,3.4,11,11v50.1c0,4.3,0,8.6,2.8,12.8l11.9,22
	c2.1,3.7,3.9,5.2,7.3,5.2h3.1c3.4,0,5.2-1.5,7.3-5.2l12.2-22c2.8-4.2,2.8-8.6,2.8-12.8v-50.1c0-7.6,3.4-11,11-11h45.5
	c7.6,0,11,3.4,11,11v58.7c0,15.9-2.4,25-11.6,37.6l-44.6,62.6v39.1c0,7.6-3.4,11-11,11L1871.7,1146.6L1871.7,1146.6L1871.7,1146.6z
	 M1815.8,1452.1c-7.6,0-11-3.4-11-11v-40.9c0-8,2.1-13.1,7.6-19l87.1-90.1h-81.3c-7.6,0-11-3.4-11-11v-37c0-7.6,3.4-11,11-11h156.4
	c7.6,0,11,3.4,11,11v45.5c0,8.3-2.1,13.5-7.6,19.3l-83.7,85.8h82.8c7.6,0,11,3.4,11,11v36.3c0,7.6-3.4,11-11,11L1815.8,1452.1
	L1815.8,1452.1z"/>
<path class="st2" d="M153.8,145H41.1v52.6H38v-65.1c0-11.3,1.8-20.8,5.2-29.6l19.5-50.1C67.3,41.5,71,32.6,85,32.6h23.5
	c13.5,0,17.1,8.6,22,20.5l21.1,49.8c3.4,8.9,5.2,18.3,5.2,29.6v65.1h-3.1L153.8,145L153.8,145z M41.1,141.9h112.7v-9.5
	c0-11-1.8-20.1-4.9-28.4l-21.1-49.8c-4.6-10.7-8-18.6-19.3-18.6H85c-12.2,0-15.6,8-19.6,18.3l-19.6,50.1c-3.1,8.3-4.9,17.4-4.9,28.4
	C41.1,132.5,41.1,141.9,41.1,141.9z M39.6,503V338.1h59.2c33.9,0,40.1,14.6,40.1,32.4V390c0,12.2-2.1,23.2-19.6,27.8
	c33.9,0,39.7,14.9,39.7,35.2v19.5c0,18-5.8,30.5-40,30.5L39.6,503L39.6,503L39.6,503z M42.6,341.1v76.7h56.2c33.6,0,37-13.1,37-27.8
	v-19.5c0-16.5-6.1-29.3-37-29.3H42.6L42.6,341.1z M42.6,420.8v79.1H119c30.5,0,37-10.7,37-27.5v-19.5c0-18.3-5.8-32.1-36.7-32.1
	H42.6L42.6,420.8z M159.3,808.4H87.2c-39.7,0-48.8-11-48.8-39.4v-85.5c0-29,9.7-40,48.8-40h72.1v3.1H87.2c-36,0-45.8,9.7-45.8,37
	v85.5c0,26.6,9.2,36.4,45.8,36.4h72.1V808.4L159.3,808.4z M39.6,949h69.6c41.5,0,48.8,19,48.8,42.5v81c0,23.5-6.7,41.5-48.8,41.5
	H39.6C39.6,1114,39.6,949,39.6,949z M42.6,952v158.8h66.6c39.1,0,45.8-16.2,45.8-38.5v-81c0-22.3-7.3-39.4-45.8-39.4L42.6,952
	L42.6,952z M159.3,1419.4h-120v-165h120v3.1h-117v76.7h92.3v3.1H42.3v79.1h117V1419.4z M490.3,37.7h119.4v3.1H493.4v87.4H585v3.1
	h-91.6v71.5h-3.1L490.3,37.7L490.3,37.7z M488.5,468.7v-85.5c0-29,9.7-40,48.8-40h55.3v3.1h-55.3c-36,0-45.8,9.7-45.8,37v85.5
	c0,26.6,10.7,36.3,51.9,36.3h60.5v-58.4h3.1v61.4h-63.5C498.6,508.1,488.5,497.1,488.5,468.7z M490.1,648.7h3.1v81h110.6v-81h3.1
	v165h-3.1v-81H493.1v81h-3.1V648.7L490.1,648.7z M484.6,1119.1v-3.1h79.7c32.7,0,39.4-16.2,39.4-47.7V954.1h3.1v114.2
	c0,32.7-6.7,50.7-42.5,50.7L484.6,1119.1L484.6,1119.1z M490.1,1018.3v-64.1h3.1v64.1H490.1z M490.3,1424.5v-165h3.1v81.3h61.1
	l35.2-81.3h3.4l-35.2,81.3h12.5c25,0,37,8.6,37,29.9v53.7h-3.1v-53.7c0-19.6-11.3-26.9-33.9-26.9h-77v80.6H490.3L490.3,1424.5z
	 M939,37.7h3.1v161.9h112.1v-60.2h3.1v63.3H939V37.7z M1008.3,411.3l28.4-62.9c2.1-4.6,6.4-5.2,10.1-5.2h6.4c6.1,0,8.9,2.8,8.9,9.5
	l0.6,155.5h-3.1l-0.6-155.5c0-3.4-0.9-6.4-5.8-6.4h-5.8c-3.1,0-6.4,0-8.3,4.2l-28.4,62.3c-5.2,11.6-7.6,14.3-14.9,14.3
	c-7.3,0-9.7-2.8-14.9-14.3l-28.4-62.3c-1.8-4.2-5.2-4.2-8.3-4.2h-4.6c-5.8,0-7,3.1-7,6.4L932,508.1h-3.1l0.6-155.5
	c0-6.7,3.1-9.5,10.1-9.5h5.2c3.7,0,8.3,1,10.1,5.2l28.4,62.9c4.9,11,6.7,12.8,12.5,12.8C1001.6,424.1,1003.1,422.9,1008.3,411.3z
	 M946,651.1l107.6,126.4V648.7h3.1v165h-3.1v-31.5L943,652.6c-0.6-0.6-1-1-1.5-1s-0.6,0.6-0.6,1v160.9h-3.1V652
	c0-2.4,1.8-3.7,3.7-3.7C943.2,648.3,943.9,649,946,651.1z M996.7,1123.1c-46.4,0-59.2-16.5-59.2-41.2v-90.1
	c0-24.8,12.8-41.2,59.2-41.2c46.4,0,60.2,16.5,60.2,41.2v90.1C1056.9,1106.5,1043.1,1123.1,996.7,1123.1z M996.7,1120
	c44,0,57.1-15.3,57.1-38.2v-90.1c0-22.9-13.1-38.2-57.1-38.2s-56.2,15.2-56.2,38.2v90.1C940.5,1104.7,952.7,1120,996.7,1120z
	 M941.8,1364.3v60.2h-3.1v-165h74c38.5,0,45.8,17.7,45.8,41.5v22.6c0,23.8-7.3,40.6-45.8,40.6L941.8,1364.3L941.8,1364.3z
	 M1012.6,1361.3c36,0,42.8-15.6,42.8-37.6v-22.6c0-22-6.7-38.5-42.8-38.5h-70.9v98.6L1012.6,1361.3L1012.6,1361.3z M1444.2,206.7
	c-45.2-0.3-57.8-16.8-57.8-41.2V75.3c0-24.8,12.8-41.2,59.2-41.2c46.4,0,60.2,16.5,60.2,41.2v90.1c0,24.5-13.5,40.9-58.7,41.2v23.5
	h-3.1L1444.2,206.7L1444.2,206.7z M1445.7,203.6c44,0,57.1-15.3,57.1-38.1V75.3c0-22.9-13.1-38.1-57.1-38.1
	c-44,0-56.2,15.3-56.2,38.1v90.1C1389.5,188.3,1401.7,203.6,1445.7,203.6z M1387.4,508.1V343.2h69.6c23.8,0,34.8,14.6,34.8,34.8
	v21.1c0,18.6-3.7,30.8-18.3,35.4h3.4c25,0,30.5,11.3,30.5,32.7v40.9h-3.1v-40.9c0-20.1-4.2-30-27.5-30h-86.5v70.9L1387.4,508.1
	L1387.4,508.1z M1390.4,346.2v88.3h66.6c25.3,0,31.8-12.5,31.8-35.2V378c0-19-10.1-31.8-31.8-31.8L1390.4,346.2L1390.4,346.2z
	 M1502.5,651.7h-83.7c-17.4,0-28.1,9.5-28.1,24.8v28.1c0,12.2,8.3,20.5,21.7,21.7l65.1,6.4c18.3,1.8,27.2,11.3,27.2,27.8v25.3
	c0,17.1-13.1,27.8-33.9,27.8h-88.9v-3.1h88.9c19,0,30.8-9.4,30.8-24.8v-25.4c0-14.6-7.9-23.2-24.8-24.8l-65.1-6.4
	c-14.9-1.5-24.2-11-24.2-24.8v-28.1c0-17.1,11.9-27.8,31.2-27.8h83.7L1502.5,651.7L1502.5,651.7z M1444.5,957.2h-62.6v-3.1h128.3
	v3.1h-62.6v161.9h-3.1L1444.5,957.2L1444.5,957.2z M1391,1259.6V1387c0,22.9,11.6,38.2,54,38.2c44.3,0,56.8-15.3,56.8-38.2v-127.4
	h3.1V1387c0,24.8-13.1,41.2-59.9,41.2c-44.9,0-57.1-16.5-57.1-41.2v-127.4H1391z M1836.5,37.7h3.1v65.1c0,11,1.8,20.1,4.9,28.4
	l21.1,49.8c4.6,10.7,8,18.6,19.3,18.6h23.5c12.2,0,15.6-8,19.6-18.3l19.6-50.1c3.1-8.3,4.9-17.4,4.9-28.4V37.7h3.1v65.1
	c0,11.3-1.8,20.8-5.2,29.6l-19.6,50.1c-4.6,11.3-8.3,20.1-22.3,20.1h-23.5c-13.5,0-17.1-8.6-22-20.5l-21.1-49.8
	c-3.4-8.9-5.2-18.3-5.2-29.6L1836.5,37.7L1836.5,37.7z M1917.2,444.6l19,56.2c1.5,4.2,5.2,4.2,8.3,4.2h1.5c3.4,0,6.4-3.1,7-6.4
	l7.6-34.8c1.5-7.6,1.5-21.7,1.5-30.8v-89.8h3.1v90.1c0,9.2,0.3,23.2-1.5,30.8l-7.6,34.5c-1.5,6.7-5.2,9.5-10.1,9.5h-2.1
	c-3.7,0-8.6-1-10.1-5.2l-19-56.8c-3.9-11.6-7.6-12.8-12.5-12.8h-7.6c-4.9,0-8.6,1.2-12.5,12.8l-19.8,56.8c-1.5,4.2-6.4,5.2-10.1,5.2
	h-2.1c-4.9,0-8.6-2.8-10.1-9.5l-7.6-34.5c-1.8-7.6-1.5-21.7-1.5-30.8v-90.1h3.1V433c0,9.2,0,23.2,1.5,30.8l7.6,34.8
	c0.6,3.4,3.7,6.4,7,6.4h1.5c3.1,0,6.7,0,8.3-4.2l19.8-56.2c4.3-11.9,8.6-14.3,14.9-14.3h7.6C1908.6,430.3,1913.2,432.7,1917.2,444.6
	z M1840.5,813.6h-3.1v-13.8c0-8.9,0-16.5,4.6-23.5l33.6-50.1l-33.6-49.5c-4.2-6.4-4.6-14.6-4.6-23.5v-4.6h3.1v4.6
	c0,8.6,0.3,16.2,4.3,22.3l33.6,49.5h36.3l33.6-49.5c3.9-5.8,4.2-13.8,4.2-22.3v-4.6h3.1v4.6c0,8.9,0,16.8-4.6,23.5l-34.2,50.1
	l34.2,49.5c4.2,6.4,4.6,14.6,4.6,23.5v13.8h-3.1v-13.8c0-8.6-0.3-16.2-4.2-22.3l-33.9-49.5h-36.7l-33,49.5
	c-3.7,5.5-4.3,13.8-4.3,22.3L1840.5,813.6L1840.5,813.6z M1894.9,1065.3h-3.9c-8.9,0-15.9-3.4-22.3-12.8l-26.6-39.7
	c-4.2-6.4-4.6-14.6-4.6-23.5v-35.2h3.1v35.2c0,8.6,0.3,16.2,4.3,22.3l26.6,39.7c5.5,8.3,12.5,11,19.6,11h10.4
	c7.6,0,14.3-2.8,19.8-11l27.5-39.7c3.9-5.8,4.2-13.8,4.2-22.3v-35.2h3.1v35.2c0,8.9-0.3,17.1-4.6,23.5l-27.5,39.7
	c-6.4,9.2-13.1,12.8-22.6,12.8h-3.4v53.7h-3.1L1894.9,1065.3L1894.9,1065.3z M1839.6,1400.7c-3.1,3.7-4.2,5.5-4.2,9.4v4.2
	c0,5.8,3.1,7,6.4,7h118.8v3.1h-118.8c-6.7,0-9.4-3.1-9.4-10.1v-4.9c0-4.6,2.1-7.6,5.2-11.3l113.3-114.9c3.4-3.4,4.3-5.5,4.3-9.4
	v-4.2c0-5.8-3.1-7-6.4-7h-113.9v-3.1h113.9c6.7,0,9.4,3.1,9.4,10.1v4.9c0,4.6-1.8,7.9-5.2,11.3L1839.6,1400.7z"/>
</svg>
