<?xml version="1.0" encoding="utf-8"?>
<!-- Generator: Adobe Illustrator 17.1.0, SVG Export Plug-In . SVG Version: 6.00 Build 0)  -->
<!DOCTYPE svg PUBLIC "-//W3C//DTD SVG 1.1//EN" "http://www.w3.org/Graphics/SVG/1.1/DTD/svg11.dtd">
<svg version="1.1" xmlns="http://www.w3.org/2000/svg" xmlns:xlink="http://www.w3.org/1999/xlink" x="0px" y="0px"
	 viewBox="0 0 500 375" enable-background="new 0 0 500 375" xml:space="preserve">
<g id="Layer_1">
</g>
<g id="Layer_2">
	<rect x="106.8" y="18.4" fill="none" stroke="#000000" stroke-width="0.75" stroke-miterlimit="10" width="75.8" height="83.4"/>
	<rect x="106.8" y="101.8" fill="none" stroke="#000000" stroke-width="0.75" stroke-miterlimit="10" width="75.8" height="80.5"/>
	<rect x="106.8" y="182.3" fill="none" stroke="#000000" stroke-width="0.75" stroke-miterlimit="10" width="75.8" height="81.9"/>
	<rect x="106.8" y="264.3" fill="none" stroke="#000000" stroke-width="0.75" stroke-miterlimit="10" width="75.8" height="98.1"/>
	<g>
		<path fill="#FFFFFF" d="M119.3,94.4c-2.4,0-3.5-1.1-3.5-3.5V28.5c0-2.4,1.1-3.5,3.5-3.5h29.9c13.1,0,18.5,6.3,18.5,14.8v4.6
			c0,4.9-1.4,8.6-5.7,10.4c6.9,0.7,12.1,5.9,12.1,14.9v8.9c0,9.7-6.4,15.8-18.7,15.8H119.3z M137.6,51.8h7.3c3.1,0,3.7-1.8,3.7-3.9
			v-2.7c0-2-0.6-3.9-3.7-3.9h-7.3V51.8z M137.6,78.1h11.7c3.1,0,3.7-1.8,3.7-3.9v-3.8c0-2-0.6-3.8-3.7-3.8h-11.7V78.1z"/>
		<path fill="#FFFFFF" d="M115.7,129.8v-18.5c0-2.4,1.1-3.5,3.5-3.5H134c2.4,0,3.5,1.1,3.5,3.5v15.8c0,1.4,0,2.7,0.9,4l3.8,6.9
			c0.7,1.2,1.3,1.6,2.3,1.6h1c1.1,0,1.6-0.5,2.3-1.6l3.9-6.9c0.9-1.4,0.9-2.7,0.9-4v-15.8c0-2.4,1.1-3.5,3.5-3.5h14.4
			c2.4,0,3.5,1.1,3.5,3.5v18.5c0,5-0.8,7.9-3.7,11.9L156,161.4v12.3c0,2.4-1.1,3.5-3.5,3.5h-15.6c-2.5,0-3.5-1.1-3.5-3.5v-12.4
			l-14.1-19.7C116.3,137.7,115.7,134.8,115.7,129.8z"/>
		<path fill="#FFFFFF" d="M119.2,258.9c-2.4,0-3.5-1.1-3.5-3.5V193c0-2.4,1.1-3.5,3.5-3.5h31c14.5,0,19,6.6,19,16.1v4.4
			c0,5.4-1.3,9.3-5.4,11c5.9,0.8,10.7,5.9,10.7,14v20.4c0,2.4-1.1,3.5-3.5,3.5h-14.9c-2.4,0-3.5-1.1-3.5-3.5v-14.8
			c0-2.9-1-4.1-3.7-4.1h-11.5v18.9c0,2.4-1.1,3.5-3.5,3.5H119.2z M137.6,219.2h6.2c3.4,0,4.2-1.9,4.2-4.5v-3.3
			c0-2.6-0.9-4.5-4.2-4.5h-6.2V219.2z"/>
		<path fill="#FFFFFF" d="M115.7,330.4c0-5.7,1-9.6,2.8-14.5l5.8-16.7c0.9-1.9,1.8-3.1,3.4-3.6c-2.9-2.4-3.9-5.8-3.9-9.7v-5.6
			c0-8.2,4.1-13.8,20.9-13.8c16.8,0,20.9,5.6,20.9,13.8v5.6c0,4-1,7.3-3.9,9.7c1.6,0.5,2.6,1.5,3.4,3.6l5.8,16.7
			c1.8,4.8,2.8,8.8,2.8,14.5v22.6c0,2.4-1,3.5-3.5,3.5h-14.8c-2.4,0-3.5-1.1-3.5-3.5v-11.6h-15.2v11.6c0,2.4-1.1,3.5-3.5,3.5h-14.1
			c-2.4,0-3.5-1.1-3.5-3.5V330.4z M137.6,323.8h13.5l-4-13.1c-0.5-1.3-0.8-1.6-1.8-1.6h-1.6c-1.1,0-1.3,0.4-1.8,1.6L137.6,323.8z
			 M150.5,283.2c0-2.5-0.9-3.9-5.7-3.9c-4.7,0-5.5,1.4-5.5,3.9v3.4c0,2.8,0.8,4.1,5.5,4.1c4.8,0,5.7-1.3,5.7-4.1V283.2z"/>
	</g>
	<g>
		<path fill="#EAD57D" d="M126.4,33.7h18.7c10.7,0,12.6,4.6,12.6,10.2v6.2c0,3.9-0.7,7.3-6.2,8.8c10.7,0,12.5,4.7,12.5,11.1v6.2
			c0,5.7-1.8,9.6-12.6,9.6h-25.1V33.7z M127.3,34.7v24.2h17.7c10.6,0,11.7-4.1,11.7-8.8v-6.2c0-5.2-1.9-9.3-11.7-9.3H127.3z
			 M127.3,59.8v25h24.1c9.6,0,11.7-3.4,11.7-8.7V70c0-5.8-1.8-10.1-11.6-10.1H127.3z"/>
		<path fill="#EAD57D" d="M127,116.5v11.1c0,2.7,0.1,5.1,1.4,7l8.4,12.5c1.7,2.6,4,3.5,6.2,3.5h3.3c2.4,0,4.5-0.9,6.3-3.5l8.7-12.5
			c1.3-1.8,1.3-4.3,1.3-7v-11.1h1v11.1c0,2.8-0.1,5.4-1.4,7.4l-8.7,12.5c-2,2.9-4.1,4-7.1,4h-1.1v17h-1v-17H143c-2.8,0-5-1.1-7-4
			l-8.4-12.5c-1.3-2-1.4-4.6-1.4-7.4v-11.1H127z"/>
		<path fill="#EAD57D" d="M148.2,198.2c7.5,0,11,4.6,11,11v6.7c0,5.9-1.2,9.7-5.8,11.2h1.1c7.9,0,9.6,3.6,9.6,10.3v12.9h-1v-12.9
			c0-6.4-1.3-9.4-8.7-9.4h-27.3v22.4h-1v-52.1H148.2z M127.1,199.1V227h21c8,0,10-4,10-11.1v-6.7c0-6-3.2-10-10-10H127.1z"/>
		<path fill="#EAD57D" d="M125.8,327.2c0-3.6,0.6-6.6,1.6-9.4l6.2-13.9c1.5-3.5,2.6-6.4,7-6.4h7.4c4.2,0,5.2,2.9,6.9,6.5l6.7,13.8
			c1.3,2.7,1.6,5.8,1.6,9.4v20.5h-1v-16.6h-35.6v16.6h-1V327.2z M126.8,330.2h35.6v-3c0-3.5-0.6-6.4-1.5-9l-6.7-13.8
			c-1.4-3.4-2.5-5.9-6.1-5.9h-7.4c-3.9,0-4.9,2.5-6.2,5.8l-6.2,13.9c-1,2.6-1.5,5.5-1.5,9V330.2z M131,282.2c0-5.8,2.1-9.7,13.6-9.7
			s13.8,4,13.8,9.7v3.8c0,5.8-2.3,9.6-13.8,9.6s-13.6-3.9-13.6-9.6V282.2z M132,282.2v3.8c0,5.4,2.3,8.7,12.6,8.7s12.8-3.3,12.8-8.7
			v-3.8c0-5.3-2.5-8.8-12.8-8.8S132,276.8,132,282.2z"/>
	</g>
	<g>
		<rect x="211" y="11.9" fill="none" stroke="#000000" stroke-width="0.75" stroke-miterlimit="10" width="75.8" height="82.1"/>
		<rect x="211" y="94" fill="none" stroke="#000000" stroke-width="0.75" stroke-miterlimit="10" width="75.8" height="88.3"/>
		<rect x="211" y="182.3" fill="none" stroke="#000000" stroke-width="0.75" stroke-miterlimit="10" width="75.8" height="81.9"/>
		<rect x="211" y="264.3" fill="none" stroke="#000000" stroke-width="0.75" stroke-miterlimit="10" width="75.8" height="98.1"/>
	</g>
	<g>
		<path fill="#FFFFFF" d="M219.9,37.1c0-11.7,4.9-19.7,28.8-19.7c24,0,29,8,29,19.7v47.7c0,2.4-1.1,3.6-3.5,3.6h-14.7
			c-2.4,0-3.5-1.2-3.5-3.6V70.4H241v14.4c0,2.4-1.1,3.6-3.5,3.6h-14.2c-2.4,0-3.5-1.2-3.5-3.6V37.1z M241,52.8h15.1V40.3
			c0-2.6-0.8-4.5-7.5-4.5c-6.8,0-7.6,1.9-7.6,4.5V52.8z"/>
		<path fill="#FFFFFF" d="M240.1,167.2c-15.8-0.9-20.6-8.6-20.6-19.6v-26.1c0-11.8,5.5-19.8,23.7-19.8h30.2c2.4,0,3.5,1.1,3.5,3.5
			v11.7c0,2.4-1.1,3.5-3.5,3.5h-26c-5,0-5.9,2.3-5.9,4.8v19.1c0,2.7,0.9,4.6,5.9,4.6h26c2.4,0,3.5,1.1,3.5,3.5v11.5
			c0,2.4-1.1,3.5-3.5,3.5h-13.6l-3.3,9.3c-0.7,2-1.9,2.9-4.4,2.9h-12.1c-3.3,0-3.8-1.5-2.9-3.9L240.1,167.2z"/>
		<path fill="#FFFFFF" d="M219.9,207.2c0-11.7,4.9-19.7,28.8-19.7c24,0,29,8,29,19.7V255c0,2.4-1.1,3.6-3.5,3.6h-14.7
			c-2.4,0-3.5-1.2-3.5-3.6v-14.4H241V255c0,2.4-1.1,3.6-3.5,3.6h-14.2c-2.4,0-3.5-1.2-3.5-3.6V207.2z M241,222.9h15.1v-12.4
			c0-2.6-0.8-4.5-7.5-4.5c-6.8,0-7.6,1.9-7.6,4.5V222.9z"/>
		<path fill="#FFFFFF" d="M231.8,287.6c-2.2,0.3-3.3-1-3.3-3.2v-9.3c0-2.4,1.1-3.2,3.5-3.5l33.7-4.1c2.2-0.3,3.3,1,3.3,3.2v9.3
			c0,2.4-1.1,3.2-3.5,3.5L231.8,287.6z M241.1,356.4c-2.4,0-3.5-1.1-3.5-3.5v-58.6c0-2.4,1.1-3.5,3.5-3.5h15.3
			c2.4,0,3.5,1.1,3.5,3.5v58.6c0,2.4-1.1,3.5-3.5,3.5H241.1z"/>
	</g>
	<g>
		<path fill="#EAD57D" d="M230,39.5c0-7.8,3.6-13,18.7-13c14.9,0,18.7,5.2,18.7,13v40.2h-1V62.2H231v17.5h-1V39.5z M231,61.3h35.5
			V39.5c0-7.2-3.6-12.1-17.7-12.1c-14.4,0-17.7,4.8-17.7,12.1V61.3z"/>
		<path fill="#EAD57D" d="M230,123.1c0-9.2,3.1-12.6,15.4-12.6h22.8v1h-22.8c-11.4,0-14.5,3.1-14.5,11.7v23.1
			c0,8.4,2.9,11.5,14.5,11.5h22.8v1h-14.7l-4.4,12.1h-1l4.3-12.1h-7c-12.5,0-15.4-3.5-15.4-12.4V123.1z"/>
		<path fill="#EAD57D" d="M230,209.6c0-7.8,3.6-13,18.7-13c14.9,0,18.7,5.2,18.7,13v40.2h-1v-17.5H231v17.5h-1V209.6z M231,231.4
			h35.5v-21.8c0-7.2-3.6-12.1-17.7-12.1c-14.4,0-17.7,4.8-17.7,12.1V231.4z"/>
		<path fill="#EAD57D" d="M260.3,275.7v1l-23,2.9v-1L260.3,275.7z M249.3,299.5v48.2h-1v-48.2H249.3z"/>
	</g>
	<rect x="419.2" y="28.1" fill="none" stroke="#000000" stroke-width="0.75" stroke-miterlimit="10" width="75.8" height="83.4"/>
	<rect x="419.2" y="111.6" fill="none" stroke="#000000" stroke-width="0.75" stroke-miterlimit="10" width="75.8" height="83.9"/>
	<rect x="419.2" y="195.4" fill="none" stroke="#000000" stroke-width="0.75" stroke-miterlimit="10" width="75.8" height="82.2"/>
	<rect x="419.2" y="277.7" fill="none" stroke="#000000" stroke-width="0.75" stroke-miterlimit="10" width="75.8" height="84.7"/>
	<g>
		<path fill="#FFFFFF" d="M431.6,104c-2.4,0-3.5-1.1-3.5-3.5V38.1c0-2.4,1.1-3.5,3.5-3.5h10c2.5,0,4,0.7,5.7,2.6l17.4,21.4V38.1
			c0-2.4,1.1-3.5,3.5-3.5h14.5c2.4,0,3.5,1.1,3.5,3.5v62.5c0,2.4-1.1,3.5-3.5,3.5h-14.5c-2.4,0-3.5-1.1-3.5-3.5V88.7l-15.1-20v31.8
			c0,2.4-1.1,3.5-3.5,3.5H431.6z"/>
		<path fill="#FFFFFF" d="M429,184.1v-11.5c0-2.4,1.1-3.5,3.5-3.5h12.9v-32.4h-12.9c-2.4,0-3.5-1.1-3.5-3.5v-11.7
			c0-2.4,1.1-3.5,3.5-3.5h49.2c2.4,0,3.5,1.1,3.5,3.5v11.7c0,2.4-1.1,3.5-3.5,3.5h-12.9v32.4h12.9c2.4,0,3.5,1.1,3.5,3.5v11.5
			c0,2.4-1.1,3.5-3.5,3.5h-49.2C430,187.6,429,186.5,429,184.1z"/>
		<path fill="#FFFFFF" d="M448.9,272.4c-2.4,0-3.5-1.1-3.5-3.5v-47.3h-13.9c-2.4,0-3.5-1.1-3.5-3.5v-11.7c0-2.4,1.1-3.5,3.5-3.5
			h50.9c2.4,0,3.5,1.1,3.5,3.5v11.7c0,2.4-1.1,3.5-3.5,3.5h-13.9V269c0,2.4-1.1,3.5-3.5,3.5H448.9z"/>
		<path fill="#FFFFFF" d="M431.7,354.9c-2.4,0-3.5-1.1-3.5-3.5v-62.5c0-2.4,1.1-3.5,3.5-3.5h49.9c2.4,0,3.5,1.1,3.5,3.5v11.3
			c0,2.4-1.1,3.5-3.5,3.5h-31.8v7.4h24c2.4,0,3.5,1,3.5,3.5v10.3c0,2.4-1.1,3.5-3.5,3.5h-24v8.3h31.8c2.4,0,3.5,1.1,3.5,3.5v11.3
			c0,2.4-1.1,3.5-3.5,3.5H431.7z"/>
	</g>
	<g>
		<path fill="#EAD57D" d="M440.9,44L474.9,84V43.3h1v52.1h-1v-9.9L440,44.5c-0.2-0.2-0.3-0.3-0.5-0.3c-0.2,0-0.2,0.2-0.2,0.3v50.8
			h-1v-51c0-0.8,0.6-1.2,1.2-1.2C440.1,43.2,440.3,43.4,440.9,44z"/>
		<path fill="#EAD57D" d="M456.6,178v-50.1h-18.9v-1h38.8v1h-18.9V178h18.9v1h-38.8v-1H456.6z"/>
		<path fill="#EAD57D" d="M456.6,212.7h-19.8v-1h40.5v1h-19.8v51.1h-1V212.7z"/>
		<path fill="#EAD57D" d="M438.5,294.1h37.9v1h-36.9v24.2h29.1v1h-29.1v25h36.9v1h-37.9V294.1z"/>
	</g>
	<g>
		<rect x="315.1" y="112.2" fill="none" stroke="#000000" stroke-width="0.75" stroke-miterlimit="10" width="75.8" height="83.1"/>
		<rect x="315.1" y="195.3" fill="none" stroke="#000000" stroke-width="0.75" stroke-miterlimit="10" width="75.8" height="83.2"/>
		<rect x="315.1" y="278.5" fill="none" stroke="#000000" stroke-width="0.75" stroke-miterlimit="10" width="75.8" height="83.9"/>
		<g>
			<rect x="315.1" y="30" fill="none" stroke="#000000" stroke-width="0.75" stroke-miterlimit="10" width="75.8" height="82.1"/>
		</g>
	</g>
	<g>
		<path fill="#FFFFFF" d="M344.8,107.2c-2.4,0-3.5-1.1-3.5-3.5V56.4h-13.9c-2.4,0-3.5-1.1-3.5-3.5V41.2c0-2.4,1.1-3.5,3.5-3.5h50.9
			c2.4,0,3.5,1.1,3.5,3.5v11.7c0,2.4-1.1,3.5-3.5,3.5h-13.9v47.3c0,2.4-1.1,3.5-3.5,3.5H344.8z"/>
		<path fill="#FFFFFF" d="M327.5,188.8c-2.4,0-3.5-1.1-3.5-3.5v-62.5c0-2.4,1.1-3.5,3.5-3.5h31c14.5,0,19,6.6,19,16.1v4.4
			c0,5.4-1.4,9.3-5.4,11c5.9,0.8,10.7,5.9,10.7,14v20.4c0,2.4-1.1,3.5-3.5,3.5h-14.9c-2.4,0-3.5-1.1-3.5-3.5v-14.8
			c0-2.9-1-4.1-3.7-4.1h-11.5v18.9c0,2.4-1.1,3.5-3.5,3.5H327.5z M345.8,149.1h6.2c3.4,0,4.2-1.9,4.2-4.5v-3.3
			c0-2.6-0.9-4.5-4.2-4.5h-6.2V149.1z"/>
		<path fill="#FFFFFF" d="M321,268.2v-24.5c0-5.7,1-9.6,2.8-14.5l9.2-23c1.1-3,2.7-4,6-4h40.5c2.4,0,3.5,1.1,3.5,3.5V217
			c0,2.4-1.1,3.5-3.5,3.5h-9.9v7.4h9.8c2.4,0,3.5,1,3.5,3.5v10.3c0,2.4-1.1,3.5-3.5,3.5h-9.8v8.3h9.9c2.4,0,3.5,1.1,3.5,3.5v11.3
			c0,2.4-1.1,3.5-3.5,3.5h-25.9c-2.4,0-3.5-1.1-3.5-3.5v-13.5h-9.4v13.5c0,2.4-1.1,3.5-3.5,3.5h-12.6
			C322.1,271.6,321,270.6,321,268.2z M341.6,237.1h8.4v-16.7h-0.9c-1.1,0-1.4,0.4-1.8,1.6L341.6,237.1z"/>
		<path fill="#FFFFFF" d="M327.6,355.2c-2.4,0-3.5-1.1-3.5-3.5v-62.5c0-2.4,1.1-3.5,3.5-3.5h14.9c2.4,0,3.5,1.1,3.5,3.5v22.2h2.2
			l9.9-22.5c1-2.3,2.3-3.2,4.8-3.2h14.8c2.2,0,3,1.2,2.1,3.2l-9.8,22.5c7.2,0.4,11.9,5.4,11.9,13.1v27.2c0,2.4-1.1,3.5-3.5,3.5
			h-14.8c-2.4,0-3.5-1.1-3.5-3.5V333c0-2.1-1.1-3.3-3.1-3.3H346v22.1c0,2.4-1.1,3.5-3.5,3.5H327.6z"/>
	</g>
	<g>
		<path fill="#EAD57D" d="M352.4,47.4h-19.8v-1h40.5v1h-19.8v51.1h-1V47.4z"/>
		<path fill="#EAD57D" d="M356.4,128.1c7.5,0,11,4.6,11,11v6.7c0,5.9-1.2,9.7-5.8,11.2h1.1c7.9,0,9.6,3.6,9.6,10.3v12.9h-1v-12.9
			c0-6.4-1.4-9.4-8.7-9.4h-27.3v22.4h-1v-52.1H356.4z M335.4,129v27.9h21c8,0,10-4,10-11.1v-6.7c0-6-3.2-10-10-10H335.4z"/>
		<path fill="#EAD57D" d="M331.4,234.7l8.1-19.6c1.4-3.4,2.6-4.2,4.9-4.2h29.8v1h-14V236h13.9v1h-13.9V262h14v1h-14.9v-16.7h-28V263
			h-1v-19.4C330.4,239.8,330.4,237.3,331.4,234.7z M331.3,245.3h28v-33.5h-14.8c-1.9,0-2.8,1-4,3.7l-8.1,19.6
			c-1.1,2.5-1.1,4.9-1.1,8.5V245.3z"/>
		<path fill="#EAD57D" d="M335.6,294.5v25.6h19.3l11.1-25.6h1.1l-11.1,25.6h4c7.9,0,11.7,2.7,11.7,9.4v17h-1v-17
			c0-6.2-3.6-8.5-10.7-8.5h-24.3v25.5h-1v-52.1H335.6z"/>
	</g>
	<rect x="2.7" y="24.5" fill="none" stroke="#000000" stroke-width="0.75" stroke-miterlimit="10" width="75.8" height="83.4"/>
	<rect x="2.7" y="107.9" fill="none" stroke="#000000" stroke-width="0.75" stroke-miterlimit="10" width="75.8" height="88.8"/>
	<rect x="2.7" y="196.7" fill="none" stroke="#000000" stroke-width="0.75" stroke-miterlimit="10" width="75.8" height="83.5"/>
	<rect x="2.7" y="280.1" fill="none" stroke="#000000" stroke-width="0.75" stroke-miterlimit="10" width="75.8" height="82.2"/>
	<g>
		<path fill="#FFFFFF" d="M11.6,49.6C11.6,38,16.6,30,40.5,30c24,0,29,8,29,19.7v47.7c0,2.4-1.1,3.6-3.5,3.6H51.4
			c-2.4,0-3.5-1.2-3.5-3.6V83H32.8v14.4c0,2.4-1.1,3.6-3.5,3.6H15.1c-2.4,0-3.5-1.2-3.5-3.6V49.6z M32.8,65.4h15.1V52.9
			c0-2.6-0.8-4.5-7.5-4.5c-6.8,0-7.6,1.9-7.6,4.5V65.4z"/>
		<path fill="#FFFFFF" d="M29.6,183.6c-14.5-2.2-18.3-9.3-18.3-18.9v-32c0-11.8,5.7-19.8,29.3-19.8s29.3,8,29.3,19.8v32
			c0,9.7-3.9,16.8-18.5,19v5.3c0,2.4-1.1,3.5-3.5,3.5H33.1c-2.4,0-3.5-1.1-3.5-3.5V183.6z M40.6,167.1c6.5,0,7.5-1.9,7.5-4.5v-26.3
			c0-2.5-1.1-4.4-7.5-4.4c-6.4,0-7.4,1.9-7.4,4.4v26.3C33.1,165.1,34.2,167.1,40.6,167.1z"/>
		<path fill="#FFFFFF" d="M40.6,274.3c-23.1,0-28.9-7.9-28.9-19.7v-47.7c0-2.4,1.1-3.5,3.5-3.5h15.1c2.4,0,3.5,1.1,3.5,3.5v44
			c0,2.6,1.2,4.5,7,4.5c6,0,7.1-1.9,7.1-4.5v-44c0-2.4,1-3.5,3.5-3.5H66c2.4,0,3.5,1.1,3.5,3.5v47.7
			C69.5,266.4,63.7,274.3,40.6,274.3z"/>
		<path fill="#FFFFFF" d="M11.6,304.9c0-11.7,4.9-19.7,28.8-19.7c24,0,29,8,29,19.7v47.7c0,2.4-1.1,3.6-3.5,3.6H51.4
			c-2.4,0-3.5-1.2-3.5-3.6v-14.4H32.8v14.4c0,2.4-1.1,3.6-3.5,3.6H15.1c-2.4,0-3.5-1.2-3.5-3.6V304.9z M32.8,320.7h15.1v-12.4
			c0-2.6-0.8-4.5-7.5-4.5c-6.8,0-7.6,1.9-7.6,4.5V320.7z"/>
	</g>
	<g>
		<path fill="#EAD57D" d="M21.8,52c0-7.8,3.6-13,18.7-13c14.9,0,18.7,5.2,18.7,13v40.2h-1V74.8H22.7v17.5h-1V52z M22.7,73.8h35.5V52
			c0-7.2-3.6-12.1-17.7-12.1C26.1,40,22.7,44.8,22.7,52V73.8z"/>
		<path fill="#EAD57D" d="M40.5,121.9c14.7,0,19,5.2,19,13v28.4c0,7.7-4.2,12.9-18.5,13v7.4h-1v-7.4c-14.3-0.2-18.2-5.3-18.2-13V135
			C21.8,127.2,25.8,121.9,40.5,121.9z M40.5,175.5c13.9,0,18-4.8,18-12.1V135c0-7.2-4.1-12.1-18-12.1c-13.9,0-17.7,4.8-17.7,12.1
			v28.4C22.7,170.6,26.6,175.5,40.5,175.5z"/>
		<path fill="#EAD57D" d="M23.2,212.1v40.2c0,7.2,3.7,12.1,17.1,12.1c14,0,17.9-4.8,17.9-12.1v-40.2h1v40.2c0,7.8-4.1,13-18.9,13
			c-14.2,0-18-5.2-18-13v-40.2H23.2z"/>
		<path fill="#EAD57D" d="M21.8,307.4c0-7.8,3.6-13,18.7-13c14.9,0,18.7,5.2,18.7,13v40.2h-1v-17.5H22.7v17.5h-1V307.4z M22.7,329.1
			h35.5v-21.8c0-7.2-3.6-12.1-17.7-12.1c-14.4,0-17.7,4.8-17.7,12.1V329.1z"/>
	</g>
</g>
</svg>
