<?xml version="1.0" encoding="utf-8"?>
<!-- Generator: Adobe Illustrator 17.1.0, SVG Export Plug-In . SVG Version: 6.00 Build 0)  -->
<!DOCTYPE svg PUBLIC "-//W3C//DTD SVG 1.1//EN" "http://www.w3.org/Graphics/SVG/1.1/DTD/svg11.dtd">
<svg version="1.1" xmlns="http://www.w3.org/2000/svg" xmlns:xlink="http://www.w3.org/1999/xlink" x="0px" y="0px"
	 viewBox="0 0 400 300" enable-background="new 0 0 400 300" xml:space="preserve">
<g id="Layer_2_copy">
	<g>
		<path fill="#1B586B" d="M47.3,49.3V33.4c0-4.3,0.6-5.2,2.4-9.8L54.4,10C55,8.2,56.1,7.6,58,7.6h15.5c1.9,0,2.9,0.6,3.5,2.3
			l5.2,13.6c1.8,4.7,2.4,5.6,2.4,9.8v15.8c0,1.9-0.8,2.8-2.8,2.8h-9.1c-1.9,0-2.9-0.9-2.9-2.8v-7.8h-8.2v7.8c0,1.9-0.8,2.8-2.8,2.8
			h-8.8C48.1,52,47.3,51.2,47.3,49.3z M66.5,21.1c-0.2-0.4-0.2-0.7-0.6-0.7h-0.3c-0.4,0-0.4,0.2-0.6,0.7l0.1-0.1l-2.6,8.3h6.6
			L66.5,21.1L66.5,21.1z"/>
		<path fill="#1B586B" d="M47.5,109.2V70.3c0-1.9,0.8-2.8,2.8-2.8h18.6c8.7,0,12.1,4.2,12.1,9.8v2.9c0,2.7-0.7,4.8-2.4,6.2
			c3.7,1,6.4,4.3,6.4,9.6v5.5c0,6.4-4.1,10.4-12.2,10.4H50.2C48.3,112,47.5,111.1,47.5,109.2z M62.2,79v5.3h4c1.4,0,1.7-0.9,1.7-1.8
			v-1.7c0-0.9-0.2-1.8-1.7-1.8H62.2z M62.2,94.7v5.9h6.7c1.4,0,1.7-0.9,1.7-1.8v-2.3c0-0.9-0.2-1.7-1.7-1.7H62.2z"/>
		<path fill="#1B586B" d="M81.3,172H62.5c-11.9,0-15.4-5.3-15.4-12.8v-18.7c0-7.6,3.5-12.9,15.4-12.9h18.8c1.9,0,2.8,0.8,2.8,2.8
			v7.3c0,1.9-0.8,2.8-2.8,2.8H65.1c-2.5,0-3.1,1.1-3.1,2.4v14.3c0,1.4,0.6,2.3,3.1,2.3h16.2c1.9,0,2.8,0.8,2.8,2.8v7.1
			C84.1,171.2,83.2,172,81.3,172z"/>
		<path fill="#1B586B" d="M69.5,232H50.2c-1.9,0-2.8-0.8-2.8-2.8v-38.9c0-1.9,0.8-2.8,2.8-2.8h19.4c11.9,0,15.4,5.3,15.4,12.8v18.7
			C84.9,226.8,81.4,232,69.5,232z M62.2,200.3v19.2h5.7c1.9,0,2.2-1.1,2.2-2.3v-14.6c0-1.2-0.3-2.3-2.2-2.3H62.2z"/>
		<path fill="#1B586B" d="M47.5,289.3v-38.9c0-1.9,0.8-2.8,2.8-2.8h31.1c1.9,0,2.8,0.8,2.8,2.8v7c0,1.9-0.8,2.8-2.8,2.8H62.1v3.4
			h14.3c1.9,0,2.8,0.8,2.8,2.8v6.4c0,1.9-0.8,2.8-2.8,2.8H62.1v4h19.2c1.9,0,2.8,0.8,2.8,2.8v7c0,1.9-0.8,2.8-2.8,2.8H50.2
			C48.3,292,47.5,291.2,47.5,289.3z"/>
	</g>
	<g>
		<path fill="#1B586B" d="M114.1,49.2V10.3c0-1.9,0.8-2.8,2.8-2.8h31.1c1.9,0,2.8,0.8,2.8,2.8v7.1c0,1.9-0.8,2.8-2.8,2.8h-19v5H143
			c1.9,0,2.8,0.8,2.8,2.8v7.2c0,1.9-0.8,2.8-2.8,2.8h-14.2v11.2c0,1.9-0.8,2.8-2.8,2.8h-9.3C114.9,52,114.1,51.1,114.1,49.2z"/>
		<path fill="#1B586B" d="M113.7,99.2V80.5c0-7.6,3.5-12.8,15.4-12.8h15.5c1.9,0,2.8,0.8,2.8,2.8v7.3c0,1.9-0.8,2.8-2.8,2.8h-13
			c-2.5,0-3.1,1.1-3.1,2.4v14.3c0,1.3,0.2,2.3,2.2,2.3h5.7v-8.8c0-1.9,0.8-2.8,2.8-2.8h9.3c1.9,0,2.8,0.8,2.8,2.8v18.5
			c0,1.9-0.8,2.8-2.8,2.8h-19.4C117.2,112,113.7,106.8,113.7,99.2z"/>
		<path fill="#1B586B" d="M114,169.3v-38.9c0-1.9,0.8-2.8,2.8-2.8h9.3c1.9,0,2.8,0.8,2.8,2.8v12.4h7.6v-12.4c0-1.9,0.8-2.8,2.8-2.8
			h9.3c1.9,0,2.8,0.8,2.8,2.8v38.9c0,1.9-0.8,2.8-2.8,2.8h-9.3c-1.9,0-2.8-0.8-2.8-2.8v-12.7h-7.6v12.7c0,1.9-0.8,2.8-2.8,2.8h-9.3
			C114.8,172,114,171.2,114,169.3z"/>
		<path fill="#1B586B" d="M114,229.3V222c0-1.9,0.8-2.8,2.8-2.8h15.8c2.5,0,3.8-1,3.8-3.4v-25.4c0-1.9,0.8-2.8,2.8-2.8h9.3
			c1.9,0,2.8,0.8,2.8,2.8v28.4c0,8.3-5.1,13.2-13.4,13.2h-21.1C114.8,232,114,231.2,114,229.3z M126.1,212.2h-9.3
			c-1.9,0-2.8-0.8-2.8-2.8v-19.1c0-1.9,0.8-2.8,2.8-2.8h9.3c1.9,0,2.8,0.8,2.8,2.8v19.1C128.8,211.4,128,212.2,126.1,212.2z"/>
		<path fill="#1B586B" d="M116.8,292c-1.9,0-2.8-0.8-2.8-2.8v-38.9c0-1.9,0.8-2.8,2.8-2.8h9.3c1.9,0,2.8,0.8,2.8,2.8v13.2h0.4
			l6-13.6c0.7-1.7,1.7-2.3,3.5-2.3h9.2c2,0,2.6,1,1.9,2.8l-5.8,13.2c4.3,0.6,7.1,3.8,7.1,8.7v16.9c0,1.9-0.8,2.8-2.8,2.8h-9.2
			c-1.9,0-2.8-0.8-2.8-2.8v-11.7c0-0.9-0.4-1.4-1.3-1.4h-6.3v13.1c0,1.9-0.8,2.8-2.8,2.8H116.8z"/>
	</g>
	<g>
		<path fill="#1B586B" d="M180.7,49.3V10.4c0-1.9,0.8-2.8,2.8-2.8h9.3c1.9,0,2.8,0.8,2.8,2.8v29.1h8.2v-9.1c0-1.9,0.8-2.8,2.8-2.8
			h8.7c1.9,0,2.8,0.8,2.8,2.8v18.9c0,1.9-0.8,2.8-2.8,2.8h-31.7C181.5,52,180.7,51.2,180.7,49.3z"/>
		<path fill="#1B586B" d="M182.1,112c-1.9,0-2.8-0.8-2.8-2.8l0.2-38.9c0-1.9,0.8-2.8,2.8-2.8h7.9c1.8,0,3.5,0.5,4.4,2.1v0.1
			l4.1,10.2h0.7l4.5-10.3h0.1c1-1.6,2-2.1,3.8-2.1h8.4c2,0,2.8,0.8,2.8,2.8l0.2,38.9c0,1.9-0.8,2.8-2.8,2.8h-9.1
			c-1.9,0-2.8-0.8-2.8-2.8l-0.2-16.6l-1.1,3.4v0.1c-0.9,1.6-1.9,2.2-3.7,2.2h-1.6c-1.8,0-2.8-0.6-3.7-2.2V96l-1.2-3.4l-0.2,16.7
			c0,1.9-0.8,2.8-2.8,2.8H182.1z"/>
		<path fill="#1B586B" d="M183.4,172c-1.9,0-2.8-0.8-2.8-2.8v-38.9c0-1.9,0.8-2.8,2.8-2.8h6.2c1.7,0,2.8,0.5,4,1.9l9.7,12v-11.1
			c0-1.9,0.8-2.8,2.8-2.8h9c1.9,0,2.8,0.8,2.8,2.8v38.9c0,1.9-0.8,2.8-2.8,2.8h-9c-1.9,0-2.8-0.8-2.8-2.8v-7.2l-8.2-10.8v18
			c0,1.9-0.8,2.8-2.8,2.8H183.4z"/>
		<path fill="#1B586B" d="M218.1,220.1c0,7.6-3.4,12.8-18.8,12.8c-15.4,0-18.8-5.3-18.8-12.8v-20.5c0-7.6,3.4-12.9,18.8-12.9
			c15.4,0,18.8,5.3,18.8,12.9V220.1z M195.2,217.9c0,1.4,0.9,2.2,4,2.2c3.2,0,4.1-0.8,4.1-2.2v-16.1c0-1.4-1-2.2-4.1-2.2
			c-3.1,0-4,0.8-4,2.2V217.9z"/>
		<path fill="#1B586B" d="M180.6,289.3v-38.9c0-1.9,0.8-2.8,2.8-2.8h19.9c11.5,0,14.8,5,14.8,12.3v7.7c0,7.3-3.3,12.3-14.8,12.3
			h-7.9v9.4c0,1.9-0.8,2.8-2.8,2.8h-9.3C181.5,292,180.6,291.2,180.6,289.3z M195.3,260.1v7.9h6.4c1.9,0,2.2-1.1,2.2-2.3v-3.2
			c0-1.2-0.4-2.3-2.2-2.3H195.3z"/>
	</g>
	<g>
		<path fill="#1B586B" d="M258.4,54.7v-2.8c-9.1-1.5-11.4-6.2-11.4-12.3V19.6c0-7.6,3.4-12.9,18.8-12.9c15.4,0,18.8,5.3,18.8,12.9
			v19.9c0,6.2-2.3,10.8-11.5,12.3v2.8c0,1.9-0.8,2.8-2.8,2.8h-9.2C259.2,57.4,258.4,56.6,258.4,54.7z M261.8,38.2
			c0,1.4,0.9,2.2,4,2.2c3.2,0,4.1-0.8,4.1-2.2V21.9c0-1.4-1-2.2-4.1-2.2c-3.1,0-4,0.8-4,2.2V38.2z"/>
		<path fill="#1B586B" d="M250,112c-1.9,0-2.8-0.8-2.8-2.8V70.4c0-1.9,0.8-2.8,2.8-2.8h19.3c9.5,0,12.4,4.4,12.4,10.6V81
			c0,3-0.7,5.3-2.4,6.6c3.2,1.1,5.7,4.3,5.7,8.9v12.7c0,1.9-0.8,2.8-2.8,2.8H273c-1.9,0-2.8-0.8-2.8-2.8v-9.2c0-1.3-0.4-2-1.7-2H262
			v11.2c0,1.9-0.8,2.8-2.8,2.8H250z M262,79.6v6.5h3.2c1.7,0,2-1,2-2.2v-2c0-1.3-0.4-2.2-2-2.2H262z"/>
		<path fill="#1B586B" d="M271.5,172H250c-1.9,0-2.8-0.8-2.8-2.8v-7c0-1.9,0.8-2.8,2.8-2.8h18.7c0.7,0,1-0.5,1-1.1
			c0-0.9-0.3-1.4-1-1.4l-11.5-1.3c-6-0.9-9.8-3.5-9.8-10.6v-6.3c0-7.2,4.8-11.2,13-11.2h19.9c1.9,0,2.8,0.8,2.8,2.8v7.1
			c0,1.9-0.8,2.8-2.8,2.8h-17.1c-0.7,0-1,0.5-1,1.2c0,0.7,0.4,1.3,1.1,1.3l11.5,1.2c6,0.9,9.9,3.5,9.9,10.6v6.3
			C284.5,168.1,279.6,172,271.5,172z"/>
		<path fill="#1B586B" d="M258,229.3v-28.9h-8c-1.9,0-2.8-0.8-2.8-2.8v-7.3c0-1.9,0.8-2.8,2.8-2.8h31.7c1.9,0,2.8,0.8,2.8,2.8v7.3
			c0,1.9-0.8,2.8-2.8,2.8h-8v28.9c0,1.9-0.8,2.8-2.8,2.8h-10.1C258.9,232,258,231.2,258,229.3z"/>
		<path fill="#1B586B" d="M284.4,280.1c0,7.6-3.5,12.8-18.6,12.8c-15.1,0-18.6-5.3-18.6-12.8v-29.7c0-1.9,0.8-2.8,2.8-2.8h9.4
			c1.9,0,2.8,0.8,2.8,2.8v27.4c0,1.4,0.9,2.2,3.8,2.2c2.9,0,3.8-0.8,3.8-2.2v-27.4c0-1.9,0.8-2.8,2.8-2.8h9.1c1.9,0,2.8,0.8,2.8,2.8
			V280.1z"/>
	</g>
	<g>
		<path fill="#1B586B" d="M340.1,52h-15.2c-2.1,0-3.2-0.6-3.8-2.4L315.8,35c-1.5-3.7-2-4.9-2-8.8V10.4c0-1.9,0.8-2.8,2.8-2.8h9.1
			c1.9,0,2.9,0.9,2.9,2.8V27c0,0.8,0.1,1.4,0.5,2.3l2.5,8.3c0.2,0.4,0.2,0.7,0.6,0.7h0.9c0.4,0,0.4-0.2,0.6-0.7l-0.1,0.1l2.6-8.5
			v-0.1c0.3-0.8,0.4-1.4,0.4-2.2V10.4c0-1.9,0.8-2.8,2.8-2.8h8.9c2,0,2.8,0.8,2.8,2.8v15.8c0,3.9,0.1,5-1.4,8.8l-5.9,14.7
			C343.2,51.4,342.2,52,340.1,52z"/>
		<path fill="#1B586B" d="M316,109.5l-2.2-8.3c-1.1-4.2-1.1-5-1.1-8.8l-0.2-22c0-1.9,0.8-2.8,2.8-2.8h8.9c1.9,0,2.8,0.8,2.8,2.8
			l0.2,17.1l1.3-3.8v-0.1c1-1.6,1.9-2.2,3.7-2.2h1.9c1.8,0,2.8,0.6,3.7,2.2v0.1l1.3,3.8l0.2-17c0-2,0.5-2.8,2.5-2.8h8
			c2,0,2.8,0.8,2.8,2.8l-0.2,22.1c0,3.7,0,4.6-1.1,8.8l-2.2,8.1c-0.5,1.8-1.4,2.6-3.2,2.6h-6c-2.3,0-3.1-0.7-3.6-2.2L333,99.7h-0.5
			l-3.1,10.1c-0.5,1.4-1.3,2.2-3.6,2.2h-6.5C317.6,112,316.5,111.1,316,109.5z"/>
		<path fill="#1B586B" d="M316.6,172c-1.9,0-2.8-0.8-2.8-2.8v-6.4c0-3.9,0.8-5,2.4-7.7l3.7-6.2l-3.7-6.2c-1.6-2.7-2.4-3.8-2.4-7.7
			v-4.6c0-1.9,0.8-2.8,2.8-2.8h9.2c1.9,0,2.8,0.8,2.8,2.8v4.1c0,0.7,0.1,1.5,0.5,2.2l2.2,3.8c0.2,0.4,0.5,0.7,0.9,0.7h0.7
			c0.4,0,0.7-0.2,0.9-0.7l2.2-3.8c0.4-0.7,0.5-1.5,0.5-2.2v-4.1c0-1.9,0.8-2.8,2.8-2.8h9.1c1.9,0,2.8,0.8,2.8,2.8v4.6
			c0,3.9-0.8,5-2.4,7.7l-3.7,6.2l3.7,6.1c1.7,2.7,2.4,3.8,2.4,7.7v6.4c0,1.9-0.8,2.8-2.8,2.8h-9.1c-1.9,0-2.8-0.8-2.8-2.8v-5.9
			c0-0.7-0.1-1.4-0.5-2.2l-2.1-3.8c-0.2-0.5-0.5-0.7-0.9-0.7h-0.8c-0.4,0-0.7,0.2-0.9,0.7l-2.2,3.8c-0.4,0.7-0.5,1.5-0.5,2.2v5.9
			c0,1.9-0.8,2.8-2.8,2.8H316.6z"/>
		<path fill="#1B586B" d="M324.8,229.3v-7.6l-8.6-12.1c-1.9-2.6-2.4-4.4-2.4-7.7v-11.5c0-1.9,0.8-2.8,2.8-2.8h9.2
			c1.9,0,2.8,0.8,2.8,2.8v9.8c0,0.7,0,1.4,0.5,2.2l2.3,4.3c0.2,0.5,0.5,0.7,0.9,0.7h0.6c0.4,0,0.7-0.2,0.9-0.7l2.5-4.3
			c0.4-0.8,0.4-1.5,0.4-2.2v-9.8c0-1.9,0.8-2.8,2.8-2.8h8.9c1.9,0,2.8,0.8,2.8,2.8v11.5c0,3.3-0.5,5.2-2.4,7.7l-8.6,12.1v7.5
			c0,1.9-0.8,2.8-2.8,2.8h-9.7C325.6,232,324.8,231.2,324.8,229.3z"/>
		<path fill="#1B586B" d="M313.8,289.3v-8c0-1.7,0.5-2.9,1.7-4.1l16.1-16.7h-14.6c-1.9,0-2.8-0.8-2.8-2.8v-7.3
			c0-1.9,0.8-2.8,2.8-2.8h30.7c1.9,0,2.8,0.8,2.8,2.8v8.9c0,1.8-0.5,2.9-1.7,4.2l-15.4,15.8h14.8c1.9,0,2.8,0.8,2.8,2.8v7.1
			c0,1.9-0.8,2.8-2.8,2.8h-31.7C314.7,292,313.8,291.2,313.8,289.3z"/>
	</g>
</g>
<g id="Layer_1">
	<g>
		<path fill="#EFE445" d="M58.9,51.4h-8.8c-1.6,0-2.2-0.7-2.2-2.2V33.4c0-4.1,0.6-5,2.3-9.6l4.6-13.6c0.5-1.5,1.5-2,3.1-2h15.5
			c1.6,0,2.5,0.5,3,2l5.2,13.6c1.7,4.6,2.3,5.5,2.3,9.6v15.8c0,1.5-0.7,2.2-2.2,2.2h-9.1c-1.5,0-2.3-0.7-2.3-2.2v-8.4h-9.4v8.4
			C61.1,50.8,60.4,51.4,58.9,51.4z M61.7,30h8.2l-2.8-9.1c-0.4-0.8-0.5-1-1.1-1h-0.3c-0.7,0-0.8,0.2-1.1,1L61.7,30z"/>
		<path fill="#EFE445" d="M50.2,111.4c-1.5,0-2.2-0.7-2.2-2.2V70.3c0-1.5,0.7-2.2,2.2-2.2h18.6c8.2,0,11.5,3.9,11.5,9.2v2.9
			c0,3.1-0.9,5.3-3.5,6.5c4.3,0.4,7.6,3.7,7.6,9.3v5.5c0,6.1-4,9.8-11.6,9.8H50.2z M61.6,84.9h4.6c1.9,0,2.3-1.1,2.3-2.4v-1.7
			c0-1.3-0.4-2.4-2.3-2.4h-4.6V84.9z M61.6,101.2h7.3c1.9,0,2.3-1.1,2.3-2.4v-2.3c0-1.3-0.4-2.3-2.3-2.3h-7.3V101.2z"/>
		<path fill="#EFE445" d="M62.5,171.4c-11.3,0-14.8-5-14.8-12.2v-18.7c0-7.3,3.4-12.3,14.8-12.3h18.8c1.5,0,2.2,0.7,2.2,2.2v7.3
			c0,1.5-0.7,2.2-2.2,2.2H65.1c-3.1,0-3.7,1.4-3.7,3v14.3c0,1.7,0.5,2.9,3.7,2.9h16.2c1.5,0,2.2,0.7,2.2,2.2v7.1
			c0,1.5-0.7,2.2-2.2,2.2H62.5z"/>
		<path fill="#EFE445" d="M50.2,231.4c-1.5,0-2.2-0.7-2.2-2.2v-38.9c0-1.5,0.7-2.2,2.2-2.2h19.4c11.3,0,14.8,5,14.8,12.2v18.7
			c0,7.3-3.4,12.2-14.8,12.2H50.2z M61.6,220.1h6.3c2.4,0,2.8-1.3,2.8-2.9v-14.6c0-1.6-0.4-2.9-2.8-2.9h-6.3V220.1z"/>
		<path fill="#EFE445" d="M50.2,291.4c-1.5,0-2.2-0.7-2.2-2.2v-38.9c0-1.5,0.7-2.2,2.2-2.2h31.1c1.5,0,2.2,0.7,2.2,2.2v7
			c0,1.5-0.7,2.2-2.2,2.2H61.5v4.6h14.9c1.5,0,2.2,0.6,2.2,2.2v6.4c0,1.5-0.7,2.2-2.2,2.2H61.5v5.2h19.8c1.5,0,2.2,0.7,2.2,2.2v7
			c0,1.5-0.7,2.2-2.2,2.2H50.2z"/>
	</g>
	<g>
		<path fill="#EFE445" d="M116.8,51.4c-1.5,0-2.2-0.7-2.2-2.2V10.3c0-1.5,0.7-2.2,2.2-2.2h31.1c1.5,0,2.2,0.7,2.2,2.2v7.1
			c0,1.5-0.7,2.2-2.2,2.2h-19.6v6.2H143c1.5,0,2.2,0.7,2.2,2.2v7.2c0,1.5-0.7,2.2-2.2,2.2h-14.8v11.8c0,1.5-0.7,2.2-2.2,2.2H116.8z"
			/>
		<path fill="#EFE445" d="M129.1,111.4c-11.3,0-14.8-5-14.8-12.2V80.5c0-7.3,3.4-12.2,14.8-12.2h15.5c1.5,0,2.2,0.7,2.2,2.2v7.3
			c0,1.5-0.7,2.2-2.2,2.2h-13c-3.1,0-3.7,1.4-3.7,3v14.3c0,1.6,0.4,2.9,2.8,2.9h6.3v-9.4c0-1.5,0.7-2.2,2.2-2.2h9.3
			c1.5,0,2.2,0.7,2.2,2.2v18.5c0,1.5-0.7,2.2-2.2,2.2H129.1z"/>
		<path fill="#EFE445" d="M116.8,171.4c-1.5,0-2.2-0.7-2.2-2.2v-38.9c0-1.5,0.7-2.2,2.2-2.2h9.3c1.5,0,2.2,0.7,2.2,2.2v13h8.8v-13
			c0-1.5,0.7-2.2,2.2-2.2h9.3c1.5,0,2.2,0.7,2.2,2.2v38.9c0,1.5-0.7,2.2-2.2,2.2h-9.3c-1.5,0-2.2-0.7-2.2-2.2V156h-8.8v13.3
			c0,1.5-0.7,2.2-2.2,2.2H116.8z"/>
		<path fill="#EFE445" d="M114.6,222c0-1.5,0.7-2.2,2.2-2.2h15.8c2.9,0,4.4-1.1,4.4-4v-25.4c0-1.5,0.7-2.2,2.2-2.2h9.3
			c1.5,0,2.2,0.7,2.2,2.2v28.4c0,7.9-4.9,12.6-12.8,12.6h-21.1c-1.5,0-2.2-0.7-2.2-2.2V222z M116.8,211.6c-1.5,0-2.2-0.7-2.2-2.2
			v-19.1c0-1.5,0.7-2.2,2.2-2.2h9.3c1.5,0,2.2,0.7,2.2,2.2v19.1c0,1.5-0.7,2.2-2.2,2.2H116.8z"/>
		<path fill="#EFE445" d="M116.8,291.4c-1.5,0-2.2-0.7-2.2-2.2v-38.9c0-1.5,0.7-2.2,2.2-2.2h9.3c1.5,0,2.2,0.7,2.2,2.2v13.8h1.4
			l6.2-14c0.6-1.4,1.4-2,3-2h9.2c1.4,0,1.9,0.7,1.3,2l-6.1,14c4.5,0.2,7.4,3.4,7.4,8.2v16.9c0,1.5-0.7,2.2-2.2,2.2h-9.2
			c-1.5,0-2.2-0.7-2.2-2.2v-11.7c0-1.3-0.7-2-1.9-2h-6.9v13.7c0,1.5-0.7,2.2-2.2,2.2H116.8z"/>
	</g>
	<g>
		<path fill="#EFE445" d="M183.4,51.4c-1.5,0-2.2-0.7-2.2-2.2V10.4c0-1.5,0.7-2.2,2.2-2.2h9.3c1.5,0,2.2,0.7,2.2,2.2v29.7h9.4v-9.7
			c0-1.5,0.7-2.2,2.2-2.2h8.7c1.5,0,2.2,0.7,2.2,2.2v18.9c0,1.5-0.7,2.2-2.2,2.2H183.4z"/>
		<path fill="#EFE445" d="M182.1,111.4c-1.5,0-2.2-0.7-2.2-2.2l0.2-38.9c0-1.5,0.7-2.2,2.2-2.2h7.9c1.6,0,3.1,0.4,3.9,1.8l4.2,10.6
			h1.4l4.7-10.6c0.8-1.3,1.8-1.8,3.4-1.8h8.4c1.6,0,2.2,0.7,2.2,2.2l0.2,38.9c0,1.5-0.6,2.2-2.2,2.2h-9.1c-1.5,0-2.2-0.7-2.2-2.2
			L205,91.7v-2.5l-2.3,6.6c-0.8,1.4-1.6,1.9-3.2,1.9h-1.6c-1.6,0-2.4-0.5-3.2-1.9l-2.3-6.6v2.5l-0.2,17.6c0,1.5-0.7,2.2-2.2,2.2
			H182.1z"/>
		<path fill="#EFE445" d="M183.4,171.4c-1.5,0-2.2-0.7-2.2-2.2v-38.9c0-1.5,0.7-2.2,2.2-2.2h6.2c1.6,0,2.5,0.4,3.5,1.6l10.8,13.3
			v-12.8c0-1.5,0.7-2.2,2.2-2.2h9c1.5,0,2.2,0.7,2.2,2.2v38.9c0,1.5-0.7,2.2-2.2,2.2h-9c-1.5,0-2.2-0.7-2.2-2.2v-7.4l-9.4-12.4v19.8
			c0,1.5-0.7,2.2-2.2,2.2H183.4z"/>
		<path fill="#EFE445" d="M199.2,232.3c-14.7,0-18.2-4.9-18.2-12.2v-20.5c0-7.3,3.5-12.3,18.2-12.3s18.2,5,18.2,12.3v20.5
			C217.5,227.4,213.9,232.3,199.2,232.3z M199.2,220.8c4,0,4.7-1.2,4.7-2.8v-16.1c0-1.6-0.7-2.8-4.7-2.8c-4,0-4.6,1.2-4.6,2.8v16.1
			C194.6,219.6,195.3,220.8,199.2,220.8z"/>
		<path fill="#EFE445" d="M183.4,291.4c-1.5,0-2.2-0.7-2.2-2.2v-38.9c0-1.5,0.7-2.2,2.2-2.2h19.9c10.9,0,14.2,4.7,14.2,11.7v7.7
			c0,7-3.2,11.7-14.2,11.7h-8.5v10c0,1.5-0.7,2.2-2.2,2.2H183.4z M194.7,268.5h7c2.3,0,2.8-1.4,2.8-2.9v-3.2c0-1.6-0.5-2.9-2.8-2.9
			h-7V268.5z"/>
	</g>
	<g>
		<path fill="#EFE445" d="M261.1,56.8c-1.5,0-2.2-0.7-2.2-2.2v-3.4c-9-1.4-11.4-5.8-11.4-11.8V19.6c0-7.3,3.5-12.3,18.2-12.3
			c14.7,0,18.2,5,18.2,12.3v19.9c0,6.1-2.4,10.4-11.5,11.8v3.3c0,1.5-0.7,2.2-2.2,2.2H261.1z M265.8,41.1c4,0,4.7-1.2,4.7-2.8V21.9
			c0-1.6-0.7-2.8-4.7-2.8c-4,0-4.6,1.2-4.6,2.8v16.4C261.2,39.9,261.9,41.1,265.8,41.1z"/>
		<path fill="#EFE445" d="M250,111.4c-1.5,0-2.2-0.7-2.2-2.2V70.4c0-1.5,0.7-2.2,2.2-2.2h19.3c9,0,11.8,4.1,11.8,10V81
			c0,3.4-0.8,5.8-3.4,6.8c3.7,0.5,6.7,3.7,6.7,8.7v12.7c0,1.5-0.7,2.2-2.2,2.2H273c-1.5,0-2.2-0.7-2.2-2.2v-9.2
			c0-1.8-0.6-2.6-2.3-2.6h-7.1v11.8c0,1.5-0.7,2.2-2.2,2.2H250z M261.4,86.7h3.8c2.1,0,2.6-1.2,2.6-2.8v-2c0-1.6-0.5-2.8-2.6-2.8
			h-3.8V86.7z"/>
		<path fill="#EFE445" d="M250,171.4c-1.5,0-2.2-0.7-2.2-2.2v-7c0-1.5,0.7-2.2,2.2-2.2h18.7c1,0,1.6-0.8,1.6-1.7
			c0-1.4-0.5-1.9-1.6-2l-11.5-1.3c-5.6-0.8-9.3-3.2-9.3-10v-6.3c0-6.8,4.6-10.6,12.4-10.6h19.9c1.5,0,2.2,0.7,2.2,2.2v7.1
			c0,1.5-0.7,2.2-2.2,2.2h-17.1c-1,0-1.6,0.7-1.6,1.8c0,1.1,0.6,1.8,1.6,1.9l11.5,1.2c5.6,0.8,9.4,3.2,9.4,10v6.3
			c0,6.8-4.7,10.6-12.4,10.6H250z"/>
		<path fill="#EFE445" d="M260.8,231.4c-1.5,0-2.2-0.7-2.2-2.2v-29.5H250c-1.5,0-2.2-0.7-2.2-2.2v-7.3c0-1.5,0.7-2.2,2.2-2.2h31.7
			c1.5,0,2.2,0.7,2.2,2.2v7.3c0,1.5-0.7,2.2-2.2,2.2H273v29.5c0,1.5-0.7,2.2-2.2,2.2H260.8z"/>
		<path fill="#EFE445" d="M265.8,292.3c-14.4,0-18-4.9-18-12.2v-29.7c0-1.5,0.7-2.2,2.2-2.2h9.4c1.5,0,2.2,0.7,2.2,2.2v27.4
			c0,1.6,0.7,2.8,4.4,2.8c3.7,0,4.4-1.2,4.4-2.8v-27.4c0-1.5,0.6-2.2,2.2-2.2h9.1c1.5,0,2.2,0.7,2.2,2.2v29.7
			C283.8,287.4,280.2,292.3,265.8,292.3z"/>
	</g>
	<g>
		<path fill="#EFE445" d="M324.9,51.4c-1.8,0-2.7-0.5-3.3-2l-5.3-14.7c-1.4-3.6-1.9-4.7-1.9-8.5V10.4c0-1.5,0.7-2.2,2.2-2.2h9.1
			c1.5,0,2.3,0.7,2.3,2.2V27c0,0.8,0.1,1.6,0.5,2.5l2.6,8.4c0.3,0.8,0.5,1,1.1,1h0.9c0.7,0,0.8-0.2,1.1-1l2.6-8.5
			c0.4-0.9,0.5-1.6,0.5-2.5V10.4c0-1.5,0.7-2.2,2.2-2.2h8.9c1.6,0,2.2,0.7,2.2,2.2v15.8c0,3.8,0.1,4.9-1.3,8.5l-5.9,14.7
			c-0.6,1.5-1.4,2-3.2,2H324.9z"/>
		<path fill="#EFE445" d="M349.6,68.2c1.6,0,2.2,0.7,2.2,2.2l-0.2,22.1c0,3.7,0,4.6-1.1,8.6l-2.2,8.2c-0.4,1.4-1.1,2.2-2.6,2.2h-6
			c-1.9,0-2.6-0.5-3-1.8l-3.2-10.6H332l-3.2,10.6c-0.4,1.2-1.1,1.8-3,1.8h-6.5c-1.5,0-2.4-0.7-2.8-2.2l-2.2-8.3
			c-1.1-4.1-1.1-4.9-1.1-8.6l-0.2-22c0-1.5,0.7-2.2,2.2-2.2h8.9c1.5,0,2.2,0.7,2.2,2.2l0.2,18.7V91l2.4-7.1c0.8-1.3,1.6-1.9,3.2-1.9
			h1.9c1.6,0,2.4,0.5,3.2,1.9l2.4,7.1v-1.9l0.2-18.7c0-1.5,0.4-2.2,1.9-2.2H349.6z"/>
		<path fill="#EFE445" d="M325.7,171.4h-9.1c-1.5,0-2.2-0.7-2.2-2.2v-6.4c0-3.7,0.7-4.8,2.3-7.4l4-6.5l-4-6.5
			c-1.6-2.6-2.3-3.7-2.3-7.4v-4.6c0-1.5,0.7-2.2,2.2-2.2h9.2c1.5,0,2.2,0.7,2.2,2.2v4.1c0,0.8,0.1,1.7,0.5,2.5l2.2,3.8
			c0.4,0.7,0.8,1,1.4,1h0.7c0.7,0,1-0.3,1.4-1l2.2-3.8c0.5-0.8,0.5-1.7,0.5-2.5v-4.1c0-1.5,0.7-2.2,2.2-2.2h9.1
			c1.5,0,2.2,0.7,2.2,2.2v4.6c0,3.7-0.7,4.8-2.3,7.4l-4,6.6l4,6.5c1.6,2.6,2.3,3.7,2.3,7.4v6.4c0,1.5-0.7,2.2-2.2,2.2h-9.1
			c-1.5,0-2.2-0.7-2.2-2.2v-5.9c0-0.8-0.1-1.6-0.5-2.5l-2.1-3.8c-0.4-0.8-0.8-1-1.4-1h-0.8c-0.7,0-1,0.3-1.4,1l-2.2,3.8
			c-0.5,0.8-0.5,1.7-0.5,2.5v5.9C327.9,170.8,327.2,171.4,325.7,171.4z"/>
		<path fill="#EFE445" d="M327.6,231.4c-1.6,0-2.2-0.7-2.2-2.2v-7.7l-8.8-12.2c-1.9-2.5-2.3-4.3-2.3-7.4v-11.5
			c0-1.5,0.7-2.2,2.2-2.2h9.2c1.5,0,2.2,0.7,2.2,2.2v9.8c0,0.8,0,1.7,0.5,2.5l2.3,4.3c0.4,0.7,0.8,1,1.4,1h0.6c0.7,0,1-0.3,1.4-1
			l2.4-4.3c0.5-0.8,0.5-1.7,0.5-2.5v-9.8c0-1.5,0.7-2.2,2.2-2.2h8.9c1.5,0,2.2,0.7,2.2,2.2v11.5c0,3.1-0.5,4.9-2.3,7.4l-8.8,12.3
			v7.7c0,1.5-0.7,2.2-2.2,2.2H327.6z"/>
		<path fill="#EFE445" d="M316.6,291.4c-1.5,0-2.2-0.7-2.2-2.2v-8c0-1.6,0.4-2.6,1.5-3.7l17.1-17.7h-16c-1.5,0-2.2-0.7-2.2-2.2v-7.3
			c0-1.5,0.7-2.2,2.2-2.2h30.7c1.5,0,2.2,0.7,2.2,2.2v8.9c0,1.6-0.4,2.6-1.5,3.8L332,280h16.3c1.5,0,2.2,0.7,2.2,2.2v7.1
			c0,1.5-0.7,2.2-2.2,2.2H316.6z"/>
	</g>
</g>
<g id="Layer_2">
	<g>
		<path fill="#FFFFFF" d="M77,35.7H54.8V46h-0.6V33.3c0-2.2,0.4-4.1,1-5.8l3.8-9.8c0.9-2.2,1.6-4,4.4-4h4.6c2.6,0,3.4,1.7,4.3,4
			l4.1,9.8c0.7,1.7,1,3.6,1,5.8V46H77V35.7z M54.8,35.1H77v-1.9c0-2.2-0.4-4-1-5.6l-4.1-9.8c-0.9-2.1-1.6-3.7-3.8-3.7h-4.6
			c-2.4,0-3.1,1.6-3.8,3.6l-3.8,9.8c-0.6,1.6-1,3.4-1,5.6V35.1z"/>
		<path fill="#FFFFFF" d="M54.5,106V73.6h11.6c6.7,0,7.9,2.9,7.9,6.4v3.8c0,2.4-0.4,4.6-3.8,5.5c6.7,0,7.8,2.9,7.8,6.9v3.8
			c0,3.5-1.1,6-7.9,6H54.5z M55.1,74.2v15.1h11c6.6,0,7.3-2.6,7.3-5.5V80c0-3.2-1.2-5.8-7.3-5.8H55.1z M55.1,89.9v15.5h15
			c6,0,7.3-2.1,7.3-5.4v-3.8c0-3.6-1.1-6.3-7.2-6.3H55.1z"/>
		<path fill="#FFFFFF" d="M78.1,166H63.9c-7.8,0-9.6-2.2-9.6-7.7v-16.8c0-5.7,1.9-7.9,9.6-7.9h14.2v0.6H63.9c-7.1,0-9,1.9-9,7.3
			v16.8c0,5.2,1.8,7.1,9,7.1h14.2V166z"/>
		<path fill="#FFFFFF" d="M54.5,193.6h13.7c8.2,0,9.6,3.7,9.6,8.3v15.9c0,4.6-1.3,8.2-9.6,8.2H54.5V193.6z M55.1,194.2v31.2h13.1
			c7.7,0,9-3.2,9-7.6V202c0-4.4-1.4-7.7-9-7.7H55.1z"/>
		<path fill="#FFFFFF" d="M78.1,286H54.5v-32.4h23.6v0.6h-23v15.1h18.1v0.6H55.1v15.5h23V286z"/>
	</g>
	<g>
		<path fill="#FFFFFF" d="M121.2,13.6h23.5v0.6h-22.9v17.2h18V32h-18v14h-0.6V13.6z"/>
		<path fill="#FFFFFF" d="M120.8,98.3V81.5c0-5.7,1.9-7.9,9.6-7.9h10.9v0.6h-10.9c-7.1,0-9,1.9-9,7.3v16.8c0,5.2,2.1,7.1,10.2,7.1
			h11.9V94h0.6V106h-12.5C122.8,106,120.8,103.9,120.8,98.3z"/>
		<path fill="#FFFFFF" d="M121.1,133.6h0.6v15.9h21.7v-15.9h0.6V166h-0.6v-15.9h-21.7V166h-0.6V133.6z"/>
		<path fill="#FFFFFF" d="M120.1,226v-0.6h15.7c6.4,0,7.7-3.2,7.7-9.4v-22.4h0.6v22.4c0,6.4-1.3,10-8.3,10H120.1z M121.1,206.2
			v-12.6h0.6v12.6H121.1z"/>
		<path fill="#FFFFFF" d="M121.2,286v-32.4h0.6v16h12l6.9-16h0.7l-6.9,16h2.5c4.9,0,7.3,1.7,7.3,5.9V286h-0.6v-10.6
			c0-3.8-2.2-5.3-6.7-5.3h-15.1V286H121.2z"/>
	</g>
	<g>
		<path fill="#FFFFFF" d="M187.8,13.6h0.6v31.8h22V33.6h0.6V46h-23.2V13.6z"/>
		<path fill="#FFFFFF" d="M201.4,87l5.6-12.4c0.4-0.9,1.3-1,2-1h1.3c1.2,0,1.7,0.5,1.7,1.9l0.1,30.5h-0.6l-0.1-30.5
			c0-0.7-0.2-1.3-1.1-1.3h-1.1c-0.6,0-1.3,0-1.6,0.8l-5.6,12.2c-1,2.3-1.5,2.8-2.9,2.8s-1.9-0.5-2.9-2.8l-5.6-12.2
			c-0.4-0.8-1-0.8-1.6-0.8h-0.9c-1.1,0-1.4,0.6-1.4,1.3l-0.1,30.5h-0.6l0.1-30.5c0-1.3,0.6-1.9,2-1.9h1c0.7,0,1.6,0.2,2,1l5.6,12.4
			c1,2.2,1.3,2.5,2.5,2.5S200.4,89.3,201.4,87z"/>
		<path fill="#FFFFFF" d="M189.2,134.1l21.1,24.8v-25.3h0.6V166h-0.6v-6.2l-21.7-25.4c-0.1-0.1-0.2-0.2-0.3-0.2s-0.1,0.1-0.1,0.2
			V166h-0.6v-31.7c0-0.5,0.4-0.7,0.7-0.7C188.7,133.6,188.8,133.7,189.2,134.1z"/>
		<path fill="#FFFFFF" d="M199.2,226.8c-9.1,0-11.6-3.2-11.6-8.1V201c0-4.9,2.5-8.1,11.6-8.1c9.1,0,11.8,3.2,11.8,8.1v17.7
			C211,223.6,208.3,226.8,199.2,226.8z M199.2,226.2c8.6,0,11.2-3,11.2-7.5V201c0-4.5-2.6-7.5-11.2-7.5s-11,3-11,7.5v17.7
			C188.1,223.2,190.5,226.2,199.2,226.2z"/>
		<path fill="#FFFFFF" d="M188.4,274.2V286h-0.6v-32.4h14.5c7.6,0,9,3.5,9,8.2v4.4c0,4.7-1.4,8-9,8H188.4z M202.3,273.6
			c7.1,0,8.4-3.1,8.4-7.4v-4.4c0-4.3-1.3-7.6-8.4-7.6h-13.9v19.4H202.3z"/>
	</g>
	<g>
		<path fill="#FFFFFF" d="M265.5,46.8c-8.9-0.1-11.3-3.3-11.3-8.1V21c0-4.9,2.5-8.1,11.6-8.1c9.1,0,11.8,3.2,11.8,8.1v17.7
			c0,4.8-2.6,8-11.5,8.1v4.6h-0.6V46.8z M265.8,46.2c8.6,0,11.2-3,11.2-7.5V21c0-4.5-2.6-7.5-11.2-7.5s-11,3-11,7.5v17.7
			C254.7,43.2,257.1,46.2,265.8,46.2z"/>
		<path fill="#FFFFFF" d="M254.3,106V73.6H268c4.7,0,6.8,2.9,6.8,6.8v4.1c0,3.7-0.7,6.1-3.6,7h0.7c4.9,0,6,2.2,6,6.4v8h-0.6v-8
			c0-4-0.8-5.9-5.4-5.9h-17V106H254.3z M254.9,74.2v17.3H268c5,0,6.2-2.5,6.2-6.9v-4.2c0-3.7-2-6.2-6.2-6.2H254.9z"/>
		<path fill="#FFFFFF" d="M276.9,134.2h-16.4c-3.4,0-5.5,1.9-5.5,4.9v5.5c0,2.4,1.6,4,4.3,4.3l12.8,1.3c3.6,0.4,5.3,2.2,5.3,5.5v5
			c0,3.4-2.6,5.5-6.7,5.5h-17.5v-0.6h17.5c3.7,0,6.1-1.9,6.1-4.9v-5c0-2.9-1.6-4.6-4.9-4.9l-12.8-1.3c-2.9-0.3-4.7-2.2-4.7-4.9v-5.5
			c0-3.4,2.3-5.5,6.1-5.5h16.4V134.2z"/>
		<path fill="#FFFFFF" d="M265.5,194.2h-12.3v-0.6h25.2v0.6h-12.3V226h-0.6V194.2z"/>
		<path fill="#FFFFFF" d="M255,253.6v25c0,4.5,2.3,7.5,10.6,7.5c8.7,0,11.2-3,11.2-7.5v-25h0.6v25c0,4.9-2.6,8.1-11.8,8.1
			c-8.8,0-11.2-3.2-11.2-8.1v-25H255z"/>
	</g>
	<g>
		<path fill="#FFFFFF" d="M320.7,13.6h0.6v12.8c0,2.2,0.4,4,1,5.6l4.1,9.8c0.9,2.1,1.6,3.7,3.8,3.7h4.6c2.4,0,3.1-1.6,3.8-3.6
			l3.8-9.8c0.6-1.6,1-3.4,1-5.6V13.6h0.6v12.8c0,2.2-0.4,4.1-1,5.8l-3.8,9.8c-0.9,2.2-1.6,4-4.4,4h-4.6c-2.6,0-3.4-1.7-4.3-4
			l-4.1-9.8c-0.7-1.7-1-3.6-1-5.8V13.6z"/>
		<path fill="#FFFFFF" d="M336.5,93.6l3.7,11c0.3,0.8,1,0.8,1.6,0.8h0.3c0.7,0,1.3-0.6,1.4-1.3l1.5-6.8c0.3-1.5,0.3-4.3,0.3-6.1
			V73.6h0.6v17.7c0,1.8,0.1,4.6-0.3,6.1l-1.5,6.8c-0.3,1.3-1,1.9-2,1.9h-0.4c-0.7,0-1.7-0.2-2-1L336,93.9c-0.8-2.3-1.5-2.5-2.5-2.5
			h-1.5c-1,0-1.7,0.2-2.5,2.5l-3.9,11.2c-0.3,0.8-1.3,1-2,1h-0.4c-1,0-1.7-0.5-2-1.9l-1.5-6.8c-0.4-1.5-0.3-4.3-0.3-6.1V73.6h0.6
			v17.6c0,1.8,0,4.6,0.3,6.1l1.5,6.8c0.1,0.7,0.7,1.3,1.4,1.3h0.3c0.6,0,1.3,0,1.6-0.8l3.9-11c0.8-2.3,1.7-2.8,2.9-2.8h1.5
			C334.8,90.7,335.7,91.2,336.5,93.6z"/>
		<path fill="#FFFFFF" d="M321.5,166h-0.6v-2.7c0-1.7,0-3.2,0.9-4.6l6.6-9.8l-6.6-9.7c-0.8-1.3-0.9-2.9-0.9-4.6v-0.9h0.6v0.9
			c0,1.7,0.1,3.2,0.8,4.4l6.6,9.7h7.1l6.6-9.7c0.8-1.1,0.8-2.7,0.8-4.4v-0.9h0.6v0.9c0,1.7,0,3.3-0.9,4.6l-6.7,9.8l6.7,9.7
			c0.8,1.3,0.9,2.9,0.9,4.6v2.7h-0.6v-2.7c0-1.7-0.1-3.2-0.8-4.4l-6.7-9.7h-7.2l-6.5,9.7c-0.7,1.1-0.8,2.7-0.8,4.4V166z"/>
		<path fill="#FFFFFF" d="M332.1,215.5h-0.8c-1.7,0-3.1-0.7-4.4-2.5l-5.2-7.8c-0.8-1.3-0.9-2.9-0.9-4.6v-6.9h0.6v6.9
			c0,1.7,0.1,3.2,0.8,4.4l5.2,7.8c1.1,1.6,2.5,2.2,3.8,2.2h2c1.5,0,2.8-0.5,3.9-2.2l5.4-7.8c0.8-1.1,0.8-2.7,0.8-4.4v-6.9h0.6v6.9
			c0,1.7-0.1,3.4-0.9,4.6l-5.4,7.8c-1.3,1.8-2.6,2.5-4.4,2.5h-0.7V226h-0.6V215.5z"/>
		<path fill="#FFFFFF" d="M321.3,281.4c-0.6,0.7-0.8,1.1-0.8,1.9v0.8c0,1.1,0.6,1.4,1.3,1.4H345v0.6h-23.3c-1.3,0-1.9-0.6-1.9-2v-1
			c0-0.9,0.4-1.5,1-2.2l22.3-22.6c0.7-0.7,0.8-1.1,0.8-1.9v-0.8c0-1.1-0.6-1.4-1.3-1.4h-22.4v-0.6h22.4c1.3,0,1.9,0.6,1.9,2v1
			c0,0.9-0.4,1.6-1,2.2L321.3,281.4z"/>
	</g>
</g>
</svg>
