<?xml version="1.0" encoding="utf-8"?>
<!-- Generator: Adobe Illustrator 19.2.1, SVG Export Plug-In . SVG Version: 6.00 Build 0)  -->
<svg version="1.1" id="Layer_1" xmlns="http://www.w3.org/2000/svg" xmlns:xlink="http://www.w3.org/1999/xlink" x="0px" y="0px"
	 width="1800px" height="1500px" viewBox="0 0 1800 1500" style="enable-background:new 0 0 1800 1500;" xml:space="preserve">
<style type="text/css">
	.st0{fill:#DC4227;}
	.st1{fill:#771F15;}
</style>
<g>
	<path class="st0" d="M29.601,236.836c-8,0-11.52-3.52-11.52-11.52V17.951c0-8,3.52-11.52,11.52-11.52h106.562
		c48.001,0,63.042,21.76,63.042,53.441v14.72c0,17.92-4.48,30.721-17.92,36.481c23.361,2.56,38.721,19.52,38.721,46.401v67.842
		c0,8-3.521,11.52-11.521,11.52h-49.601c-8,0-11.521-3.52-11.521-11.52v-48.961c0-9.6-3.2-13.76-12.16-13.76H90.402v62.722
		c0,8-3.52,11.52-11.521,11.52H29.601z M90.402,104.993h24c11.2,0,14.08-6.4,14.08-15.04v-10.88c0-8.64-2.88-15.041-14.08-15.041
		h-24V104.993z"/>
	<path class="st0" d="M267.359,236.836c-8,0-11.52-3.52-11.52-11.52V17.951c0-8,3.52-11.52,11.52-11.52h148.483
		c8,0,11.521,3.52,11.521,11.52v37.441c0,8-3.52,11.521-11.521,11.521h-88.322v24.641h62.401c8,0,11.521,3.52,11.521,11.52v34.241
		c0,8-3.521,11.521-11.521,11.521h-62.401v27.521h88.322c8,0,11.521,3.52,11.521,11.521v37.441c0,8-3.52,11.52-11.521,11.52H267.359
		z"/>
	<path class="st0" d="M538.722,236.836c-53.761,0-78.722-20.8-78.722-65.282V71.712c0-44.481,24.96-65.282,78.722-65.282h80.002
		c8,0,11.52,3.52,11.52,11.52v38.721c0,8-3.52,11.52-11.52,11.52h-66.562c-13.44,0-19.521,5.12-19.521,16v76.482
		c0,10.88,4.8,15.68,14.72,15.68h31.041v-49.921c0-8,3.52-11.521,11.52-11.521h49.601c8,0,11.521,3.52,11.521,11.521v98.882
		c0,8-3.521,11.52-11.521,11.52H538.722z"/>
	<path class="st0" d="M787.36,241.636c-79.362,0-98.882-26.241-98.882-65.282V17.951c0-8,3.52-11.52,11.52-11.52h50.241
		c8,0,11.521,3.52,11.521,11.52v145.924c0,8.64,3.84,15.04,26.241,15.04c22.72,0,26.561-6.4,26.561-15.04V17.951
		c0-8,3.2-11.52,11.52-11.52h48.641c8,0,11.521,3.52,11.521,11.52v158.404C886.242,215.396,866.722,241.636,787.36,241.636z"/>
	<path class="st0" d="M940.314,236.836c-8,0-11.521-3.52-11.521-11.52V17.951c0-8,3.521-11.52,11.521-11.52h49.602
		c8,0,11.521,3.52,11.521,11.52v158.404h43.841v-51.841c0-8,3.52-11.52,11.52-11.52h46.401c8,0,11.521,3.52,11.521,11.52v100.803
		c0,8-3.521,11.52-11.521,11.52H940.314z"/>
	<path class="st0" d="M1204.952,236.836h-47.041c-8,0-11.521-3.52-11.521-11.52v-84.482c0-12.8,3.84-28.8,12.48-51.201
		l27.841-72.642c2.56-7.36,7.68-10.56,16.32-10.56h86.082c8.32,0,13.44,3.2,16,10.56l27.841,72.642
		c8.64,22.401,12.48,38.401,12.48,51.201v84.482c0,8-3.521,11.52-11.521,11.52h-48.321c-8.64,0-12.48-3.52-12.48-11.52v-44.801
		h-56.641v44.801C1216.473,233.316,1212.952,236.836,1204.952,236.836z M1219.673,122.273h50.24l-15.04-48.641
		c-1.6-3.84-3.52-5.44-6.08-5.44h-8c-2.561,0-4.48,1.6-6.08,5.44L1219.673,122.273z"/>
	<path class="st0" d="M1396.311,236.836c-8,0-11.521-3.52-11.521-11.52V17.951c0-8,3.521-11.52,11.521-11.52h106.562
		c48.001,0,63.042,21.76,63.042,53.441v14.72c0,17.92-4.48,30.721-17.921,36.481c23.36,2.56,38.721,19.52,38.721,46.401v67.842
		c0,8-3.52,11.52-11.521,11.52h-49.601c-8,0-11.521-3.52-11.521-11.52v-48.961c0-9.6-3.2-13.76-12.16-13.76h-44.801v62.722
		c0,8-3.521,11.52-11.521,11.52H1396.311z M1457.112,104.993h24c11.2,0,14.081-6.4,14.081-15.04v-10.88
		c0-8.64-2.881-15.041-14.081-15.041h-24V104.993z"/>
	<path class="st1" d="M52.641,335.231h3.2v84.802h122.883v-84.802h3.2v172.804h-3.2v-84.802H55.841v84.802h-3.2V335.231z"/>
	<path class="st1" d="M418.08,452.994H293.277v55.041h-3.2v-68.162c0-11.84,1.92-21.76,5.44-31.041l20.48-52.481
		c4.8-11.84,8.641-21.121,23.361-21.121h31.361c14.08,0,17.92,8.96,23.04,21.44l22.081,52.161c3.52,9.28,5.44,19.201,5.44,31.041
		v68.162h-3.2V452.994z M293.277,449.794H418.08v-9.92c0-11.52-1.92-21.12-5.12-29.761l-22.081-52.161
		c-4.8-11.2-8.32-19.521-20.16-19.521h-31.361c-12.8,0-16.32,8.32-20.48,19.201l-20.48,52.481c-3.2,8.641-5.12,18.241-5.12,29.761
		V449.794z"/>
	<path class="st1" d="M518.236,508.035v-3.2h49.601V338.431h-49.601v-3.2h101.762v3.2h-48.961v166.404h48.961v3.2H518.236z"/>
	<path class="st1" d="M722.714,508.035V335.231h72.962c24.96,0,36.481,15.36,36.481,36.481v22.08
		c0,19.521-3.84,32.321-19.201,37.121h3.52c26.241,0,38.721,11.84,38.721,34.241v42.881h-3.2v-42.881
		c0-21.121-11.2-31.361-35.521-31.361h-90.562v74.242H722.714z M725.915,338.431v92.482h69.762c26.561,0,33.281-13.12,33.281-36.801
		v-22.4c0-19.841-10.56-33.281-33.281-33.281H725.915z"/>
	<path class="st1" d="M960.793,335.231h3.2v169.604h111.363v-63.042h3.2v66.241H960.793V335.231z"/>
	<path class="st1" d="M1171.99,508.035v-3.2h49.602V338.431h-49.602v-3.2h101.763v3.2h-48.961v166.404h48.961v3.2H1171.99z"/>
	<path class="st1" d="M1501.913,470.274V335.231h3.2v172.804h-3.2v-32.96L1380.95,339.392c-0.64-0.64-0.96-0.96-1.6-0.96
		c-0.641,0-0.641,0.64-0.641,0.96v168.644h-3.199V338.751c0-2.56,1.92-3.84,3.84-3.84s2.56,0.64,4.8,2.88L1501.913,470.274z"/>
	<path class="st1" d="M1725.59,508.035h-107.843V335.231h107.843v3.2h-104.643v80.322h78.722v3.2h-78.722v82.882h104.643V508.035z"
		/>
	<path class="st0" d="M12.96,825.315v-38.081c0-8,3.52-11.521,11.52-11.521h31.681V668.192H24.48c-8,0-11.52-3.52-11.52-11.52
		v-38.721c0-8,3.52-11.52,11.52-11.52h136.323c8,0,11.521,3.52,11.521,11.52v38.721c0,8-3.52,11.52-11.521,11.52h-31.041v107.522
		h31.041c8,0,11.521,3.521,11.521,11.521v38.081c0,8-3.52,11.521-11.521,11.521H24.48C16.48,836.836,12.96,833.315,12.96,825.315z
		 M143.523,804.835H94.562V638.431h48.961v-3.2H41.761v3.2h49.601v166.404H41.761v3.2h101.762V804.835z"/>
	<path class="st0" d="M223.199,836.836c-8,0-11.52-3.521-11.52-11.521V617.951c0-8,3.52-11.52,11.52-11.52h33.281
		c8.32,0,13.44,2.24,18.881,8.64l62.081,71.042v-68.162c0-8,3.52-11.52,11.521-11.52h48.001c8,0,11.521,3.52,11.521,11.52v207.365
		c0,8-3.521,11.521-11.521,11.521h-48.001c-8,0-11.521-3.521-11.521-11.521v-39.361l-54.721-66.241v105.602
		c0,8-3.52,11.521-11.52,11.521H223.199z M249.12,634.911c-1.92,0-3.84,1.28-3.84,3.84v169.284h3.2V639.392c0-0.32,0-0.96,0.64-0.96
		c0.64,0,0.96,0.32,1.6,0.96l120.962,135.683v32.961h3.2V635.231h-3.2v135.043L253.92,637.792
		C251.68,635.551,251.04,634.911,249.12,634.911z"/>
	<path class="st0" d="M464.156,836.836c-8,0-11.52-3.521-11.52-11.521V617.951c0-8,3.52-11.52,11.52-11.52h49.601
		c8,0,11.521,3.52,11.521,11.52v158.404h43.841v-51.841c0-8,3.521-11.52,11.521-11.52h46.401c8,0,11.521,3.52,11.521,11.52v100.802
		c0,8-3.52,11.521-11.521,11.521H464.156z M605.28,808.035v-66.241h-3.2v63.041H490.717V635.231h-3.2v172.804H605.28z"/>
	<path class="st0" d="M669.914,825.315v-38.081c0-8,3.52-11.521,11.52-11.521h31.681V668.192h-31.681c-8,0-11.52-3.52-11.52-11.52
		v-38.721c0-8,3.52-11.52,11.52-11.52h136.323c8,0,11.521,3.52,11.521,11.52v38.721c0,8-3.52,11.52-11.521,11.52h-31.041v107.522
		h31.041c8,0,11.521,3.521,11.521,11.521v38.081c0,8-3.52,11.521-11.521,11.521H681.434
		C673.434,836.836,669.914,833.315,669.914,825.315z M800.477,804.835h-48.961V638.431h48.961v-3.2H698.714v3.2h49.601v166.404
		h-49.601v3.2h101.762V804.835z"/>
	<path class="st0" d="M880.152,836.836c-8,0-11.52-3.521-11.52-11.521V617.951c0-8,3.52-11.52,11.52-11.52h33.281
		c8.32,0,13.44,2.24,18.881,8.64l62.081,71.042v-68.162c0-8,3.521-11.52,11.521-11.52h48.001c8,0,11.521,3.52,11.521,11.52v207.365
		c0,8-3.521,11.521-11.521,11.521h-48.001c-8,0-11.521-3.521-11.521-11.521v-39.361l-54.721-66.241v105.602
		c0,8-3.521,11.521-11.521,11.521H880.152z M906.073,634.911c-1.92,0-3.84,1.28-3.84,3.84v169.284h3.2V639.392
		c0-0.32,0-0.96,0.64-0.96c0.641,0,0.96,0.32,1.601,0.96l120.963,135.683v32.961h3.2V635.231h-3.2v135.043L910.874,637.792
		C908.633,635.551,907.993,634.911,906.073,634.911z"/>
	<path class="st0" d="M1121.109,836.836c-8,0-11.521-3.521-11.521-11.521V617.951c0-8,3.521-11.52,11.521-11.52h148.483
		c8,0,11.521,3.52,11.521,11.52v37.441c0,8-3.521,11.521-11.521,11.521h-88.322v24.641h62.402c8,0,11.52,3.52,11.52,11.52v34.241
		c0,8-3.52,11.521-11.52,11.521h-62.402v27.521h88.322c8,0,11.521,3.52,11.521,11.521v37.44c0,8-3.521,11.521-11.521,11.521
		H1121.109z M1147.67,804.835v-82.882h78.722v-3.2h-78.722v-80.322h104.643v-3.2H1144.47v172.804h107.843v-3.2H1147.67z"/>
	<path class="st1" d="M216.485,1076.354c0,40.321-18.56,68.481-102.402,68.481c-83.842,0-102.722-28.16-102.722-68.481V967.232
		c0-40.321,18.88-68.802,102.722-68.802c83.842,0,102.402,28.48,102.402,68.802V1076.354z M213.285,967.232
		c0-39.041-19.201-65.602-99.203-65.602c-80.001,0-99.522,26.561-99.522,65.602v109.122c0,39.041,19.521,65.281,99.522,65.281
		c80.002,0,99.203-26.24,99.203-65.281V967.232z M113.443,1112.195c-50.241,0-64.322-17.28-64.322-43.201v-94.402
		c0-25.92,14.081-43.2,64.322-43.2s64.961,17.28,64.961,43.2v94.402C178.404,1094.915,163.684,1112.195,113.443,1112.195z
		 M113.443,1108.995c47.681,0,61.761-16,61.761-40.001v-94.402c0-24-14.081-40-61.761-40c-47.681,0-61.122,16-61.122,40v94.402
		C52.321,1092.995,65.762,1108.995,113.443,1108.995z M87.202,978.752c0-8.32,3.84-14.72,26.88-14.72
		c23.361,0,26.881,6.399,26.881,14.72v86.082c0,8.641-3.52,15.041-26.881,15.041c-23.041,0-26.88-6.4-26.88-15.041V978.752z
		 M90.402,1064.834c0,7.681,5.44,11.841,23.68,11.841c18.241,0,23.681-4.16,23.681-11.841v-86.082c0-7.359-5.44-11.52-23.681-11.52
		c-17.92,0-23.68,4.16-23.68,11.52V1064.834z"/>
	<path class="st1" d="M453.285,1076.354c0,40.321-18.88,68.481-102.082,68.481c-83.202,0-102.083-28.16-102.083-68.481V917.951
		c0-10.24,4.48-14.721,14.72-14.721h50.241c10.24,0,14.721,4.48,14.721,14.721v145.923c0,7.681,5.44,11.841,23.041,11.841
		c17.92,0,23.36-4.16,23.36-11.841V917.951c0-10.24,4.16-14.721,14.72-14.721h48.641c10.24,0,14.72,4.48,14.72,14.721V1076.354z
		 M450.085,917.951c0-8-3.52-11.521-11.521-11.521h-48.641c-8.32,0-11.52,3.521-11.52,11.521v145.923
		c0,8.641-3.84,15.041-26.561,15.041c-22.401,0-26.241-6.4-26.241-15.041V917.951c0-8-3.52-11.521-11.521-11.521H263.84
		c-8,0-11.52,3.521-11.52,11.521v158.403c0,39.041,19.521,65.281,98.882,65.281s98.882-26.24,98.882-65.281V917.951z
		 M290.721,935.231v133.443c0,24,13.12,40.001,60.801,40.001s61.122-16.001,61.122-40.001V935.231h3.2v133.443
		c0,25.92-14.081,43.2-64.322,43.2s-64.001-17.28-64.001-43.2V935.231H290.721z"/>
	<path class="st1" d="M534.877,1125.315V971.393h-43.841c-10.24,0-14.72-4.48-14.72-14.721v-38.721
		c0-10.24,4.48-14.721,14.72-14.721H660c10.24,0,14.72,4.48,14.72,14.721v38.721c0,10.24-4.48,14.721-14.72,14.721h-43.841v153.923
		c0,10.24-4.48,14.721-14.721,14.721h-51.841C539.357,1140.036,534.877,1135.556,534.877,1125.315z M612.959,1125.315V968.192H660
		c8,0,11.52-3.521,11.52-11.521v-38.721c0-8-3.52-11.521-11.52-11.521H491.036c-8,0-11.52,3.521-11.52,11.521v38.721
		c0,8,3.52,11.521,11.52,11.521h47.041v157.123c0,8,3.52,11.521,11.521,11.521h51.841
		C609.439,1136.836,612.959,1133.315,612.959,1125.315z M573.918,938.432h-65.602v-3.2H642.72v3.2h-65.602v169.604h-3.2V938.432z"/>
	<path class="st1" d="M699.353,1125.315V917.951c0-10.24,4.48-14.721,14.72-14.721h49.601c10.24,0,14.721,4.48,14.721,14.721
		v155.203h37.441v-48.641c0-10.24,4.48-14.721,14.72-14.721h46.401c10.24,0,14.72,4.48,14.72,14.721v100.802
		c0,10.24-4.48,14.721-14.72,14.721H714.073C703.833,1140.036,699.353,1135.556,699.353,1125.315z M888.478,1125.315v-100.802
		c0-8-3.52-11.521-11.521-11.521h-46.401c-8,0-11.521,3.521-11.521,11.521v51.841h-43.841V917.951c0-8-3.52-11.521-11.521-11.521
		h-49.601c-8,0-11.52,3.521-11.52,11.521v207.364c0,8,3.52,11.521,11.52,11.521h162.884
		C884.958,1136.836,888.478,1133.315,888.478,1125.315z M737.434,935.231h3.2v169.604h111.362v-63.041h3.2v66.241H737.434V935.231z"
		/>
	<path class="st1" d="M916.63,1125.315v-38.081c0-10.24,4.479-14.72,14.72-14.72h28.48V971.393h-28.48
		c-10.24,0-14.72-4.48-14.72-14.721v-38.721c0-10.24,4.479-14.721,14.72-14.721h136.324c10.24,0,14.721,4.48,14.721,14.721v38.721
		c0,10.24-4.48,14.721-14.721,14.721h-27.841v101.122h27.841c10.24,0,14.721,4.479,14.721,14.72v38.081
		c0,10.24-4.48,14.721-14.721,14.721H931.35C921.11,1140.036,916.63,1135.556,916.63,1125.315z M1067.674,1136.836
		c8,0,11.521-3.521,11.521-11.521v-38.081c0-8-3.521-11.52-11.521-11.52h-31.041V968.192h31.041c8,0,11.521-3.521,11.521-11.521
		v-38.721c0-8-3.521-11.521-11.521-11.521H931.35c-8,0-11.521,3.521-11.521,11.521v38.721c0,8,3.521,11.521,11.521,11.521h31.681
		v107.522H931.35c-8,0-11.521,3.52-11.521,11.52v38.081c0,8,3.521,11.521,11.521,11.521H1067.674z M948.63,1108.035v-3.2h49.602
		V938.432H948.63v-3.2h101.763v3.2h-48.961v166.403h48.961v3.2H948.63z"/>
	<path class="st1" d="M1130.07,1140.036c-10.24,0-14.72-4.48-14.72-14.721V917.951c0-10.24,4.479-14.721,14.72-14.721h33.281
		c9.28,0,15.04,2.561,21.44,9.601l56.321,64.321v-59.201c0-10.24,4.479-14.721,14.72-14.721h48.002c10.24,0,14.72,4.48,14.72,14.721
		v207.364c0,10.24-4.479,14.721-14.72,14.721h-48.002c-10.24,0-14.72-4.48-14.72-14.721v-38.081l-48.321-58.561v96.642
		c0,10.24-4.48,14.721-14.721,14.721H1130.07z M1189.592,1125.315v-105.603l54.722,66.242v39.36c0,8,3.52,11.521,11.52,11.521
		h48.002c8,0,11.52-3.521,11.52-11.521V917.951c0-8-3.52-11.521-11.52-11.521h-48.002c-8,0-11.52,3.521-11.52,11.521v68.161
		l-62.082-71.041c-5.439-6.4-10.56-8.641-18.88-8.641h-33.281c-8,0-11.521,3.521-11.521,11.521v207.364
		c0,8,3.521,11.521,11.521,11.521h48.001C1186.071,1136.836,1189.592,1133.315,1189.592,1125.315z M1278.554,1070.274V935.231h3.2
		v172.804h-3.2v-32.961l-120.963-135.683c-0.64-0.64-0.96-0.96-1.6-0.96c-0.641,0-0.641,0.64-0.641,0.96v168.644h-3.199V938.751
		c0-2.56,1.92-3.84,3.84-3.84s2.56,0.641,4.8,2.88L1278.554,1070.274z"/>
	<path class="st1" d="M1356.308,1125.315V917.951c0-10.24,4.479-14.721,14.72-14.721h148.483c10.24,0,14.721,4.48,14.721,14.721
		v37.44c0,10.24-4.48,14.721-14.721,14.721h-85.122v18.24h59.202c10.24,0,14.72,4.48,14.72,14.721v34.24
		c0,10.24-4.479,14.721-14.72,14.721h-59.202v21.12h85.122c10.24,0,14.721,4.48,14.721,14.721v37.44
		c0,10.24-4.48,14.721-14.721,14.721h-148.483C1360.787,1140.036,1356.308,1135.556,1356.308,1125.315z M1531.031,1125.315v-37.44
		c0-8-3.521-11.521-11.521-11.521h-88.322v-27.521h62.402c8,0,11.52-3.521,11.52-11.521v-34.24c0-8.001-3.52-11.521-11.52-11.521
		h-62.402v-24.641h88.322c8,0,11.521-3.521,11.521-11.521v-37.44c0-8-3.521-11.521-11.521-11.521h-148.483
		c-8,0-11.521,3.521-11.521,11.521v207.364c0,8,3.521,11.521,11.521,11.521h148.483
		C1527.511,1136.836,1531.031,1133.315,1531.031,1125.315z M1502.23,1108.035h-107.843V935.231h107.843v3.2h-104.643v80.321h78.722
		v3.2h-78.722v82.882h104.643V1108.035z"/>
	<path class="st0" d="M4.64,1460.196v-37.44c0-5.761,1.6-9.28,4.48-11.841l32.001-26.88c-22.721-7.041-36.481-21.761-36.481-52.802
		v-33.601c0-19.2,6.4-34.241,18.561-44.481l41.601-34.881c11.52-9.6,28.8-15.04,50.561-15.04h89.602
		c10.24,0,14.72,4.48,14.72,14.721v38.081c0,5.76-1.6,9.28-4.48,11.84l-28.801,24.001c27.201,6.08,44.801,20.48,44.801,55.041
		v33.601c0,19.2-6.4,34.241-18.881,44.481l-41.281,34.561c-11.84,9.92-29.121,15.36-50.561,15.36H19.36
		C9.12,1474.917,4.64,1470.437,4.64,1460.196z M228.005,1380.515v-33.601c0-35.841-19.84-48.642-49.921-53.121l-47.681-6.4
		c-5.44-0.64-8.64-4.48-8.64-10.24s3.2-9.601,8.64-9.601h74.562c8,0,11.52-3.52,11.52-11.52v-38.081c0-8-3.52-11.521-11.52-11.521
		h-89.602c-41.601,0-66.242,19.841-66.242,56.321v33.601c0,35.841,19.521,48.642,49.601,53.121l48.001,6.721
		c5.44,0.64,8.32,3.52,8.32,10.88c0,5.12-2.88,9.28-8.32,9.28H60.642c-8,0-11.521,3.521-11.521,11.521v37.44
		c0,8,3.52,11.521,11.521,11.521h101.122C203.045,1436.836,228.005,1416.995,228.005,1380.515z M187.685,1238.432h-71.042
		c-17.92,0-29.44,10.88-29.44,25.92v26.241c0,15.04,6.4,19.521,16.32,21.44l67.521,13.76c12.8,2.561,22.081,8.961,22.081,31.361
		v18.561c0,18.88-13.76,32.32-35.521,32.32H77.922v-3.2h79.682c19.841,0,32.321-12.16,32.321-29.12v-18.561
		c0-20.16-7.68-25.601-19.521-28.161l-67.521-13.76c-11.2-2.24-18.88-7.04-18.88-24.641v-26.241c0-16.96,12.8-29.12,32.641-29.12
		h71.042V1238.432z"/>
	<path class="st0" d="M324.642,1471.717c-1.92,1.92-5.44,3.2-9.92,3.2h-49.601c-10.24,0-14.72-4.48-14.72-14.721v-207.364
		c0-5.761,1.6-9.28,4.48-11.841l41.281-34.881c2.24-1.92,5.76-2.88,10.24-2.88h49.601c10.24,0,14.72,4.48,14.72,14.721v66.241h5.76
		v-31.36c0-5.761,1.6-9.28,4.48-11.841l41.281-34.881c2.24-1.92,5.76-2.88,10.24-2.88h49.601c10.24,0,14.721,4.48,14.721,14.721
		v207.364c0,5.761-1.6,9.28-4.48,11.841l-41.601,34.561c-1.92,1.92-5.44,3.2-9.92,3.2h-49.601c-10.24,0-14.72-4.48-14.72-14.721
		v-67.842h-5.76v32.961c0,5.761-1.6,9.28-4.48,11.841L324.642,1471.717z M367.523,1425.315v-71.041h53.441v71.041
		c0,8,3.52,11.521,11.52,11.521h49.601c8,0,11.521-3.521,11.521-11.521v-207.364c0-8-3.52-11.521-11.521-11.521h-49.601
		c-8,0-11.52,3.521-11.52,11.521v69.441h-53.441v-69.441c0-8-3.52-11.521-11.52-11.521h-49.601c-8,0-11.521,3.521-11.521,11.521
		v207.364c0,8,3.52,11.521,11.521,11.521h49.601C364.003,1436.836,367.523,1433.315,367.523,1425.315z M329.442,1235.231h3.2v84.802
		h122.883v-84.802h3.2v172.804h-3.2v-84.802H332.642v84.802h-3.2V1235.231z"/>
	<path class="st0" d="M582.24,1474.917h-47.041c-10.24,0-14.721-4.48-14.721-14.721v-84.481c0-13.121,3.84-29.441,12.8-52.481
		l27.521-72.321c1.28-3.841,3.2-6.4,5.44-8.641l0.32-0.32l40.961-34.24c3.52-3.2,8-4.48,14.081-4.48h86.082
		c9.92,0,16,3.84,18.88,12.48l27.84,72.642c8.96,23.04,12.8,39.361,12.8,52.481v84.481c0,5.761-1.6,9.28-4.48,11.841l-41.601,34.561
		c-1.92,1.92-5.44,3.2-9.92,3.2h-48.321c-10.88,0-15.68-4.8-15.68-14.721v-41.601h-8.96v6.72c0,5.761-1.6,9.28-4.48,11.841
		l-41.601,34.561C590.24,1473.637,586.72,1474.917,582.24,1474.917z M635.041,1380.515h56.642v44.801c0,8,3.84,11.521,12.48,11.521
		h48.321c8,0,11.521-3.521,11.521-11.521v-84.481c0-12.801-3.84-28.801-12.48-51.201l-27.841-72.642
		c-2.56-7.36-7.68-10.561-16-10.561h-86.082c-8.64,0-13.76,3.2-16.32,10.561l-27.841,72.642c-8.64,22.4-12.48,38.4-12.48,51.201
		v84.481c0,8,3.52,11.521,11.521,11.521h47.041c8,0,11.52-3.521,11.52-11.521V1380.515z M726.883,1352.994H602.08v55.041h-3.2
		v-68.161c0-11.841,1.92-21.761,5.44-31.041l20.48-52.481c4.8-11.84,8.641-21.12,23.361-21.12h31.361
		c14.08,0,17.92,8.96,23.041,21.44l22.081,52.161c3.52,9.28,5.44,19.2,5.44,31.041v68.161h-3.2V1352.994z M602.08,1349.794h124.803
		v-9.92c0-11.521-1.92-21.121-5.12-29.761l-22.081-52.161c-4.8-11.2-8.32-19.521-20.16-19.521h-31.361
		c-12.8,0-16.32,8.32-20.48,19.2l-20.48,52.481c-3.2,8.64-5.12,18.24-5.12,29.761V1349.794z M659.361,1268.192h8
		c2.56,0,4.48,1.6,6.081,5.439l15.04,48.642h-50.241l15.041-48.642C654.881,1269.792,656.801,1268.192,659.361,1268.192z"/>
	<path class="st0" d="M913.437,1474.917H805.594c-10.24,0-14.72-4.48-14.72-14.721v-207.364c0-5.761,1.6-9.28,4.48-11.841
		l41.281-34.881c2.24-1.92,5.76-2.88,10.24-2.88h107.842c56.322,0,81.922,22.081,81.922,68.481v99.843
		c0,23.36-6.72,40.32-20.16,51.841l-41.601,34.561C961.758,1469.156,941.278,1474.917,913.437,1474.917z M1033.44,1371.555v-99.843
		c0-44.48-24.961-65.281-78.723-65.281H846.875c-8,0-11.521,3.521-11.521,11.521v207.364c0,8,3.52,11.521,11.521,11.521h107.842
		C1008.479,1436.836,1033.44,1416.035,1033.44,1371.555z M870.236,1235.231h77.441c43.521,0,51.201,19.841,51.201,44.48v84.803
		c0,24.641-7.04,43.521-51.201,43.521h-77.441V1235.231z M873.436,1238.432v166.403h74.241c40.961,0,48.001-16.96,48.001-40.32
		v-84.803c0-23.36-7.68-41.28-48.001-41.28H873.436z M946.078,1267.552c10.24,0,15.04,4.801,15.04,15.36v77.762
		c0,10.881-4.8,15.681-15.04,15.681h-38.081v-108.803H946.078z M911.197,1306.593v66.562h5.44v-55.361
		C916.637,1312.033,915.037,1308.193,911.197,1306.593z"/>
	<path class="st0" d="M1076.313,1474.917c-10.24,0-14.721-4.48-14.721-14.721v-207.364c0-5.761,1.6-9.28,4.48-11.841l41.28-34.881
		c2.24-1.92,5.761-2.88,10.24-2.88h148.483c10.24,0,14.721,4.48,14.721,14.721v37.44c0,5.761-1.601,9.28-4.48,11.841l-27.521,22.72
		c4.16,2.24,6.08,6.4,6.08,13.121v34.24c0,5.761-1.6,9.28-4.479,11.841l-28.481,24h44.161c10.24,0,14.721,4.48,14.721,14.721v37.44
		c0,5.761-1.601,9.28-4.48,11.841l-41.601,34.561c-1.92,1.92-5.44,3.2-9.92,3.2H1076.313z M1277.598,1425.315v-37.44
		c0-8-3.521-11.521-11.521-11.521h-88.322v-27.521h62.402c8,0,11.52-3.521,11.52-11.521v-34.24c0-8.001-3.52-11.521-11.52-11.521
		h-62.402v-24.641h88.322c8,0,11.521-3.521,11.521-11.521v-37.44c0-8-3.521-11.521-11.521-11.521h-148.483
		c-8,0-11.521,3.521-11.521,11.521v207.364c0,8,3.521,11.521,11.521,11.521h148.483
		C1274.077,1436.836,1277.598,1433.315,1277.598,1425.315z M1248.797,1408.035h-107.843v-172.804h107.843v3.2h-104.643v80.321
		h78.722v3.2h-78.722v82.882h104.643V1408.035z"/>
</g>
<g>
</g>
<g>
</g>
<g>
</g>
<g>
</g>
<g>
</g>
<g>
</g>
<g>
</g>
<g>
</g>
<g>
</g>
<g>
</g>
<g>
</g>
<g>
</g>
<g>
</g>
<g>
</g>
<g>
</g>
</svg>
