<?xml version="1.0" encoding="utf-8"?>
<!-- Generator: Adobe Illustrator 17.1.0, SVG Export Plug-In . SVG Version: 6.00 Build 0)  -->
<!DOCTYPE svg PUBLIC "-//W3C//DTD SVG 1.1//EN" "http://www.w3.org/Graphics/SVG/1.1/DTD/svg11.dtd">
<svg version="1.1" xmlns="http://www.w3.org/2000/svg" xmlns:xlink="http://www.w3.org/1999/xlink" x="0px" y="0px"
	 viewBox="0 0 2000 1500" enable-background="new 0 0 2000 1500" xml:space="preserve">
<g id="Layer_1">
</g>
<g id="Layer_2">
	<rect x="441.87" y="121.16" fill="none" stroke="#681A1B" stroke-miterlimit="10" width="297.26" height="327.21"/>
	<rect x="441.87" y="448.37" fill="none" stroke="#681A1B" stroke-miterlimit="10" width="297.26" height="315.84"/>
	<rect x="441.87" y="764.21" fill="none" stroke="#681A1B" stroke-miterlimit="10" width="297.26" height="321.33"/>
	<rect x="441.87" y="1085.54" fill="none" stroke="#681A1B" stroke-miterlimit="10" width="297.26" height="384.78"/>
	<g>
		<path fill="#FFFFFF" d="M490.88,419.53c-9.45,0-13.61-4.16-13.61-13.61V160.87c0-9.45,4.16-13.61,13.61-13.61h117.23
			c51.43,0,72.61,24.58,72.61,57.86v18.15c0,19.28-5.67,33.65-22.31,40.84c27.23,2.65,47.65,23.07,47.65,58.62v34.79
			c0,38.19-24.96,62.02-73.36,62.02H490.88z M562.35,252.38h28.74c12.1,0,14.37-7.19,14.37-15.13v-10.59
			c0-7.94-2.27-15.13-14.37-15.13h-28.74V252.38z M562.35,355.24h45.76c12.1,0,14.37-7.19,14.37-15.13v-14.75
			c0-7.94-2.27-14.75-14.37-14.75h-45.76V355.24z"/>
		<path fill="#FFFFFF" d="M476.51,558.29v-72.61c0-9.45,4.16-13.61,13.61-13.61h58.24c9.45,0,13.61,4.16,13.61,13.61v62.02
			c0,5.3,0,10.59,3.4,15.88l14.75,27.23c2.65,4.54,4.92,6.43,9.08,6.43h3.78c4.16,0,6.43-1.89,9.08-6.43l15.13-27.23
			c3.4-5.3,3.4-10.59,3.4-15.88v-62.02c0-9.45,4.16-13.61,13.61-13.61h56.35c9.45,0,13.61,4.16,13.61,13.61v72.61
			c0,19.67-3.03,31.01-14.37,46.51l-55.21,77.52v48.41c0,9.45-4.16,13.61-13.61,13.61H559.7c-9.83,0-13.61-4.16-13.61-13.61v-48.78
			l-55.21-77.15C479.15,589.3,476.51,577.96,476.51,558.29z"/>
		<path fill="#FFFFFF" d="M490.5,1064.63c-9.45,0-13.61-4.16-13.61-13.62V805.97c0-9.45,4.16-13.61,13.61-13.61h121.77
			c56.72,0,74.5,25.72,74.5,63.15v17.39c0,21.18-5.29,36.31-21.18,43.11c23.07,3.03,41.98,23.07,41.98,54.83v80.17
			c0,9.46-4.16,13.62-13.61,13.62h-58.61c-9.45,0-13.61-4.16-13.61-13.62v-57.86c0-11.34-3.78-16.26-14.37-16.26h-45v74.12
			c0,9.46-4.16,13.62-13.61,13.62H490.5z M562.35,908.83h24.2c13.23,0,16.64-7.56,16.64-17.77V878.2c0-10.21-3.4-17.78-16.64-17.78
			h-24.2V908.83z"/>
		<path fill="#FFFFFF" d="M476.51,1344.83c0-22.31,3.78-37.81,10.97-56.72l22.69-65.42c3.4-7.56,7.19-12.1,13.24-13.99
			c-11.34-9.46-15.13-22.69-15.13-38.2v-21.93c0-32.15,16.26-54.08,82.06-54.08c65.8,0,82.06,21.93,82.06,54.08v21.93
			c0,15.51-3.78,28.74-15.12,38.2c6.43,1.89,10.21,6.05,13.23,13.99l22.69,65.42c7.19,18.91,10.97,34.41,10.97,56.72v88.49
			c0,9.45-3.78,13.61-13.61,13.61h-58.24c-9.45,0-13.61-4.16-13.61-13.61v-45.38h-59.75v45.38c0,9.45-4.16,13.61-13.61,13.61h-55.21
			c-9.45,0-13.61-4.16-13.61-13.61V1344.83z M562.35,1319.11h52.94l-15.88-51.43c-1.89-4.91-3.03-6.43-7.19-6.43h-6.43
			c-4.16,0-5.29,1.51-7.19,6.43L562.35,1319.11z M613.02,1159.91c0-9.83-3.4-15.13-22.31-15.13c-18.53,0-21.56,5.3-21.56,15.13
			v13.24c0,10.97,3.03,16.26,21.56,16.26c18.91,0,22.31-5.29,22.31-16.26V1159.91z"/>
	</g>
	<g>
		<path fill="#EAD57D" d="M518.48,181.29h73.36c41.98,0,49.54,18.15,49.54,40.08v24.2c0,15.13-2.65,28.74-24.2,34.41
			c41.98,0,49.16,18.53,49.16,43.49v24.2c0,22.31-7.19,37.82-49.54,37.82h-98.32V181.29z M522.26,185.07v94.92h69.58
			c41.6,0,45.76-16.26,45.76-34.41v-24.2c0-20.42-7.56-36.3-45.76-36.3H522.26z M522.26,283.77v97.94h94.54
			c37.81,0,45.76-13.23,45.76-34.03v-24.2c0-22.69-7.19-39.71-45.38-39.71H522.26z"/>
		<path fill="#EAD57D" d="M521.13,506.11v43.49c0,10.59,0.38,20.04,5.3,27.61l32.9,49.16c6.81,10.21,15.51,13.61,24.2,13.61h12.86
			c9.45,0,17.77-3.4,24.58-13.61L655,577.2c4.92-7.19,5.29-17.02,5.29-27.61v-43.49h3.78v43.49c0,10.97-0.38,21.18-5.67,29.12
			l-34.03,49.16c-7.94,11.34-16.26,15.88-27.98,15.88h-4.16v66.56h-3.78v-66.56h-4.92c-10.97,0-19.66-4.16-27.61-15.88l-32.9-49.16
			c-5.29-7.94-5.67-18.15-5.67-29.12v-43.49H521.13z"/>
		<path fill="#EAD57D" d="M603.95,826.39c29.5,0,43.11,18.15,43.11,43.11v26.09c0,23.07-4.54,38.2-22.69,43.87h4.16
			c31.01,0,37.82,13.99,37.82,40.46v50.68h-3.78v-50.68c0-24.96-5.29-37.06-34.03-37.06H521.51v87.74h-3.78V826.39H603.95z
			 M521.51,830.17v109.29h82.44c31.39,0,39.33-15.51,39.33-43.49V869.5c0-23.45-12.48-39.33-39.33-39.33H521.51z"/>
		<path fill="#EAD57D" d="M516.21,1332.35c0-13.99,2.27-25.71,6.43-36.68l24.2-54.46c6.05-13.62,10.21-24.96,27.61-24.96h29.12
			c16.64,0,20.42,11.34,27.23,25.34l26.09,54.08c4.92,10.59,6.43,22.69,6.43,36.68v80.55h-3.78v-65.04H520v65.04h-3.78V1332.35z
			 M520,1344.07h139.54v-11.72c0-13.62-2.27-24.96-6.05-35.17l-26.09-54.08c-5.67-13.23-9.83-23.06-23.82-23.06h-29.12
			c-15.13,0-19.29,9.83-24.2,22.69l-24.2,54.45c-3.78,10.21-6.05,21.56-6.05,35.17V1344.07z M536.63,1155.75
			c0-22.69,8.32-38.19,53.32-38.19s54.08,15.88,54.08,38.19v14.75c0,22.69-9.08,37.82-54.08,37.82s-53.32-15.13-53.32-37.82V1155.75
			z M540.42,1155.75v14.75c0,21.18,9.08,34.04,49.54,34.04s50.3-12.86,50.3-34.04v-14.75c0-20.8-9.83-34.41-50.3-34.41
			S540.42,1134.57,540.42,1155.75z"/>
	</g>
	<g>
		<rect x="850.22" y="95.75" fill="none" stroke="#681A1B" stroke-miterlimit="10" width="297.26" height="322.13"/>
		<rect x="850.22" y="417.88" fill="none" stroke="#681A1B" stroke-miterlimit="10" width="297.26" height="346.34"/>
		<rect x="850.22" y="764.21" fill="none" stroke="#681A1B" stroke-miterlimit="10" width="297.26" height="321.33"/>
		<rect x="850.22" y="1085.54" fill="none" stroke="#681A1B" stroke-miterlimit="10" width="297.26" height="384.78"/>
	</g>
	<g>
		<path fill="#FFFFFF" d="M885.23,194.45c0-45.76,19.29-77.14,113.07-77.14c94.16,0,113.83,31.39,113.83,77.14v187.19
			c0,9.45-4.16,13.99-13.62,13.99h-57.48c-9.46,0-13.62-4.54-13.62-13.99v-56.34h-59.37v56.34c0,9.45-4.16,13.99-13.62,13.99h-55.59
			c-9.46,0-13.62-4.54-13.62-13.99V194.45z M968.05,256.09h59.37V207.3c0-10.21-3.03-17.77-29.5-17.77
			c-26.85,0-29.87,7.56-29.87,17.77V256.09z"/>
		<path fill="#FFFFFF" d="M964.65,704.94c-62.02-3.4-80.93-33.65-80.93-76.77V525.69c0-46.13,21.56-77.52,93.03-77.52h118.36
			c9.45,0,13.61,4.16,13.61,13.61v45.76c0,9.45-4.16,13.61-13.61,13.61H993.01c-19.66,0-23.06,9.08-23.06,18.91v74.87
			c0,10.59,3.4,18.15,23.06,18.15h102.11c9.45,0,13.61,4.16,13.61,13.61v45c0,9.46-4.16,13.62-13.61,13.62h-53.32l-12.86,36.3
			c-2.65,7.94-7.56,11.34-17.4,11.34h-47.65c-12.86,0-14.75-6.05-11.34-15.12L964.65,704.94z"/>
		<path fill="#FFFFFF" d="M885.23,861.86c0-45.76,19.29-77.15,113.07-77.15c94.16,0,113.83,31.39,113.83,77.15v187.19
			c0,9.46-4.16,13.99-13.62,13.99h-57.48c-9.46,0-13.62-4.53-13.62-13.99V992.7h-59.37v56.34c0,9.46-4.16,13.99-13.62,13.99h-55.59
			c-9.46,0-13.62-4.53-13.62-13.99V861.86z M968.05,923.5h59.37v-48.78c0-10.21-3.03-17.78-29.5-17.78
			c-26.85,0-29.87,7.56-29.87,17.78V923.5z"/>
		<path fill="#FFFFFF" d="M932.13,1177.23c-8.7,1.13-12.86-3.78-12.86-12.48v-36.3c0-9.46,4.16-12.48,13.62-13.62l131.98-16.26
			c8.7-1.13,12.86,3.78,12.86,12.48v36.31c0,9.45-4.16,12.48-13.62,13.61L932.13,1177.23z M968.43,1446.85
			c-9.46,0-13.62-4.16-13.62-13.61v-229.92c0-9.45,4.16-13.61,13.62-13.61h60.12c9.46,0,13.62,4.16,13.62,13.61v229.92
			c0,9.45-4.16,13.61-13.62,13.61H968.43z"/>
	</g>
	<g>
		<path fill="#EAD57D" d="M924.94,203.9c0-30.63,13.99-51.05,73.36-51.05c58.61,0,73.36,20.42,73.36,51.05v157.69h-3.78v-68.45
			H928.73v68.45h-3.78V203.9z M928.73,289.37h139.16V203.9c0-28.36-13.99-47.27-69.58-47.27c-56.35,0-69.58,18.91-69.58,47.27
			V289.37z"/>
		<path fill="#EAD57D" d="M924.94,531.74c0-35.92,12.1-49.54,60.51-49.54h89.24v3.78h-89.24c-44.62,0-56.72,12.1-56.72,45.76v90.76
			c0,32.9,11.34,45,56.72,45h89.24v3.78h-57.48l-17.39,47.65h-3.78l17.02-47.65h-27.6c-49.16,0-60.51-13.62-60.51-48.78V531.74z"/>
		<path fill="#EAD57D" d="M924.94,871.31c0-30.63,13.99-51.05,73.36-51.05c58.61,0,73.36,20.42,73.36,51.05v157.69h-3.78v-68.45
			H928.73v68.45h-3.78V871.31z M928.73,956.78h139.16v-85.46c0-28.36-13.99-47.27-69.58-47.27c-56.35,0-69.58,18.91-69.58,47.27
			V956.78z"/>
		<path fill="#EAD57D" d="M1043.68,1130.33v3.78l-90.38,11.34v-3.78L1043.68,1130.33z M1000.57,1223.74v189.08h-3.78v-189.08
			H1000.57z"/>
	</g>
	<rect x="1666.92" y="159.45" fill="none" stroke="#681A1B" stroke-miterlimit="10" width="297.26" height="327.21"/>
	<rect x="1666.92" y="486.66" fill="none" stroke="#681A1B" stroke-miterlimit="10" width="297.26" height="328.97"/>
	<rect x="1666.92" y="815.64" fill="none" stroke="#681A1B" stroke-miterlimit="10" width="297.26" height="322.56"/>
	<rect x="1666.92" y="1138.19" fill="none" stroke="#681A1B" stroke-miterlimit="10" width="297.26" height="332.13"/>
	<g>
		<path fill="#FFFFFF" d="M1715.55,457.06c-9.45,0-13.61-4.16-13.61-13.61V198.4c0-9.45,4.16-13.61,13.61-13.61h39.33
			c9.83,0,15.88,2.65,22.31,10.21l68.07,83.95V198.4c0-9.45,4.16-13.61,13.62-13.61h56.72c9.45,0,13.61,4.16,13.61,13.61v245.05
			c0,9.45-4.16,13.61-13.61,13.61h-56.72c-9.46,0-13.62-4.16-13.62-13.61v-46.51l-59.37-78.28v124.79c0,9.45-4.16,13.61-13.61,13.61
			H1715.55z"/>
		<path fill="#FFFFFF" d="M1705.34,771.29v-45c0-9.45,4.16-13.62,13.61-13.62h50.68V585.62h-50.68c-9.45,0-13.61-4.16-13.61-13.61
			v-45.76c0-9.45,4.16-13.61,13.61-13.61h192.86c9.45,0,13.61,4.16,13.61,13.61V572c0,9.45-4.16,13.61-13.61,13.61h-50.68v127.06
			h50.68c9.45,0,13.61,4.16,13.61,13.62v45c0,9.45-4.16,13.61-13.61,13.61h-192.86C1709.5,784.91,1705.34,780.75,1705.34,771.29z"/>
		<path fill="#FFFFFF" d="M1783.62,1117.67c-9.46,0-13.62-4.16-13.62-13.62V918.38h-54.46c-9.45,0-13.61-4.16-13.61-13.61v-45.76
			c0-9.45,4.16-13.61,13.61-13.61h199.67c9.46,0,13.62,4.16,13.62,13.61v45.76c0,9.45-4.16,13.61-13.62,13.61h-54.46v185.68
			c0,9.45-4.16,13.62-13.61,13.62H1783.62z"/>
		<path fill="#FFFFFF" d="M1715.93,1440.97c-9.45,0-13.61-4.16-13.61-13.61v-245.05c0-9.45,4.16-13.61,13.61-13.61h195.89
			c9.45,0,13.61,4.16,13.61,13.61v44.24c0,9.45-4.16,13.62-13.61,13.62h-124.79v29.12h94.16c9.46,0,13.62,3.78,13.62,13.62v40.46
			c0,9.45-4.16,13.62-13.62,13.62h-94.16v32.52h124.79c9.45,0,13.61,4.16,13.61,13.61v44.24c0,9.45-4.16,13.61-13.61,13.61H1715.93z
			"/>
	</g>
	<g>
		<path fill="#EAD57D" d="M1752.23,221.85l133.11,156.56V218.82h3.78v204.21h-3.78v-38.95l-136.89-160.34
			c-0.75-0.76-1.13-1.14-1.89-1.14c-0.76,0-0.76,0.76-0.76,1.14v199.29h-3.78V222.98c0-3.03,2.27-4.54,4.54-4.54
			C1748.83,218.44,1749.59,219.2,1752.23,221.85z"/>
		<path fill="#EAD57D" d="M1813.5,747.09V550.45h-74.12v-3.78h152.02v3.78h-74.12v196.64h74.12v3.78h-152.02v-3.78H1813.5z"/>
		<path fill="#EAD57D" d="M1813.5,883.21h-77.52v-3.78h158.83v3.78h-77.52v200.42h-3.78V883.21z"/>
		<path fill="#EAD57D" d="M1742.78,1202.74h148.62v3.78h-144.83v94.92h114.2v3.78h-114.2v97.94h144.83v3.78h-148.62V1202.74z"/>
	</g>
	<g>
		<rect x="1258.57" y="489.03" fill="none" stroke="#681A1B" stroke-miterlimit="10" width="297.26" height="326.01"/>
		<rect x="1258.57" y="815.04" fill="none" stroke="#681A1B" stroke-miterlimit="10" width="297.26" height="326.41"/>
		<rect x="1258.57" y="1141.45" fill="none" stroke="#681A1B" stroke-miterlimit="10" width="297.26" height="328.87"/>
		<g>
			<rect x="1258.57" y="166.9" fill="none" stroke="#681A1B" stroke-miterlimit="10" width="297.26" height="322.13"/>
		</g>
	</g>
	<g>
		<path fill="#FFFFFF" d="M1375.27,469.43c-9.46,0-13.62-4.16-13.62-13.61V270.14h-54.46c-9.45,0-13.61-4.16-13.61-13.61v-45.76
			c0-9.45,4.16-13.61,13.61-13.61h199.67c9.46,0,13.62,4.16,13.62,13.61v45.76c0,9.45-4.16,13.61-13.62,13.61h-54.46v185.68
			c0,9.45-4.16,13.61-13.61,13.61H1375.27z"/>
		<path fill="#FFFFFF" d="M1307.2,789.72c-9.45,0-13.61-4.16-13.61-13.62V531.05c0-9.45,4.16-13.61,13.61-13.61h121.77
			c56.72,0,74.5,25.72,74.5,63.15v17.4c0,21.18-5.3,36.3-21.18,43.11c23.06,3.03,41.97,23.07,41.97,54.83v80.17
			c0,9.46-4.16,13.62-13.61,13.62h-58.62c-9.46,0-13.62-4.16-13.62-13.62v-57.86c0-11.34-3.78-16.26-14.37-16.26h-45v74.12
			c0,9.46-4.16,13.62-13.61,13.62H1307.2z M1379.05,633.91h24.2c13.24,0,16.64-7.56,16.64-17.77v-12.86
			c0-10.21-3.4-17.77-16.64-17.77h-24.2V633.91z"/>
		<path fill="#FFFFFF" d="M1281.86,1100.92v-96.05c0-22.31,3.78-37.82,10.97-56.73l35.92-90.38c4.16-11.72,10.59-15.5,23.45-15.5
			h158.82c9.46,0,13.62,4.16,13.62,13.61v44.24c0,9.46-4.16,13.62-13.62,13.62h-38.95v29.12h38.57c9.45,0,13.61,3.78,13.61,13.62
			v40.46c0,9.46-4.16,13.62-13.61,13.62h-38.57v32.52h38.95c9.46,0,13.62,4.16,13.62,13.61v44.24c0,9.46-4.16,13.62-13.62,13.62
			H1409.3c-9.46,0-13.62-4.16-13.62-13.62v-52.94h-37.06v52.94c0,9.46-4.16,13.62-13.61,13.62h-49.54
			C1286.02,1114.53,1281.86,1110.38,1281.86,1100.92z M1362.79,979.15h32.9v-65.42h-3.4c-4.16,0-5.3,1.51-7.19,6.43L1362.79,979.15z
			"/>
		<path fill="#FFFFFF" d="M1307.58,1442.38c-9.45,0-13.61-4.16-13.61-13.61v-245.05c0-9.46,4.16-13.62,13.61-13.62h58.62
			c9.45,0,13.62,4.16,13.62,13.62v86.98h8.69l38.95-88.11c3.78-9.07,9.08-12.48,18.91-12.48h58.24c8.7,0,11.72,4.54,8.32,12.48
			l-38.57,88.11c28.36,1.51,46.51,21.18,46.51,51.43v106.64c0,9.45-4.16,13.61-13.61,13.61h-58.24c-9.45,0-13.62-4.16-13.62-13.61
			v-73.74c0-8.32-4.16-12.86-12.1-12.86h-43.49v86.6c0,9.45-4.16,13.61-13.62,13.61H1307.58z"/>
	</g>
	<g>
		<path fill="#EAD57D" d="M1405.14,234.97h-77.52v-3.78h158.83v3.78h-77.52V435.4h-3.78V234.97z"/>
		<path fill="#EAD57D" d="M1420.65,551.47c29.5,0,43.11,18.15,43.11,43.11v26.09c0,23.07-4.54,38.19-22.69,43.87h4.16
			c31.01,0,37.81,13.99,37.81,40.46v50.68h-3.78v-50.68c0-24.96-5.3-37.06-34.03-37.06h-107.02v87.74h-3.78V551.47H1420.65z
			 M1338.21,555.26v109.29h82.44c31.39,0,39.33-15.5,39.33-43.49v-26.47c0-23.45-12.48-39.33-39.33-39.33H1338.21z"/>
		<path fill="#EAD57D" d="M1322.7,969.7l31.76-76.77c5.3-13.23,10.21-16.64,19.29-16.64h116.85v3.78h-54.83v94.54h54.46v3.78h-54.46
			v98.32h54.83v3.78h-58.62v-65.43h-109.67v65.43h-3.78v-76.01C1318.54,989.74,1318.54,979.91,1322.7,969.7z M1322.33,1011.3h109.67
			V880.07h-58.24c-7.56,0-10.97,3.78-15.5,14.37l-31.77,76.77c-4.16,9.83-4.16,19.29-4.16,33.28V1011.3z"/>
		<path fill="#EAD57D" d="M1338.96,1204.14v100.59h75.63l43.49-100.59h4.16l-43.49,100.59h15.5c31.01,0,45.76,10.59,45.76,37.06
			v66.56h-3.78v-66.56c0-24.2-13.99-33.28-41.98-33.28h-95.3v99.83h-3.78v-204.21H1338.96z"/>
	</g>
	<rect x="33.52" y="145.09" fill="none" stroke="#681A1B" stroke-miterlimit="10" width="297.26" height="327.21"/>
	<rect x="33.52" y="472.3" fill="none" stroke="#681A1B" stroke-miterlimit="10" width="297.26" height="348.12"/>
	<rect x="33.52" y="820.42" fill="none" stroke="#681A1B" stroke-miterlimit="10" width="297.26" height="327.34"/>
	<rect x="33.52" y="1147.77" fill="none" stroke="#681A1B" stroke-miterlimit="10" width="297.26" height="322.56"/>
	<g>
		<path fill="#FFFFFF" d="M68.54,243.79c0-45.76,19.29-77.14,113.07-77.14c94.16,0,113.83,31.39,113.83,77.14v187.19
			c0,9.45-4.16,13.99-13.61,13.99h-57.48c-9.45,0-13.61-4.54-13.61-13.99v-56.34h-59.37v56.34c0,9.45-4.16,13.99-13.61,13.99H82.15
			c-9.45,0-13.61-4.54-13.61-13.99V243.79z M151.35,305.43h59.37v-48.78c0-10.21-3.02-17.77-29.5-17.77
			c-26.85,0-29.87,7.56-29.87,17.77V305.43z"/>
		<path fill="#FFFFFF" d="M138.87,769.03c-56.72-8.7-71.85-36.31-71.85-74.12V569.37c0-46.14,22.31-77.52,114.96-77.52
			s114.96,31.39,114.96,77.52v125.55c0,38.2-15.13,65.8-72.61,74.5v20.8c0,9.45-4.16,13.61-13.61,13.61h-58.24
			c-9.45,0-13.61-4.16-13.61-13.61V769.03z M181.98,704.37c25.34,0,29.5-7.56,29.5-17.77V583.36c0-9.83-4.16-17.39-29.5-17.39
			c-24.96,0-29.12,7.56-29.12,17.39v103.24C152.87,696.8,157.03,704.37,181.98,704.37z"/>
		<path fill="#FFFFFF" d="M181.98,1124.86c-90.76,0-113.45-31.01-113.45-77.15V860.53c0-9.46,4.16-13.62,13.61-13.62h59.37
			c9.45,0,13.61,4.16,13.61,13.62v172.44c0,10.21,4.54,17.77,27.61,17.77c23.45,0,27.98-7.56,27.98-17.77V860.53
			c0-9.46,3.78-13.62,13.61-13.62h57.48c9.45,0,13.61,4.16,13.61,13.62v187.19C295.43,1093.85,272.74,1124.86,181.98,1124.86z"/>
		<path fill="#FFFFFF" d="M68.54,1245.1c0-45.76,19.29-77.15,113.07-77.15c94.16,0,113.83,31.39,113.83,77.15v187.19
			c0,9.46-4.16,13.99-13.61,13.99h-57.48c-9.45,0-13.61-4.53-13.61-13.99v-56.34h-59.37v56.34c0,9.46-4.16,13.99-13.61,13.99H82.15
			c-9.45,0-13.61-4.53-13.61-13.99V1245.1z M151.35,1306.74h59.37v-48.78c0-10.21-3.02-17.78-29.5-17.78
			c-26.85,0-29.87,7.56-29.87,17.78V1306.74z"/>
	</g>
	<g>
		<path fill="#EAD57D" d="M108.24,253.25c0-30.63,13.99-51.05,73.36-51.05c58.62,0,73.36,20.42,73.36,51.05v157.69h-3.78v-68.45
			H112.02v68.45h-3.78V253.25z M112.02,338.71h139.16v-85.46c0-28.36-13.99-47.27-69.58-47.27c-56.35,0-69.58,18.91-69.58,47.27
			V338.71z"/>
		<path fill="#EAD57D" d="M181.61,527.39c57.48,0,74.5,20.42,74.5,51.05V690c0,30.25-16.64,50.68-72.61,51.05v29.12h-3.78v-29.12
			c-55.97-0.75-71.47-20.8-71.47-51.05V578.44C108.24,547.81,124.13,527.39,181.61,527.39z M181.61,737.27
			c54.46,0,70.72-18.91,70.72-47.27V578.44c0-28.36-16.26-47.27-70.72-47.27c-54.45,0-69.58,18.91-69.58,47.27V690
			C112.02,718.36,127.15,737.27,181.61,737.27z"/>
		<path fill="#EAD57D" d="M113.91,880.95v157.7c0,28.36,14.37,47.27,66.93,47.27c54.83,0,70.34-18.91,70.34-47.27v-157.7h3.78v157.7
			c0,30.63-16.26,51.05-74.12,51.05c-55.59,0-70.71-20.42-70.71-51.05v-157.7H113.91z"/>
		<path fill="#EAD57D" d="M108.24,1254.56c0-30.63,13.99-51.05,73.36-51.05c58.62,0,73.36,20.42,73.36,51.05v157.69h-3.78v-68.45
			H112.02v68.45h-3.78V1254.56z M112.02,1340.02h139.16v-85.46c0-28.36-13.99-47.27-69.58-47.27c-56.35,0-69.58,18.91-69.58,47.27
			V1340.02z"/>
	</g>
	<g>
		
			<rect x="33.52" y="74.2" fill="#681A1B" stroke="#681A1B" stroke-width="0.75" stroke-miterlimit="10" width="70.89" height="70.89"/>
		<polygon fill="#FFFFFF" points="54.82,90.01 54.82,101.63 59.4,101.63 59.4,94.92 70.36,94.92 70.36,125.28 62.08,125.28 
			62.08,129.28 85.25,129.28 85.25,125.35 77.23,125.35 77.23,94.92 88.03,94.92 88.03,102.04 92.61,102.04 92.61,90.01 		"/>
		<polygon fill="#FFFFFF" points="46.08,90.01 48.99,90.01 48.99,120.5 54.82,120.5 47.32,129.28 40.38,120.72 46.25,120.75 		"/>
	</g>
	<g>
		
			<rect x="441.87" y="50.27" fill="#681A1B" stroke="#681A1B" stroke-width="0.75" stroke-miterlimit="10" width="70.89" height="70.89"/>
		<polygon fill="#FFFFFF" points="463.17,66.08 463.17,77.7 467.75,77.7 467.75,70.99 478.71,70.99 478.71,101.34 470.43,101.34 
			470.43,105.35 493.6,105.35 493.6,101.42 485.58,101.42 485.58,70.99 496.38,70.99 496.38,78.11 500.96,78.11 500.96,66.08 		"/>
		<polygon fill="#FFFFFF" points="454.43,66.08 457.34,66.08 457.34,96.56 463.17,96.56 455.67,105.35 448.73,96.79 454.6,96.82 		
			"/>
	</g>
	<g>
		
			<rect x="850.22" y="24.85" fill="#681A1B" stroke="#681A1B" stroke-width="0.75" stroke-miterlimit="10" width="70.89" height="70.89"/>
		<polygon fill="#FFFFFF" points="871.52,40.67 871.52,52.28 876.1,52.28 876.1,45.57 887.06,45.57 887.06,75.93 878.78,75.93 
			878.78,79.93 901.95,79.93 901.95,76.01 893.94,76.01 893.94,45.57 904.73,45.57 904.73,52.69 909.32,52.69 909.32,40.67 		"/>
		<polygon fill="#FFFFFF" points="862.79,40.67 865.69,40.67 865.69,71.15 871.52,71.15 864.02,79.93 857.08,71.37 862.96,71.4 		
			"/>
	</g>
	<g>
		
			<rect x="1258.57" y="95.75" fill="#681A1B" stroke="#681A1B" stroke-width="0.75" stroke-miterlimit="10" width="70.89" height="70.89"/>
		<polygon fill="#FFFFFF" points="1279.87,111.56 1279.87,123.18 1284.45,123.18 1284.45,116.47 1295.41,116.47 1295.41,146.83 
			1287.13,146.83 1287.13,150.83 1310.3,150.83 1310.3,146.9 1302.28,146.9 1302.28,116.47 1313.08,116.47 1313.08,123.59 
			1317.66,123.59 1317.66,111.56 		"/>
		<polygon fill="#FFFFFF" points="1271.13,111.56 1274.04,111.56 1274.04,142.04 1279.87,142.04 1272.36,150.83 1265.43,142.27 
			1271.3,142.3 		"/>
	</g>
	<g>
		
			<rect x="1666.92" y="88.56" fill="#681A1B" stroke="#681A1B" stroke-width="0.75" stroke-miterlimit="10" width="70.89" height="70.89"/>
		<polygon fill="#FFFFFF" points="1688.22,104.37 1688.22,115.99 1692.8,115.99 1692.8,109.28 1703.76,109.28 1703.76,139.63 
			1695.48,139.63 1695.48,143.64 1718.65,143.64 1718.65,139.71 1710.63,139.71 1710.63,109.28 1721.43,109.28 1721.43,116.4 
			1726.01,116.4 1726.01,104.37 		"/>
		<polygon fill="#FFFFFF" points="1679.48,104.37 1682.39,104.37 1682.39,134.85 1688.22,134.85 1680.72,143.64 1673.78,135.08 
			1679.65,135.11 		"/>
	</g>
</g>
</svg>
