<?xml version="1.0" encoding="utf-8"?>
<!-- Generator: Adobe Illustrator 17.1.0, SVG Export Plug-In . SVG Version: 6.00 Build 0)  -->
<!DOCTYPE svg PUBLIC "-//W3C//DTD SVG 1.1//EN" "http://www.w3.org/Graphics/SVG/1.1/DTD/svg11.dtd">
<svg version="1.1" xmlns="http://www.w3.org/2000/svg" xmlns:xlink="http://www.w3.org/1999/xlink" x="0px" y="0px" width="2100px"
	 height="1500px" viewBox="0 0 2100 1500" enable-background="new 0 0 2100 1500" xml:space="preserve">
<g id="Layer_2">
	<g>
		<rect x="461.87" y="111.16" fill="none" stroke="#681A1B" stroke-miterlimit="10" width="297.26" height="327.21"/>
		<rect x="461.87" y="438.37" fill="none" stroke="#681A1B" stroke-miterlimit="10" width="297.26" height="315.84"/>
		<rect x="461.87" y="754.21" fill="none" stroke="#681A1B" stroke-miterlimit="10" width="297.26" height="321.33"/>
		<rect x="461.87" y="1075.54" fill="none" stroke="#681A1B" stroke-miterlimit="10" width="297.26" height="384.78"/>
		<g>
			<path fill="#FFFFFF" d="M510.88,409.53c-9.45,0-13.61-4.16-13.61-13.61V150.87c0-9.45,4.16-13.61,13.61-13.61h117.23
				c51.43,0,72.61,24.58,72.61,57.86v18.15c0,19.28-5.67,33.65-22.31,40.84c27.23,2.65,47.65,23.07,47.65,58.62v34.79
				c0,38.19-24.96,62.02-73.36,62.02H510.88z M582.35,242.38h28.74c12.1,0,14.37-7.19,14.37-15.13v-10.59
				c0-7.94-2.27-15.13-14.37-15.13h-28.74V242.38z M582.35,345.24h45.76c12.1,0,14.37-7.19,14.37-15.13v-14.75
				c0-7.94-2.27-14.75-14.37-14.75h-45.76V345.24z"/>
			<path fill="#FFFFFF" d="M496.51,548.29v-72.61c0-9.45,4.16-13.61,13.61-13.61h58.24c9.45,0,13.61,4.16,13.61,13.61v62.02
				c0,5.3,0,10.59,3.4,15.88l14.75,27.23c2.65,4.54,4.92,6.43,9.08,6.43h3.78c4.16,0,6.43-1.89,9.08-6.43l15.13-27.23
				c3.4-5.3,3.4-10.59,3.4-15.88v-62.02c0-9.45,4.16-13.61,13.61-13.61h56.35c9.45,0,13.61,4.16,13.61,13.61v72.61
				c0,19.67-3.03,31.01-14.37,46.51l-55.21,77.52v48.41c0,9.45-4.16,13.61-13.61,13.61H579.7c-9.83,0-13.61-4.16-13.61-13.61v-48.78
				l-55.21-77.15C499.15,579.3,496.51,567.96,496.51,548.29z"/>
			<path fill="#FFFFFF" d="M510.5,1054.63c-9.45,0-13.61-4.16-13.61-13.62V795.97c0-9.45,4.16-13.61,13.61-13.61h121.77
				c56.72,0,74.5,25.72,74.5,63.15v17.39c0,21.18-5.29,36.31-21.18,43.11c23.07,3.03,41.98,23.07,41.98,54.83v80.17
				c0,9.46-4.16,13.62-13.61,13.62h-58.61c-9.45,0-13.61-4.16-13.61-13.62v-57.86c0-11.34-3.78-16.26-14.37-16.26h-45v74.12
				c0,9.46-4.16,13.62-13.61,13.62H510.5z M582.35,898.83h24.2c13.23,0,16.64-7.56,16.64-17.77V868.2c0-10.21-3.4-17.78-16.64-17.78
				h-24.2V898.83z"/>
			<path fill="#FFFFFF" d="M496.51,1334.83c0-22.31,3.78-37.81,10.97-56.72l22.69-65.42c3.4-7.56,7.19-12.1,13.24-13.99
				c-11.34-9.46-15.13-22.69-15.13-38.2v-21.93c0-32.15,16.26-54.08,82.06-54.08c65.8,0,82.06,21.93,82.06,54.08v21.93
				c0,15.51-3.78,28.74-15.12,38.2c6.43,1.89,10.21,6.05,13.23,13.99l22.69,65.42c7.19,18.91,10.97,34.41,10.97,56.72v88.49
				c0,9.45-3.78,13.61-13.61,13.61h-58.24c-9.45,0-13.61-4.16-13.61-13.61v-45.38h-59.75v45.38c0,9.45-4.16,13.61-13.61,13.61
				h-55.21c-9.45,0-13.61-4.16-13.61-13.61V1334.83z M582.35,1309.11h52.94l-15.88-51.43c-1.89-4.91-3.03-6.43-7.19-6.43h-6.43
				c-4.16,0-5.29,1.51-7.19,6.43L582.35,1309.11z M633.02,1149.91c0-9.83-3.4-15.13-22.31-15.13c-18.53,0-21.56,5.3-21.56,15.13
				v13.24c0,10.97,3.03,16.26,21.56,16.26c18.91,0,22.31-5.29,22.31-16.26V1149.91z"/>
		</g>
		<g>
			<path fill="#EAD57D" d="M538.48,171.29h73.36c41.98,0,49.54,18.15,49.54,40.08v24.2c0,15.13-2.65,28.74-24.2,34.41
				c41.98,0,49.16,18.53,49.16,43.49v24.2c0,22.31-7.19,37.82-49.54,37.82h-98.32V171.29z M542.26,175.07v94.92h69.58
				c41.6,0,45.76-16.26,45.76-34.41v-24.2c0-20.42-7.56-36.3-45.76-36.3H542.26z M542.26,273.77v97.94h94.54
				c37.81,0,45.76-13.23,45.76-34.03v-24.2c0-22.69-7.19-39.71-45.38-39.71H542.26z"/>
			<path fill="#EAD57D" d="M541.13,496.11v43.49c0,10.59,0.38,20.04,5.3,27.61l32.9,49.16c6.81,10.21,15.51,13.61,24.2,13.61h12.86
				c9.45,0,17.77-3.4,24.58-13.61L675,567.2c4.92-7.19,5.29-17.02,5.29-27.61v-43.49h3.78v43.49c0,10.97-0.38,21.18-5.67,29.12
				l-34.03,49.16c-7.94,11.34-16.26,15.88-27.98,15.88h-4.16v66.56h-3.78v-66.56h-4.92c-10.97,0-19.66-4.16-27.61-15.88l-32.9-49.16
				c-5.29-7.94-5.67-18.15-5.67-29.12v-43.49H541.13z"/>
			<path fill="#EAD57D" d="M623.95,816.39c29.5,0,43.11,18.15,43.11,43.11v26.09c0,23.07-4.54,38.2-22.69,43.87h4.16
				c31.01,0,37.82,13.99,37.82,40.46v50.68h-3.78v-50.68c0-24.96-5.29-37.06-34.03-37.06H541.51v87.74h-3.78V816.39H623.95z
				 M541.51,820.17v109.29h82.44c31.39,0,39.33-15.51,39.33-43.49V859.5c0-23.45-12.48-39.33-39.33-39.33H541.51z"/>
			<path fill="#EAD57D" d="M536.21,1322.35c0-13.99,2.27-25.71,6.43-36.68l24.2-54.46c6.05-13.62,10.21-24.96,27.61-24.96h29.12
				c16.64,0,20.42,11.34,27.23,25.34l26.09,54.08c4.92,10.59,6.43,22.69,6.43,36.68v80.55h-3.78v-65.04H540v65.04h-3.78V1322.35z
				 M540,1334.07h139.54v-11.72c0-13.62-2.27-24.96-6.05-35.17l-26.09-54.08c-5.67-13.23-9.83-23.06-23.82-23.06h-29.12
				c-15.13,0-19.29,9.83-24.2,22.69l-24.2,54.45c-3.78,10.21-6.05,21.56-6.05,35.17V1334.07z M556.63,1145.75
				c0-22.69,8.32-38.19,53.32-38.19s54.08,15.88,54.08,38.19v14.75c0,22.69-9.08,37.82-54.08,37.82s-53.32-15.13-53.32-37.82
				V1145.75z M560.42,1145.75v14.75c0,21.18,9.08,34.04,49.54,34.04s50.3-12.86,50.3-34.04v-14.75c0-20.8-9.83-34.41-50.3-34.41
				S560.42,1124.57,560.42,1145.75z"/>
		</g>
		<g>
			
				<rect x="461.87" y="40.27" fill="#681A1B" stroke="#681A1B" stroke-width="0.75" stroke-miterlimit="10" width="70.89" height="70.89"/>
			<polygon fill="#FFFFFF" points="483.17,56.08 483.17,67.7 487.75,67.7 487.75,60.99 498.71,60.99 498.71,91.34 490.43,91.34 
				490.43,95.35 513.6,95.35 513.6,91.42 505.58,91.42 505.58,60.99 516.38,60.99 516.38,68.11 520.96,68.11 520.96,56.08 			"/>
			<polygon fill="#FFFFFF" points="474.43,56.08 477.34,56.08 477.34,86.56 483.17,86.56 475.67,95.35 468.73,86.79 474.6,86.82 			
				"/>
		</g>
	</g>
	<g>
		<g>
			<rect x="1338.57" y="479.03" fill="none" stroke="#681A1B" stroke-miterlimit="10" width="297.26" height="326.01"/>
			<rect x="1338.57" y="805.04" fill="none" stroke="#681A1B" stroke-miterlimit="10" width="297.26" height="326.41"/>
			<rect x="1338.57" y="1131.45" fill="none" stroke="#681A1B" stroke-miterlimit="10" width="297.26" height="328.87"/>
			<g>
				<rect x="1338.57" y="156.9" fill="none" stroke="#681A1B" stroke-miterlimit="10" width="297.26" height="322.13"/>
			</g>
		</g>
		<g>
			<path fill="#FFFFFF" d="M1455.27,459.43c-9.46,0-13.62-4.16-13.62-13.61V260.14h-54.46c-9.45,0-13.61-4.16-13.61-13.61v-45.76
				c0-9.45,4.16-13.61,13.61-13.61h199.67c9.46,0,13.62,4.16,13.62,13.61v45.76c0,9.45-4.16,13.61-13.62,13.61h-54.46v185.68
				c0,9.45-4.16,13.61-13.61,13.61H1455.27z"/>
			<path fill="#FFFFFF" d="M1387.2,779.72c-9.45,0-13.61-4.16-13.61-13.62V521.05c0-9.45,4.16-13.61,13.61-13.61h121.77
				c56.72,0,74.5,25.71,74.5,63.15v17.4c0,21.18-5.3,36.3-21.18,43.11c23.06,3.03,41.97,23.07,41.97,54.83v80.17
				c0,9.46-4.16,13.62-13.61,13.62h-58.62c-9.46,0-13.62-4.16-13.62-13.62v-57.86c0-11.34-3.78-16.26-14.37-16.26h-45v74.12
				c0,9.46-4.16,13.62-13.61,13.62H1387.2z M1459.05,623.91h24.2c13.24,0,16.64-7.56,16.64-17.77v-12.86
				c0-10.21-3.4-17.77-16.64-17.77h-24.2V623.91z"/>
			<path fill="#FFFFFF" d="M1361.86,1090.92v-96.05c0-22.31,3.78-37.82,10.97-56.73l35.92-90.38c4.16-11.72,10.59-15.5,23.45-15.5
				h158.82c9.46,0,13.62,4.16,13.62,13.61v44.24c0,9.46-4.16,13.62-13.62,13.62h-38.95v29.12h38.57c9.45,0,13.61,3.78,13.61,13.62
				v40.46c0,9.46-4.16,13.62-13.61,13.62h-38.57v32.52h38.95c9.46,0,13.62,4.16,13.62,13.61v44.24c0,9.46-4.16,13.62-13.62,13.62
				H1489.3c-9.46,0-13.62-4.16-13.62-13.62v-52.94h-37.06v52.94c0,9.46-4.16,13.62-13.61,13.62h-49.54
				C1366.02,1104.53,1361.86,1100.38,1361.86,1090.92z M1442.79,969.15h32.9v-65.42h-3.4c-4.16,0-5.3,1.51-7.19,6.43L1442.79,969.15
				z"/>
			<path fill="#FFFFFF" d="M1387.58,1432.38c-9.45,0-13.61-4.16-13.61-13.61v-245.05c0-9.46,4.16-13.62,13.61-13.62h58.62
				c9.45,0,13.62,4.16,13.62,13.62v86.98h8.69l38.95-88.11c3.78-9.07,9.08-12.48,18.91-12.48h58.24c8.7,0,11.72,4.54,8.32,12.48
				l-38.57,88.11c28.36,1.51,46.51,21.18,46.51,51.43v106.64c0,9.45-4.16,13.61-13.61,13.61h-58.24c-9.45,0-13.62-4.16-13.62-13.61
				v-73.74c0-8.32-4.16-12.86-12.1-12.86h-43.49v86.6c0,9.45-4.16,13.61-13.62,13.61H1387.58z"/>
		</g>
		<g>
			<path fill="#EAD57D" d="M1485.14,224.97h-77.52v-3.78h158.83v3.78h-77.52V425.4h-3.78V224.97z"/>
			<path fill="#EAD57D" d="M1500.65,541.47c29.5,0,43.11,18.15,43.11,43.11v26.09c0,23.07-4.54,38.19-22.69,43.87h4.16
				c31.01,0,37.81,13.99,37.81,40.46v50.68h-3.78v-50.68c0-24.96-5.3-37.06-34.03-37.06h-107.02v87.74h-3.78V541.47H1500.65z
				 M1418.21,545.26v109.29h82.44c31.39,0,39.33-15.5,39.33-43.49v-26.47c0-23.45-12.48-39.33-39.33-39.33H1418.21z"/>
			<path fill="#EAD57D" d="M1402.7,959.7l31.76-76.77c5.3-13.23,10.21-16.64,19.29-16.64h116.85v3.78h-54.83v94.54h54.46v3.78
				h-54.46v98.32h54.83v3.78h-58.62v-65.43h-109.67v65.43h-3.78v-76.01C1398.54,979.74,1398.54,969.91,1402.7,959.7z
				 M1402.33,1001.3h109.67V870.07h-58.24c-7.56,0-10.97,3.78-15.5,14.37l-31.77,76.77c-4.16,9.83-4.16,19.29-4.16,33.28V1001.3z"/>
			<path fill="#EAD57D" d="M1418.96,1194.14v100.59h75.63l43.49-100.59h4.16l-43.49,100.59h15.5c31.01,0,45.76,10.59,45.76,37.06
				v66.56h-3.78v-66.56c0-24.2-13.99-33.28-41.98-33.28h-95.3v99.83h-3.78v-204.21H1418.96z"/>
		</g>
		<g>
			
				<rect x="1338.57" y="85.75" fill="#681A1B" stroke="#681A1B" stroke-width="0.75" stroke-miterlimit="10" width="70.89" height="70.89"/>
			<polygon fill="#FFFFFF" points="1359.87,101.56 1359.87,113.18 1364.45,113.18 1364.45,106.47 1375.41,106.47 1375.41,136.83 
				1367.13,136.83 1367.13,140.83 1390.3,140.83 1390.3,136.9 1382.28,136.9 1382.28,106.47 1393.08,106.47 1393.08,113.59 
				1397.66,113.59 1397.66,101.56 			"/>
			<polygon fill="#FFFFFF" points="1351.13,101.56 1354.04,101.56 1354.04,132.04 1359.87,132.04 1352.36,140.83 1345.43,132.27 
				1351.3,132.3 			"/>
		</g>
	</g>
	<g>
		<rect x="901.17" y="135.09" fill="none" stroke="#681A1B" stroke-miterlimit="10" width="297.26" height="327.21"/>
		<rect x="901.17" y="462.3" fill="none" stroke="#681A1B" stroke-miterlimit="10" width="297.26" height="353.12"/>
		<rect x="901.17" y="805.42" fill="none" stroke="#681A1B" stroke-miterlimit="10" width="297.26" height="332.34"/>
		<rect x="901.17" y="1137.77" fill="none" stroke="#681A1B" stroke-miterlimit="10" width="297.26" height="322.56"/>
		<g>
			<path fill="#FFFFFF" d="M936.18,233.79c0-45.76,19.29-77.14,113.07-77.14c94.16,0,113.83,31.39,113.83,77.14v187.19
				c0,9.45-4.16,13.99-13.61,13.99h-57.48c-9.45,0-13.61-4.54-13.61-13.99v-56.34H1019v56.34c0,9.45-4.16,13.99-13.61,13.99H949.8
				c-9.45,0-13.61-4.54-13.61-13.99V233.79z M1019,295.43h59.37v-48.78c0-10.21-3.02-17.77-29.5-17.77
				c-26.85,0-29.87,7.56-29.87,17.77V295.43z"/>
			<path fill="#FFFFFF" d="M1006.52,759.03c-56.72-8.7-71.85-36.31-71.85-74.12V559.37c0-46.14,22.31-77.52,114.96-77.52
				s114.96,31.39,114.96,77.52v125.55c0,38.2-15.13,65.8-72.61,74.5v20.8c0,9.45-4.16,13.61-13.61,13.61h-58.24
				c-9.45,0-13.61-4.16-13.61-13.61V759.03z M1049.63,694.37c25.34,0,29.5-7.56,29.5-17.77V573.36c0-9.83-4.16-17.39-29.5-17.39
				c-24.96,0-29.12,7.56-29.12,17.39v103.24C1020.51,686.8,1024.67,694.37,1049.63,694.37z"/>
			<path fill="#FFFFFF" d="M1049.63,1114.86c-90.76,0-113.45-31.01-113.45-77.15V850.53c0-9.46,4.16-13.62,13.61-13.62h59.37
				c9.45,0,13.61,4.16,13.61,13.62v172.44c0,10.21,4.54,17.77,27.61,17.77c23.45,0,27.98-7.56,27.98-17.77V850.53
				c0-9.46,3.78-13.62,13.61-13.62h57.48c9.45,0,13.61,4.16,13.61,13.62v187.19C1163.08,1083.85,1140.39,1114.86,1049.63,1114.86z"
				/>
			<path fill="#FFFFFF" d="M936.18,1235.1c0-45.76,19.29-77.15,113.07-77.15c94.16,0,113.83,31.39,113.83,77.15v187.19
				c0,9.46-4.16,13.99-13.61,13.99h-57.48c-9.45,0-13.61-4.53-13.61-13.99v-56.34H1019v56.34c0,9.46-4.16,13.99-13.61,13.99H949.8
				c-9.45,0-13.61-4.53-13.61-13.99V1235.1z M1019,1296.74h59.37v-48.78c0-10.21-3.02-17.78-29.5-17.78
				c-26.85,0-29.87,7.56-29.87,17.78V1296.74z"/>
		</g>
		<g>
			<path fill="#EAD57D" d="M975.89,243.25c0-30.63,13.99-51.05,73.36-51.05c58.62,0,73.36,20.42,73.36,51.05v157.69h-3.78v-68.45
				H979.67v68.45h-3.78V243.25z M979.67,328.71h139.16v-85.46c0-28.36-13.99-47.27-69.58-47.27c-56.35,0-69.58,18.91-69.58,47.27
				V328.71z"/>
			<path fill="#EAD57D" d="M1049.25,517.39c57.48,0,74.5,20.42,74.5,51.05V680c0,30.25-16.64,50.68-72.61,51.05v29.12h-3.78v-29.12
				c-55.97-0.75-71.47-20.8-71.47-51.05V568.44C975.89,537.81,991.77,517.39,1049.25,517.39z M1049.25,727.27
				c54.46,0,70.72-18.91,70.72-47.27V568.44c0-28.36-16.26-47.27-70.72-47.27c-54.45,0-69.58,18.91-69.58,47.27V680
				C979.67,708.36,994.8,727.27,1049.25,727.27z"/>
			<path fill="#EAD57D" d="M981.56,870.95v157.7c0,28.36,14.37,47.27,66.93,47.27c54.83,0,70.34-18.91,70.34-47.27v-157.7h3.78
				v157.7c0,30.63-16.26,51.05-74.12,51.05c-55.59,0-70.71-20.42-70.71-51.05v-157.7H981.56z"/>
			<path fill="#EAD57D" d="M975.89,1244.56c0-30.63,13.99-51.05,73.36-51.05c58.62,0,73.36,20.42,73.36,51.05v157.69h-3.78v-68.45
				H979.67v68.45h-3.78V1244.56z M979.67,1330.02h139.16v-85.46c0-28.36-13.99-47.27-69.58-47.27c-56.35,0-69.58,18.91-69.58,47.27
				V1330.02z"/>
		</g>
		<g>
			
				<rect x="901.17" y="64.2" fill="#681A1B" stroke="#681A1B" stroke-width="0.75" stroke-miterlimit="10" width="70.89" height="70.89"/>
			<polygon fill="#FFFFFF" points="922.47,80.01 922.47,91.63 927.05,91.63 927.05,84.92 938.01,84.92 938.01,115.28 929.72,115.28 
				929.72,119.28 952.9,119.28 952.9,115.35 944.88,115.35 944.88,84.92 955.68,84.92 955.68,92.04 960.26,92.04 960.26,80.01 			
				"/>
			<polygon fill="#FFFFFF" points="913.73,80.01 916.64,80.01 916.64,110.5 922.47,110.5 914.96,119.28 908.03,110.72 913.9,110.75 
							"/>
		</g>
		<rect x="901.57" y="805.42" opacity="0.2" fill="#681A1B" width="297.26" height="9.4"/>
	</g>
	<g>
		<g>
			<rect x="23.52" y="85.75" fill="none" stroke="#681A1B" stroke-miterlimit="10" width="297.26" height="322.13"/>
			<rect x="23.52" y="407.88" fill="none" stroke="#681A1B" stroke-miterlimit="10" width="297.26" height="346.34"/>
			<rect x="23.52" y="754.21" fill="none" stroke="#681A1B" stroke-miterlimit="10" width="297.26" height="321.33"/>
			<rect x="23.52" y="1075.54" fill="none" stroke="#681A1B" stroke-miterlimit="10" width="297.26" height="384.78"/>
		</g>
		<g>
			<path fill="#FFFFFF" d="M58.53,184.45c0-45.76,19.29-77.14,113.07-77.14c94.16,0,113.83,31.39,113.83,77.14v187.19
				c0,9.45-4.16,13.99-13.62,13.99h-57.48c-9.46,0-13.62-4.54-13.62-13.99v-56.34h-59.37v56.34c0,9.45-4.16,13.99-13.62,13.99H72.15
				c-9.46,0-13.62-4.54-13.62-13.99V184.45z M141.35,246.09h59.37V197.3c0-10.21-3.03-17.77-29.5-17.77
				c-26.85,0-29.87,7.56-29.87,17.77V246.09z"/>
			<path fill="#FFFFFF" d="M137.95,694.94c-62.02-3.4-80.93-33.65-80.93-76.77V515.69c0-46.13,21.56-77.52,93.03-77.52h118.36
				c9.45,0,13.61,4.16,13.61,13.61v45.76c0,9.45-4.16,13.61-13.61,13.61H166.31c-19.66,0-23.06,9.08-23.06,18.91v74.87
				c0,10.59,3.4,18.15,23.06,18.15h102.11c9.45,0,13.61,4.16,13.61,13.61v45c0,9.46-4.16,13.62-13.61,13.62h-53.32l-12.86,36.3
				c-2.65,7.94-7.56,11.34-17.4,11.34h-47.65c-12.86,0-14.75-6.05-11.34-15.12L137.95,694.94z"/>
			<path fill="#FFFFFF" d="M58.53,851.86c0-45.76,19.29-77.15,113.07-77.15c94.16,0,113.83,31.39,113.83,77.15v187.19
				c0,9.46-4.16,13.99-13.62,13.99h-57.48c-9.46,0-13.62-4.53-13.62-13.99V982.7h-59.37v56.34c0,9.46-4.16,13.99-13.62,13.99H72.15
				c-9.46,0-13.62-4.53-13.62-13.99V851.86z M141.35,913.5h59.37v-48.78c0-10.21-3.03-17.78-29.5-17.78
				c-26.85,0-29.87,7.56-29.87,17.78V913.5z"/>
			<path fill="#FFFFFF" d="M105.43,1167.23c-8.7,1.13-12.86-3.78-12.86-12.48v-36.3c0-9.46,4.16-12.48,13.62-13.62l131.98-16.26
				c8.7-1.13,12.86,3.78,12.86,12.48v36.31c0,9.45-4.16,12.48-13.62,13.61L105.43,1167.23z M141.73,1436.85
				c-9.46,0-13.62-4.16-13.62-13.61v-229.92c0-9.45,4.16-13.61,13.62-13.61h60.12c9.46,0,13.62,4.16,13.62,13.61v229.92
				c0,9.45-4.16,13.61-13.62,13.61H141.73z"/>
		</g>
		<g>
			<path fill="#EAD57D" d="M98.24,193.9c0-30.63,13.99-51.05,73.36-51.05c58.61,0,73.36,20.42,73.36,51.05v157.69h-3.78v-68.45
				H102.02v68.45h-3.78V193.9z M102.02,279.37h139.16V193.9c0-28.36-13.99-47.27-69.58-47.27c-56.35,0-69.58,18.91-69.58,47.27
				V279.37z"/>
			<path fill="#EAD57D" d="M98.24,521.74c0-35.92,12.1-49.54,60.51-49.54h89.24v3.78h-89.24c-44.62,0-56.72,12.1-56.72,45.76v90.76
				c0,32.9,11.34,45,56.72,45h89.24v3.78h-57.48l-17.39,47.65h-3.78l17.02-47.65h-27.6c-49.16,0-60.51-13.62-60.51-48.78V521.74z"/>
			<path fill="#EAD57D" d="M98.24,861.31c0-30.63,13.99-51.05,73.36-51.05c58.61,0,73.36,20.42,73.36,51.05v157.69h-3.78v-68.45
				H102.02v68.45h-3.78V861.31z M102.02,946.78h139.16v-85.46c0-28.36-13.99-47.27-69.58-47.27c-56.35,0-69.58,18.91-69.58,47.27
				V946.78z"/>
			<path fill="#EAD57D" d="M216.98,1120.33v3.78l-90.38,11.34v-3.78L216.98,1120.33z M173.87,1213.74v189.08h-3.78v-189.08H173.87z"
				/>
		</g>
		<g>
			
				<rect x="23.52" y="14.85" fill="#681A1B" stroke="#681A1B" stroke-width="0.75" stroke-miterlimit="10" width="70.89" height="70.89"/>
			<polygon fill="#FFFFFF" points="44.82,30.67 44.82,42.28 49.4,42.28 49.4,35.57 60.36,35.57 60.36,65.93 52.08,65.93 
				52.08,69.93 75.25,69.93 75.25,66.01 67.23,66.01 67.23,35.57 78.03,35.57 78.03,42.69 82.61,42.69 82.61,30.67 			"/>
			<polygon fill="#FFFFFF" points="36.08,30.67 38.99,30.67 38.99,61.15 44.82,61.15 37.32,69.93 30.38,61.37 36.25,61.4 			"/>
		</g>
	</g>
</g>
<g id="Layer_1">
	<g>
		<rect x="1776.92" y="216.45" fill="none" stroke="#681A1B" stroke-miterlimit="10" width="297.26" height="327.21"/>
		<rect x="1776.92" y="543.66" fill="none" stroke="#681A1B" stroke-miterlimit="10" width="297.26" height="318.97"/>
		<rect x="1776.92" y="820.64" fill="none" stroke="#681A1B" stroke-miterlimit="10" width="297.26" height="316.56"/>
		<rect x="1776.92" y="1137.19" fill="none" stroke="#681A1B" stroke-miterlimit="10" width="297.26" height="323.13"/>
		<g>
			
				<rect x="1776.92" y="145.56" fill="#681A1B" stroke="#681A1B" stroke-width="0.75" stroke-miterlimit="10" width="70.89" height="70.89"/>
			<polygon fill="#FFFFFF" points="1798.22,161.37 1798.22,172.99 1802.8,172.99 1802.8,166.28 1813.76,166.28 1813.76,196.63 
				1805.48,196.63 1805.48,200.64 1828.65,200.64 1828.65,196.71 1820.63,196.71 1820.63,166.28 1831.43,166.28 1831.43,173.4 
				1836.01,173.4 1836.01,161.37 			"/>
			<polygon fill="#FFFFFF" points="1789.48,161.37 1792.39,161.37 1792.39,191.85 1798.22,191.85 1790.72,200.64 1783.78,192.08 
				1789.65,192.11 			"/>
		</g>
		<rect x="1776.92" y="820.64" opacity="0.2" fill="#681A1B" width="297.26" height="42"/>
		<g>
			<path fill="#FFFFFF" d="M1827.71,511.18c-9.46,0-13.62-4.16-13.62-13.62V252.34c0-9.46,4.16-13.62,13.62-13.62h196.02
				c9.46,0,13.62,4.16,13.62,13.62v44.27c0,9.46-4.16,13.62-13.62,13.62h-124.88v29.14h94.23c9.46,0,13.62,3.78,13.62,13.62v40.49
				c0,9.46-4.16,13.62-13.62,13.62h-94.23v32.54h124.88c9.46,0,13.62,4.16,13.62,13.62v44.27c0,9.46-4.16,13.62-13.62,13.62H1827.71
				z"/>
			<path fill="#FFFFFF" d="M1827.71,844.56c-9.46,0-13.62-4.54-13.62-14V585.35c0-9.46,4.16-13.62,13.62-13.62h196.02
				c9.46,0,13.62,4.16,13.62,13.62v45.03c0,9.46-4.16,13.62-13.62,13.62h-123.74v39.36h93.09c9.46,0,13.62,4.16,13.62,13.62v45.41
				c0,9.46-4.16,13.62-13.62,13.62h-93.09v74.55c0,9.46-4.16,14-13.62,14H1827.71z"/>
			<path fill="#FFFFFF" d="M1926.1,1115.51c-91.2,0-112.39-31.41-112.39-77.58v-61.3c0-9.84,4.16-13.62,13.62-13.62h54.87
				c9.46,0,13.62,3.78,13.62,13.62v46.17c0,10.22,2.65,17.79,29.52,17.79c25.35,0,28.76-7.57,28.76-17.79V850.62
				c0-9.46,4.16-13.62,13.62-13.62h59.41c9.46,0,13.62,4.16,13.62,13.62v187.32C2040.76,1084.1,2018.05,1115.51,1926.1,1115.51z"/>
			<path fill="#FFFFFF" d="M1813.33,1319.47c0-26.11,3.79-31.79,14.76-60.55l29.14-85.9c3.41-9.46,9.46-12.49,19.3-12.49h98.01
				c9.84,0,15.51,3.03,18.92,12.49l32.92,85.9c10.97,28.76,14.76,34.44,14.76,60.55l0,99.9c0,9.46-4.16,13.62-13.62,13.62h-57.14
				c-9.46,0-14.76-4.16-14.76-13.62v-52.98h-59.41v52.98c0,9.46-4.16,13.62-13.62,13.62h-55.63c-9.84,0-13.62-4.16-13.62-13.62
				L1813.33,1319.47z M1899.98,1297.52h51.84l-17.79-57.52c-2.27-4.92-3.03-6.43-7.19-6.43h-1.89c-4.16,0-4.92,1.51-7.19,6.43
				L1899.98,1297.52z"/>
		</g>
		<g>
			<g>
				<path fill="#EAD57D" d="M1854.57,272.78h148.72v3.78h-144.93v94.98h114.28v3.78h-114.28v98.01h144.93v3.78h-148.72V272.78z"/>
				<path fill="#EAD57D" d="M2003.67,606.16v3.78h-144.18v108.23h113.53v3.78h-113.53v88.55h-3.79V606.16H2003.67z"/>
				<path fill="#EAD57D" d="M1999.13,871.05v157.8c0,29.9-15.51,51.09-71.52,51.09c-59.79,0-74.55-20.81-74.55-51.09v-31.79h3.78
					v31.79c0,28.76,15.89,47.3,70.76,47.3c52.22,0,67.74-18.92,67.74-47.3v-157.8H1999.13z"/>
				<path fill="#EAD57D" d="M1853.06,1318.34c0-14,2.27-25.73,6.43-36.71l24.22-62.06c5.68-14,10.22-24.98,27.62-24.98h29.14
					c16.65,0,21.19,10.6,27.25,25.35l26.11,61.68c4.16,10.97,6.43,22.71,6.43,36.71l0,80.6h-3.79l0-65.09h-139.64l0,65.09h-3.78
					L1853.06,1318.34z M1856.84,1330.07h139.64v-11.73c0-13.62-2.27-24.97-6.05-35.19l-26.11-61.68
					c-5.68-13.24-9.84-23.08-23.84-23.08h-29.14c-15.14,0-19.3,9.84-24.22,22.71l-24.22,62.06c-3.78,10.22-6.05,21.57-6.05,35.19
					V1330.07z"/>
			</g>
		</g>
	</g>
</g>
</svg>
