<?xml version="1.0" encoding="utf-8"?>
<!-- Generator: Adobe Illustrator 19.2.1, SVG Export Plug-In . SVG Version: 6.00 Build 0)  -->
<svg version="1.1" id="Layer_1" xmlns="http://www.w3.org/2000/svg" xmlns:xlink="http://www.w3.org/1999/xlink" x="0px" y="0px"
	 width="2125px" height="2000px" viewBox="0 0 2125 2000" style="enable-background:new 0 0 2125 2000;" xml:space="preserve">
<style type="text/css">
	.st0{fill:#1B586B;}
	.st1{fill:#EFE445;}
	.st2{fill:#FFFFFF;}
</style>
<g id="Layer_2_copy">
	<g>
		<path class="st0" d="M2.7,300.8V190.6c0-29.6,4.2-35.9,16.7-68l32.1-94.7c4.2-12.5,12.1-16.7,25-16.7h108
			c12.9,0,20.4,4.2,24.6,16.3l36.3,94.7c12.5,32.5,16.7,38.8,16.7,68.4v110.1c0,13.3-5.8,19.2-19.2,19.2h-63
			c-13.3,0-20.4-6.3-20.4-19.2v-54.2h-57.1v54.2c0,13.3-5.8,19.2-19.2,19.2H21.9C8.1,320,2.7,314.1,2.7,300.8z M136.2,104.7
			c-1.3-2.9-1.3-4.6-4.2-4.6H130c-2.9,0-2.9,1.7-4.2,4.6l0.4-0.4l-18.4,58h45.9l-17.9-58L136.2,104.7z"/>
		<path class="st0" d="M3.6,717.6V447.2c0-13.3,5.8-19.2,19.2-19.2h129.3c60.5,0,84.3,29.2,84.3,68v20c0,18.8-4.6,33.4-16.7,43
			c25.9,7.1,44.6,30,44.6,66.7v38.4c0,44.2-28.4,72.6-85.1,72.6H22.7C9.4,736.7,3.6,730.9,3.6,717.6z M105.8,507.3V544h27.5
			c10,0,11.7-6.3,11.7-12.5v-11.7c0-6.3-1.7-12.5-11.7-12.5H105.8z M105.8,616.6v40.9h46.3c10,0,11.7-6.3,11.7-12.5v-16.3
			c0-6.3-1.7-12.1-11.7-12.1L105.8,616.6L105.8,616.6z"/>
		<path class="st0" d="M238.8,1154.4H108.3c-82.6,0-106.8-36.7-106.8-89.3V935.3c0-53,24.2-89.7,106.8-89.7h130.6
			c13.3,0,19.2,5.8,19.2,19.2v50.5c0,13.3-5.8,19.2-19.2,19.2H126.2c-17.5,0-21.3,7.5-21.3,16.7v99.3c0,9.6,4.2,15.9,21.3,15.9
			h112.6c13.3,0,19.2,5.8,19.2,19.2v49.7C258,1148.5,252.2,1154.4,238.8,1154.4z"/>
		<path class="st0" d="M157.1,1571.5H22.3c-13.3,0-19.2-5.8-19.2-19.2V1282c0-13.3,5.8-19.2,19.2-19.2h134.7
			c82.6,0,106.8,36.7,106.8,89.3v130.2C263.9,1534.8,239.7,1571.5,157.1,1571.5z M106.2,1350.9v133.5h39.6
			c13.3,0,15.4-7.5,15.4-16.3v-101.4c0-8.3-2.1-15.9-15.4-15.9L106.2,1350.9L106.2,1350.9z"/>
		<path class="st0" d="M3.6,1969.5v-270.3c0-13.3,5.8-19.2,19.2-19.2h216.1c13.3,0,19.2,5.8,19.2,19.2v48.8
			c0,13.3-5.8,19.2-19.2,19.2H105.3v23.8H205c13.3,0,19.2,5.4,19.2,19.2v44.6c0,13.3-5.8,19.2-19.2,19.2h-99.7v27.5h133.5
			c13.3,0,19.2,5.8,19.2,19.2v48.8c0,13.3-5.8,19.2-19.2,19.2H22.7C9.4,1988.7,3.6,1982.9,3.6,1969.5z"/>
	</g>
	<g>
		<path class="st0" d="M466.7,300.4V30c0-13.3,5.8-19.2,19.2-19.2H702c13.3,0,19.2,5.8,19.2,19.2v49.6c0,13.3-5.8,19.2-19.2,19.2
			H569.7v35h98.5c13.3,0,19.2,5.8,19.2,19.2v50.1c0,13.3-5.8,19.2-19.2,19.2h-98.5v78c0,13.3-5.8,19.6-19.2,19.6h-64.7
			C472.5,320,466.7,313.7,466.7,300.4z"/>
		<path class="st0" d="M464.2,647.9V517.7c0-52.6,24.2-89.3,106.8-89.3h107.6c13.3,0,19.2,5.8,19.2,19.2v50.5
			c0,13.3-5.8,19.2-19.2,19.2h-90.1c-17.5,0-21.3,7.5-21.3,16.7v99.7c0,8.8,1.7,16.3,15,16.3h39.6v-60.9c0-13.3,5.8-19.2,19.2-19.2
			h64.7c13.3,0,19.2,5.8,19.2,19.2V718c0,13.3-5.8,19.2-19.2,19.2H571C488.4,737.2,464.2,700.4,464.2,647.9z"/>
		<path class="st0" d="M466.3,1135.2V864.8c0-13.3,5.8-19.2,19.2-19.2h64.7c13.3,0,19.2,5.8,19.2,19.2v86.4h52.6v-86.4
			c0-13.3,5.8-19.2,19.2-19.2h64.7c13.3,0,19.2,5.8,19.2,19.2v270.3c0,13.3-5.8,19.2-19.2,19.2h-64.7c-13.3,0-19.2-5.8-19.2-19.2
			v-88.4h-52.6v88.4c0,13.3-5.8,19.2-19.2,19.2h-64.7C472.1,1154.4,466.3,1148.5,466.3,1135.2z"/>
		<path class="st0" d="M466.3,1552.4v-50.5c0-13.3,5.8-19.2,19.2-19.2h110.1c17.1,0,26.3-6.7,26.3-23.8V1282
			c0-13.3,5.8-19.2,19.2-19.2h64.7c13.3,0,19.2,5.8,19.2,19.2v197.7c0,57.6-35.5,91.8-93,91.8H485.5
			C472.1,1571.5,466.3,1565.7,466.3,1552.4z M550.1,1433.9h-64.7c-13.3,0-19.2-5.8-19.2-19.2V1282c0-13.3,5.8-19.2,19.2-19.2h64.7
			c13.3,0,19.2,5.8,19.2,19.2v132.7C569.3,1428,563.5,1433.9,550.1,1433.9z"/>
		<path class="st0" d="M485.9,1988.7c-13.3,0-19.2-5.8-19.2-19.2v-270.3c0-13.3,5.8-19.2,19.2-19.2h64.7c13.3,0,19.2,5.8,19.2,19.2
			v91.8h2.9l41.7-94.7c5-11.7,11.7-16.3,24.6-16.3h64.2c13.8,0,18.4,7.1,12.9,19.6l-40,91.8c30,4.2,49.2,26.7,49.2,60.5v117.6
			c0,13.3-5.8,19.2-19.2,19.2h-64.2c-13.3,0-19.2-5.8-19.2-19.2v-81.3c0-6.3-2.9-10-9.2-10h-43.8v91.4c0,13.3-5.8,19.2-19.2,19.2
			L485.9,1988.7L485.9,1988.7z"/>
	</g>
	<g>
		<path class="st0" d="M929.9,300.8V30.4c0-13.3,5.8-19.2,19.2-19.2h64.7c13.3,0,19.2,5.8,19.2,19.2v202.3h56.7v-63.4
			c0-13.3,5.8-19.2,19.2-19.2h60.5c13.3,0,19.2,5.8,19.2,19.2v131.4c0,13.3-5.8,19.2-19.2,19.2H949
			C935.7,320,929.9,314.1,929.9,300.8z"/>
		<path class="st0" d="M939.9,737.2c-13.3,0-19.2-5.8-19.2-19.2l1.7-270.3c0-13.3,5.8-19.2,19.2-19.2h54.6
			c12.5,0,24.6,3.8,30.9,14.6v0.4l28.4,70.9h4.6l31.3-71.3h0.4c6.7-10.9,14.2-14.6,26.7-14.6h58.4c13.8,0,19.2,5.8,19.2,19.2
			l1.7,270.3c0,13.3-5.4,19.2-19.2,19.2h-63c-13.3,0-19.2-5.8-19.2-19.2l-1.7-115.6l-7.9,23.4v0.4c-6.3,11.3-13.3,15.4-25.9,15.4
			h-11.3c-12.5,0-19.6-4.2-25.9-15.4v-0.4l-8.3-23.8l-1.3,116c0,13.3-5.8,19.2-19.2,19.2L939.9,737.2L939.9,737.2z"/>
		<path class="st0" d="M948.6,1154.4c-13.3,0-19.2-5.8-19.2-19.2V864.8c0-13.3,5.8-19.2,19.2-19.2H992c12.1,0,19.6,3.3,28,12.9
			l67.6,83.4v-77.2c0-13.3,5.8-19.2,19.2-19.2h62.6c13.3,0,19.2,5.8,19.2,19.2v270.3c0,13.3-5.8,19.2-19.2,19.2h-62.6
			c-13.3,0-19.2-5.8-19.2-19.2v-50.1l-57.1-75.1v125.2c0,13.3-5.8,19.2-19.2,19.2L948.6,1154.4L948.6,1154.4z"/>
		<path class="st0" d="M1189.7,1488.5c0,52.6-23.8,89.3-131,89.3s-131-36.7-131-89.3v-142.3c0-52.6,23.8-89.7,131-89.7
			c107.2,0,131,37.1,131,89.7V1488.5z M1030.8,1473.5c0,9.6,6.3,15.4,28,15.4c22.1,0,28.4-5.4,28.4-15.4v-112.2
			c0-9.6-6.7-15-28.4-15c-21.7,0-28,5.4-28,15V1473.5z"/>
		<path class="st0" d="M929.4,1969.5v-270.3c0-13.3,5.8-19.2,19.2-19.2h138.5c79.7,0,102.6,35,102.6,85.5v53.4
			c0,50.5-22.9,85.5-102.6,85.5h-54.6v65.1c0,13.3-5.8,19.2-19.2,19.2h-64.7C935.3,1988.7,929.4,1982.9,929.4,1969.5z
			 M1031.6,1766.4v54.6h44.2c12.9,0,15.4-7.9,15.4-16.3v-22.1c0-8.3-2.5-16.3-15.4-16.3L1031.6,1766.4L1031.6,1766.4z"/>
	</g>
	<g>
		<path class="st0" d="M1470.2,338.3v-19.6c-63.4-10.4-79.3-43-79.3-85.5V94.7c0-52.6,23.8-89.7,131-89.7c107.2,0,131,37.1,131,89.7
			v138.5c0,43-15.9,75.1-80.1,85.5v19.6c0,13.3-5.8,19.2-19.2,19.2h-64.3C1476,357.5,1470.2,351.7,1470.2,338.3z M1494,224
			c0,9.6,6.3,15.4,28,15.4c22.1,0,28.4-5.4,28.4-15.4V110.1c0-9.6-6.7-15-28.4-15c-21.7,0-28,5.4-28,15V224z"/>
		<path class="st0" d="M1411.8,737.2c-13.3,0-19.2-5.8-19.2-19.2V447.6c0-13.3,5.8-19.2,19.2-19.2h134.3c66.3,0,86.4,30.5,86.4,73.8
			v19.2c0,20.9-4.6,36.7-16.7,45.9c22.5,7.5,39.6,29.6,39.6,62.2V718c0,13.3-5.9,19.2-19.2,19.2h-64.7c-13.3,0-19.2-5.8-19.2-19.2
			v-63.8c0-9.2-2.9-13.8-11.7-13.8h-45.5V718c0,13.3-5.9,19.2-19.2,19.2L1411.8,737.2L1411.8,737.2z M1495.2,511.9v45.1h22.5
			c11.7,0,14.2-6.7,14.2-15.4v-14.2c0-8.8-2.5-15.4-14.2-15.4L1495.2,511.9L1495.2,511.9z"/>
		<path class="st0" d="M1561.1,1154.4h-149.4c-13.3,0-19.2-5.8-19.2-19.2v-48.8c0-13.3,5.8-19.2,19.2-19.2h129.7
			c4.6,0,6.7-3.8,6.7-7.9c0-6.3-2.1-9.6-7.1-10l-80.1-8.8c-41.7-6.3-68.4-24.2-68.4-73.4v-43.8c0-50.1,33.4-77.6,90.5-77.6h138.5
			c13.3,0,19.2,5.8,19.2,19.2v49.6c0,13.3-5.8,19.2-19.2,19.2h-118.9c-4.6,0-7.1,3.8-7.1,8.3c0,5,2.5,8.8,7.5,9.2l79.7,8.3
			c41.7,6.3,68.8,24.2,68.8,73.4v43.8C1651.7,1126.8,1617.9,1154.4,1561.1,1154.4z"/>
		<path class="st0" d="M1467.7,1552.4v-200.7h-55.9c-13.3,0-19.2-5.8-19.2-19.2V1282c0-13.3,5.8-19.2,19.2-19.2H1632
			c13.3,0,19.2,5.8,19.2,19.2v50.5c0,13.3-5.8,19.2-19.2,19.2h-55.9v200.7c0,13.3-5.8,19.2-19.2,19.2h-70.1
			C1473.5,1571.5,1467.7,1565.7,1467.7,1552.4z"/>
		<path class="st0" d="M1651.2,1905.7c0,52.6-24.2,89.3-129.3,89.3c-105.1,0-129.3-36.7-129.3-89.3v-206.5
			c0-13.3,5.8-19.2,19.2-19.2h65.5c13.3,0,19.2,5.8,19.2,19.2v190.2c0,9.6,6.3,15.4,26.3,15.4c20.4,0,26.7-5.8,26.7-15.4v-190.2
			c0-13.3,5.4-19.2,19.2-19.2h63.4c13.3,0,19.2,5.8,19.2,19.2L1651.2,1905.7L1651.2,1905.7z"/>
	</g>
	<g>
		<path class="st0" d="M2038,320h-105.6c-14.6,0-22.1-4.2-26.7-16.7l-36.7-101.8c-10.4-25.9-13.8-33.8-13.8-60.9V30.4
			c0-13.3,5.9-19.2,19.2-19.2h63c13.3,0,20.4,6.3,20.4,19.2v115.1c0,5.4,0.8,10,3.3,15.9l17.5,58c1.3,2.9,1.7,4.6,4.2,4.6h6.3
			c2.5,0,2.9-1.7,4.2-4.6l-0.4,0.4l18.4-58.8v-0.4c2.1-5.4,2.9-10,2.9-15.4V30.4c0-13.3,5.8-19.2,19.2-19.2h62.2
			c13.8,0,19.2,5.8,19.2,19.2v110.1c0,27.1,0.8,35-9.6,60.9l-40.9,102.2C2059.7,315.8,2052.6,320,2038,320z"/>
		<path class="st0" d="M1870.8,719.2l-15-57.6c-7.5-29.2-7.5-35-7.5-61.3l-1.7-152.7c0-13.3,5.8-19.2,19.2-19.2h61.7
			c13.3,0,19.2,5.8,19.2,19.2l1.7,118.9l8.8-26.7v-0.4c6.7-10.9,13.3-15,25.9-15h12.9c12.5,0,19.2,4.2,25.9,15v0.4l8.8,26.3
			l1.3-118.5c0-13.8,3.7-19.2,17.1-19.2h55.5c13.8,0,19.2,5.8,19.2,19.2l-1.7,153.5c0,25.9,0,32.1-7.5,61.3l-15,56.3
			c-3.3,12.5-10,18.4-22.5,18.4h-41.7c-15.9,0-21.7-5-25-15.4l-21.3-70.5h-3.3l-21.3,70.5c-3.3,10-9.2,15.4-25,15.4h-45.1
			C1881.6,737.2,1874.1,730.9,1870.8,719.2z"/>
		<path class="st0" d="M1874.9,1154.4c-13.3,0-19.2-5.8-19.2-19.2v-44.6c0-27.1,5.4-35,16.7-53.8l25.9-43l-25.9-43
			c-11.3-18.8-16.7-26.7-16.7-53.8v-32.1c0-13.3,5.8-19.2,19.2-19.2h64.2c13.3,0,19.2,5.8,19.2,19.2v28.8c0,5,0.4,10.4,3.3,15.4
			l15,26.3c1.7,2.9,3.3,5,6.3,5h5c2.9,0,4.6-1.7,6.3-5l15-26.3c2.9-5,3.3-10.4,3.3-15.4v-28.8c0-13.3,5.9-19.2,19.2-19.2h63.4
			c13.3,0,19.2,5.8,19.2,19.2V897c0,27.1-5.4,35-16.7,53.8l-25.9,43.4l25.9,42.6c11.7,18.8,16.7,26.7,16.7,53.8v44.6
			c0,13.3-5.8,19.2-19.2,19.2h-63.4c-13.3,0-19.2-5.8-19.2-19.2v-41.3c0-5-0.4-10-3.3-15.4l-14.6-26.3c-1.7-3.3-3.3-5-6.3-5h-5.8
			c-2.9,0-4.6,1.7-6.3,5l-15.4,26.3c-2.9,5-3.3,10.4-3.3,15.4v41.3c0,13.3-5.8,19.2-19.2,19.2H1874.9z"/>
		<path class="st0" d="M1932.1,1552.4v-52.6l-60.1-83.8c-13.3-17.9-16.7-30.9-16.7-53.8V1282c0-13.3,5.9-19.2,19.2-19.2h64.2
			c13.3,0,19.2,5.8,19.2,19.2v68.4c0,5,0,10,3.3,15.4l16.3,30c1.7,3.3,3.3,5,6.3,5h4.2c2.9,0,4.6-1.7,6.3-5l17.1-30
			c2.9-5.4,2.9-10.4,2.9-15.4V1282c0-13.3,5.8-19.2,19.2-19.2h62.2c13.3,0,19.2,5.8,19.2,19.2v80.1c0,22.9-3.3,35.9-16.7,53.8
			l-60.1,84.3v52.1c0,13.3-5.8,19.2-19.2,19.2h-67.6C1937.5,1571.5,1932.1,1565.7,1932.1,1552.4z"/>
		<path class="st0" d="M1855.7,1969.5v-55.9c0-12.1,3.3-20,11.7-28.8l112.2-116h-101.4c-13.3,0-19.2-5.8-19.2-19.2v-50.5
			c0-13.3,5.9-19.2,19.2-19.2h213.6c13.3,0,19.2,5.8,19.2,19.2v62.2c0,12.5-3.3,20.4-11.7,29.2l-107.2,110.1h103
			c13.3,0,19.2,5.8,19.2,19.2v49.6c0,13.3-5.8,19.2-19.2,19.2h-220.3C1861.6,1988.7,1855.7,1982.9,1855.7,1969.5z"/>
	</g>
</g>
<g id="Layer_1_1_">
	<g>
		<path class="st1" d="M83.2,315.8H21.9c-10.9,0-15-4.6-15-15V190.6c0-28.8,4.2-35,16.3-66.7l32.1-94.7C59,18.8,65.7,15.4,76.5,15.4
			h108c10.9,0,17.1,3.3,20.9,13.8l36.3,94.7c12.1,31.7,16.3,38,16.3,66.7v110.1c0,10.4-4.6,15-15,15h-63c-10.4,0-16.3-4.6-16.3-15
			v-58.4H98.3v58.4C98.3,311.2,93.7,315.8,83.2,315.8z M102.4,166.4h57.1L140,103c-2.5-5.4-3.3-7.1-7.9-7.1H130
			c-4.6,0-5.4,1.7-7.9,7.1L102.4,166.4z"/>
		<path class="st1" d="M22.7,732.6c-10.4,0-15-4.6-15-15V447.2c0-10.4,4.6-15,15-15h129.3c56.7,0,80.1,27.1,80.1,63.8v20
			c0,21.3-6.3,37.1-24.6,45.1c30,2.9,52.6,25.4,52.6,64.7v38.4c0,42.1-27.5,68.4-80.9,68.4L22.7,732.6L22.7,732.6z M101.6,548.2
			h31.7c13.3,0,15.9-7.9,15.9-16.7v-11.7c0-8.8-2.5-16.7-15.9-16.7h-31.7V548.2z M101.6,661.7h50.5c13.3,0,15.9-7.9,15.9-16.7v-16.3
			c0-8.8-2.5-16.3-15.9-16.3h-50.5V661.7z"/>
		<path class="st1" d="M108.3,1150.2c-78.9,0-102.6-34.6-102.6-85.1V935.3c0-50.9,23.8-85.5,102.6-85.5h130.6c10.4,0,15,4.6,15,15
			v50.5c0,10.4-4.6,15-15,15H126.2c-21.7,0-25.4,10-25.4,20.9v99.3c0,11.7,3.8,20,25.4,20h112.6c10.4,0,15,4.6,15,15v49.7
			c0,10.4-4.6,15-15,15H108.3z"/>
		<path class="st1" d="M22.3,1567.4c-10.4,0-15-4.6-15-15V1282c0-10.4,4.6-15,15-15h134.7c78.8,0,102.6,34.6,102.6,85.1v130.2
			c0,50.5-23.8,85.1-102.6,85.1L22.3,1567.4L22.3,1567.4z M102,1488.5h43.8c16.7,0,19.6-9.2,19.6-20.4v-101.4c0-10.9-2.9-20-19.6-20
			H102V1488.5z"/>
		<path class="st1" d="M22.7,1984.6c-10.4,0-15-4.6-15-15v-270.3c0-10.4,4.6-15,15-15h216.1c10.4,0,15,4.6,15,15v48.8
			c0,10.4-4.6,15-15,15H101.2v32.1H205c10.4,0,15,4.2,15,15v44.6c0,10.4-4.6,15-15,15H101.2v35.9h137.7c10.4,0,15,4.6,15,15v48.8
			c0,10.4-4.6,15-15,15L22.7,1984.6L22.7,1984.6z"/>
	</g>
	<g>
		<path class="st1" d="M485.9,315.8c-10.4,0-15-5-15-15.4V30c0-10.4,4.6-15,15-15H702c10.4,0,15,4.6,15,15v49.6c0,10.4-4.6,15-15,15
			H565.6v43.4h102.6c10.4,0,15,4.6,15,15v50.1c0,10.4-4.6,15-15,15H565.6v82.2c0,10.4-4.6,15.4-15,15.4H485.9z"/>
		<path class="st1" d="M571,733c-78.9,0-102.6-34.6-102.6-85.1V517.7c0-50.5,23.8-85.1,102.6-85.1h107.6c10.4,0,15,4.6,15,15v50.5
			c0,10.4-4.6,15-15,15h-90.1c-21.7,0-25.4,10-25.4,20.9v99.7c0,11.3,2.5,20.4,19.2,20.4h43.8v-65.1c0-10.4,4.6-15,15-15h64.7
			c10.4,0,15,4.6,15,15V718c0,10.4-4.6,15-15,15L571,733L571,733z"/>
		<path class="st1" d="M485.5,1150.2c-10.4,0-15-4.6-15-15V864.8c0-10.4,4.6-15,15-15h64.7c10.4,0,15,4.6,15,15v90.5h60.9v-90.5
			c0-10.4,4.6-15,15-15h64.7c10.4,0,15,4.6,15,15v270.3c0,10.4-4.6,15-15,15h-64.7c-10.4,0-15-4.6-15-15v-92.6h-60.9v92.6
			c0,10.4-4.6,15-15,15H485.5z"/>
		<path class="st1" d="M470.5,1501.9c0-10.4,4.6-15,15-15h110.1c20,0,30.4-7.9,30.4-28V1282c0-10.4,4.6-15,15-15h64.7
			c10.4,0,15,4.6,15,15v197.7c0,55.1-33.8,87.6-88.9,87.6H485.5c-10.4,0-15-4.6-15-15V1501.9z M485.5,1429.7c-10.4,0-15-4.6-15-15
			V1282c0-10.4,4.6-15,15-15h64.7c10.4,0,15,4.6,15,15v132.7c0,10.4-4.6,15-15,15H485.5z"/>
		<path class="st1" d="M485.9,1984.6c-10.4,0-15-4.6-15-15v-270.3c0-10.4,4.6-15,15-15h64.7c10.4,0,15,4.6,15,15v95.9h9.6l43-97.2
			c4.2-10,10-13.8,20.9-13.8h64.2c9.6,0,12.9,5,9.2,13.8l-42.6,97.2c31.3,1.7,51.3,23.4,51.3,56.7v117.6c0,10.4-4.6,15-15,15h-64.2
			c-10.4,0-15-4.6-15-15v-81.3c0-9.2-4.6-14.2-13.3-14.2h-48v95.5c0,10.4-4.6,15-15,15H485.9z"/>
	</g>
	<g>
		<path class="st1" d="M949,315.8c-10.4,0-15-4.6-15-15V30.4c0-10.4,4.6-15,15-15h64.7c10.4,0,15,4.6,15,15V237h65.1v-67.6
			c0-10.4,4.6-15,15-15h60.5c10.4,0,15,4.6,15,15v131.4c0,10.4-4.6,15-15,15H949z"/>
		<path class="st1" d="M939.9,733c-10.4,0-15-4.6-15-15l1.7-270.3c0-10.4,4.6-15,15-15h54.6c10.9,0,21.7,2.9,27.1,12.5l29.2,73.4h10
			l32.5-73.4c5.8-9.2,12.5-12.5,23.4-12.5h58.4c10.9,0,15,4.6,15,15l1.7,270.3c0,10.4-4.2,15-15,15h-63c-10.4,0-15-4.6-15-15
			l-1.7-122.2v-17.5l-15.9,45.9c-5.4,9.6-11.3,13.3-22.1,13.3h-11.3c-10.8,0-16.7-3.8-22.1-13.3l-16.3-45.9v17.5L1010,718
			c0,10.4-4.6,15-15,15H939.9z"/>
		<path class="st1" d="M948.6,1150.2c-10.4,0-15-4.6-15-15V864.8c0-10.4,4.6-15,15-15H992c10.8,0,17.5,2.9,24.6,11.3l75.1,92.6
			v-88.9c0-10.4,4.6-15,15-15h62.6c10.4,0,15,4.6,15,15v270.3c0,10.4-4.6,15-15,15h-62.6c-10.4,0-15-4.6-15-15v-51.3l-65.5-86.4
			v137.7c0,10.4-4.6,15-15,15H948.6z"/>
		<path class="st1" d="M1058.8,1573.6c-102.2,0-126.8-34.2-126.8-85.1v-142.3c0-50.9,24.6-85.5,126.8-85.5s126.8,34.6,126.8,85.5
			v142.3C1185.6,1539.4,1161,1573.6,1058.8,1573.6z M1058.8,1493.1c28,0,32.5-8.3,32.5-19.6v-112.2c0-10.9-4.6-19.2-32.5-19.2
			c-27.5,0-32.1,8.3-32.1,19.2v112.2C1026.6,1484.8,1031.2,1493.1,1058.8,1493.1z"/>
		<path class="st1" d="M948.6,1984.6c-10.4,0-15-4.6-15-15v-270.3c0-10.4,4.6-15,15-15h138.5c75.9,0,98.4,33,98.4,81.3v53.4
			c0,48.4-22.5,81.4-98.4,81.4h-58.8v69.2c0,10.4-4.6,15-15,15H948.6z M1027.5,1825.2h48.4c16.3,0,19.6-9.6,19.6-20.4v-22.1
			c0-10.8-3.3-20.4-19.6-20.4h-48.4V1825.2z"/>
	</g>
	<g>
		<path class="st1" d="M1489.4,353.3c-10.4,0-15-4.6-15-15V315c-62.6-9.6-79.3-40-79.3-81.8V94.7c0-50.9,24.6-85.5,126.8-85.5
			c102.2,0,126.8,34.6,126.8,85.5v138.5c0,42.1-16.7,72.6-80.1,82.2v22.9c0,10.4-4.6,15-15,15H1489.4z M1521.9,243.6
			c28,0,32.5-8.3,32.5-19.6V110.1c0-10.9-4.6-19.2-32.5-19.2c-27.5,0-32.1,8.3-32.1,19.2V224
			C1489.8,235.3,1494.4,243.6,1521.9,243.6z"/>
		<path class="st1" d="M1411.8,733c-10.4,0-15-4.6-15-15V447.6c0-10.4,4.6-15,15-15h134.3c62.6,0,82.2,28.4,82.2,69.7v19.2
			c0,23.4-5.8,40-23.4,47.6c25.4,3.3,46.3,25.4,46.3,60.5V718c0,10.4-4.6,15-15,15h-64.7c-10.4,0-15-4.6-15-15v-63.8
			c0-12.5-4.2-17.9-15.9-17.9h-49.6V718c0,10.4-4.6,15-15,15L1411.8,733L1411.8,733z M1491,561.1h26.7c14.6,0,18.4-8.3,18.4-19.6
			v-14.2c0-11.3-3.8-19.6-18.4-19.6H1491V561.1z"/>
		<path class="st1" d="M1411.8,1150.2c-10.4,0-15-4.6-15-15v-48.8c0-10.4,4.6-15,15-15h129.7c7.1,0,10.8-5.4,10.8-12.1
			c0-9.6-3.7-13.3-10.8-14.2l-80.1-8.8c-39.2-5.8-64.7-22.5-64.7-69.3v-43.8c0-47.6,32.1-73.4,86.4-73.4h138.5c10.4,0,15,4.6,15,15
			v49.6c0,10.4-4.6,15-15,15h-118.9c-7.1,0-11.3,5-11.3,12.5c0,7.5,4.2,12.5,11.3,13.3l79.7,8.3c39.2,5.8,65.1,22.5,65.1,69.2v43.8
			c0,47.6-32.5,73.4-86.4,73.4H1411.8z"/>
		<path class="st1" d="M1486.9,1567.4c-10.4,0-15-4.6-15-15v-204.8h-60.1c-10.4,0-15-4.6-15-15V1282c0-10.4,4.6-15,15-15H1632
			c10.4,0,15,4.6,15,15v50.5c0,10.4-4.6,15-15,15H1572v204.8c0,10.4-4.6,15-15,15H1486.9z"/>
		<path class="st1" d="M1521.9,1990.8c-100.1,0-125.2-34.2-125.2-85.1v-206.5c0-10.4,4.6-15,15-15h65.5c10.4,0,15,4.6,15,15v190.2
			c0,11.3,5,19.6,30.5,19.6c25.9,0,30.9-8.3,30.9-19.6v-190.2c0-10.4,4.2-15,15-15h63.4c10.4,0,15,4.6,15,15v206.5
			C1647.1,1956.6,1622,1990.8,1521.9,1990.8z"/>
	</g>
	<g>
		<path class="st1" d="M1932.5,315.8c-12.5,0-18.8-3.3-22.9-13.8l-36.7-102.2c-10-25-13.3-33-13.3-59.2V30.4c0-10.4,4.6-15,15-15h63
			c10.4,0,16.3,4.6,16.3,15v115.1c0,5.8,0.8,10.9,3.3,17.1l17.9,58.4c2.1,5.4,3.3,7.1,7.9,7.1h6.3c4.6,0,5.8-1.7,7.9-7.1l17.9-58.8
			c2.5-6.3,3.3-11.3,3.3-17.1V30.4c0-10.4,4.6-15,15-15h62.2c10.9,0,15,4.6,15,15v110.1c0,26.3,0.8,34.2-9.2,59.2L2060.6,302
			c-4.2,10.4-10,13.8-22.5,13.8L1932.5,315.8L1932.5,315.8z"/>
		<path class="st1" d="M2104.4,432.6c10.8,0,15,4.6,15,15l-1.7,153.5c0,25.4,0,31.7-7.5,60.1l-15,56.7c-2.5,10-7.9,15-18.4,15h-41.7
			c-12.9,0-18.4-3.8-20.9-12.5l-22.1-73.4h-10l-22.1,73.4c-2.5,8.3-7.9,12.5-20.9,12.5h-45.1c-10.4,0-16.7-5-19.2-15l-15-57.6
			c-7.5-28.4-7.5-34.2-7.5-60.1l-1.7-152.7c0-10.4,4.6-15,15-15h61.7c10.4,0,15,4.6,15,15l1.7,130.2v12.9l16.7-49.2
			c5.4-9.2,11.3-12.9,22.1-12.9h12.9c10.8,0,16.7,3.8,22.1,12.9l16.7,49.2v-12.9l1.3-130.2c0-10.4,2.5-15,12.9-15H2104.4z"/>
		<path class="st1" d="M1938.3,1150.2h-63.4c-10.4,0-15-4.6-15-15v-44.6c0-25.9,5-33.4,15.9-51.3l27.5-45.5l-27.5-45.5
			c-10.8-17.9-15.9-25.4-15.9-51.3v-32.1c0-10.4,4.6-15,15-15h64.2c10.4,0,15,4.6,15,15v28.8c0,5.8,0.4,12.1,3.8,17.5l15,26.3
			c2.5,4.6,5.4,7.1,10,7.1h5c4.6,0,7.1-2.1,10-7.1l15-26.3c3.3-5.8,3.8-11.7,3.8-17.5v-28.8c0-10.4,4.6-15,15-15h63.4
			c10.4,0,15,4.6,15,15V897c0,25.9-5,33.4-15.9,51.3l-27.5,45.9l27.5,45.1c10.9,17.9,15.9,25.4,15.9,51.3v44.6c0,10.4-4.6,15-15,15
			h-63.4c-10.4,0-15-4.6-15-15v-41.3c0-5.8-0.4-11.3-3.8-17.5l-14.6-26.3c-2.9-5.4-5.4-7.1-10-7.1h-5.8c-4.6,0-7.1,2.1-10,7.1
			l-15.4,26.3c-3.3,5.8-3.8,11.7-3.8,17.5v41.3C1953.3,1145.6,1948.8,1150.2,1938.3,1150.2z"/>
		<path class="st1" d="M1951.3,1567.4c-10.8,0-15-4.6-15-15v-53.8l-60.9-85.1c-12.9-17.1-15.9-29.6-15.9-51.3V1282
			c0-10.4,4.6-15,15-15h64.2c10.4,0,15,4.6,15,15v68.4c0,5.9,0,11.7,3.8,17.5l16.3,30c2.9,5,5.4,7.1,10,7.1h4.2
			c4.6,0,7.1-2.1,10-7.1l16.7-30c3.8-5.8,3.8-11.7,3.8-17.5V1282c0-10.4,4.6-15,15-15h62.2c10.4,0,15,4.6,15,15v80.1
			c0,21.7-3.3,34.2-15.9,51.3l-60.9,85.5v53.4c0,10.4-4.6,15-15,15H1951.3z"/>
		<path class="st1" d="M1874.9,1984.6c-10.4,0-15-4.6-15-15v-55.9c0-10.9,2.9-17.9,10.4-25.9l118.9-123.1h-111c-10.4,0-15-4.6-15-15
			v-50.5c0-10.4,4.6-15,15-15h213.6c10.4,0,15,4.6,15,15v62.2c0,11.3-2.9,18.4-10.4,26.3l-114.3,117.2h113.1c10.4,0,15,4.6,15,15
			v49.6c0,10.4-4.6,15-15,15L1874.9,1984.6L1874.9,1984.6z"/>
	</g>
</g>
<g id="Layer_2">
	<g>
		<path class="st2" d="M208.8,206.5H54.9v71.8h-4.2v-88.9c0-15.4,2.5-28.4,7.1-40.5l26.7-68.4C90.7,65.1,95.7,53,114.9,53h32.1
			c18.4,0,23.4,11.7,30,28l28.8,68c4.6,12.1,7.1,25,7.1,40.5v88.9h-4.2L208.8,206.5L208.8,206.5z M54.9,202.3h153.9v-12.9
			c0-15-2.5-27.5-6.7-38.8l-28.8-68c-6.3-14.6-10.9-25.4-26.3-25.4h-32.1c-16.7,0-21.3,10.9-26.7,25l-26.7,68.4
			c-4.2,11.3-6.7,23.8-6.7,38.8C54.9,189.4,54.9,202.3,54.9,202.3z"/>
		<path class="st2" d="M52.8,695.4V470.2h80.9c46.3,0,54.7,20,54.7,44.2v26.7c0,16.7-2.9,31.7-26.7,38c46.3,0,54.2,20.4,54.2,48
			v26.7c0,24.6-7.9,41.7-54.6,41.7H52.8z M57,474.3V579h76.8c45.9,0,50.5-17.9,50.5-38v-26.7c0-22.5-8.3-40-50.5-40L57,474.3
			L57,474.3z M57,583.2v108h104.3c41.7,0,50.5-14.6,50.5-37.6V627c0-25-7.9-43.8-50.1-43.8L57,583.2L57,583.2z"/>
		<path class="st2" d="M216.3,1112.6h-98.4c-54.2,0-66.7-15-66.7-53.8V942c0-39.6,13.3-54.6,66.7-54.6h98.4v4.2h-98.4
			c-49.2,0-62.6,13.3-62.6,50.5v116.8c0,36.3,12.5,49.7,62.6,49.7h98.4L216.3,1112.6L216.3,1112.6z"/>
		<path class="st2" d="M52.8,1304.6h95.1c56.7,0,66.7,25.9,66.7,58v110.6c0,32.1-9.2,56.7-66.7,56.7H52.8V1304.6z M57,1308.7v216.9
			h90.9c53.4,0,62.6-22.1,62.6-52.6v-110.6c0-30.5-10-53.8-62.6-53.8H57z"/>
		<path class="st2" d="M216.3,1947H52.4v-225.3h163.9v4.2H56.5v104.7h126v4.2h-126v108h159.8V1947z"/>
	</g>
	<g>
		<path class="st2" d="M516.3,53h163.1v4.2H520.5v119.3h125.1v4.2H520.5v97.6h-4.2L516.3,53L516.3,53z"/>
		<path class="st2" d="M513.8,641.6V524.8c0-39.6,13.3-54.6,66.7-54.6h75.5v4.2h-75.5c-49.2,0-62.6,13.3-62.6,50.5v116.8
			c0,36.3,14.6,49.6,70.9,49.6h82.6v-79.7h4.2v83.8h-86.8C527.6,695.4,513.8,680.4,513.8,641.6z"/>
		<path class="st2" d="M515.9,887.4h4.2v110.6h151V887.4h4.2v225.3h-4.2v-110.6h-151v110.6h-4.2L515.9,887.4L515.9,887.4z"/>
		<path class="st2" d="M508.4,1529.8v-4.2h108.9c44.6,0,53.8-22.1,53.8-65.1v-156h4.2v156c0,44.6-9.2,69.3-58,69.3H508.4z
			 M515.9,1392.2v-87.6h4.2v87.6H515.9z"/>
		<path class="st2" d="M516.3,1947v-225.3h4.2v111h83.4l48-111h4.6l-48,111h17.1c34.2,0,50.5,11.7,50.5,40.9v73.4h-4.2v-73.4
			c0-26.7-15.4-36.7-46.3-36.7H520.5V1947L516.3,1947L516.3,1947z"/>
	</g>
	<g>
		<path class="st2" d="M979.5,53h4.2v221.1h153.1v-82.2h4.2v86.4H979.5V53z"/>
		<path class="st2" d="M1074.2,563.2l38.8-85.9c2.9-6.3,8.8-7.1,13.8-7.1h8.8c8.3,0,12.1,3.8,12.1,12.9l0.8,212.3h-4.2l-0.8-212.3
			c0-4.6-1.3-8.8-7.9-8.8h-7.9c-4.2,0-8.8,0-11.3,5.8l-38.8,85.1c-7.1,15.9-10.4,19.6-20.4,19.6s-13.3-3.8-20.4-19.6l-38.8-85.1
			c-2.5-5.8-7.1-5.8-11.3-5.8h-6.3c-7.9,0-9.6,4.2-9.6,8.8l-0.8,212.3h-4.2l0.8-212.3c0-9.2,4.2-12.9,13.8-12.9h7.1
			c5,0,11.3,1.3,13.8,7.1l38.8,85.9c6.7,15,9.2,17.5,17.1,17.5C1065,580.7,1067.1,579.1,1074.2,563.2z"/>
		<path class="st2" d="M989.1,890.7l146.9,172.7v-176h4.2v225.3h-4.2v-43l-151-176.9c-0.8-0.8-1.3-1.3-2.1-1.3s-0.8,0.8-0.8,1.3
			v219.8h-4.2V892c0-3.3,2.5-5,5-5C985.3,886.9,986.2,887.8,989.1,890.7z"/>
		<path class="st2" d="M1058.3,1535.3c-63.4,0-80.9-22.5-80.9-56.3v-123.1c0-33.8,17.5-56.3,80.9-56.3c63.4,0,82.2,22.5,82.2,56.3
			v123.1C1140.5,1512.7,1121.7,1535.3,1058.3,1535.3z M1058.3,1531.1c60.1,0,78-20.9,78-52.1v-123.1c0-31.3-17.9-52.1-78-52.1
			c-60.1,0-76.8,20.8-76.8,52.1v123.1C981.6,1510.2,998.3,1531.1,1058.3,1531.1z"/>
		<path class="st2" d="M983.3,1864.8v82.2h-4.2v-225.3h101c52.6,0,62.6,24.2,62.6,56.7v30.9c0,32.5-10,55.5-62.6,55.5H983.3z
			 M1080,1860.7c49.2,0,58.4-21.3,58.4-51.3v-30.9c0-30-9.2-52.6-58.4-52.6h-96.8v134.7L1080,1860.7L1080,1860.7z"/>
	</g>
	<g>
		<path class="st2" d="M1519.4,283.7c-61.7-0.4-78.9-22.9-78.9-56.3V104.3c0-33.8,17.5-56.3,80.9-56.3c63.4,0,82.2,22.5,82.2,56.3
			v123.1c0,33.4-18.4,55.9-80.1,56.3v32.1h-4.2L1519.4,283.7L1519.4,283.7z M1521.5,279.5c60.1,0,78-20.9,78-52.1V104.3
			c0-31.3-17.9-52.1-78-52.1s-76.8,20.9-76.8,52.1v123.1C1444.7,258.6,1461.4,279.5,1521.5,279.5z"/>
		<path class="st2" d="M1441.8,695.4V470.2h95.1c32.5,0,47.6,20,47.6,47.6v28.8c0,25.4-5,42.1-25,48.4h4.6
			c34.2,0,41.7,15.4,41.7,44.6v55.9h-4.2v-55.9c0-27.5-5.8-40.9-37.5-40.9H1446v96.8L1441.8,695.4L1441.8,695.4z M1446,474.3v120.6
			h90.9c34.6,0,43.4-17.1,43.4-48v-29.2c0-25.9-13.8-43.4-43.4-43.4L1446,474.3L1446,474.3z"/>
		<path class="st2" d="M1599.1,891.5h-114.3c-23.8,0-38.4,12.9-38.4,33.8v38.4c0,16.7,11.3,28,29.6,29.6l88.9,8.8
			c25,2.5,37.1,15.4,37.1,38v34.6c0,23.4-17.9,38-46.3,38h-121.4v-4.2h121.4c25.9,0,42.1-12.9,42.1-33.8V1040
			c0-20-10.8-31.7-33.8-33.8l-88.9-8.8c-20.4-2.1-33-15-33-33.8v-38.4c0-23.4,16.3-38,42.6-38h114.3L1599.1,891.5L1599.1,891.5z"/>
		<path class="st2" d="M1519.8,1308.7h-85.5v-4.2h175.2v4.2H1524v221.1h-4.2V1308.7z"/>
		<path class="st2" d="M1446.8,1721.7v174c0,31.3,15.9,52.1,73.8,52.1c60.5,0,77.6-20.9,77.6-52.1v-174h4.2v174
			c0,33.8-17.9,56.3-81.8,56.3c-61.3,0-78-22.5-78-56.3v-174H1446.8z"/>
	</g>
	<g>
		<path class="st2" d="M1903.3,53h4.2v88.9c0,15,2.5,27.5,6.7,38.8l28.8,68c6.3,14.6,10.9,25.4,26.3,25.4h32.1
			c16.7,0,21.3-10.9,26.7-25l26.7-68.4c4.2-11.3,6.7-23.8,6.7-38.8V53h4.2v88.9c0,15.4-2.5,28.4-7.1,40.5l-26.7,68.4
			c-6.3,15.4-11.3,27.5-30.5,27.5h-32.1c-18.4,0-23.4-11.7-30-28l-28.8-68c-4.6-12.1-7.1-25-7.1-40.5L1903.3,53L1903.3,53z"/>
		<path class="st2" d="M2013.4,608.7l25.9,76.8c2.1,5.8,7.1,5.8,11.3,5.8h2.1c4.6,0,8.8-4.2,9.6-8.8l10.4-47.6
			c2.1-10.4,2.1-29.6,2.1-42.1V470.2h4.2v123.1c0,12.5,0.4,31.7-2.1,42.1l-10.4,47.1c-2.1,9.2-7.1,12.9-13.8,12.9h-2.9
			c-5,0-11.7-1.3-13.8-7.1l-25.9-77.6c-5.4-15.9-10.4-17.5-17.1-17.5h-10.4c-6.7,0-11.7,1.7-17.1,17.5l-27.1,77.6
			c-2.1,5.8-8.8,7.1-13.8,7.1h-2.9c-6.7,0-11.7-3.8-13.8-12.9l-10.4-47.1c-2.5-10.4-2.1-29.6-2.1-42.1V470.2h4.2v122.7
			c0,12.5,0,31.7,2.1,42.1l10.4,47.6c0.8,4.6,5,8.8,9.6,8.8h2.1c4.2,0,9.2,0,11.3-5.8l27.1-76.8c5.9-16.3,11.7-19.6,20.4-19.6h10.4
			C2001.7,589.1,2008,592.4,2013.4,608.7z"/>
		<path class="st2" d="M1908.7,1112.6h-4.2v-18.8c0-12.1,0-22.5,6.3-32.1l45.9-68.4l-45.9-67.6c-5.8-8.8-6.3-20-6.3-32.1v-6.3h4.2
			v6.3c0,11.7,0.4,22.1,5.9,30.5l45.9,67.6h49.6l45.9-67.6c5.4-7.9,5.8-18.8,5.8-30.5v-6.3h4.2v6.3c0,12.1,0,22.9-6.3,32.1
			l-46.7,68.4l46.7,67.6c5.8,8.8,6.3,20,6.3,32.1v18.8h-4.2v-18.8c0-11.7-0.4-22.1-5.8-30.5l-46.3-67.6h-50.1l-45.1,67.6
			c-5,7.5-5.9,18.8-5.9,30.5L1908.7,1112.6L1908.7,1112.6z"/>
		<path class="st2" d="M1983,1456.4h-5.4c-12.1,0-21.7-4.6-30.5-17.5l-36.3-54.2c-5.8-8.8-6.3-20-6.3-32.1v-48h4.2v48
			c0,11.7,0.4,22.1,5.9,30.5l36.3,54.2c7.5,11.3,17.1,15,26.7,15h14.2c10.4,0,19.6-3.8,27.1-15l37.5-54.2c5.4-7.9,5.8-18.8,5.8-30.5
			v-48h4.2v48c0,12.1-0.4,23.4-6.3,32.1l-37.5,54.2c-8.8,12.5-17.9,17.5-30.9,17.5h-4.6v73.4h-4.2V1456.4z"/>
		<path class="st2" d="M1907.5,1914.5c-4.2,5-5.8,7.5-5.8,12.9v5.8c0,7.9,4.2,9.6,8.8,9.6h162.3v4.2h-162.3
			c-9.2,0-12.9-4.2-12.9-13.8v-6.7c0-6.3,2.9-10.4,7.1-15.4l154.8-156.9c4.6-4.6,5.9-7.5,5.9-12.9v-5.8c0-7.9-4.2-9.6-8.8-9.6
			h-155.6v-4.2h155.6c9.2,0,12.9,4.2,12.9,13.8v6.7c0,6.3-2.5,10.8-7.1,15.4L1907.5,1914.5z"/>
	</g>
</g>
</svg>
