<?xml version="1.0" encoding="utf-8"?>
<!-- Generator: Adobe Illustrator 17.1.0, SVG Export Plug-In . SVG Version: 6.00 Build 0)  -->
<!DOCTYPE svg PUBLIC "-//W3C//DTD SVG 1.1//EN" "http://www.w3.org/Graphics/SVG/1.1/DTD/svg11.dtd">
<svg version="1.1" xmlns="http://www.w3.org/2000/svg" xmlns:xlink="http://www.w3.org/1999/xlink" x="0px" y="0px"
	 viewBox="0 0 500 375" enable-background="new 0 0 500 375" xml:space="preserve">
<g id="Layer_1">
</g>
<g id="Layer_2">
	<rect x="106.8" y="25.4" fill="none" stroke="#1B586B" stroke-width="0.75" stroke-miterlimit="10" width="75.8" height="83.4"/>
	<rect x="106.8" y="108.8" fill="none" stroke="#1B586B" stroke-width="0.75" stroke-miterlimit="10" width="75.8" height="80.5"/>
	<rect x="106.8" y="189.3" fill="none" stroke="#1B586B" stroke-width="0.75" stroke-miterlimit="10" width="75.8" height="81.9"/>
	<rect x="106.8" y="271.3" fill="none" stroke="#1B586B" stroke-width="0.75" stroke-miterlimit="10" width="75.8" height="98.1"/>
	<g>
		<path fill="#FFFFFF" d="M119.3,101.4c-2.4,0-3.5-1.1-3.5-3.5V35.5c0-2.4,1.1-3.5,3.5-3.5h29.9c13.1,0,18.5,6.3,18.5,14.8v4.6
			c0,4.9-1.4,8.6-5.7,10.4c6.9,0.7,12.1,5.9,12.1,14.9v8.9c0,9.7-6.4,15.8-18.7,15.8H119.3z M137.6,58.8h7.3c3.1,0,3.7-1.8,3.7-3.9
			v-2.7c0-2-0.6-3.9-3.7-3.9h-7.3V58.8z M137.6,85.1h11.7c3.1,0,3.7-1.8,3.7-3.9v-3.8c0-2-0.6-3.8-3.7-3.8h-11.7V85.1z"/>
		<path fill="#FFFFFF" d="M115.7,136.8v-18.5c0-2.4,1.1-3.5,3.5-3.5H134c2.4,0,3.5,1.1,3.5,3.5v15.8c0,1.4,0,2.7,0.9,4l3.8,6.9
			c0.7,1.2,1.3,1.6,2.3,1.6h1c1.1,0,1.6-0.5,2.3-1.6l3.9-6.9c0.9-1.4,0.9-2.7,0.9-4v-15.8c0-2.4,1.1-3.5,3.5-3.5h14.4
			c2.4,0,3.5,1.1,3.5,3.5v18.5c0,5-0.8,7.9-3.7,11.9L156,168.4v12.3c0,2.4-1.1,3.5-3.5,3.5h-15.6c-2.5,0-3.5-1.1-3.5-3.5v-12.4
			l-14.1-19.7C116.3,144.7,115.7,141.8,115.7,136.8z"/>
		<path fill="#FFFFFF" d="M119.2,265.9c-2.4,0-3.5-1.1-3.5-3.5V200c0-2.4,1.1-3.5,3.5-3.5h31c14.5,0,19,6.6,19,16.1v4.4
			c0,5.4-1.3,9.3-5.4,11c5.9,0.8,10.7,5.9,10.7,14v20.4c0,2.4-1.1,3.5-3.5,3.5h-14.9c-2.4,0-3.5-1.1-3.5-3.5v-14.8
			c0-2.9-1-4.1-3.7-4.1h-11.5v18.9c0,2.4-1.1,3.5-3.5,3.5H119.2z M137.6,226.2h6.2c3.4,0,4.2-1.9,4.2-4.5v-3.3
			c0-2.6-0.9-4.5-4.2-4.5h-6.2V226.2z"/>
		<path fill="#FFFFFF" d="M115.7,337.4c0-5.7,1-9.6,2.8-14.5l5.8-16.7c0.9-1.9,1.8-3.1,3.4-3.6c-2.9-2.4-3.9-5.8-3.9-9.7v-5.6
			c0-8.2,4.1-13.8,20.9-13.8c16.8,0,20.9,5.6,20.9,13.8v5.6c0,4-1,7.3-3.9,9.7c1.6,0.5,2.6,1.5,3.4,3.6l5.8,16.7
			c1.8,4.8,2.8,8.8,2.8,14.5v22.6c0,2.4-1,3.5-3.5,3.5h-14.8c-2.4,0-3.5-1.1-3.5-3.5v-11.6h-15.2v11.6c0,2.4-1.1,3.5-3.5,3.5h-14.1
			c-2.4,0-3.5-1.1-3.5-3.5V337.4z M137.6,330.8h13.5l-4-13.1c-0.5-1.3-0.8-1.6-1.8-1.6h-1.6c-1.1,0-1.3,0.4-1.8,1.6L137.6,330.8z
			 M150.5,290.2c0-2.5-0.9-3.9-5.7-3.9c-4.7,0-5.5,1.4-5.5,3.9v3.4c0,2.8,0.8,4.1,5.5,4.1c4.8,0,5.7-1.3,5.7-4.1V290.2z"/>
	</g>
	<g>
		<path fill="#EAD57D" d="M126.4,40.7h18.7c10.7,0,12.6,4.6,12.6,10.2v6.2c0,3.9-0.7,7.3-6.2,8.8c10.7,0,12.5,4.7,12.5,11.1v6.2
			c0,5.7-1.8,9.6-12.6,9.6h-25.1V40.7z M127.3,41.7v24.2h17.7c10.6,0,11.7-4.1,11.7-8.8v-6.2c0-5.2-1.9-9.3-11.7-9.3H127.3z
			 M127.3,66.8v25h24.1c9.6,0,11.7-3.4,11.7-8.7V77c0-5.8-1.8-10.1-11.6-10.1H127.3z"/>
		<path fill="#EAD57D" d="M127,123.5v11.1c0,2.7,0.1,5.1,1.4,7l8.4,12.5c1.7,2.6,4,3.5,6.2,3.5h3.3c2.4,0,4.5-0.9,6.3-3.5l8.7-12.5
			c1.3-1.8,1.3-4.3,1.3-7v-11.1h1v11.1c0,2.8-0.1,5.4-1.4,7.4l-8.7,12.5c-2,2.9-4.1,4-7.1,4h-1.1v17h-1v-17H143c-2.8,0-5-1.1-7-4
			l-8.4-12.5c-1.3-2-1.4-4.6-1.4-7.4v-11.1H127z"/>
		<path fill="#EAD57D" d="M148.2,205.2c7.5,0,11,4.6,11,11v6.7c0,5.9-1.2,9.7-5.8,11.2h1.1c7.9,0,9.6,3.6,9.6,10.3v12.9h-1v-12.9
			c0-6.4-1.3-9.4-8.7-9.4h-27.3v22.4h-1v-52.1H148.2z M127.1,206.1V234h21c8,0,10-4,10-11.1v-6.7c0-6-3.2-10-10-10H127.1z"/>
		<path fill="#EAD57D" d="M125.8,334.2c0-3.6,0.6-6.6,1.6-9.4l6.2-13.9c1.5-3.5,2.6-6.4,7-6.4h7.4c4.2,0,5.2,2.9,6.9,6.5l6.7,13.8
			c1.3,2.7,1.6,5.8,1.6,9.4v20.5h-1v-16.6h-35.6v16.6h-1V334.2z M126.8,337.2h35.6v-3c0-3.5-0.6-6.4-1.5-9l-6.7-13.8
			c-1.4-3.4-2.5-5.9-6.1-5.9h-7.4c-3.9,0-4.9,2.5-6.2,5.8l-6.2,13.9c-1,2.6-1.5,5.5-1.5,9V337.2z M131,289.2c0-5.8,2.1-9.7,13.6-9.7
			s13.8,4,13.8,9.7v3.8c0,5.8-2.3,9.6-13.8,9.6s-13.6-3.9-13.6-9.6V289.2z M132,289.2v3.8c0,5.4,2.3,8.7,12.6,8.7s12.8-3.3,12.8-8.7
			v-3.8c0-5.3-2.5-8.8-12.8-8.8S132,283.8,132,289.2z"/>
	</g>
	<g>
		<rect x="211" y="18.9" fill="none" stroke="#1B586B" stroke-width="0.75" stroke-miterlimit="10" width="75.8" height="82.1"/>
		<rect x="211" y="101" fill="none" stroke="#1B586B" stroke-width="0.75" stroke-miterlimit="10" width="75.8" height="88.3"/>
		<rect x="211" y="189.3" fill="none" stroke="#1B586B" stroke-width="0.75" stroke-miterlimit="10" width="75.8" height="81.9"/>
		<rect x="211" y="271.3" fill="none" stroke="#1B586B" stroke-width="0.75" stroke-miterlimit="10" width="75.8" height="98.1"/>
	</g>
	<g>
		<path fill="#FFFFFF" d="M219.9,44.1c0-11.7,4.9-19.7,28.8-19.7c24,0,29,8,29,19.7v47.7c0,2.4-1.1,3.6-3.5,3.6h-14.7
			c-2.4,0-3.5-1.2-3.5-3.6V77.4H241v14.4c0,2.4-1.1,3.6-3.5,3.6h-14.2c-2.4,0-3.5-1.2-3.5-3.6V44.1z M241,59.8h15.1V47.3
			c0-2.6-0.8-4.5-7.5-4.5c-6.8,0-7.6,1.9-7.6,4.5V59.8z"/>
		<path fill="#FFFFFF" d="M240.1,174.2c-15.8-0.9-20.6-8.6-20.6-19.6v-26.1c0-11.8,5.5-19.8,23.7-19.8h30.2c2.4,0,3.5,1.1,3.5,3.5
			v11.7c0,2.4-1.1,3.5-3.5,3.5h-26c-5,0-5.9,2.3-5.9,4.8v19.1c0,2.7,0.9,4.6,5.9,4.6h26c2.4,0,3.5,1.1,3.5,3.5v11.5
			c0,2.4-1.1,3.5-3.5,3.5h-13.6l-3.3,9.3c-0.7,2-1.9,2.9-4.4,2.9h-12.1c-3.3,0-3.8-1.5-2.9-3.9L240.1,174.2z"/>
		<path fill="#FFFFFF" d="M219.9,214.2c0-11.7,4.9-19.7,28.8-19.7c24,0,29,8,29,19.7V262c0,2.4-1.1,3.6-3.5,3.6h-14.7
			c-2.4,0-3.5-1.2-3.5-3.6v-14.4H241V262c0,2.4-1.1,3.6-3.5,3.6h-14.2c-2.4,0-3.5-1.2-3.5-3.6V214.2z M241,229.9h15.1v-12.4
			c0-2.6-0.8-4.5-7.5-4.5c-6.8,0-7.6,1.9-7.6,4.5V229.9z"/>
		<path fill="#FFFFFF" d="M231.8,294.6c-2.2,0.3-3.3-1-3.3-3.2v-9.3c0-2.4,1.1-3.2,3.5-3.5l33.7-4.1c2.2-0.3,3.3,1,3.3,3.2v9.3
			c0,2.4-1.1,3.2-3.5,3.5L231.8,294.6z M241.1,363.4c-2.4,0-3.5-1.1-3.5-3.5v-58.6c0-2.4,1.1-3.5,3.5-3.5h15.3
			c2.4,0,3.5,1.1,3.5,3.5v58.6c0,2.4-1.1,3.5-3.5,3.5H241.1z"/>
	</g>
	<g>
		<path fill="#EAD57D" d="M230,46.5c0-7.8,3.6-13,18.7-13c14.9,0,18.7,5.2,18.7,13v40.2h-1V69.2H231v17.5h-1V46.5z M231,68.3h35.5
			V46.5c0-7.2-3.6-12.1-17.7-12.1c-14.4,0-17.7,4.8-17.7,12.1V68.3z"/>
		<path fill="#EAD57D" d="M230,130.1c0-9.2,3.1-12.6,15.4-12.6h22.8v1h-22.8c-11.4,0-14.5,3.1-14.5,11.7v23.1
			c0,8.4,2.9,11.5,14.5,11.5h22.8v1h-14.7l-4.4,12.1h-1l4.3-12.1h-7c-12.5,0-15.4-3.5-15.4-12.4V130.1z"/>
		<path fill="#EAD57D" d="M230,216.6c0-7.8,3.6-13,18.7-13c14.9,0,18.7,5.2,18.7,13v40.2h-1v-17.5H231v17.5h-1V216.6z M231,238.4
			h35.5v-21.8c0-7.2-3.6-12.1-17.7-12.1c-14.4,0-17.7,4.8-17.7,12.1V238.4z"/>
		<path fill="#EAD57D" d="M260.3,282.7v1l-23,2.9v-1L260.3,282.7z M249.3,306.5v48.2h-1v-48.2H249.3z"/>
	</g>
	<rect x="419.2" y="35.1" fill="none" stroke="#1B586B" stroke-width="0.75" stroke-miterlimit="10" width="75.8" height="83.4"/>
	<rect x="419.2" y="118.6" fill="none" stroke="#1B586B" stroke-width="0.75" stroke-miterlimit="10" width="75.8" height="83.9"/>
	<rect x="419.2" y="202.4" fill="none" stroke="#1B586B" stroke-width="0.75" stroke-miterlimit="10" width="75.8" height="82.2"/>
	<rect x="419.2" y="284.7" fill="none" stroke="#1B586B" stroke-width="0.75" stroke-miterlimit="10" width="75.8" height="84.7"/>
	<g>
		<path fill="#FFFFFF" d="M431.6,111c-2.4,0-3.5-1.1-3.5-3.5V45.1c0-2.4,1.1-3.5,3.5-3.5h10c2.5,0,4,0.7,5.7,2.6l17.4,21.4V45.1
			c0-2.4,1.1-3.5,3.5-3.5h14.5c2.4,0,3.5,1.1,3.5,3.5v62.5c0,2.4-1.1,3.5-3.5,3.5h-14.5c-2.4,0-3.5-1.1-3.5-3.5V95.7l-15.1-20v31.8
			c0,2.4-1.1,3.5-3.5,3.5H431.6z"/>
		<path fill="#FFFFFF" d="M429,191.1v-11.5c0-2.4,1.1-3.5,3.5-3.5h12.9v-32.4h-12.9c-2.4,0-3.5-1.1-3.5-3.5v-11.7
			c0-2.4,1.1-3.5,3.5-3.5h49.2c2.4,0,3.5,1.1,3.5,3.5v11.7c0,2.4-1.1,3.5-3.5,3.5h-12.9v32.4h12.9c2.4,0,3.5,1.1,3.5,3.5v11.5
			c0,2.4-1.1,3.5-3.5,3.5h-49.2C430,194.6,429,193.5,429,191.1z"/>
		<path fill="#FFFFFF" d="M448.9,279.4c-2.4,0-3.5-1.1-3.5-3.5v-47.3h-13.9c-2.4,0-3.5-1.1-3.5-3.5v-11.7c0-2.4,1.1-3.5,3.5-3.5
			h50.9c2.4,0,3.5,1.1,3.5,3.5v11.7c0,2.4-1.1,3.5-3.5,3.5h-13.9V276c0,2.4-1.1,3.5-3.5,3.5H448.9z"/>
		<path fill="#FFFFFF" d="M431.7,361.9c-2.4,0-3.5-1.1-3.5-3.5v-62.5c0-2.4,1.1-3.5,3.5-3.5h49.9c2.4,0,3.5,1.1,3.5,3.5v11.3
			c0,2.4-1.1,3.5-3.5,3.5h-31.8v7.4h24c2.4,0,3.5,1,3.5,3.5v10.3c0,2.4-1.1,3.5-3.5,3.5h-24v8.3h31.8c2.4,0,3.5,1.1,3.5,3.5v11.3
			c0,2.4-1.1,3.5-3.5,3.5H431.7z"/>
	</g>
	<g>
		<path fill="#EAD57D" d="M440.9,51L474.9,91V50.3h1v52.1h-1v-9.9L440,51.5c-0.2-0.2-0.3-0.3-0.5-0.3c-0.2,0-0.2,0.2-0.2,0.3v50.8
			h-1v-51c0-0.8,0.6-1.2,1.2-1.2C440.1,50.2,440.3,50.4,440.9,51z"/>
		<path fill="#EAD57D" d="M456.6,185v-50.1h-18.9v-1h38.8v1h-18.9V185h18.9v1h-38.8v-1H456.6z"/>
		<path fill="#EAD57D" d="M456.6,219.7h-19.8v-1h40.5v1h-19.8v51.1h-1V219.7z"/>
		<path fill="#EAD57D" d="M438.5,301.1h37.9v1h-36.9v24.2h29.1v1h-29.1v25h36.9v1h-37.9V301.1z"/>
	</g>
	<g>
		<rect x="315.1" y="119.2" fill="none" stroke="#1B586B" stroke-width="0.75" stroke-miterlimit="10" width="75.8" height="83.1"/>
		<rect x="315.1" y="202.3" fill="none" stroke="#1B586B" stroke-width="0.75" stroke-miterlimit="10" width="75.8" height="83.2"/>
		<rect x="315.1" y="285.5" fill="none" stroke="#1B586B" stroke-width="0.75" stroke-miterlimit="10" width="75.8" height="83.9"/>
		<g>
			<rect x="315.1" y="37" fill="none" stroke="#1B586B" stroke-width="0.75" stroke-miterlimit="10" width="75.8" height="82.1"/>
		</g>
	</g>
	<g>
		<path fill="#FFFFFF" d="M344.8,114.2c-2.4,0-3.5-1.1-3.5-3.5V63.4h-13.9c-2.4,0-3.5-1.1-3.5-3.5V48.2c0-2.4,1.1-3.5,3.5-3.5h50.9
			c2.4,0,3.5,1.1,3.5,3.5v11.7c0,2.4-1.1,3.5-3.5,3.5h-13.9v47.3c0,2.4-1.1,3.5-3.5,3.5H344.8z"/>
		<path fill="#FFFFFF" d="M327.5,195.8c-2.4,0-3.5-1.1-3.5-3.5v-62.5c0-2.4,1.1-3.5,3.5-3.5h31c14.5,0,19,6.6,19,16.1v4.4
			c0,5.4-1.4,9.3-5.4,11c5.9,0.8,10.7,5.9,10.7,14v20.4c0,2.4-1.1,3.5-3.5,3.5h-14.9c-2.4,0-3.5-1.1-3.5-3.5v-14.8
			c0-2.9-1-4.1-3.7-4.1h-11.5v18.9c0,2.4-1.1,3.5-3.5,3.5H327.5z M345.8,156.1h6.2c3.4,0,4.2-1.9,4.2-4.5v-3.3
			c0-2.6-0.9-4.5-4.2-4.5h-6.2V156.1z"/>
		<path fill="#FFFFFF" d="M321,275.2v-24.5c0-5.7,1-9.6,2.8-14.5l9.2-23c1.1-3,2.7-4,6-4h40.5c2.4,0,3.5,1.1,3.5,3.5V224
			c0,2.4-1.1,3.5-3.5,3.5h-9.9v7.4h9.8c2.4,0,3.5,1,3.5,3.5v10.3c0,2.4-1.1,3.5-3.5,3.5h-9.8v8.3h9.9c2.4,0,3.5,1.1,3.5,3.5v11.3
			c0,2.4-1.1,3.5-3.5,3.5h-25.9c-2.4,0-3.5-1.1-3.5-3.5v-13.5h-9.4v13.5c0,2.4-1.1,3.5-3.5,3.5h-12.6
			C322.1,278.6,321,277.6,321,275.2z M341.6,244.1h8.4v-16.7h-0.9c-1.1,0-1.4,0.4-1.8,1.6L341.6,244.1z"/>
		<path fill="#FFFFFF" d="M327.6,362.2c-2.4,0-3.5-1.1-3.5-3.5v-62.5c0-2.4,1.1-3.5,3.5-3.5h14.9c2.4,0,3.5,1.1,3.5,3.5v22.2h2.2
			l9.9-22.5c1-2.3,2.3-3.2,4.8-3.2h14.8c2.2,0,3,1.2,2.1,3.2l-9.8,22.5c7.2,0.4,11.9,5.4,11.9,13.1v27.2c0,2.4-1.1,3.5-3.5,3.5
			h-14.8c-2.4,0-3.5-1.1-3.5-3.5V340c0-2.1-1.1-3.3-3.1-3.3H346v22.1c0,2.4-1.1,3.5-3.5,3.5H327.6z"/>
	</g>
	<g>
		<path fill="#EAD57D" d="M352.4,54.4h-19.8v-1h40.5v1h-19.8v51.1h-1V54.4z"/>
		<path fill="#EAD57D" d="M356.4,135.1c7.5,0,11,4.6,11,11v6.7c0,5.9-1.2,9.7-5.8,11.2h1.1c7.9,0,9.6,3.6,9.6,10.3v12.9h-1v-12.9
			c0-6.4-1.4-9.4-8.7-9.4h-27.3v22.4h-1v-52.1H356.4z M335.4,136v27.9h21c8,0,10-4,10-11.1v-6.7c0-6-3.2-10-10-10H335.4z"/>
		<path fill="#EAD57D" d="M331.4,241.7l8.1-19.6c1.4-3.4,2.6-4.2,4.9-4.2h29.8v1h-14V243h13.9v1h-13.9V269h14v1h-14.9v-16.7h-28V270
			h-1v-19.4C330.4,246.8,330.4,244.3,331.4,241.7z M331.3,252.3h28v-33.5h-14.8c-1.9,0-2.8,1-4,3.7l-8.1,19.6
			c-1.1,2.5-1.1,4.9-1.1,8.5V252.3z"/>
		<path fill="#EAD57D" d="M335.6,301.5v25.6h19.3l11.1-25.6h1.1l-11.1,25.6h4c7.9,0,11.7,2.7,11.7,9.4v17h-1v-17
			c0-6.2-3.6-8.5-10.7-8.5h-24.3v25.5h-1v-52.1H335.6z"/>
	</g>
	<rect x="2.7" y="31.5" fill="none" stroke="#1B586B" stroke-width="0.75" stroke-miterlimit="10" width="75.8" height="83.4"/>
	<rect x="2.7" y="114.9" fill="none" stroke="#1B586B" stroke-width="0.75" stroke-miterlimit="10" width="75.8" height="88.8"/>
	<rect x="2.7" y="203.7" fill="none" stroke="#1B586B" stroke-width="0.75" stroke-miterlimit="10" width="75.8" height="83.5"/>
	<rect x="2.7" y="287.1" fill="none" stroke="#1B586B" stroke-width="0.75" stroke-miterlimit="10" width="75.8" height="82.2"/>
	<g>
		<path fill="#FFFFFF" d="M11.6,56.6C11.6,45,16.6,37,40.5,37c24,0,29,8,29,19.7v47.7c0,2.4-1.1,3.6-3.5,3.6H51.4
			c-2.4,0-3.5-1.2-3.5-3.6V90H32.8v14.4c0,2.4-1.1,3.6-3.5,3.6H15.1c-2.4,0-3.5-1.2-3.5-3.6V56.6z M32.8,72.4h15.1V59.9
			c0-2.6-0.8-4.5-7.5-4.5c-6.8,0-7.6,1.9-7.6,4.5V72.4z"/>
		<path fill="#FFFFFF" d="M29.6,190.6c-14.5-2.2-18.3-9.3-18.3-18.9v-32c0-11.8,5.7-19.8,29.3-19.8s29.3,8,29.3,19.8v32
			c0,9.7-3.9,16.8-18.5,19v5.3c0,2.4-1.1,3.5-3.5,3.5H33.1c-2.4,0-3.5-1.1-3.5-3.5V190.6z M40.6,174.1c6.5,0,7.5-1.9,7.5-4.5v-26.3
			c0-2.5-1.1-4.4-7.5-4.4c-6.4,0-7.4,1.9-7.4,4.4v26.3C33.1,172.1,34.2,174.1,40.6,174.1z"/>
		<path fill="#FFFFFF" d="M40.6,281.3c-23.1,0-28.9-7.9-28.9-19.7v-47.7c0-2.4,1.1-3.5,3.5-3.5h15.1c2.4,0,3.5,1.1,3.5,3.5v44
			c0,2.6,1.2,4.5,7,4.5c6,0,7.1-1.9,7.1-4.5v-44c0-2.4,1-3.5,3.5-3.5H66c2.4,0,3.5,1.1,3.5,3.5v47.7
			C69.5,273.4,63.7,281.3,40.6,281.3z"/>
		<path fill="#FFFFFF" d="M11.6,311.9c0-11.7,4.9-19.7,28.8-19.7c24,0,29,8,29,19.7v47.7c0,2.4-1.1,3.6-3.5,3.6H51.4
			c-2.4,0-3.5-1.2-3.5-3.6v-14.4H32.8v14.4c0,2.4-1.1,3.6-3.5,3.6H15.1c-2.4,0-3.5-1.2-3.5-3.6V311.9z M32.8,327.7h15.1v-12.4
			c0-2.6-0.8-4.5-7.5-4.5c-6.8,0-7.6,1.9-7.6,4.5V327.7z"/>
	</g>
	<g>
		<path fill="#EAD57D" d="M21.8,59c0-7.8,3.6-13,18.7-13c14.9,0,18.7,5.2,18.7,13v40.2h-1V81.8H22.7v17.5h-1V59z M22.7,80.8h35.5V59
			c0-7.2-3.6-12.1-17.7-12.1C26.1,47,22.7,51.8,22.7,59V80.8z"/>
		<path fill="#EAD57D" d="M40.5,128.9c14.7,0,19,5.2,19,13v28.4c0,7.7-4.2,12.9-18.5,13v7.4h-1v-7.4c-14.3-0.2-18.2-5.3-18.2-13V142
			C21.8,134.2,25.8,128.9,40.5,128.9z M40.5,182.5c13.9,0,18-4.8,18-12.1V142c0-7.2-4.1-12.1-18-12.1c-13.9,0-17.7,4.8-17.7,12.1
			v28.4C22.7,177.6,26.6,182.5,40.5,182.5z"/>
		<path fill="#EAD57D" d="M23.2,219.1v40.2c0,7.2,3.7,12.1,17.1,12.1c14,0,17.9-4.8,17.9-12.1v-40.2h1v40.2c0,7.8-4.1,13-18.9,13
			c-14.2,0-18-5.2-18-13v-40.2H23.2z"/>
		<path fill="#EAD57D" d="M21.8,314.4c0-7.8,3.6-13,18.7-13c14.9,0,18.7,5.2,18.7,13v40.2h-1v-17.5H22.7v17.5h-1V314.4z M22.7,336.1
			h35.5v-21.8c0-7.2-3.6-12.1-17.7-12.1c-14.4,0-17.7,4.8-17.7,12.1V336.1z"/>
	</g>
	<g>
		<rect x="2.7" y="13.4" fill="#1C586B" stroke="#1B586B" stroke-width="0.75" stroke-miterlimit="10" width="18.1" height="18.1"/>
		<polygon fill="#FFFFFF" points="8.1,17.4 8.1,20.4 9.3,20.4 9.3,18.7 12.1,18.7 12.1,26.4 10,26.4 10,27.4 15.9,27.4 15.9,26.4 
			13.9,26.4 13.9,18.7 16.6,18.7 16.6,20.5 17.8,20.5 17.8,17.4 		"/>
		<polygon fill="#FFFFFF" points="5.9,17.4 6.7,17.4 6.7,25.2 8.1,25.2 6.2,27.4 4.5,25.3 6,25.3 		"/>
	</g>
	<g>
		
			<rect x="106.8" y="7.3" fill="#1C586B" stroke="#1B586B" stroke-width="0.75" stroke-miterlimit="10" width="18.1" height="18.1"/>
		<polygon fill="#FFFFFF" points="112.3,11.3 112.3,14.3 113.4,14.3 113.4,12.6 116.2,12.6 116.2,20.3 114.1,20.3 114.1,21.3 
			120,21.3 120,20.3 118,20.3 118,12.6 120.7,12.6 120.7,14.4 121.9,14.4 121.9,11.3 		"/>
		<polygon fill="#FFFFFF" points="110,11.3 110.8,11.3 110.8,19.1 112.3,19.1 110.4,21.3 108.6,19.2 110.1,19.2 		"/>
	</g>
	<g>
		<rect x="211" y="0.8" fill="#1C586B" stroke="#1B586B" stroke-width="0.75" stroke-miterlimit="10" width="18.1" height="18.1"/>
		<polygon fill="#FFFFFF" points="216.4,4.8 216.4,7.8 217.6,7.8 217.6,6.1 220.3,6.1 220.3,13.8 218.2,13.8 218.2,14.9 224.1,14.9 
			224.1,13.9 222.1,13.9 222.1,6.1 224.9,6.1 224.9,7.9 226,7.9 226,4.8 		"/>
		<polygon fill="#FFFFFF" points="214.2,4.8 214.9,4.8 214.9,12.6 216.4,12.6 214.5,14.9 212.7,12.7 214.2,12.7 		"/>
	</g>
	<g>
		
			<rect x="315.1" y="18.9" fill="#1C586B" stroke="#1B586B" stroke-width="0.75" stroke-miterlimit="10" width="18.1" height="18.1"/>
		<polygon fill="#FFFFFF" points="320.5,22.9 320.5,25.9 321.7,25.9 321.7,24.2 324.5,24.2 324.5,31.9 322.4,31.9 322.4,32.9 
			328.3,32.9 328.3,31.9 326.2,31.9 326.2,24.2 329,24.2 329,26 330.1,26 330.1,22.9 		"/>
		<polygon fill="#FFFFFF" points="318.3,22.9 319,22.9 319,30.7 320.5,30.7 318.6,32.9 316.8,30.7 318.3,30.8 		"/>
	</g>
	<g>
		
			<rect x="419.2" y="17.1" fill="#1C586B" stroke="#1B586B" stroke-width="0.75" stroke-miterlimit="10" width="18.1" height="18.1"/>
		<polygon fill="#FFFFFF" points="424.6,21.1 424.6,24 425.8,24 425.8,22.3 428.6,22.3 428.6,30.1 426.5,30.1 426.5,31.1 
			432.4,31.1 432.4,30.1 430.3,30.1 430.3,22.3 433.1,22.3 433.1,24.2 434.3,24.2 434.3,21.1 		"/>
		<polygon fill="#FFFFFF" points="422.4,21.1 423.1,21.1 423.1,28.9 424.6,28.9 422.7,31.1 420.9,28.9 422.4,28.9 		"/>
	</g>
</g>
</svg>
