<?xml version="1.0" encoding="utf-8"?>
<!-- Generator: Adobe Illustrator 17.1.0, SVG Export Plug-In . SVG Version: 6.00 Build 0)  -->
<!DOCTYPE svg PUBLIC "-//W3C//DTD SVG 1.1//EN" "http://www.w3.org/Graphics/SVG/1.1/DTD/svg11.dtd">
<svg version="1.1" id="Layer_1" xmlns="http://www.w3.org/2000/svg" xmlns:xlink="http://www.w3.org/1999/xlink" x="0px" y="0px"
	 width="2000px" height="1500px" viewBox="62.5 250 2000 1500" enable-background="new 62.5 250 2000 1500" xml:space="preserve">
<g>
	<path fill="#1B586B" d="M63.38,463.05v-80.69c0-21.67,3.08-26.29,12.23-49.79l23.5-69.34c3.08-9.15,8.86-12.23,18.31-12.23h79.08
		c9.45,0,14.94,3.08,18.01,11.93l26.58,69.34c9.15,23.8,12.23,28.41,12.23,50.08v80.62c0,9.74-4.25,14.06-14.06,14.06h-46.13
		c-9.74,0-14.94-4.61-14.94-14.06v-39.69h-41.81v39.69c0,9.74-4.25,14.06-14.06,14.06H77.44C67.33,477.11,63.38,472.79,63.38,463.05
		z M161.13,319.46c-0.95-2.12-0.95-3.37-3.08-3.37h-1.46c-2.12,0-2.12,1.24-3.08,3.37l0.29-0.29l-13.47,42.47h33.61l-13.11-42.47
		L161.13,319.46z"/>
	<path fill="#1B586B" d="M64.04,768.23V570.24c0-9.74,4.25-14.06,14.06-14.06h94.67c44.3,0,61.72,21.38,61.72,49.79v14.64
		c0,13.77-3.37,24.46-12.23,31.48c18.96,5.2,32.66,21.97,32.66,48.84v28.12c0,32.36-20.79,53.16-62.31,53.16H78.02
		C68.28,782.22,64.04,777.97,64.04,768.23z M138.87,614.25v26.87H159c7.32,0,8.57-4.61,8.57-9.15v-8.57c0-4.61-1.24-9.15-8.57-9.15
		H138.87z M138.87,694.28v29.95h33.9c7.32,0,8.57-4.61,8.57-9.15v-11.93c0-4.61-1.24-8.86-8.57-8.86H138.87L138.87,694.28z"/>
	<path fill="#1B586B" d="M236.25,1088.06H140.7c-60.48,0-78.2-26.87-78.2-65.39v-95.04c0-38.81,17.72-65.68,78.2-65.68h95.63
		c9.74,0,14.06,4.25,14.06,14.06v36.98c0,9.74-4.25,14.06-14.06,14.06h-82.52c-12.81,0-15.6,5.49-15.6,12.23v72.71
		c0,7.03,3.08,11.64,15.6,11.64h82.45c9.74,0,14.06,4.25,14.06,14.06v36.39C250.31,1083.74,246.06,1088.06,236.25,1088.06z"/>
	<path fill="#1B586B" d="M176.43,1393.46h-98.7c-9.74,0-14.06-4.25-14.06-14.06v-197.92c0-9.74,4.25-14.06,14.06-14.06h98.63
		c60.48,0,78.2,26.87,78.2,65.39v95.33C254.63,1366.59,236.91,1393.46,176.43,1393.46z M139.16,1231.94v97.75h29
		c9.74,0,11.28-5.49,11.28-11.93v-74.25c0-6.08-1.54-11.64-11.28-11.64L139.16,1231.94L139.16,1231.94z"/>
	<path fill="#1B586B" d="M64.04,1684.88v-197.92c0-9.74,4.25-14.06,14.06-14.06h158.23c9.74,0,14.06,4.25,14.06,14.06v35.73
		c0,9.74-4.25,14.06-14.06,14.06H138.5v17.43h73c9.74,0,14.06,3.95,14.06,14.06v32.66c0,9.74-4.25,14.06-14.06,14.06h-73v20.14
		h97.75c9.74,0,14.06,4.25,14.06,14.06v35.73c0,9.74-4.25,14.06-14.06,14.06H78.02C68.28,1698.94,64.04,1694.69,64.04,1684.88z"/>
</g>
<g>
	<path fill="#1B586B" d="M488.9,467.88V269.89c0-9.74,4.25-14.06,14.06-14.06h158.23c9.74,0,14.06,4.25,14.06,14.06v36.32
		c0,9.74-4.25,14.06-14.06,14.06h-96.87v25.63h72.12c9.74,0,14.06,4.25,14.06,14.06v36.68c0,9.74-4.25,14.06-14.06,14.06h-72.12
		v57.11c0,9.74-4.25,14.35-14.06,14.35h-47.37C493.14,482.23,488.9,477.61,488.9,467.88z"/>
	<path fill="#1B586B" d="M487.07,722.32v-95.33c0-38.51,17.72-65.39,78.2-65.39h78.79c9.74,0,14.06,4.25,14.06,14.06v36.98
		c0,9.74-4.25,14.06-14.06,14.06h-65.97c-12.81,0-15.6,5.49-15.6,12.23v73c0,6.44,1.24,11.93,10.98,11.93h29v-44.59
		c0-9.74,4.25-14.06,14.06-14.06h47.37c9.74,0,14.06,4.25,14.06,14.06v94.38c0,9.74-4.25,14.06-14.06,14.06h-98.63
		C504.79,787.7,487.07,760.76,487.07,722.32z"/>
	<path fill="#1B586B" d="M488.6,1079.12V881.13c0-9.74,4.25-14.06,14.06-14.06h47.37c9.74,0,14.06,4.25,14.06,14.06v63.26h38.51
		v-63.26c0-9.74,4.25-14.06,14.06-14.06h47.37c9.74,0,14.06,4.25,14.06,14.06v197.92c0,9.74-4.25,14.06-14.06,14.06h-47.37
		c-9.74,0-14.06-4.25-14.06-14.06v-64.73h-38.51v64.73c0,9.74-4.25,14.06-14.06,14.06h-47.37
		C492.85,1093.18,488.6,1088.86,488.6,1079.12z"/>
	<path fill="#1B586B" d="M488.6,1384.6v-36.98c0-9.74,4.25-14.06,14.06-14.06h80.62c12.52,0,19.26-4.91,19.26-17.43v-129.53
		c0-9.74,4.25-14.06,14.06-14.06h47.37c9.74,0,14.06,4.25,14.06,14.06v144.76c0,42.17-25.99,67.22-68.1,67.22H502.66
		C492.85,1398.58,488.6,1394.33,488.6,1384.6z M549.96,1297.83h-47.37c-9.74,0-14.06-4.25-14.06-14.06v-97.16
		c0-9.74,4.25-14.06,14.06-14.06h47.37c9.74,0,14.06,4.25,14.06,14.06v97.16C564.02,1293.51,559.77,1297.83,549.96,1297.83z"/>
	<path fill="#1B586B" d="M502.96,1704.06c-9.74,0-14.06-4.25-14.06-14.06v-197.92c0-9.74,4.25-14.06,14.06-14.06h47.37
		c9.74,0,14.06,4.25,14.06,14.06v67.22h2.12l30.53-69.34c3.66-8.57,8.57-11.93,18.01-11.93h47.01c10.1,0,13.47,5.2,9.45,14.35
		l-29.29,67.22c21.97,3.08,36.02,19.55,36.02,44.3V1690c0,9.74-4.25,14.06-14.06,14.06h-47.01c-9.74,0-14.06-4.25-14.06-14.06
		v-59.53c0-4.61-2.12-7.32-6.74-7.32h-32.07v66.92c0,9.74-4.25,14.06-14.06,14.06L502.96,1704.06L502.96,1704.06z"/>
</g>
<g>
	<path fill="#1B586B" d="M913.83,468.17V270.18c0-9.74,4.25-14.06,14.06-14.06h47.37c9.74,0,14.06,4.25,14.06,14.06v148.13h41.52
		v-46.42c0-9.74,4.25-14.06,14.06-14.06h44.3c9.74,0,14.06,4.25,14.06,14.06v96.21c0,9.74-4.25,14.06-14.06,14.06H927.82
		C918.08,482.23,913.83,477.91,913.83,468.17z"/>
	<path fill="#1B586B" d="M921.15,787.7c-9.74,0-14.06-4.25-14.06-14.06l1.24-197.92c0-9.74,4.25-14.06,14.06-14.06h39.98
		c9.15,0,18.01,2.78,22.63,10.69v0.29l20.79,51.91h3.37l22.92-52.21h0.29c4.91-7.98,10.4-10.69,19.55-10.69h42.76
		c10.1,0,14.06,4.25,14.06,14.06l1.24,197.92c0,9.74-3.95,14.06-14.06,14.06h-46.13c-9.74,0-14.06-4.25-14.06-14.06L1034.5,689
		l-5.78,17.13v0.29c-4.61,8.27-9.74,11.28-18.96,11.28h-8.27c-9.15,0-14.35-3.08-18.96-11.28v-0.29l-6.08-17.43l-0.95,84.94
		c0,9.74-4.25,14.06-14.06,14.06L921.15,787.7L921.15,787.7z"/>
	<path fill="#1B586B" d="M927.52,1093.18c-9.74,0-14.06-4.25-14.06-14.06V881.13c0-9.74,4.25-14.06,14.06-14.06h31.78
		c8.86,0,14.35,2.42,20.5,9.45l49.5,61.07v-56.53c0-9.74,4.25-14.06,14.06-14.06h45.84c9.74,0,14.06,4.25,14.06,14.06v197.92
		c0,9.74-4.25,14.06-14.06,14.06h-45.84c-9.74,0-14.06-4.25-14.06-14.06v-36.68l-41.81-54.99v91.67c0,9.74-4.25,14.06-14.06,14.06
		L927.52,1093.18L927.52,1093.18z"/>
	<path fill="#1B586B" d="M1104.06,1337.81c0,38.51-17.43,65.39-95.92,65.39s-95.92-26.87-95.92-65.39v-104.19
		c0-38.51,17.43-65.68,95.92-65.68s95.92,27.16,95.92,65.68V1337.81z M987.71,1326.83c0,7.03,4.61,11.28,20.5,11.28
		c16.18,0,20.79-3.95,20.79-11.28v-82.15c0-7.03-4.91-10.98-20.79-10.98c-15.89,0-20.5,3.95-20.5,10.98V1326.83z"/>
	<path fill="#1B586B" d="M913.46,1690v-197.92c0-9.74,4.25-14.06,14.06-14.06h101.41c58.36,0,75.12,25.63,75.12,62.6v39.1
		c0,36.98-16.77,62.6-75.12,62.6h-39.98V1690c0,9.74-4.25,14.06-14.06,14.06h-47.37C917.78,1704.06,913.46,1699.81,913.46,1690z
		 M988.3,1541.29v39.98h32.36c9.45,0,11.28-5.78,11.28-11.94v-16.18c0-6.08-1.83-11.94-11.28-11.94L988.3,1541.29L988.3,1541.29z"/>
</g>
<g>
	<path fill="#1B586B" d="M1395.22,495.63v-14.35c-46.42-7.61-58.06-31.48-58.06-62.6V317.26c0-38.51,17.43-65.68,95.92-65.68
		s95.92,27.16,95.92,65.68v101.41c0,31.48-11.64,54.99-58.65,62.6v14.35c0,9.74-4.25,14.06-14.06,14.06h-47.08
		C1399.46,509.68,1395.22,505.44,1395.22,495.63z M1412.64,411.93c0,7.03,4.61,11.28,20.5,11.28c16.18,0,20.79-3.95,20.79-11.28
		v-83.4c0-7.03-4.91-10.98-20.79-10.98c-15.89,0-20.5,3.95-20.5,10.98V411.93z"/>
	<path fill="#1B586B" d="M1352.46,787.7c-9.74,0-14.06-4.25-14.06-14.06V575.66c0-9.74,4.25-14.06,14.06-14.06h98.34
		c48.55,0,63.26,22.33,63.26,54.04v14.06c0,15.3-3.37,26.87-12.23,33.61c16.47,5.49,29,21.67,29,45.54v64.8
		c0,9.74-4.32,14.06-14.06,14.06h-47.37c-9.74,0-14.06-4.25-14.06-14.06v-46.71c0-6.74-2.12-10.1-8.57-10.1h-33.32v56.82
		c0,9.74-4.32,14.06-14.06,14.06H1352.46L1352.46,787.7z M1413.52,622.74v33.02H1430c8.57,0,10.4-4.91,10.4-11.28v-10.4
		c0-6.44-1.83-11.28-10.4-11.28L1413.52,622.74L1413.52,622.74z"/>
	<path fill="#1B586B" d="M1461.77,1093.18h-109.39c-9.74,0-14.06-4.25-14.06-14.06v-35.73c0-9.74,4.25-14.06,14.06-14.06h94.97
		c3.37,0,4.91-2.78,4.91-5.78c0-4.61-1.54-7.03-5.2-7.32l-58.65-6.44c-30.53-4.61-50.08-17.72-50.08-53.74v-32.07
		c0-36.68,24.46-56.82,66.26-56.82H1506c9.74,0,14.06,4.25,14.06,14.06v36.32c0,9.74-4.25,14.06-14.06,14.06h-87.06
		c-3.37,0-5.2,2.78-5.2,6.08c0,3.66,1.83,6.44,5.49,6.74l58.36,6.08c30.53,4.61,50.38,17.72,50.38,53.74v32.07
		C1528.11,1072.97,1503.36,1093.18,1461.77,1093.18z"/>
	<path fill="#1B586B" d="M1393.39,1384.6v-146.95h-40.93c-9.74,0-14.06-4.25-14.06-14.06v-36.98c0-9.74,4.25-14.06,14.06-14.06
		h161.23c9.74,0,14.06,4.25,14.06,14.06v36.98c0,9.74-4.25,14.06-14.06,14.06h-40.93v146.95c0,9.74-4.25,14.06-14.06,14.06h-51.33
		C1397.63,1398.58,1393.39,1394.33,1393.39,1384.6z"/>
	<path fill="#1B586B" d="M1527.75,1643.28c0,38.51-17.72,65.39-94.67,65.39c-76.95,0-94.67-26.87-94.67-65.39v-151.2
		c0-9.74,4.25-14.06,14.06-14.06h47.96c9.74,0,14.06,4.25,14.06,14.06v139.27c0,7.03,4.61,11.28,19.26,11.28
		c14.94,0,19.55-4.25,19.55-11.28v-139.27c0-9.74,3.95-14.06,14.06-14.06h46.42c9.74,0,14.06,4.25,14.06,14.06L1527.75,1643.28
		L1527.75,1643.28z"/>
</g>
<g>
	<path fill="#1B586B" d="M1896.74,482.23h-77.32c-10.69,0-16.18-3.08-19.55-12.23l-26.87-74.54c-7.61-18.96-10.1-24.75-10.1-44.59
		v-80.69c0-9.74,4.32-14.06,14.06-14.06h46.13c9.74,0,14.94,4.61,14.94,14.06v84.28c0,3.95,0.59,7.32,2.42,11.64l12.81,42.47
		c0.95,2.12,1.24,3.37,3.08,3.37h4.61c1.83,0,2.12-1.24,3.08-3.37l-0.29,0.29l13.47-43.05v-0.29c1.54-3.95,2.12-7.32,2.12-11.28
		v-84.06c0-9.74,4.25-14.06,14.06-14.06h45.54c10.1,0,14.06,4.25,14.06,14.06v80.62c0,19.84,0.59,25.63-7.03,44.59l-29.95,74.83
		C1912.63,479.15,1907.43,482.23,1896.74,482.23z"/>
	<path fill="#1B586B" d="M1774.31,774.52l-10.98-42.18c-5.49-21.38-5.49-25.63-5.49-44.88l-1.24-111.81
		c0-9.74,4.25-14.06,14.06-14.06h45.18c9.74,0,14.06,4.25,14.06,14.06l1.24,87.06l6.44-19.55v-0.29
		c4.91-7.98,9.74-10.98,18.96-10.98h9.45c9.15,0,14.06,3.08,18.96,10.98v0.29l6.44,19.26l0.95-86.77c0-10.1,2.71-14.06,12.52-14.06
		h40.64c10.1,0,14.06,4.25,14.06,14.06l-1.24,112.39c0,18.96,0,23.5-5.49,44.88l-10.98,41.22c-2.42,9.15-7.32,13.47-16.47,13.47
		h-30.53c-11.64,0-15.89-3.66-18.31-11.28l-15.6-51.62h-2.42l-15.6,51.62c-2.42,7.32-6.74,11.28-18.31,11.28h-33.02
		C1782.22,787.7,1776.73,783.09,1774.31,774.52z"/>
	<path fill="#1B586B" d="M1777.31,1093.18c-9.74,0-14.06-4.25-14.06-14.06v-32.66c0-19.84,3.95-25.63,12.23-39.39l18.96-31.48
		l-18.96-31.48c-8.27-13.77-12.23-19.55-12.23-39.39v-23.5c0-9.74,4.25-14.06,14.06-14.06h47.01c9.74,0,14.06,4.25,14.06,14.06
		v21.09c0,3.66,0.29,7.61,2.42,11.28l10.98,19.26c1.24,2.12,2.42,3.66,4.61,3.66h3.66c2.12,0,3.37-1.24,4.61-3.66l10.98-19.26
		c2.12-3.66,2.42-7.61,2.42-11.28v-21.09c0-9.74,4.32-14.06,14.06-14.06h46.42c9.74,0,14.06,4.25,14.06,14.06v23.5
		c0,19.84-3.95,25.63-12.23,39.39l-18.96,31.78l18.96,31.19c8.57,13.77,12.23,19.55,12.23,39.39v32.66
		c0,9.74-4.25,14.06-14.06,14.06h-46.42c-9.74,0-14.06-4.25-14.06-14.06v-30.24c0-3.66-0.29-7.32-2.42-11.28l-10.69-19.26
		c-1.24-2.42-2.42-3.66-4.61-3.66h-4.25c-2.12,0-3.37,1.24-4.61,3.66l-11.28,19.26c-2.12,3.66-2.42,7.61-2.42,11.28v30.24
		c0,9.74-4.25,14.06-14.06,14.06H1777.31z"/>
	<path fill="#1B586B" d="M1819.2,1384.6v-38.51l-44.01-61.36c-9.74-13.11-12.23-22.63-12.23-39.39v-58.72
		c0-9.74,4.32-14.06,14.06-14.06h47.01c9.74,0,14.06,4.25,14.06,14.06v50.08c0,3.66,0,7.32,2.42,11.28l11.93,21.97
		c1.24,2.42,2.42,3.66,4.61,3.66h3.08c2.12,0,3.37-1.24,4.61-3.66l12.52-21.97c2.12-3.95,2.12-7.61,2.12-11.28v-50.08
		c0-9.74,4.25-14.06,14.06-14.06h45.54c9.74,0,14.06,4.25,14.06,14.06v58.65c0,16.77-2.42,26.29-12.23,39.39l-44.01,61.72v38.15
		c0,9.74-4.25,14.06-14.06,14.06h-49.5C1823.15,1398.58,1819.2,1394.33,1819.2,1384.6z"/>
	<path fill="#1B586B" d="M1763.26,1690v-40.93c0-8.86,2.42-14.64,8.57-21.09l82.15-84.94h-74.25c-9.74,0-14.06-4.25-14.06-14.06
		v-36.98c0-9.74,4.32-14.06,14.06-14.06h156.4c9.74,0,14.06,4.25,14.06,14.06v45.54c0,9.15-2.42,14.94-8.57,21.38l-78.49,80.62
		h75.42c9.74,0,14.06,4.25,14.06,14.06v36.32c0,9.74-4.25,14.06-14.06,14.06h-161.3C1767.58,1704.06,1763.26,1699.81,1763.26,1690z"
		/>
</g>
<g>
	<path fill="#EFE445" d="M122.32,474.03H77.44c-7.98,0-10.98-3.37-10.98-10.98v-80.69c0-21.09,3.08-25.63,11.93-48.84l23.5-69.34
		c2.71-7.61,7.61-10.1,15.52-10.1h79.08c7.98,0,12.52,2.42,15.3,10.1l26.58,69.34c8.86,23.21,11.93,27.82,11.93,48.84v80.62
		c0,7.61-3.37,10.98-10.98,10.98H193.2c-7.61,0-11.93-3.37-11.93-10.98v-42.76h-47.89v42.76
		C133.38,470.66,130.01,474.03,122.32,474.03z M136.38,364.64h41.81l-14.28-46.42c-1.83-3.95-2.42-5.2-5.78-5.2h-1.54
		c-3.37,0-3.95,1.24-5.78,5.2L136.38,364.64z"/>
	<path fill="#EFE445" d="M78.02,779.21c-7.61,0-10.98-3.37-10.98-10.98V570.24c0-7.61,3.37-10.98,10.98-10.98h94.67
		c41.52,0,58.65,19.84,58.65,46.71v14.64c0,15.6-4.61,27.16-18.01,33.02c21.97,2.12,38.51,18.6,38.51,47.37v28.12
		c0,30.83-20.14,50.08-59.24,50.08L78.02,779.21L78.02,779.21z M135.79,644.19H159c9.74,0,11.64-5.78,11.64-12.23v-8.57
		c0-6.44-1.83-12.23-11.64-12.23h-23.21C135.79,611.17,135.79,644.19,135.79,644.19z M135.79,727.3h36.98
		c9.74,0,11.64-5.78,11.64-12.23v-11.93c0-6.44-1.83-11.93-11.64-11.93h-36.98C135.79,691.2,135.79,727.3,135.79,727.3z"/>
	<path fill="#EFE445" d="M140.7,1084.98c-57.77,0-75.12-25.33-75.12-62.31v-95.04c0-37.27,17.43-62.6,75.12-62.6h95.63
		c7.61,0,10.98,3.37,10.98,10.98v36.98c0,7.61-3.37,10.98-10.98,10.98h-82.52c-15.89,0-18.6,7.32-18.6,15.3v72.71
		c0,8.57,2.78,14.64,18.6,14.64h82.45c7.61,0,10.98,3.37,10.98,10.98V1074c0,7.61-3.37,10.98-10.98,10.98H140.7z"/>
	<path fill="#EFE445" d="M77.73,1390.46c-7.61,0-10.98-3.37-10.98-10.98v-197.99c0-7.61,3.37-10.98,10.98-10.98h98.63
		c57.7,0,75.12,25.33,75.12,62.31v95.33c0,36.98-17.43,62.31-75.12,62.31L77.73,1390.46L77.73,1390.46z M136.09,1332.69h32.07
		c12.23,0,14.35-6.74,14.35-14.94v-74.25c0-7.98-2.12-14.64-14.35-14.64h-32.07V1332.69z"/>
	<path fill="#EFE445" d="M78.02,1695.93c-7.61,0-10.98-3.37-10.98-10.98v-197.92c0-7.61,3.37-10.98,10.98-10.98h158.23
		c7.61,0,10.98,3.37,10.98,10.98v35.73c0,7.61-3.37,10.98-10.98,10.98H135.5v23.5h76c7.61,0,10.98,3.08,10.98,10.98v32.66
		c0,7.61-3.37,10.98-10.98,10.98h-76v26.29h100.82c7.61,0,10.98,3.37,10.98,10.98v35.73c0,7.61-3.37,10.98-10.98,10.98
		L78.02,1695.93L78.02,1695.93z"/>
</g>
<g>
	<path fill="#EFE445" d="M502.96,479.15c-7.61,0-10.98-3.66-10.98-11.28V269.89c0-7.61,3.37-10.98,10.98-10.98h158.23
		c7.61,0,10.98,3.37,10.98,10.98v36.32c0,7.61-3.37,10.98-10.98,10.98h-99.87v31.78h75.12c7.61,0,10.98,3.37,10.98,10.98v36.68
		c0,7.61-3.37,10.98-10.98,10.98h-75.12v60.19c0,7.61-3.37,11.28-10.98,11.28h-47.37V479.15z"/>
	<path fill="#EFE445" d="M565.27,784.63c-57.77,0-75.12-25.33-75.12-62.31v-95.33c0-36.98,17.43-62.31,75.12-62.31h78.79
		c7.61,0,10.98,3.37,10.98,10.98v36.98c0,7.61-3.37,10.98-10.98,10.98h-65.97c-15.89,0-18.6,7.32-18.6,15.3v73
		c0,8.27,1.83,14.94,14.06,14.94h32.07v-47.67c0-7.61,3.37-10.98,10.98-10.98h47.37c7.61,0,10.98,3.37,10.98,10.98v94.45
		c0,7.61-3.37,10.98-10.98,10.98H565.27L565.27,784.63z"/>
	<path fill="#EFE445" d="M502.66,1090.1c-7.61,0-10.98-3.37-10.98-10.98V881.13c0-7.61,3.37-10.98,10.98-10.98h47.37
		c7.61,0,10.98,3.37,10.98,10.98v66.26h44.59v-66.26c0-7.61,3.37-10.98,10.98-10.98h47.37c7.61,0,10.98,3.37,10.98,10.98v197.92
		c0,7.61-3.37,10.98-10.98,10.98h-47.37c-7.61,0-10.98-3.37-10.98-10.98v-67.8h-44.59v67.8c0,7.61-3.37,10.98-10.98,10.98h-47.37
		V1090.1z"/>
	<path fill="#EFE445" d="M491.68,1347.62c0-7.61,3.37-10.98,10.98-10.98h80.62c14.64,0,22.26-5.78,22.26-20.5v-129.53
		c0-7.61,3.37-10.98,10.98-10.98h47.37c7.61,0,10.98,3.37,10.98,10.98v144.76c0,40.34-24.75,64.14-65.09,64.14H502.66
		c-7.61,0-10.98-3.37-10.98-10.98V1347.62z M502.66,1294.76c-7.61,0-10.98-3.37-10.98-10.98v-97.16c0-7.61,3.37-10.98,10.98-10.98
		h47.37c7.61,0,10.98,3.37,10.98,10.98v97.16c0,7.61-3.37,10.98-10.98,10.98H502.66z"/>
	<path fill="#EFE445" d="M502.96,1701.06c-7.61,0-10.98-3.37-10.98-10.98v-197.92c0-7.61,3.37-10.98,10.98-10.98h47.37
		c7.61,0,10.98,3.37,10.98,10.98v70.22h7.03l31.48-71.17c3.08-7.32,7.32-10.1,15.3-10.1h47.01c7.03,0,9.45,3.66,6.74,10.1
		l-31.19,71.17c22.92,1.24,37.56,17.13,37.56,41.52V1690c0,7.61-3.37,10.98-10.98,10.98h-47.01c-7.61,0-10.98-3.37-10.98-10.98
		v-59.53c0-6.74-3.37-10.4-9.74-10.4h-35.15V1690c0,7.61-3.37,10.98-10.98,10.98h-47.45V1701.06z"/>
</g>
<g>
	<path fill="#EFE445" d="M927.82,479.15c-7.61,0-10.98-3.37-10.98-10.98V270.18c0-7.61,3.37-10.98,10.98-10.98h47.37
		c7.61,0,10.98,3.37,10.98,10.98v151.27h47.67v-49.5c0-7.61,3.37-10.98,10.98-10.98h44.3c7.61,0,10.98,3.37,10.98,10.98v96.21
		c0,7.61-3.37,10.98-10.98,10.98H927.82z"/>
	<path fill="#EFE445" d="M921.15,784.63c-7.61,0-10.98-3.37-10.98-10.98l1.24-197.92c0-7.61,3.37-10.98,10.98-10.98h39.98
		c7.98,0,15.89,2.12,19.84,9.15l21.38,53.74h7.32l23.8-53.74c4.25-6.74,9.15-9.15,17.13-9.15h42.76c7.98,0,10.98,3.37,10.98,10.98
		l1.24,197.92c0,7.61-3.08,10.98-10.98,10.98h-46.13c-7.61,0-10.98-3.37-10.98-10.98l-1.24-89.48v-12.81l-11.64,33.61
		c-3.95,7.03-8.27,9.74-16.18,9.74h-8.27c-7.91,0-12.23-2.78-16.18-9.74l-11.93-33.61v12.81l-0.81,89.48
		c0,7.61-3.37,10.98-10.98,10.98H921.15z"/>
	<path fill="#EFE445" d="M927.52,1090.1c-7.61,0-10.98-3.37-10.98-10.98V881.13c0-7.61,3.37-10.98,10.98-10.98h31.78
		c7.91,0,12.81,2.12,18.01,8.27l54.99,67.8v-65.09c0-7.61,3.37-10.98,10.98-10.98h45.84c7.61,0,10.98,3.37,10.98,10.98v197.92
		c0,7.61-3.37,10.98-10.98,10.98h-45.84c-7.61,0-10.98-3.37-10.98-10.98v-37.56l-47.96-63.26v100.82c0,7.61-3.37,10.98-10.98,10.98
		h-45.84V1090.1z"/>
	<path fill="#EFE445" d="M1008.21,1400.12c-74.83,0-92.84-25.04-92.84-62.31v-104.19c0-37.27,18.01-62.6,92.84-62.6
		s92.84,25.33,92.84,62.6v104.19C1101.06,1375.08,1083.04,1400.12,1008.21,1400.12z M1008.21,1341.18c20.5,0,23.8-6.08,23.8-14.35
		v-82.15c0-7.98-3.37-14.06-23.8-14.06c-20.14,0-23.5,6.08-23.5,14.06v82.15C984.63,1335.1,988,1341.18,1008.21,1341.18z"/>
	<path fill="#EFE445" d="M927.52,1701.06c-7.61,0-10.98-3.37-10.98-10.98v-197.92c0-7.61,3.37-10.98,10.98-10.98h101.41
		c55.57,0,72.05,24.16,72.05,59.53v39.1c0,35.44-16.47,59.6-72.05,59.6h-43.05v50.67c0,7.61-3.37,10.98-10.98,10.98H927.52
		L927.52,1701.06z M985.29,1584.34h35.44c11.94,0,14.35-7.03,14.35-14.94v-16.18c0-7.91-2.42-14.94-14.35-14.94h-35.44V1584.34z"/>
</g>
<g>
	<path fill="#EFE445" d="M1409.27,506.61c-7.61,0-10.98-3.37-10.98-10.98v-17.06c-45.84-7.03-58.06-29.29-58.06-59.89V317.26
		c0-37.27,18.01-62.6,92.84-62.6c74.83,0,92.84,25.33,92.84,62.6v101.41c0,30.83-12.23,53.16-58.65,60.19v16.77
		c0,7.61-3.37,10.98-10.98,10.98H1409.27z M1433.07,426.29c20.5,0,23.8-6.08,23.8-14.35v-83.4c0-7.98-3.37-14.06-23.8-14.06
		c-20.14,0-23.5,6.08-23.5,14.06v83.4C1409.57,420.21,1412.94,426.29,1433.07,426.29z"/>
	<path fill="#EFE445" d="M1352.46,784.63c-7.61,0-10.98-3.37-10.98-10.98V575.66c0-7.61,3.37-10.98,10.98-10.98h98.34
		c45.84,0,60.19,20.79,60.19,51.03v14.06c0,17.13-4.25,29.29-17.13,34.85c18.6,2.42,33.9,18.6,33.9,44.3v64.73
		c0,7.61-3.37,10.98-10.98,10.98h-47.37c-7.61,0-10.98-3.37-10.98-10.98v-46.71c0-9.15-3.08-13.11-11.64-13.11h-36.32v59.82
		c0,7.61-3.37,10.98-10.98,10.98H1352.46L1352.46,784.63z M1410.45,658.76H1430c10.69,0,13.47-6.08,13.47-14.35v-10.4
		c0-8.27-2.78-14.35-13.47-14.35h-19.55V658.76z"/>
	<path fill="#EFE445" d="M1352.46,1090.1c-7.61,0-10.98-3.37-10.98-10.98v-35.73c0-7.61,3.37-10.98,10.98-10.98h94.97
		c5.2,0,7.91-3.95,7.91-8.86c0-7.03-2.71-9.74-7.91-10.4l-58.65-6.44c-28.7-4.25-47.37-16.47-47.37-50.74v-32.07
		c0-34.85,23.5-53.74,63.26-53.74h101.41c7.61,0,10.98,3.37,10.98,10.98v36.32c0,7.61-3.37,10.98-10.98,10.98h-87.06
		c-5.2,0-8.27,3.66-8.27,9.15c0,5.49,3.08,9.15,8.27,9.74l58.36,6.08c28.7,4.25,47.67,16.47,47.67,50.67v32.07
		c0,34.85-23.8,53.74-63.26,53.74h-109.32V1090.1z"/>
	<path fill="#EFE445" d="M1407.44,1395.58c-7.61,0-10.98-3.37-10.98-10.98v-149.96h-44.01c-7.61,0-10.98-3.37-10.98-10.98v-37.05
		c0-7.61,3.37-10.98,10.98-10.98h161.23c7.61,0,10.98,3.37,10.98,10.98v36.98c0,7.61-3.37,10.98-10.98,10.98h-43.93v149.96
		c0,7.61-3.37,10.98-10.98,10.98h-51.33V1395.58z"/>
	<path fill="#EFE445" d="M1433.07,1705.6c-73.29,0-91.67-25.04-91.67-62.31v-151.2c0-7.61,3.37-10.98,10.98-10.98h47.96
		c7.61,0,10.98,3.37,10.98,10.98v139.27c0,8.27,3.66,14.35,22.33,14.35c18.96,0,22.63-6.08,22.63-14.35v-139.27
		c0-7.61,3.08-10.98,10.98-10.98h46.42c7.61,0,10.98,3.37,10.98,10.98v151.2C1524.74,1680.55,1506.36,1705.6,1433.07,1705.6z"/>
</g>
<g>
	<path fill="#EFE445" d="M1819.49,479.15c-9.15,0-13.77-2.42-16.77-10.1l-26.87-74.83c-7.32-18.31-9.74-24.16-9.74-43.35v-80.69
		c0-7.61,3.37-10.98,10.98-10.98h46.13c7.61,0,11.93,3.37,11.93,10.98v84.28c0,4.25,0.59,7.98,2.42,12.52l13.11,42.76
		c1.54,3.95,2.42,5.2,5.78,5.2h4.61c3.37,0,4.25-1.24,5.78-5.2l13.11-43.05c1.83-4.61,2.42-8.27,2.42-12.52v-83.98
		c0-7.61,3.37-10.98,10.98-10.98h45.54c7.98,0,10.98,3.37,10.98,10.98v80.62c0,19.26,0.59,25.04-6.74,43.35l-29.87,74.9
		c-3.08,7.61-7.32,10.1-16.47,10.1H1819.49L1819.49,479.15z"/>
	<path fill="#EFE445" d="M1945.36,564.67c7.91,0,10.98,3.37,10.98,10.98l-1.24,112.39c0,18.6,0,23.21-5.49,44.01l-10.98,41.52
		c-1.83,7.32-5.78,10.98-13.47,10.98h-30.53c-9.45,0-13.47-2.78-15.3-9.15l-16.18-53.74h-7.32l-16.18,53.74
		c-1.83,6.08-5.78,9.15-15.3,9.15h-33.02c-7.61,0-12.23-3.66-14.06-10.98l-10.98-42.18c-5.49-20.79-5.49-25.04-5.49-44.01
		l-1.24-111.81c0-7.61,3.37-10.98,10.98-10.98h45.18c7.61,0,10.98,3.37,10.98,10.98l1.24,95.33v9.45l12.23-36.02
		c3.95-6.74,8.27-9.45,16.18-9.45h9.45c7.91,0,12.23,2.78,16.18,9.45l12.23,36.02v-9.45l0.95-95.33c0-7.61,1.83-10.98,9.45-10.98
		h40.78V564.67z"/>
	<path fill="#EFE445" d="M1823.74,1090.1h-46.42c-7.61,0-10.98-3.37-10.98-10.98v-32.66c0-18.96,3.66-24.46,11.64-37.56l20.14-33.32
		l-20.14-33.32c-7.91-13.11-11.64-18.6-11.64-37.56v-23.5c0-7.61,3.37-10.98,10.98-10.98h47.01c7.61,0,10.98,3.37,10.98,10.98v21.09
		c0,4.25,0.29,8.86,2.78,12.81l10.98,19.26c1.83,3.37,3.95,5.2,7.32,5.2h3.66c3.37,0,5.2-1.54,7.32-5.2l10.98-19.26
		c2.42-4.25,2.78-8.57,2.78-12.81v-21.09c0-7.61,3.37-10.98,10.98-10.98h46.42c7.61,0,10.98,3.37,10.98,10.98v23.5
		c0,18.96-3.66,24.46-11.64,37.56l-20.14,33.61l20.14,33.02c7.98,13.11,11.64,18.6,11.64,37.56v32.66c0,7.61-3.37,10.98-10.98,10.98
		h-46.42c-7.61,0-10.98-3.37-10.98-10.98v-30.24c0-4.25-0.29-8.27-2.78-12.81l-10.69-19.26c-2.12-3.95-3.95-5.2-7.32-5.2h-4.25
		c-3.37,0-5.2,1.54-7.32,5.2l-11.28,19.26c-2.42,4.25-2.78,8.57-2.78,12.81v30.24C1834.72,1086.74,1831.42,1090.1,1823.74,1090.1z"
		/>
	<path fill="#EFE445" d="M1833.26,1395.58c-7.91,0-10.98-3.37-10.98-10.98v-39.39l-44.59-62.31c-9.45-12.52-11.64-21.67-11.64-37.56
		v-58.72c0-7.61,3.37-10.98,10.98-10.98h47.01c7.61,0,10.98,3.37,10.98,10.98v50.08c0,4.32,0,8.57,2.78,12.81l11.93,21.97
		c2.12,3.66,3.95,5.2,7.32,5.2h3.08c3.37,0,5.2-1.54,7.32-5.2l12.23-21.97c2.78-4.25,2.78-8.57,2.78-12.81v-50.08
		c0-7.61,3.37-10.98,10.98-10.98h45.54c7.61,0,10.98,3.37,10.98,10.98v58.65c0,15.89-2.42,25.04-11.64,37.56l-44.59,62.6v39.1
		c0,7.61-3.37,10.98-10.98,10.98h-49.5V1395.58z"/>
	<path fill="#EFE445" d="M1777.31,1701.06c-7.61,0-10.98-3.37-10.98-10.98v-40.93c0-7.98,2.12-13.11,7.61-18.96l87.06-90.13h-81.27
		c-7.61,0-10.98-3.37-10.98-10.98v-36.98c0-7.61,3.37-10.98,10.98-10.98h156.4c7.61,0,10.98,3.37,10.98,10.98v45.54
		c0,8.27-2.12,13.47-7.61,19.26l-83.69,85.81h82.81c7.61,0,10.98,3.37,10.98,10.98V1690c0,7.61-3.37,10.98-10.98,10.98
		L1777.31,1701.06L1777.31,1701.06z"/>
</g>
<g>
	<path fill="#FFFFFF" d="M214.29,394H101.6v52.57h-3.08v-65.09c0-11.28,1.83-20.79,5.2-29.65l19.55-50.08
		c4.54-11.28,8.2-20.14,22.26-20.14h23.5c13.47,0,17.13,8.57,21.97,20.5l21.09,49.79c3.37,8.86,5.2,18.31,5.2,29.65v65.09h-3.08
		L214.29,394L214.29,394z M101.6,390.92h112.69v-9.45c0-10.98-1.83-20.14-4.91-28.41l-21.09-49.79c-4.61-10.69-7.98-18.6-19.26-18.6
		h-23.5c-12.23,0-15.6,7.98-19.55,18.31l-19.55,50.08c-3.08,8.27-4.91,17.43-4.91,28.41C101.6,381.48,101.6,390.92,101.6,390.92z"/>
	<path fill="#FFFFFF" d="M100.06,751.97V587.08h59.24c33.9,0,40.05,14.64,40.05,32.36V639c0,12.23-2.12,23.21-19.55,27.82
		c33.9,0,39.69,14.94,39.69,35.15v19.55c0,18.01-5.78,30.53-39.98,30.53h-79.44V751.97z M103.14,590.08v76.66h56.23
		c33.61,0,36.98-13.11,36.98-27.82v-19.55c0-16.47-6.08-29.29-36.98-29.29H103.14L103.14,590.08z M103.14,669.82v79.08h76.37
		c30.53,0,36.98-10.69,36.98-27.53v-19.48c0-18.31-5.78-32.07-36.68-32.07H103.14L103.14,669.82z"/>
	<path fill="#FFFFFF" d="M219.78,1057.45h-72.05c-39.69,0-48.84-10.98-48.84-39.39v-85.52c0-29,9.74-39.98,48.84-39.98h72.05v3.08
		h-72.05c-36.02,0-45.84,9.74-45.84,36.98v85.52c0,26.58,9.15,36.39,45.84,36.39h72.05V1057.45L219.78,1057.45z"/>
	<path fill="#FFFFFF" d="M100.06,1198.03h69.63c41.52,0,48.84,18.96,48.84,42.47v80.98c0,23.5-6.74,41.52-48.84,41.52h-69.63
		V1198.03z M103.14,1201.04v158.82h66.56c39.1,0,45.84-16.18,45.84-38.51v-80.98c0-22.33-7.32-39.39-45.84-39.39h-66.56V1201.04z"/>
	<path fill="#FFFFFF" d="M219.78,1668.4H99.77v-164.97h120.01v3.08H102.77v76.66h92.26v3.08h-92.26v79.08h117.01V1668.4z"/>
</g>
<g>
	<path fill="#FFFFFF" d="M525.21,286.73h119.42v3.08H528.29v87.35h91.6v3.08h-91.6v71.46h-3.08V286.73L525.21,286.73z"/>
	<path fill="#FFFFFF" d="M523.38,717.7v-85.52c0-29,9.74-39.98,48.84-39.98h55.28v3.08h-55.28c-36.02,0-45.84,9.74-45.84,36.98
		v85.52c0,26.58,10.69,36.32,51.91,36.32h60.48v-58.36h3.08v61.36H578.3C533.49,757.1,523.38,746.11,523.38,717.7z"/>
	<path fill="#FFFFFF" d="M524.92,897.68H528v80.98h110.56v-80.98h3.08v164.97h-3.08v-80.98H528v80.98h-3.08V897.68L524.92,897.68z"
		/>
	<path fill="#FFFFFF" d="M519.43,1368.05v-3.08h79.74c32.66,0,39.39-16.18,39.39-47.67v-114.22h3.08v114.22
		c0,32.66-6.74,50.74-42.47,50.74L519.43,1368.05L519.43,1368.05z M524.92,1267.3v-64.14H528v64.14H524.92z"/>
	<path fill="#FFFFFF" d="M525.21,1673.52v-164.97h3.08v81.27h61.07l35.15-81.27h3.37l-35.15,81.27h12.52
		c25.04,0,36.98,8.57,36.98,29.95v53.74h-3.08v-53.74c0-19.55-11.28-26.87-33.9-26.87h-76.95v80.62H525.21L525.21,1673.52z"/>
</g>
<g>
	<path fill="#FFFFFF" d="M950.15,286.73h3.08v161.89h112.1v-60.19h3.08v63.26H950.15V286.73z"/>
	<path fill="#FFFFFF" d="M1019.49,660.3l28.41-62.9c2.12-4.61,6.44-5.2,10.1-5.2h6.44c6.08,0,8.86,2.78,8.86,9.45l0.59,155.45h-3.08
		l-0.59-155.45c0-3.37-0.95-6.44-5.78-6.44h-5.78c-3.08,0-6.44,0-8.27,4.25l-28.41,62.31c-5.2,11.64-7.61,14.35-14.94,14.35
		c-7.32,0-9.74-2.78-14.94-14.35l-28.41-62.31c-1.83-4.25-5.2-4.25-8.27-4.25h-4.61c-5.78,0-7.03,3.08-7.03,6.44l-0.59,155.45h-3.08
		l0.59-155.45c0-6.74,3.08-9.45,10.1-9.45h5.2c3.66,0,8.27,0.95,10.1,5.2l28.41,62.9c4.91,10.98,6.74,12.81,12.52,12.81
		C1012.75,673.11,1014.29,671.94,1019.49,660.3z"/>
	<path fill="#FFFFFF" d="M957.18,900.1l107.56,126.45V897.68h3.08v164.97h-3.08v-31.48L954.17,901.63
		c-0.59-0.59-0.95-0.95-1.54-0.95s-0.59,0.59-0.59,0.95v160.94h-3.08V901.05c0-2.42,1.83-3.66,3.66-3.66
		C954.39,897.31,955.05,897.97,957.18,900.1z"/>
	<path fill="#FFFFFF" d="M1007.85,1372.08c-46.42,0-59.24-16.47-59.24-41.22v-90.13c0-24.75,12.81-41.22,59.24-41.22
		c46.42,0,60.19,16.47,60.19,41.22v90.13C1068.03,1355.53,1054.27,1372.08,1007.85,1372.08z M1007.85,1369
		c44.01,0,57.11-15.3,57.11-38.15v-90.13c0-22.92-13.11-38.15-57.11-38.15s-56.23,15.23-56.23,38.15v90.13
		C951.69,1353.7,963.91,1369,1007.85,1369z"/>
	<path fill="#FFFFFF" d="M952.93,1613.34v60.19h-3.08v-164.97h73.95c38.51,0,45.84,17.72,45.84,41.52v22.63
		c0,23.8-7.32,40.64-45.84,40.64H952.93L952.93,1613.34z M1023.73,1610.34c36.02,0,42.76-15.6,42.76-37.56v-22.63
		c0-21.97-6.74-38.51-42.76-38.51h-70.88v98.63L1023.73,1610.34L1023.73,1610.34z"/>
</g>
<g>
	<path fill="#FFFFFF" d="M1431.24,455.65c-45.18-0.29-57.77-16.77-57.77-41.22v-90.13c0-24.75,12.81-41.22,59.24-41.22
		c46.42,0,60.19,16.47,60.19,41.22v90.13c0,24.46-13.47,40.93-58.65,41.22v23.5h-3.08L1431.24,455.65L1431.24,455.65z
		 M1432.78,452.57c44.01,0,57.11-15.3,57.11-38.15v-90.13c0-22.92-13.11-38.15-57.11-38.15c-44.01,0-56.23,15.3-56.23,38.15v90.13
		C1376.54,437.27,1388.77,452.57,1432.78,452.57z"/>
	<path fill="#FFFFFF" d="M1374.42,757.1V592.2h69.63c23.8,0,34.85,14.64,34.85,34.85v21.09c0,18.6-3.66,30.83-18.31,35.44h3.37
		c25.04,0,30.53,11.28,30.53,32.66v40.93h-3.08v-40.93c0-20.14-4.25-29.95-27.46-29.95h-86.47v70.88L1374.42,757.1L1374.42,757.1z
		 M1377.5,595.21v88.3h66.56c25.33,0,31.78-12.52,31.78-35.15v-21.38c0-18.96-10.1-31.78-31.78-31.78H1377.5L1377.5,595.21z"/>
	<path fill="#FFFFFF" d="M1489.6,900.68h-83.69c-17.43,0-28.12,9.45-28.12,24.75v28.12c0,12.23,8.27,20.5,21.67,21.67l65.09,6.44
		c18.31,1.83,27.16,11.28,27.16,27.82v25.33c0,17.13-13.11,27.82-33.9,27.82h-88.89v-3.08h88.89c18.96,0,30.83-9.45,30.83-24.75
		v-25.41c0-14.64-7.91-23.21-24.75-24.75l-65.09-6.44c-14.94-1.54-24.16-10.98-24.16-24.75v-28.12c0-17.13,11.93-27.82,31.19-27.82
		h83.69L1489.6,900.68L1489.6,900.68z"/>
	<path fill="#FFFFFF" d="M1431.53,1206.16h-62.6v-3.08h128.28v3.08h-62.6v161.89h-3.08V1206.16z"/>
	<path fill="#FFFFFF" d="M1378.08,1508.56v127.4c0,22.92,11.64,38.15,54.04,38.15c44.3,0,56.82-15.3,56.82-38.15v-127.4h3.08v127.4
		c0,24.75-13.11,41.22-59.89,41.22c-44.88,0-57.11-16.47-57.11-41.22v-127.4H1378.08z"/>
</g>
<g>
	<path fill="#FFFFFF" d="M1798.11,286.73h3.08v65.09c0,10.98,1.83,20.14,4.91,28.41l21.09,49.79c4.61,10.69,7.98,18.6,19.26,18.6
		h23.5c12.23,0,15.6-7.98,19.55-18.31l19.55-50.08c3.08-8.27,4.91-17.43,4.91-28.41v-65.09h3.08v65.09c0,11.28-1.83,20.79-5.2,29.65
		l-19.55,50.08c-4.61,11.28-8.27,20.14-22.33,20.14h-23.5c-13.47,0-17.13-8.57-21.97-20.5l-21.09-49.79
		c-3.37-8.86-5.2-18.31-5.2-29.65L1798.11,286.73L1798.11,286.73z"/>
	<path fill="#FFFFFF" d="M1878.73,693.61l18.96,56.23c1.54,4.25,5.2,4.25,8.27,4.25h1.54c3.37,0,6.44-3.08,7.03-6.44l7.61-34.85
		c1.54-7.61,1.54-21.67,1.54-30.83V592.2h3.08v90.13c0,9.15,0.29,23.21-1.54,30.83l-7.61,34.49c-1.54,6.74-5.2,9.45-10.1,9.45h-2.12
		c-3.66,0-8.57-0.95-10.1-5.2l-18.96-56.82c-3.95-11.64-7.61-12.81-12.52-12.81h-7.61c-4.91,0-8.57,1.24-12.52,12.81l-19.84,56.82
		c-1.54,4.25-6.44,5.2-10.1,5.2h-2.12c-4.91,0-8.57-2.78-10.1-9.45l-7.61-34.49c-1.83-7.61-1.54-21.67-1.54-30.83V592.2h3.08v89.84
		c0,9.15,0,23.21,1.54,30.83l7.61,34.85c0.59,3.37,3.66,6.44,7.03,6.44h1.54c3.08,0,6.74,0,8.27-4.25l19.84-56.23
		c4.32-11.93,8.57-14.35,14.94-14.35h7.61C1870.16,679.26,1874.77,681.68,1878.73,693.61z"/>
	<path fill="#FFFFFF" d="M1802.06,1062.57h-3.08v-13.77c0-8.86,0-16.47,4.61-23.5l33.61-50.08l-33.61-49.5
		c-4.25-6.44-4.61-14.64-4.61-23.5v-4.61h3.08v4.61c0,8.57,0.29,16.18,4.32,22.33l33.61,49.5h36.32l33.61-49.5
		c3.95-5.78,4.25-13.77,4.25-22.33v-4.61h3.08v4.61c0,8.86,0,16.77-4.61,23.5l-34.19,50.08l34.19,49.5
		c4.25,6.44,4.61,14.64,4.61,23.5v13.77h-3.08v-13.77c0-8.57-0.29-16.18-4.25-22.33l-33.9-49.5h-36.68l-33.02,49.5
		c-3.66,5.49-4.32,13.77-4.32,22.33L1802.06,1062.57L1802.06,1062.57z"/>
	<path fill="#FFFFFF" d="M1856.47,1314.3h-3.95c-8.86,0-15.89-3.37-22.33-12.81l-26.58-39.69c-4.25-6.44-4.61-14.64-4.61-23.5
		v-35.15h3.08v35.15c0,8.57,0.29,16.18,4.32,22.33l26.58,39.69c5.49,8.27,12.52,10.98,19.55,10.98h10.4
		c7.61,0,14.35-2.78,19.84-10.98l27.46-39.69c3.95-5.78,4.25-13.77,4.25-22.33v-35.15h3.08v35.15c0,8.86-0.29,17.13-4.61,23.5
		l-27.46,39.69c-6.44,9.15-13.11,12.81-22.63,12.81h-3.37v53.74h-3.08v-53.74H1856.47z"/>
	<path fill="#FFFFFF" d="M1801.18,1649.73c-3.08,3.66-4.25,5.49-4.25,9.45v4.25c0,5.78,3.08,7.03,6.44,7.03h118.84v3.08h-118.84
		c-6.74,0-9.45-3.08-9.45-10.1v-4.91c0-4.61,2.12-7.61,5.2-11.28l113.35-114.88c3.37-3.37,4.32-5.49,4.32-9.45v-4.25
		c0-5.78-3.08-7.03-6.44-7.03h-113.93v-3.08h113.93c6.74,0,9.45,3.08,9.45,10.1v4.91c0,4.61-1.83,7.91-5.2,11.28L1801.18,1649.73z"
		/>
</g>
</svg>
