<?xml version="1.0" encoding="utf-8"?>
<!-- Generator: Adobe Illustrator 17.1.0, SVG Export Plug-In . SVG Version: 6.00 Build 0)  -->
<!DOCTYPE svg PUBLIC "-//W3C//DTD SVG 1.1//EN" "http://www.w3.org/Graphics/SVG/1.1/DTD/svg11.dtd">
<svg version="1.1" id="Layer_1" xmlns="http://www.w3.org/2000/svg" xmlns:xlink="http://www.w3.org/1999/xlink" x="0px" y="0px"
	 width="495px" height="600px" viewBox="1102.5 0 495 600" enable-background="new 1102.5 0 495 600" xml:space="preserve">
<g>
	<path fill="#1A4249" stroke="#EF9D92" stroke-width="0.5" d="M1203.375,198.975v53.475c-10.35,12.9-26.85,19.35-43.35,19.35
		c-16.725,0-33.45-6.525-43.875-19.35v-53.475c10.65-12.825,27.15-19.35,43.65-19.35S1192.65,186.15,1203.375,198.975z"/>
	<path fill="#1A4249" stroke="#EF9D92" stroke-width="0.5" d="M1298.625,198.975v53.475c-10.35,12.9-26.85,19.35-43.35,19.35
		c-16.725,0-33.45-6.525-43.875-19.35v-53.475c10.65-12.825,27.15-19.35,43.65-19.35S1287.975,186.15,1298.625,198.975z"/>
	<path fill="#1A4249" stroke="#EF9D92" stroke-width="0.5" d="M1393.95,198.975v53.475c-10.35,12.9-26.85,19.35-43.35,19.35
		c-16.725,0-33.45-6.525-43.875-19.35v-53.475c10.65-12.825,27.15-19.35,43.65-19.35S1383.225,186.15,1393.95,198.975z"/>
	<path fill="#1A4249" stroke="#EF9D92" stroke-width="0.5" d="M1489.125,198.975v53.475c-10.35,12.9-26.85,19.35-43.35,19.35
		c-16.725,0-33.45-6.525-43.875-19.35v-53.475c10.65-12.825,27.15-19.35,43.65-19.35C1462.05,179.7,1478.55,186.15,1489.125,198.975
		z"/>
	<path fill="#1A4249" stroke="#EF9D92" stroke-width="0.5" d="M1584.45,198.975v53.475c-10.35,12.9-26.775,19.35-43.35,19.35
		c-16.725,0-33.45-6.525-43.875-19.35v-53.475c10.65-12.825,27.15-19.35,43.65-19.35S1573.8,186.15,1584.45,198.975z"/>
</g>
<g>
	<path fill="#102B33" d="M1133.7,251.625v-7.35c0-1.125,0.3-1.8,0.9-2.325l6.3-5.25c-4.425-1.35-7.125-4.275-7.125-10.35v-6.6
		c0-3.75,1.275-6.75,3.675-8.775l8.175-6.825c2.25-1.875,5.625-2.925,9.975-2.925h20.85c2.025,0,2.85,0.9,2.85,2.85v7.5
		c0,1.125-0.3,1.8-0.9,2.325l-5.85,4.875c5.175,1.2,8.325,4.05,8.325,10.65v6.6c0,3.75-1.275,6.75-3.75,8.775l-8.1,6.75
		c-2.325,1.95-5.7,3-9.975,3h-22.5C1134.6,254.475,1133.7,253.65,1133.7,251.625z"/>
	<path fill="#102B33" d="M1228.65,240.075v-29.25c0-1.125,0.3-1.8,0.9-2.325l8.1-6.825c0.45-0.375,1.125-0.525,2.025-0.525h9.825
		c2.025,0,2.85,0.9,2.85,2.85v5.7c0.15-0.45,0.3-0.9,0.6-1.125l0.075-0.075l8.175-6.825c0.45-0.375,1.05-0.525,2.025-0.525h9.525
		c2.025,0,2.85,0.9,2.85,2.85v31.125c0,3.9-0.975,7.2-3.825,9.6l-8.1,6.825c-2.85,2.4-7.725,3.825-15.675,3.825
		C1232.325,255.45,1228.65,248.025,1228.65,240.075z"/>
	<path fill="#102B33" d="M1361.175,253.875c-0.375,0.375-1.05,0.6-1.95,0.6H1327.2c-2.025,0-2.85-0.9-2.85-2.85v-7.5
		c0-1.125,0.3-1.8,0.9-2.325l8.1-6.825c0.375-0.3,0.975-0.45,1.65-0.525V221.4h-7.8c-2.025,0-2.85-0.9-2.85-2.85v-7.65
		c0-1.125,0.3-1.8,0.9-2.325l8.1-6.825c0.45-0.375,1.125-0.525,2.025-0.525h32.025c2.025,0,2.85,0.9,2.85,2.85v7.65
		c0,1.125-0.3,1.8-0.9,2.325l-8.175,6.75l0.075-0.075c-0.375,0.375-0.975,0.6-1.65,0.75v13.05h7.8c2.025,0,2.85,0.9,2.85,2.85v7.5
		c0,1.125-0.3,1.8-0.9,2.325L1361.175,253.875z"/>
	<path fill="#102B33" d="M1432.875,254.475c-2.025,0-2.85-0.9-2.85-2.85V221.4h-8.4c-2.025,0-2.85-0.9-2.85-2.85v-7.65
		c0-1.125,0.3-1.8,0.9-2.325l8.1-6.825c0.45-0.375,1.125-0.525,2.025-0.525h33.15c2.025,0,2.85,0.9,2.85,2.85v7.65
		c0,1.125-0.3,1.8-0.9,2.325l-8.175,6.75c-0.375,0.375-1.05,0.6-1.95,0.6h-0.3v23.4c0,1.125-0.3,1.8-0.9,2.325l-8.25,6.75
		c-0.375,0.375-1.05,0.6-1.95,0.6H1432.875z"/>
	<path fill="#102B33" d="M1513.65,251.625v-7.35c0-1.125,0.3-1.8,0.9-2.325l6.3-5.25c-4.425-1.35-7.125-4.275-7.125-10.35v-6.6
		c0-3.75,1.275-6.75,3.675-8.775l8.1-6.975c2.25-1.875,5.625-2.925,9.975-2.925h20.85c2.025,0,2.85,0.9,2.85,2.85v7.5
		c0,1.125-0.3,1.8-0.9,2.325l-5.85,4.875c5.175,1.2,8.325,4.05,8.325,10.65v6.6c0,3.75-1.275,6.75-3.75,8.775l-8.1,6.75
		c-2.325,1.95-5.7,3-9.975,3h-22.5C1514.55,254.475,1513.65,253.65,1513.65,251.625z"/>
</g>
<g>
	<path fill="#DA4226" d="M1144.725,247.05c-1.575,0-2.25-0.75-2.25-2.25v-7.35c0-1.575,0.75-2.25,2.25-2.25h19.575
		c1.05,0,1.65-0.825,1.65-1.8c0-1.425-0.525-2.025-1.65-2.175l-12.075-1.35c-5.85-0.9-9.75-3.45-9.75-10.425v-6.6
		c0-7.125,4.875-11.025,13.05-11.025h20.85c1.575,0,2.25,0.75,2.25,2.25v7.5c0,1.575-0.75,2.25-2.25,2.25h-17.925
		c-1.05,0-1.65,0.75-1.65,1.875c0,1.05,0.6,1.875,1.65,2.025l12,1.275c5.85,0.9,9.75,3.45,9.75,10.425v6.6
		c0,7.125-4.95,11.025-13.05,11.025L1144.725,247.05L1144.725,247.05z"/>
	<path fill="#DA4226" d="M1256.25,247.95c-15.075,0-18.825-5.175-18.825-12.825V204c0-1.575,0.75-2.25,2.25-2.25h9.825
		c1.575,0,2.25,0.75,2.25,2.25v28.65c0,1.65,0.75,2.925,4.575,2.925c3.9,0,4.65-1.275,4.65-2.925V204c0-1.575,0.6-2.25,2.25-2.25
		h9.525c1.575,0,2.25,0.75,2.25,2.25v31.125C1275.15,242.775,1271.4,247.95,1256.25,247.95z"/>
	<path fill="#DA4226" d="M1332.975,244.8v-7.5c0-1.575,0.75-2.25,2.25-2.25h8.4V213.9h-8.4c-1.575,0-2.25-0.75-2.25-2.25V204
		c0-1.575,0.75-2.25,2.25-2.25h32.025c1.575,0,2.25,0.75,2.25,2.25v7.65c0,1.575-0.75,2.25-2.25,2.25h-8.4v21.15h8.4
		c1.575,0,2.25,0.75,2.25,2.25v7.5c0,1.575-0.75,2.25-2.25,2.25h-32.025C1333.65,247.05,1332.975,246.3,1332.975,244.8z"/>
	<path fill="#DA4226" d="M1440.975,247.05c-1.575,0-2.25-0.75-2.25-2.25v-30.9h-9.075c-1.575,0-2.25-0.75-2.25-2.25V204
		c0-1.575,0.75-2.25,2.25-2.25h33.15c1.575,0,2.25,0.75,2.25,2.25v7.65c0,1.575-0.75,2.25-2.25,2.25h-9v30.825
		c0,1.575-0.75,2.25-2.25,2.25L1440.975,247.05L1440.975,247.05L1440.975,247.05z"/>
	<path fill="#DA4226" d="M1524.675,247.05c-1.575,0-2.25-0.75-2.25-2.25v-7.35c0-1.575,0.75-2.25,2.25-2.25h19.575
		c1.05,0,1.65-0.825,1.65-1.8c0-1.425-0.525-2.025-1.65-2.175l-12.075-1.35c-5.85-0.9-9.75-3.45-9.75-10.425v-6.6
		c0-7.125,4.875-11.025,13.05-11.025h20.85c1.575,0,2.25,0.75,2.25,2.25v7.5c0,1.575-0.75,2.25-2.25,2.25H1538.4
		c-1.05,0-1.65,0.75-1.65,1.875c0,1.05,0.6,1.875,1.65,2.025l12,1.275c5.85,0.9,9.75,3.45,9.75,10.425v6.6
		c0,7.125-4.95,11.025-13.05,11.025L1524.675,247.05L1524.675,247.05z"/>
</g>
<g>
	<path fill="#EF9D92" d="M1172.925,208.05h-17.25c-3.6,0-5.775,1.95-5.775,5.1v5.775c0,2.55,1.65,4.2,4.425,4.425l13.35,1.35
		c3.75,0.375,5.55,2.325,5.55,5.7v5.25c0,3.525-2.7,5.7-6.975,5.7h-18.3v-0.6h18.3c3.9,0,6.375-1.95,6.375-5.1v-5.25
		c0-3-1.65-4.8-5.1-5.1l-13.35-1.35c-3.075-0.3-4.95-2.25-4.95-5.1v-5.775c0-3.525,2.475-5.7,6.45-5.7h17.25V208.05L1172.925,208.05
		z"/>
	<path fill="#EF9D92" d="M1245,207.45v26.25c0,4.725,2.4,7.875,11.1,7.875c9.15,0,11.7-3.15,11.7-7.875v-26.25h0.6v26.25
		c0,5.1-2.7,8.475-12.3,8.475c-9.225,0-11.775-3.45-11.775-8.475v-26.25H1245z"/>
	<path fill="#EF9D92" d="M1338.675,241.35v-0.6h12.3v-32.7h-12.3v-0.6h25.275v0.6h-12.3v32.7h12.3v0.6H1338.675z"/>
	<path fill="#EF9D92" d="M1445.925,208.05h-12.9v-0.6h26.4v0.6H1446.6v33.3h-0.6L1445.925,208.05L1445.925,208.05z"/>
	<path fill="#EF9D92" d="M1552.875,208.05h-17.25c-3.6,0-5.775,1.95-5.775,5.1v5.775c0,2.55,1.65,4.2,4.425,4.425l13.35,1.35
		c3.75,0.375,5.55,2.325,5.55,5.7v5.25c0,3.525-2.7,5.7-6.975,5.7h-18.3v-0.6h18.3c3.9,0,6.375-1.95,6.375-5.1v-5.25
		c0-3-1.65-4.8-5.1-5.1l-13.35-1.35c-3.075-0.3-4.95-2.25-4.95-5.1v-5.775c0-3.525,2.475-5.7,6.45-5.7h17.25V208.05L1552.875,208.05
		z"/>
</g>
<g>
	<path fill="#C12400" d="M1119.6,409.95c-1.35,0-1.95-0.6-1.95-1.95v-35.775c0-1.35,0.6-1.95,1.95-1.95h17.55
		c7.275,0,10.65,2.625,10.65,8.475v2.625c0,3.15-1.05,5.025-3.225,5.925c4.725,0.45,6.975,3.15,6.975,8.55v5.1
		c0,6.15-3.375,9.075-10.65,9.075L1119.6,409.95C1119.6,410.025,1119.6,409.95,1119.6,409.95z M1130.025,385.65h4.65
		c1.425,0,2.1-0.75,2.1-2.25v-1.575c0-1.5-0.675-2.25-2.1-2.25h-4.65C1130.025,379.65,1130.025,385.65,1130.025,385.65z
		 M1130.025,400.65h7.2c1.425,0,2.1-0.75,2.1-2.25v-2.175c0-1.5-0.675-2.175-2.1-2.175h-7.2V400.65z"/>
	<path fill="#C12400" d="M1180.05,410.85c-13.8,0-17.175-4.5-17.175-11.25v-18.825c0-6.75,3.375-11.325,17.175-11.325
		c13.8,0,17.1,4.575,17.1,11.325V399.6C1197.15,406.275,1193.85,410.85,1180.05,410.85z M1180.05,400.125
		c4.05,0,4.65-1.05,4.65-2.55v-14.85c0-1.425-0.6-2.55-4.65-2.55c-3.975,0-4.65,1.05-4.65,2.55v14.85
		C1175.4,399.075,1176.075,400.125,1180.05,400.125z"/>
	<path fill="#C12400" d="M1226.7,410.85c-13.65,0-17.025-4.5-17.025-11.25v-27.3c0-1.35,0.6-1.95,1.95-1.95h8.625
		c1.35,0,1.95,0.6,1.95,1.95v25.125c0,1.5,0.675,2.55,4.5,2.55c3.9,0,4.575-1.05,4.575-2.55V372.3c0-1.35,0.525-1.95,1.95-1.95h8.4
		c1.35,0,1.95,0.6,1.95,1.95v27.3C1243.725,406.275,1240.35,410.85,1226.7,410.85z"/>
	<path fill="#C12400" d="M1258.95,409.95c-1.35,0-1.95-0.6-1.95-1.95v-35.775c0-1.35,0.6-1.95,1.95-1.95h8.55
		c1.35,0,1.95,0.6,1.95,1.95v27.3h7.575V390.6c0-1.35,0.6-1.95,1.95-1.95H1287c1.35,0,1.95,0.6,1.95,1.95V408
		c0,1.35-0.6,1.95-1.95,1.95H1258.95L1258.95,409.95z"/>
	<path fill="#C12400" d="M1310.85,409.95h-8.1c-1.35,0-1.95-0.6-1.95-1.95v-27.3c0-6.675,3.075-11.25,16.725-11.25
		c13.725,0,16.875,4.575,16.875,11.25V408c0,1.35-0.6,1.95-1.95,1.95h-8.4c-1.35,0-1.95-0.6-1.95-1.95v-8.25h-9.15V408
		C1312.875,409.35,1312.275,409.95,1310.85,409.95z M1312.875,389.7h9.15v-7.125c0-1.5-0.675-2.55-4.5-2.55
		c-3.9,0-4.575,1.05-4.575,2.55L1312.875,389.7L1312.875,389.7z"/>
	<path fill="#C12400" d="M1364.25,369.45c13.65,0,17.025,4.5,17.025,11.25V408c0,1.35-0.6,1.95-1.95,1.95h-8.625
		c-1.35,0-1.95-0.6-1.95-1.95v-25.125c0-1.5-0.675-2.55-4.5-2.55c-3.9,0-4.575,1.05-4.575,2.55V408c0,1.35-0.525,1.95-1.95,1.95
		h-8.475c-1.35,0-1.95-0.6-1.95-1.95v-27.3C1347.225,373.95,1350.6,369.45,1364.25,369.45z"/>
	<path fill="#C12400" d="M1407.45,409.95c-9.3,0-13.575-3.6-13.575-11.25v-17.25c0-7.65,4.35-11.25,13.575-11.25h13.8
		c1.35,0,1.95,0.6,1.95,1.95v6.675c0,1.35-0.6,1.95-1.95,1.95h-11.475c-2.325,0-3.375,0.9-3.375,2.775v13.2
		c0,1.875,0.825,2.7,2.55,2.7h5.325v-8.625c0-1.35,0.6-1.95,1.95-1.95h8.55c1.35,0,1.95,0.6,1.95,1.95v17.025
		c0,1.35-0.6,1.95-1.95,1.95h-17.4L1407.45,409.95L1407.45,409.95z"/>
	<path fill="#C12400" d="M1466.325,409.95H1452.3c-10.425,0-13.575-4.575-13.575-11.25v-17.175c0-6.75,3.15-11.325,13.575-11.325
		h14.025c1.35,0,1.95,0.6,1.95,1.95v6.45c0,1.35-0.6,1.95-1.95,1.95h-12.15c-2.85,0-3.375,1.35-3.375,2.775v1.5h11.1
		c1.35,0,1.95,0.525,1.95,1.95v5.85c0,1.35-0.6,1.95-1.95,1.95h-11.175v2.1c0,1.575,0.45,2.625,3.375,2.625h12.15
		c1.35,0,1.95,0.6,1.95,1.95v6.45C1468.35,409.35,1467.75,409.95,1466.325,409.95z"/>
	<path fill="#C12400" d="M1482.6,409.95c-1.35,0-1.95-0.6-1.95-1.95v-35.775c0-1.35,0.6-1.95,1.95-1.95h18.375
		c8.25,0,10.875,3.75,10.875,9.225v2.55c0,3.15-0.75,5.25-3.15,6.3c4.05,0.45,6.675,3.375,6.675,7.95V408c0,1.35-0.6,1.95-1.95,1.95
		h-8.55c-1.35,0-1.95-0.6-1.95-1.95v-8.475c0-1.65-0.525-2.4-2.1-2.4h-7.65v10.8c0,1.35-0.6,1.95-1.95,1.95L1482.6,409.95
		L1482.6,409.95L1482.6,409.95z M1493.1,387.225h4.125c1.95,0,2.4-1.05,2.4-2.55V382.8c0-1.5-0.45-2.55-2.4-2.55h-4.125V387.225z"/>
	<path fill="#C12400" d="M1529.475,409.95c-1.35,0-1.95-0.6-1.95-1.95v-35.775c0-1.35,0.6-1.95,1.95-1.95h8.775
		c1.35,0,1.95,0.6,1.95,1.95V408c0,1.35-0.6,1.95-1.95,1.95H1529.475z"/>
	<path fill="#C12400" d="M1580.7,409.95h-14.025c-10.425,0-13.575-4.575-13.575-11.25v-17.175c0-6.75,3.15-11.325,13.575-11.325
		h14.025c1.35,0,1.95,0.6,1.95,1.95v6.45c0,1.35-0.6,1.95-1.95,1.95h-12.15c-2.85,0-3.375,1.35-3.375,2.775v1.5h11.175
		c1.35,0,1.95,0.525,1.95,1.95v5.85c0,1.35-0.6,1.95-1.95,1.95h-11.175v2.1c0,1.575,0.45,2.625,3.375,2.625h12.15
		c1.35,0,1.95,0.6,1.95,1.95v6.45C1582.65,409.35,1582.05,409.95,1580.7,409.95z"/>
</g>
<g>
	<g>
		<path fill="#FFFFFF" d="M1169.1,291.6c1.35,0,1.425,0.6,1.875,1.875l9.9,25.05c0.375,0.975,0.375,2.025,0,3l-9.9,24.9
			c-0.45,1.275-0.6,1.875-1.875,1.875h-52.875c-1.35,0-2.25-0.825-1.8-2.1l10.35-26.25l-10.35-26.25c-0.525-1.275,0.45-2.1,1.8-2.1
			L1169.1,291.6L1169.1,291.6z"/>
		<path fill="#FFFFFF" d="M1236.3,291.6c1.35,0,1.425,0.6,1.875,1.875l9.9,25.05c0.375,0.975,0.375,2.025,0,3l-9.9,24.9
			c-0.45,1.275-0.6,1.875-1.875,1.875h-52.875c-1.35,0-2.25-0.825-1.8-2.1l10.35-26.25l-10.35-26.25c-0.525-1.275,0.45-2.1,1.8-2.1
			L1236.3,291.6L1236.3,291.6z"/>
		<path fill="#FFFFFF" d="M1303.425,291.6c1.35,0,1.425,0.6,1.875,1.875l9.9,25.05c0.375,0.975,0.375,2.025,0,3l-9.9,24.9
			c-0.45,1.275-0.6,1.875-1.875,1.875h-52.875c-1.35,0-2.25-0.825-1.8-2.1l10.35-26.25l-10.35-26.25c-0.525-1.275,0.45-2.1,1.8-2.1
			L1303.425,291.6L1303.425,291.6z"/>
		<path fill="#FFFFFF" d="M1370.55,291.6c1.35,0,1.425,0.6,1.875,1.875l9.9,25.05c0.375,0.975,0.375,2.025,0,3l-9.825,24.825
			c-0.45,1.275-0.6,1.875-1.875,1.875h-52.875c-1.35,0-2.25-0.825-1.8-2.1l10.35-26.25l-10.35-26.25c-0.525-1.275,0.45-2.1,1.8-2.1
			L1370.55,291.6L1370.55,291.6z"/>
		<path fill="#FFFFFF" d="M1437.75,291.6c1.35,0,1.425,0.6,1.875,1.875l9.9,25.05c0.375,0.975,0.375,2.025,0,3l-9.9,24.9
			c-0.45,1.275-0.6,1.875-1.875,1.875h-52.875c-1.35,0-2.25-0.825-1.8-2.1l10.35-26.25l-10.35-26.25c-0.525-1.275,0.45-2.1,1.8-2.1
			L1437.75,291.6L1437.75,291.6z"/>
		<path fill="#FFFFFF" d="M1504.95,291.6c1.35,0,1.425,0.6,1.875,1.875l9.9,25.05c0.375,0.975,0.375,2.025,0,3l-9.975,24.825
			c-0.45,1.275-0.6,1.875-1.875,1.875H1452c-1.35,0-2.25-0.825-1.8-2.1l10.35-26.25l-10.35-26.25c-0.525-1.275,0.45-2.1,1.8-2.1
			L1504.95,291.6L1504.95,291.6z"/>
		<path fill="#FFFFFF" d="M1553.925,348.225h-34.65c-1.35,0-2.25-0.825-1.8-2.1l10.35-26.25l-10.35-26.25
			c-0.525-1.275,0.45-2.1,1.8-2.1h34.65v-7.35c0-2.1,2.25-2.85,4.2-0.525l27.075,33.075c1.95,2.4,1.95,3.9,0,6.3l-27.075,33.075
			c-1.575,1.875-4.2,1.05-4.2-0.525V348.225z"/>
	</g>
	<path fill="#EEE254" d="M1136.325,338.925c-1.35,0-1.875-0.6-1.875-1.875V303c0-1.35,0.6-1.875,1.875-1.875h27.15
		c1.35,0,1.875,0.6,1.875,1.875v6.15c0,1.35-0.6,1.875-1.875,1.875h-17.25v4.05h13.05c1.35,0,1.875,0.525,1.875,1.875v5.625
		c0,1.35-0.6,1.875-1.875,1.875h-13.05v4.5h17.325c1.35,0,1.875,0.6,1.875,1.875v6.15c0,1.35-0.6,1.875-1.875,1.875h-27.225
		C1136.325,338.7,1136.325,338.925,1136.325,338.925z"/>
	<path fill="#EEE254" d="M1210.95,338.925H1203c-1.35,0-1.875-0.6-1.875-1.875v-5.625c0-3.225,0.6-4.2,1.95-6.45l3.45-5.7l-3.45-5.7
		c-1.35-2.25-1.95-3.15-1.95-6.45V303c0-1.35,0.6-1.875,1.875-1.875h8.1c1.35,0,1.875,0.6,1.875,1.875v3.6
		c0,0.75,0.075,1.5,0.45,2.25l1.875,3.3c0.3,0.6,0.675,0.9,1.275,0.9h0.6c0.6,0,0.9-0.225,1.275-0.9l1.875-3.3
		c0.45-0.75,0.45-1.425,0.45-2.25V303c0-1.35,0.6-1.875,1.875-1.875h7.95c1.35,0,1.875,0.6,1.875,1.875v4.05
		c0,3.225-0.6,4.2-1.95,6.45l-3.45,5.775l3.45,5.625c1.35,2.25,1.95,3.15,1.95,6.45v5.625c0,1.35-0.6,1.875-1.875,1.875h-7.95
		c-1.35,0-1.875-0.6-1.875-1.875v-5.25c0-0.75-0.075-1.425-0.45-2.25l-1.875-3.3c-0.375-0.675-0.675-0.9-1.275-0.9h-0.75
		c-0.6,0-0.9,0.225-1.275,0.9l-1.95,3.3c-0.45,0.75-0.45,1.425-0.45,2.25v5.25C1212.75,338.325,1212.225,338.925,1210.95,338.925z"
		/>
	<path fill="#EEE254" d="M1269.6,338.925c-1.35,0-1.875-0.6-1.875-1.875V303c0-1.35,0.6-1.875,1.875-1.875h17.4
		c9.525,0,12.375,4.125,12.375,10.275v6.75c0,6.075-2.85,10.275-12.375,10.275h-7.35v8.7c0,1.35-0.6,1.875-1.875,1.875
		L1269.6,338.925L1269.6,338.925z M1279.5,318.9h6.075c2.025,0,2.475-1.2,2.475-2.55v-2.85c0-1.35-0.45-2.55-2.475-2.55h-6.075
		V318.9z"/>
	<path fill="#EEE254" d="M1336.2,338.925c-1.35,0-1.875-0.6-1.875-1.875V303c0-1.35,0.6-1.875,1.875-1.875h16.95
		c7.875,0,10.35,3.525,10.35,8.775v2.4c0,2.925-0.75,5.025-2.925,6c3.15,0.45,5.85,3.15,5.85,7.65v11.1
		c0,1.35-0.6,1.875-1.875,1.875h-8.175c-1.35,0-1.875-0.6-1.875-1.875v-8.025c0-1.575-0.525-2.25-1.95-2.25h-6.3v10.275
		c0,1.35-0.6,1.875-1.875,1.875L1336.2,338.925L1336.2,338.925L1336.2,338.925z M1346.175,317.325h3.375
		c1.875,0,2.25-1.05,2.25-2.475v-1.8c0-1.425-0.45-2.475-2.25-2.475h-3.375V317.325z"/>
	<path fill="#EEE254" d="M1402.95,338.925c-1.35,0-1.875-0.6-1.875-1.875V303c0-1.35,0.6-1.875,1.875-1.875h27.15
		c1.35,0,1.875,0.6,1.875,1.875v6.15c0,1.35-0.6,1.875-1.875,1.875h-17.325v4.05h13.05c1.35,0,1.875,0.525,1.875,1.875v5.625
		c0,1.35-0.6,1.875-1.875,1.875h-13.05v4.5h17.325c1.35,0,1.875,0.6,1.875,1.875v6.15c0,1.35-0.6,1.875-1.875,1.875h-27.15V338.925z
		"/>
	<path fill="#EEE254" d="M1469.55,338.925c-1.35,0-1.875-0.6-1.875-1.875v-6.15c0-1.35,0.6-1.875,1.875-1.875h16.35
		c0.9,0,1.35-0.675,1.35-1.5c0-1.2-0.45-1.65-1.35-1.8l-10.05-1.05c-4.95-0.75-8.175-2.85-8.175-8.7V310.5
		c0-6,4.05-9.225,10.875-9.225h17.4c1.35,0,1.875,0.6,1.875,1.875v6.225c0,1.35-0.6,1.875-1.875,1.875h-14.925
		c-0.9,0-1.425,0.6-1.425,1.575c0,0.975,0.525,1.575,1.425,1.65l10.05,1.05c4.95,0.75,8.175,2.85,8.175,8.7v5.55
		c0,6-4.05,9.225-10.875,9.225L1469.55,338.925L1469.55,338.925z"/>
	<path fill="#EEE254" d="M1536.15,338.925c-1.35,0-1.875-0.6-1.875-1.875v-6.15c0-1.35,0.6-1.875,1.875-1.875h16.35
		c0.9,0,1.35-0.675,1.35-1.5c0-1.2-0.45-1.65-1.35-1.8l-10.05-1.05c-4.95-0.75-8.175-2.85-8.175-8.7V310.5
		c0-6,4.05-9.225,10.875-9.225h17.4c1.35,0,1.875,0.6,1.875,1.875v6.225c0,1.35-0.6,1.875-1.875,1.875h-14.925
		c-0.9,0-1.425,0.6-1.425,1.575c0,0.975,0.525,1.575,1.425,1.65l10.05,1.05c4.95,0.75,8.175,2.85,8.175,8.7v5.55
		c0,6-4.05,9.225-10.875,9.225L1536.15,338.925L1536.15,338.925z"/>
</g>
<path fill="#DC4227" stroke="#FFFFFF" d="M1588.65,558.675c0.75-0.825,0.75-2.175,0-3l-8.7-10.425
	c-0.375-0.45-0.45-1.125-0.225-1.65l6.3-16.05c0.375-0.75-0.3-1.65-1.05-1.575l-9.45,1.05c-1.8,0.225-2.1,0.225-3.225,0.225h-2.85
	h-50.925h-4.425h-50.85h-4.425h-51.075h-4.5h-50.925h-4.425h-50.925h-4.425h-50.85h-4.425h-50.925h-4.425H1131h-2.85
	c-1.05,0-1.425,0-3.225-0.225l-9.45-1.05c-0.825-0.15-1.425,0.75-1.05,1.575l6.3,16.05c0.225,0.45,0.15,1.2-0.225,1.65l-8.7,10.425
	c-0.75,0.825-0.75,2.175,0,3l8.7,10.425c0.375,0.45,0.45,1.125,0.225,1.65l-6.3,16.05c-0.375,0.75,0.3,1.65,1.05,1.575l9.45-1.05
	c1.8-0.225,2.1-0.225,3.225-0.225h2.85h50.925h4.425h50.925h4.425h50.925h4.425h50.925h4.425h50.925h4.425h50.925h4.425h51.15h4.425
	h50.925h2.85c1.05,0,1.425,0,3.225,0.225l9.45,1.05c0.825,0.15,1.425-0.75,1.05-1.575l-6.3-16.05c-0.3-0.45-0.15-1.2,0.225-1.65
	L1588.65,558.675z"/>
<g>
	<path fill="#FFFFFF" d="M1146.3,576.3v-37.35h15.75c5.4,0,7.875,3.3,7.875,7.875v4.8c0,4.2-0.825,6.975-4.125,8.025h0.75
		c5.625,0,8.325,2.55,8.325,7.35v9.225h-0.75V567c0-4.575-2.4-6.75-7.65-6.75h-19.5v16.05H1146.3L1146.3,576.3z M1147.05,539.625
		v19.95h15.075c5.775,0,7.2-2.85,7.2-7.95v-4.875c0-4.275-2.25-7.2-7.2-7.2L1147.05,539.625L1147.05,539.625z"/>
	<path fill="#FFFFFF" d="M1220.4,563.7h-25.65v12.525H1194V547.35c0-5.55,2.55-9.375,13.425-9.375s13.65,3.75,13.65,9.375v28.875
		h-0.75L1220.4,563.7L1220.4,563.7z M1194.75,563.025h25.65v-15.6c0-5.175-2.625-8.625-12.9-8.625s-12.75,3.45-12.75,8.625V563.025
		L1194.75,563.025z"/>
	<path fill="#FFFFFF" d="M1253.55,576.3v-13.95c-10.575-0.075-13.5-3.75-13.5-9.375V538.95h0.75v14.025
		c0,5.175,2.85,8.625,13.125,8.625c10.35,0,13.2-3.45,13.2-8.625V538.95h0.75v14.025c0,5.55-3.075,9.375-13.575,9.375v13.95H1253.55
		z"/>
	<path fill="#FFFFFF" d="M1282.05,537.825h6.75v5.925c0,2.7-1.2,5.1-3.9,5.1h-2.85v-0.75h2.85c2.25,0,3.15-2.175,3.15-4.425v-5.25
		h-6.075L1282.05,537.825L1282.05,537.825z"/>
	<path fill="#FFFFFF" d="M1325.325,539.625h-15.375c-3.9,0-6.375,2.325-6.375,5.55v5.625c0,3.225,1.35,4.2,3.525,4.65l14.55,3
		c2.775,0.525,4.8,1.95,4.8,6.75v4.05c0,4.05-3,6.975-7.65,6.975h-17.25v-0.75h17.25c4.275,0,6.975-2.625,6.975-6.3v-4.05
		c0-4.35-1.65-5.55-4.2-6.075l-14.55-3c-2.4-0.45-4.05-1.5-4.05-5.325V545.1c0-3.675,2.775-6.3,7.05-6.3h15.375L1325.325,539.625
		L1325.325,539.625L1325.325,539.625z"/>
	<path fill="#FFFFFF" d="M1361.25,538.875h16.725c9.45,0,11.025,4.275,11.025,9.6v18.3c0,5.325-1.5,9.45-11.025,9.45h-16.725
		V538.875z M1361.925,539.625v35.925h16.05c8.85,0,10.35-3.675,10.35-8.7v-18.3c0-5.025-1.65-8.925-10.35-8.925H1361.925z"/>
	<path fill="#FFFFFF" d="M1410.225,538.875v37.35h-0.75v-37.35H1410.225z"/>
	<path fill="#FFFFFF" d="M1458.15,576.3v-28.875c0-5.175-2.85-8.625-13.125-8.625s-13.275,3.45-13.275,8.625V576.3H1431v-28.875
		c0-5.55,3.075-9.375,13.95-9.375s13.8,3.75,13.8,9.375V576.3H1458.15z"/>
	<path fill="#FFFFFF" d="M1502.25,576.3h-12.6c-9,0-11.025-2.475-11.025-8.925v-19.35c0-6.525,2.25-9.075,11.025-9.075h12.6v0.75
		h-12.6c-8.175,0-10.35,2.25-10.35,8.325v9h18.15v0.75h-18.15v9.675c0,6,2.1,8.25,10.35,8.25h12.6V576.3z"/>
	<path fill="#FFFFFF" d="M1520.55,576.3v-37.35h15.75c5.4,0,7.875,3.3,7.875,7.875v4.8c0,4.2-0.825,6.975-4.125,8.025h0.75
		c5.625,0,8.325,2.55,8.325,7.35v9.225h-0.75V567c0-4.575-2.4-6.75-7.65-6.75h-19.5v16.05H1520.55L1520.55,576.3L1520.55,576.3z
		 M1521.3,539.625v19.95h15.075c5.775,0,7.2-2.85,7.2-7.95v-4.875c0-4.275-2.25-7.2-7.2-7.2L1521.3,539.625L1521.3,539.625z"/>
</g>
<g>
	<g>
		<g>
			<path fill="#432D2C" d="M1137.505,11.715h8.675v92.648h-8.675c-2.582,0-3.718-0.944-3.718-3.088v-2.059
				c-7.952,0-14.458-5.405-14.458-12.01h-2.479c-2.582,0-3.718-0.943-3.718-3.088V31.96c0-2.145,1.136-3.088,3.718-3.088h2.479
				c0-6.605,6.506-12.01,14.458-12.01v-2.059C1133.788,12.659,1134.924,11.715,1137.505,11.715z"/>
			<path fill="#432D2C" d="M1249.448,104.363h-111.533V11.715h111.533V104.363z"/>
			<path fill="#432D2C" d="M1352.714,104.363h-111.533V11.715h111.533V104.363z"/>
			<path fill="#432D2C" d="M1455.979,104.363h-111.533V11.715h111.533V104.363z"/>
			<path fill="#432D2C" d="M1559.244,104.363h-111.533V11.715h111.533V104.363z"/>
			<path fill="#432D2C" d="M1563.368,14.803v2.059c7.952,0,14.458,5.404,14.458,12.01h2.479c2.582,0,3.718,0.943,3.718,3.088v52.157
				c0,2.145-1.136,3.088-3.718,3.088h-2.479c0,6.605-6.506,12.01-14.458,12.01v2.059c0,2.145-1.136,3.088-3.718,3.088h-8.675V11.715
				h8.675C1562.232,11.715,1563.368,12.659,1563.368,14.803z"/>
		</g>
		<g>
			<path fill="#ECDEC0" d="M1137.503,14.295c-0.413,0-0.62,0.171-0.62,0.515v4.632h-3.098c-6.196,0-11.359,4.289-11.359,9.436v2.573
				h-5.576c-0.413,0-0.62,0.171-0.62,0.515v52.153c0,0.343,0.206,0.515,0.62,0.515h5.576v2.573c0,5.147,5.163,9.436,11.359,9.436
				h3.098v4.632c0,0.343,0.206,0.515,0.62,0.515h8.674v0.858h-8.674c-1.239,0-1.652-0.343-1.652-1.372V97.5h-2.066
				c-6.815,0-12.391-4.632-12.391-10.293v-1.716h-4.544c-1.239,0-1.652-0.343-1.652-1.372V31.965c0-1.029,0.413-1.372,1.652-1.372
				h4.544v-1.716c0-5.661,5.576-10.293,12.391-10.293h2.066V14.81c0-1.029,0.413-1.372,1.652-1.372h8.674v0.858H1137.503z"/>
			<path fill="#ECDEC0" d="M1247.375,102.646H1139.98V13.437h107.395V102.646z M1246.343,14.295h-105.33v87.493h105.33V14.295z"/>
			<path fill="#ECDEC0" d="M1350.64,102.646h-107.395V13.437h107.395V102.646z M1349.608,14.295h-105.33v87.493h105.33V14.295z"/>
			<path fill="#ECDEC0" d="M1453.905,102.646H1346.51V13.437h107.395V102.646z M1452.872,14.295h-105.33v87.493h105.33V14.295z"/>
			<path fill="#ECDEC0" d="M1557.17,102.646h-107.395V13.437h107.395V102.646z M1556.137,14.295h-105.33v87.493h105.33V14.295z"/>
			<path fill="#ECDEC0" d="M1550.974,13.437h8.674c1.239,0,1.652,0.343,1.652,1.372v3.774h2.066c6.815,0,12.391,4.632,12.391,10.293
				v1.716h4.544c1.239,0,1.652,0.343,1.652,1.372v52.153c0,1.029-0.413,1.372-1.652,1.372h-4.544v1.716
				c0,5.661-5.576,10.293-12.391,10.293h-2.066v3.774c0,1.029-0.413,1.372-1.652,1.372h-8.674v-0.858h8.674
				c0.413,0,0.62-0.171,0.62-0.515v-4.632h3.098c6.196,0,11.359-4.289,11.359-9.436v-2.573h5.576c0.413,0,0.62-0.171,0.62-0.515
				V31.965c0-0.343-0.206-0.515-0.62-0.515h-5.576v-2.573c0-5.147-5.163-9.436-11.359-9.436h-3.098V14.81
				c0-0.343-0.207-0.515-0.62-0.515h-8.674V13.437z"/>
		</g>
		<rect x="1138.701" y="14.295" fill="#432D2C" width="420.17" height="87.493"/>
	</g>
	<g>
		<path fill="#F6EBCB" d="M1156.948,83.027c-1.631,0-2.35-0.718-2.35-2.35v-42.29c0-1.631,0.718-2.349,2.35-2.349h19.97
			c11.877,0,15.402,5.155,15.402,12.726v8.354c0,7.571-3.524,12.726-15.402,12.726h-7.505v10.833c0,1.632-0.718,2.35-2.349,2.35
			H1156.948z M1185.793,55.617v-4.829c0-5.09-1.566-8.875-9.789-8.875h-14.097v35.241h0.652V64.297h13.444
			C1184.227,64.297,1185.793,60.708,1185.793,55.617z M1162.56,42.565h13.444c7.701,0,9.136,3.524,9.136,8.223v4.829
			c0,4.699-1.436,8.027-9.136,8.027h-13.444V42.565z M1169.282,58.097h5.874c2.545,0,3.067-1.501,3.067-3.198V51.44
			c0-1.697-0.522-3.198-3.067-3.198h-5.874V58.097z"/>
		<path fill="#F6EBCB" d="M1201.454,83.027c-1.631,0-2.35-0.718-2.35-2.35v-42.29c0-1.631,0.718-2.349,2.35-2.349h10.116
			c1.631,0,2.349,0.718,2.349,2.349V52.55h10.899V38.388c0-1.631,0.718-2.349,2.349-2.349h10.116c1.632,0,2.35,0.718,2.35,2.349
			v42.29c0,1.632-0.718,2.35-2.35,2.35h-10.116c-1.631,0-2.349-0.718-2.349-2.35V66.19h-10.899v14.488
			c0,1.632-0.718,2.35-2.349,2.35H1201.454z M1206.805,77.154V59.859h25.061v17.294h0.652V41.913h-0.652v17.294h-25.061V41.913
			h-0.653v35.241H1206.805z"/>
		<path fill="#F6EBCB" d="M1247.917,70.693V48.438c0-7.962,3.981-13.378,20.296-13.378c4.112,0,7.375,0.326,10.05,0.979
			c1.958-0.065,2.415-0.718,2.415-1.893v-1.37c0-1.566,0.457-2.023,1.958-2.023h7.244c1.631,0,2.349,0.718,2.349,2.35v2.872
			c0,3.394-1.044,6.135-4.438,7.701c0.457,1.501,0.652,3.067,0.652,4.764v22.254c0,7.962-3.915,13.313-20.231,13.313
			C1251.898,84.006,1247.917,78.655,1247.917,70.693z M1281.331,69.192V49.939c0-2.806-0.849-5.09-3.132-6.657
			c6.331-0.392,8.353-4.111,8.353-7.505V35.19h-0.652v0.587c0,3.524-2.676,6.917-8.745,6.917c-2.088-0.979-4.96-1.566-9.071-1.566
			c-10.246,0-13.118,3.524-13.118,8.81v19.252c0,5.286,2.872,8.81,13.118,8.81S1281.331,74.478,1281.331,69.192z M1268.083,41.782
			c9.724,0,12.596,3.263,12.596,8.158v19.252c0,4.895-2.872,8.158-12.596,8.158s-12.465-3.263-12.465-8.158V49.939
			C1255.618,45.045,1258.359,41.782,1268.083,41.782z M1263.58,34.211c-0.849,0.13-1.175-0.196-1.306-1.044l-0.718-5.156
			c-0.13-0.849,0.261-1.24,1.109-1.371l5.809-0.914c0.848-0.131,1.24-0.326,1.24-1.109c0-0.653-0.522-0.914-1.24-0.914h-8.419
			c-0.848,0-1.24-0.391-1.24-1.24V17.7c0-0.848,0.392-1.24,1.24-1.24h10.964c4.438,0,7.048,2.284,7.048,6.657v4.177
			c0,3.85-2.023,5.221-5.286,5.678L1263.58,34.211z M1271.542,29.513c1.37-0.196,2.676-0.849,2.676-3.329v-3.263
			c0-2.545-1.632-3.198-3.263-3.198h-8.876v0.653h8.876c1.305,0,2.61,0.522,2.61,2.545v3.263c0,1.828-0.849,2.545-2.154,2.741
			l-6.265,0.914l0.065,0.653L1271.542,29.513z M1268.213,71.411c4.764,0,5.482-1.305,5.482-3.067V50.788
			c0-1.697-0.718-3.002-5.482-3.002c-4.699,0-5.482,1.305-5.482,3.002v17.555C1262.731,70.105,1263.515,71.411,1268.213,71.411z"/>
		<path fill="#F6EBCB" d="M1315.067,83.027c-1.631,0-2.35-0.718-2.35-2.35V65.733h-1.501c-1.631,0-2.349-0.652-2.349-2.35V56.4
			c0-1.631,0.718-2.349,2.349-2.349h1.501V38.388c0-1.631,0.719-2.349,2.35-2.349h21.993c12.335,0,16.055,5.417,16.055,13.313
			v20.362c0,7.897-3.72,13.313-16.055,13.313H1315.067z M1335.625,77.154c9.006,0,10.442-3.851,10.442-8.875V50.984
			c0-5.025-1.566-9.071-10.442-9.071h-15.924v17.686h-4.96v0.653h4.96v16.903H1335.625z M1326.488,59.598h-6.135V42.565h15.271
			c8.223,0,9.789,3.655,9.789,8.419v17.294c0,4.764-1.436,8.223-9.789,8.223h-15.271v-16.25h6.135V59.598z M1335.299,70.693
			c2.61,0,3.067-1.436,3.067-3.198V51.636c0-1.697-0.457-3.132-3.067-3.132h-7.962v5.547h2.676c1.632,0,2.35,0.652,2.35,2.349v6.983
			c0,1.697-0.718,2.35-2.35,2.35h-2.676v4.96H1335.299z"/>
		<path fill="#F6EBCB" d="M1372.365,83.027h-9.593c-1.632,0-2.35-0.718-2.35-2.35V63.449c0-2.61,0.783-5.874,2.545-10.442
			l5.678-14.814c0.522-1.501,1.566-2.153,3.328-2.153h17.556c1.697,0,2.741,0.652,3.263,2.153l5.679,14.814
			c1.762,4.568,2.545,7.832,2.545,10.442v17.229c0,1.632-0.718,2.35-2.35,2.35h-9.854c-1.762,0-2.545-0.718-2.545-2.35v-9.137
			h-11.552v9.137C1374.715,82.31,1373.997,83.027,1372.365,83.027z M1369.363,31.079c-1.632-0.196-2.35-0.718-2.35-2.35v-6.265
			c0-1.501,0.718-2.35,2.22-2.154l22.776,2.807c1.631,0.196,2.349,0.718,2.349,2.349v6.265c0,1.501-0.718,2.35-2.219,2.154
			L1369.363,31.079z M1394.098,77.154V63.253c0-2.415-0.392-4.438-1.109-6.33l-4.503-10.638c-1.044-2.545-1.827-4.373-4.699-4.373
			h-6.396c-3.002,0-3.785,1.893-4.764,4.307l-4.177,10.703c-0.719,1.893-1.11,3.916-1.11,6.33v13.901h0.653V65.929h25.452v11.225
			H1394.098z M1369.037,57.184l4.177-10.703c0.849-2.219,1.566-3.916,4.177-3.916h6.396c2.415,0,3.133,1.697,4.111,3.981
			l4.503,10.638c0.653,1.762,1.045,3.72,1.045,6.069v2.023h-25.452v-2.023C1367.993,60.904,1368.385,58.946,1369.037,57.184z
			 M1388.485,28.403V27.75l-15.598-1.958v0.653L1388.485,28.403z M1375.367,59.664h10.246l-3.067-9.92
			c-0.326-0.783-0.718-1.109-1.239-1.109h-1.632c-0.522,0-0.914,0.326-1.24,1.109L1375.367,59.664z"/>
		<path fill="#F6EBCB" d="M1438.211,38.388v32.043h16.642c1.632,0,2.35,0.718,2.35,2.35v7.896c0,1.632-0.718,2.35-2.35,2.35h-29.106
			c-1.632,0-2.35-0.718-2.35-2.35v-42.29c0-1.631,0.718-2.349,2.35-2.349h10.115C1437.493,36.039,1438.211,36.757,1438.211,38.388z
			 M1430.51,77.154h20.819v-0.653h-20.166V41.913h-0.653V77.154z"/>
		<path fill="#F6EBCB" d="M1474.494,83.027h-9.593c-1.632,0-2.35-0.718-2.35-2.35V63.449c0-2.61,0.783-5.874,2.545-10.442
			l5.678-14.814c0.522-1.501,1.566-2.153,3.328-2.153h17.556c1.697,0,2.741,0.652,3.263,2.153l5.679,14.814
			c1.762,4.568,2.545,7.832,2.545,10.442v17.229c0,1.632-0.718,2.35-2.35,2.35h-9.854c-1.762,0-2.545-0.718-2.545-2.35v-9.137
			h-11.552v9.137C1476.844,82.31,1476.126,83.027,1474.494,83.027z M1496.227,77.154V63.253c0-2.415-0.392-4.438-1.109-6.33
			l-4.503-10.638c-1.044-2.545-1.827-4.373-4.699-4.373h-6.396c-3.002,0-3.785,1.893-4.764,4.307l-4.177,10.703
			c-0.719,1.893-1.11,3.916-1.11,6.33v13.901h0.653V65.929h25.452v11.225H1496.227z M1471.166,57.184l4.177-10.703
			c0.849-2.219,1.566-3.916,4.177-3.916h6.396c2.415,0,3.133,1.697,4.111,3.981l4.503,10.638c0.653,1.762,1.045,3.72,1.045,6.069
			v2.023h-25.452v-2.023C1470.122,60.904,1470.514,58.946,1471.166,57.184z M1477.692,98.69c-1.632,0-2.35-0.718-2.35-2.35v-8.288
			c0-1.632,0.718-2.35,2.35-2.35h10.312c1.631,0,2.35,0.718,2.35,2.35v8.288c0,1.631-0.719,2.35-2.35,2.35H1477.692z
			 M1477.496,59.664h10.246l-3.067-9.92c-0.326-0.783-0.718-1.109-1.239-1.109h-1.632c-0.522,0-0.914,0.326-1.24,1.109
			L1477.496,59.664z M1483.174,90.271h-0.652v3.851h0.652V90.271z"/>
		<path fill="#F6EBCB" d="M1520.177,83.027c-1.632,0-2.35-0.718-2.35-2.35V48.634h-9.594c-1.632,0-2.35-0.718-2.35-2.349v-7.897
			c0-1.631,0.718-2.349,2.35-2.349h34.458c1.632,0,2.35,0.718,2.35,2.349v7.897c0,1.631-0.718,2.349-2.35,2.349h-9.593v32.043
			c0,1.632-0.719,2.35-2.35,2.35H1520.177z M1525.789,77.154V42.565h13.379v-0.652h-27.41v0.652h13.378v34.589H1525.789z"/>
	</g>
</g>
<g>
	<path fill="#93851F" d="M1125.242,160.39c-0.281,0.281-0.795,0.468-1.45,0.468h-7.202c-1.497,0-2.151-0.655-2.151-2.151v-30.306
		c0-0.842,0.234-1.356,0.655-1.73l6.033-5.098c0.327-0.281,0.842-0.421,1.497-0.421h15.574c7.436,0,9.681,3.414,9.681,8.278v2.151
		c0,2.292-0.515,4.022-1.777,5.098h-0.047c2.946,0.842,4.864,3.321,4.864,7.015v9.915c0,0.842-0.234,1.356-0.655,1.73l-6.08,5.051
		c-0.281,0.281-0.795,0.468-1.45,0.468h-7.249c-1.497,0-2.151-0.655-2.151-2.151v-7.155c0-1.029-0.328-1.543-1.31-1.543h-0.047
		v3.601c0,0.842-0.234,1.356-0.655,1.73L1125.242,160.39z M1131.509,153.609v-9.167h6.548c1.31,0,1.777,0.608,1.777,2.011v7.156
		c0,1.169,0.515,1.684,1.684,1.684h7.249c1.169,0,1.684-0.515,1.684-1.684v-9.915c0-3.928-2.245-6.407-5.659-6.781
		c1.964-0.842,2.619-2.712,2.619-5.332v-2.151c0-4.63-2.198-7.81-9.213-7.81h-15.574c-1.169,0-1.684,0.514-1.684,1.684v30.306
		c0,1.169,0.514,1.684,1.684,1.684h7.202C1130.995,155.292,1131.509,154.778,1131.509,153.609z M1125.99,151.083v-25.255h10.663
		c3.648,0,5.332,2.245,5.332,5.332v3.227c0,2.853-0.561,4.724-2.806,5.425h0.515c3.835,0,5.659,1.73,5.659,5.004v6.267h-0.468
		v-6.267c0-3.087-1.637-4.583-5.191-4.583h-13.235v10.851H1125.99z M1126.458,126.296v13.516h10.195
		c3.882,0,4.864-1.917,4.864-5.378v-3.274c0-2.9-1.543-4.864-4.864-4.864H1126.458z M1135.017,130.038
		c1.637,0,2.058,0.936,2.058,2.198v1.59c0,1.263-0.421,2.198-2.058,2.198h-3.508v-5.986H1135.017z"/>
	<path fill="#93851F" d="M1168.13,161.56c-12.253,0-15.012-5.519-15.012-11.412v-14.545c0-2.899,0.701-5.378,2.806-7.155l6.08-5.051
		c2.198-1.871,5.893-2.946,12.16-2.946c12.253,0,14.966,4.163,14.966,10.055v15.948c0,2.9-0.702,5.332-2.806,7.109l-6.033,5.051
		C1178.092,160.484,1174.35,161.56,1168.13,161.56z M1188.661,130.505c0-5.706-2.806-9.587-14.498-9.587s-14.545,3.882-14.545,9.587
		v15.948c0,5.706,2.853,9.541,14.545,9.541s14.498-3.835,14.498-9.541V130.505z M1174.07,151.691c-7.343,0-9.4-2.525-9.4-6.314
		v-13.796c0-3.788,2.058-6.314,9.4-6.314c7.342,0,9.494,2.526,9.494,6.314v13.796
		C1183.563,149.166,1181.412,151.691,1174.07,151.691z M1174.07,151.224c6.968,0,9.026-2.338,9.026-5.846v-13.796
		c0-3.508-2.058-5.846-9.026-5.846c-6.969,0-8.933,2.338-8.933,5.846v13.796C1165.137,148.885,1167.101,151.224,1174.07,151.224z
		 M1170.234,132.189c0-1.216,0.562-2.151,3.929-2.151c3.414,0,3.929,0.936,3.929,2.151v12.581c0,1.263-0.515,2.198-3.929,2.198
		c-3.367,0-3.929-0.936-3.929-2.198V132.189z M1171.591,146.173v-8.886c0-0.608-0.187-1.076-0.889-1.356v8.839
		C1170.702,145.377,1170.889,145.845,1171.591,146.173z"/>
	<path fill="#93851F" d="M1191.937,158.707v-5.472c0-0.842,0.234-1.356,0.655-1.73l4.677-3.929c-3.32-1.029-5.332-3.18-5.332-7.717
		v-4.911c0-2.806,0.936-5.004,2.712-6.5l6.08-5.098c1.684-1.403,4.209-2.198,7.389-2.198h13.095c1.497,0,2.151,0.655,2.151,2.151
		v5.565c0,0.842-0.234,1.356-0.655,1.73l-4.209,3.507c3.975,0.889,6.547,2.993,6.547,8.044v4.911c0,2.806-0.935,5.004-2.759,6.501
		l-6.033,5.051c-1.73,1.45-4.256,2.245-7.389,2.245h-14.779C1192.591,160.858,1191.937,160.203,1191.937,158.707z M1224.581,147.061
		v-4.911c0-5.238-2.899-7.108-7.295-7.763l-6.969-0.936c-0.795-0.093-1.263-0.655-1.263-1.497s0.468-1.403,1.263-1.403h10.897
		c1.169,0,1.684-0.515,1.684-1.684v-5.565c0-1.169-0.514-1.684-1.684-1.684h-13.095c-6.08,0-9.681,2.899-9.681,8.231v4.911
		c0,5.238,2.853,7.109,7.249,7.764l7.015,0.982c0.795,0.094,1.216,0.515,1.216,1.59c0,0.748-0.421,1.356-1.216,1.356h-12.581
		c-1.169,0-1.684,0.515-1.684,1.684v5.472c0,1.169,0.514,1.684,1.684,1.684h14.779
		C1220.933,155.292,1224.581,152.393,1224.581,147.061z M1218.688,126.296h-10.382c-2.619,0-4.303,1.59-4.303,3.788v3.835
		c0,2.198,0.935,2.853,2.385,3.133l9.868,2.011c1.871,0.374,3.227,1.31,3.227,4.583v2.713c0,2.759-2.011,4.724-5.191,4.724h-11.646
		v-0.468h11.646c2.899,0,4.723-1.777,4.723-4.256v-2.713c0-2.946-1.122-3.741-2.853-4.115l-9.868-2.011
		c-1.637-0.327-2.759-1.029-2.759-3.601v-3.835c0-2.479,1.871-4.256,4.771-4.256h10.382V126.296z"/>
	<path fill="#93851F" d="M1238.099,160.39c-0.28,0.281-0.795,0.468-1.45,0.468h-6.875c-1.497,0-2.151-0.655-2.151-2.151v-23.15
		c0-2.946,0.655-5.425,2.759-7.202l6.08-5.051c2.104-1.777,5.706-2.853,11.833-2.853c12.206,0,14.732,4.163,14.732,10.008v23.15
		c0,0.842-0.234,1.356-0.655,1.73l-6.08,5.051c-0.281,0.281-0.795,0.468-1.45,0.468h-7.109c-1.497,0-2.151-0.655-2.151-2.151v-6.501
		h-0.748v1.403c0,0.842-0.234,1.356-0.655,1.73L1238.099,160.39z M1244.366,146.64h7.717v6.969c0,1.169,0.514,1.684,1.684,1.684
		h7.109c1.169,0,1.684-0.515,1.684-1.684v-23.15c0-5.659-2.619-9.541-14.264-9.541c-11.599,0-14.171,3.882-14.171,9.541v23.15
		c0,1.169,0.514,1.684,1.684,1.684h6.875c1.169,0,1.684-0.515,1.684-1.684V146.64z M1257.086,142.618h-17.351v8.465h-0.468v-19.502
		c0-3.788,1.73-6.314,9.073-6.314c7.343,0,9.213,2.526,9.213,6.314v19.502h-0.468V142.618z M1239.736,142.15h17.351v-10.569
		c0-3.508-1.777-5.846-8.746-5.846c-6.968,0-8.605,2.338-8.605,5.846V142.15z M1248.248,129.851c3.273,0,3.835,0.936,3.835,2.198
		v6.033h-7.717v-6.033C1244.366,130.786,1244.927,129.851,1248.248,129.851z M1244.833,135.79v1.824h0.748v-0.468
		C1245.582,136.585,1245.395,136.118,1244.833,135.79z"/>
	<path fill="#93851F" d="M1266.77,138.128v-1.356c0-0.655,0.187-1.076,0.515-1.356l0.982-0.842h-0.281
		c-1.169,0-1.684-0.515-1.684-1.684v-4.958c0-0.655,0.187-1.076,0.515-1.356l6.033-5.098c0.28-0.281,0.701-0.327,1.169-0.327h6.828
		c1.169,0,1.684,0.514,1.684,1.684v6.313c0,2.011-0.654,3.461-1.777,4.396l-6.033,5.098c-0.889,0.748-2.198,1.169-3.695,1.169
		h-2.572C1267.284,139.812,1266.77,139.298,1266.77,138.128z M1282.016,129.149v-6.313c0-0.842-0.374-1.216-1.216-1.216h-6.828
		c-0.842,0-1.169,0.374-1.169,1.216v4.958c0,0.842,0.327,1.216,1.169,1.216h3.695v0.515c0,0.608-0.327,0.935-0.936,0.935h-2.292
		c-0.842,0-1.216,0.374-1.216,1.216v1.356c0,0.889,0.374,1.216,1.216,1.216h2.572
		C1280.052,134.247,1282.016,132.61,1282.016,129.149z M1279.724,125.08v4.022c0,1.824-0.795,3.461-2.619,3.461h-1.917v-0.468h1.917
		c1.543,0,2.151-1.45,2.151-2.993v-3.554h-4.116v-0.468H1279.724z"/>
	<path fill="#93851F" d="M1284.683,158.707v-5.472c0-0.842,0.233-1.356,0.655-1.73l4.677-3.929c-3.321-1.029-5.332-3.18-5.332-7.717
		v-4.911c0-2.806,0.936-5.004,2.713-6.5l6.079-5.098c1.685-1.403,4.21-2.198,7.39-2.198h13.096c1.496,0,2.151,0.655,2.151,2.151
		v5.565c0,0.842-0.234,1.356-0.655,1.73l-4.209,3.507c3.976,0.889,6.548,2.993,6.548,8.044v4.911c0,2.806-0.936,5.004-2.76,6.501
		l-6.033,5.051c-1.73,1.45-4.256,2.245-7.39,2.245h-14.778C1285.338,160.858,1284.683,160.203,1284.683,158.707z M1317.327,147.061
		v-4.911c0-5.238-2.9-7.108-7.296-7.763l-6.969-0.936c-0.795-0.093-1.263-0.655-1.263-1.497s0.468-1.403,1.263-1.403h10.897
		c1.169,0,1.684-0.515,1.684-1.684v-5.565c0-1.169-0.515-1.684-1.684-1.684h-13.096c-6.08,0-9.681,2.899-9.681,8.231v4.911
		c0,5.238,2.853,7.109,7.249,7.764l7.015,0.982c0.796,0.094,1.217,0.515,1.217,1.59c0,0.748-0.421,1.356-1.217,1.356h-12.58
		c-1.169,0-1.684,0.515-1.684,1.684v5.472c0,1.169,0.515,1.684,1.684,1.684h14.778
		C1313.679,155.292,1317.327,152.393,1317.327,147.061z M1311.434,126.296h-10.382c-2.619,0-4.303,1.59-4.303,3.788v3.835
		c0,2.198,0.936,2.853,2.385,3.133l9.868,2.011c1.871,0.374,3.228,1.31,3.228,4.583v2.713c0,2.759-2.012,4.724-5.191,4.724h-11.646
		v-0.468h11.646c2.899,0,4.724-1.777,4.724-4.256v-2.713c0-2.946-1.123-3.741-2.854-4.115l-9.868-2.011
		c-1.637-0.327-2.759-1.029-2.759-3.601v-3.835c0-2.479,1.871-4.256,4.771-4.256h10.382V126.296z"/>
	<path fill="#93851F" d="M1337.954,160.858c-1.496,0-2.151-0.655-2.151-2.151v-30.306c0-0.842,0.234-1.356,0.655-1.73l6.032-5.098
		c0.328-0.281,0.842-0.421,1.497-0.421h7.249c1.496,0,2.151,0.655,2.151,2.151v19.035l0.094-0.094l6.033-5.098
		c0.327-0.281,0.842-0.421,1.496-0.421h6.781c1.497,0,2.151,0.655,2.151,2.151v14.732c0,0.842-0.233,1.356-0.654,1.73l-6.08,5.051
		c-0.28,0.281-0.795,0.468-1.45,0.468H1337.954z M1369.476,153.609v-14.732c0-1.169-0.514-1.684-1.684-1.684h-6.781
		c-1.169,0-1.684,0.514-1.684,1.684v7.576h-6.407v-23.15c0-1.169-0.515-1.684-1.684-1.684h-7.249c-1.169,0-1.684,0.514-1.684,1.684
		v30.306c0,1.169,0.515,1.684,1.684,1.684h23.805C1368.962,155.292,1369.476,154.778,1369.476,153.609z M1347.401,125.829h0.468
		v24.787h16.275v-9.213h0.468v9.681h-17.211V125.829z"/>
	<path fill="#93851F" d="M1375.184,160.858c-1.497,0-2.151-0.655-2.151-2.151v-30.306c0-0.842,0.233-1.356,0.654-1.73l6.033-5.098
		c0.328-0.281,0.842-0.421,1.497-0.421h7.436c1.497,0,2.151,0.655,2.151,2.151v30.306c0,0.842-0.233,1.356-0.654,1.73l-6.08,5.051
		c-0.28,0.281-0.795,0.468-1.449,0.468H1375.184z M1390.336,153.609v-30.306c0-1.169-0.514-1.684-1.684-1.684h-7.436
		c-1.169,0-1.684,0.514-1.684,1.684v30.306c0,1.169,0.515,1.684,1.684,1.684h7.436
		C1389.822,155.292,1390.336,154.778,1390.336,153.609z M1385.192,125.829v25.255h-0.468v-25.255H1385.192z"/>
	<path fill="#93851F" d="M1405.864,165.067c-1.497,0-2.151-0.655-2.151-2.151v-2.151c-7.296-1.216-9.214-6.173-9.214-11.037v-14.124
		c0-2.899,0.702-5.378,2.807-7.155l6.079-5.051c2.198-1.871,5.894-2.946,12.16-2.946c12.253,0,14.966,4.163,14.966,10.055v15.527
		c0,2.9-0.701,5.332-2.806,7.109l-6.033,5.051c-0.188,0.141-0.328,0.281-0.515,0.375c-0.094,0.467-0.28,0.748-0.562,0.982
		l-6.08,5.051c-0.28,0.281-0.795,0.468-1.449,0.468H1405.864z M1420.783,157.818v-2.572c7.343-1.029,9.26-4.49,9.26-9.213v-15.527
		c0-5.706-2.806-9.587-14.498-9.587S1401,124.8,1401,130.505v15.527c0,4.724,1.964,8.138,9.214,9.213v2.572
		c0,1.169,0.514,1.684,1.684,1.684h7.202C1420.269,159.501,1420.783,158.987,1420.783,157.818z M1415.218,151.691
		c-7.155-0.047-9.167-2.572-9.167-6.314v-13.796c0-3.788,2.058-6.314,9.4-6.314s9.494,2.526,9.494,6.314v13.796
		c0,3.742-2.104,6.267-9.26,6.314v3.601h-0.468V151.691z M1415.451,151.224c6.969,0,9.026-2.338,9.026-5.846v-13.796
		c0-3.508-2.058-5.846-9.026-5.846c-6.968,0-8.933,2.338-8.933,5.846v13.796C1406.519,148.885,1408.483,151.224,1415.451,151.224z
		 M1411.616,132.236c0-1.216,0.562-2.151,3.929-2.151c3.414,0,3.929,0.936,3.929,2.151v12.768c0,1.263-0.515,2.198-3.929,2.198
		c-3.367,0-3.929-0.936-3.929-2.198V132.236z M1412.973,146.407v-9.073c0-0.608-0.187-1.076-0.889-1.356v9.026
		C1412.084,145.611,1412.271,146.079,1412.973,146.407z"/>
	<path fill="#93851F" d="M1433.927,150.148v-21.747c0-0.842,0.233-1.356,0.654-1.73l6.033-5.098
		c0.327-0.281,0.842-0.421,1.496-0.421h7.343c1.497,0,2.151,0.655,2.151,2.151v21.326c0,0.561,0.141,1.029,0.749,1.31v-17.538
		c0-0.842,0.187-1.356,0.561-1.684l0.047-0.047l6.08-5.098c0.327-0.281,0.795-0.421,1.496-0.421h7.109
		c1.496,0,2.151,0.655,2.151,2.151v23.15c0,2.9-0.702,5.332-2.807,7.109l-6.079,5.051c-2.198,1.871-5.894,2.947-12.066,2.947
		C1436.686,161.56,1433.927,156.041,1433.927,150.148z M1469.33,123.303c0-1.169-0.515-1.684-1.684-1.684h-7.109
		c-1.216,0-1.684,0.514-1.684,1.684v21.326c0,1.263-0.561,2.198-3.882,2.198c-3.273,0-3.835-0.936-3.835-2.198v-21.326
		c0-1.169-0.514-1.684-1.684-1.684h-7.343c-1.169,0-1.684,0.514-1.684,1.684v23.15c0,5.706,2.854,9.541,14.452,9.541
		c11.598,0,14.451-3.835,14.451-9.541V123.303z M1446.039,125.829v19.502c0,3.507,1.918,5.846,8.887,5.846
		c6.968,0,8.933-2.338,8.933-5.846v-19.502h0.468v19.502c0,3.788-2.059,6.313-9.4,6.313c-7.343,0-9.354-2.525-9.354-6.313v-19.502
		H1446.039z"/>
	<path fill="#93851F" d="M1488.226,161.56c-12.253,0-15.013-5.519-15.013-11.412v-14.545c0-2.899,0.702-5.378,2.807-7.155
		l6.08-5.051c2.197-1.871,5.893-2.946,12.159-2.946c12.253,0,14.966,4.163,14.966,10.055v15.948c0,2.9-0.701,5.332-2.806,7.109
		l-6.033,5.051C1498.188,160.484,1494.446,161.56,1488.226,161.56z M1508.757,130.505c0-5.706-2.806-9.587-14.498-9.587
		s-14.545,3.882-14.545,9.587v15.948c0,5.706,2.853,9.541,14.545,9.541s14.498-3.835,14.498-9.541V130.505z M1494.165,151.691
		c-7.343,0-9.4-2.525-9.4-6.314v-13.796c0-3.788,2.058-6.314,9.4-6.314s9.494,2.526,9.494,6.314v13.796
		C1503.659,149.166,1501.508,151.691,1494.165,151.691z M1494.165,151.224c6.969,0,9.026-2.338,9.026-5.846v-13.796
		c0-3.508-2.058-5.846-9.026-5.846c-6.968,0-8.933,2.338-8.933,5.846v13.796C1485.232,148.885,1487.197,151.224,1494.165,151.224z
		 M1490.33,132.189c0-1.216,0.562-2.151,3.929-2.151c3.414,0,3.929,0.936,3.929,2.151v12.581c0,1.263-0.515,2.198-3.929,2.198
		c-3.367,0-3.929-0.936-3.929-2.198V132.189z M1491.687,146.173v-8.886c0-0.608-0.187-1.076-0.889-1.356v8.839
		C1490.798,145.377,1490.985,145.845,1491.687,146.173z"/>
	<path fill="#93851F" d="M1523.678,160.39c-0.281,0.281-0.795,0.468-1.45,0.468h-7.202c-1.496,0-2.151-0.655-2.151-2.151v-30.306
		c0-0.842,0.234-1.356,0.655-1.73l6.032-5.098c0.328-0.281,0.842-0.421,1.497-0.421h15.574c7.436,0,9.681,3.414,9.681,8.278v2.151
		c0,2.292-0.515,4.022-1.777,5.098h-0.047c2.946,0.842,4.864,3.321,4.864,7.015v9.915c0,0.842-0.234,1.356-0.655,1.73l-6.079,5.051
		c-0.281,0.281-0.796,0.468-1.45,0.468h-7.249c-1.497,0-2.151-0.655-2.151-2.151v-7.155c0-1.029-0.327-1.543-1.31-1.543h-0.047
		v3.601c0,0.842-0.233,1.356-0.654,1.73L1523.678,160.39z M1529.944,153.609v-9.167h6.548c1.31,0,1.777,0.608,1.777,2.011v7.156
		c0,1.169,0.514,1.684,1.684,1.684h7.249c1.169,0,1.684-0.515,1.684-1.684v-9.915c0-3.928-2.245-6.407-5.659-6.781
		c1.965-0.842,2.619-2.712,2.619-5.332v-2.151c0-4.63-2.198-7.81-9.213-7.81h-15.574c-1.169,0-1.684,0.514-1.684,1.684v30.306
		c0,1.169,0.515,1.684,1.684,1.684h7.202C1529.43,155.292,1529.944,154.778,1529.944,153.609z M1524.426,151.083v-25.255h10.663
		c3.648,0,5.332,2.245,5.332,5.332v3.227c0,2.853-0.562,4.724-2.807,5.425h0.515c3.835,0,5.659,1.73,5.659,5.004v6.267h-0.468
		v-6.267c0-3.087-1.637-4.583-5.191-4.583h-13.235v10.851H1524.426z M1524.894,126.296v13.516h10.195
		c3.882,0,4.864-1.917,4.864-5.378v-3.274c0-2.9-1.544-4.864-4.864-4.864H1524.894z M1533.452,130.038
		c1.637,0,2.058,0.936,2.058,2.198v1.59c0,1.263-0.421,2.198-2.058,2.198h-3.508v-5.986H1533.452z"/>
	<path fill="#93851F" d="M1551.459,158.707v-5.472c0-0.842,0.234-1.356,0.655-1.73l4.677-3.929c-3.321-1.029-5.332-3.18-5.332-7.717
		v-4.911c0-2.806,0.936-5.004,2.713-6.5l6.079-5.098c1.685-1.403,4.21-2.198,7.39-2.198h13.096c1.496,0,2.151,0.655,2.151,2.151
		v5.565c0,0.842-0.234,1.356-0.655,1.73l-4.209,3.507c3.976,0.889,6.548,2.993,6.548,8.044v4.911c0,2.806-0.936,5.004-2.76,6.501
		l-6.033,5.051c-1.73,1.45-4.256,2.245-7.39,2.245h-14.778C1552.114,160.858,1551.459,160.203,1551.459,158.707z M1584.104,147.061
		v-4.911c0-5.238-2.9-7.108-7.296-7.763l-6.969-0.936c-0.795-0.093-1.263-0.655-1.263-1.497s0.468-1.403,1.263-1.403h10.897
		c1.169,0,1.684-0.515,1.684-1.684v-5.565c0-1.169-0.515-1.684-1.684-1.684h-13.096c-6.08,0-9.681,2.899-9.681,8.231v4.911
		c0,5.238,2.853,7.109,7.249,7.764l7.015,0.982c0.796,0.094,1.217,0.515,1.217,1.59c0,0.748-0.421,1.356-1.217,1.356h-12.58
		c-1.169,0-1.684,0.515-1.684,1.684v5.472c0,1.169,0.515,1.684,1.684,1.684h14.778
		C1580.455,155.292,1584.104,152.393,1584.104,147.061z M1578.21,126.296h-10.382c-2.619,0-4.303,1.59-4.303,3.788v3.835
		c0,2.198,0.936,2.853,2.385,3.133l9.868,2.011c1.871,0.374,3.228,1.31,3.228,4.583v2.713c0,2.759-2.012,4.724-5.191,4.724h-11.646
		v-0.468h11.646c2.899,0,4.724-1.777,4.724-4.256v-2.713c0-2.946-1.123-3.741-2.854-4.115l-9.868-2.011
		c-1.637-0.327-2.759-1.029-2.759-3.601v-3.835c0-2.479,1.871-4.256,4.771-4.256h10.382V126.296z"/>
</g>
<g>
	<path fill="#DDCE43" d="M1107.414,511.212c-2.575,0-3.702-1.127-3.702-3.702v-10.786c0-2.334,0.644-3.863,2.173-5.473
		l18.513-22.457h-15.534c-2.576,0-3.703-1.127-3.703-3.703v-9.739c0-1.448,0.402-2.334,1.127-2.978l10.384-8.773
		c0.563-0.483,1.448-0.725,2.575-0.725h37.025c2.576,0,3.703,1.127,3.703,3.702v11.993c0,2.415-0.645,3.944-2.174,5.554
		l-17.627,21.33h17.547c2.575,0,3.702,1.127,3.702,3.703v9.578c0,1.448-0.402,2.334-1.127,2.978l-10.464,8.693
		c-0.482,0.483-1.368,0.805-2.495,0.805H1107.414z"/>
	<path fill="#DDCE43" d="M1176.313,510.407c-0.483,0.483-1.368,0.805-2.495,0.805h-11.832c-2.576,0-3.703-1.127-3.703-3.702v-39.843
		c0-5.071,1.127-9.337,4.749-12.396l10.464-8.693c3.622-3.059,9.82-4.909,20.364-4.909c21.008,0,25.354,7.163,25.354,17.225v39.843
		c0,1.448-0.402,2.334-1.127,2.978l-10.464,8.693c-0.483,0.483-1.368,0.805-2.495,0.805h-12.234c-2.576,0-3.703-1.127-3.703-3.702
		v-11.188h-1.287v2.415c0,1.448-0.402,2.334-1.127,2.978L1176.313,510.407z M1187.904,468.069v3.14h1.287v-0.806
		C1189.191,469.438,1188.87,468.633,1187.904,468.069z"/>
	<path fill="#DDCE43" d="M1221.629,511.212c-2.576,0-3.703-1.127-3.703-3.702v-52.158c0-1.448,0.403-2.334,1.127-2.978l10.384-8.773
		c0.563-0.483,1.448-0.725,2.575-0.725h24.63c15.374,0,19.801,6.761,19.801,16.501v10.303c0,5.151-1.288,9.497-4.829,12.476
		l-10.464,8.692c-2.656,2.254-6.842,3.783-12.959,4.025v3.863c0,1.448-0.402,2.334-1.127,2.978l-10.464,8.693
		c-0.482,0.483-1.368,0.805-2.495,0.805H1221.629z"/>
	<path fill="#DDCE43" d="M1290.448,510.407c-0.483,0.483-1.368,0.805-2.495,0.805h-11.832c-2.576,0-3.703-1.127-3.703-3.702v-39.843
		c0-5.071,1.127-9.337,4.749-12.396l10.464-8.693c3.622-3.059,9.82-4.909,20.364-4.909c21.008,0,25.354,7.163,25.354,17.225v39.843
		c0,1.448-0.402,2.334-1.127,2.978l-10.464,8.693c-0.483,0.483-1.368,0.805-2.495,0.805h-12.234c-2.576,0-3.703-1.127-3.703-3.702
		v-11.188h-1.287v2.415c0,1.448-0.402,2.334-1.127,2.978L1290.448,510.407z M1302.039,468.069v3.14h1.287v-0.806
		C1303.326,469.438,1303.005,468.633,1302.039,468.069z"/>
	<path fill="#DDCE43" d="M1346.39,511.212c-2.576,0-3.703-1.127-3.703-3.702v-38.716h-11.026c-2.576,0-3.703-1.127-3.703-3.703
		v-9.739c0-1.448,0.402-2.334,1.127-2.978l10.383-8.773c0.563-0.483,1.449-0.725,2.576-0.725h42.499
		c2.575,0,3.702,1.127,3.702,3.702v9.739c0,1.449-0.402,2.335-1.127,2.979l-10.464,8.693c-0.482,0.482-1.368,0.805-2.495,0.805
		h-0.644v29.942c0,1.448-0.402,2.334-1.127,2.978l-10.464,8.693c-0.482,0.483-1.368,0.805-2.495,0.805H1346.39z"/>
	<path fill="#DDCE43" d="M1403.377,511.212c-15.938,0-20.605-9.498-20.605-19.64v-22.617c0-5.474,1.368-10.062,5.07-13.12
		l10.384-8.773c3.139-2.656,8.129-4.186,15.534-4.186h20.444c2.576,0,3.703,1.127,3.703,3.702v9.418
		c0,1.448-0.402,2.334-1.127,2.978l-6.842,5.715c1.047,0.483,1.529,1.529,1.529,3.301v8.612c0,1.448-0.402,2.334-1.127,2.978
		l-7.163,6.037h11.026c2.576,0,3.703,1.127,3.703,3.702v9.418c0,1.448-0.402,2.334-1.127,2.978l-10.464,8.693
		c-0.482,0.483-1.368,0.805-2.495,0.805H1403.377z"/>
	<path fill="#DDCE43" d="M1454.005,510.407c-0.483,0.483-1.368,0.805-2.495,0.805h-12.396c-2.576,0-3.703-1.127-3.703-3.702v-52.158
		c0-1.448,0.403-2.334,1.127-2.978l10.384-8.773c0.563-0.483,1.448-0.725,2.575-0.725h26.804c12.798,0,16.661,5.876,16.661,14.247
		v3.702c0,3.944-0.886,6.922-3.059,8.773h-0.08c5.07,1.449,8.371,5.715,8.371,12.073v17.064c0,1.448-0.403,2.334-1.127,2.978
		l-10.464,8.693c-0.483,0.483-1.368,0.805-2.495,0.805h-12.477c-2.575,0-3.702-1.127-3.702-3.702v-12.315
		c0-1.771-0.563-2.656-2.254-2.656h-0.08v6.198c0,1.448-0.402,2.334-1.127,2.978L1454.005,510.407z"/>
	<path fill="#DDCE43" d="M1498.998,511.212c-2.575,0-3.702-1.127-3.702-3.702v-52.158c0-1.448,0.402-2.334,1.127-2.978l3.22-2.737
		l-7.003,0.967c-2.415,0.321-3.622-0.967-3.622-3.462v-7.727c0-1.449,0.402-2.254,1.046-2.817l10.384-8.773
		c0.482-0.402,1.368-0.725,2.495-0.885l25.757-3.462c2.415-0.321,3.622,0.966,3.622,3.462v7.727c0,1.368-0.402,2.334-1.127,2.817
		l-6.842,5.795c1.047,0.563,1.529,1.61,1.529,3.3v52.158c0,1.448-0.402,2.334-1.127,2.978l-10.464,8.693
		c-0.482,0.483-1.368,0.805-2.495,0.805H1498.998z"/>
	<path fill="#DDCE43" d="M1542.704,510.407c-0.483,0.483-1.368,0.805-2.495,0.805h-11.832c-2.576,0-3.703-1.127-3.703-3.702v-39.843
		c0-5.071,1.127-9.337,4.749-12.396l10.464-8.693c3.622-3.059,9.82-4.909,20.364-4.909c21.008,0,25.354,7.163,25.354,17.225v39.843
		c0,1.448-0.402,2.334-1.127,2.978l-10.464,8.693c-0.483,0.483-1.368,0.805-2.495,0.805h-12.234c-2.576,0-3.703-1.127-3.703-3.702
		v-11.188h-1.287v2.415c0,1.448-0.402,2.334-1.127,2.978L1542.704,510.407z M1554.295,468.069v3.14h1.287v-0.806
		C1555.582,469.438,1555.261,468.633,1554.295,468.069z"/>
</g>
<g>
	<g>
		<path fill="#AF9F25" d="M1114.095,498.736V487.95c0-2.334,0.644-3.863,2.173-5.473l18.513-22.457h-15.535
			c-2.576,0-3.702-1.127-3.702-3.703v-9.739c0-2.575,1.126-3.702,3.702-3.702h37.025c2.576,0,3.703,1.127,3.703,3.702v11.993
			c0,2.415-0.644,3.944-2.173,5.554l-17.627,21.33h17.547c2.576,0,3.702,1.127,3.702,3.703v9.578c0,2.575-1.126,3.702-3.702,3.702
			h-39.923C1115.222,502.438,1114.095,501.312,1114.095,498.736z"/>
		<path fill="#AF9F25" d="M1168.667,498.736v-39.843c0-10.062,4.266-17.225,25.193-17.225c21.008,0,25.354,7.163,25.354,17.225
			v39.843c0,2.575-1.126,3.702-3.702,3.702h-12.235c-2.576,0-3.702-1.127-3.702-3.702v-11.188h-11.671v11.188
			c0,2.575-1.127,3.702-3.703,3.702h-11.832C1169.793,502.438,1168.667,501.312,1168.667,498.736z M1187.904,471.209h11.671v-9.579
			c0-1.932-1.369-2.978-5.795-2.978c-4.507,0-5.876,1.046-5.876,2.978V471.209z"/>
		<path fill="#AF9F25" d="M1228.31,498.736v-52.158c0-2.575,1.127-3.702,3.703-3.702h24.63c15.374,0,19.8,6.761,19.8,16.501v10.303
			c0,9.739-4.427,16.5-19.8,16.5h-8.452v12.557c0,2.575-1.127,3.702-3.703,3.702h-12.476
			C1229.437,502.438,1228.31,501.312,1228.31,498.736z M1248.03,459.537v10.545h6.439c2.495,0,2.978-1.529,2.978-3.14v-4.266
			c0-1.61-0.483-3.14-2.978-3.14H1248.03z"/>
		<path fill="#AF9F25" d="M1282.802,498.736v-39.843c0-10.062,4.266-17.225,25.193-17.225c21.008,0,25.354,7.163,25.354,17.225
			v39.843c0,2.575-1.127,3.702-3.703,3.702h-12.234c-2.575,0-3.702-1.127-3.702-3.702v-11.188h-11.671v11.188
			c0,2.575-1.127,3.702-3.703,3.702h-11.832C1283.929,502.438,1282.802,501.312,1282.802,498.736z M1302.039,471.209h11.671v-9.579
			c0-1.932-1.368-2.978-5.796-2.978c-4.507,0-5.875,1.046-5.875,2.978V471.209z"/>
		<path fill="#AF9F25" d="M1353.07,498.736v-38.716h-11.027c-2.576,0-3.702-1.127-3.702-3.703v-9.739
			c0-2.575,1.126-3.702,3.702-3.702h42.499c2.575,0,3.702,1.127,3.702,3.702v9.739c0,2.576-1.127,3.703-3.702,3.703h-11.027v38.716
			c0,2.575-1.127,3.702-3.702,3.702h-13.04C1354.197,502.438,1353.07,501.312,1353.07,498.736z"/>
		<path fill="#AF9F25" d="M1393.154,485.214v-25.032c0-10.223,4.669-17.306,20.605-17.306h20.444c2.576,0,3.703,1.127,3.703,3.702
			v9.418c0,2.575-1.127,3.702-3.703,3.702h-17.788c-3.381,0-4.104,1.449-4.104,3.22v1.368h15.454c2.575,0,3.702,1.047,3.702,3.703
			v8.612c0,2.575-1.127,3.702-3.702,3.702h-15.454v2.254c0,1.852,0.805,3.059,4.104,3.059h17.788c2.576,0,3.703,1.127,3.703,3.702
			v9.418c0,2.575-1.127,3.702-3.703,3.702h-20.444C1397.823,502.438,1393.154,495.355,1393.154,485.214z"/>
		<path fill="#AF9F25" d="M1449.497,502.438c-2.575,0-3.702-1.127-3.702-3.702v-52.158c0-2.575,1.127-3.702,3.702-3.702h26.804
			c12.798,0,16.661,5.876,16.661,14.247v3.702c0,3.944-0.886,6.922-3.139,8.773c5.07,1.449,8.371,5.715,8.371,12.073v17.064
			c0,2.575-1.127,3.702-3.703,3.702h-12.476c-2.576,0-3.703-1.127-3.703-3.702v-12.315c0-1.771-0.563-2.656-2.253-2.656h-10.464
			v14.972c0,2.575-1.127,3.702-3.703,3.702H1449.497z M1465.596,458.974v8.693h5.231c2.254,0,2.736-1.288,2.736-2.979v-2.736
			c0-1.69-0.482-2.979-2.736-2.979H1465.596z"/>
		<path fill="#AF9F25" d="M1499.4,438.368v-7.727c0-2.495,1.047-3.381,3.622-3.702l25.677-3.462
			c2.415-0.321,3.622,0.966,3.622,3.462v7.727c0,2.495-1.047,3.381-3.622,3.702l-25.677,3.462
			C1500.608,442.151,1499.4,440.863,1499.4,438.368z M1522.18,502.438h-12.798c-2.576,0-3.703-1.127-3.703-3.702v-52.158
			c0-2.575,1.127-3.702,3.703-3.702h12.798c2.575,0,3.702,1.127,3.702,3.702v52.158
			C1525.882,501.312,1524.755,502.438,1522.18,502.438z"/>
		<path fill="#AF9F25" d="M1535.058,498.736v-39.843c0-10.062,4.266-17.225,25.193-17.225c21.008,0,25.354,7.163,25.354,17.225
			v39.843c0,2.575-1.127,3.702-3.703,3.702h-12.234c-2.575,0-3.702-1.127-3.702-3.702v-11.188h-11.671v11.188
			c0,2.575-1.127,3.702-3.703,3.702h-11.832C1536.185,502.438,1535.058,501.312,1535.058,498.736z M1554.295,471.209h11.671v-9.579
			c0-1.932-1.368-2.978-5.796-2.978c-4.507,0-5.875,1.046-5.875,2.978V471.209z"/>
	</g>
	<g>
		<path fill="#FFFFFF" d="M1117.797,501.634c-2.012,0-2.897-0.886-2.897-2.897V487.95c0-2.093,0.563-3.461,2.012-4.99l19.559-23.744
			h-17.225c-2.012,0-2.897-0.886-2.897-2.898v-9.739c0-2.012,0.885-2.897,2.897-2.897h37.025c2.013,0,2.898,0.886,2.898,2.897
			v11.993c0,2.174-0.563,3.542-2.012,5.071l-18.674,22.617h19.237c2.012,0,2.897,0.886,2.897,2.898v9.578
			c0,2.012-0.885,2.897-2.897,2.897H1117.797z"/>
		<path fill="#FFFFFF" d="M1184.201,501.634h-11.832c-2.012,0-2.897-0.886-2.897-2.897v-39.843c0-9.739,4.427-16.42,24.389-16.42
			c20.042,0,24.549,6.681,24.549,16.42v39.843c0,2.012-0.885,2.897-2.897,2.897h-12.235c-2.012,0-2.897-0.886-2.897-2.897v-11.993
			h-13.281v11.993C1187.099,500.748,1186.214,501.634,1184.201,501.634z M1187.099,472.014h13.281V461.63
			c0-2.173-0.966-3.782-6.6-3.782c-5.715,0-6.681,1.609-6.681,3.782V472.014z"/>
		<path fill="#FFFFFF" d="M1232.013,501.634c-2.013,0-2.898-0.886-2.898-2.897v-52.158c0-2.012,0.885-2.897,2.898-2.897h24.63
			c14.649,0,18.996,6.359,18.996,15.696v10.303c0,9.336-4.347,15.695-18.996,15.695h-9.256v13.361c0,2.012-0.886,2.897-2.898,2.897
			H1232.013z M1247.225,470.887h7.244c3.139,0,3.783-1.852,3.783-3.944v-4.266c0-2.093-0.644-3.944-3.783-3.944h-7.244V470.887z"/>
		<path fill="#FFFFFF" d="M1298.336,501.634h-11.832c-2.012,0-2.897-0.886-2.897-2.897v-39.843c0-9.739,4.427-16.42,24.389-16.42
			c20.042,0,24.55,6.681,24.55,16.42v39.843c0,2.012-0.886,2.897-2.898,2.897h-12.234c-2.012,0-2.897-0.886-2.897-2.897v-11.993
			h-13.281v11.993C1301.233,500.748,1300.349,501.634,1298.336,501.634z M1301.233,472.014h13.281V461.63
			c0-2.173-0.966-3.782-6.601-3.782c-5.715,0-6.681,1.609-6.681,3.782V472.014z"/>
		<path fill="#FFFFFF" d="M1356.772,501.634c-2.012,0-2.897-0.886-2.897-2.897v-39.521h-11.832c-2.013,0-2.897-0.886-2.897-2.898
			v-9.739c0-2.012,0.885-2.897,2.897-2.897h42.499c2.012,0,2.897,0.886,2.897,2.897v9.739c0,2.013-0.886,2.898-2.897,2.898h-11.832
			v39.521c0,2.012-0.886,2.897-2.897,2.897H1356.772z"/>
		<path fill="#FFFFFF" d="M1434.204,501.634h-20.444c-15.212,0-19.801-6.681-19.801-16.42v-25.032
			c0-9.82,4.589-16.501,19.801-16.501h20.444c2.013,0,2.898,0.886,2.898,2.897v9.418c0,2.012-0.886,2.897-2.898,2.897h-17.788
			c-4.186,0-4.91,1.932-4.91,4.024v2.173h16.26c2.012,0,2.897,0.806,2.897,2.898v8.612c0,2.012-0.886,2.897-2.897,2.897h-16.26
			v3.059c0,2.254,0.725,3.863,4.91,3.863h17.788c2.013,0,2.898,0.886,2.898,2.897v9.418
			C1437.103,500.748,1436.217,501.634,1434.204,501.634z"/>
		<path fill="#FFFFFF" d="M1449.497,501.634c-2.012,0-2.897-0.886-2.897-2.897v-52.158c0-2.012,0.886-2.897,2.897-2.897h26.804
			c12.073,0,15.856,5.474,15.856,13.442v3.702c0,4.508-1.127,7.728-4.508,9.176c5.876,0.645,9.739,4.91,9.739,11.671v17.064
			c0,2.012-0.885,2.897-2.897,2.897h-12.476c-2.013,0-2.897-0.886-2.897-2.897v-12.315c0-2.414-0.806-3.461-3.059-3.461h-11.27
			v15.776c0,2.012-0.885,2.897-2.897,2.897H1449.497z M1464.79,468.472h6.037c2.817,0,3.542-1.609,3.542-3.783v-2.736
			c0-2.173-0.725-3.783-3.542-3.783h-6.037V468.472z"/>
		<path fill="#FFFFFF" d="M1502.942,441.024c-1.852,0.242-2.736-0.805-2.736-2.656v-7.727c0-2.013,0.885-2.656,2.897-2.897
			l25.676-3.461c1.852-0.242,2.737,0.805,2.737,2.656v7.727c0,2.013-0.886,2.656-2.897,2.897L1502.942,441.024z M1509.382,501.634
			c-2.013,0-2.897-0.886-2.897-2.897v-52.158c0-2.012,0.885-2.897,2.897-2.897h12.798c2.012,0,2.897,0.886,2.897,2.897v52.158
			c0,2.012-0.886,2.897-2.897,2.897H1509.382z"/>
		<path fill="#FFFFFF" d="M1550.592,501.634h-11.832c-2.012,0-2.897-0.886-2.897-2.897v-39.843c0-9.739,4.427-16.42,24.389-16.42
			c20.042,0,24.55,6.681,24.55,16.42v39.843c0,2.012-0.886,2.897-2.898,2.897h-12.234c-2.012,0-2.897-0.886-2.897-2.897v-11.993
			h-13.281v11.993C1553.489,500.748,1552.604,501.634,1550.592,501.634z M1553.489,472.014h13.281V461.63
			c0-2.173-0.966-3.782-6.601-3.782c-5.715,0-6.681,1.609-6.681,3.782V472.014z"/>
	</g>
	<g>
		<path fill="#BAA885" d="M1125.686,488.111c-0.805,0.966-1.127,1.449-1.127,2.495v1.127c0,1.529,0.805,1.852,1.69,1.852h27.125
			v0.805h-27.125c-1.771,0-2.495-0.805-2.495-2.656v-1.288c0-1.207,0.563-2.012,1.368-2.978l23.583-30.265
			c0.805-0.966,1.127-1.448,1.127-2.495v-1.127c0-1.529-0.805-1.852-1.69-1.852h-24.549v-0.805h24.549
			c1.771,0,2.495,0.805,2.495,2.656v1.288c0,1.207-0.563,2.012-1.368,2.979L1125.686,488.111z"/>
		<path fill="#BAA885" d="M1208.992,479.821h-29.862v14.568h-0.805v-33.564c0-6.52,2.978-10.866,15.615-10.866
			c12.637,0,15.857,4.347,15.857,10.866v33.564h-0.805V479.821z M1179.13,479.016h29.862v-18.19c0-6.037-3.059-10.062-15.052-10.062
			c-11.993,0-14.81,4.024-14.81,10.062V479.016z"/>
		<path fill="#BAA885" d="M1238.935,478.533v15.856h-0.805v-43.465h17.386c10.142,0,12.074,4.669,12.074,10.947v5.956
			c0,6.278-1.932,10.705-12.074,10.705H1238.935z M1255.516,477.729c9.498,0,11.269-4.105,11.269-9.9v-5.956
			c0-5.796-1.771-10.143-11.269-10.143h-16.581v25.999H1255.516z"/>
		<path fill="#BAA885" d="M1323.127,479.821h-29.861v14.568h-0.806v-33.564c0-6.52,2.979-10.866,15.615-10.866
			s15.856,4.347,15.856,10.866v33.564h-0.805V479.821z M1293.266,479.016h29.861v-18.19c0-6.037-3.059-10.062-15.052-10.062
			s-14.81,4.024-14.81,10.062V479.016z"/>
		<path fill="#BAA885" d="M1362.89,451.729h-16.5v-0.805h33.806v0.805h-16.501v42.66h-0.805V451.729z"/>
		<path fill="#BAA885" d="M1429.858,494.39h-14.649c-10.464,0-12.879-2.897-12.879-10.383v-22.538
			c0-7.646,2.576-10.544,12.879-10.544h14.649v0.805h-14.649c-9.498,0-12.073,2.576-12.073,9.739v10.464h21.088v0.806h-21.088
			v11.269c0,7.002,2.414,9.578,12.073,9.578h14.649V494.39z"/>
		<path fill="#BAA885" d="M1455.293,494.39v-43.465h18.352c6.278,0,9.176,3.863,9.176,9.176v5.554c0,4.91-0.966,8.13-4.829,9.337
			h0.885c6.601,0,9.739,2.979,9.739,8.612v10.786h-0.805v-10.786c0-5.312-2.817-7.888-8.935-7.888h-22.778v18.674H1455.293z
			 M1456.098,451.729v23.262h17.547c6.681,0,8.371-3.3,8.371-9.256v-5.635c0-4.99-2.656-8.371-8.371-8.371H1456.098z"/>
		<path fill="#BAA885" d="M1524.111,431.205v0.805l-16.822,2.093v-0.805L1524.111,431.205z M1516.224,450.925v43.465h-0.806v-43.465
			H1516.224z"/>
		<path fill="#BAA885" d="M1575.383,479.821h-29.861v14.568h-0.806v-33.564c0-6.52,2.979-10.866,15.615-10.866
			s15.856,4.347,15.856,10.866v33.564h-0.805V479.821z M1545.521,479.016h29.861v-18.19c0-6.037-3.059-10.062-15.052-10.062
			s-14.81,4.024-14.81,10.062V479.016z"/>
	</g>
</g>
</svg>
