<?xml version="1.0" encoding="utf-8"?>
<!-- Generator: Adobe Illustrator 17.1.0, SVG Export Plug-In . SVG Version: 6.00 Build 0)  -->
<!DOCTYPE svg PUBLIC "-//W3C//DTD SVG 1.1//EN" "http://www.w3.org/Graphics/SVG/1.1/DTD/svg11.dtd">
<svg version="1.1" id="Layer_1" xmlns="http://www.w3.org/2000/svg" xmlns:xlink="http://www.w3.org/1999/xlink" x="0px" y="0px"
	 width="620px" height="800px" viewBox="90 0 620 800" enable-background="new 90 0 620 800" xml:space="preserve">
<g>
	<g>
		<path fill="#CABC6C" d="M418.6,735.9v41.5c0,4.2-1.8,6.1-6.1,6.1h-15.4c-4.2,0-6.1-1.8-6.1-6.1v-35.4c0-1.4-1.2-2.1-2.5-2.1
			c-2,0-3,0.6-3.1,2.2l-2.8,19.8c-2,13.1-7.6,21.6-23.1,21.6h-13.8c-15.8,0-24.5-10.5-24.5-28.6v-36.8c0-4.2,1.8-6.1,6.1-6.1h15.7
			c4.2,0,6.1,1.8,6.1,6.1v30.6c0,1.4,1.2,2.2,2.6,2.2c1.6,0,2.8-0.8,2.9-2.4l2.6-19.6c2-13.1,7.6-21.7,23.1-21.7h13.8
			C409.9,707.4,418.6,718.1,418.6,735.9z"/>
		<path fill="#CABC6C" d="M412.5,695.7h-85.2c-4.2,0-6.1-1.8-6.1-6.1v-40.2c0-25.1,11-32.3,27-32.3H365c15.9,0,27,7.2,27,32.3v13.8
			h20.5c4.2,0,6.1,1.8,6.1,6.1v20.4C418.6,693.8,416.8,695.7,412.5,695.7z M348.5,663.5h17.2V653c0-4.1-2.5-4.9-5.1-4.9h-7
			c-2.6,0-5.1,0.8-5.1,4.9V663.5z"/>
		<path fill="#CABC6C" d="M418.6,579v20.9c0,4.2-1.8,6.1-6.1,6.1h-85.2c-4.2,0-6.1-1.8-6.1-6.1V579c0-4.2,1.8-6.1,6.1-6.1h85.2
			C416.8,572.9,418.6,574.7,418.6,579z"/>
		<path fill="#CABC6C" d="M347.5,557.9c-16.6,0-28.2-7.8-28.2-41.9s11.6-41.9,28.2-41.9h65c4.2,0,6.1,1.8,6.1,6.1v20.6
			c0,4.2-1.8,6.1-6.1,6.1h-59.9c-3.1,0-4.9,2.2-4.9,9.4c0,7.4,1.7,9.6,4.9,9.6h59.9c4.2,0,6.1,1.7,6.1,6.1v20c0,4.2-1.8,6.1-6.1,6.1
			h-65L347.5,557.9L347.5,557.9z"/>
		<path fill="#CABC6C" d="M418.6,365.4v32.1c0,23.1-9,33.7-28.2,33.7h-40.9c-19.2,0-28.2-10.5-28.2-33.7v-32.1
			c0-4.2,1.8-6.1,6.1-6.1h15.9c4.2,0,6.1,1.8,6.1,6.1v26.4c0,4.5,1.6,6.7,5.3,6.7H386c3.7,0,5-2.4,5-6.7v-26.4
			c0-4.2,1.8-6.1,6.1-6.1h15.7C416.8,359.3,418.6,361.1,418.6,365.4z"/>
		<path fill="#CABC6C" d="M412.5,325.1h-21.1c-3.4,19.8-13.7,24.9-27,24.9h-37c-4.2,0-6.1-1.8-6.1-6.1v-20.4c0-4.2,1.8-6.1,6.1-6.1
			H359c3.1,0,4.9-2.1,4.9-9c0-7.1-1.7-9.2-4.9-9.2h-31.5c-4.2,0-6.1-1.8-6.1-6.1v-20.2c0-4.2,1.8-6.1,6.1-6.1h37
			c13.3,0,23.5,5,27,24.9h21.2c4.2,0,6.1,1.8,6.1,6.1V319C418.6,323.3,416.8,325.1,412.5,325.1z"/>
		<path fill="#CABC6C" d="M418.6,190v32.1c0,23.1-9,33.7-28.2,33.7h-40.9c-19.2,0-28.2-10.5-28.2-33.7V190c0-4.2,1.8-6.1,6.1-6.1
			h15.9c4.2,0,6.1,1.8,6.1,6.1v26.4c0,4.5,1.6,6.7,5.3,6.7H386c3.7,0,5-2.4,5-6.7V190c0-4.2,1.8-6.1,6.1-6.1h15.7
			C416.8,183.9,418.6,185.8,418.6,190z"/>
		<path fill="#CABC6C" d="M412.5,171.7h-85.2c-4.2,0-6.1-1.8-6.1-6.1v-20.4c0-4.2,1.8-6.1,6.1-6.1h63.2v-32.2c0-4.2,1.8-6.1,6.1-6.1
			h15.9c4.2,0,6.1,1.8,6.1,6.1v58.6C418.6,169.8,416.8,171.7,412.5,171.7z"/>
		<path fill="#CABC6C" d="M390.4,93h-40.9c-16.7,0-28.2-7.6-28.2-33.7V25.9c0-4.2,1.8-6.1,6.1-6.1h15.4c4.2,0,6.1,1.8,6.1,6.1v29
			c0,5.5,2.4,6.7,5.3,6.7h2.2V36.4c0-4.2,1.7-6.1,6.1-6.1h14.1c4.2,0,6.1,1.8,6.1,6.1v25.3h3.7c3,0,5-1.3,5-6.7v-29
			c0-4.2,1.8-6.1,6.1-6.1h15.4c4.2,0,6.1,1.8,6.1,6.1v33.4C418.6,85.4,407,93,390.4,93z"/>
	</g>
	<path fill="#25839E" d="M417.4,777.4c0,3.3-1.4,4.7-4.7,4.7h-15.4c-3.3,0-4.7-1.4-4.7-4.7v-35.4c0-2.2-1.7-3.4-3.8-3.4
		c-3,0-4.2,1.2-4.5,3.4l-2.8,19.8c-1.8,12.3-7.1,20.4-21.8,20.4h-13.8c-15,0-23.1-10.2-23.1-27.2v-36.8c0-3.3,1.4-4.7,4.7-4.7h15.7
		c3.3,0,4.7,1.4,4.7,4.7v30.6c0,2.2,1.6,3.5,3.9,3.5c2.3,0,3.9-1.3,4.2-3.5l2.6-19.6c1.8-12.3,7.1-20.5,21.8-20.5h13.8
		c15,0,23.1,10.2,23.1,27.2V777.4L417.4,777.4z"/>
	<path fill="#25839E" d="M417.4,689.7c0,3.3-1.4,4.7-4.7,4.7h-85.2c-3.3,0-4.7-1.4-4.7-4.7v-40.2c0-23.9,10.4-31,25.6-31h16.8
		c15.3,0,25.6,7.1,25.6,31v15.1h21.8c3.3,0,4.7,1.4,4.7,4.7L417.4,689.7L417.4,689.7L417.4,689.7z M367.2,664.8V653
		c0-5.1-3-6.2-6.5-6.2h-7c-3.4,0-6.5,1-6.5,6.2v11.8H367.2z"/>
	<path fill="#25839E" d="M417.4,599.8c0,3.3-1.4,4.7-4.7,4.7h-85.2c-3.3,0-4.7-1.4-4.7-4.7V579c0-3.3,1.4-4.7,4.7-4.7h85.2
		c3.3,0,4.7,1.4,4.7,4.7V599.8z"/>
	<path fill="#25839E" d="M320.8,516c0-32.6,10.8-40.6,26.8-40.6h65c3.3,0,4.7,1.4,4.7,4.7v20.6c0,3.3-1.4,4.7-4.7,4.7h-59.9
		c-3.5,0-6.2,1.6-6.2,10.8c0,9.4,2.6,10.9,6.2,10.9h59.9c3.3,0,4.7,1.3,4.7,4.7v20c0,3.3-1.4,4.7-4.7,4.7h-65
		C331.6,556.6,320.8,548.6,320.8,516z"/>
	<path fill="#25839E" d="M417.4,397.4c0,22.1-8.6,32.3-26.8,32.3h-40.9c-18.4,0-27-10.2-27-32.3v-32.1c0-3.3,1.4-4.7,4.7-4.7h15.9
		c3.3,0,4.7,1.4,4.7,4.7v26.4c0,5.5,2.1,8,6.6,8H386c4.3,0,6.3-2.5,6.3-8v-26.4c0-3.3,1.4-4.7,4.7-4.7h15.7c3.3,0,4.7,1.4,4.7,4.7
		V397.4L417.4,397.4z"/>
	<path fill="#25839E" d="M417.4,319c0,3.3-1.4,4.7-4.7,4.7h-22.3c-3.1,19.6-12.7,24.9-25.8,24.9h-37c-3.3,0-4.7-1.4-4.7-4.7v-20.4
		c0-3.3,1.4-4.7,4.7-4.7h31.5c3.5,0,6.2-1.6,6.2-10.4c0-9-2.6-10.5-6.2-10.5h-31.5c-3.3,0-4.7-1.4-4.7-4.7V273
		c0-3.3,1.4-4.7,4.7-4.7h37c13,0,22.6,5.3,25.8,24.9h22.3c3.3,0,4.7,1.4,4.7,4.7V319z"/>
	<path fill="#25839E" d="M417.4,222.1c0,22.1-8.6,32.3-26.8,32.3h-40.9c-18.4,0-27-10.2-27-32.3V190c0-3.3,1.4-4.7,4.7-4.7h15.9
		c3.3,0,4.7,1.4,4.7,4.7v26.4c0,5.5,2.1,8,6.6,8H386c4.3,0,6.3-2.5,6.3-8V190c0-3.3,1.4-4.7,4.7-4.7h15.7c3.3,0,4.7,1.4,4.7,4.7
		V222.1L417.4,222.1z"/>
	<path fill="#25839E" d="M327.5,140.6H392V107c0-3.3,1.4-4.7,4.7-4.7h15.9c3.3,0,4.7,1.4,4.7,4.7v58.6c0,3.3-1.4,4.7-4.7,4.7h-85.2
		c-3.3,0-4.7-1.4-4.7-4.7v-20.4C322.8,142,324.2,140.6,327.5,140.6z"/>
	<path fill="#25839E" d="M417.4,25.9v33.4c0,24.9-10.9,32.3-26.8,32.3h-40.9c-16,0-27-7.5-27-32.3V25.9c0-3.3,1.4-4.7,4.7-4.7h15.4
		c3.3,0,4.7,1.4,4.7,4.7v29c0,6.8,3.1,8,6.6,8h3.5V36.4c0-3.3,1.3-4.7,4.7-4.7h14.1c3.3,0,4.7,1.4,4.7,4.7V63h5c3.7,0,6.3-1.2,6.3-8
		v-29c0-3.3,1.4-4.7,4.7-4.7h15.4C416,21.2,417.4,22.6,417.4,25.9z"/>
	<path fill="#3AAEC9" d="M336.1,725.3v29.2c0,7.4,4.5,12.1,10.6,12.1h10.8c6.2,0,8-2.6,8.8-6.7l5.7-27.8c1-5.3,3.7-9,12.9-9h7.6
		c7.8,0,13.3,5.7,13.3,14.6v32.7h-1.3v-32.7c0-8.2-5-13.3-12-13.3h-7.6c-8.3,0-10.5,3.1-11.6,8l-5.7,27.8c-1,4.6-2.9,7.8-10.2,7.8
		h-10.8c-7,0-12-5.3-12-13.4v-29.2L336.1,725.3L336.1,725.3L336.1,725.3z"/>
	<path fill="#3AAEC9" d="M379.9,678.3h25.9v1.3h-71v-28.4c0-16.6,7.6-19.8,17.8-19.8h9.8c10.2,0,17.5,3.1,17.5,19.8L379.9,678.3
		L379.9,678.3z M378.5,651.3c0-15.5-6.7-18.4-16.2-18.4h-9.8c-9.4,0-16.6,2.9-16.6,18.4v27.1h42.5V651.3L378.5,651.3z"/>
	<path fill="#3AAEC9" d="M334.8,588.7h71v1.3h-71V588.7z"/>
	<path fill="#3AAEC9" d="M405.8,491.1H351c-9.8,0-16.4,5.4-16.4,25c0,19.6,6.6,25.1,16.4,25.1h54.8v1.3H351
		c-10.6,0-17.8-5.8-17.8-26.4c0-20.6,7.1-26.3,17.8-26.3h54.8V491.1z"/>
	<path fill="#3AAEC9" d="M405.8,372.6v21.9c0,17.1-4.7,21-17,21H352c-12.5,0-17.2-4.2-17.2-21v-21.9h1.3v21.9
		c0,15.5,4.2,19.8,15.9,19.8h36.8c11.4,0,15.7-3.9,15.7-19.8v-21.9H405.8L405.8,372.6z"/>
	<path fill="#3AAEC9" d="M405.8,309h-26.6c-0.2,20.1-7.2,25.6-17.8,25.6h-26.7v-1.3h26.7c9.8,0,16.4-5.4,16.4-25
		c0-19.6-6.6-25.1-16.4-25.1h-26.7V282h26.7c10.6,0,17.8,5.8,17.8,25.8h26.6V309z"/>
	<path fill="#3AAEC9" d="M405.8,197.2v21.9c0,17.1-4.7,21-17,21H352c-12.5,0-17.2-4.2-17.2-21v-21.9h1.3v21.9
		c0,15.5,4.2,19.8,15.9,19.8h36.8c11.4,0,15.7-3.9,15.7-19.8v-21.9H405.8L405.8,197.2z"/>
	<path fill="#3AAEC9" d="M334.8,154.7h69.7v-40.6h1.3V156h-71V154.7z"/>
	<path fill="#3AAEC9" d="M405.8,33v23.9c0,17.1-4.7,21-17,21H352c-12.5,0-17.2-4.2-17.2-21V33h1.3v23.9c0,15.5,4.2,19.8,15.9,19.8
		h17.1V42.2h1.3v34.5h18.4c11.4,0,15.7-3.9,15.7-19.8V33C404.5,33,405.8,33,405.8,33z"/>
</g>
<path fill="#3D3D3D" stroke="#DC4227" stroke-width="4" d="M298,65.4h-3.8c0-12.4-10.2-22.6-22.6-22.6
	c-3.2-18.4-21.1-30.6-69.4-30.6s-66.1,12.2-69.4,30.6c-12.4,0-22.6,10.2-22.6,22.6h-3.8c-4,0-5.8,1.8-5.8,5.8v12.6
	c0,4,1.8,5.8,5.8,5.8h8.7v159.6v12.9v148.3v12.9v148.3v12.9v148.3v12.9v0.6c0,4,1.8,5.8,5.8,5.8h3.8c0,12.4,10.2,22.6,22.6,22.6v3.8
	c0,4,1.8,5.8,5.8,5.8h98c4,0,5.8-1.8,5.8-5.8v-3.8c12.4,0,22.6-10.2,22.6-22.6h3.8c4,0,5.8-1.8,5.8-5.8v-0.6v-12.9V584.5v-12.9
	V423.3v-12.9V262.1v-12.9V89.6h8.7c4,0,5.8-1.8,5.8-5.8V71.2C303.9,67.1,302.1,65.4,298,65.4z"/>
<path fill="#EEE254" d="M251.3,785.2h-98.1c-4.5,0-6.6-2.2-6.6-6.6v-3.1c-12.2-0.4-22.2-10.3-22.6-22.6h-3c-4.5,0-6.6-2.2-6.6-6.6
	v-656h-7.9c-4.5,0-6.6-2.2-6.6-6.6V71.2c0-4.5,2.2-6.6,6.6-6.6h3.1C110,52.2,120,42.3,132.3,42c4.1-20.9,26.3-30.6,70-30.6
	c43.6,0,65.9,9.8,70,30.6c12.3,0.3,22.2,10.2,22.7,22.6h3.1c4.5,0,6.6,2.2,6.6,6.6v12.6c0,4.5-2.2,6.6-6.6,6.6h-7.9v656
	c0,4.5-2.2,6.6-6.6,6.6h-3.1c-0.4,12.2-10.3,22.2-22.6,22.6v3.1C257.9,783,255.7,785.2,251.3,785.2z M106.5,66.2c-3.6,0-5,1.4-5,5
	v12.6c0,3.6,1.4,5,5,5h9.5v657.6c0,3.6,1.4,5,5,5h4.6v0.8c0,12,9.8,21.8,21.8,21.8h0.8v4.6c0,3.6,1.4,5,5,5h98c3.6,0,5-1.4,5-5V774
	h0.8c12,0,21.8-9.8,21.8-21.8v-0.8h4.6c3.6,0,5-1.4,5-5V88.8h9.5c3.6,0,5-1.4,5-5V71.2c0-3.6-1.4-5-5-5h-4.6v-0.8
	c0-12-9.8-21.8-21.8-21.8h-0.6L271,43c-3.6-20.5-25.4-30-68.6-30s-65.1,9.5-68.7,30l-0.1,0.6H133c-12,0-21.8,9.8-21.8,21.8v0.8
	H106.5z"/>
<g opacity="0.25">
	<path d="M137,192.8v-18.6c0-2.9,0.8-4.6,2.2-5.8l15.8-13.4c-11.3-3.5-18.1-10.8-18.1-26.2v-16.6c0-9.5,3.2-17,9.2-22.1l20.6-17.3
		c5.7-4.7,14.2-7.4,25-7.4h52.7c5,0,7.3,2.2,7.3,7.3v18.9c0,2.9-0.8,4.6-2.2,5.8l-14.7,12.2c13,3,21.1,10.3,21.1,27v16.6
		c0,9.5-3.2,17-9.4,22.1l-20.5,17.1c-5.8,4.9-14.4,7.6-25,7.6h-56.8C139.2,200.1,137,197.8,137,192.8z"/>
	<path d="M186.2,339.5c-40.8,0-49.8-18.7-49.8-38.7v-49.4c0-10,2.4-18.4,9.5-24.4l20.6-17.1c7.3-6.2,19.5-9.8,40.2-9.8
		c40.8,0,49.8,14.1,49.8,34.1v54.1c0,9.8-2.4,18.2-9.5,24.2l-20.6,17.1C219,335.8,206.8,339.5,186.2,339.5z M199,287.3v-30.2
		c0-2.1-0.6-3.7-3-4.6v30C196,284.6,196.7,286.2,199,287.3z"/>
	<path d="M172.4,471c-1,1-2.7,1.6-4.9,1.6h-23.3c-5.2,0-7.3-2.2-7.3-7.3v-41.8c0-11.3,1.6-13.7,6.3-25.8l12.1-36
		c0.6-1.9,1.6-3.5,2.9-4.5l20.6-17.3c1.6-1.3,3.8-1.9,6.6-1.9h41.1c4.9,0,7.8,1.6,9.4,6.2l13.8,36c4.7,12.4,6.3,14.7,6.3,26V448
		c0,2.9-0.8,4.6-2.2,5.8L233.2,471c-1,1-2.7,1.6-4.9,1.6h-23.9c-5,0-7.8-2.4-7.8-7.3v-20.6h-1.3v3.4c0,2.9-0.8,4.6-2.2,5.8
		L172.4,471z"/>
	<path d="M144.3,608.9c-5,0-7.3-2.2-7.3-7.3V498.8c0-2.9,0.8-4.6,2.2-5.8l20.5-17.3c1.1-1,2.9-1.4,5-1.4h52.6
		c30.3,0,39,13.4,39,32.5V527c0,10.2-2.6,18.7-9.5,24.6l-20.5,17.1c-6,5-15.5,8.1-29.5,8.1h-0.3v7.4c0,2.9-0.8,4.6-2.2,5.8
		l-20.6,17.1c-1,1-2.7,1.6-4.9,1.6L144.3,608.9C144.3,608.8,144.3,608.9,144.3,608.9z"/>
	<path d="M137,734.3v-18.6c0-2.9,0.8-4.6,2.2-5.8l15.8-13.4c-11.3-3.5-18.1-10.8-18.1-26.2v-16.6c0-9.5,3.2-17,9.2-22.1l20.6-17.3
		c5.7-4.7,14.2-7.4,25-7.4h52.7c5,0,7.3,2.2,7.3,7.3v18.9c0,2.9-0.8,4.6-2.2,5.8l-14.7,12.2c13,3,21.1,10.3,21.1,27v16.6
		c0,9.5-3.2,17-9.4,22.1L226.2,734c-5.8,4.9-14.4,7.6-25,7.6h-56.8C139.2,741.6,137,739.4,137,734.3z"/>
</g>
<g>
	<path fill="#DC4227" d="M164.7,181.2c-4,0-5.7-1.8-5.7-5.7V157c0-4,1.8-5.7,5.7-5.7H214c2.7,0,4.2-2.1,4.2-4.6c0-3.7-1.4-5-4.2-5.4
		l-30.5-3.4c-14.9-2.2-24.6-8.6-24.6-26.3V95c0-18.1,12.2-27.9,32.8-27.9h52.6c4,0,5.7,1.8,5.7,5.7v18.9c0,4-1.8,5.7-5.7,5.7h-45.2
		c-2.7,0-4.3,1.9-4.3,4.7c0,2.9,1.6,4.7,4.3,5l30.3,3.2c14.9,2.2,24.7,8.6,24.7,26.3v16.6c0,18.1-12.4,27.9-32.8,27.9L164.7,181.2
		C164.7,181.1,164.7,181.2,164.7,181.2z"/>
	<path fill="#DC4227" d="M206.6,320.6c-38.9,0-48.2-13-48.2-32.4v-54.1c0-19.4,9.4-32.5,48.2-32.5s48.2,13.2,48.2,32.5v54.1
		C254.8,307.6,245.4,320.6,206.6,320.6z M206.6,290c10.6,0,12.4-3.2,12.4-7.4v-42.6c0-4.2-1.8-7.3-12.4-7.3
		c-10.5,0-12.2,3.2-12.2,7.3v42.6C194.4,286.8,196.1,290,206.6,290z"/>
	<path fill="#DC4227" d="M187.9,453.7h-23.3c-4.2,0-5.7-1.8-5.7-5.7v-41.8c0-11,1.6-13.4,6.2-25.4l12.2-36c1.4-4,4-5.2,8.1-5.2h41.1
		c4.2,0,6.5,1.3,7.9,5.2l13.8,36c4.6,12.1,6.2,14.4,6.2,25.4V448c0,4-1.8,5.7-5.7,5.7h-23.9c-4,0-6.2-1.8-6.2-5.7v-22.2h-24.9V448
		C193.6,452,191.8,453.7,187.9,453.7z M195.2,397h21.8l-7.4-24.1c-1-2.1-1.3-2.7-3-2.7h-0.8c-1.8,0-2.1,0.6-3,2.7L195.2,397z"/>
	<path fill="#DC4227" d="M164.7,590c-4,0-5.7-1.8-5.7-5.7V481.4c0-4,1.8-5.7,5.7-5.7h52.6c28.9,0,37.4,12.6,37.4,31V527
		c0,18.4-8.6,31-37.4,31h-22.4v26.3c0,4-1.8,5.7-5.7,5.7L164.7,590L164.7,590z M194.7,529.4h18.4c6.2,0,7.4-3.7,7.4-7.8v-8.4
		c0-4.2-1.3-7.8-7.4-7.8h-18.4V529.4z"/>
	<path fill="#DC4227" d="M164.7,722.7c-4,0-5.7-1.8-5.7-5.7v-18.6c0-4,1.8-5.7,5.7-5.7H214c2.7,0,4.2-2.1,4.2-4.6
		c0-3.7-1.4-5-4.2-5.4l-30.5-3.4c-14.9-2.2-24.6-8.6-24.6-26.3v-16.6c0-18.1,12.2-27.9,32.8-27.9h52.6c4,0,5.7,1.8,5.7,5.7v18.9
		c0,4-1.8,5.7-5.7,5.7h-45.2c-2.7,0-4.3,1.9-4.3,4.7c0,2.9,1.6,4.7,4.3,5l30.3,3.2c14.9,2.2,24.7,8.6,24.7,26.3v16.6
		c0,18.1-12.4,27.9-32.8,27.9L164.7,722.7C164.7,722.6,164.7,722.7,164.7,722.7z"/>
</g>
<g>
	<path fill="#F4655B" d="M235.8,82.8h-43.4c-9,0-14.6,4.9-14.6,12.9v14.6c0,6.3,4.3,10.6,11.3,11.3l33.8,3.4
		c9.5,1,14.1,5.8,14.1,14.4v13.2c0,8.9-6.8,14.4-17.6,14.4h-46.2v-1.6h46.2c9.8,0,16-4.9,16-12.9v-13.2c0-7.6-4.2-12.1-12.9-12.9
		l-33.8-3.4c-7.8-0.8-12.6-5.7-12.6-12.9V95.5c0-8.9,6.2-14.4,16.2-14.4h43.5V82.8z"/>
	<path fill="#F4655B" d="M206.4,306c-24.1,0-30.8-8.6-30.8-21.4v-46.8c0-12.9,6.6-21.4,30.8-21.4c24.1,0,31.3,8.6,31.3,21.4v46.8
		C237.6,297.4,230.4,306,206.4,306z M206.4,304.5c22.9,0,29.7-7.9,29.7-19.8v-46.8c0-11.9-6.8-19.8-29.7-19.8s-29.2,7.9-29.2,19.8
		v46.8C177.2,296.5,183.5,304.5,206.4,304.5z"/>
	<path fill="#F4655B" d="M235.5,412.2h-58.6v27.3h-1.6v-33.8c0-5.8,1-10.8,2.7-15.4l10.2-26c2.4-5.8,4.3-10.5,11.6-10.5H212
		c7,0,8.9,4.5,11.4,10.6l11,25.8c1.8,4.6,2.7,9.5,2.7,15.4v33.8h-1.6L235.5,412.2L235.5,412.2L235.5,412.2z M177,410.6h58.6v-4.9
		c0-5.7-1-10.5-2.6-14.7l-11-25.8c-2.4-5.5-4.2-9.7-10-9.7h-12.2c-6.3,0-8.1,4.2-10.2,9.5l-10.2,26c-1.6,4.3-2.6,9-2.6,14.7
		L177,410.6L177,410.6z"/>
	<path fill="#F4655B" d="M177.8,544.5v31.3h-1.6v-85.7h38.4c20,0,23.8,9.2,23.8,21.6v11.8c0,12.4-3.8,21.1-23.8,21.1L177.8,544.5
		L177.8,544.5z M214.6,542.9c18.7,0,22.2-8.1,22.2-19.5v-11.8c0-11.4-3.5-20-22.2-20h-36.8v51.2L214.6,542.9L214.6,542.9z"/>
	<path fill="#F4655B" d="M235.8,624.4h-43.4c-9,0-14.6,4.9-14.6,12.9v14.6c0,6.3,4.3,10.6,11.3,11.3l33.8,3.4
		c9.5,1,14.1,5.8,14.1,14.4v13.2c0,8.9-6.8,14.4-17.6,14.4h-46.2v-1.6h46.2c9.8,0,16-4.9,16-12.9v-13.2c0-7.6-4.2-12.1-12.9-12.9
		l-33.8-3.4c-7.8-0.8-12.6-5.7-12.6-12.9v-14.6c0-8.9,6.2-14.4,16.2-14.4h43.5V624.4z"/>
</g>
<g>
	<g>
		<g>
			<path fill="#DC4227" stroke="#706B5E" d="M500.2,14.4c27.5,0,46.9,19.4,46.9,46.9s-19.4,46.9-46.9,46.9
				c-27.5,0-46.9-19.4-46.9-46.9S472.7,14.4,500.2,14.4z"/>
			<path fill="#762117" stroke="#706B5E" d="M500.2,111.6c27.5,0,46.9,19.4,46.9,46.9s-19.4,46.9-46.9,46.9
				c-27.5,0-46.9-19.4-46.9-46.9S472.7,111.6,500.2,111.6z"/>
			<path fill="#DC4227" stroke="#706B5E" d="M500.2,208.8c27.5,0,46.9,19.4,46.9,46.9s-19.4,46.9-46.9,46.9
				c-27.5,0-46.9-19.4-46.9-46.9S472.7,208.8,500.2,208.8z"/>
			<path fill="#762117" stroke="#706B5E" d="M500.2,306c27.5,0,46.9,19.4,46.9,46.9s-19.4,46.9-46.9,46.9
				c-27.5,0-46.9-19.4-46.9-46.9S472.7,306,500.2,306z"/>
			<path fill="#DC4227" stroke="#706B5E" d="M500.2,403.2c27.5,0,46.9,19.4,46.9,46.9S527.7,497,500.2,497
				c-27.5,0-46.9-19.4-46.9-46.9S472.7,403.2,500.2,403.2z"/>
			<path fill="#762117" stroke="#706B5E" d="M500.2,500.4c27.5,0,46.9,19.4,46.9,46.9c0,27.5-19.4,46.9-46.9,46.9
				c-27.5,0-46.9-19.4-46.9-46.9C453.3,519.8,472.7,500.4,500.2,500.4z"/>
			<path fill="#DC4227" stroke="#706B5E" d="M500.2,597.6c27.5,0,46.9,19.4,46.9,46.9s-19.4,46.9-46.9,46.9
				c-27.5,0-46.9-19.4-46.9-46.9S472.7,597.6,500.2,597.6z"/>
			<path fill="#762117" stroke="#706B5E" d="M500.2,694.8c27.5,0,46.9,19.4,46.9,46.9s-19.4,46.9-46.9,46.9
				c-27.5,0-46.9-19.4-46.9-46.9S472.7,694.8,500.2,694.8z"/>
		</g>
	</g>
	<g>
		<path fill="#FFFFFF" d="M481.6,86.9c-1.8,0-2.6-0.8-2.6-2.6V38.6c0-1.8,0.8-2.6,2.6-2.6H505c12.9,0,16.6,5.6,16.6,13.8v9
			c0,8.2-3.8,13.8-16.6,13.8h-10v11.8c0,1.8-0.8,2.6-2.6,2.6C492.4,86.9,481.6,86.9,481.6,86.9z M514.4,57.2V52
			c0-5.5-1.7-9.6-10.6-9.6h-17.1v38.2h0.7V66.6h16.4C512.7,66.6,514.4,62.7,514.4,57.2z M487.4,43.1h16.4c8.3,0,9.9,3.8,9.9,8.9v5.2
			c0,5.1-1.5,8.7-9.9,8.7h-16.4V43.1z M494.9,59.9h8.2c2.7,0,3.4-1.6,3.4-3.4v-3.8c0-1.8-0.6-3.4-3.4-3.4h-8.2L494.9,59.9
			L494.9,59.9z"/>
		<path fill="#FFFFFF" d="M500.2,183.4c-17.3,0-21.4-5.8-21.4-14.4v-24.1c0-8.6,4.2-14.5,21.4-14.5c17.3,0,21.4,5.8,21.4,14.5V169
			C521.7,177.5,517.5,183.4,500.2,183.4z M514,146.5c0-5.8-3.2-9.5-13.9-9.5c-10.7,0-13.7,3.8-13.7,9.5v20.9c0,5.8,3,9.5,13.7,9.5
			c10.7,0,13.9-3.8,13.9-9.5V146.5z M487.2,146.5c0-5.3,2.8-8.8,13-8.8s13.2,3.5,13.2,8.8v20.9c0,5.3-3,8.8-13.2,8.8s-13-3.5-13-8.8
			V146.5z M500.2,169.7c4.7,0,5.5-1.4,5.5-3.4v-19c0-1.8-0.8-3.3-5.5-3.3c-4.6,0-5.4,1.4-5.4,3.3v19
			C494.8,168.3,495.6,169.7,500.2,169.7z"/>
		<path fill="#FFFFFF" d="M500.2,280.6c-17.3,0-21.4-5.8-21.4-14.4v-24.1c0-8.6,4.2-14.5,21.4-14.5c17.3,0,21.4,5.8,21.4,14.5v24.1
			C521.7,274.9,517.5,280.6,500.2,280.6z M514,243.8c0-5.8-3.2-9.5-13.9-9.5c-10.7,0-13.7,3.8-13.7,9.5v20.9c0,5.8,3,9.5,13.7,9.5
			c10.7,0,13.9-3.8,13.9-9.5V243.8z M487.2,243.8c0-5.3,2.8-8.8,13-8.8s13.2,3.5,13.2,8.8v20.9c0,5.3-3,8.8-13.2,8.8s-13-3.5-13-8.8
			V243.8z M500.2,267c4.7,0,5.5-1.4,5.5-3.4v-19c0-1.8-0.8-3.3-5.5-3.3c-4.6,0-5.4,1.4-5.4,3.3v19C494.8,265.6,495.6,267,500.2,267z
			"/>
		<path fill="#FFFFFF" d="M481.6,375c-1.8,0-2.6-0.8-2.6-2.6v-45.8c0-1.8,0.8-2.6,2.6-2.6h11c1.8,0,2.6,0.8,2.6,2.6v35h11v-11.4
			c0-1.8,0.8-2.6,2.6-2.6H519c1.8,0,2.6,0.8,2.6,2.6v22.2c0,1.8-0.8,2.6-2.6,2.6H481.6z M514.1,368.6V354h-0.7v13.9h-25.9v-37.4
			h-0.7v38.2L514.1,368.6L514.1,368.6z"/>
		<path fill="#FFFFFF" d="M481.6,472.8c-1.8,0-2.6-0.8-2.6-2.6V462c0-1.8,0.8-2.6,2.6-2.6h22c1.2,0,1.8-0.9,1.8-2.1
			c0-1.6-0.6-2.2-1.8-2.4l-13.6-1.5c-6.6-1-11-3.8-11-11.8v-7.4c0-8.1,5.4-12.4,14.6-12.4h23.4c1.8,0,2.6,0.8,2.6,2.6v8.4
			c0,1.8-0.8,2.6-2.6,2.6h-20.2c-1.2,0-1.9,0.9-1.9,2.1c0,1.3,0.7,2.1,1.9,2.2l13.5,1.4c6.6,1,11,3.8,11,11.8v7.4
			c0,8.1-5.5,12.4-14.6,12.4L481.6,472.8L481.6,472.8L481.6,472.8z M493.9,428.3c-4.5,0-7.2,2.5-7.2,6.4v6.5c0,3.2,2.1,5.4,5.6,5.8
			l15,1.5c3.9,0.3,5.8,2.3,5.8,5.8v5.8c0,3.5-2.7,5.8-7.1,5.8h-20.6v0.7H506c4.8,0,7.8-2.5,7.8-6.4v-6c0-3.8-2.1-6-6.3-6.4l-15-1.5
			c-3.1-0.3-5-2.2-5-5v-6.5c0-3.5,2.5-5.8,6.5-5.8h19.4v-0.7L493.9,428.3L493.9,428.3L493.9,428.3z"/>
		<path fill="#FFFFFF" d="M479.6,568.2v-8.4c0-1.8,0.8-2.6,2.6-2.6h9.4v-23.8h-9.4c-1.8,0-2.6-0.8-2.6-2.6v-8.6
			c0-1.8,0.8-2.6,2.6-2.6h36c1.8,0,2.6,0.8,2.6,2.6v8.6c0,1.8-0.8,2.6-2.6,2.6h-9.4v23.8h9.4c1.8,0,2.6,0.8,2.6,2.6v8.4
			c0,1.8-0.8,2.6-2.6,2.6h-36C480.4,570.7,479.6,569.9,479.6,568.2z M514.4,563.6h-13.8v-36.7h13.8v-0.7H486v0.7h13.8v36.7H486v0.7
			h28.4V563.6z"/>
		<path fill="#FFFFFF" d="M481.6,668.6c-1.8,0-2.6-0.8-2.6-2.6v-45.8c0-1.8,0.8-2.6,2.6-2.6h22.8c13.4,0,17.4,5.8,17.4,14.4v22.1
			c0,8.6-4,14.4-17.4,14.4H481.6L481.6,668.6z M502.8,662.2c9.8,0,11.3-4.2,11.3-9.6v-18.7c0-5.4-1.7-9.8-11.3-9.8h-16.1v38.2H502.8
			z M513.4,633.8v18.7c0,5.1-1.5,8.9-10.6,8.9h-15.4v-36.7h15.4C511.7,624.7,513.4,628.7,513.4,633.8z M495.1,655.2h7.4
			c2.8,0,3.4-1.5,3.4-3.4v-17.2c0-1.8-0.5-3.4-3.4-3.4h-7.4L495.1,655.2L495.1,655.2z"/>
		<path fill="#FFFFFF" d="M481.6,766.4c-1.8,0-2.6-0.8-2.6-2.6v-45.8c0-1.8,0.8-2.6,2.6-2.6h36.6c1.8,0,2.6,0.8,2.6,2.6v8.2
			c0,1.8-0.8,2.6-2.6,2.6h-23.3v5.4h17.6c1.8,0,2.6,0.7,2.6,2.6v7.6c0,1.8-0.8,2.6-2.6,2.6h-17.6v6.1h23.3c1.8,0,2.6,0.8,2.6,2.6
			v8.2c0,1.8-0.8,2.6-2.6,2.6L481.6,766.4L481.6,766.4z M487.3,759.4V741h21.4v-0.7h-21.4v-17.8h27v-0.7h-27.8V760h27.8v-0.7
			L487.3,759.4L487.3,759.4L487.3,759.4z"/>
	</g>
</g>
<g>
	<path fill="#432D2C" stroke="#ECDFC1" stroke-width="1.42" d="M693.8,35.3c-0.7-15.3-12.7-25.4-57-25.4c-44.4,0-56.3,10.1-57,25.4
		l0,0v1.6v6.9V141v8.5v97.3v8.5v97.6v8.1v88.2v7.7v88.1v8.1v97.6v8.4v97.3v6.9v1.6l0,0c0.7,15.3,12.7,25.4,57,25.4
		c44.4,0,56.3-10.1,57-25.4l0,0v-1.6v-6.9V659v-8.5v-97.6v-8.1v-88.1V449v-88.2v-8.1v-97.6v-8.5v-97.3V141V43.8v-6.9V35.3
		L693.8,35.3z"/>
	<g>
		<path fill="#ECDFC1" d="M665.5,123.4h-35.6c-22.5,0-29.1-10-29.1-24.3V63.8c0-14.4,6.6-24.4,29.1-24.4h35.6c3.6,0,5.2,1.6,5.2,5.2
			v13.8c0,3.6-1.6,5.2-5.2,5.2h-30.7c-4.8,0-5.8,2.1-5.8,4.6v27c0,2.6,1.1,4.3,5.8,4.3h30.7c3.6,0,5.2,1.6,5.2,5.2v13.5
			C670.7,121.8,669.2,123.4,665.5,123.4z"/>
		<path fill="#ECDFC1" d="M672.2,199c0,14.3-6.5,24.3-35.7,24.3s-35.7-10-35.7-24.3v-38.7c0-14.3,6.5-24.4,35.7-24.4
			s35.7,10.1,35.7,24.4V199z M628.9,195c0,2.6,1.7,4.2,7.6,4.2c6,0,7.8-1.4,7.8-4.2v-30.6c0-2.6-1.8-4.1-7.8-4.1
			c-5.9,0-7.6,1.4-7.6,4.1V195z"/>
		<path fill="#ECDFC1" d="M602.3,315.5V302c0-3.6,1.6-5.2,5.2-5.2h14.1v-35.9h-14.1c-3.6,0-5.2-1.6-5.2-5.2v-13.8
			c0-3.6,1.6-5.2,5.2-5.2h58c3.6,0,5.2,1.6,5.2,5.2v13.8c0,3.6-1.6,5.2-5.2,5.2h-14.1v35.9h14.1c3.6,0,5.2,1.6,5.2,5.2v13.5
			c0,3.6-1.6,5.2-5.2,5.2h-58C603.9,320.7,602.3,319.1,602.3,315.5z"/>
		<path fill="#ECDFC1" d="M606.5,419.3c-3.6,0-5.2-1.6-5.2-5.2v-73.7c0-3.6,1.6-5.2,5.2-5.2h11.8c3.3,0,5.4,0.9,7.6,3.5l18.4,22.7
			v-21c0-3.6,1.6-5.2,5.2-5.2h17c3.6,0,5.2,1.6,5.2,5.2v73.7c0,3.6-1.6,5.2-5.2,5.2h-17c-3.6,0-5.2-1.6-5.2-5.2v-13.6L628.8,380
			v34.1c0,3.6-1.6,5.2-5.2,5.2H606.5z"/>
		<path fill="#ECDFC1" d="M623.8,434.4c0-3.6,1.4-5.2,5.2-5.2h15.2c3.6,0,5.2,1.6,5.2,5.2v30.5c0,3.6-1.4,5.2-5.2,5.2H629
			c-3.8,0-5.2-1.6-5.2-5.2V434.4z"/>
		<path fill="#ECDFC1" d="M672.2,542c0,14.3-6.5,24.3-35.7,24.3s-35.7-10-35.7-24.3v-38.7c0-14.3,6.5-24.4,35.7-24.4
			s35.7,10.1,35.7,24.4V542z M628.9,537.9c0,2.6,1.7,4.2,7.6,4.2c6,0,7.8-1.4,7.8-4.2v-30.6c0-2.6-1.8-4.1-7.8-4.1
			c-5.9,0-7.6,1.4-7.6,4.1V537.9z"/>
		<path fill="#ECDFC1" d="M601.2,657.6v-73.7c0-3.6,1.6-5.2,5.2-5.2h37.8c21.7,0,27.9,9.5,27.9,23.3v14.6c0,13.8-6.2,23.3-27.9,23.3
			h-14.9v17.8c0,3.6-1.6,5.2-5.2,5.2h-17.6C602.8,662.8,601.2,661.2,601.2,657.6z M629.1,602.2v14.9h12.1c3.5,0,4.2-2.2,4.2-4.4v-6
			c0-2.2-0.7-4.4-4.2-4.4L629.1,602.2L629.1,602.2z"/>
		<path fill="#ECDFC1" d="M647.2,757.9h-40.7c-3.6,0-5.2-1.6-5.2-5.2v-13.3c0-3.6,1.6-5.2,5.2-5.2h35.4c1.3,0,1.8-1,1.8-2.2
			c0-1.7-0.6-2.6-1.9-2.7l-21.8-2.4c-11.4-1.7-18.6-6.6-18.6-20v-12c0-13.6,9.1-21.1,24.6-21.1h37.8c3.6,0,5.2,1.6,5.2,5.2v13.5
			c0,3.6-1.6,5.2-5.2,5.2h-32.4c-1.3,0-1.9,1-1.9,2.2c0,1.4,0.7,2.4,2.1,2.5l21.7,2.2c11.4,1.7,18.7,6.6,18.7,20v11.9
			C671.9,750.5,662.7,757.9,647.2,757.9z"/>
		<path fill="#FFFFFF" d="M629.8,122.3c-21.4,0-27.9-9.4-27.9-23.2V63.8c0-13.8,6.5-23.3,27.9-23.3h35.6c2.9,0,4.1,1.3,4.1,4.1v13.8
			c0,2.9-1.3,4.1-4.1,4.1h-30.7c-5.9,0-7,2.7-7,5.7v27c0,3.2,1,5.4,7,5.4h30.7c2.9,0,4.1,1.3,4.1,4.1v13.5c0,2.9-1.3,4.1-4.1,4.1
			L629.8,122.3L629.8,122.3z"/>
		<path fill="#FFFFFF" d="M636.4,222.2c-27.8,0-34.6-9.3-34.6-23.2v-38.7c0-13.8,6.7-23.3,34.6-23.3s34.6,9.4,34.6,23.3V199
			C671,212.9,664.3,222.2,636.4,222.2z M636.4,200.2c7.6,0,8.9-2.2,8.9-5.4v-30.6c0-3-1.3-5.2-8.9-5.2c-7.5,0-8.7,2.2-8.7,5.2V195
			C627.6,198,628.9,200.2,636.4,200.2z"/>
		<path fill="#FFFFFF" d="M603.3,315.5V302c0-2.9,1.3-4.1,4.1-4.1h15.2v-38.2h-15.2c-2.9,0-4.1-1.3-4.1-4.1v-13.8
			c0-2.9,1.3-4.1,4.1-4.1h58c2.9,0,4.1,1.3,4.1,4.1v13.8c0,2.9-1.3,4.1-4.1,4.1h-15.2v38.2h15.2c2.9,0,4.1,1.3,4.1,4.1v13.5
			c0,2.9-1.3,4.1-4.1,4.1h-58C604.6,319.6,603.3,318.3,603.3,315.5z"/>
		<path fill="#FFFFFF" d="M606.4,418.2c-2.9,0-4.1-1.3-4.1-4.1v-73.7c0-2.9,1.3-4.1,4.1-4.1h11.8c3,0,4.8,0.8,6.7,3l20.5,25.2v-24.2
			c0-2.9,1.3-4.1,4.1-4.1h17c2.9,0,4.1,1.3,4.1,4.1V414c0,2.9-1.3,4.1-4.1,4.1h-17c-2.9,0-4.1-1.3-4.1-4.1v-14l-17.8-23.5V414
			c0,2.9-1.3,4.1-4.1,4.1L606.4,418.2L606.4,418.2z"/>
		<path fill="#FFFFFF" d="M628.9,430.3h15.2c2.9,0,4.1,1.3,4.1,4.1v30.5c0,2.9-1.1,4.1-4.1,4.1h-15.2c-3,0-4.1-1.3-4.1-4.1v-30.5
			C624.8,431.5,626,430.3,628.9,430.3z"/>
		<path fill="#FFFFFF" d="M636.4,565.2c-27.8,0-34.6-9.3-34.6-23.2v-38.7c0-13.8,6.7-23.3,34.6-23.3s34.6,9.4,34.6,23.3V542
			C671,555.9,664.3,565.2,636.4,565.2z M636.4,543.3c7.6,0,8.9-2.2,8.9-5.4v-30.6c0-3-1.3-5.2-8.9-5.2c-7.5,0-8.7,2.2-8.7,5.2v30.6
			C627.6,541,628.9,543.3,636.4,543.3z"/>
		<path fill="#FFFFFF" d="M606.4,661.7c-2.9,0-4.1-1.3-4.1-4.1v-73.7c0-2.9,1.3-4.1,4.1-4.1h37.8c20.7,0,26.8,9,26.8,22.2v14.6
			c0,13.2-6.2,22.2-26.8,22.2h-16v18.9c0,2.9-1.3,4.1-4.1,4.1H606.4L606.4,661.7z M627.9,618.2h13.2c4.4,0,5.4-2.6,5.4-5.6v-6
			c0-3-0.9-5.6-5.4-5.6h-13.2V618.2z"/>
		<path fill="#FFFFFF" d="M606.4,756.8c-2.9,0-4.1-1.3-4.1-4.1v-13.3c0-2.9,1.3-4.1,4.1-4.1h35.4c1.9,0,3-1.4,3-3.3
			c0-2.6-1-3.6-3-3.8l-21.8-2.4c-10.7-1.6-17.6-6.2-17.6-18.9v-12c0-13,8.7-20,23.5-20h37.8c2.9,0,4.1,1.3,4.1,4.1v13.5
			c0,2.9-1.3,4.1-4.1,4.1h-32.4c-1.9,0-3,1.4-3,3.4c0,2.1,1.1,3.4,3,3.6l21.7,2.2c10.7,1.6,17.8,6.2,17.8,18.9v11.9
			c0,13-8.9,20-23.5,20L606.4,756.8L606.4,756.8z"/>
		<path fill="#ECDFC1" d="M659.2,112.1h-26.8c-14.8,0-18.2-4.1-18.2-14.6V65.6c0-10.8,3.6-14.9,18.2-14.9h26.8v1.1h-26.8
			c-13.4,0-17,3.6-17,13.8v31.8c0,9.9,3.4,13.5,17,13.5h26.8V112.1z"/>
		<path fill="#ECDFC1" d="M636.3,211.8c-17.3,0-22.1-6.2-22.1-15.4v-33.5c0-9.2,4.8-15.4,22.1-15.4c17.3,0,22.4,6.2,22.4,15.4v33.5
			C658.6,205.6,653.5,211.8,636.3,211.8z M636.3,210.6c16.4,0,21.3-5.7,21.3-14.2v-33.5c0-8.6-4.9-14.2-21.3-14.2
			c-16.4,0-20.9,5.7-20.9,14.2v33.5C615.3,205,619.9,210.6,636.3,210.6z"/>
		<path fill="#ECDFC1" d="M613.5,309.4v-1.1h22.2v-59.1h-22.2V248h45.7v1.1h-22.2v59.1h22.2v1.1L613.5,309.4L613.5,309.4z"/>
		<path fill="#ECDFC1" d="M617.4,347.4l40,47v-47.9h1.1v61.4h-1.1v-11.7l-41.1-48.2c-0.2-0.2-0.3-0.3-0.6-0.3s-0.2,0.2-0.2,0.3V408
			h-1.1v-60.2c0-0.9,0.7-1.4,1.4-1.4C616.4,346.4,616.6,346.6,617.4,347.4z"/>
		<path fill="#ECDFC1" d="M635.9,458.7v-18.2h1.1v18.2H635.9z"/>
		<path fill="#ECDFC1" d="M636.3,554.7c-17.3,0-22.1-6.2-22.1-15.4v-33.5c0-9.2,4.8-15.4,22.1-15.4c17.3,0,22.4,6.2,22.4,15.4v33.5
			C658.6,548.6,653.5,554.7,636.3,554.7z M636.3,553.6c16.4,0,21.3-5.7,21.3-14.2v-33.5c0-8.6-4.9-14.2-21.3-14.2
			c-16.4,0-20.9,5.7-20.9,14.2v33.5C615.3,547.9,619.9,553.6,636.3,553.6z"/>
		<path fill="#ECDFC1" d="M615.8,629v22.4h-1.1v-61.4h27.5c14.3,0,17,6.6,17,15.4v8.4c0,8.9-2.7,15.1-17,15.1H615.8z M642.1,627.9
			c13.4,0,15.9-5.8,15.9-14v-8.4c0-8.2-2.5-14.3-15.9-14.3h-26.4v36.7H642.1z"/>
		<path fill="#ECDFC1" d="M657.4,686.3h-31.1c-6.5,0-10.5,3.5-10.5,9.2V706c0,4.6,3,7.6,8.1,8.1l24.2,2.4
			c6.8,0.7,10.1,4.2,10.1,10.3v9.4c0,6.4-4.9,10.3-12.6,10.3h-33v-1.1h33c7,0,11.4-3.5,11.4-9.2v-9.4c0-5.4-3-8.6-9.2-9.2l-24.2-2.4
			c-5.6-0.6-9-4.1-9-9.2v-10.5c0-6.4,4.4-10.3,11.6-10.3h31.1L657.4,686.3L657.4,686.3z"/>
	</g>
</g>
</svg>
