<?xml version="1.0" encoding="utf-8"?>
<!-- Generator: Adobe Illustrator 17.1.0, SVG Export Plug-In . SVG Version: 6.00 Build 0)  -->
<!DOCTYPE svg PUBLIC "-//W3C//DTD SVG 1.1//EN" "http://www.w3.org/Graphics/SVG/1.1/DTD/svg11.dtd">
<svg version="1.1" id="Layer_1" xmlns="http://www.w3.org/2000/svg" xmlns:xlink="http://www.w3.org/1999/xlink" x="0px" y="0px"
	 width="620px" height="800px" viewBox="90 0 620 800" enable-background="new 90 0 620 800" xml:space="preserve">
<g>
	<path fill="#144A56" stroke="#144A56" stroke-width="4.5" d="M323.2,714.8L262.3,651c-4.7-4.8-9.4-3.5-9.4,1.2v16.2h-5.5
		c-5.4,0-7.2-2.7-7.2-8.7v-7V544.1v-9.4V426.2v-9.4V308.3v-9.4V190.4v-9.4V72.4V67v-4H240c-1.8-35.2-27.5-59.7-63.6-59.7
		S114.7,27.8,112.9,63h-0.1v4v5.4v108.5v9.4v108.5v9.4v108.5v9.4v108.5v9.4v108.5v9.4v25.8c0,52,29.3,86.6,94.3,86.6h45.8v18.1
		c0,4.8,5,5.9,9.4,1.2l60.9-64.7C327.6,724,328.2,720,323.2,714.8z"/>
	<path fill="#FFFFFF" d="M256.5,797.2L256.5,797.2c-2.6,0-4.2-1.9-4.2-4.8V775h-45.2c-61.2,0-95-31-95-87.1V62.4h0.2
		c1-17.2,7.6-32.1,19.1-42.9c11.7-11,27.2-16.8,45-16.8s33.4,5.8,45,16.8c11.5,10.8,18.1,25.7,19.1,42.9h0.2v597.1
		c0,6,1.8,8.2,6.6,8.2h5v-15.6c0-2.9,1.7-4.8,4.2-4.8c2,0,4.2,1.1,6.2,3.2l60.9,63.8c5,5.2,5,9.6,0,15L262.8,794
		C260.8,796.1,258.6,797.2,256.5,797.2z M113.4,63.6v624.2c0,55.4,33.3,86,93.8,86h46.3v18.6c0,2.2,1.2,3.6,3.1,3.6
		c1.7,0,3.6-1,5.4-2.9l60.9-64.7c4.6-5,4.6-8.6,0-13.4L262,651.3c-1.8-1.8-3.7-2.9-5.4-2.9c-1.9,0-3,1.4-3,3.7v16.7h-6.2
		c-5.5,0-7.8-2.7-7.8-9.3v-596h-0.1V63c-0.9-17.2-7.4-31.9-18.8-42.6C209.2,9.6,194,3.9,176.4,3.9s-32.8,5.7-44.2,16.5
		c-11.4,10.7-17.8,25.5-18.7,42.6L113.4,63.6L113.4,63.6L113.4,63.6z"/>
</g>
<g>
	<path fill="#102B33" d="M135.1,145.6c-3.6,0-5.1-1.6-5.1-5.1V67.8c0-2,0.6-3.3,1.6-4.2l14.5-12.2c0.8-0.6,2-1,3.6-1h37.2
		c21.4,0,27.6,9.4,27.6,23v14.3c0,7.2-1.8,13.2-6.7,17.4l-14.5,12.2c-4.2,3.6-11,5.7-20.9,5.7h-0.2v5.3c0,2-0.6,3.3-1.6,4.2
		L156,144.4c-0.6,0.6-1.9,1.1-3.4,1.1L135.1,145.6C135.1,145.5,135.1,145.6,135.1,145.6z"/>
	<path fill="#102B33" d="M155,236.6c-0.6,0.6-1.9,1.1-3.4,1.1H135c-3.7,0-5.1-1.6-5.1-5.1V203c0-8,1.1-9.7,4.5-18.2l8.6-25.4
		c0.5-1.4,1.1-2.5,2-3.1l14.6-12.2c1.1-0.9,2.7-1.4,4.7-1.4h29c3.4,0,5.5,1.1,6.6,4.4l9.8,25.4c3.4,8.7,4.5,10.4,4.5,18.4v29.6
		c0,2-0.6,3.3-1.6,4.2L198,236.7c-0.6,0.6-1.9,1.1-3.4,1.1h-17c-3.6,0-5.5-1.7-5.5-5.1V218h-0.9v2.3c0,2-0.6,3.3-1.6,4.2L155,236.6z
		"/>
	<path fill="#102B33" d="M155.9,333c-0.6,0.6-1.9,1.1-3.4,1.1h-17.4c-3.6,0-5.1-1.6-5.1-5.1v-72.6c0-2,0.6-3.3,1.6-4.2l14.5-12.2
		c0.8-0.6,2-1,3.6-1h36.1c17.8,0,23.2,8.2,23.2,19.8v5.1c0,5.5-1.2,9.7-4.2,12.2l-0.1,0.1c5.9,2,10.6,7.8,10.6,16.7v23.8
		c0,2-0.6,3.3-1.6,4.2L199,332.9c-0.6,0.6-1.9,1.1-3.4,1.1h-16.7c-3.6,0-5.1-1.6-5.1-5.1v-17.1c0-1.4-0.6-2.6-1.6-3.1v8.1
		c0,2-0.6,3.3-1.6,4.2L155.9,333z"/>
	<path fill="#102B33" d="M156.2,428.7c-0.6,0.6-1.9,1.1-3.4,1.1h-17.4c-3.6,0-5.1-1.6-5.1-5.1v-72.6c0-2,0.6-3.3,1.6-4.2l14.4-12.3
		c0.8-0.6,2-1,3.6-1h17.4c3.6,0,5.1,1.6,5.1,5.1v8.1l14-11.9c1.1-0.9,2.6-1.4,4.6-1.4h17.3c3.7,0,5,1.9,3.4,5.3l-10.8,24.6
		c8.1,1.1,13.2,7.2,13.2,16.2v31.6c0,2-0.6,3.3-1.6,4.2l-14.6,12.1c-0.6,0.6-1.9,1.1-3.4,1.1H177c-3.6,0-5.1-1.6-5.1-5.1v-10.2
		c-0.2,0.9-0.6,1.6-1.4,2.2L156.2,428.7z"/>
	<path fill="#102B33" d="M196.8,525.9c-0.6,0.6-1.9,1.1-3.4,1.1h-57.2c-3.6,0-5.1-1.6-5.1-5.1v-13.4c0-2,0.6-3.3,1.6-4.2l14.5-12.2
		c0.6-0.6,1.7-0.9,3-1v-23.2h-14c-3.6,0-5.1-1.6-5.1-5.1v-13.6c0-2,0.6-3.3,1.6-4.2l14.5-12.2c0.8-0.6,2-1,3.6-1h57.2
		c3.6,0,5.1,1.6,5.1,5.1v13.6c0,2-0.6,3.3-1.6,4.2l-14.6,12.2l0.1-0.1c-0.6,0.6-1.7,1.1-3,1.2v23.2h13.9c3.6,0,5.1,1.6,5.1,5.1v13.4
		c0,2-0.6,3.3-1.6,4.2L196.8,525.9z"/>
	<path fill="#102B33" d="M155.4,623.1c-0.6,0.6-1.9,1.1-3.4,1.1h-16.9c-3.6,0-5.1-1.6-5.1-5.1v-72.6c0-2,0.6-3.3,1.6-4.2l14.5-12.2
		c0.8-0.6,2-1,3.6-1h11.7c3.3,0,5.3,0.9,7.5,3.4l6.7,8.4l13-10.9c0.8-0.6,2-1,3.6-1H209c3.6,0,5.1,1.6,5.1,5.1v72.6
		c0,2-0.6,3.3-1.6,4.2L198,623c-0.6,0.6-1.9,1.1-3.4,1.1h-16.8c-3.6,0-5.1-1.6-5.1-5.1v-13.4l-0.9-1.1v2.3c0,2-0.6,3.3-1.6,4.2
		L155.4,623.1z"/>
	<path fill="#102B33" d="M158.2,720c-22.2,0-28.7-13.2-28.7-27.4V661c0-7.5,1.8-13.9,7-18.2l14.5-12.1c4.5-3.8,11.4-5.9,21.8-5.9
		h28.9c3.6,0,5.1,1.6,5.1,5.1v13.6c0,2-0.6,3.3-1.6,4.2l-14.6,12.1c-0.6,0.6-1.9,1.1-3.4,1.1h-15.4v19c0,0.8,0,1.6,0.2,2.2v-2
		c0-2,0.6-3.3,1.6-4.2l14.5-12.2c0.8-0.6,2-1,3.6-1h17.4c3.6,0,5.1,1.6,5.1,5.1v34.6c0,2-0.6,3.3-1.6,4.2l-14.6,12.1
		c-0.6,0.6-1.9,1.1-3.4,1.1L158.2,720L158.2,720L158.2,720z"/>
	<g>
		<path fill="#FFFFFF" d="M149.5,132.2c-2.8,0-4-1.2-4-4V55.5c0-2.8,1.2-4,4-4h37.2c20.4,0,26.5,8.9,26.5,21.8v14.3
			c0,13-6.1,21.8-26.5,21.8h-15.8v18.6c0,2.8-1.2,4-4,4L149.5,132.2C149.5,132.2,149.5,132.2,149.5,132.2z M170.7,89.4h13
			c4.4,0,5.3-2.6,5.3-5.5v-5.9c0-2.9-0.9-5.5-5.3-5.5h-13C170.7,72.4,170.7,89.4,170.7,89.4z"/>
		<path fill="#FFFFFF" d="M165.9,224.4h-16.5c-2.9,0-4-1.2-4-4v-29.6c0-7.8,1.1-9.4,4.4-17.9l8.6-25.4c1-2.8,2.8-3.7,5.7-3.7h29
			c2.9,0,4.6,0.9,5.6,3.7l9.8,25.4c3.3,8.6,4.4,10.2,4.4,17.9v29.6c0,2.8-1.2,4-4,4h-17c-2.8,0-4.4-1.2-4.4-4v-15.7h-17.6v15.7
			C169.9,223.2,168.7,224.4,165.9,224.4z M171,184.2h15.4l-5.3-17c-0.6-1.4-0.9-1.9-2.2-1.9h-0.6c-1.2,0-1.4,0.5-2.2,1.9L171,184.2z
			"/>
		<path fill="#FFFFFF" d="M149.5,320.7c-2.8,0-4-1.2-4-4v-72.6c0-2.8,1.2-4,4-4h36.1c16.8,0,22.1,7.6,22.1,18.7v5.1
			c0,6.2-1.6,10.8-6.2,12.8c6.9,0.9,12.5,6.9,12.5,16.2v23.8c0,2.8-1.2,4-4,4h-17.4c-2.8,0-4-1.2-4-4v-17.1c0-3.4-1.1-4.8-4.2-4.8
			H171v22c0,2.8-1.2,4-4,4L149.5,320.7C149.5,320.8,149.5,320.7,149.5,320.7z M170.8,274.5h7.2c3.9,0,5-2.2,5-5.3v-3.8
			c0-3-1-5.3-5-5.3h-7.2V274.5z"/>
		<path fill="#FFFFFF" d="M149.6,416.5c-2.8,0-4-1.2-4-4v-72.6c0-2.8,1.2-4,4-4H167c2.8,0,4,1.2,4,4v25.8h2.6l11.5-26.2
			c1.1-2.7,2.7-3.7,5.6-3.7h17.3c2.6,0,3.4,1.4,2.5,3.7l-11.3,26.2c8.4,0.5,13.8,6.2,13.8,15.3v31.6c0,2.8-1.2,4-4,4h-17.3
			c-2.8,0-4-1.2-4-4v-21.8c0-2.5-1.2-3.8-3.6-3.8h-12.9v25.7c0,2.8-1.2,4-4,4L149.6,416.5L149.6,416.5z"/>
		<path fill="#FFFFFF" d="M146.5,509.7v-13.4c0-2.8,1.2-4,4-4h15v-37.7h-15c-2.8,0-4-1.2-4-4V437c0-2.8,1.2-4,4-4h57.2
			c2.8,0,4,1.2,4,4v13.6c0,2.8-1.2,4-4,4h-15v37.7h15c2.8,0,4,1.2,4,4v13.4c0,2.8-1.2,4-4,4h-57.2
			C147.8,513.7,146.5,512.5,146.5,509.7z"/>
		<path fill="#FFFFFF" d="M149.5,610.9c-2.8,0-4-1.2-4-4v-72.6c0-2.8,1.2-4,4-4h11.7c2.9,0,4.7,0.8,6.6,3l20.2,24.9v-23.9
			c0-2.8,1.2-4,4-4h16.8c2.8,0,4,1.2,4,4v72.6c0,2.8-1.2,4-4,4H192c-2.8,0-4-1.2-4-4v-13.8l-17.6-23.2v37c0,2.8-1.2,4-4,4
			L149.5,610.9L149.5,610.9z"/>
		<path fill="#FFFFFF" d="M172.5,706.6c-21.2,0-27.6-9.3-27.6-22.9v-35c0-13.6,6.4-22.9,27.6-22.9h29c2.8,0,4,1.2,4,4v13.6
			c0,2.8-1.2,4-4,4h-24.2c-5.8,0-6.9,2.7-6.9,5.6v26.8c0,3,0.6,5.5,5.1,5.5h11.8v-17.5c0-2.8,1.2-4,4-4h17.5c2.8,0,4,1.2,4,4v34.6
			c0,2.8-1.2,4-4,4L172.5,706.6C172.5,706.6,172.5,706.6,172.5,706.6z"/>
	</g>
	<path fill="#EDE03A" d="M158.7,100v22.1h-1.1V61.6h27.1c14.2,0,16.8,6.5,16.8,15.3v8.3c0,8.7-2.7,14.9-16.8,14.9L158.7,100
		C158.7,100.1,158.7,100,158.7,100z M184.7,98.9c13.2,0,15.7-5.7,15.7-13.8v-8.3c0-8.1-2.5-14.2-15.7-14.2h-26v36.2
		C158.7,98.9,184.7,98.9,184.7,98.9z"/>
	<path fill="#EDE03A" d="M199.5,195h-41.4v19.3H157v-23.9c0-4.2,0.6-7.6,1.9-10.9l7.2-18.4c1.7-4.2,3-7.4,8.2-7.4h8.6
		c5,0,6.2,3.1,8.1,7.5l7.8,18.2c1.2,3.3,1.9,6.7,1.9,10.9v23.9h-1.1L199.5,195L199.5,195z M158.2,193.9h41.4v-3.4
		c0-4-0.6-7.4-1.8-10.4l-7.8-18.2c-1.7-3.9-2.9-6.9-7-6.9h-8.6c-4.5,0-5.7,2.9-7.2,6.7l-7.2,18.4c-1.1,3-1.8,6.4-1.8,10.4V193.9z"/>
	<path fill="#EDE03A" d="M157.5,310.6v-60.6h25.6c8.7,0,12.8,5.4,12.8,12.8v7.8c0,6.9-1.4,11.4-6.7,13h1.2c9.2,0,11.2,4.2,11.2,12
		v15h-1.1v-15.1c0-7.4-1.6-11-10.1-11h-31.8v26H157.5L157.5,310.6z M158.6,251.2v32.4h24.5c9.3,0,11.7-4.6,11.7-12.9v-7.8
		c0-7-3.7-11.7-11.7-11.7H158.6z"/>
	<path fill="#EDE03A" d="M157.7,406.4v-60.6h1.1v29.8h22.4l12.9-29.8h1.2l-12.9,29.8h4.6c9.2,0,13.6,3.1,13.6,11v19.8h-1.1v-19.8
		c0-7.2-4.2-9.8-12.5-9.8h-28.2v29.6H157.7z"/>
	<path fill="#EDE03A" d="M156.5,503.6v-1.1h22v-58.3h-22V443h45v1.1h-22v58.3h22v1.1H156.5z"/>
	<path fill="#EDE03A" d="M160.3,541.2l39.4,46.4v-47.3h1.1v60.6h-1.1v-11.5l-40.6-47.5c-0.2-0.2-0.3-0.3-0.6-0.3
		c-0.2,0-0.2,0.2-0.2,0.3V601h-1.1v-59.3c0-0.9,0.6-1.4,1.4-1.4C159.3,540.2,159.5,540.4,160.3,541.2z"/>
	<path fill="#EDE03A" d="M157,682.2v-31.4c0-10.6,3.6-14.7,17.9-14.7h20.3v1.1H175c-13.2,0-16.8,3.6-16.8,13.6v31.4
		c0,9.8,3.9,13.4,19,13.4h22.2v-21.4h1.1v22.6h-23.4C160.7,696.6,157,692.6,157,682.2z"/>
</g>
<g>
	<path fill="#DA4226" d="M280.6,10c0-1.6,0.7-2.3,2.3-2.3h41.8c1.6,0,2.3,0.7,2.3,2.3v19.7c0,11.7-5.1,15.2-12.6,15.2h-8.2
		c-7.4,0-12.6-3.4-12.6-15.2v-7.4h-10.7c-1.6,0-2.3-0.7-2.3-2.3V10z M305.2,22.2V28c0,2.5,1.5,3,3.1,3h3.4c1.7,0,3.1-0.5,3.1-3v-5.8
		H305.2z"/>
	<path fill="#DA4226" d="M280.6,54c0-1.6,0.7-2.3,2.3-2.3h41.8c1.6,0,2.3,0.7,2.3,2.3v29.8c0,1.6-0.7,2.3-2.3,2.3h-7.5
		c-1.6,0-2.3-0.7-2.3-2.3V66h-5v12.6c0,1.6-0.7,2.3-2.3,2.3h-6.9c-1.6,0-2.3-0.7-2.3-2.3V66h-5.5v17.8c0,1.6-0.7,2.3-2.3,2.3H283
		c-1.6,0-2.3-0.7-2.3-2.3L280.6,54L280.6,54z"/>
	<path fill="#DA4226" d="M280.6,96.1c0-1.6,0.7-2.3,2.3-2.3h41.8c1.6,0,2.3,0.7,2.3,2.3v21.4c0,9.7-4.4,12.7-10.7,12.7h-3
		c-3.6,0-6.2-0.9-7.4-3.6c-0.5,4.7-3.9,7.8-9.4,7.8h-13.7c-1.6,0-2.3-0.7-2.3-2.3v-10c0-1.6,0.7-2.3,2.3-2.3h9.8
		c1.9,0,2.8-0.6,2.8-2.5v-9h-12.6c-1.6,0-2.3-0.7-2.3-2.3L280.6,96.1L280.6,96.1z M307.1,108.4v4.8c0,2.2,1.3,2.8,3,2.8h2.2
		c1.8,0,3-0.6,3-2.8v-4.8H307.1z"/>
	<path fill="#DA4226" d="M280.6,144c0-1.6,0.7-2.3,2.3-2.3h41.8c1.6,0,2.3,0.7,2.3,2.3v10.4c0,1.4-0.5,2.2-1.9,3l-10.5,5.8
		c-0.8,0.5-1.1,0.6-1.1,1.1v0.6c0,0.5,0.3,0.7,1.1,1.1l10.5,5.8c1.4,0.8,1.9,1.6,1.9,3V185c0,1.6-0.7,2.3-2.3,2.3h-41.8
		c-1.6,0-2.3-0.7-2.3-2.3v-9.9c0-1.7,0.7-2.3,2.3-2.3h22.6l-7-3.8c-1.5-0.8-2.1-1.8-2.1-3.4V163c0-1.7,0.6-2.6,2.1-3.4l7-3.8h-22.6
		c-1.6,0-2.3-0.7-2.3-2.3V144L280.6,144z"/>
	<path fill="#DA4226" d="M280.6,207.1v-9.4c0-1.6,0.7-2.3,2.3-2.3h17c2.6,0,5.8,0.8,10.3,2.5l14.6,5.6c1.5,0.5,2.2,1.5,2.2,3.3V224
		c0,1.7-0.6,2.7-2.2,3.2l-14.6,5.6c-4.5,1.8-7.8,2.5-10.3,2.5h-17c-1.6,0-2.3-0.7-2.3-2.3v-9.8c0-1.8,0.7-2.5,2.3-2.5h9v-11.4h-9
		C281.2,209.4,280.6,208.7,280.6,207.1z M303.6,210v10.1l9.8-3c0.8-0.3,1.1-0.7,1.1-1.2v-1.6c0-0.5-0.3-0.9-1.1-1.2L303.6,210z"/>
	<path fill="#DA4226" d="M280.6,245.6c0-1.6,0.7-2.3,2.3-2.3h41.8c1.6,0,2.3,0.7,2.3,2.3v6.7c0,1.7-0.5,2.7-1.8,3.8l-14.3,12.6h13.7
		c1.6,0,2.3,0.7,2.3,2.3v9.7c0,1.6-0.7,2.3-2.3,2.3h-41.8c-1.6,0-2.3-0.7-2.3-2.3v-9.7c0-1.6,0.7-2.3,2.3-2.3h7.9l13.4-11h-21.3
		c-1.6,0-2.3-0.7-2.3-2.3L280.6,245.6L280.6,245.6L280.6,245.6z"/>
	<path fill="#DA4226" d="M280.6,294c0-1.6,0.7-2.3,2.3-2.3h41.8c1.6,0,2.3,0.7,2.3,2.3v29.8c0,1.6-0.7,2.3-2.3,2.3h-7.5
		c-1.6,0-2.3-0.7-2.3-2.3v-17.7h-5v12.6c0,1.6-0.7,2.3-2.3,2.3h-6.9c-1.6,0-2.3-0.7-2.3-2.3v-12.6h-5.5V324c0,1.6-0.7,2.3-2.3,2.3
		H283c-1.6,0-2.3-0.7-2.3-2.3L280.6,294L280.6,294z"/>
	<path fill="#DA4226" d="M280.6,336.2c0-1.6,0.7-2.3,2.3-2.3h41.8c1.6,0,2.3,0.7,2.3,2.3v6.7c0,1.7-0.5,2.7-1.8,3.8l-14.3,12.5h13.7
		c1.6,0,2.3,0.7,2.3,2.3v9.7c0,1.6-0.7,2.3-2.3,2.3h-41.8c-1.6,0-2.3-0.7-2.3-2.3v-9.7c0-1.6,0.7-2.3,2.3-2.3h7.9l13.4-11h-21.3
		c-1.6,0-2.3-0.7-2.3-2.3L280.6,336.2L280.6,336.2L280.6,336.2z"/>
	<path fill="#DA4226" d="M280.6,393.8c0-1.6,0.7-2.3,2.3-2.3h31.6V382c0-1.6,0.7-2.3,2.3-2.3h7.8c1.6,0,2.3,0.7,2.3,2.3v34
		c0,1.6-0.7,2.3-2.3,2.3h-7.8c-1.6,0-2.3-0.7-2.3-2.3v-9.4h-31.6c-1.6,0-2.3-0.7-2.3-2.3V393.8z"/>
	<path fill="#DA4226" d="M280.6,440.8c0-1.6,0.7-2.3,2.3-2.3h41.8c1.6,0,2.3,0.7,2.3,2.3v19.7c0,11.7-5.1,15.2-12.6,15.2h-8.2
		c-7.4,0-12.6-3.4-12.6-15.2V453h-10.7c-1.6,0-2.3-0.7-2.3-2.3V440.8z M305.2,452.9v5.8c0,2.5,1.5,3,3.1,3h3.4c1.7,0,3.1-0.5,3.1-3
		v-5.8H305.2z"/>
	<path fill="#DA4226" d="M280.6,484.7c0-1.6,0.7-2.3,2.3-2.3h41.8c1.6,0,2.3,0.7,2.3,2.3v21.4c0,9.7-4.4,12.7-10.7,12.7h-3
		c-3.6,0-6.2-0.9-7.4-3.6c-0.5,4.7-3.9,7.8-9.4,7.8h-13.7c-1.6,0-2.3-0.7-2.3-2.3v-10c0-1.6,0.7-2.3,2.3-2.3h9.8
		c1.9,0,2.8-0.6,2.8-2.5v-9h-12.6c-1.6,0-2.3-0.7-2.3-2.3L280.6,484.7L280.6,484.7z M307.1,496.9v4.8c0,2.2,1.3,2.8,3,2.8h2.2
		c1.8,0,3-0.6,3-2.8v-4.8H307.1z"/>
	<path fill="#DA4226" d="M280.6,532.5c0-1.6,0.7-2.3,2.3-2.3h41.8c1.6,0,2.3,0.7,2.3,2.3v29.8c0,1.6-0.7,2.3-2.3,2.3h-7.5
		c-1.6,0-2.3-0.7-2.3-2.3v-17.8h-5v12.6c0,1.6-0.7,2.3-2.3,2.3h-6.9c-1.6,0-2.3-0.7-2.3-2.3v-12.6h-5.5v17.8c0,1.6-0.7,2.3-2.3,2.3
		H283c-1.6,0-2.3-0.7-2.3-2.3L280.6,532.5L280.6,532.5z"/>
	<path fill="#DA4226" d="M280.6,573.5c0-1.6,0.7-2.3,2.3-2.3h7.5c1.6,0,2.3,0.7,2.3,2.3v17.4c0,1.1,0.8,1.7,1.8,1.7
		c1.5,0,2.1-0.6,2.2-1.7l1.4-9.7c0.9-6.1,3.4-10,10.7-10h6.8c7.4,0,11.4,5,11.4,13.4v18c0,1.6-0.7,2.3-2.3,2.3h-7.8
		c-1.6,0-2.3-0.7-2.3-2.3v-15c0-1.1-0.8-1.8-1.9-1.8s-1.9,0.6-2.1,1.8l-1.3,9.6c-0.9,6.1-3.4,10.1-10.7,10.1h-6.8
		c-7.4,0-11.4-5-11.4-13.4v-20.3H280.6z"/>
	<path fill="#DA4226" d="M280.6,615c0-1.6,0.7-2.3,2.3-2.3h7.5c1.6,0,2.3,0.7,2.3,2.3v17.4c0,1.1,0.8,1.7,1.8,1.7
		c1.5,0,2.1-0.6,2.2-1.7l1.4-9.7c0.9-6.1,3.4-10,10.7-10h6.8c7.4,0,11.4,5,11.4,13.4v18c0,1.6-0.7,2.3-2.3,2.3h-7.8
		c-1.6,0-2.3-0.7-2.3-2.3v-15c0-1.1-0.8-1.8-1.9-1.8s-1.9,0.6-2.1,1.8l-1.3,9.6c-0.9,6.1-3.4,10.1-10.7,10.1h-6.8
		c-7.4,0-11.4-5-11.4-13.4V615H280.6z"/>
</g>
<g>
	<path fill="#B2A639" d="M551.7,11.6c0-2.2,1-3.1,3.1-3.1h56.6c2.2,0,3.1,1,3.1,3.1v13.5c0,2.2-1,3.1-3.1,3.1h-43.2v12h14.2
		c2.2,0,3.1,1,3.1,3.1V56c0,2.2-1,3.1-3.1,3.1h-27.5c-2.2,0-3.1-1-3.1-3.1V11.6z"/>
	<path fill="#B2A639" d="M554.8,67.8h10.4c2.2,0,3.1,1,3.1,3.1v8.6h29.4V71c0-2.2,1-3.1,3.1-3.1h10.6c2.2,0,3.1,1,3.1,3.1v37.2
		c0,2.2-1,3.1-3.1,3.1h-10.6c-2.2,0-3.1-1-3.1-3.1v-8.5h-29.4v8.5c0,2.2-1,3.1-3.1,3.1h-10.4c-2.2,0-3.1-1-3.1-3.1V71
		C551.7,68.8,552.7,67.8,554.8,67.8z"/>
	<path fill="#B2A639" d="M551.7,142.6c0-14.6,5.7-21.5,17.8-21.5h27.3c12.2,0,17.8,6.8,17.8,21.5v21.8c0,2.2-1,3.1-3.1,3.1H601
		c-2.2,0-3.1-1-3.1-3.1v-18.2c0-3.7-1.4-5.4-4.4-5.4h-20.9c-3,0-4.2,1.3-4.2,4v8.5H582c2.2,0,3.1,1,3.1,3.1V170c0,2.2-1,3.1-3.1,3.1
		h-27c-2.2,0-3.1-1-3.1-3.1v-27.4H551.7z"/>
	<path fill="#B2A639" d="M551.7,187.1c0-2.2,1-3.1,3.1-3.1h56.6c2.2,0,3.1,1,3.1,3.1v13.5c0,2.2-1,3.1-3.1,3.1h-19v14.6h19
		c2.2,0,3.1,1,3.1,3.1V235c0,2.2-1,3.1-3.1,3.1h-56.6c-2.2,0-3.1-1-3.1-3.1v-13.5c0-2.2,1-3.1,3.1-3.1h19.4v-14.6h-19.4
		c-2.2,0-3.1-1-3.1-3.1V187.1z"/>
	<path fill="#B2A639" d="M551.7,265.7c0-2.2,1-3.1,3.1-3.1h42.9v-12.8c0-2.2,1-3.1,3.1-3.1h10.6c2.2,0,3.1,1,3.1,3.1v46.1
		c0,2.2-1,3.1-3.1,3.1h-10.6c-2.2,0-3.1-1-3.1-3.1v-12.8h-42.9c-2.2,0-3.1-1-3.1-3.1V265.7z"/>
	<path fill="#B2A639" d="M551.7,309.1c0-2.2,1-3.1,3.1-3.1h10.2c2.2,0,3.1,1,3.1,3.1v23.5c0,1.5,1.1,2.2,2.6,2.2c2,0,2.8-0.8,3-2.2
		l1.8-13.1c1.2-8.2,4.7-13.5,14.5-13.5h9.2c9.9,0,15.4,6.7,15.4,18.1v24.5c0,2.2-1,3.1-3.1,3.1h-10.4c-2.2,0-3.1-1-3.1-3.1v-20.3
		c0-1.5-1-2.3-2.6-2.3c-1.6,0-2.6,0.9-2.8,2.3l-1.8,13c-1.2,8.2-4.7,13.6-14.5,13.6h-9.2c-9.9,0-15.4-6.8-15.4-18.1V309.1z"/>
	<path fill="#B2A639" d="M568,416.1c0,2.6,1.1,3.3,3.5,3.3h12.1c2.2,0,3.1,1,3.1,3.1v17c0,2.2-0.9,3.1-3.1,3.1h-9.4
		c-2.2,0-3.1-1-3.1-3.1v-2h-3.9c-9.4,0-15.4-5.5-15.4-15.6v-24.2c0-10.7,6-16.5,15.4-16.5h7c8.2,0,13,4.7,13.5,11
		c1.7-3.8,5-5.1,9.4-5.1h4.2c7.7,0,13.4,4.9,13.4,16.8v18.4c0,2.2-1,3.1-3.1,3.1h-10.1c-2.2,0-3.1-1-3.1-3.1v-12.9
		c0-2.8-1.2-3.3-2.6-3.3h-1.8c-1.4,0-2.6,0.6-2.6,3.3v1.3c0,2.2-1,3.1-3.1,3.1h-9c-2.2,0-3.1-1-3.1-3.1v-7c0-2.8-1.1-3.3-2.6-3.3
		h-2.7c-1.4,0-2.6,0.6-2.6,3.3V416.1L568,416.1z"/>
	<path fill="#B2A639" d="M551.7,473.6c0-2.2,1-3.1,3.1-3.1h56.6c2.2,0,3.1,1,3.1,3.1V503c0,14.6-5.7,21.5-17.8,21.5h-27.3
		c-12.2,0-17.8-6.8-17.8-21.5v-29.4H551.7z M568.2,490.3v10.4c0,2.8,1.3,4.1,4.2,4.1h21.3c2.9,0,4.2-1.3,4.2-4.1v-10.4H568.2z"/>
	<path fill="#B2A639" d="M551.7,550.3v-12.8c0-2.2,1-3.1,3.1-3.1h23c3.5,0,7.8,1,14,3.4l19.8,7.6c2,0.7,2.9,2.1,2.9,4.5v23.5
		c0,2.2-0.9,3.7-2.9,4.4l-19.8,7.6c-6.1,2.3-10.5,3.4-14,3.4h-23c-2.2,0-3.1-1-3.1-3.1v-13.2c0-2.3,1-3.4,3.1-3.4h12.2v-15.7h-12.2
		C552.7,553.4,551.7,552.4,551.7,550.3z M583,554.3V568l13.3-4.1c1-0.4,1.5-1,1.5-1.7V560c0-0.7-0.4-1.2-1.5-1.7L583,554.3z"/>
	<path fill="#B2A639" d="M551.7,602.5c0-2.2,1-3.1,3.1-3.1h56.6c2.2,0,3.1,1,3.1,3.1v29.1c0,13.1-5.9,17.2-14.6,17.2h-4
		c-4.9,0-8.4-1.2-9.9-4.9c-0.7,6.4-5.4,10.6-12.6,10.6h-18.5c-2.2,0-3.1-1-3.1-3.1v-13.5c0-2.2,1-3.1,3.1-3.1h13.4
		c2.6,0,3.8-0.9,3.8-3.3v-12.2h-17.1c-2.2,0-3.1-1-3.1-3.1L551.7,602.5L551.7,602.5z M587.6,619.1v6.6c0,3,1.8,3.8,4.1,3.8h3
		c2.3,0,4.1-0.8,4.1-3.8v-6.6H587.6z"/>
	<path fill="#B2A639" d="M551.7,667.4c0-2.2,1-3.1,3.1-3.1h56.6c2.2,0,3.1,1,3.1,3.1v13.5c0,2.2-1,3.1-3.1,3.1h-20.1v3.5l20.3,9
		c2.1,0.9,2.9,2.1,2.9,4.4v13.4c0,2-1,2.7-2.9,1.9l-20.3-8.9c-0.3,6.6-4.9,10.7-11.8,10.7h-24.6c-2.2,0-3.1-1-3.1-3.1v-13.4
		c0-2.2,1-3.1,3.1-3.1h17c1.9,0,3-1,3-2.8v-11.5h-20c-2.2,0-3.1-1-3.1-3.1L551.7,667.4L551.7,667.4z"/>
	<path fill="#B2A639" d="M551.7,730.9c0-2.2,1-3.1,3.1-3.1h10.2c2.2,0,3.1,1,3.1,3.1v23.5c0,1.5,1.1,2.2,2.6,2.2c2,0,2.8-0.8,3-2.2
		l1.8-13.1c1.2-8.2,4.7-13.5,14.5-13.5h9.2c9.9,0,15.4,6.7,15.4,18.1v24.5c0,2.2-1,3.1-3.1,3.1h-10.4c-2.2,0-3.1-1-3.1-3.1V750
		c0-1.5-1-2.3-2.6-2.3c-1.6,0-2.6,0.9-2.8,2.3l-1.8,13c-1.2,8.2-4.7,13.6-14.5,13.6h-9.2c-9.9,0-15.4-6.8-15.4-18.1V730.9z"/>
</g>
<g>
	<path fill="#102B33" d="M366,14.4c0-4.2,1.8-6,6-6h74c40.8,0,64.3,23.5,64.3,64.4v73.9c0,4.2-1.8,6-6,6h-133c-3,0-5.3-2.2-5.3-5.3
		V14.4L366,14.4z"/>
	<path fill="#102B33" d="M504.4,308H372c-4.2,0-6-1.8-6-6V169.6c0-4.2,1.8-6,6-6h132.2c4.2,0,6,1.8,6,6v132.2
		C510.4,306.1,508.5,308,504.4,308z"/>
	<path fill="#102B33" d="M504.4,463.2H372c-4.2,0-6-1.8-6-6V324.9c0-4.2,1.8-6,6-6h132.2c4.2,0,6,1.8,6,6v132.2
		C510.4,461.3,508.5,463.2,504.4,463.2z"/>
	<path fill="#102B33" d="M504.4,618.4H372c-4.2,0-6-1.8-6-6V480.1c0-4.2,1.8-6,6-6h132.2c4.2,0,6,1.8,6,6v132.2
		C510.4,616.6,508.5,618.4,504.4,618.4z"/>
	<path fill="#102B33" d="M504.4,773.6H372c-4.2,0-6-1.8-6-6V635.3c0-4.2,1.8-6,6-6h132.2c4.2,0,6,1.8,6,6v132.2
		C510.4,771.8,508.5,773.6,504.4,773.6z"/>
</g>
<g>
	<path fill="#FFFFFF" d="M423,119.3V61.6h-16.1c-3.8,0-5.5-1.7-5.5-5.5V41.6c0-3.8,1.7-5.5,5.5-5.5h63.4c3.8,0,5.5,1.7,5.5,5.5V56
		c0,3.8-1.7,5.5-5.5,5.5h-16.1v57.7c0,3.8-1.7,5.5-5.5,5.5h-20.2C424.7,124.8,423,123.2,423,119.3z M453,119.3v-59h17.3
		c3,0,4.3-1.3,4.3-4.3V41.6c0-3-1.3-4.3-4.3-4.3h-63.4c-3,0-4.3,1.3-4.3,4.3V56c0,3,1.4,4.3,4.3,4.3h17.3v58.9c0,3,1.3,4.3,4.3,4.3
		h20.2C451.6,123.6,453,122.3,453,119.3z M438,49.2h-24.6V48h50.4v1.2h-24.6v63.6H438L438,49.2C438,49.2,438,49.2,438,49.2z"/>
	<path fill="#FFFFFF" d="M402.4,272.9v-14.2c0-3.8,1.7-5.5,5.5-5.5h14.9v-37.9H408c-3.8,0-5.5-1.7-5.5-5.5v-14.5
		c0-3.8,1.7-5.5,5.5-5.5h61.2c3.8,0,5.5,1.7,5.5,5.5v14.5c0,3.8-1.7,5.5-5.5,5.5h-14.9v37.9h14.9c3.8,0,5.5,1.7,5.5,5.5v14.2
		c0,3.8-1.7,5.5-5.5,5.5H408C404.1,278.4,402.4,276.8,402.4,272.9z M469.2,277.2c3,0,4.3-1.3,4.3-4.3v-14.2c0-3-1.3-4.3-4.3-4.3
		h-16.1V214h16.1c3,0,4.3-1.3,4.3-4.3v-14.5c0-3-1.3-4.3-4.3-4.3H408c-3,0-4.3,1.3-4.3,4.3v14.5c0,3,1.3,4.3,4.3,4.3H424v40.3H408
		c-3,0-4.3,1.3-4.3,4.3v14.2c0,3,1.3,4.3,4.3,4.3H469.2z M414.4,266.4v-1.2H438v-62.4h-23.5v-1.2h48.2v1.2h-23.5v62.4h23.5v1.2
		H414.4z"/>
	<path fill="#FFFFFF" d="M406.9,434c-3.8,0-5.5-1.7-5.5-5.5v-77.8c0-3.8,1.7-5.5,5.5-5.5h38.6c19,0,24.8,8.7,24.8,21.2v5.5
		c0,6-1.3,10.6-4.8,13.2c6.5,2.2,11.4,8.5,11.4,17.8v25.4c0,3.8-1.7,5.5-5.5,5.5h-18.6c-3.8,0-5.5-1.7-5.5-5.5v-18.2
		c0-2.6-0.8-4-3.4-4h-13v22.3c0,3.8-1.7,5.5-5.5,5.5H406.9L406.9,434z M429.7,428.5V405H444c3.4,0,4.6,1.6,4.6,5.2v18.3
		c0,3,1.3,4.3,4.3,4.3h18.6c3,0,4.3-1.3,4.3-4.3v-25.4c0-10.1-6-16.4-13.3-17.4c5-2.2,6.7-7,6.7-13.7v-5.5c0-11.8-5.6-20-23.6-20
		h-38.6c-3,0-4.3,1.3-4.3,4.3v77.8c0,3,1.4,4.3,4.3,4.3h18.5C428.4,432.8,429.7,431.6,429.7,428.5z M415.6,422v-64.8h27.4
		c9.4,0,13.7,5.8,13.7,13.7v8.2c0,7.3-1.4,12.1-7.2,13.9h1.3c9.8,0,12,4.4,12,12.8V422h-1.2v-16.1c0-7.9-1.7-11.8-10.8-11.8h-33.9
		V422L415.6,422L415.6,422L415.6,422z M416.8,358.4v34.6h26.2c9.9,0,12.5-4.9,12.5-13.8v-8.4c0-7.4-3.9-12.5-12.5-12.5L416.8,358.4
		L416.8,358.4z M437.4,368c4.2,0,5.3,2.4,5.3,5.6v4.1c0,3.2-1.1,5.6-5.3,5.6h-7.7V368L437.4,368L437.4,368z M430.9,369.2v13h6.5
		c3.4,0,4.1-1.9,4.1-4.4v-4.1c0-2.5-0.7-4.4-4.1-4.4L430.9,369.2L430.9,369.2z"/>
	<path fill="#FFFFFF" d="M401.5,583.6v-77.8c0-3.8,1.7-5.5,5.5-5.5h62.2c3.8,0,5.5,1.7,5.5,5.5v14c0,3.8-1.7,5.5-5.5,5.5h-38.4v6.8
		h28.6c3.8,0,5.5,1.5,5.5,5.5v12.8c0,3.8-1.7,5.5-5.5,5.5h-28.6v7.9h38.4c3.8,0,5.5,1.7,5.5,5.5v14c0,3.8-1.7,5.5-5.5,5.5H407
		C403.2,589.1,401.5,587.4,401.5,583.6z M473.5,583.6v-14c0-3-1.3-4.3-4.3-4.3h-39.6v-10.3h29.8c3,0,4.3-1.4,4.3-4.3v-12.8
		c0-3.1-1.3-4.3-4.3-4.3h-29.8v-9.2h39.6c3,0,4.3-1.3,4.3-4.3v-14c0-3-1.3-4.3-4.3-4.3H407c-3,0-4.3,1.3-4.3,4.3v77.8
		c0,3,1.3,4.3,4.3,4.3h62.2C472.2,587.9,473.5,586.6,473.5,583.6z M462.7,577.1h-47.1v-64.8h47.1v1.2h-45.9v30.1H453v1.2h-36.2v31
		h45.9V577.1z"/>
	<path fill="#FFFFFF" d="M449.9,744.8h-43c-3.8,0-5.5-1.7-5.5-5.5v-14c0-3.8,1.7-5.5,5.5-5.5h37.3c1.3,0,1.9-1,1.9-2.2
		c0-1.8-0.6-2.8-2.1-2.9l-23-2.5c-12-1.8-19.7-7-19.7-21.1v-12.6c0-14.4,9.6-22.3,26-22.3h39.8c3.8,0,5.5,1.7,5.5,5.5v14.2
		c0,3.8-1.7,5.5-5.5,5.5H433c-1.3,0-2,1-2,2.4c0,1.4,0.7,2.5,2.2,2.6l22.9,2.4c12,1.8,19.8,7,19.8,21.1v12.6
		C475.9,736.8,466.2,744.8,449.9,744.8z M474.7,722.4v-12.6c0-13.4-7.4-18.2-18.7-19.9l-22.9-2.4c-2-0.2-3.2-1.7-3.2-3.8
		c0-2.2,1.2-3.6,3.2-3.6h34.2c3,0,4.3-1.4,4.3-4.3v-14.2c0-3-1.3-4.3-4.3-4.3h-39.8c-15.6,0-24.8,7.4-24.8,21.1v12.6
		c0,13.4,7.3,18.2,18.6,19.9l23,2.5c2,0.2,3.1,1.4,3.1,4.1c0,1.9-1,3.4-3.1,3.4h-37.3c-3,0-4.3,1.3-4.3,4.3v14c0,3,1.4,4.3,4.3,4.3
		h43C465.3,743.6,474.7,736.1,474.7,722.4z M460.8,669.2h-32.9c-6.8,0-11,3.7-11,9.7v11c0,4.8,3.2,8,8.5,8.5l25.5,2.5
		c7.2,0.7,10.6,4.4,10.6,10.9v10c0,6.7-5.1,10.9-13.3,10.9h-34.9v-1.2h34.9c7.4,0,12.1-3.8,12.1-9.7v-10c0-5.8-3.1-9.1-9.7-9.7
		l-25.5-2.5c-5.8-0.6-9.4-4.3-9.4-9.7v-11c0-6.7,4.6-10.9,12.2-10.9h32.9V669.2z"/>
</g>
<g>
	<path fill="#102B33" d="M654,56.4c-1.8,0-2.6-0.8-2.6-2.6V16.4c0-1,0.3-1.7,0.8-2.2l7.4-6.2c0.4-0.3,1-0.5,1.8-0.5h9
		c1.8,0,2.6,0.8,2.6,2.6v27.9h0.6v-2.6c0-1,0.3-1.7,0.8-2.2l7.3-6.2c0.4-0.3,1-0.5,1.8-0.5h8.3c1.8,0,2.6,0.8,2.6,2.6v18.2
		c0,1-0.3,1.7-0.8,2.2l-7.5,6.2c-0.3,0.3-1,0.6-1.8,0.6L654,56.4L654,56.4L654,56.4z M693.9,47.5V29.3c0-1.4-0.6-2.1-2.1-2.1h-8.3
		c-1.4,0-2.1,0.6-2.1,2.1v9.4h-9V10.1c0-1.4-0.6-2.1-2.1-2.1h-9c-1.4,0-2.1,0.6-2.1,2.1v37.3c0,1.4,0.6,2.1,2.1,2.1h30.4
		C693.2,49.5,693.9,48.9,693.9,47.5z M665.6,13.2h0.6v30.6h21.1V32.4h0.6v11.9h-22.2L665.6,13.2L665.6,13.2z"/>
	<path fill="#102B33" d="M685.6,106.4c-0.3,0.3-1,0.6-1.8,0.6h-29.4c-1.8,0-2.6-0.8-2.6-2.6v-6.9c0-1,0.3-1.7,0.8-2.2l7.4-6.2
		c0.3-0.3,0.9-0.5,1.5-0.5V76.7h-7.1c-1.8,0-2.6-0.8-2.6-2.6v-7c0-1,0.3-1.7,0.8-2.2l7.4-6.2c0.4-0.3,1-0.5,1.8-0.5h29.4
		c1.8,0,2.6,0.8,2.6,2.6v7c0,1-0.3,1.7-0.8,2.2l-7.5,6.2l0.1-0.1c-0.3,0.3-0.9,0.6-1.5,0.6v11.8h7.1c1.8,0,2.6,0.8,2.6,2.6v6.9
		c0,1-0.3,1.7-0.8,2.2L685.6,106.4z M691.2,100.2c1.4,0,2.1-0.6,2.1-2.1v-6.9c0-1.4-0.6-2.1-2.1-2.1h-7.7V69.8h7.7
		c1.4,0,2.1-0.6,2.1-2.1v-7c0-1.4-0.6-2.1-2.1-2.1h-29.4c-1.4,0-2.1,0.6-2.1,2.1v7c0,1.4,0.6,2.1,2.1,2.1h7.7v19.4h-7.7
		c-1.4,0-2.1,0.6-2.1,2.1v6.9c0,1.4,0.6,2.1,2.1,2.1C661.9,100.2,691.2,100.2,691.2,100.2z M665,95v-0.6h11.3V64.5H665V64h23.1v0.6
		h-11.3v29.9h11.3V95H665z"/>
	<path fill="#102B33" d="M664.7,162.4c-1.8,0-2.6-0.8-2.6-2.6v-2.7c-8.7-1.5-11-7.6-11-13.5v-17.4c0-3.6,0.9-6.6,3.4-8.9l7.5-6.2
		c2.6-2.2,7.1-3.6,14.6-3.6c14.8,0,18.1,5.1,18.1,12.4V139c0,3.6-0.9,6.6-3.4,8.8l-7.4,6.2l-0.2,0.2c-0.1,0.6-0.3,1.1-0.7,1.4
		l-7.5,6.2c-0.3,0.3-1,0.6-1.8,0.6H664.7z M683,153.5v-3.2c8.7-1.4,11-5.5,11-11.4v-19.1c0-7-3.4-11.8-17.5-11.8
		c-14.1,0-17.5,4.8-17.5,11.8V139c0,5.8,2.3,9.9,11,11.3v3.2c0,1.4,0.6,2.1,2.1,2.1h8.9C682.4,155.6,683,154.9,683,153.5z
		 M676.2,146c-8.5-0.1-10.9-3.2-10.9-7.8v-17c0-4.6,2.4-7.8,11.2-7.8c8.7,0,11.4,3.1,11.4,7.8v17c0,4.6-2.6,7.7-11,7.8v4.4h-0.6
		L676.2,146L676.2,146z M676.5,145.4c8.3,0,10.8-2.9,10.8-7.2v-17c0-4.3-2.5-7.2-10.8-7.2s-10.6,2.9-10.6,7.2v17
		C665.9,142.5,668.2,145.4,676.5,145.4z M672.1,122c0-1.5,0.6-2.6,4.4-2.6c3.8,0,4.5,1.1,4.5,2.6v15.7c0,1.5-0.6,2.7-4.5,2.7
		c-3.8,0-4.4-1.1-4.4-2.7V122z M673.8,139.2v-11c0-0.7-0.2-1.4-1.1-1.7v10.9C672.7,138.2,672.9,138.8,673.8,139.2z"/>
	<path fill="#102B33" d="M651.3,197.2v-26.8c0-1,0.3-1.7,0.8-2.2l7.4-6.2c0.4-0.3,1-0.5,1.8-0.5h9c1.8,0,2.6,0.8,2.6,2.6v5.2
		c0.1-0.5,0.3-0.8,0.6-1l0.1-0.1l7.5-6.2c0.4-0.3,1-0.5,1.8-0.5h8.7c1.8,0,2.6,0.8,2.6,2.6v28.5c0,3.6-0.9,6.6-3.5,8.8l-7.4,6.2
		c-2.6,2.2-7.1,3.5-14.3,3.5C654.6,211.3,651.3,204.5,651.3,197.2z M693.8,164.2c0-1.4-0.6-2.1-2.1-2.1H683c-1.5,0-2.1,0.6-2.1,2.1
		v26.2c0,1.5-0.7,2.7-4.2,2.7s-4.2-1.1-4.2-2.7v-26.2c0-1.4-0.6-2.1-2.1-2.1h-9c-1.4,0-2.1,0.6-2.1,2.1v28.5c0,7,3.4,11.8,17.3,11.8
		s17.3-4.7,17.3-11.8L693.8,164.2L693.8,164.2z M666.2,167.3v24c0,4.3,2.2,7.2,10.2,7.2c8.3,0,10.7-2.9,10.7-7.2v-24h0.6v24
		c0,4.6-2.5,7.8-11.3,7.8c-8.5,0-10.8-3.1-10.8-7.8v-24H666.2z"/>
	<path fill="#102B33" d="M685.6,260c-0.3,0.3-1,0.6-1.8,0.6h-29.4c-1.8,0-2.6-0.8-2.6-2.6v-6.9c0-1,0.3-1.7,0.8-2.2l7.4-6.2
		c0.3-0.3,0.9-0.5,1.5-0.5v-11.9h-7.1c-1.8,0-2.6-0.8-2.6-2.6v-7c0-1,0.3-1.7,0.8-2.2l7.4-6.2c0.4-0.3,1-0.5,1.8-0.5h29.4
		c1.8,0,2.6,0.8,2.6,2.6v7c0,1-0.3,1.7-0.8,2.2l-7.5,6.2l0.1-0.1c-0.3,0.3-0.9,0.6-1.5,0.6v11.8h7.1c1.8,0,2.6,0.8,2.6,2.6v6.9
		c0,1-0.3,1.7-0.8,2.2L685.6,260z M691.2,253.8c1.4,0,2.1-0.6,2.1-2.1v-6.9c0-1.4-0.6-2.1-2.1-2.1h-7.7v-19.4h7.7
		c1.4,0,2.1-0.6,2.1-2.1v-7c0-1.4-0.6-2.1-2.1-2.1h-29.4c-1.4,0-2.1,0.6-2.1,2.1v7c0,1.4,0.6,2.1,2.1,2.1h7.7v19.4h-7.7
		c-1.4,0-2.1,0.6-2.1,2.1v6.9c0,1.4,0.6,2.1,2.1,2.1H691.2z M665,248.6V248h11.3v-29.9H665v-0.6h23.1v0.6h-11.3V248h11.3v0.6H665z"
		/>
	<path fill="#102B33" d="M672.5,310.8H654c-1.8,0-2.6-0.8-2.6-2.6v-37.3c0-1,0.3-1.7,0.8-2.2l7.4-6.2c0.4-0.3,1-0.5,1.8-0.5H680
		c11.4,0,14.7,5,14.7,12.3v18c0,3.8-1,7.1-3.6,9.3l-7.4,6.2C681.3,309.6,677.8,310.8,672.5,310.8z M694.1,292.2v-18
		c0-7-3.3-11.8-14.2-11.8h-18.6c-1.4,0-2.1,0.6-2.1,2.1v37.3c0,1.4,0.6,2.1,2.1,2.1H680C690.8,304,694.1,299.2,694.1,292.2z
		 M665.6,267.7h13.1c7.8,0,9.2,3.6,9.2,8V291c0,4.4-1.3,7.8-9.2,7.8h-13.1V267.7z M666.1,268.3v29.9h12.6c7.4,0,8.6-3,8.6-7.3v-15.3
		c0-4.2-1.4-7.4-8.6-7.4L666.1,268.3L666.1,268.3z M678.4,273.5c2.3,0,2.7,1.3,2.7,2.8v14c0,1.5-0.4,2.8-2.7,2.8h-6.1v-19.6H678.4z
		 M672.9,280.5v12h1v-9.9C673.9,281.5,673.6,280.8,672.9,280.5z"/>
	<path fill="#102B33" d="M672.5,379.2H654c-1.8,0-2.6-0.8-2.6-2.6v-37.3c0-1,0.3-1.7,0.8-2.2l7.4-6.2c0.4-0.3,1-0.5,1.8-0.5H680
		c11.4,0,14.7,5,14.7,12.3v18c0,3.8-1,7.1-3.6,9.3l-7.4,6.2C681.3,378.1,677.8,379.2,672.5,379.2z M694.1,360.7v-18
		c0-7-3.3-11.8-14.2-11.8h-18.6c-1.4,0-2.1,0.6-2.1,2.1v37.3c0,1.4,0.6,2.1,2.1,2.1H680C690.8,372.4,694.1,367.6,694.1,360.7z
		 M665.6,336.1h13.1c7.8,0,9.2,3.6,9.2,8v15.3c0,4.4-1.3,7.8-9.2,7.8h-13.1V336.1z M666.1,336.7v29.9h12.6c7.4,0,8.6-3,8.6-7.3V344
		c0-4.2-1.4-7.4-8.6-7.4L666.1,336.7L666.1,336.7z M678.4,342c2.3,0,2.7,1.3,2.7,2.8v14c0,1.5-0.4,2.8-2.7,2.8h-6.1V342H678.4z
		 M672.9,349v12h1v-10C673.9,350,673.6,349.2,672.9,349z"/>
	<path fill="#102B33" d="M654,429.5c-1.8,0-2.6-0.8-2.6-2.6v-37.3c0-1,0.3-1.7,0.8-2.2l7.4-6.2c0.4-0.3,1-0.5,1.8-0.5h29.8
		c1.8,0,2.6,0.8,2.6,2.6v6.7c0,1-0.3,1.7-0.8,2.2l-5,4.1c0.7,0.4,1.1,1.1,1.1,2.4v6.2c0,1-0.3,1.7-0.8,2.2l-5.1,4.3h7.9
		c1.8,0,2.6,0.8,2.6,2.6v6.7c0,1-0.3,1.7-0.8,2.2l-7.5,6.2c-0.3,0.3-1,0.6-1.8,0.6H654L654,429.5L654,429.5z M693.3,420.5v-6.7
		c0-1.4-0.6-2.1-2.1-2.1h-19v-5h14.3c1.4,0,2.1-0.6,2.1-2.1v-6.2c0-1.5-0.6-2.1-2.1-2.1h-14.3V392h19c1.4,0,2.1-0.6,2.1-2.1v-6.7
		c0-1.4-0.6-2.1-2.1-2.1h-29.8c-1.4,0-2.1,0.6-2.1,2.1v37.3c0,1.4,0.6,2.1,2.1,2.1h29.8C692.7,422.6,693.3,422,693.3,420.5z
		 M688.1,417.4h-22.6v-31.1h22.6v0.6H666v14.6h17.4v0.6H666v14.9h22.1V417.4z"/>
	<path fill="#102B33" d="M664.3,480.1c-1.8,0-2.6-0.8-2.6-2.6v-27.7H654c-1.8,0-2.6-0.8-2.6-2.6v-7c0-1,0.3-1.7,0.8-2.2l7.4-6.2
		c0.4-0.3,1-0.5,1.8-0.5h30.4c1.8,0,2.6,0.8,2.6,2.6v7c0,1-0.3,1.7-0.8,2.2l-7.5,6.2c-0.3,0.3-1,0.6-1.8,0.6H684v21.4
		c0,1-0.3,1.7-0.8,2.2l-7.5,6.2c-0.3,0.3-1,0.6-1.8,0.6h-9.7V480.1L664.3,480.1z M683.5,471.2v-28.2h8.3c1.4,0,2.1-0.6,2.1-2.1v-7
		c0-1.4-0.6-2.1-2.1-2.1h-30.4c-1.4,0-2.1,0.6-2.1,2.1v7c0,1.4,0.6,2.1,2.1,2.1h8.3v28.2c0,1.4,0.6,2.1,2.1,2.1h9.7
		C682.8,473.2,683.5,472.6,683.5,471.2z M676.3,437.6h-11.8V437h24.2v0.6h-11.8V468h-0.6L676.3,437.6L676.3,437.6z"/>
	<path fill="#102B33" d="M654,529.3c-1.8,0-2.6-0.8-2.6-2.6v-37.3c0-1,0.3-1.7,0.8-2.2l7.4-6.2c0.4-0.3,1-0.5,1.8-0.5h29.8
		c1.8,0,2.6,0.8,2.6,2.6v6.7c0,1-0.3,1.7-0.8,2.2l-5,4.1c0.7,0.4,1.1,1.1,1.1,2.4v6.2c0,1-0.3,1.7-0.8,2.2l-5.1,4.3h7.9
		c1.8,0,2.6,0.8,2.6,2.6v6.7c0,1-0.3,1.7-0.8,2.2l-7.5,6.2c-0.3,0.3-1,0.6-1.8,0.6H654L654,529.3L654,529.3z M693.3,520.4v-6.7
		c0-1.4-0.6-2.1-2.1-2.1h-19v-5h14.3c1.4,0,2.1-0.6,2.1-2.1v-6.2c0-1.5-0.6-2.1-2.1-2.1h-14.3V492h19c1.4,0,2.1-0.6,2.1-2.1v-6.7
		c0-1.4-0.6-2.1-2.1-2.1h-29.8c-1.4,0-2.1,0.6-2.1,2.1v37.3c0,1.4,0.6,2.1,2.1,2.1h29.8C692.7,522.5,693.3,521.9,693.3,520.4z
		 M688.1,517.3h-22.6v-31.1h22.6v0.6H666v14.5h17.4v0.6H666v14.9h22.1V517.3z"/>
	<path fill="#102B33" d="M664.6,578.9c-0.3,0.3-1,0.6-1.8,0.6H654c-1.8,0-2.6-0.8-2.6-2.6v-37.3c0-1,0.3-1.7,0.8-2.2l7.4-6.2
		c0.4-0.3,1-0.5,1.8-0.5H680c9.1,0,11.9,4.2,11.9,10.2v2.6c0,2.8-0.6,5-2.2,6.2l-0.1,0.1c3,1,5.4,4,5.4,8.6v12.2
		c0,1-0.3,1.7-0.8,2.2l-7.5,6.2c-0.3,0.3-1,0.6-1.8,0.6h-8.6c-1.8,0-2.6-0.8-2.6-2.6v-8.8c0-0.7-0.3-1.4-0.8-1.6v4.2
		c0,1-0.3,1.7-0.8,2.2L664.6,578.9z M672.3,570.6v-11.3h6.9c1.6,0,2.2,0.7,2.2,2.5v8.8c0,1.4,0.6,2.1,2.1,2.1h9
		c1.4,0,2.1-0.6,2.1-2.1v-12.2c0-4.8-2.9-7.9-6.4-8.3c2.4-1,3.2-3.4,3.2-6.6v-2.6c0-5.7-2.7-9.6-11.4-9.6h-18.6
		c-1.4,0-2.1,0.6-2.1,2.1v37.3c0,1.4,0.6,2.1,2.1,2.1h8.9C671.6,572.7,672.3,572,672.3,570.6z M665.5,567.5v-31.1h13.1
		c4.5,0,6.6,2.8,6.6,6.6v4c0,3.5-0.7,5.8-3.4,6.6h0.6c4.7,0,5.8,2.2,5.8,6.2v7.7h-0.6v-7.6c0-3.8-0.8-5.7-5.2-5.7H666v13.4H665.5
		L665.5,567.5z M666.1,537v16.6h12.6c4.8,0,6-2.4,6-6.6v-4c0-3.6-1.9-6-6-6H666.1z M676,541.6c2,0,2.6,1.1,2.6,2.7v1.9
		c0,1.5-0.5,2.7-2.6,2.7h-3.7v-7.4L676,541.6L676,541.6z"/>
	<path fill="#102B33" d="M666.3,628.7c-11.4,0-15.3-6.2-15.3-13.4v-16.8c0-3.8,1-7.1,3.6-9.4l7.4-6.2c2.3-1.9,5.8-3,11.2-3h14.9
		c1.8,0,2.6,0.8,2.6,2.6v7c0,1-0.3,1.7-0.8,2.2l-7.5,6.2c-0.3,0.3-1,0.6-1.8,0.6h-7.9v9.8c0,0.4,0,0.8,0.1,1.1v-1
		c0-1,0.3-1.7,0.8-2.2l7.4-6.2c0.4-0.3,1-0.5,1.8-0.5h9c1.8,0,2.6,0.8,2.6,2.6v17.8c0,1-0.3,1.7-0.8,2.2l-7.5,6.2
		c-0.3,0.3-1,0.6-1.8,0.6L666.3,628.7L666.3,628.7L666.3,628.7z M693.8,619.8V602c0-1.4-0.6-2.1-2.1-2.1h-9c-1.4,0-2.1,0.6-2.1,2.1
		v9h-6.1c-2.3,0-2.6-1.3-2.6-2.8v-13.8c0-1.5,0.5-2.9,3.5-2.9h12.4c1.4,0,2.1-0.6,2.1-2.1v-7c0-1.4-0.6-2.1-2.1-2.1h-14.7
		c-10.9,0-14.2,4.8-14.2,11.8v18c0,7,3.3,11.8,14.2,11.8h18.6C693.2,621.9,693.8,621.2,693.8,619.8z M665.3,609.2v-16.1
		c0-5.4,1.8-7.5,9.2-7.5h10.4v0.6h-10.4c-6.8,0-8.6,1.8-8.6,7v16.1c0,5,2,6.9,9.8,6.9H687v-11h0.6v11.6h-12
		C667.2,616.7,665.3,614.6,665.3,609.2z"/>
	<path fill="#102B33" d="M654,678.9c-1.8,0-2.6-0.8-2.6-2.6V639c0-1,0.3-1.7,0.8-2.2l7.4-6.2c0.4-0.3,1-0.5,1.8-0.5h29.8
		c1.8,0,2.6,0.8,2.6,2.6v6.7c0,1-0.3,1.7-0.8,2.2l-5,4.1c0.7,0.4,1.1,1.1,1.1,2.4v6.2c0,1-0.3,1.7-0.8,2.2l-5.1,4.3h7.9
		c1.8,0,2.6,0.8,2.6,2.6v6.7c0,1-0.3,1.7-0.8,2.2l-7.5,6.2c-0.3,0.3-1,0.6-1.8,0.6H654L654,678.9L654,678.9z M693.3,670v-6.7
		c0-1.4-0.6-2.1-2.1-2.1h-19v-5h14.3c1.4,0,2.1-0.6,2.1-2.1V648c0-1.5-0.6-2.1-2.1-2.1h-14.3v-4.4h19c1.4,0,2.1-0.6,2.1-2.1v-6.7
		c0-1.4-0.6-2.1-2.1-2.1h-29.8c-1.4,0-2.1,0.6-2.1,2.1V670c0,1.4,0.6,2.1,2.1,2.1h29.8C692.7,672,693.3,671.4,693.3,670z
		 M688.1,666.8h-22.6v-31h22.6v0.6H666v14.5h17.4v0.6H666v14.9h22.1V666.8z"/>
	<path fill="#102B33" d="M664.4,728.2c-0.3,0.3-1,0.6-1.8,0.6H654c-1.8,0-2.6-0.8-2.6-2.6v-37.3c0-1,0.3-1.7,0.8-2.2l7.4-6.2
		c0.4-0.3,1-0.5,1.8-0.5h6c1.7,0,2.7,0.5,3.8,1.8l3.4,4.3l6.6-5.6c0.4-0.3,1-0.5,1.8-0.5h8.6c1.8,0,2.6,0.8,2.6,2.6v37.3
		c0,1-0.3,1.7-0.8,2.2l-7.5,6.2c-0.3,0.3-1,0.6-1.8,0.6h-8.6c-1.8,0-2.6-0.8-2.6-2.6v-6.9l-0.5-0.6v1.2c0,1-0.3,1.7-0.8,2.2
		L664.4,728.2z M672,719.9v-19l9,11.9v7.1c0,1.4,0.6,2.1,2.1,2.1h8.6c1.4,0,2.1-0.6,2.1-2.1v-37.3c0-1.4-0.6-2.1-2.1-2.1h-8.6
		c-1.4,0-2.1,0.6-2.1,2.1v12.2l-10.4-12.8c-1-1.1-1.9-1.5-3.4-1.5h-6c-1.4,0-2.1,0.6-2.1,2.1V720c0,1.4,0.6,2.1,2.1,2.1h8.6
		C671.5,722,672,721.3,672,719.9z M666.9,686.1l20.2,23.8v-24.3h0.6v31.1h-0.6v-5.9l-20.8-24.4c-0.1-0.1-0.2-0.2-0.3-0.2
		c-0.1,0-0.1,0.1-0.1,0.2v30.3h-0.6v-30.5c0-0.5,0.3-0.7,0.7-0.7C666.5,685.6,666.5,685.7,666.9,686.1z"/>
	<path fill="#102B33" d="M664.3,778.7c-1.8,0-2.6-0.8-2.6-2.6v-27.7H654c-1.8,0-2.6-0.8-2.6-2.6v-7c0-1,0.3-1.7,0.8-2.2l7.4-6.2
		c0.4-0.3,1-0.5,1.8-0.5h30.4c1.8,0,2.6,0.8,2.6,2.6v7c0,1-0.3,1.7-0.8,2.2l-7.5,6.2c-0.3,0.3-1,0.6-1.8,0.6H684v21.4
		c0,1-0.3,1.7-0.8,2.2l-7.5,6.2c-0.3,0.3-1,0.6-1.8,0.6h-9.7V778.7L664.3,778.7z M683.5,769.8v-28.2h8.3c1.4,0,2.1-0.6,2.1-2.1v-7
		c0-1.4-0.6-2.1-2.1-2.1h-30.4c-1.4,0-2.1,0.6-2.1,2.1v7c0,1.4,0.6,2.1,2.1,2.1h8.3v28.2c0,1.4,0.6,2.1,2.1,2.1h9.7
		C682.8,771.9,683.5,771.2,683.5,769.8z M676.3,736.2h-11.8v-0.6h24.2v0.6h-11.8v30.5h-0.6L676.3,736.2L676.3,736.2z"/>
</g>
</svg>
