<?xml version="1.0" encoding="utf-8"?>
<!-- Generator: Adobe Illustrator 17.1.0, SVG Export Plug-In . SVG Version: 6.00 Build 0)  -->
<!DOCTYPE svg PUBLIC "-//W3C//DTD SVG 1.1//EN" "http://www.w3.org/Graphics/SVG/1.1/DTD/svg11.dtd">
<svg version="1.1" id="Layer_1" xmlns="http://www.w3.org/2000/svg" xmlns:xlink="http://www.w3.org/1999/xlink" x="0px" y="0px"
	 viewBox="146.2 0 247.5 300" enable-background="new 146.2 0 247.5 300" xml:space="preserve">
<g>
	<path fill="#432D2C" d="M160.9,172.3l-4.7-11.6c-1.2-2.9-1.6-3.8-1.6-6.9v-12.5c0-0.8,0.2-1.4,0.7-1.8l6.1-5.2
		c0.3-0.3,0.8-0.4,1.5-0.4h7.5c1.5,0,2.3,0.7,2.3,2.2v13c0,0.6,0.1,1.1,0.3,1.8l0.1,0.3v-10c0-0.8,0.2-1.4,0.7-1.8l6.1-5.2
		c0.3-0.3,0.8-0.4,1.5-0.4h7.4c1.6,0,2.2,0.7,2.2,2.2v12.5c0,3.1-0.4,4-1.6,6.9l-4.7,11.6c-0.2,0.6-0.5,1-0.8,1.3l-6.1,5.1
		c-0.5,0.5-1.1,0.7-2,0.7h-12.3C162.3,174.1,161.5,173.7,160.9,172.3z"/>
	<path fill="#432D2C" d="M198,174.1h-7c-1.5,0-2.2-0.7-2.2-2.2v-12.5c0-2,0.6-4.4,1.9-7.8l4.1-10.7c0.2-0.6,0.5-1,0.8-1.3l0.1-0.1
		l6.1-5.1c0.5-0.5,1.2-0.7,2.1-0.7h12.8c1.5,0,2.4,0.6,2.8,1.9l4.1,10.8c1.3,3.4,1.9,5.8,1.9,7.8v12.5c0,0.8-0.2,1.4-0.7,1.8
		l-6.2,5.1c-0.3,0.3-0.8,0.5-1.5,0.5h-7.2c-1.6,0-2.3-0.7-2.3-2.2v-6.2h-1.3v1c0,0.8-0.2,1.4-0.7,1.8l-6.2,5.1
		C199.2,173.9,198.6,174.1,198,174.1z"/>
	<path fill="#432D2C" d="M235.8,174.1c-8.3,0-12.1-4.7-12.1-11.6v-13.3c0-3.5,1-6,3-7.7l6.2-5.2c2-1.6,5-2.5,9.1-2.5h11.6
		c1.5,0,2.2,0.7,2.2,2.2v5.7c0,0.8-0.2,1.4-0.7,1.7l-6.2,5.1c-0.3,0.3-0.8,0.5-1.5,0.5h-5.8v8c0,1.3,0.8,1.8,2.4,1.8h9.5
		c1.5,0,2.2,0.7,2.2,2.2v5.6c0,0.8-0.2,1.4-0.7,1.8l-6.2,5.1c-0.3,0.3-0.8,0.5-1.5,0.5H235.8L235.8,174.1L235.8,174.1z"/>
	<path fill="#432D2C" d="M262.4,174.1h-7c-1.5,0-2.2-0.7-2.2-2.2v-12.5c0-2,0.6-4.4,1.9-7.8l4.1-10.7c0.2-0.6,0.5-1,0.8-1.3l0.1-0.1
		l6.1-5.1c0.5-0.5,1.2-0.7,2.1-0.7H281c1.5,0,2.4,0.6,2.8,1.9l4.1,10.8c1.3,3.4,1.9,5.8,1.9,7.8v12.5c0,0.8-0.2,1.4-0.7,1.8
		l-6.2,5.1c-0.3,0.3-0.8,0.5-1.5,0.5h-7.1c-1.6,0-2.3-0.7-2.3-2.2v-6.2h-1.3v1c0,0.8-0.2,1.4-0.7,1.8l-6.2,5.1
		C263.6,173.9,263.1,174.1,262.4,174.1z"/>
	<path fill="#432D2C" d="M299.4,173.7c-0.3,0.3-0.8,0.5-1.5,0.5h-7.1c-1.5,0-2.2-0.7-2.2-2.2v-30.8c0-0.8,0.2-1.4,0.7-1.8l6.1-5.2
		c0.3-0.3,0.8-0.4,1.5-0.4h4.9c1.4,0,2.2,0.4,3.2,1.4l3.3,3.8l5.7-4.8c0.3-0.3,0.8-0.4,1.5-0.4h7.1c1.5,0,2.2,0.7,2.2,2.2v30.8
		c0,0.8-0.2,1.4-0.7,1.8l-6.2,5.1c-0.3,0.3-0.8,0.5-1.5,0.5h-7.1c-1.5,0-2.2-0.7-2.2-2.2v-5.6l-1-1.3v1.7c0,0.8-0.2,1.4-0.7,1.8
		L299.4,173.7z"/>
	<path fill="#432D2C" d="M335.9,174.1c-8.3,0-12.1-4.7-12.1-11.6v-13.3c0-3.5,1-6,3-7.7l6.2-5.2c1.9-1.6,5-2.5,9.1-2.5h11.6
		c1.5,0,2.2,0.7,2.2,2.2v5.7c0,0.8-0.2,1.4-0.7,1.7l-6.2,5.1c-0.3,0.3-0.8,0.5-1.5,0.5h-5.8v8c0,1.3,0.8,1.8,2.4,1.8h9.5
		c1.5,0,2.2,0.7,2.2,2.2v5.6c0,0.8-0.2,1.4-0.7,1.8l-6.2,5.1c-0.3,0.3-0.8,0.5-1.5,0.5H335.9L335.9,174.1L335.9,174.1z"/>
	<path fill="#432D2C" d="M364.2,174.1c-1.6,0-2.2-0.7-2.2-2.2v-5.9l-7.2-9.6c-1.5-2-1.9-3-1.9-6.1v-9.1c0-0.8,0.2-1.4,0.7-1.8
		l6.1-5.2c0.3-0.3,0.8-0.4,1.5-0.4h7.3c1.5,0,2.2,0.7,2.2,2.2v7.8c0,0.6,0,1.1,0.3,1.7l0.6,0.8v-5.2c0-0.8,0.2-1.4,0.7-1.8l6.1-5.2
		c0.3-0.3,0.8-0.4,1.5-0.4h7c1.5,0,2.2,0.7,2.2,2.2v9.1c0,3.1-0.4,4.1-1.9,6.1l-7.1,9.6v5.9c0,0.8-0.2,1.4-0.7,1.8l-6.2,5.1
		c-0.3,0.3-0.8,0.5-1.5,0.5L364.2,174.1L364.2,174.1L364.2,174.1z"/>
</g>
<path fill="#F7FCFF" d="M167.1,138.6v10.3c0,1.6,0.2,3.1,0.8,4.4l3.1,7.6c0.7,1.6,1.2,2.9,3,2.9h4.2c1.8,0,2.3-1.2,3-2.9l3.1-7.6
	c0.5-1.3,0.8-2.8,0.8-4.4v-10.3h0.5v10.3c0,1.7-0.2,3.2-0.8,4.6l-3.1,7.6c-0.8,1.9-1.5,3.2-3.4,3.2H174c-2,0-2.7-1.3-3.4-3.2
	l-3.1-7.6c-0.6-1.4-0.8-2.9-0.8-4.6v-10.3H167.1z"/>
<path fill="#F7FCFF" d="M219.5,156h-18.5v8.2h-0.5v-10.1c0-1.7,0.3-3.2,0.8-4.6l3-7.8c0.7-1.8,1.3-3.1,3.4-3.1h4.7
	c2.1,0,2.7,1.3,3.4,3.2l3.3,7.7c0.5,1.4,0.8,2.9,0.8,4.6v10.1h-0.5L219.5,156L219.5,156L219.5,156z M200.9,155.6h18.5v-1.5
	c0-1.7-0.3-3.1-0.8-4.4l-3.3-7.7c-0.7-1.6-1.2-2.9-3-2.9h-4.7c-1.9,0-2.4,1.2-3,2.9l-3,7.8c-0.5,1.3-0.8,2.7-0.8,4.4L200.9,155.6
	L200.9,155.6z"/>
<path fill="#F7FCFF" d="M250.9,164.2H243c-6.2,0-7.6-1.7-7.6-6.1v-13.3c0-4.5,1.5-6.2,7.6-6.2h7.9v0.5H243c-5.6,0-7.1,1.5-7.1,5.7
	v13.3c0,4.1,1.4,5.6,7.1,5.6h7.9V164.2z"/>
<path fill="#F7FCFF" d="M283.8,156h-18.5v8.2h-0.5v-10.1c0-1.7,0.3-3.2,0.8-4.6l3-7.8c0.7-1.8,1.3-3.1,3.5-3.1h4.6
	c2.1,0,2.7,1.3,3.4,3.2l3.3,7.7c0.5,1.4,0.8,2.9,0.8,4.6v10.1h-0.5L283.8,156L283.8,156L283.8,156z M265.4,155.6h18.5v-1.5
	c0-1.7-0.3-3.1-0.8-4.4l-3.3-7.7c-0.7-1.6-1.2-2.9-3-2.9h-4.6c-1.9,0-2.4,1.2-3,2.9l-3,7.8c-0.5,1.3-0.8,2.7-0.8,4.4L265.4,155.6
	L265.4,155.6z"/>
<path fill="#F7FCFF" d="M318.9,158.6v-20h0.5v25.6h-0.5v-4.9L301,139.2c-0.1-0.1-0.1-0.1-0.2-0.1c-0.1,0-0.1,0.1-0.1,0.1v25h-0.5
	v-25.1c0-0.4,0.3-0.6,0.6-0.6c0.3,0,0.4,0.1,0.7,0.4L318.9,158.6z"/>
<path fill="#F7FCFF" d="M351,164.2h-7.9c-6.2,0-7.6-1.7-7.6-6.1v-13.3c0-4.5,1.5-6.2,7.6-6.2h7.9v0.5h-7.9c-5.6,0-7.1,1.5-7.1,5.7
	v13.3c0,4.1,1.4,5.6,7.1,5.6h7.9V164.2z"/>
<path fill="#F7FCFF" d="M374.4,156.1v8.1h-0.5v-8.1h-0.5c-1.4,0-2.4-0.6-3.5-2l-4.6-6.4c-0.7-1-0.7-2.3-0.7-3.7v-5.5h0.5v5.5
	c0,1.3,0.1,2.5,0.7,3.4l4.6,6.4c0.8,1.3,2,1.7,3,1.7h1.3c1.2,0,2.1-0.5,3.1-1.7l4.7-6.4c0.7-0.8,0.7-2.1,0.7-3.4v-5.5h0.5v5.5
	c0,1.4,0.1,2.7-0.7,3.7l-4.7,6.4c-1,1.4-2,2-3.5,2H374.4z"/>
<g>
	<g>
		<path fill="#28507C" d="M155.1,187.3c0-0.4,0.2-0.6,0.6-0.6h9.2c5,0,7.9,2.9,7.9,7.9v9.2c0,0.4-0.2,0.6-0.6,0.6h-16.6
			c-0.3,0-0.5-0.2-0.5-0.5C155.1,203.9,155.1,187.3,155.1,187.3z"/>
		<path fill="#28507C" d="M174.7,187.3c0-0.4,0.2-0.6,0.6-0.6h9.2c5,0,7.9,2.9,7.9,7.9v9.2c0,0.4-0.2,0.6-0.6,0.6h-16.6
			c-0.3,0-0.5-0.2-0.5-0.5V187.3L174.7,187.3z"/>
		<path fill="#28507C" d="M194.3,187.3c0-0.4,0.2-0.6,0.6-0.6h9.2c5,0,7.9,2.9,7.9,7.9v9.2c0,0.4-0.2,0.6-0.6,0.6h-16.6
			c-0.3,0-0.5-0.2-0.5-0.5L194.3,187.3L194.3,187.3z"/>
		<path fill="#28507C" d="M213.9,187.3c0-0.4,0.2-0.6,0.6-0.6h9.2c5,0,7.9,2.9,7.9,7.9v9.2c0,0.4-0.2,0.6-0.6,0.6h-16.6
			c-0.3,0-0.5-0.2-0.5-0.5L213.9,187.3L213.9,187.3z"/>
		<path fill="#28507C" d="M233.5,187.3c0-0.4,0.2-0.6,0.6-0.6h9.2c5,0,7.9,2.9,7.9,7.9v9.2c0,0.4-0.2,0.6-0.6,0.6h-16.6
			c-0.3,0-0.5-0.2-0.5-0.5L233.5,187.3L233.5,187.3z"/>
		<path fill="#28507C" d="M253.2,187.3c0-0.4,0.2-0.6,0.6-0.6h9.2c5,0,7.9,2.9,7.9,7.9v9.2c0,0.4-0.2,0.6-0.6,0.6h-16.6
			c-0.3,0-0.5-0.2-0.5-0.5L253.2,187.3L253.2,187.3z"/>
		<path fill="#28507C" d="M272.8,187.3c0-0.4,0.2-0.6,0.6-0.6h9.2c5,0,7.9,2.9,7.9,7.9v9.2c0,0.4-0.2,0.6-0.6,0.6h-16.6
			c-0.3,0-0.5-0.2-0.5-0.5L272.8,187.3L272.8,187.3z"/>
		<path fill="#28507C" d="M292.4,187.3c0-0.4,0.2-0.6,0.6-0.6h9.2c5,0,7.9,2.9,7.9,7.9v9.2c0,0.4-0.2,0.6-0.6,0.6h-16.6
			c-0.3,0-0.5-0.2-0.5-0.5L292.4,187.3L292.4,187.3z"/>
		<path fill="#28507C" d="M312,187.3c0-0.4,0.2-0.6,0.6-0.6h9.2c5,0,7.9,2.9,7.9,7.9v9.2c0,0.4-0.2,0.6-0.6,0.6h-16.6
			c-0.3,0-0.5-0.2-0.5-0.5L312,187.3L312,187.3z"/>
		<path fill="#28507C" d="M331.7,187.3c0-0.4,0.2-0.6,0.6-0.6h9.2c5,0,7.9,2.9,7.9,7.9v9.2c0,0.4-0.2,0.6-0.6,0.6h-16.6
			c-0.3,0-0.5-0.2-0.5-0.5L331.7,187.3L331.7,187.3z"/>
		<path fill="#28507C" d="M351.3,187.3c0-0.4,0.2-0.6,0.6-0.6h9.2c5,0,7.9,2.9,7.9,7.9v9.2c0,0.4-0.2,0.6-0.6,0.6h-16.7
			c-0.3,0-0.5-0.2-0.5-0.5L351.3,187.3L351.3,187.3z"/>
		<path fill="#28507C" d="M370.9,187.3c0-0.4,0.2-0.6,0.6-0.6h9.2c5,0,7.9,2.9,7.9,7.9v9.2c0,0.4-0.2,0.6-0.6,0.6h-16.6
			c-0.3,0-0.5-0.2-0.5-0.5L370.9,187.3L370.9,187.3z"/>
	</g>
	<g>
		<path fill="#F6F1AC" d="M160.1,201.5c-0.4,0-0.5-0.2-0.5-0.5v-9.3c0-0.4,0.1-0.5,0.5-0.5h2.2c0.4,0,0.5,0.1,0.5,0.5v7.1h2.2v-2.3
			c0-0.4,0.1-0.5,0.5-0.5h2.1c0.4,0,0.5,0.2,0.5,0.5v4.5c0,0.4-0.1,0.5-0.5,0.5H160.1z"/>
		<path fill="#F6F1AC" d="M183.5,201.6c-3.4,0-4.3-1.2-4.3-2.9v-7.1c0-0.4,0.1-0.5,0.5-0.5h2.2c0.4,0,0.5,0.1,0.5,0.5v6.6
			c0,0.4,0.2,0.7,1.1,0.7c0.9,0,1.1-0.3,1.1-0.7v-6.6c0-0.4,0.1-0.5,0.5-0.5h2.2c0.4,0,0.5,0.1,0.5,0.5v7.1
			C187.8,200.4,187,201.6,183.5,201.6z"/>
		<path fill="#F6F1AC" d="M199.4,201.5c-0.4,0-0.5-0.2-0.5-0.5v-9.3c0-0.4,0.1-0.5,0.5-0.5h1.5c0.4,0,0.6,0.1,0.8,0.4l2.6,3.2v-3
			c0-0.4,0.1-0.5,0.5-0.5h2.2c0.4,0,0.5,0.1,0.5,0.5v9.3c0,0.4-0.1,0.5-0.5,0.5h-2.2c-0.4,0-0.5-0.2-0.5-0.5v-1.8l-2.2-3v4.7
			c0,0.4-0.1,0.5-0.5,0.5L199.4,201.5L199.4,201.5L199.4,201.5z"/>
		<path fill="#F6F1AC" d="M221.9,201.5c-2.7,0-3.5-1.2-3.5-2.9v-4.5c0-1.8,0.8-2.9,3.5-2.9h4.5c0.4,0,0.5,0.1,0.5,0.5v1.7
			c0,0.4-0.2,0.5-0.5,0.5h-3.9c-0.8,0-0.9,0.4-0.9,0.7v3.4c0,0.4,0.1,0.7,0.9,0.7h3.9c0.4,0,0.5,0.2,0.5,0.5v1.7
			c0,0.4-0.2,0.5-0.5,0.5L221.9,201.5L221.9,201.5z"/>
		<path fill="#F6F1AC" d="M238.6,201.5c-0.4,0-0.5-0.2-0.5-0.5v-9.3c0-0.4,0.2-0.5,0.5-0.5h2.2c0.4,0,0.5,0.1,0.5,0.5v3.1h2.1v-3.1
			c0-0.4,0.1-0.5,0.5-0.5h2.2c0.4,0,0.5,0.1,0.5,0.5v9.3c0,0.4-0.1,0.5-0.5,0.5h-2.2c-0.4,0-0.5-0.2-0.5-0.5v-3.2h-2.1v3.2
			c0,0.4-0.1,0.5-0.5,0.5L238.6,201.5L238.6,201.5z"/>
		<path fill="#F6F1AC" d="M258.2,201.5c-0.4,0-0.5-0.2-0.5-0.5v-9.3c0-0.4,0.1-0.5,0.5-0.5h7.5c0.4,0,0.5,0.1,0.5,0.5v1.7
			c0,0.4-0.1,0.5-0.5,0.5h-4.7v1.1h3.6c0.4,0,0.5,0.2,0.5,0.5v1.5c0,0.4-0.1,0.5-0.5,0.5h-3.6v1.2h4.7c0.4,0,0.5,0.1,0.5,0.5v1.7
			c0,0.4-0.1,0.5-0.5,0.5L258.2,201.5L258.2,201.5z"/>
		<path fill="#F6F1AC" d="M281.6,201.6c-3.5,0-4.4-1.2-4.4-2.9v-4.9c0-1.8,0.8-2.9,4.4-2.9c3.5,0,4.4,1.2,4.4,2.9v4.9
			C286,200.4,285.1,201.6,281.6,201.6z M281.6,198.9c1,0,1.1-0.3,1.1-0.7v-3.9c0-0.4-0.1-0.7-1.1-0.7s-1.1,0.3-1.1,0.7v3.9
			C280.5,198.6,280.6,198.9,281.6,198.9z"/>
		<path fill="#F6F1AC" d="M297.4,201.5c-0.4,0-0.5-0.2-0.5-0.5v-9.3c0-0.4,0.1-0.5,0.5-0.5h1.5c0.4,0,0.6,0.1,0.8,0.4l2.6,3.2v-3
			c0-0.4,0.1-0.5,0.5-0.5h2.2c0.4,0,0.5,0.1,0.5,0.5v9.3c0,0.4-0.1,0.5-0.5,0.5h-2.2c-0.4,0-0.5-0.2-0.5-0.5v-1.8l-2.2-3v4.7
			c0,0.4-0.1,0.5-0.5,0.5L297.4,201.5L297.4,201.5L297.4,201.5z"/>
		<path fill="#F6F1AC" d="M317,201.5c-0.4,0-0.5-0.2-0.5-0.5v-9.3c0-0.4,0.2-0.5,0.5-0.5h7.5c0.4,0,0.5,0.1,0.5,0.5v1.7
			c0,0.4-0.1,0.5-0.5,0.5h-4.7v1.1h3.6c0.4,0,0.5,0.2,0.5,0.5v1.5c0,0.4-0.1,0.5-0.5,0.5h-3.6v1.2h4.7c0.4,0,0.5,0.1,0.5,0.5v1.7
			c0,0.4-0.1,0.5-0.5,0.5L317,201.5L317,201.5z"/>
		<path fill="#F6F1AC" d="M339.2,201.5c-0.4,0-0.5-0.2-0.5-0.5v-7.1h-2.1c-0.4,0-0.5-0.2-0.5-0.5v-1.7c0-0.4,0.1-0.5,0.5-0.5h7.6
			c0.4,0,0.5,0.2,0.5,0.5v1.7c0,0.4-0.2,0.5-0.5,0.5h-2.1v7.1c0,0.4-0.2,0.5-0.5,0.5H339.2z"/>
		<path fill="#F6F1AC" d="M358.8,201.5c-0.4,0-0.5-0.2-0.5-0.5v-7.1h-2.1c-0.4,0-0.5-0.2-0.5-0.5v-1.7c0-0.4,0.2-0.5,0.5-0.5h7.6
			c0.4,0,0.5,0.2,0.5,0.5v1.7c0,0.4-0.1,0.5-0.5,0.5h-2.1v7.1c0,0.4-0.2,0.5-0.5,0.5H358.8z"/>
		<path fill="#F6F1AC" d="M375.9,201.5c-0.4,0-0.5-0.2-0.5-0.5v-9.3c0-0.4,0.2-0.5,0.5-0.5h7.5c0.4,0,0.5,0.1,0.5,0.5v1.7
			c0,0.4-0.1,0.5-0.5,0.5h-4.7v1.1h3.6c0.4,0,0.5,0.2,0.5,0.5v1.5c0,0.4-0.1,0.5-0.5,0.5h-3.6v1.2h4.7c0.4,0,0.5,0.1,0.5,0.5v1.7
			c0,0.4-0.1,0.5-0.5,0.5L375.9,201.5L375.9,201.5z"/>
	</g>
</g>
<g>
	<g>
		<path fill="#432D2C" d="M176.3,120.8h-10.1c-7.2,0-10.5-2.9-10.5-8.8V99.1c0-6,3.3-8.8,10.5-8.8h10.1c1.3,0,1.9,0.6,1.9,1.9v5
			c0,1.3-0.6,1.9-1.9,1.9h-8.2c-1.4,0-2.1,0.5-2.1,1.7v9.8c0,1.2,0.7,1.6,2.1,1.6h8.2c1.3,0,1.9,0.6,1.9,1.9v4.9
			C178.2,120.2,177.6,120.8,176.3,120.8z"/>
		<path fill="#432D2C" d="M207.8,112.6c0,5.2-2.4,8.8-13.2,8.8c-10.8,0-13.2-3.6-13.2-8.8v-14c0-5.2,2.4-8.8,13.2-8.8
			s13.2,3.7,13.2,8.8V112.6z M191.6,111.1c0,1,0.7,1.5,3.1,1.5s3.1-0.6,3.1-1.5V100c0-0.9-0.7-1.5-3.1-1.5c-2.3,0-3.1,0.6-3.1,1.5
			V111.1z"/>
		<path fill="#432D2C" d="M232.3,120.8h-10c-7.2,0-10.5-2.9-10.5-8.8V99.1c0-6,3.3-8.8,10.5-8.8h10c1.3,0,1.9,0.6,1.9,1.9v5
			c0,1.3-0.6,1.9-1.9,1.9h-8.2c-1.4,0-2.1,0.5-2.1,1.7v9.8c0,1.2,0.7,1.6,2.1,1.6h8.2c1.3,0,1.9,0.6,1.9,1.9v4.9
			C234.1,120.2,233.6,120.8,232.3,120.8z"/>
		<path fill="#432D2C" d="M239.9,120.8c-1.3,0-1.9-0.6-1.9-1.9V92.2c0-1.3,0.6-1.9,1.9-1.9h6.4c1.3,0,1.9,0.6,1.9,1.9v9h1l4.1-9.3
			c0.5-1.2,1.2-1.6,2.4-1.6h6.3c1.3,0,1.8,0.7,1.3,1.9l-3.9,9c3,0.4,4.8,2.6,4.8,6v11.6c0,1.3-0.6,1.9-1.9,1.9H256
			c-1.3,0-1.9-0.6-1.9-1.9v-8c0-0.6-0.3-1-0.9-1h-5v9c0,1.3-0.6,1.9-1.9,1.9L239.9,120.8L239.9,120.8L239.9,120.8z"/>
		<path fill="#432D2C" d="M273.5,118.9V99.1h-5.6c-1.3,0-1.9-0.6-1.9-1.9v-5c0-1.3,0.6-1.9,1.9-1.9h21.8c1.3,0,1.9,0.6,1.9,1.9v5
			c0,1.3-0.6,1.9-1.9,1.9H284v19.8c0,1.3-0.6,1.9-1.9,1.9h-6.7C274,120.8,273.5,120.2,273.5,118.9z"/>
		<path fill="#432D2C" d="M294,118.9V98.5c0-5.1,2.2-8.8,12.9-8.8c10.8,0,13,3.7,13,8.8v20.4c0,1.3-0.6,1.9-1.9,1.9h-6.3
			c-1.3,0-1.9-0.6-1.9-1.9v-5.7h-6v5.7c0,1.3-0.6,1.9-1.9,1.9h-6C294.6,120.8,294,120.2,294,118.9z M303.9,104.8h6v-4.9
			c0-1-0.7-1.5-3-1.5c-2.3,0-3,0.6-3,1.5V104.8L303.9,104.8z"/>
		<path fill="#432D2C" d="M333,120.8h-6.5c-1.3,0-1.9-0.6-1.9-1.9V92.2c0-1.3,0.6-1.9,1.9-1.9h6.5c1.3,0,1.9,0.6,1.9,1.9v26.7
			C334.8,120.2,334.3,120.8,333,120.8z"/>
		<path fill="#432D2C" d="M339.8,118.9V92.2c0-1.3,0.6-1.9,1.9-1.9h6.4c1.3,0,1.9,0.6,1.9,1.9V112H360c1.3,0,1.9,0.6,1.9,1.9v5
			c0,1.3-0.6,1.9-1.9,1.9h-18.3C340.3,120.8,339.8,120.2,339.8,118.9z"/>
		<path fill="#432D2C" d="M379,120.8h-13c-1.3,0-1.9-0.6-1.9-1.9V114c0-1.3,0.6-1.8,1.9-1.8h11.1c0.5,0,0.7-0.4,0.7-0.8
			c0-0.6-0.2-0.9-0.7-1l-6.2-0.9c-4.1-0.6-6.8-2.5-6.8-7.3v-4.4c0-4.9,3.3-7.5,8.9-7.5h11.5c1.3,0,1.9,0.6,1.9,1.8V97
			c0,1.3-0.6,2-1.9,2H375c-0.5,0-0.7,0.4-0.7,0.8c0,0.5,0.2,0.9,0.7,0.9l6.1,0.8c4.1,0.6,6.8,2.3,6.8,7.2v4.3
			C387.9,118,384.6,120.8,379,120.8z"/>
	</g>
	<path fill="#FFFFFF" d="M166.3,120.4c-6.9,0-10.1-2.7-10.1-8.4V99.2c0-5.7,3.2-8.4,10.1-8.4h10.1c1,0,1.5,0.4,1.5,1.5v5
		c0,1-0.4,1.5-1.5,1.5h-8.3c-1.7,0-2.5,0.7-2.5,2.1v9.8c0,1.4,0.8,2,2.5,2h8.2c1,0,1.5,0.4,1.5,1.5v4.9c0,1-0.4,1.5-1.5,1.5
		L166.3,120.4C166.3,120.3,166.3,120.4,166.3,120.4z"/>
	<path fill="#FFFFFF" d="M194.6,121c-10.3,0-12.8-3.4-12.8-8.4v-14c0-5,2.5-8.4,12.8-8.4c10.3,0,12.8,3.4,12.8,8.4v14
		C207.3,117.6,204.9,121,194.6,121z M194.6,113.1c3,0,3.4-0.8,3.4-2V100c0-1-0.4-1.9-3.4-1.9c-3,0-3.4,0.8-3.4,1.9v11.1
		C191.1,112.2,191.6,113.1,194.6,113.1z"/>
	<path fill="#FFFFFF" d="M222.2,120.4c-6.9,0-10.1-2.7-10.1-8.4V99.2c0-5.7,3.2-8.4,10.1-8.4h10c1,0,1.5,0.4,1.5,1.5v5
		c0,1-0.4,1.5-1.5,1.5H224c-1.7,0-2.5,0.7-2.5,2.1v9.8c0,1.4,0.8,2,2.5,2h8.2c1,0,1.5,0.4,1.5,1.5v4.9c0,1-0.4,1.5-1.5,1.5
		L222.2,120.4L222.2,120.4z"/>
	<path fill="#FFFFFF" d="M239.9,120.4c-1,0-1.5-0.5-1.5-1.5V92.2c0-1,0.4-1.5,1.5-1.5h6.4c1,0,1.5,0.5,1.5,1.5v9.5h1.6l4.2-9.6
		c0.4-1,1-1.4,2.1-1.4h6.3c0.9,0,1.3,0.5,0.9,1.4l-4.2,9.6c3.1,0.2,5.1,2.3,5.1,5.6v11.6c0,1-0.5,1.5-1.5,1.5H256
		c-1,0-1.5-0.5-1.5-1.5v-8c0-0.9-0.5-1.4-1.3-1.4h-5.4v9.4c0,1-0.5,1.5-1.5,1.5H239.9L239.9,120.4z"/>
	<path fill="#FFFFFF" d="M275.4,120.4c-1,0-1.5-0.5-1.5-1.5V98.7h-6c-1,0-1.5-0.5-1.5-1.5v-5c0-1,0.5-1.5,1.5-1.5h21.8
		c1,0,1.5,0.4,1.5,1.5v5c0,1-0.4,1.5-1.5,1.5h-6.1v20.2c0,1-0.5,1.5-1.5,1.5H275.4z"/>
	<path fill="#FFFFFF" d="M302,120.4h-6.1c-1,0-1.5-0.5-1.5-1.5V98.5c0-4.9,2.3-8.4,12.5-8.4c10.2,0,12.5,3.4,12.5,8.4v20.4
		c0,1-0.5,1.5-1.5,1.5h-6.3c-1,0-1.5-0.5-1.5-1.5v-6.1h-6.8v6.1C303.4,119.9,303,120.4,302,120.4z M303.4,105.2h6.8v-5.3
		c0-1.1-0.5-2-3.4-2s-3.4,0.8-3.4,2V105.2L303.4,105.2z"/>
	<path fill="#FFFFFF" d="M326.4,120.4c-1,0-1.5-0.5-1.5-1.5V92.2c0-1,0.5-1.5,1.5-1.5h6.5c1,0,1.5,0.5,1.5,1.5v26.7
		c0,1-0.5,1.5-1.5,1.5H326.4L326.4,120.4z"/>
	<path fill="#FFFFFF" d="M349.5,92.2v20.2H360c1,0,1.5,0.4,1.5,1.5v5c0,1-0.5,1.5-1.5,1.5h-18.3c-1,0-1.5-0.5-1.5-1.5V92.2
		c0-1,0.5-1.5,1.5-1.5h6.4C349,90.8,349.5,91.2,349.5,92.2z"/>
	<path fill="#FFFFFF" d="M366,120.4c-1,0-1.5-0.5-1.5-1.5v-4.8c0-1,0.5-1.5,1.5-1.5h11.1c0.7,0,1-0.6,1-1.2c0-0.9-0.4-1.3-1-1.4
		l-6.2-0.9c-3.9-0.6-6.4-2.2-6.4-6.8V98c0-4.9,3.2-7.2,8.5-7.2h11.5c1,0,1.5,0.4,1.5,1.5v4.8c0,1-0.5,1.5-1.5,1.5H375
		c-0.7,0-1.1,0.5-1.1,1.2s0.4,1.2,1.1,1.3l6.1,0.8c3.9,0.6,6.4,2.2,6.4,6.8v4.3c0,4.7-3.2,7.2-8.5,7.2H366L366,120.4z"/>
	<g>
		<path fill="#92CAD3" d="M174,116.7h-6.9c-5.4,0-6.6-1.5-6.6-5.3V99.9c0-3.9,1.3-5.4,6.6-5.4h6.9v0.4h-6.9c-4.8,0-6.2,1.3-6.2,4.9
			v11.5c0,3.6,1.2,4.9,6.2,4.9h6.9V116.7z"/>
		<path fill="#92CAD3" d="M194.5,117.2c-6.4,0-8.2-2.2-8.2-5.6V99.5c0-3.3,1.8-5.6,8.2-5.6s8.4,2.2,8.4,5.6v12.1
			C202.9,115,201,117.2,194.5,117.2z M194.5,116.8c6.1,0,7.9-2.1,7.9-5.1V99.5c0-3.1-1.8-5.1-7.9-5.1s-7.9,2.1-7.9,5.1v12.2
			C186.6,114.8,188.4,116.8,194.5,116.8z"/>
		<path fill="#92CAD3" d="M230,116.7h-6.9c-5.4,0-6.6-1.5-6.6-5.3V99.9c0-3.9,1.3-5.4,6.6-5.4h6.9v0.4h-6.9c-4.8,0-6.2,1.3-6.2,4.9
			v11.5c0,3.6,1.2,4.9,6.2,4.9h6.9V116.7z"/>
		<path fill="#92CAD3" d="M242.9,116.7V94.5h0.4v10.9h8.9l4.7-10.9h0.5l-4.7,10.9h1.7c3.4,0,5,1.2,5,4v7.2h-0.4v-7.2
			c0-2.6-1.5-3.6-4.6-3.6h-11.1v10.9L242.9,116.7L242.9,116.7z"/>
		<path fill="#92CAD3" d="M278.5,94.9h-8.4v-0.4h17.3v0.4h-8.4v21.8h-0.4V94.9L278.5,94.9z"/>
		<path fill="#92CAD3" d="M314.6,109.2h-15.3v7.5h-0.4V99.5c0-3.3,1.5-5.5,8-5.5c6.4,0,8.1,2.2,8.1,5.5v17.2h-0.4V109.2z
			 M299.4,108.9h15.3v-9.3c0-3.1-1.6-5.1-7.7-5.1s-7.6,2.1-7.6,5.1V108.9L299.4,108.9z"/>
		<path fill="#92CAD3" d="M329.9,94.5v22.2h-0.4V94.5H329.9L329.9,94.5z"/>
		<path fill="#92CAD3" d="M345,94.5v21.8h12.7v0.4h-13.1V94.4L345,94.5L345,94.5z"/>
		<path fill="#92CAD3" d="M382.3,94.9h-9.1c-2.3,0-3.8,1.4-3.8,3.3v3.4c0,2,0.8,2.5,2.1,2.7l8.7,1.8c1.6,0.3,2.8,1.2,2.8,4v2.4
			c0,2.4-1.8,4.2-4.6,4.2h-10.2v-0.4h10.2c2.5,0,4.2-1.6,4.2-3.8v-2.4c0-2.6-1-3.3-2.5-3.6l-8.7-1.8c-1.5-0.3-2.4-0.9-2.4-3.2v-3.4
			c0-2.2,1.7-3.8,4.2-3.8h9.1V94.9L382.3,94.9z"/>
	</g>
</g>
<g>
	<path fill="#DA4226" stroke="#DA4226" stroke-width="0.25" stroke-miterlimit="10" d="M155,78.2V61.8c0-0.8,0.4-1.2,1.2-1.2h3.9
		c0.8,0,1.2,0.4,1.2,1.2V67h3.7v-5.2c0-0.8,0.4-1.2,1.2-1.2h3.9c0.8,0,1.2,0.4,1.2,1.2v16.4c0,0.8-0.4,1.2-1.2,1.2h-3.9
		c-0.8,0-1.2-0.4-1.2-1.2v-5.4h-3.7v5.4c0,0.8-0.4,1.2-1.2,1.2h-3.9C155.4,79.4,155,79,155,78.2z M161,78.2v-5.6h4.2v5.6
		c0,0.6,0.3,0.9,0.9,0.9h3.9c0.6,0,0.9-0.3,0.9-0.9V61.8c0-0.6-0.3-0.9-0.9-0.9h-3.9c-0.6,0-0.9,0.3-0.9,0.9v5.5H161v-5.5
		c0-0.6-0.3-0.9-0.9-0.9h-3.9c-0.6,0-0.9,0.3-0.9,0.9v16.4c0,0.6,0.3,0.9,0.9,0.9h3.9C160.7,79.1,161,78.8,161,78.2z M157.9,63.2
		h0.2v6.7h9.7v-6.7h0.2v13.6h-0.2v-6.7h-9.7v6.7h-0.2C157.9,76.8,157.9,63.2,157.9,63.2z"/>
	<path fill="#DA4226" stroke="#DA4226" stroke-width="0.25" stroke-miterlimit="10" d="M190.1,74.3c0,3.2-1.5,5.4-8.1,5.4
		c-6.6,0-8.1-2.2-8.1-5.4v-8.6c0-3.2,1.5-5.4,8.1-5.4c6.6,0,8.1,2.2,8.1,5.4V74.3z M189.9,65.7c0-3.1-1.5-5.2-7.8-5.2
		c-6.3,0-7.9,2.1-7.9,5.2v8.6c0,3.1,1.5,5.2,7.9,5.2c6.3,0,7.8-2.1,7.8-5.2V65.7z M181.9,77.1c-4,0-5.1-1.3-5.1-3.4v-7.4
		c0-2,1.1-3.4,5.1-3.4c4,0,5.1,1.4,5.1,3.4v7.5C187.1,75.8,185.9,77.1,181.9,77.1z M181.9,76.9c3.8,0,4.9-1.3,4.9-3.2v-7.5
		c0-1.9-1.1-3.1-4.9-3.1c-3.8,0-4.8,1.3-4.8,3.1v7.5C177.1,75.6,178.2,76.9,181.9,76.9z M179.9,66.6c0-0.7,0.3-1.2,2.1-1.2
		s2.1,0.5,2.1,1.2v6.8c0,0.7-0.3,1.2-2.1,1.2c-1.8,0-2.1-0.5-2.1-1.2V66.6z M180.1,73.4c0,0.6,0.4,0.9,1.9,0.9s1.9-0.3,1.9-0.9v-6.8
		c0-0.6-0.4-0.9-1.9-0.9c-1.4,0-1.9,0.3-1.9,0.9V73.4z"/>
	<path fill="#DA4226" stroke="#DA4226" stroke-width="0.25" stroke-miterlimit="10" d="M196.3,78.2V66h-3.4c-0.8,0-1.2-0.4-1.2-1.2
		v-3.1c0-0.8,0.4-1.2,1.2-1.2h13.3c0.8,0,1.2,0.4,1.2,1.2v3.1c0,0.8-0.4,1.2-1.2,1.2h-3.4v12.1c0,0.8-0.4,1.2-1.2,1.2h-4.1
		C196.6,79.4,196.3,79,196.3,78.2z M202.4,78.2V65.8h3.7c0.6,0,0.9-0.3,0.9-0.9v-3.1c0-0.6-0.3-0.9-0.9-0.9h-13.3
		c-0.6,0-0.9,0.3-0.9,0.9v3.1c0,0.6,0.3,0.9,0.9,0.9h3.7v12.4c0,0.6,0.3,0.9,0.9,0.9h4.1C202.2,79.1,202.4,78.8,202.4,78.2z
		 M199.4,63.4h-5.2v-0.2h10.6v0.2h-5.2v13.4h-0.2L199.4,63.4L199.4,63.4z"/>
	<path fill="#DA4226" stroke="#DA4226" stroke-width="0.25" stroke-miterlimit="10" d="M214.7,78.2V61.8c0-0.8,0.4-1.2,1.2-1.2h11.3
		c0.8,0,1.2,0.4,1.2,1.2v3c0,0.8-0.4,1.2-1.2,1.2H221v2.1h4.1c0.8,0,1.2,0.4,1.2,1.2v3c0,0.8-0.4,1.2-1.2,1.2H221v4.7
		c0,0.8-0.4,1.2-1.2,1.2h-3.9C215.1,79.4,214.7,79,214.7,78.2z M220.7,78.2v-5h4.4c0.6,0,0.9-0.3,0.9-0.9v-3c0-0.6-0.3-0.9-0.9-0.9
		h-4.4v-2.6h6.5c0.6,0,0.9-0.3,0.9-0.9v-3c0-0.6-0.3-0.9-0.9-0.9h-11.3c-0.6,0-0.9,0.3-0.9,0.9v16.4c0,0.6,0.3,0.9,0.9,0.9h3.9
		C220.4,79.1,220.7,78.8,220.7,78.2z M217.7,63.2h8.1v0.2H218v7.2h5.8v0.2H218v5.9h-0.2L217.7,63.2L217.7,63.2z"/>
	<path fill="#DA4226" stroke="#DA4226" stroke-width="0.25" stroke-miterlimit="10" d="M231.5,79.4c-0.8,0-1.2-0.4-1.2-1.2V61.8
		c0-0.8,0.4-1.2,1.2-1.2h8.4c4,0,5.2,1.8,5.2,4.5v1.2c0,1.2-0.3,2.2-1,2.8c1.6,0.4,2.6,1.8,2.6,3.8v5.4c0,0.8-0.4,1.2-1.2,1.2h-3.9
		c-0.8,0-1.2-0.4-1.2-1.2v-3.9c0-0.6-0.2-0.8-0.7-0.8h-3.3v4.7c0,0.8-0.4,1.2-1.2,1.2L231.5,79.4L231.5,79.4z M236.2,78.2v-4.9h3.5
		c0.7,0,1,0.3,1,1.1v3.9c0,0.6,0.3,0.9,0.9,0.9h3.9c0.6,0,0.9-0.3,0.9-0.9v-5.4c0-2.1-1.2-3.4-3.1-3.7c1.1-0.4,1.4-1.5,1.4-2.9v-1.2
		c0-2.5-1.2-4.2-5-4.2h-8.4c-0.6,0-0.9,0.3-0.9,0.9v16.4c0,0.6,0.3,0.9,0.9,0.9h3.9C236,79.1,236.2,78.8,236.2,78.2z M233.3,76.8
		V63.2h5.8c2,0,2.9,1.2,2.9,2.9v1.7c0,1.5-0.3,2.6-1.5,2.9h0.3c2.1,0,3.1,0.9,3.1,2.7v3.4h-0.2v-3.4c0-1.7-0.9-2.5-2.8-2.5h-7.1v5.9
		H233.3z M233.5,63.4v7.3h5.5c2.1,0,2.6-1.1,2.6-2.9V66c0-1.6-0.8-2.6-2.6-2.6L233.5,63.4L233.5,63.4z M238.2,65.4
		c0.9,0,1.1,0.5,1.1,1.2v0.9c0,0.7-0.2,1.2-1.1,1.2h-1.9v-3.3H238.2z M236.5,65.7v2.7h1.7c0.7,0,0.9-0.4,0.9-0.9v-0.9
		c0-0.5-0.1-0.9-0.9-0.9C238.2,65.7,236.5,65.7,236.5,65.7z"/>
	<path fill="#DA4226" stroke="#DA4226" stroke-width="0.25" stroke-miterlimit="10" d="M249.1,78.2V61.8c0-0.8,0.4-1.2,1.2-1.2H262
		c0.8,0,1.2,0.4,1.2,1.2v3c0,0.8-0.4,1.2-1.2,1.2h-6.7v1.4h4.7c0.8,0,1.2,0.4,1.2,1.2v2.7c0,0.8-0.4,1.2-1.2,1.2h-4.7v1.7h6.7
		c0.8,0,1.2,0.4,1.2,1.2v3c0,0.8-0.4,1.2-1.2,1.2h-11.7C249.5,79.4,249.1,79,249.1,78.2z M262.9,78.2v-3c0-0.6-0.3-0.9-0.9-0.9h-7
		v-2.2h4.9c0.6,0,0.9-0.3,0.9-0.9v-2.7c0-0.6-0.3-0.9-0.9-0.9H255v-1.9h7c0.6,0,0.9-0.3,0.9-0.9v-3c0-0.6-0.3-0.9-0.9-0.9h-11.7
		c-0.6,0-0.9,0.3-0.9,0.9v16.4c0,0.6,0.3,0.9,0.9,0.9H262C262.6,79.1,262.9,78.8,262.9,78.2z M260.6,76.8h-8.5V63.2h8.5v0.2h-8.2
		v6.3h6.2V70h-6.2v6.5h8.2V76.8z"/>
	<path fill="#DA4226" stroke="#DA4226" stroke-width="0.25" stroke-miterlimit="10" d="M274.3,79.4h-8c-0.8,0-1.2-0.4-1.2-1.2v-3
		c0-0.8,0.4-1.2,1.2-1.2h6.8c0.3,0,0.4-0.2,0.4-0.5c0-0.4-0.1-0.6-0.4-0.6l-3.8-0.5c-2.5-0.4-4.1-1.5-4.1-4.4v-2.6
		c0-3,2-4.7,5.5-4.7h7.1c0.8,0,1.2,0.4,1.2,1.2v3c0,0.8-0.4,1.2-1.2,1.2h-5.9c-0.3,0-0.4,0.2-0.4,0.5c0,0.3,0.1,0.5,0.5,0.6l3.8,0.5
		c2.5,0.4,4.2,1.5,4.2,4.4v2.6C279.8,77.7,277.8,79.4,274.3,79.4z M279.6,74.7V72c0-2.8-1.6-3.8-3.9-4.2l-3.8-0.5
		c-0.4-0.1-0.7-0.4-0.7-0.8c0-0.4,0.2-0.8,0.7-0.8h5.9c0.6,0,0.9-0.3,0.9-0.9v-3c0-0.6-0.3-0.9-0.9-0.9h-7.1c-3.3,0-5.2,1.6-5.2,4.4
		V68c0,2.8,1.5,3.8,3.9,4.2l3.8,0.5c0.4,0.1,0.7,0.3,0.7,0.9c0,0.4-0.2,0.7-0.7,0.7h-6.8c-0.6,0-0.9,0.3-0.9,0.9v3
		c0,0.6,0.3,0.9,0.9,0.9h8C277.6,79.1,279.6,77.6,279.6,74.7z M276.4,63.4h-5.6c-1.4,0-2.3,0.9-2.3,2v2.1c0,1.2,0.5,1.5,1.3,1.7
		l5.3,1.1c1,0.2,1.7,0.7,1.7,2.5v1.5c0,1.5-1.1,2.6-2.8,2.6h-6.3v-0.2h6.3c1.6,0,2.5-1,2.5-2.3v-1.5c0-1.6-0.6-2-1.5-2.2l-5.3-1.1
		c-0.9-0.2-1.5-0.6-1.5-1.9v-2.1c0-1.4,1-2.3,2.6-2.3h5.6L276.4,63.4C276.3,63.4,276.4,63.4,276.4,63.4z"/>
	<path fill="#DA4226" stroke="#DA4226" stroke-width="0.25" stroke-miterlimit="10" d="M282,78.2V61.8c0-0.8,0.4-1.2,1.2-1.2h3.9
		c0.8,0,1.2,0.4,1.2,1.2V67h3.7v-5.2c0-0.8,0.4-1.2,1.2-1.2h3.9c0.8,0,1.2,0.4,1.2,1.2v16.4c0,0.8-0.4,1.2-1.2,1.2h-3.9
		c-0.8,0-1.2-0.4-1.2-1.2v-5.4h-3.7v5.4c0,0.8-0.4,1.2-1.2,1.2h-3.9C282.4,79.4,282,79,282,78.2z M288,78.2v-5.6h4.2v5.6
		c0,0.6,0.3,0.9,0.9,0.9h3.9c0.6,0,0.9-0.3,0.9-0.9V61.8c0-0.6-0.3-0.9-0.9-0.9h-3.9c-0.6,0-0.9,0.3-0.9,0.9v5.5H288v-5.5
		c0-0.6-0.3-0.9-0.9-0.9h-3.9c-0.6,0-0.9,0.3-0.9,0.9v16.4c0,0.6,0.3,0.9,0.9,0.9h3.9C287.8,79.1,288,78.8,288,78.2z M285,63.2h0.2
		v6.7h9.7v-6.7h0.2v13.6h-0.2v-6.7h-9.7v6.7H285V63.2z"/>
	<path fill="#DA4226" stroke="#DA4226" stroke-width="0.25" stroke-miterlimit="10" d="M306.9,78.2V61.8c0-0.8,0.4-1.2,1.2-1.2h7.7
		c4.8,0,6.2,2.1,6.2,5.2V69c0,3.1-1.4,5.2-6.2,5.2h-2.6v3.9c0,0.8-0.4,1.2-1.2,1.2h-3.9C307.3,79.4,306.9,79,306.9,78.2z
		 M312.9,78.2V74h2.9c4.6,0,6-2,6-4.9v-3.2c0-2.9-1.3-4.9-6-4.9h-7.7c-0.6,0-0.9,0.3-0.9,0.9v16.4c0,0.6,0.3,0.9,0.9,0.9h3.9
		C312.6,79.1,312.9,78.8,312.9,78.2z M310.2,71.9v5H310V63.2h5.5c3.2,0,3.8,1.5,3.8,3.5v1.9c0,2-0.6,3.4-3.8,3.4L310.2,71.9
		L310.2,71.9z M315.5,71.6c3,0,3.5-1.3,3.5-3.1v-1.9c0-1.8-0.6-3.2-3.5-3.2h-5.2v8.2C310.2,71.6,315.5,71.6,315.5,71.6z M315.2,65.6
		c1,0,1.2,0.6,1.2,1.2v1.3c0,0.7-0.2,1.2-1.2,1.2h-2.3v-3.8H315.2z M313.1,65.9v3.3h2c0.8,0,0.9-0.5,0.9-1v-1.3c0-0.5-0.2-1-0.9-1
		H313.1L313.1,65.9z"/>
	<path fill="#DA4226" stroke="#DA4226" stroke-width="0.25" stroke-miterlimit="10" d="M323.7,78.2v-3c0-0.8,0.4-1.2,1.2-1.2h2.2v-8
		h-2.2c-0.8,0-1.2-0.4-1.2-1.2v-3.1c0-0.8,0.4-1.2,1.2-1.2h10.8c0.8,0,1.2,0.4,1.2,1.2v3.1c0,0.8-0.4,1.2-1.2,1.2h-2.2v8h2.2
		c0.8,0,1.2,0.4,1.2,1.2v3c0,0.8-0.4,1.2-1.2,1.2h-10.8C324.1,79.4,323.7,79,323.7,78.2z M335.7,79.1c0.6,0,0.9-0.3,0.9-0.9v-3
		c0-0.6-0.3-0.9-0.9-0.9h-2.5v-8.5h2.5c0.6,0,0.9-0.3,0.9-0.9v-3.1c0-0.6-0.3-0.9-0.9-0.9h-10.8c-0.6,0-0.9,0.3-0.9,0.9v3.1
		c0,0.6,0.3,0.9,0.9,0.9h2.5v8.5h-2.5c-0.6,0-0.9,0.3-0.9,0.9v3c0,0.6,0.3,0.9,0.9,0.9L335.7,79.1L335.7,79.1z M326.3,76.8v-0.2h3.9
		V63.4h-3.9v-0.2h8v0.2h-3.9v13.1h3.9v0.2H326.3z"/>
	<path fill="#DA4226" stroke="#DA4226" stroke-width="0.25" stroke-miterlimit="10" d="M338.8,78.2v-3.4c0-0.7,0.2-1.2,0.7-1.7
		l5.8-7h-4.9c-0.8,0-1.2-0.4-1.2-1.2v-3.1c0-0.8,0.4-1.2,1.2-1.2h11.6c0.8,0,1.2,0.4,1.2,1.2v3.8c0,0.8-0.2,1.2-0.7,1.7l-5.5,6.7
		h5.5c0.8,0,1.2,0.4,1.2,1.2v3c0,0.8-0.4,1.2-1.2,1.2H340C339.2,79.4,338.8,79,338.8,78.2z M353.5,78.2v-3c0-0.6-0.3-0.9-0.9-0.9h-6
		l5.9-7.1c0.5-0.5,0.6-0.9,0.6-1.6v-3.8c0-0.6-0.3-0.9-0.9-0.9h-11.6c-0.6,0-0.9,0.3-0.9,0.9v3.1c0,0.6,0.3,0.9,0.9,0.9h5.4
		l-6.1,7.5c-0.5,0.5-0.6,0.9-0.6,1.6v3.4c0,0.6,0.3,0.9,0.9,0.9h12.5C353.2,79.1,353.5,78.8,353.5,78.2z M342.5,74.9
		c-0.2,0.3-0.4,0.4-0.4,0.8V76c0,0.5,0.2,0.6,0.5,0.6h8.5v0.2h-8.5c-0.6,0-0.8-0.2-0.8-0.8v-0.4c0-0.4,0.2-0.6,0.4-0.9l7.4-9.5
		c0.2-0.3,0.4-0.4,0.4-0.8V64c0-0.5-0.2-0.6-0.5-0.6h-7.7v-0.2h7.7c0.6,0,0.8,0.2,0.8,0.8v0.4c0,0.4-0.2,0.6-0.4,0.9L342.5,74.9z"/>
	<path fill="#DA4226" stroke="#DA4226" stroke-width="0.25" stroke-miterlimit="10" d="M355.4,78.2v-3.4c0-0.7,0.2-1.2,0.7-1.7
		l5.8-7H357c-0.8,0-1.2-0.4-1.2-1.2v-3.1c0-0.8,0.4-1.2,1.2-1.2h11.6c0.8,0,1.2,0.4,1.2,1.2v3.8c0,0.8-0.2,1.2-0.7,1.7l-5.5,6.7h5.5
		c0.8,0,1.2,0.4,1.2,1.2v3c0,0.8-0.4,1.2-1.2,1.2h-12.5C355.8,79.4,355.4,79,355.4,78.2z M370,78.2v-3c0-0.6-0.3-0.9-0.9-0.9h-6
		l5.9-7.1c0.4-0.5,0.6-0.9,0.6-1.6v-3.8c0-0.6-0.3-0.9-0.9-0.9h-11.6c-0.6,0-0.9,0.3-0.9,0.9v3.1c0,0.6,0.3,0.9,0.9,0.9h5.4
		l-6.1,7.5c-0.5,0.5-0.6,0.9-0.6,1.6v3.4c0,0.6,0.3,0.9,0.9,0.9h12.5C369.8,79.1,370,78.8,370,78.2z M359.1,74.9
		c-0.2,0.3-0.4,0.4-0.4,0.8V76c0,0.5,0.2,0.6,0.5,0.6h8.5v0.2h-8.5c-0.6,0-0.8-0.2-0.8-0.8v-0.4c0-0.4,0.2-0.6,0.4-0.9l7.4-9.5
		c0.2-0.3,0.4-0.4,0.4-0.8V64c0-0.5-0.2-0.6-0.5-0.6h-7.7v-0.2h7.7c0.6,0,0.8,0.2,0.8,0.8v0.4c0,0.4-0.2,0.6-0.4,0.9L359.1,74.9z"/>
	<path fill="#DA4226" stroke="#DA4226" stroke-width="0.25" stroke-miterlimit="10" d="M372.3,78.2v-6.7c0-1.1,0.3-2.3,1-4.1
		l2.2-5.7c0.2-0.7,0.7-1,1.5-1h6.8c0.8,0,1.3,0.3,1.5,1l2.2,5.7c0.7,1.8,1,3.1,1,4.1v6.7c0,0.8-0.4,1.2-1.2,1.2h-3.8
		c-0.9,0-1.2-0.4-1.2-1.2v-3.3h-3.9v3.3c0,0.8-0.4,1.2-1.2,1.2h-3.7C372.7,79.4,372.3,79,372.3,78.2z M378.1,74.7h4.5v3.5
		c0,0.6,0.3,0.9,1,0.9h3.8c0.6,0,0.9-0.3,0.9-0.9v-6.7c0-1-0.3-2.3-1-4.1l-2.2-5.7c-0.2-0.6-0.6-0.8-1.3-0.8H377
		c-0.7,0-1.1,0.2-1.3,0.8l-2.2,5.7c-0.7,1.8-1,3-1,4.1v6.7c0,0.6,0.3,0.9,0.9,0.9h3.7c0.6,0,0.9-0.3,0.9-0.9L378.1,74.7L378.1,74.7z
		 M385.3,72.5h-9.9v4.3h-0.2v-5.4c0-0.9,0.1-1.7,0.4-2.5l1.6-4.1c0.4-0.9,0.7-1.7,1.8-1.7h2.5c1.1,0,1.4,0.7,1.8,1.7l1.7,4.1
		c0.3,0.7,0.4,1.5,0.4,2.5v5.4h-0.2V72.5z M375.5,72.2h9.9v-0.8c0-0.9-0.1-1.7-0.4-2.3l-1.7-4.1c-0.4-0.9-0.7-1.5-1.6-1.5h-2.5
		c-1,0-1.3,0.7-1.6,1.5l-1.6,4.1c-0.2,0.7-0.4,1.4-0.4,2.3L375.5,72.2L375.5,72.2z M380,65.8h0.6c0.2,0,0.4,0.1,0.5,0.4l1.2,3.8h-4
		l1.2-3.8C379.7,65.9,379.8,65.8,380,65.8z M380.9,66.3c-0.1-0.2-0.1-0.3-0.2-0.3H380c-0.1,0-0.2,0.1-0.2,0.3l0,0l-1.1,3.5h3.3
		L380.9,66.3L380.9,66.3z"/>
</g>
<path fill="#FFFFFF" d="M194.7,294.1h-37.9c-1.2,0-1.7-0.5-1.7-1.7v-37.9c0-1.2,0.5-1.7,1.7-1.7h37.9c1.2,0,1.7,0.5,1.7,1.7v38
	C196.5,293.6,195.9,294.1,194.7,294.1z"/>
<path fill="#FFFFFF" d="M242.9,294.1h-38c-1.2,0-1.7-0.5-1.7-1.7v-37.9c0-1.2,0.5-1.7,1.7-1.7h38c1.2,0,1.7,0.5,1.7,1.7v38
	C244.6,293.6,244.1,294.1,242.9,294.1z"/>
<path fill="#FFFFFF" d="M291.1,294.1h-38c-1.2,0-1.7-0.5-1.7-1.7v-37.9c0-1.2,0.5-1.7,1.7-1.7h38c1.2,0,1.7,0.5,1.7,1.7v38
	C292.8,293.6,292.3,294.1,291.1,294.1z"/>
<path fill="#FFFFFF" d="M339.3,294.1h-38c-1.2,0-1.7-0.5-1.7-1.7v-37.9c0-1.2,0.5-1.7,1.7-1.7h38c1.2,0,1.7,0.5,1.7,1.7v38
	C341,293.6,340.5,294.1,339.3,294.1z"/>
<path fill="#FFFFFF" d="M387.5,294.1h-38c-1.2,0-1.7-0.5-1.7-1.7v-37.9c0-1.2,0.5-1.7,1.7-1.7h38c1.2,0,1.7,0.5,1.7,1.7v38
	C389.1,293.6,388.7,294.1,387.5,294.1z"/>
<path fill="#0C343D" d="M194.7,293.8h-37.9c-0.9,0-1.4-0.4-1.4-1.4v-38c0-0.9,0.4-1.3,1.4-1.3h37.9c0.9,0,1.4,0.4,1.4,1.3v37.9
	C196.1,293.3,195.6,293.8,194.7,293.8z"/>
<path fill="#0C343D" d="M242.9,293.8h-38c-0.9,0-1.4-0.4-1.4-1.4v-38c0-0.9,0.4-1.3,1.4-1.3h38c0.9,0,1.3,0.4,1.3,1.3v37.9
	C244.2,293.3,243.8,293.8,242.9,293.8z"/>
<path fill="#0C343D" d="M291.1,293.8h-38c-0.9,0-1.4-0.4-1.4-1.4v-38c0-0.9,0.4-1.3,1.4-1.3h38c0.9,0,1.4,0.4,1.4,1.3v37.9
	C292.4,293.3,292,293.8,291.1,293.8z"/>
<path fill="#0C343D" d="M339.3,293.8h-38c-0.9,0-1.4-0.4-1.4-1.4v-38c0-0.9,0.4-1.3,1.4-1.3h38c0.9,0,1.3,0.4,1.3,1.3v37.9
	C340.6,293.3,340.2,293.8,339.3,293.8z"/>
<path fill="#0C343D" d="M387.5,293.8h-38c-0.9,0-1.3-0.4-1.3-1.4v-38c0-0.9,0.4-1.3,1.3-1.3h38c0.9,0,1.3,0.4,1.3,1.3v37.9
	C388.8,293.3,388.3,293.8,387.5,293.8z"/>
<path fill="#E0C74B" d="M156.1,253.9h39.2V293h-39.2V253.9z M194.9,254.2h-38.4v38.4h38.4V254.2z"/>
<path fill="#E0C74B" d="M204.3,253.9h39.1V293h-39.1V253.9z M243.1,254.2h-38.4v38.4h38.4V254.2z"/>
<path fill="#E0C74B" d="M252.5,253.9h39.1V293h-39.1V253.9z M291.3,254.2h-38.4v38.4h38.4V254.2z"/>
<path fill="#E0C74B" d="M300.7,253.9h39.1V293h-39.1V253.9z M339.5,254.2H301v38.4h38.4V254.2z"/>
<path fill="#E0C74B" d="M348.9,253.9h39.1V293h-39.1V253.9z M387.6,254.2h-38.4v38.4h38.4V254.2z"/>
<path fill="#FFFFFF" d="M168,287h-4.4c-0.9,0-1.3-0.4-1.3-1.4V267c0-4.6,1.8-7.7,7.5-7.7c2.8,0,4.6,0.7,5.6,1.9
	c1.1-1.2,2.8-1.9,5.6-1.9c5.7,0,7.5,3.1,7.5,7.7v18.6c0,0.9-0.4,1.4-1.4,1.4h-4.4c-1,0-1.4-0.4-1.4-1.4v-17.4c0-1-0.3-1.5-1.2-1.5
	c-1,0-1.2,0.5-1.2,1.5v17.4c0,0.9-0.4,1.4-1.3,1.4h-4.4c-0.9,0-1.4-0.4-1.4-1.4v-17.4c0-1-0.2-1.5-1.2-1.5c-1,0-1.2,0.5-1.2,1.5
	v17.4C169.4,286.6,169,287,168,287z M170.6,263.2c3.5,0,4.6,1.9,4.6,4.7v15.7h0.4V268c0-2.8,1-4.7,4.6-4.7c3.5,0,4.6,1.9,4.6,4.7
	v15.7h0.4V268c0-3.1-1.1-5.1-4.9-5.1c-3.1,0-4.4,1.3-4.8,3.4c-0.4-2.1-1.7-3.4-4.7-3.4c-3.8,0-5,2-5,5.1v15.7h0.4V268
	C166,265.1,167.1,263.2,170.6,263.2z"/>
<path fill="#FFFFFF" d="M223.5,287.6c-9.2,0-11.4-3.1-11.4-7.7v-12.8c0-4.6,2.2-7.7,11.4-7.7s11.4,3.1,11.4,7.7v12.8
	C235,284.5,232.8,287.6,223.5,287.6z M230.9,268c0-3.1-1.7-5.1-7.4-5.1s-7.3,2-7.3,5.1v11.1c0,3.1,1.6,5.1,7.3,5.1
	c5.7,0,7.4-2,7.4-5.1V268z M216.6,268c0-2.8,1.5-4.7,6.9-4.7s7,1.9,7,4.7v11.1c0,2.8-1.6,4.7-7,4.7s-6.9-1.9-6.9-4.7V268L216.6,268z
	 M223.5,280.3c2.5,0,2.9-0.8,2.9-1.8v-10.1c0-1-0.4-1.7-2.9-1.7c-2.5,0-2.9,0.8-2.9,1.7v10.1C220.6,279.6,221.1,280.3,223.5,280.3z"
	/>
<path fill="#FFFFFF" d="M268.6,287c-0.9,0-1.4-0.4-1.4-1.4v-18.5h-5.4c-0.9,0-1.4-0.4-1.4-1.4v-4.6c0-0.9,0.4-1.3,1.4-1.3h19.9
	c0.9,0,1.4,0.4,1.4,1.3v4.6c0,0.9-0.4,1.3-1.4,1.3h-5.4v18.5c0,0.9-0.4,1.3-1.4,1.3L268.6,287L268.6,287z M271.9,283.7v-20h7.7v-0.4
	h-15.8v0.4h7.7v20H271.9z"/>
<path fill="#FFFFFF" d="M310,287c-0.9,0-1.4-0.4-1.4-1.4v-24.4c0-0.9,0.4-1.4,1.4-1.4h19.5c0.9,0,1.3,0.4,1.3,1.4v4.4
	c0,0.9-0.4,1.4-1.3,1.4h-12.4v2.9h9.4c0.9,0,1.4,0.4,1.4,1.3v4c0,0.9-0.4,1.4-1.4,1.4h-9.4v3.2h12.4c0.9,0,1.3,0.4,1.3,1.4v4.4
	c0,0.9-0.4,1.3-1.3,1.3L310,287L310,287z M313,283.3v-9.8h11.4v-0.4H313v-9.5h14.4v-0.4h-14.8v20.3h14.8v-0.4H313L313,283.3z"/>
<path fill="#FFFFFF" d="M365.4,261.3v18.5h12.3c0.9,0,1.4,0.4,1.4,1.4v4.6c0,0.9-0.4,1.3-1.4,1.3h-19.5c-0.9,0-1.3-0.4-1.3-1.3
	v-24.4c0-0.9,0.4-1.4,1.3-1.4h5.8C365,259.9,365.4,260.3,365.4,261.3z M375.6,283.7v-0.4h-14.3v-20h-0.4v20.3H375.6L375.6,283.7z"/>
<g>
	<path fill="#102B33" d="M163.5,240.5c-7.2,0-8.9-2.4-8.9-5.9v-9.8c0-3.5,1.7-5.9,8.9-5.9c7.2,0,8.9,2.4,8.9,5.9v9.8
		C172.5,238.1,170.7,240.5,163.5,240.5z M163.5,234.9c2.1,0,2.4-0.6,2.4-1.3v-7.7c0-0.8-0.3-1.3-2.4-1.3s-2.4,0.6-2.4,1.3v7.7
		C161.1,234.3,161.5,234.9,163.5,234.9z"/>
	<path fill="#102B33" d="M177.1,240c-0.7,0-1-0.3-1-1v-18.6c0-0.7,0.3-1,1-1h8.8c5.2,0,6.8,2.3,6.8,5.6v3.7c0,3.3-1.6,5.6-6.8,5.6
		h-3.3v4.8c0,0.7-0.3,1-1,1L177.1,240L177.1,240L177.1,240z M182.6,229h2.6c1.1,0,1.4-0.7,1.4-1.4v-1.5c0-0.8-0.2-1.4-1.4-1.4h-2.6
		V229z"/>
	<path fill="#102B33" d="M196.7,240c-0.7,0-1-0.3-1-1v-18.6c0-0.7,0.3-1,1-1H210c0.7,0,1,0.3,1,1v3.3c0,0.7-0.3,1-1,1h-7.9v2.2h5.6
		c0.7,0,1,0.3,1,1v3.1c0,0.7-0.3,1-1,1h-5.6v2.5h7.9c0.7,0,1,0.3,1,1v3.4c0,0.7-0.3,1-1,1L196.7,240L196.7,240z"/>
	<path fill="#102B33" d="M215.5,240c-0.7,0-1-0.3-1-1v-18.6c0-0.7,0.3-1,1-1h3c0.8,0,1.2,0.2,1.7,0.8l5.6,6.4v-6.1c0-0.7,0.3-1,1-1
		h4.3c0.7,0,1,0.3,1,1v18.6c0,0.7-0.3,1-1,1h-4.3c-0.7,0-1-0.3-1-1v-3.6l-5-6v9.5c0,0.7-0.3,1-1,1L215.5,240L215.5,240L215.5,240z"
		/>
	<path fill="#102B33" d="M242.8,240c-0.7,0-1-0.3-1-1v-5c0-4.4,1.9-5.5,4.5-6.3l3.8-1.2c0.6-0.2,0.8-0.4,0.8-1
		c0-0.6-0.2-0.8-0.8-0.8h-6.2c-0.7,0-1-0.3-1-1v-3.4c0-0.7,0.3-1,1-1h8.5c3.3,0,5.1,1.7,5.1,4.8v2.7c0,2.9-1.7,4.2-4.5,5.1l-3.9,1.2
		c-0.6,0.2-0.8,0.2-0.8,0.9v0.6h8.2c0.7,0,1,0.3,1,1v3.4c0,0.7-0.3,1-1,1L242.8,240L242.8,240z"/>
	<path fill="#102B33" d="M265.8,235.2c-3.7,0-5.2-1.5-5.2-4.8v-10.1c0-0.7,0.3-1,1-1h4.4c0.7,0,1,0.3,1,1v7.9c0,0.6,0.3,1,0.9,1h2.7
		v-8.8c0-0.7,0.3-1,1-1h4.4c0.7,0,1,0.3,1,1V239c0,0.7-0.3,1-1,1h-4.4c-0.7,0-1-0.3-1-1v-3.8L265.8,235.2L265.8,235.2z"/>
	<path fill="#102B33" d="M288.6,240c-0.7,0-1-0.3-1-1v-18.6c0-0.7,0.3-1,1-1h4.4c0.7,0,1,0.3,1,1v6.2h4.8v-6.2c0-0.7,0.3-1,1-1h4.4
		c0.7,0,1,0.3,1,1V239c0,0.7-0.3,1-1,1h-4.4c-0.7,0-1-0.3-1-1v-6.4h-4.8v6.4c0,0.7-0.3,1-1,1H288.6z"/>
	<path fill="#102B33" d="M318,240.5c-7.2,0-8.9-2.4-8.9-5.9v-9.8c0-3.5,1.7-5.9,8.9-5.9c7.2,0,8.9,2.4,8.9,5.9v9.8
		C326.9,238.1,325.2,240.5,318,240.5z M318,234.9c2.1,0,2.4-0.6,2.4-1.3v-7.7c0-0.8-0.3-1.3-2.4-1.3s-2.4,0.6-2.4,1.3v7.7
		C315.6,234.3,315.9,234.9,318,234.9z"/>
	<path fill="#102B33" d="M339.3,240.5c-7.1,0-8.9-2.4-8.9-5.9v-14.2c0-0.7,0.3-1,1-1h4.5c0.7,0,1,0.3,1,1v13.1
		c0,0.8,0.3,1.3,2.4,1.3c2,0,2.4-0.6,2.4-1.3v-13.1c0-0.7,0.3-1,1-1h4.4c0.7,0,1,0.3,1,1v14.2C348.2,238.1,346.4,240.5,339.3,240.5z
		"/>
	<path fill="#102B33" d="M353,240c-0.7,0-1-0.3-1-1v-18.6c0-0.7,0.3-1,1-1h9.6c4.3,0,5.7,1.9,5.7,4.8v1.3c0,1.6-0.4,2.8-1.6,3.3
		c2.1,0.2,3.5,1.7,3.5,4.2v6.1c0,0.7-0.3,1-1,1h-4.4c-0.7,0-1-0.3-1-1v-4.4c0-0.9-0.3-1.2-1.1-1.2h-4v5.6c0,0.7-0.3,1-1,1L353,240
		L353,240L353,240z M358.5,228.2h2.2c1,0,1.3-0.6,1.3-1.3v-1c0-0.8-0.3-1.3-1.3-1.3h-2.2V228.2z"/>
	<path fill="#102B33" d="M373.8,240c-0.7,0-1-0.3-1-1v-3.4c0-0.7,0.3-1,1-1h7.7c0.5,0,0.8-0.4,0.8-0.8c0-0.7-0.3-0.9-0.8-1l-4.3-0.6
		c-2.7-0.4-4.4-1.6-4.4-4.8v-3c0-3.3,2.2-5.1,5.9-5.1h8c0.7,0,1,0.3,1,1v3.4c0,0.7-0.3,1-1,1h-6.7c-0.5,0-0.8,0.4-0.8,0.9
		c0,0.5,0.3,0.9,0.8,0.9l4.3,0.6c2.7,0.4,4.5,1.6,4.5,4.8v3c0,3.3-2.2,5.1-5.9,5.1H373.8L373.8,240z"/>
	<path fill="#28515B" d="M163.5,237.8c-4.5,0-5.8-1.6-5.8-3.9v-8.5c0-2.3,1.3-3.9,5.8-3.9s5.8,1.6,5.8,3.9v8.5
		C169.3,236.2,168,237.8,163.5,237.8z M163.5,237.5c4.3,0,5.6-1.4,5.6-3.6v-8.5c0-2.2-1.3-3.6-5.6-3.6s-5.5,1.4-5.5,3.6v8.5
		C158,236.1,159.2,237.5,163.5,237.5z"/>
	<path fill="#28515B" d="M179.6,231.8v5.7h-0.3v-15.5h6.2c3.6,0,4.3,1.7,4.3,3.9v2.1c0,2.2-0.7,3.8-4.3,3.8H179.6z M185.5,231.5
		c3.4,0,4-1.5,4-3.5v-2.1c0-2.1-0.6-3.6-4-3.6h-5.9v9.3H185.5L185.5,231.5z"/>
	<path fill="#28515B" d="M208.5,237.4h-9.7v-15.5h9.7v0.3h-9.4v7.2h7.1v0.3h-7.1v7.4h9.4V237.4L208.5,237.4z"/>
	<path fill="#28515B" d="M228.8,234v-12.1h0.3v15.5h-0.3v-3L218,222.3c-0.1-0.1-0.1-0.1-0.2-0.1s-0.1,0.1-0.1,0.1v15.2h-0.3v-15.2
		c0-0.2,0.2-0.3,0.3-0.3c0.2,0,0.2,0.1,0.4,0.3L228.8,234z"/>
	<path fill="#28515B" d="M253.1,228.4c0.5-0.2,0.8-0.6,0.8-1.3v-2.6c0-1.7-1.1-2.2-2.8-2.2h-5.8v-0.3h5.8c2,0,3.1,0.6,3.1,2.5v2.6
		c0,0.9-0.4,1.4-1,1.6l-6.7,2.2c-1.1,0.4-1.4,0.8-1.4,2.1v4.2h9.8v0.3h-10v-4.5c0-1.4,0.4-2,1.6-2.4L253.1,228.4z"/>
	<path fill="#28515B" d="M273.8,232.3h-6.9c-2.2,0-3.2-1-3.2-3v-7.4h0.3v7.4c0,1.8,0.9,2.7,2.9,2.7h6.9v-10.1h0.3v15.5h-0.3
		L273.8,232.3L273.8,232.3z"/>
	<path fill="#28515B" d="M290.7,221.9h0.3v7.6h11v-7.6h0.3v15.5H302v-7.6h-11v7.6h-0.3V221.9z"/>
	<path fill="#28515B" d="M318,237.8c-4.5,0-5.8-1.6-5.8-3.9v-8.5c0-2.3,1.3-3.9,5.8-3.9s5.8,1.6,5.8,3.9v8.5
		C323.8,236.2,322.5,237.8,318,237.8z M318,237.5c4.3,0,5.5-1.4,5.5-3.6v-8.5c0-2.2-1.3-3.6-5.5-3.6c-4.3,0-5.5,1.4-5.5,3.6v8.5
		C312.5,236.1,313.7,237.5,318,237.5z"/>
	<path fill="#28515B" d="M333.9,221.9v12c0,2.2,1.2,3.6,5.5,3.6c4.3,0,5.5-1.4,5.5-3.6v-12h0.3v12c0,2.3-1.3,3.9-5.8,3.9
		s-5.8-1.6-5.8-3.9v-12H333.9z"/>
	<path fill="#28515B" d="M355.1,237.4v-15.5h6.5c2.2,0,3.3,1.4,3.3,3.3v2c0,1.7-0.3,2.9-1.7,3.3h0.3c2.4,0,3.5,1.1,3.5,3.1v3.8h-0.3
		v-3.8c0-1.9-1-2.8-3.2-2.8h-8.1v6.6L355.1,237.4L355.1,237.4z M355.4,222.2v8.3h6.3c2.4,0,3-1.2,3-3.3v-2c0-1.8-1-3-3-3H355.4z"/>
	<path fill="#28515B" d="M385.2,222.2h-6.4c-1.6,0-2.6,1-2.6,2.3v2.4c0,1.3,0.6,1.7,1.5,1.9l6.1,1.2c1.1,0.2,2,0.8,2,2.8v1.7
		c0,1.7-1.2,2.9-3.2,2.9h-7.1v-0.3h7.1c1.8,0,2.9-1.1,2.9-2.6v-1.7c0-1.8-0.7-2.3-1.7-2.5l-6.1-1.2c-1-0.2-1.7-0.6-1.7-2.2v-2.4
		c0-1.5,1.1-2.6,2.9-2.6h6.4L385.2,222.2L385.2,222.2L385.2,222.2z"/>
</g>
<g>
	<path fill="#E0CE51" d="M148.7,49.9V14.2c0-1,0.3-1.6,0.8-2l7.1-6c0.4-0.3,1-0.5,1.8-0.5h17.6c7.7,0,11.1,2.9,11.1,9v2.6
		c0,2.6-0.7,4.4-2.1,5.5l-0.1,0.1c4,0.9,5.9,3.7,5.9,8.9v5.1c0,3.3-0.9,5.7-2.9,7.3l-7.1,6c-1.8,1.5-4.6,2.3-8.4,2.3h-21.1
		C149.5,52.4,148.7,51.7,148.7,49.9z"/>
	<path fill="#E0CE51" d="M200.6,51.9c-0.3,0.3-0.9,0.5-1.7,0.5h-8.1c-1.8,0-2.5-0.8-2.5-2.5V22.7c0-3.5,0.8-6.4,3.2-8.5l7.1-5.9
		c2.5-2.1,6.7-3.4,13.9-3.4c14.3,0,17.3,4.9,17.3,11.8v27.2c0,1-0.3,1.6-0.8,2l-7.1,5.9c-0.3,0.3-0.9,0.5-1.7,0.5h-8.4
		c-1.8,0-2.5-0.8-2.5-2.5v-7.7h-0.9v1.7c0,1-0.3,1.6-0.8,2L200.6,51.9z M208.5,23v2.1h0.9v-0.5C209.4,23.9,209.2,23.4,208.5,23z"/>
	<path fill="#E0CE51" d="M241.8,51.9c-0.3,0.3-0.9,0.5-1.7,0.5h-8.5c-1.8,0-2.5-0.8-2.5-2.5V14.2c0-1,0.3-1.6,0.8-2l7.1-6
		c0.4-0.3,1-0.5,1.8-0.5H257c8.7,0,11.4,4,11.4,9.7V18c0,2.7-0.6,4.7-2.1,6h-0.1c3.5,1,5.7,3.9,5.7,8.2v11.7c0,1-0.3,1.6-0.8,2
		l-7.1,5.9c-0.3,0.3-0.9,0.5-1.7,0.5h-8.5c-1.8,0-2.5-0.8-2.5-2.5v-8.4c0-1.2-0.4-1.8-1.5-1.8h-0.1v4.2c0,1-0.3,1.6-0.8,2
		L241.8,51.9z"/>
	<path fill="#E0CE51" d="M269.9,49.9V14.2c0-1,0.3-1.6,0.8-2l7.1-6c0.4-0.3,1-0.5,1.8-0.5h17.5c7.7,0,11.1,2.9,11.1,9v2.6
		c0,2.6-0.7,4.4-2.1,5.5l-0.1,0.1c4,0.9,5.9,3.7,5.9,8.9v5.1c0,3.3-0.9,5.7-2.9,7.3l-7.1,6c-1.8,1.5-4.6,2.3-8.4,2.3h-21.1
		C270.7,52.4,269.9,51.7,269.9,49.9z"/>
	<path fill="#E0CE51" d="M312.3,52.4c-1.8,0-2.5-0.8-2.5-2.5V14.2c0-1,0.3-1.6,0.8-2l7.1-6c0.4-0.3,1-0.5,1.8-0.5h25.5
		c1.8,0,2.5,0.8,2.5,2.5v6.4c0,1-0.3,1.6-0.8,2l-4.8,3.9c0.7,0.4,1,1.1,1,2.2v5.9c0,1-0.3,1.6-0.8,2l-4.9,4.1h7.6
		c1.8,0,2.5,0.8,2.5,2.5v6.4c0,1-0.3,1.6-0.8,2l-7.1,5.9c-0.3,0.3-0.9,0.5-1.7,0.5h-25.5L312.3,52.4L312.3,52.4z"/>
	<path fill="#E0CE51" d="M358.4,51.9c-0.3,0.3-0.9,0.5-1.7,0.5h-8.5c-1.8,0-2.5-0.8-2.5-2.5V14.2c0-1,0.3-1.6,0.8-2l7.1-6
		c0.4-0.3,1-0.5,1.8-0.5h18.3c8.7,0,11.4,4,11.4,9.7V18c0,2.7-0.6,4.7-2.1,6h0c3.5,1,5.7,3.9,5.7,8.2v11.7c0,1-0.3,1.6-0.8,2
		l-7.1,5.9c-0.3,0.3-0.9,0.5-1.7,0.5h-8.5c-1.8,0-2.5-0.8-2.5-2.5v-8.4c0-1.2-0.4-1.8-1.5-1.8h-0.1v4.2c0,1-0.3,1.6-0.8,2
		L358.4,51.9z"/>
	<path fill="#EF9D92" d="M155.8,43.9V8.3c0-1.8,0.8-2.5,2.5-2.5h17.6c7.7,0,11.1,2.9,11.1,9v2.6c0,2.6-0.7,4.4-2.2,5.6
		c4,0.9,5.9,3.7,5.9,8.9v5.1c0,6.5-3.4,9.6-11.2,9.6h-21.1C156.6,46.5,155.8,45.7,155.8,43.9z M169.3,16.2v4.8h4.1
		c1.1,0,1.5-0.5,1.5-1.6v-1.5c0-1.1-0.4-1.6-1.5-1.6C173.4,16.2,169.3,16.2,169.3,16.2z M169.3,30.6V36h6.6c1.1,0,1.5-0.5,1.5-1.7
		v-2.1c0-1.1-0.5-1.6-1.5-1.6L169.3,30.6L169.3,30.6z"/>
	<path fill="#92CAD3" d="M195.4,43.9V16.7c0-6.9,2.9-11.8,17.2-11.8C227,4.9,230,9.8,230,16.7v27.2c0,1.8-0.8,2.5-2.5,2.5h-8.4
		c-1.8,0-2.5-0.8-2.5-2.5v-7.6h-8V44c0,1.8-0.8,2.5-2.5,2.5H198C196.2,46.5,195.4,45.7,195.4,43.9z M208.5,25.1h8v-6.5
		c0-1.3-0.9-2-4-2c-3.1,0-4,0.7-4,2L208.5,25.1L208.5,25.1z"/>
	<path fill="#EF9D92" d="M238.6,46.5c-1.8,0-2.5-0.8-2.5-2.5V8.4c0-1.8,0.8-2.5,2.5-2.5h18.3c8.7,0,11.4,4,11.4,9.7v2.5
		c0,2.7-0.6,4.7-2.1,6c3.5,1,5.7,3.9,5.7,8.2V44c0,1.8-0.8,2.5-2.5,2.5h-8.5c-1.8,0-2.5-0.8-2.5-2.5v-8.4c0-1.2-0.4-1.8-1.5-1.8
		h-7.1v10.2c0,1.8-0.8,2.5-2.5,2.5L238.6,46.5L238.6,46.5L238.6,46.5z M249.7,16.8v5.9h3.6c1.5,0,1.9-0.9,1.9-2v-1.9
		c0-1.1-0.3-2-1.9-2C253.2,16.8,249.7,16.8,249.7,16.8z"/>
	<path fill="#92CAD3" d="M277,43.9V8.3c0-1.8,0.8-2.5,2.5-2.5h17.5c7.7,0,11.1,2.9,11.1,9v2.6c0,2.6-0.7,4.4-2.2,5.6
		c4,0.9,5.9,3.7,5.9,8.9v5.1c0,6.5-3.5,9.6-11.2,9.6h-21.1C277.8,46.5,277,45.7,277,43.9z M290.5,16.2v4.8h4.1
		c1.1,0,1.5-0.5,1.5-1.6v-1.5c0-1.1-0.5-1.6-1.5-1.6C294.6,16.2,290.5,16.2,290.5,16.2z M290.5,30.6V36h6.6c1.1,0,1.5-0.5,1.5-1.7
		v-2.1c0-1.1-0.5-1.6-1.5-1.6L290.5,30.6L290.5,30.6z"/>
	<path fill="#EF9D92" d="M316.8,43.9V8.3c0-1.8,0.8-2.5,2.5-2.5h25.5c1.8,0,2.5,0.8,2.5,2.5v6.4c0,1.8-0.8,2.5-2.5,2.5h-14.6v3.1
		h10.2c1.8,0,2.5,0.8,2.5,2.5v5.9c0,1.8-0.8,2.5-2.5,2.5h-10.2v3.6h14.6c1.8,0,2.5,0.8,2.5,2.5v6.5c0,1.8-0.8,2.5-2.5,2.5h-25.5
		C317.6,46.5,316.8,45.7,316.8,43.9z"/>
	<path fill="#92CAD3" d="M355.3,46.5c-1.8,0-2.5-0.8-2.5-2.5V8.4c0-1.8,0.8-2.5,2.5-2.5h18.3c8.7,0,11.4,4,11.4,9.7v2.5
		c0,2.7-0.6,4.7-2.1,6c3.5,1,5.7,3.9,5.7,8.2V44c0,1.8-0.8,2.5-2.5,2.5h-8.5c-1.8,0-2.5-0.8-2.5-2.5v-8.4c0-1.2-0.4-1.8-1.5-1.8
		h-7.1v10.2c0,1.8-0.8,2.5-2.5,2.5L355.3,46.5L355.3,46.5z M366.3,16.8v5.9h3.6c1.5,0,1.9-0.9,1.9-2v-1.9c0-1.1-0.3-2-1.9-2
		C369.9,16.8,366.3,16.8,366.3,16.8z"/>
	<path fill="#DA4226" d="M158.3,45.9c-1.4,0-2-0.6-2-2V8.3c0-1.4,0.6-2,2-2h17.6c7.2,0,10.6,2.6,10.6,8.4v2.6c0,3.1-1.1,5-3.2,5.9
		c4.7,0.5,6.9,3.2,6.9,8.6v5.1c0,6.2-3.4,9-10.7,9L158.3,45.9L158.3,45.9z M168.8,21.6h4.7c1.4,0,2.1-0.7,2.1-2.2v-1.5
		c0-1.5-0.7-2.2-2.1-2.2h-4.7V21.6z M168.8,36.6h7.1c1.4,0,2.1-0.7,2.1-2.2v-2.1c0-1.5-0.7-2.1-2.1-2.1h-7.1V36.6z"/>
	<path fill="#27839E" d="M206,45.9h-8.1c-1.4,0-2-0.6-2-2V16.8c0-6.7,3-11.2,16.6-11.2c13.7,0,16.8,4.6,16.8,11.2V44
		c0,1.4-0.6,2-2,2H219c-1.4,0-2-0.6-2-2v-8.2h-9.1v8.2C208,45.3,207.4,45.9,206,45.9z M208,25.7h9.1v-7.1c0-1.5-0.7-2.6-4.5-2.6
		c-3.9,0-4.6,1.1-4.6,2.6V25.7L208,25.7z"/>
	<path fill="#DA4226" d="M238.6,45.9c-1.4,0-2-0.6-2-2V8.3c0-1.4,0.6-2,2-2h18.3c8.2,0,10.8,3.8,10.8,9.2V18c0,3.1-0.8,5.3-3.1,6.3
		c4,0.4,6.7,3.4,6.7,8V44c0,1.4-0.6,2-2,2h-8.5c-1.4,0-2-0.6-2-2v-8.4c0-1.7-0.5-2.4-2.1-2.4h-7.7V44c0,1.4-0.6,2-2,2L238.6,45.9
		L238.6,45.9z M249.1,23.3h4.1c1.9,0,2.4-1.1,2.4-2.6v-1.9c0-1.5-0.5-2.6-2.4-2.6h-4.1V23.3z"/>
	<path fill="#27839E" d="M279.5,45.9c-1.4,0-2-0.6-2-2V8.3c0-1.4,0.6-2,2-2h17.5c7.2,0,10.6,2.6,10.6,8.4v2.6c0,3.1-1,5-3.2,5.9
		c4.7,0.5,6.9,3.1,6.9,8.5v5.1c0,6.1-3.4,9-10.7,9L279.5,45.9L279.5,45.9L279.5,45.9z M289.9,21.6h4.7c1.4,0,2.1-0.7,2.1-2.2v-1.5
		c0-1.5-0.7-2.2-2.1-2.2h-4.7V21.6z M289.9,36.6h7.1c1.4,0,2.1-0.7,2.1-2.2v-2.1c0-1.5-0.7-2.1-2.1-2.1h-7.1V36.6L289.9,36.6z"/>
	<path fill="#DA4226" d="M319.4,45.9c-1.4,0-2-0.6-2-2V8.3c0-1.4,0.6-2,2-2h25.5c1.4,0,2,0.6,2,2v6.4c0,1.4-0.6,2-2,2h-15.2V21h10.7
		c1.4,0,2,0.6,2,2v5.9c0,1.4-0.6,2-2,2h-10.7v4.7h15.2c1.4,0,2,0.6,2,2V44c0,1.4-0.6,2-2,2L319.4,45.9L319.4,45.9z"/>
	<path fill="#27839E" d="M355.3,45.9c-1.4,0-2-0.6-2-2V8.3c0-1.4,0.6-2,2-2h18.3c8.2,0,10.8,3.8,10.8,9.2V18c0,3.1-0.8,5.3-3.1,6.3
		c4,0.4,6.7,3.4,6.7,8V44c0,1.4-0.6,2-2,2h-8.5c-1.4,0-2-0.6-2-2v-8.4c0-1.7-0.5-2.4-2.1-2.4h-7.7V44c0,1.4-0.6,2-2,2L355.3,45.9
		L355.3,45.9L355.3,45.9z M365.8,23.3h4.1c1.9,0,2.4-1.1,2.4-2.6v-1.9c0-1.5-0.5-2.6-2.4-2.6h-4.1V23.3z"/>
	<path fill="#EF9D92" d="M162.4,41V11.3h11.2c6.1,0,7.2,2.6,7.2,5.8v3.5c0,2.2-0.4,4.2-3.5,5c6.1,0,7.1,2.7,7.1,6.3v3.5
		c0,3.2-1.1,5.5-7.2,5.5H162.4z M163,11.9v13.8h10.6c6.1,0,6.7-2.4,6.7-5v-3.5c0-3-1.1-5.3-6.7-5.3L163,11.9L163,11.9z M163,26.2
		v14.2h14.2c5.5,0,6.7-1.9,6.7-4.9V32c0-3.3-1.1-5.8-6.6-5.8H163L163,26.2z"/>
	<path fill="#92CAD3" d="M222.9,31.1h-20.4v10H202V18.2c0-4.4,2-7.4,10.7-7.4c8.7,0,10.8,3,10.8,7.4v22.9H223L222.9,31.1L222.9,31.1
		z M202.5,30.5h20.4V18.1c0-4.1-2.1-6.9-10.3-6.9c-8.2,0-10.1,2.8-10.1,6.9V30.5L202.5,30.5z"/>
	<path fill="#EF9D92" d="M242.6,41V11.3h12.5c4.3,0,6.3,2.6,6.3,6.3v3.8c0,3.4-0.7,5.6-3.3,6.4h0.6c4.5,0,6.7,2,6.7,5.9V41h-0.5
		v-7.4c0-3.6-1.9-5.4-6.1-5.4h-15.6V41L242.6,41L242.6,41L242.6,41z M243.1,11.9v15.9h12c4.6,0,5.7-2.2,5.7-6.3v-3.8
		c0-3.4-1.8-5.7-5.7-5.7H243.1L243.1,11.9z"/>
	<path fill="#92CAD3" d="M283.6,41V11.3h11.2c6.1,0,7.2,2.6,7.2,5.8v3.5c0,2.2-0.4,4.2-3.5,5c6.1,0,7.1,2.7,7.1,6.3v3.5
		c0,3.2-1,5.5-7.2,5.5H283.6z M284.2,11.9v13.8h10.6c6.1,0,6.7-2.4,6.7-5v-3.5c0-3-1.1-5.3-6.7-5.3L284.2,11.9L284.2,11.9z
		 M284.2,26.2v14.2h14.2c5.5,0,6.7-1.9,6.7-4.9V32c0-3.3-1-5.8-6.6-5.8H284.2L284.2,26.2L284.2,26.2z"/>
	<path fill="#EF9D92" d="M341.9,41h-18.5V11.3h18.5v0.5h-18v13.8h13.5v0.5H324v14.3h18L341.9,41L341.9,41z"/>
	<path fill="#92CAD3" d="M359.3,41V11.3h12.5c4.3,0,6.3,2.6,6.3,6.3v3.8c0,3.4-0.7,5.6-3.3,6.4h0.6c4.5,0,6.7,2,6.7,5.9V41h-0.5
		v-7.4c0-3.6-1.9-5.4-6.1-5.4h-15.6V41L359.3,41L359.3,41L359.3,41z M359.8,11.9v15.9h12c4.6,0,5.7-2.2,5.7-6.3v-3.8
		c0-3.4-1.8-5.7-5.7-5.7H359.8L359.8,11.9z"/>
</g>
<rect x="146.2" fill="none" width="247.5" height="300"/>
</svg>
