<?xml version="1.0" encoding="utf-8"?>
<!-- Generator: Adobe Illustrator 19.2.0, SVG Export Plug-In . SVG Version: 6.00 Build 0)  -->
<!DOCTYPE svg PUBLIC "-//W3C//DTD SVG 1.1//EN" "http://www.w3.org/Graphics/SVG/1.1/DTD/svg11.dtd">
<svg version="1.1" id="Layer_1" xmlns="http://www.w3.org/2000/svg" xmlns:xlink="http://www.w3.org/1999/xlink" x="0px" y="0px"
	 viewBox="0 0 780 1000" style="enable-background:new 0 0 780 1000;" xml:space="preserve">
<style type="text/css">
	.st0{fill:#102B33;stroke:#102B33;stroke-width:4.5;}
	.st1{fill:#F6ECCC;}
	.st2{fill:#144A56;}
	.st3{fill:#27839E;}
	.st4{fill:#DA4226;}
	.st5{fill:#CABC6C;}
	.st6{fill:#432D2C;stroke:#F6ECCC;stroke-width:1.5;}
</style>
<g>
	<path class="st0" d="M293.95,893.45l-76.1-79.7c-5.9-6-11.8-4.4-11.8,1.5v20.2h-6.9c-6.8,0-9-3.4-9-10.9v-8.8v-135.6v-11.8v-135.6
		v-11.8v-135.6v-11.8v-135.6v-11.8V90.55v-6.8v-5h-0.1c-2.3-44-34.4-74.6-79.5-74.6s-77.2,30.6-79.4,74.6h-0.1v5v6.8v135.6v11.8
		v135.6v11.8v135.6v11.8v135.6v11.8v135.6v11.8v32.3c0,65,36.6,108.2,117.9,108.2h57.2v22.6c0,6,6.2,7.4,11.8,1.5l76.1-80.9
		C299.55,905.05,300.25,900.05,293.95,893.45z"/>
	<path class="st1" d="M210.65,996.55L210.65,996.55c-3.2,0-5.3-2.4-5.3-6v-21.8h-56.5c-76.5,0-118.7-38.7-118.7-108.9V78.05h0.2
		c1.3-21.5,9.5-40.1,23.9-53.6c14.6-13.7,34-21,56.3-21s41.7,7.3,56.3,21c14.4,13.5,22.6,32.1,23.9,53.6h0.2v746.4
		c0,7.5,2.2,10.2,8.3,10.2h6.2v-19.5c0-3.6,2.1-6,5.3-6c2.5,0,5.2,1.4,7.8,4l76.1,79.7c6.2,6.5,6.3,12,0,18.7l-76.1,80.9
		C215.95,995.15,213.25,996.55,210.65,996.55z M31.75,79.45v780.3c0,69.3,41.6,107.5,117.2,107.5h57.9v23.3c0,2.8,1.5,4.5,3.9,4.5
		c2.1,0,4.5-1.3,6.7-3.6l76.1-80.9c5.7-6.2,5.7-10.7,0-16.7l-76.1-79.7c-2.3-2.3-4.6-3.6-6.7-3.6c-2.4,0-3.8,1.7-3.8,4.6v20.9h-7.8
		c-6.9,0-9.7-3.4-9.7-11.6v-745h-0.1v-0.7c-1.1-21.5-9.2-39.9-23.5-53.3c-14.3-13.5-33.4-20.6-55.3-20.6s-41,7.1-55.3,20.6
		c-14.2,13.4-22.3,31.9-23.4,53.3v0.7L31.75,79.45L31.75,79.45z"/>
</g>
<g>
	<path class="st2" d="M60.15,163.25c-4.5,0-6.4-2-6.4-6.4v-90.9c0-2.5,0.7-4.1,2-5.2l18.1-15.3c1-0.8,2.5-1.3,4.5-1.3h46.5
		c26.8,0,34.5,11.8,34.5,28.7v17.9c0,9-2.2,16.5-8.4,21.7l-18.1,15.3c-5.3,4.5-13.7,7.1-26.1,7.1h-0.3v6.6c0,2.5-0.7,4.1-2,5.2
		l-18.2,15.1c-0.8,0.8-2.4,1.4-4.3,1.4h-21.8C60.15,163.15,60.15,163.25,60.15,163.25z"/>
	<path class="st2" d="M85.05,277.05c-0.8,0.8-2.4,1.4-4.3,1.4h-20.7c-4.6,0-6.4-2-6.4-6.4v-37c0-10,1.4-12.1,5.6-22.8l10.7-31.8
		c0.6-1.7,1.4-3.1,2.5-3.9l18.2-15.3c1.4-1.1,3.4-1.7,5.9-1.7h36.3c4.3,0,6.9,1.4,8.3,5.5l12.2,31.8c4.2,10.9,5.6,13,5.6,23v37
		c0,2.5-0.7,4.1-2,5.2l-18.2,15.1c-0.8,0.8-2.4,1.4-4.3,1.4h-21.3c-4.5,0-6.9-2.1-6.9-6.4v-18.4h-1.1v2.9c0,2.5-0.7,4.1-2,5.2
		L85.05,277.05z"/>
	<path class="st2" d="M86.15,397.45c-0.8,0.8-2.4,1.4-4.3,1.4h-21.7c-4.5,0-6.4-2-6.4-6.4v-90.8c0-2.5,0.7-4.1,2-5.2l18.1-15.3
		c1-0.8,2.5-1.3,4.5-1.3h45.1c22.3,0,29,10.2,29,24.8v6.4c0,6.9-1.5,12.1-5.3,15.3l-0.1,0.1c7.4,2.5,13.2,9.8,13.2,20.9v29.7
		c0,2.5-0.7,4.1-2,5.2l-18.2,15.1c-0.8,0.8-2.4,1.4-4.3,1.4h-20.9c-4.5,0-6.4-2-6.4-6.4v-21.4c0-1.8-0.7-3.2-2-3.9v10.1
		c0,2.5-0.7,4.1-2,5.2L86.15,397.45z"/>
	<path class="st2" d="M86.45,517.15c-0.8,0.8-2.4,1.4-4.3,1.4h-21.8c-4.5,0-6.4-2-6.4-6.4v-90.8c0-2.5,0.7-4.1,2-5.2l18-15.4
		c1-0.8,2.5-1.3,4.5-1.3h21.7c4.5,0,6.4,2,6.4,6.4v10.1l17.5-14.9c1.4-1.1,3.2-1.7,5.7-1.7h21.6c4.6,0,6.2,2.4,4.3,6.6l-13.5,30.8
		c10.1,1.4,16.5,9,16.5,20.3v39.5c0,2.5-0.7,4.1-2,5.2l-18.2,15.1c-0.8,0.8-2.4,1.4-4.3,1.4h-21.6c-4.5,0-6.4-2-6.4-6.4v-12.8
		c-0.3,1.1-0.8,2-1.7,2.7L86.45,517.15z"/>
	<path class="st2" d="M137.25,638.65c-0.8,0.8-2.4,1.4-4.3,1.4h-71.5c-4.5,0-6.4-2-6.4-6.4v-16.7c0-2.5,0.7-4.1,2-5.2l18.1-15.3
		c0.8-0.7,2.1-1.1,3.8-1.3v-29h-17.5c-4.5,0-6.4-2-6.4-6.4v-17c0-2.5,0.7-4.1,2-5.2l18.1-15.3c1-0.8,2.5-1.3,4.5-1.3h71.5
		c4.5,0,6.4,2,6.4,6.4v17c0,2.5-0.7,4.1-2,5.2l-18.3,15.2l0.1-0.1c-0.8,0.8-2.1,1.4-3.8,1.5v29h17.4c4.5,0,6.4,2,6.4,6.4v16.7
		c0,2.5-0.7,4.1-2,5.2L137.25,638.65z"/>
	<path class="st2" d="M85.55,760.15c-0.8,0.8-2.4,1.4-4.3,1.4h-21.1c-4.5,0-6.4-2-6.4-6.4v-90.8c0-2.5,0.7-4.1,2-5.2l18.1-15.3
		c1-0.8,2.5-1.3,4.5-1.3h14.6c4.1,0,6.6,1.1,9.4,4.3l8.4,10.5l16.3-13.6c1-0.8,2.5-1.3,4.5-1.3h21c4.5,0,6.4,2,6.4,6.4v90.8
		c0,2.5-0.7,4.1-2,5.2l-18.2,15.1c-0.8,0.8-2.4,1.4-4.3,1.4h-21c-4.5,0-6.4-2-6.4-6.4v-16.8l-1.1-1.4v2.9c0,2.5-0.7,4.1-2,5.2
		L85.55,760.15z"/>
	<path class="st2" d="M88.95,881.25c-27.8,0-35.9-16.5-35.9-34.2v-39.5c0-9.4,2.2-17.4,8.7-22.7l18.1-15.1
		c5.6-4.8,14.3-7.4,27.2-7.4h36.1c4.5,0,6.4,2,6.4,6.4v17c0,2.5-0.7,4.1-2,5.2l-18.2,15.1c-0.8,0.8-2.4,1.4-4.3,1.4h-19.3v23.8
		c0,1,0,2,0.3,2.8v-2.5c0-2.5,0.7-4.1,2-5.2l18.1-15.3c1-0.8,2.5-1.3,4.5-1.3h21.7c4.5,0,6.4,2,6.4,6.4v43.3c0,2.5-0.7,4.1-2,5.2
		l-18.2,15.1c-0.8,0.8-2.4,1.4-4.3,1.4h-45.3L88.95,881.25L88.95,881.25z"/>
	<path class="st3" d="M78.15,146.55c-3.5,0-5-1.5-5-5v-90.9c0-3.5,1.5-5,5-5h46.5c25.5,0,33.1,11.1,33.1,27.3v17.9
		c0,16.3-7.6,27.3-33.1,27.3h-19.8v23.3c0,3.5-1.5,5-5,5h-21.7C78.15,146.45,78.15,146.55,78.15,146.55z M104.65,92.95h16.3
		c5.5,0,6.6-3.2,6.6-6.9v-7.4c0-3.6-1.1-6.9-6.6-6.9h-16.3C104.65,71.75,104.65,92.95,104.65,92.95z"/>
	<path class="st3" d="M98.65,261.75h-20.6c-3.6,0-5-1.5-5-5v-37c0-9.7,1.4-11.8,5.5-22.4l10.8-31.8c1.3-3.5,3.5-4.6,7.1-4.6h36.3
		c3.6,0,5.7,1.1,7,4.6l12.2,31.8c4.1,10.7,5.5,12.8,5.5,22.4v37c0,3.5-1.5,5-5,5h-21.3c-3.5,0-5.5-1.5-5.5-5v-19.6h-22v19.6
		C103.65,260.25,102.15,261.75,98.65,261.75z M105.05,211.55h19.2l-6.6-21.3c-0.8-1.8-1.1-2.4-2.7-2.4h-0.7c-1.5,0-1.8,0.6-2.7,2.4
		L105.05,211.55z"/>
	<path class="st3" d="M78.15,382.15c-3.5,0-5-1.5-5-5v-90.8c0-3.5,1.5-5,5-5h45.1c21,0,27.6,9.5,27.6,23.4v6.4c0,7.8-2,13.5-7.8,16
		c8.6,1.1,15.6,8.6,15.6,20.3v29.7c0,3.5-1.5,5-5,5h-21.7c-3.5,0-5-1.5-5-5v-21.4c0-4.2-1.4-6-5.3-6h-16.7v27.5c0,3.5-1.5,5-5,5
		h-21.8C78.15,382.25,78.15,382.15,78.15,382.15z M104.75,324.35h9c4.9,0,6.2-2.8,6.2-6.6v-4.8c0-3.8-1.3-6.6-6.2-6.6h-9V324.35z"/>
	<path class="st3" d="M78.25,501.85c-3.5,0-5-1.5-5-5v-90.8c0-3.5,1.5-5,5-5h21.7c3.5,0,5,1.5,5,5v32.2h3.2l14.4-32.7
		c1.4-3.4,3.4-4.6,7-4.6h21.6c3.2,0,4.3,1.7,3.1,4.6l-14.1,32.7c10.5,0.6,17.2,7.8,17.2,19.1v39.5c0,3.5-1.5,5-5,5h-21.6
		c-3.5,0-5-1.5-5-5v-27.3c0-3.1-1.5-4.8-4.5-4.8h-16.1v32.1c0,3.5-1.5,5-5,5L78.25,501.85L78.25,501.85z"/>
	<path class="st3" d="M74.35,618.35v-16.7c0-3.5,1.5-5,5-5h18.8v-47.1h-18.8c-3.5,0-5-1.5-5-5v-17c0-3.5,1.5-5,5-5h71.5
		c3.5,0,5,1.5,5,5v17c0,3.5-1.5,5-5,5h-18.7v47.1h18.8c3.5,0,5,1.5,5,5v16.7c0,3.5-1.5,5-5,5h-71.5
		C75.95,623.35,74.35,621.85,74.35,618.35z"/>
	<path class="st3" d="M78.15,744.85c-3.5,0-5-1.5-5-5v-90.8c0-3.5,1.5-5,5-5h14.6c3.6,0,5.9,1,8.3,3.8l25.2,31.1v-29.9
		c0-3.5,1.5-5,5-5h21c3.5,0,5,1.5,5,5v90.8c0,3.5-1.5,5-5,5h-21c-3.5,0-5-1.5-5-5v-17.2l-22-29v46.3c0,3.5-1.5,5-5,5h-21.1V744.85z"
		/>
	<path class="st3" d="M106.85,864.55c-26.5,0-34.5-11.6-34.5-28.6v-43.7c0-17,8-28.6,34.5-28.6h36.2c3.5,0,5,1.5,5,5v17
		c0,3.5-1.5,5-5,5h-30.3c-7.3,0-8.6,3.4-8.6,7v33.5c0,3.8,0.8,6.9,6.4,6.9h14.7v-21.9c0-3.5,1.5-5,5-5h21.9c3.5,0,5,1.5,5,5v43.3
		c0,3.5-1.5,5-5,5h-45.3C106.85,864.45,106.85,864.55,106.85,864.55z"/>
	<path class="st1" d="M89.65,106.25v27.6h-1.4v-75.6h33.9c17.7,0,21,8.1,21,19.1v10.4c0,10.9-3.4,18.6-21,18.6h-32.5
		C89.65,106.35,89.65,106.25,89.65,106.25z M122.15,104.85c16.5,0,19.6-7.1,19.6-17.2v-10.4c0-10.1-3.1-17.7-19.6-17.7h-32.5v45.3
		C89.65,104.85,122.15,104.85,122.15,104.85z"/>
	<path class="st1" d="M140.65,225.05h-51.7v24.1h-1.4v-29.9c0-5.2,0.8-9.5,2.4-13.6l9-23c2.1-5.2,3.8-9.3,10.2-9.3h10.8
		c6.2,0,7.8,3.9,10.1,9.4l9.7,22.8c1.5,4.1,2.4,8.4,2.4,13.6v29.9h-1.4v-24H140.65z M88.95,223.65h51.7v-4.3c0-5-0.8-9.3-2.2-13
		l-9.7-22.8c-2.1-4.9-3.6-8.6-8.8-8.6h-10.8c-5.6,0-7.1,3.6-9,8.4l-9,23c-1.4,3.8-2.2,8-2.2,13V223.65z"/>
	<path class="st1" d="M88.15,369.55v-75.7h32c10.9,0,16,6.7,16,16v9.7c0,8.6-1.7,14.2-8.4,16.3h1.5c11.5,0,14,5.2,14,15v18.8h-1.4
		v-18.9c0-9.3-2-13.7-12.6-13.7h-39.7v32.5L88.15,369.55L88.15,369.55z M89.55,295.25v40.5h30.6c11.6,0,14.6-5.7,14.6-16.1v-9.8
		c0-8.7-4.6-14.6-14.6-14.6H89.55z"/>
	<path class="st1" d="M88.35,489.25v-75.7h1.4v37.3h28l16.1-37.3h1.5l-16.1,37.3h5.7c11.5,0,17,3.9,17,13.7v24.7h-1.4v-24.7
		c0-9-5.2-12.3-15.6-12.3h-35.3v37H88.35z"/>
	<path class="st1" d="M86.85,610.75v-1.4h27.5v-72.9h-27.5v-1.4h56.3v1.4h-27.5v72.9h27.5v1.4H86.85z"/>
	<path class="st1" d="M91.65,657.75l49.3,58v-59.1h1.4v75.7h-1.4v-14.4l-50.7-59.4c-0.3-0.3-0.4-0.4-0.7-0.4s-0.3,0.3-0.3,0.4v73.9
		h-1.4v-74.1c0-1.1,0.8-1.7,1.7-1.7C90.35,656.45,90.65,656.75,91.65,657.75z"/>
	<path class="st1" d="M87.55,833.95v-39.2c0-13.3,4.5-18.4,22.4-18.4h25.4v1.4h-25.4c-16.5,0-21,4.5-21,17v39.2
		c0,12.2,4.9,16.7,23.8,16.7h27.8v-26.8h1.4v28.2h-29.2C92.15,851.95,87.55,846.95,87.55,833.95z"/>
</g>
<g>
	<path class="st4" d="M240.75,12.55c0-2,0.9-2.9,2.9-2.9h52.2c2,0,2.9,0.9,2.9,2.9v24.6c0,14.6-6.4,19-15.7,19h-10.3
		c-9.3,0-15.7-4.3-15.7-19v-9.3h-13.4c-2,0-2.9-0.9-2.9-2.9V12.55z M271.45,27.75v7.2c0,3.1,1.9,3.8,3.9,3.8h4.3
		c2.1,0,3.9-0.6,3.9-3.8v-7.2H271.45z"/>
	<path class="st4" d="M240.75,67.45c0-2,0.9-2.9,2.9-2.9h52.2c2,0,2.9,0.9,2.9,2.9v37.3c0,2-0.9,2.9-2.9,2.9h-9.4
		c-2,0-2.9-0.9-2.9-2.9v-22.2h-6.2v15.7c0,2-0.9,2.9-2.9,2.9h-8.6c-2,0-2.9-0.9-2.9-2.9v-15.7h-6.9v22.2c0,2-0.9,2.9-2.9,2.9h-9.4
		c-2,0-2.9-0.9-2.9-2.9v-37.3H240.75z"/>
	<path class="st4" d="M240.75,120.15c0-2,0.9-2.9,2.9-2.9h52.2c2,0,2.9,0.9,2.9,2.9v26.8c0,12.1-5.5,15.9-13.4,15.9h-3.7
		c-4.5,0-7.7-1.1-9.2-4.5c-0.6,5.9-4.9,9.7-11.7,9.7h-17.1c-2,0-2.9-0.9-2.9-2.9v-12.5c0-2,0.9-2.9,2.9-2.9h12.3
		c2.4,0,3.5-0.8,3.5-3.1v-11.3h-15.8c-2,0-2.9-0.9-2.9-2.9L240.75,120.15L240.75,120.15z M273.85,135.45v6c0,2.8,1.6,3.5,3.8,3.5
		h2.7c2.2,0,3.8-0.7,3.8-3.5v-6H273.85z"/>
	<path class="st4" d="M240.75,179.95c0-2,0.9-2.9,2.9-2.9h52.2c2,0,2.9,0.9,2.9,2.9v13c0,1.7-0.6,2.7-2.4,3.7l-13.1,7.2
		c-1,0.6-1.4,0.8-1.4,1.4v0.7c0,0.6,0.4,0.9,1.4,1.4l13.1,7.2c1.8,1,2.4,2,2.4,3.7v13c0,2-0.9,2.9-2.9,2.9h-52.2
		c-2,0-2.9-0.9-2.9-2.9v-12.4c0-2.1,0.9-2.9,2.9-2.9h28.3l-8.8-4.7c-1.9-1-2.6-2.2-2.6-4.3v-3.2c0-2.1,0.7-3.3,2.6-4.3l8.8-4.7
		h-28.3c-2,0-2.9-0.9-2.9-2.9L240.75,179.95L240.75,179.95z"/>
	<path class="st4" d="M240.75,258.85v-11.8c0-2,0.9-2.9,2.9-2.9h21.2c3.2,0,7.2,1,12.9,3.1l18.3,7c1.9,0.6,2.7,1.9,2.7,4.1v21.7
		c0,2.1-0.8,3.4-2.7,4l-18.3,7c-5.6,2.2-9.7,3.1-12.9,3.1h-21.2c-2,0-2.9-0.9-2.9-2.9v-12.2c0-2.2,0.9-3.1,2.9-3.1h11.3v-14.2h-11.3
		C241.55,261.75,240.75,260.85,240.75,258.85z M269.55,262.55v12.6l12.2-3.8c1-0.4,1.4-0.9,1.4-1.5v-2c0-0.6-0.4-1.1-1.4-1.5
		L269.55,262.55z"/>
	<path class="st4" d="M240.75,306.95c0-2,0.9-2.9,2.9-2.9h52.2c2,0,2.9,0.9,2.9,2.9v8.4c0,2.1-0.6,3.4-2.2,4.7l-17.9,15.7h17.1
		c2,0,2.9,0.9,2.9,2.9v12.1c0,2-0.9,2.9-2.9,2.9h-52.2c-2,0-2.9-0.9-2.9-2.9v-12.1c0-2,0.9-2.9,2.9-2.9h9.9l16.7-13.8h-26.6
		c-2,0-2.9-0.9-2.9-2.9v-12.1L240.75,306.95L240.75,306.95z"/>
	<path class="st4" d="M240.75,367.55c0-2,0.9-2.9,2.9-2.9h52.2c2,0,2.9,0.9,2.9,2.9v37.3c0,2-0.9,2.9-2.9,2.9h-9.4
		c-2,0-2.9-0.9-2.9-2.9v-22.1h-6.2v15.7c0,2-0.9,2.9-2.9,2.9h-8.6c-2,0-2.9-0.9-2.9-2.9v-15.7h-6.9v22.2c0,2-0.9,2.9-2.9,2.9h-9.4
		c-2,0-2.9-0.9-2.9-2.9v-37.4H240.75z"/>
	<path class="st4" d="M240.75,420.25c0-2,0.9-2.9,2.9-2.9h52.2c2,0,2.9,0.9,2.9,2.9v8.4c0,2.1-0.6,3.4-2.2,4.7l-17.9,15.6h17.1
		c2,0,2.9,0.9,2.9,2.9v12.1c0,2-0.9,2.9-2.9,2.9h-52.2c-2,0-2.9-0.9-2.9-2.9v-12.1c0-2,0.9-2.9,2.9-2.9h9.9l16.7-13.8h-26.6
		c-2,0-2.9-0.9-2.9-2.9v-12L240.75,420.25L240.75,420.25z"/>
	<path class="st4" d="M240.75,492.25c0-2,0.9-2.9,2.9-2.9h39.5v-11.8c0-2,0.9-2.9,2.9-2.9h9.7c2,0,2.9,0.9,2.9,2.9v42.5
		c0,2-0.9,2.9-2.9,2.9h-9.7c-2,0-2.9-0.9-2.9-2.9v-11.8h-39.5c-2,0-2.9-0.9-2.9-2.9V492.25z"/>
	<path class="st4" d="M240.75,550.95c0-2,0.9-2.9,2.9-2.9h52.2c2,0,2.9,0.9,2.9,2.9v24.6c0,14.6-6.4,19-15.7,19h-10.3
		c-9.3,0-15.7-4.3-15.7-19v-9.3h-13.4c-2,0-2.9-0.9-2.9-2.9V550.95z M271.45,566.15v7.2c0,3.1,1.9,3.8,3.9,3.8h4.3
		c2.1,0,3.9-0.6,3.9-3.8v-7.2H271.45z"/>
	<path class="st4" d="M240.75,605.85c0-2,0.9-2.9,2.9-2.9h52.2c2,0,2.9,0.9,2.9,2.9v26.8c0,12.1-5.5,15.9-13.4,15.9h-3.7
		c-4.5,0-7.7-1.1-9.2-4.5c-0.6,5.9-4.9,9.7-11.7,9.7h-17.1c-2,0-2.9-0.9-2.9-2.9v-12.5c0-2,0.9-2.9,2.9-2.9h12.3
		c2.4,0,3.5-0.8,3.5-3.1v-11.3h-15.8c-2,0-2.9-0.9-2.9-2.9L240.75,605.85L240.75,605.85z M273.85,621.15v6c0,2.8,1.6,3.5,3.8,3.5
		h2.7c2.2,0,3.8-0.7,3.8-3.5v-6H273.85z"/>
	<path class="st4" d="M240.75,665.65c0-2,0.9-2.9,2.9-2.9h52.2c2,0,2.9,0.9,2.9,2.9v37.3c0,2-0.9,2.9-2.9,2.9h-9.4
		c-2,0-2.9-0.9-2.9-2.9v-22.2h-6.2v15.7c0,2-0.9,2.9-2.9,2.9h-8.6c-2,0-2.9-0.9-2.9-2.9v-15.7h-6.9v22.2c0,2-0.9,2.9-2.9,2.9h-9.4
		c-2,0-2.9-0.9-2.9-2.9v-37.3H240.75z"/>
	<path class="st4" d="M240.75,716.85c0-2,0.9-2.9,2.9-2.9h9.4c2,0,2.9,0.9,2.9,2.9v21.7c0,1.4,1,2.1,2.3,2.1c1.9,0,2.6-0.7,2.7-2.1
		l1.7-12.1c1.1-7.6,4.3-12.5,13.4-12.5h8.5c9.2,0,14.2,6.2,14.2,16.7v22.5c0,2-0.9,2.9-2.9,2.9h-9.7c-2,0-2.9-0.9-2.9-2.9v-18.8
		c0-1.4-1-2.2-2.4-2.2s-2.4,0.8-2.6,2.2l-1.6,12c-1.1,7.6-4.3,12.6-13.4,12.6h-8.5c-9.2,0-14.2-6.3-14.2-16.7v-25.4H240.75z"/>
	<path class="st4" d="M240.75,768.75c0-2,0.9-2.9,2.9-2.9h9.4c2,0,2.9,0.9,2.9,2.9v21.7c0,1.4,1,2.1,2.3,2.1c1.9,0,2.6-0.7,2.7-2.1
		l1.7-12.1c1.1-7.6,4.3-12.5,13.4-12.5h8.5c9.2,0,14.2,6.2,14.2,16.7v22.5c0,2-0.9,2.9-2.9,2.9h-9.7c-2,0-2.9-0.9-2.9-2.9v-18.8
		c0-1.4-1-2.2-2.4-2.2s-2.4,0.8-2.6,2.2l-1.6,12c-1.1,7.6-4.3,12.6-13.4,12.6h-8.5c-9.2,0-14.2-6.3-14.2-16.7v-25.4H240.75z"/>
</g>
<g>
	<path class="st5" d="M579.65,14.55c0-2.7,1.2-3.9,3.9-3.9h70.7c2.7,0,3.9,1.2,3.9,3.9v16.9c0,2.7-1.2,3.9-3.9,3.9h-54v15h17.7
		c2.7,0,3.9,1.2,3.9,3.9v15.8c0,2.7-1.2,3.9-3.9,3.9h-34.4c-2.7,0-3.9-1.2-3.9-3.9V14.55z"/>
	<path class="st5" d="M583.55,84.75h13c2.7,0,3.9,1.2,3.9,3.9v10.8h36.7v-10.7c0-2.7,1.2-3.9,3.9-3.9h13.2c2.7,0,3.9,1.2,3.9,3.9
		v46.5c0,2.7-1.2,3.9-3.9,3.9h-13.2c-2.7,0-3.9-1.2-3.9-3.9v-10.6h-36.7v10.6c0,2.7-1.2,3.9-3.9,3.9h-13c-2.7,0-3.9-1.2-3.9-3.9
		v-46.5C579.65,85.95,580.85,84.75,583.55,84.75z"/>
	<path class="st5" d="M579.65,178.25c0-18.3,7.1-26.9,22.3-26.9h34.1c15.2,0,22.3,8.5,22.3,26.9v27.3c0,2.7-1.2,3.9-3.9,3.9h-13.2
		c-2.7,0-3.9-1.2-3.9-3.9v-22.7c0-4.6-1.7-6.7-5.5-6.7h-26.1c-3.7,0-5.3,1.6-5.3,5v10.6h17c2.7,0,3.9,1.2,3.9,3.9v16.9
		c0,2.7-1.2,3.9-3.9,3.9h-33.7c-2.7,0-3.9-1.2-3.9-3.9v-34.3H579.65z"/>
	<path class="st5" d="M579.65,233.85c0-2.7,1.2-3.9,3.9-3.9h70.7c2.7,0,3.9,1.2,3.9,3.9v16.9c0,2.7-1.2,3.9-3.9,3.9h-23.7v18.2h23.7
		c2.7,0,3.9,1.2,3.9,3.9v17c0,2.7-1.2,3.9-3.9,3.9h-70.7c-2.7,0-3.9-1.2-3.9-3.9v-16.9c0-2.7,1.2-3.9,3.9-3.9h24.2v-18.2h-24.2
		c-2.7,0-3.9-1.2-3.9-3.9V233.85z"/>
	<path class="st5" d="M579.65,332.15c0-2.7,1.2-3.9,3.9-3.9h53.6v-16c0-2.7,1.2-3.9,3.9-3.9h13.2c2.7,0,3.9,1.2,3.9,3.9v57.6
		c0,2.7-1.2,3.9-3.9,3.9h-13.2c-2.7,0-3.9-1.2-3.9-3.9v-16h-53.6c-2.7,0-3.9-1.2-3.9-3.9V332.15z"/>
	<path class="st5" d="M579.65,386.35c0-2.7,1.2-3.9,3.9-3.9h12.8c2.7,0,3.9,1.2,3.9,3.9v29.4c0,1.9,1.4,2.8,3.2,2.8
		c2.5,0,3.5-1,3.7-2.8l2.3-16.4c1.5-10.3,5.9-16.9,18.1-16.9h11.5c12.4,0,19.2,8.4,19.2,22.6v30.6c0,2.7-1.2,3.9-3.9,3.9h-13
		c-2.7,0-3.9-1.2-3.9-3.9v-25.4c0-1.9-1.3-2.9-3.3-2.9s-3.3,1.1-3.5,2.9l-2.2,16.3c-1.5,10.3-5.9,17-18.1,17h-11.5
		c-12.4,0-19.2-8.5-19.2-22.6V386.35z"/>
	<path class="st5" d="M600.05,520.15c0,3.2,1.4,4.1,4.4,4.1h15.1c2.7,0,3.9,1.2,3.9,3.9v21.2c0,2.7-1.1,3.9-3.9,3.9h-11.8
		c-2.7,0-3.9-1.2-3.9-3.9v-2.5h-4.9c-11.7,0-19.2-6.9-19.2-19.5v-30.3c0-13.4,7.5-20.6,19.2-20.6h8.7c10.3,0,16.2,5.9,16.9,13.8
		c2.1-4.8,6.2-6.4,11.8-6.4h5.2c9.6,0,16.7,6.1,16.7,21v23c0,2.7-1.2,3.9-3.9,3.9h-12.6c-2.7,0-3.9-1.2-3.9-3.9v-16.1
		c0-3.5-1.5-4.1-3.3-4.1h-2.3c-1.7,0-3.3,0.7-3.3,4.1v1.6c0,2.7-1.2,3.9-3.9,3.9h-11.2c-2.7,0-3.9-1.2-3.9-3.9v-8.7
		c0-3.5-1.4-4.1-3.2-4.1h-3.4c-1.7,0-3.3,0.7-3.3,4.1L600.05,520.15L600.05,520.15z"/>
	<path class="st5" d="M579.65,591.95c0-2.7,1.2-3.9,3.9-3.9h70.7c2.7,0,3.9,1.2,3.9,3.9v36.8c0,18.3-7.1,26.9-22.3,26.9h-34.1
		c-15.2,0-22.3-8.5-22.3-26.9v-36.8H579.65z M600.25,612.85v13c0,3.5,1.6,5.1,5.3,5.1h26.6c3.6,0,5.2-1.6,5.2-5.1v-13H600.25z"/>
	<path class="st5" d="M579.65,687.85v-16c0-2.7,1.2-3.9,3.9-3.9h28.8c4.4,0,9.8,1.3,17.5,4.3l24.8,9.5c2.5,0.9,3.6,2.6,3.6,5.6v29.4
		c0,2.8-1.1,4.6-3.6,5.5l-24.8,9.5c-7.6,2.9-13.1,4.3-17.5,4.3h-28.8c-2.7,0-3.9-1.2-3.9-3.9v-16.5c0-2.9,1.2-4.3,3.9-4.3h15.3
		v-19.6h-15.3C580.85,691.75,579.65,690.55,579.65,687.85z M618.75,692.85v17.1l16.6-5.1c1.3-0.5,1.9-1.2,1.9-2.1v-2.7
		c0-0.9-0.5-1.5-1.9-2.1L618.75,692.85z"/>
	<path class="st5" d="M579.65,753.15c0-2.7,1.2-3.9,3.9-3.9h70.7c2.7,0,3.9,1.2,3.9,3.9v36.4c0,16.4-7.4,21.5-18.2,21.5h-5
		c-6.1,0-10.5-1.5-12.4-6.1c-0.9,8-6.7,13.2-15.8,13.2h-23.1c-2.7,0-3.9-1.2-3.9-3.9v-16.9c0-2.7,1.2-3.9,3.9-3.9h16.7
		c3.3,0,4.7-1.1,4.7-4.1v-15.3h-21.4c-2.7,0-3.9-1.2-3.9-3.9v-17H579.65z M624.55,773.85v8.2c0,3.8,2.2,4.8,5.1,4.8h3.7
		c2.9,0,5.1-1,5.1-4.8v-8.2H624.55z"/>
	<path class="st5" d="M579.65,834.25c0-2.7,1.2-3.9,3.9-3.9h70.7c2.7,0,3.9,1.2,3.9,3.9v16.9c0,2.7-1.2,3.9-3.9,3.9h-25.1v4.4
		l25.4,11.2c2.6,1.1,3.6,2.6,3.6,5.5v16.8c0,2.5-1.3,3.4-3.6,2.4l-25.4-11.1c-0.4,8.2-6.1,13.4-14.8,13.4h-30.8
		c-2.7,0-3.9-1.2-3.9-3.9v-16.8c0-2.7,1.2-3.9,3.9-3.9h21.3c2.4,0,3.7-1.2,3.7-3.5v-14.4h-25c-2.7,0-3.9-1.2-3.9-3.9L579.65,834.25
		L579.65,834.25z"/>
	<path class="st5" d="M579.65,913.65c0-2.7,1.2-3.9,3.9-3.9h12.8c2.7,0,3.9,1.2,3.9,3.9v29.4c0,1.9,1.4,2.8,3.2,2.8
		c2.5,0,3.5-1,3.7-2.8l2.3-16.4c1.5-10.3,5.9-16.9,18.1-16.9h11.5c12.4,0,19.2,8.4,19.2,22.6v30.6c0,2.7-1.2,3.9-3.9,3.9h-13
		c-2.7,0-3.9-1.2-3.9-3.9v-25.4c0-1.9-1.3-2.9-3.3-2.9s-3.3,1.1-3.5,2.9l-2.2,16.3c-1.5,10.3-5.9,17-18.1,17h-11.5
		c-12.4,0-19.2-8.5-19.2-22.6V913.65z"/>
</g>
<g>
	<path class="st6" d="M347.55,18.05c0-5.2,2.3-7.5,7.5-7.5h92.5c51,0,80.4,29.4,80.4,80.5v92.4c0,5.2-2.3,7.5-7.5,7.5h-166.3
		c-3.8,0-6.6-2.8-6.6-6.6L347.55,18.05L347.55,18.05z"/>
	<path class="st6" d="M520.45,384.95h-165.4c-5.2,0-7.5-2.3-7.5-7.5v-165.4c0-5.2,2.3-7.5,7.5-7.5h165.3c5.2,0,7.5,2.3,7.5,7.5
		v165.3C527.95,382.65,525.65,384.95,520.45,384.95z"/>
	<path class="st6" d="M520.45,578.95h-165.4c-5.2,0-7.5-2.3-7.5-7.5v-165.3c0-5.2,2.3-7.5,7.5-7.5h165.3c5.2,0,7.5,2.3,7.5,7.5
		v165.3C527.95,576.65,525.65,578.95,520.45,578.95z"/>
	<path class="st6" d="M520.45,773.05h-165.4c-5.2,0-7.5-2.3-7.5-7.5v-165.4c0-5.2,2.3-7.5,7.5-7.5h165.3c5.2,0,7.5,2.3,7.5,7.5
		v165.3C527.95,770.75,525.65,773.05,520.45,773.05z"/>
	<path class="st6" d="M520.45,967.05h-165.4c-5.2,0-7.5-2.3-7.5-7.5v-165.4c0-5.2,2.3-7.5,7.5-7.5h165.3c5.2,0,7.5,2.3,7.5,7.5
		v165.3C527.95,964.75,525.65,967.05,520.45,967.05z"/>
</g>
<g>
	<path class="st1" d="M418.75,149.15v-72.2h-20.1c-4.8,0-6.9-2.1-6.9-6.9v-18.1c0-4.8,2.1-6.9,6.9-6.9h79.2c4.8,0,6.9,2.1,6.9,6.9
		v18.1c0,4.8-2.1,6.9-6.9,6.9h-20.1v72.1c0,4.8-2.1,6.9-6.9,6.9h-25.2C420.85,156.05,418.75,153.95,418.75,149.15z M456.25,149.15
		v-73.7h21.6c3.8,0,5.4-1.6,5.4-5.4v-18.1c0-3.8-1.6-5.4-5.4-5.4h-79.2c-3.7,0-5.4,1.6-5.4,5.4v18.1c0,3.8,1.7,5.4,5.4,5.4h21.6
		v73.6c0,3.8,1.6,5.4,5.4,5.4h25.2C454.55,154.55,456.25,152.85,456.25,149.15z M437.45,61.55h-30.7v-1.5h63v1.5h-30.7v79.5h-1.5
		v-79.5C437.55,61.55,437.45,61.55,437.45,61.55z"/>
	<path class="st1" d="M393.05,341.15v-17.8c0-4.8,2.1-6.9,6.9-6.9h18.6v-47.4h-18.6c-4.8,0-6.9-2.1-6.9-6.9v-18.1
		c0-4.8,2.1-6.9,6.9-6.9h76.5c4.8,0,6.9,2.1,6.9,6.9v18.1c0,4.8-2.1,6.9-6.9,6.9h-18.6v47.4h18.6c4.8,0,6.9,2.1,6.9,6.9v17.8
		c0,4.8-2.1,6.9-6.9,6.9h-76.5C395.15,348.05,393.05,345.95,393.05,341.15z M476.45,346.55c3.7,0,5.4-1.6,5.4-5.4v-17.8
		c0-3.8-1.6-5.4-5.4-5.4h-20.1v-50.4h20.1c3.7,0,5.4-1.6,5.4-5.4v-18.1c0-3.8-1.6-5.4-5.4-5.4h-76.5c-3.8,0-5.4,1.6-5.4,5.4v18.1
		c0,3.8,1.6,5.4,5.4,5.4h20.1v50.4h-20.1c-3.8,0-5.4,1.6-5.4,5.4v17.8c0,3.8,1.6,5.4,5.4,5.4H476.45z M408.05,333.05v-1.5h29.4v-78
		h-29.4v-1.5h60.3v1.5h-29.4v78h29.4v1.5H408.05z"/>
	<path class="st1" d="M398.65,542.55c-4.8,0-6.9-2.1-6.9-6.9v-97.2c0-4.8,2.1-6.9,6.9-6.9h48.3c23.8,0,31,10.9,31,26.5v6.9
		c0,7.5-1.6,13.2-6,16.5c8.1,2.7,14.2,10.6,14.2,22.3v31.8c0,4.8-2.1,6.9-6.9,6.9h-23.2c-4.8,0-6.9-2.1-6.9-6.9v-22.8
		c0-3.3-1-5-4.2-5h-16.3v27.9c0,4.8-2.1,6.9-6.9,6.9H398.65L398.65,542.55z M427.15,535.65v-29.4h17.8c4.2,0,5.7,2,5.7,6.5v22.9
		c0,3.8,1.6,5.4,5.4,5.4h23.2c3.8,0,5.4-1.6,5.4-5.4v-31.8c0-12.6-7.5-20.5-16.6-21.7c6.3-2.7,8.4-8.7,8.4-17.1v-6.9
		c0-14.8-7-25-29.5-25h-48.3c-3.7,0-5.4,1.6-5.4,5.4v97.2c0,3.8,1.7,5.4,5.4,5.4h23.1C425.45,541.05,427.15,539.45,427.15,535.65z
		 M409.45,527.55v-81h34.2c11.7,0,17.1,7.2,17.1,17.1v10.3c0,9.1-1.8,15.1-9,17.4h1.6c12.3,0,15,5.5,15,16v20.1h-1.5v-20.1
		c0-9.9-2.1-14.7-13.5-14.7h-42.4v34.8h-1.5L409.45,527.55L409.45,527.55z M410.95,448.05v43.3h32.7c12.4,0,15.6-6.1,15.6-17.2
		v-10.5c0-9.3-4.9-15.6-15.6-15.6L410.95,448.05L410.95,448.05z M436.75,460.05c5.2,0,6.6,3,6.6,7v5.1c0,4-1.4,7-6.6,7h-9.6v-19.2
		h9.6V460.05z M428.65,461.55v16.2h8.1c4.2,0,5.1-2.4,5.1-5.5v-5.1c0-3.1-0.9-5.5-5.1-5.5h-8.1V461.55z"/>
	<path class="st1" d="M391.85,729.45v-97.2c0-4.8,2.1-6.9,6.9-6.9h77.7c4.8,0,6.9,2.1,6.9,6.9v17.5c0,4.8-2.1,6.9-6.9,6.9h-48v8.5
		h35.8c4.8,0,6.9,1.9,6.9,6.9v16c0,4.8-2.1,6.9-6.9,6.9h-35.8v9.9h48c4.8,0,6.9,2.1,6.9,6.9v17.5c0,4.8-2.1,6.9-6.9,6.9h-77.7
		C393.95,736.35,391.85,734.25,391.85,729.45z M481.85,729.45v-17.5c0-3.8-1.6-5.4-5.4-5.4h-49.5v-12.9h37.3c3.8,0,5.4-1.7,5.4-5.4
		v-16c0-3.9-1.6-5.4-5.4-5.4h-37.3v-11.5h49.5c3.7,0,5.4-1.6,5.4-5.4v-17.5c0-3.8-1.6-5.4-5.4-5.4h-77.7c-3.7,0-5.4,1.6-5.4,5.4
		v97.2c0,3.7,1.6,5.4,5.4,5.4h77.7C480.25,734.85,481.85,733.25,481.85,729.45z M468.35,721.35h-58.9v-81h58.9v1.5h-57.4v37.6h45.3
		v1.5h-45.3v38.8h57.4V721.35z"/>
	<path class="st1" d="M452.35,930.95h-53.7c-4.8,0-6.9-2.1-6.9-6.9v-17.5c0-4.8,2.1-6.9,6.9-6.9h46.6c1.6,0,2.4-1.3,2.4-2.8
		c0-2.2-0.8-3.5-2.6-3.6l-28.8-3.1c-15-2.2-24.6-8.7-24.6-26.4v-15.7c0-18,12-27.9,32.5-27.9h49.8c4.8,0,6.9,2.1,6.9,6.9v17.8
		c0,4.8-2.1,6.9-6.9,6.9h-42.7c-1.6,0-2.5,1.3-2.5,3c0,1.8,0.9,3.1,2.7,3.3l28.6,3c15,2.2,24.7,8.7,24.7,26.4v15.7
		C484.85,921.05,472.75,930.95,452.35,930.95z M483.35,903.05v-15.7c0-16.8-9.3-22.8-23.4-24.9l-28.6-3c-2.5-0.3-4-2.1-4-4.8
		s1.5-4.5,4-4.5h42.7c3.7,0,5.4-1.7,5.4-5.4v-17.8c0-3.8-1.6-5.4-5.4-5.4h-49.8c-19.5,0-31,9.3-31,26.4v15.7
		c0,16.8,9.1,22.8,23.2,24.9l28.8,3.1c2.5,0.3,3.9,1.7,3.9,5.1c0,2.4-1.3,4.3-3.9,4.3h-46.6c-3.7,0-5.4,1.6-5.4,5.4v17.5
		c0,3.7,1.7,5.4,5.4,5.4h53.7C471.65,929.45,483.35,920.15,483.35,903.05z M465.95,836.45h-41.1c-8.5,0-13.8,4.6-13.8,12.1v13.8
		c0,6,4,10,10.6,10.6l31.9,3.1c9,0.9,13.3,5.5,13.3,13.6v12.5c0,8.4-6.4,13.6-16.6,13.6h-43.6v-1.5h43.6c9.3,0,15.1-4.7,15.1-12.1
		v-12.5c0-7.2-3.9-11.4-12.1-12.1l-31.9-3.1c-7.3-0.8-11.8-5.4-11.8-12.1v-13.8c0-8.4,5.8-13.6,15.3-13.6h41.1V836.45z"/>
</g>
<g>
	<path d="M707.45,70.45c-2.3,0-3.3-1-3.3-3.3v-46.6c0-1.3,0.4-2.1,1-2.7l9.3-7.8c0.5-0.4,1.3-0.6,2.3-0.6h11.2c2.3,0,3.3,1,3.3,3.3
		v34.9h0.7v-3.2c0-1.3,0.4-2.1,1-2.7l9.1-7.8c0.5-0.4,1.3-0.6,2.3-0.6h10.4c2.3,0,3.3,1,3.3,3.3v22.7c0,1.3-0.4,2.1-1,2.7l-9.4,7.8
		c-0.4,0.4-1.2,0.7-2.2,0.7h-38L707.45,70.45L707.45,70.45z M757.35,59.35v-22.7c0-1.8-0.8-2.6-2.6-2.6h-10.4
		c-1.8,0-2.6,0.8-2.6,2.6v11.7h-11.2v-35.7c0-1.8-0.8-2.6-2.6-2.6h-11.2c-1.8,0-2.6,0.8-2.6,2.6v46.6c0,1.8,0.8,2.6,2.6,2.6h38
		C756.55,61.85,757.35,61.15,757.35,59.35z M722.05,16.55h0.7v38.2h26.4v-14.2h0.7v14.9h-27.8L722.05,16.55L722.05,16.55z"/>
	<path d="M747.05,133.05c-0.4,0.4-1.2,0.7-2.2,0.7h-36.7c-2.3,0-3.3-1-3.3-3.3v-8.6c0-1.3,0.4-2.1,1-2.7l9.3-7.8
		c0.4-0.4,1.1-0.6,1.9-0.6v-14.9h-8.9c-2.3,0-3.3-1-3.3-3.3v-8.7c0-1.3,0.4-2.1,1-2.7l9.3-7.8c0.5-0.4,1.3-0.6,2.3-0.6h36.7
		c2.3,0,3.3,1,3.3,3.3v8.7c0,1.3-0.4,2.1-1,2.7l-9.4,7.8l0.1-0.1c-0.4,0.4-1.1,0.7-1.9,0.8v14.8h8.9c2.3,0,3.3,1,3.3,3.3v8.6
		c0,1.3-0.4,2.1-1,2.7L747.05,133.05z M754.05,125.25c1.8,0,2.6-0.8,2.6-2.6v-8.6c0-1.8-0.8-2.6-2.6-2.6h-9.6v-24.2h9.6
		c1.8,0,2.6-0.8,2.6-2.6v-8.7c0-1.8-0.8-2.6-2.6-2.6h-36.7c-1.8,0-2.6,0.8-2.6,2.6v8.7c0,1.8,0.8,2.6,2.6,2.6h9.6v24.2h-9.6
		c-1.8,0-2.6,0.8-2.6,2.6v8.6c0,1.8,0.8,2.6,2.6,2.6C717.35,125.25,754.05,125.25,754.05,125.25z M721.25,118.75v-0.7h14.1v-37.4
		h-14.1v-0.7h28.9v0.7h-14.1v37.4h14.1v0.7H721.25z"/>
	<path d="M720.85,203.05c-2.3,0-3.3-1-3.3-3.3v-3.4c-10.9-1.9-13.7-9.5-13.7-16.9v-21.7c0-4.5,1.1-8.3,4.3-11.1l9.4-7.8
		c3.3-2.8,8.9-4.5,18.2-4.5c18.5,0,22.6,6.4,22.6,15.5v23.9c0,4.5-1.1,8.3-4.3,11l-9.3,7.7l-0.3,0.3c-0.1,0.8-0.4,1.4-0.9,1.8
		l-9.4,7.8c-0.4,0.4-1.2,0.7-2.2,0.7H720.85z M743.75,191.85v-4c10.9-1.7,13.8-6.9,13.8-14.2v-23.9c0-8.8-4.2-14.8-21.9-14.8
		c-17.6,0-21.9,6-21.9,14.8v24c0,7.2,2.9,12.4,13.7,14.1v4c0,1.8,0.8,2.6,2.6,2.6h11.1C742.95,194.45,743.75,193.65,743.75,191.85z
		 M735.25,182.45c-10.6-0.1-13.6-4-13.6-9.7v-21.2c0-5.8,3-9.7,14-9.7c10.9,0,14.2,3.9,14.2,9.7v21.2c0,5.8-3.2,9.6-13.8,9.7v5.5
		h-0.7v-5.5H735.25z M735.65,181.75c10.4,0,13.5-3.6,13.5-9v-21.2c0-5.4-3.1-9-13.5-9s-13.2,3.6-13.2,9v21.2
		C722.35,178.15,725.25,181.75,735.65,181.75z M730.15,152.45c0-1.9,0.8-3.3,5.5-3.3c4.8,0,5.6,1.4,5.6,3.3v19.6
		c0,1.9-0.8,3.4-5.6,3.4c-4.7,0-5.5-1.4-5.5-3.4V152.45z M732.25,173.95v-13.7c0-0.9-0.3-1.7-1.4-2.1v13.6
		C730.85,172.75,731.15,173.45,732.25,173.95z"/>
	<path d="M704.15,246.55v-33.5c0-1.3,0.4-2.1,1-2.7l9.3-7.8c0.5-0.4,1.3-0.6,2.3-0.6h11.3c2.3,0,3.3,1,3.3,3.3v6.5
		c0.1-0.6,0.4-1,0.7-1.3l0.1-0.1l9.4-7.8c0.5-0.4,1.2-0.6,2.3-0.6h10.9c2.3,0,3.3,1,3.3,3.3v35.6c0,4.5-1.1,8.3-4.4,11l-9.3,7.8
		c-3.3,2.7-8.9,4.4-17.9,4.4C708.25,264.15,704.15,255.65,704.15,246.55z M757.25,205.25c0-1.8-0.8-2.6-2.6-2.6h-10.9
		c-1.9,0-2.6,0.8-2.6,2.6v32.8c0,1.9-0.9,3.4-5.3,3.4s-5.3-1.4-5.3-3.4v-32.8c0-1.8-0.8-2.6-2.6-2.6h-11.3c-1.8,0-2.6,0.8-2.6,2.6
		v35.6c0,8.8,4.3,14.7,21.6,14.7s21.6-5.9,21.6-14.7L757.25,205.25L757.25,205.25z M722.75,209.15v30c0,5.4,2.7,9,12.7,9
		c10.4,0,13.4-3.6,13.4-9v-30h0.7v30c0,5.8-3.1,9.7-14.1,9.7c-10.6,0-13.5-3.9-13.5-9.7v-30H722.75z"/>
	<path d="M747.05,325.05c-0.4,0.4-1.2,0.7-2.2,0.7h-36.7c-2.3,0-3.3-1-3.3-3.3v-8.6c0-1.3,0.4-2.1,1-2.7l9.3-7.8
		c0.4-0.4,1.1-0.6,1.9-0.6v-14.9h-8.9c-2.3,0-3.3-1-3.3-3.3v-8.7c0-1.3,0.4-2.1,1-2.7l9.3-7.8c0.5-0.4,1.3-0.6,2.3-0.6h36.7
		c2.3,0,3.3,1,3.3,3.3v8.7c0,1.3-0.4,2.1-1,2.7l-9.4,7.8l0.1-0.1c-0.4,0.4-1.1,0.7-1.9,0.8v14.8h8.9c2.3,0,3.3,1,3.3,3.3v8.6
		c0,1.3-0.4,2.1-1,2.7L747.05,325.05z M754.05,317.25c1.8,0,2.6-0.8,2.6-2.6v-8.6c0-1.8-0.8-2.6-2.6-2.6h-9.6v-24.2h9.6
		c1.8,0,2.6-0.8,2.6-2.6v-8.7c0-1.8-0.8-2.6-2.6-2.6h-36.7c-1.8,0-2.6,0.8-2.6,2.6v8.7c0,1.8,0.8,2.6,2.6,2.6h9.6v24.2h-9.6
		c-1.8,0-2.6,0.8-2.6,2.6v8.6c0,1.8,0.8,2.6,2.6,2.6H754.05z M721.25,310.75v-0.7h14.1v-37.4h-14.1v-0.7h28.9v0.7h-14.1v37.4h14.1
		v0.7H721.25z"/>
	<path d="M730.65,388.55h-23.2c-2.3,0-3.3-1-3.3-3.3v-46.6c0-1.3,0.4-2.1,1-2.7l9.3-7.8c0.5-0.4,1.3-0.6,2.3-0.6h23.2
		c14.2,0,18.4,6.3,18.4,15.4v22.5c0,4.8-1.2,8.9-4.5,11.6l-9.3,7.8C741.65,387.05,737.25,388.55,730.65,388.55z M757.65,365.25
		v-22.5c0-8.7-4.1-14.7-17.7-14.7h-23.2c-1.8,0-2.6,0.8-2.6,2.6v46.6c0,1.8,0.8,2.6,2.6,2.6h23.2
		C753.55,379.95,757.65,373.95,757.65,365.25z M721.95,334.65h16.4c9.8,0,11.5,4.5,11.5,10v19.1c0,5.5-1.6,9.8-11.5,9.8h-16.4
		V334.65z M722.65,335.35v37.4h15.7c9.2,0,10.8-3.8,10.8-9.1v-19.1c0-5.3-1.7-9.3-10.8-9.3h-15.7V335.35z M738.05,341.85
		c2.9,0,3.4,1.6,3.4,3.5v17.5c0,1.9-0.5,3.5-3.4,3.5h-7.6v-24.5H738.05z M731.15,350.65v15h1.2v-12.4
		C732.35,351.85,732.05,351.05,731.15,350.65z"/>
	<path d="M730.65,474.05h-23.2c-2.3,0-3.3-1-3.3-3.3v-46.6c0-1.3,0.4-2.1,1-2.7l9.3-7.8c0.5-0.4,1.3-0.6,2.3-0.6h23.2
		c14.2,0,18.4,6.3,18.4,15.4v22.5c0,4.8-1.2,8.9-4.5,11.6l-9.3,7.8C741.65,472.65,737.25,474.05,730.65,474.05z M757.65,450.85
		v-22.5c0-8.7-4.1-14.7-17.7-14.7h-23.2c-1.8,0-2.6,0.8-2.6,2.6v46.6c0,1.8,0.8,2.6,2.6,2.6h23.2
		C753.55,465.55,757.65,459.55,757.65,450.85z M721.95,420.15h16.4c9.8,0,11.5,4.5,11.5,10v19.1c0,5.5-1.6,9.8-11.5,9.8h-16.4
		V420.15z M722.65,420.85v37.4h15.7c9.2,0,10.8-3.8,10.8-9.1v-19.1c0-5.3-1.7-9.3-10.8-9.3h-15.7V420.85z M738.05,427.45
		c2.9,0,3.4,1.6,3.4,3.5v17.5c0,1.9-0.5,3.5-3.4,3.5h-7.6v-24.5H738.05z M731.15,436.25v15h1.2v-12.5
		C732.35,437.45,732.05,436.55,731.15,436.25z"/>
	<path d="M707.45,536.85c-2.3,0-3.3-1-3.3-3.3v-46.6c0-1.3,0.4-2.1,1-2.7l9.3-7.8c0.5-0.4,1.3-0.6,2.3-0.6h37.3c2.3,0,3.3,1,3.3,3.3
		v8.4c0,1.3-0.4,2.1-1,2.7l-6.2,5.1c0.9,0.5,1.4,1.4,1.4,3v7.7c0,1.3-0.4,2.1-1,2.7l-6.4,5.4h9.9c2.3,0,3.3,1,3.3,3.3v8.4
		c0,1.3-0.4,2.1-1,2.7l-9.4,7.8c-0.4,0.4-1.2,0.7-2.2,0.7h-37.3L707.45,536.85L707.45,536.85z M756.65,525.65v-8.4
		c0-1.8-0.8-2.6-2.6-2.6h-23.7v-6.2h17.9c1.8,0,2.6-0.8,2.6-2.6v-7.7c0-1.9-0.8-2.6-2.6-2.6h-17.9v-5.5h23.7c1.8,0,2.6-0.8,2.6-2.6
		v-8.4c0-1.8-0.8-2.6-2.6-2.6h-37.3c-1.8,0-2.6,0.8-2.6,2.6v46.6c0,1.8,0.8,2.6,2.6,2.6h37.3
		C755.85,528.25,756.65,527.45,756.65,525.65z M750.15,521.75h-28.3v-38.9h28.3v0.7h-27.6v18.2h21.7v0.7h-21.7v18.6h27.6V521.75z"/>
	<path d="M720.35,600.15c-2.3,0-3.3-1-3.3-3.3v-34.6h-9.6c-2.3,0-3.3-1-3.3-3.3v-8.7c0-1.3,0.4-2.1,1-2.7l9.3-7.8
		c0.5-0.4,1.3-0.6,2.3-0.6h38c2.3,0,3.3,1,3.3,3.3v8.7c0,1.3-0.4,2.1-1,2.7l-9.4,7.8c-0.4,0.4-1.2,0.7-2.2,0.7h-0.4v26.8
		c0,1.3-0.4,2.1-1,2.7l-9.4,7.8c-0.4,0.4-1.2,0.7-2.2,0.7h-12.1L720.35,600.15L720.35,600.15z M744.35,588.95v-35.3h10.4
		c1.8,0,2.6-0.8,2.6-2.6v-8.7c0-1.8-0.8-2.6-2.6-2.6h-38c-1.8,0-2.6,0.8-2.6,2.6v8.7c0,1.8,0.8,2.6,2.6,2.6h10.4v35.3
		c0,1.8,0.8,2.6,2.6,2.6h12.1C743.55,591.55,744.35,590.75,744.35,588.95z M735.35,546.95h-14.8v-0.7h30.2v0.7h-14.8v38.1h-0.7
		v-38.1H735.35z"/>
	<path d="M707.45,661.65c-2.3,0-3.3-1-3.3-3.3v-46.6c0-1.3,0.4-2.1,1-2.7l9.3-7.8c0.5-0.4,1.3-0.6,2.3-0.6h37.3c2.3,0,3.3,1,3.3,3.3
		v8.4c0,1.3-0.4,2.1-1,2.7l-6.2,5.1c0.9,0.5,1.4,1.4,1.4,3v7.7c0,1.3-0.4,2.1-1,2.7l-6.4,5.4h9.9c2.3,0,3.3,1,3.3,3.3v8.4
		c0,1.3-0.4,2.1-1,2.7l-9.4,7.8c-0.4,0.4-1.2,0.7-2.2,0.7h-37.3L707.45,661.65L707.45,661.65z M756.65,650.55v-8.4
		c0-1.8-0.8-2.6-2.6-2.6h-23.7v-6.2h17.9c1.8,0,2.6-0.8,2.6-2.6v-7.7c0-1.9-0.8-2.6-2.6-2.6h-17.9v-5.5h23.7c1.8,0,2.6-0.8,2.6-2.6
		v-8.4c0-1.8-0.8-2.6-2.6-2.6h-37.3c-1.8,0-2.6,0.8-2.6,2.6v46.6c0,1.8,0.8,2.6,2.6,2.6h37.3
		C755.85,653.15,756.65,652.35,756.65,650.55z M750.15,646.65h-28.3v-38.9h28.3v0.7h-27.6v18.1h21.7v0.7h-21.7v18.6h27.6V646.65z"/>
	<path d="M720.75,723.65c-0.4,0.4-1.2,0.7-2.2,0.7h-11.1c-2.3,0-3.3-1-3.3-3.3v-46.6c0-1.3,0.4-2.1,1-2.7l9.3-7.8
		c0.5-0.4,1.3-0.6,2.3-0.6h23.2c11.4,0,14.9,5.3,14.9,12.7v3.3c0,3.5-0.8,6.2-2.7,7.8l-0.1,0.1c3.8,1.3,6.8,5,6.8,10.7v15.3
		c0,1.3-0.4,2.1-1,2.7l-9.4,7.8c-0.4,0.4-1.2,0.7-2.2,0.7h-10.8c-2.3,0-3.3-1-3.3-3.3v-11c0-0.9-0.4-1.7-1-2v5.2
		c0,1.3-0.4,2.1-1,2.7L720.75,723.65z M730.35,713.25v-14.1h8.6c2,0,2.7,0.9,2.7,3.1v11c0,1.8,0.8,2.6,2.6,2.6h11.2
		c1.8,0,2.6-0.8,2.6-2.6v-15.3c0-6-3.6-9.9-8-10.4c3-1.3,4-4.2,4-8.2v-3.3c0-7.1-3.4-12-14.2-12h-23.2c-1.8,0-2.6,0.8-2.6,2.6v46.6
		c0,1.8,0.8,2.6,2.6,2.6h11.1C729.55,715.85,730.35,715.05,730.35,713.25z M721.85,709.35v-38.9h16.4c5.6,0,8.2,3.5,8.2,8.2v5
		c0,4.4-0.9,7.3-4.3,8.3h0.8c5.9,0,7.2,2.7,7.2,7.7v9.6h-0.7v-9.5c0-4.7-1-7.1-6.5-7.1h-20.4v16.7H721.85L721.85,709.35z
		 M722.65,671.25v20.8h15.7c6,0,7.5-3,7.5-8.3v-5c0-4.5-2.4-7.5-7.5-7.5H722.65z M734.95,676.95c2.5,0,3.2,1.4,3.2,3.4v2.4
		c0,1.9-0.6,3.4-3.2,3.4h-4.6v-9.2L734.95,676.95L734.95,676.95z"/>
	<path d="M722.85,785.85c-14.2,0-19.1-7.8-19.1-16.8v-21c0-4.8,1.2-8.9,4.5-11.7l9.3-7.8c2.9-2.4,7.3-3.8,14-3.8h18.6
		c2.3,0,3.3,1,3.3,3.3v8.7c0,1.3-0.4,2.1-1,2.7l-9.4,7.8c-0.4,0.4-1.2,0.7-2.2,0.7h-9.9v12.2c0,0.5,0,1,0.1,1.4v-1.3
		c0-1.3,0.4-2.1,1-2.7l9.3-7.8c0.5-0.4,1.3-0.6,2.3-0.6h11.2c2.3,0,3.3,1,3.3,3.3v22.3c0,1.3-0.4,2.1-1,2.7l-9.4,7.8
		c-0.4,0.4-1.2,0.7-2.2,0.7h-22.7L722.85,785.85L722.85,785.85z M757.25,774.75v-22.2c0-1.8-0.8-2.6-2.6-2.6h-11.2
		c-1.8,0-2.6,0.8-2.6,2.6v11.2h-7.6c-2.9,0-3.3-1.6-3.3-3.5v-17.2c0-1.9,0.6-3.6,4.4-3.6h15.5c1.8,0,2.6-0.8,2.6-2.6v-8.7
		c0-1.8-0.8-2.6-2.6-2.6h-18.4c-13.6,0-17.7,6-17.7,14.7v22.5c0,8.7,4.1,14.7,17.7,14.7h23.2
		C756.55,777.35,757.25,776.55,757.25,774.75z M721.65,761.55v-20.1c0-6.8,2.3-9.4,11.5-9.4h13v0.7h-13c-8.5,0-10.8,2.3-10.8,8.7
		v20.1c0,6.3,2.5,8.6,12.2,8.6h14.2v-13.7h0.7v14.5h-15C723.95,770.85,721.65,768.25,721.65,761.55z"/>
	<path d="M707.45,848.65c-2.3,0-3.3-1-3.3-3.3v-46.6c0-1.3,0.4-2.1,1-2.7l9.3-7.8c0.5-0.4,1.3-0.6,2.3-0.6h37.3c2.3,0,3.3,1,3.3,3.3
		v8.4c0,1.3-0.4,2.1-1,2.7l-6.2,5.1c0.9,0.5,1.4,1.4,1.4,3v7.7c0,1.3-0.4,2.1-1,2.7l-6.4,5.4h9.9c2.3,0,3.3,1,3.3,3.3v8.4
		c0,1.3-0.4,2.1-1,2.7l-9.4,7.8c-0.4,0.4-1.2,0.7-2.2,0.7h-37.3L707.45,848.65L707.45,848.65z M756.65,837.45v-8.4
		c0-1.8-0.8-2.6-2.6-2.6h-23.7v-6.2h17.9c1.8,0,2.6-0.8,2.6-2.6v-7.7c0-1.9-0.8-2.6-2.6-2.6h-17.9v-5.5h23.7c1.8,0,2.6-0.8,2.6-2.6
		v-8.4c0-1.8-0.8-2.6-2.6-2.6h-37.3c-1.8,0-2.6,0.8-2.6,2.6v46.6c0,1.8,0.8,2.6,2.6,2.6h37.3
		C755.85,840.05,756.65,839.25,756.65,837.45z M750.15,833.55h-28.3v-38.8h28.3v0.7h-27.6v18.1h21.7v0.7h-21.7v18.6h27.6V833.55z"/>
	<path d="M720.45,910.25c-0.4,0.4-1.2,0.7-2.2,0.7h-10.8c-2.3,0-3.3-1-3.3-3.3v-46.6c0-1.3,0.4-2.1,1-2.7l9.3-7.8
		c0.5-0.4,1.3-0.6,2.3-0.6h7.5c2.1,0,3.4,0.6,4.8,2.2l4.3,5.4l8.3-7c0.5-0.4,1.3-0.6,2.3-0.6h10.8c2.3,0,3.3,1,3.3,3.3v46.6
		c0,1.3-0.4,2.1-1,2.7l-9.4,7.8c-0.4,0.4-1.2,0.7-2.2,0.7h-10.8c-2.3,0-3.3-1-3.3-3.3v-8.6l-0.6-0.7v1.5c0,1.3-0.4,2.1-1,2.7
		L720.45,910.25z M730.05,899.85v-23.7l11.3,14.9v8.9c0,1.8,0.8,2.6,2.6,2.6h10.8c1.8,0,2.6-0.8,2.6-2.6v-46.6
		c0-1.8-0.8-2.6-2.6-2.6h-10.8c-1.8,0-2.6,0.8-2.6,2.6v15.3l-13-16c-1.2-1.4-2.4-1.9-4.2-1.9h-7.5c-1.8,0-2.6,0.8-2.6,2.6v46.6
		c0,1.8,0.8,2.6,2.6,2.6h10.8C729.35,902.45,730.05,901.65,730.05,899.85z M723.65,857.65l25.3,29.8v-30.4h0.7v38.9h-0.7v-7.4
		l-26-30.5c-0.1-0.1-0.2-0.2-0.4-0.2c-0.1,0-0.1,0.1-0.1,0.2v37.9h-0.7v-38.1c0-0.6,0.4-0.9,0.9-0.9S723.15,857.15,723.65,857.65z"
		/>
	<path d="M720.35,973.35c-2.3,0-3.3-1-3.3-3.3v-34.6h-9.6c-2.3,0-3.3-1-3.3-3.3v-8.7c0-1.3,0.4-2.1,1-2.7l9.3-7.8
		c0.5-0.4,1.3-0.6,2.3-0.6h38c2.3,0,3.3,1,3.3,3.3v8.7c0,1.3-0.4,2.1-1,2.7l-9.4,7.8c-0.4,0.4-1.2,0.7-2.2,0.7h-0.4v26.8
		c0,1.3-0.4,2.1-1,2.7l-9.4,7.8c-0.4,0.4-1.2,0.7-2.2,0.7h-12.1L720.35,973.35L720.35,973.35z M744.35,962.25v-35.3h10.4
		c1.8,0,2.6-0.8,2.6-2.6v-8.7c0-1.8-0.8-2.6-2.6-2.6h-38c-1.8,0-2.6,0.8-2.6,2.6v8.7c0,1.8,0.8,2.6,2.6,2.6h10.4v35.3
		c0,1.8,0.8,2.6,2.6,2.6h12.1C743.55,964.85,744.35,964.05,744.35,962.25z M735.35,920.25h-14.8v-0.7h30.2v0.7h-14.8v38.1h-0.7
		v-38.1H735.35z"/>
</g>
</svg>
