<?xml version="1.0" encoding="utf-8"?>
<!-- Generator: Adobe Illustrator 19.2.1, SVG Export Plug-In . SVG Version: 6.00 Build 0)  -->
<svg version="1.1" id="Layer_1" xmlns="http://www.w3.org/2000/svg" xmlns:xlink="http://www.w3.org/1999/xlink" x="0px" y="0px"
	 width="1764.706px" height="2000px" viewBox="0 0 1764.706 2000" style="enable-background:new 0 0 1764.706 2000;"
	 xml:space="preserve">
<style type="text/css">
	.st0{fill:#265560;}
	.st1{fill:#FFFFFF;}
	.st2{fill:#26839C;}
</style>
<g>
	<path class="st0" d="M1220,353.235H947.941c-6.765,0-9.706-2.941-9.706-9.706V71.471c0-6.765,2.941-9.706,9.706-9.706H1220
		c6.765,0,9.706,2.941,9.706,9.706v272.059C1229.706,350.294,1226.765,353.235,1220,353.235z M1220,690.294H947.941
		c-6.765,0-9.706-2.941-9.706-9.706V408.529c0-6.765,2.941-9.706,9.706-9.706H1220c6.765,0,9.706,2.941,9.706,9.706v272.059
		C1229.706,687.353,1226.765,690.294,1220,690.294z M1220,1027.647H947.941c-6.765,0-9.706-2.941-9.706-9.706V745.882
		c0-6.765,2.941-9.706,9.706-9.706H1220c6.765,0,9.706,2.941,9.706,9.706v272.059
		C1229.706,1024.706,1226.765,1027.647,1220,1027.647z M1220,1365H947.941c-6.765,0-9.706-2.941-9.706-9.706v-272.059
		c0-6.765,2.941-9.706,9.706-9.706H1220c6.765,0,9.706,2.941,9.706,9.706v272.059C1229.706,1362.059,1226.765,1365,1220,1365z
		 M1220,1702.059H947.941c-6.765,0-9.706-2.941-9.706-9.706v-272.059c0-6.765,2.941-9.706,9.706-9.706H1220
		c6.765,0,9.706,2.941,9.706,9.706v272.059C1229.706,1699.118,1226.765,1702.059,1220,1702.059z"/>
	<path class="st1" d="M1015.882,297.059c-5.882,0-8.529-2.647-8.529-8.529l0.882-154.118c0-5.882,2.647-8.529,8.529-8.529h31.177
		c6.177,0,12.353,1.765,15.588,7.059l16.765,41.765h5.588l18.529-41.765c3.235-5.294,7.059-7.059,13.235-7.059h33.235
		c6.177,0,8.529,2.647,8.529,8.529l0.882,154.118c0,5.882-2.353,8.529-8.529,8.529h-35.882c-5.882,0-8.529-2.647-8.529-8.529
		l-0.882-69.706v-10L1097.353,235c-2.941,5.588-6.471,7.647-12.647,7.647h-6.471c-6.177,0-9.412-2.059-12.647-7.647l-9.412-26.176
		v10l-0.588,69.706c0,5.882-2.647,8.529-8.529,8.529C1047.059,297.059,1015.882,297.059,1015.882,297.059z M1083.823,630
		c-58.235,0-72.353-19.412-72.353-48.529v-80.882c0-29.118,14.118-48.824,72.353-48.824s72.353,19.706,72.353,48.824v80.882
		C1156.177,610.294,1142.059,630,1083.823,630z M1083.823,584.118c15.882,0,18.529-4.706,18.529-11.177v-63.823
		c0-6.177-2.647-10.882-18.529-10.882c-15.588,0-18.235,4.706-18.235,10.882v63.823
		C1065.588,579.412,1068.235,584.118,1083.823,584.118z M1063.824,965.882c-5.882,0-8.529-2.647-8.529-8.529V840.588h-34.118
		c-5.882,0-8.529-2.647-8.529-8.529v-28.823c0-5.882,2.647-8.529,8.529-8.529h125.588c5.882,0,8.529,2.647,8.529,8.529v28.823
		c0,5.882-2.647,8.529-8.529,8.529h-34.118v116.765c0,5.882-2.647,8.529-8.529,8.529H1063.824z M1021.177,1296.765
		c-5.882,0-8.529-2.647-8.529-8.529v-154.118c0-5.882,2.647-8.529,8.529-8.529h123.235c5.882,0,8.529,2.647,8.529,8.529v27.941
		c0,5.882-2.647,8.529-8.529,8.529h-77.647v18.235h58.529c5.882,0,8.529,2.353,8.529,8.529v25.294c0,5.882-2.647,8.529-8.529,8.529
		h-58.529v20.294h77.647c5.882,0,8.529,2.647,8.529,8.529v27.941c0,5.882-2.647,8.529-8.529,8.529h-123.235V1296.765z
		 M1021.177,1637.353c-5.882,0-8.529-2.647-8.529-8.53v-154.118c0-5.882,2.647-8.529,8.529-8.529h36.765
		c5.882,0,8.529,2.647,8.529,8.529v117.647h37.059v-38.529c0-5.882,2.647-8.53,8.529-8.53h34.706c5.882,0,8.529,2.647,8.529,8.53
		v74.706c0,5.882-2.647,8.529-8.529,8.529L1021.177,1637.353L1021.177,1637.353z"/>
	<path class="st0" d="M296.471,350h-245c-6.765,0-9.706-2.941-9.706-9.706V68.235c0-6.765,2.941-9.706,9.706-9.706h299.118
		c6.765,0,11.176,2.941,9.706,9.706l-54.118,272.059C305,347.059,303.235,350,296.471,350z M296.471,986.765h-245
		c-6.765,0-9.706-2.941-9.706-9.706V705c0-6.765,2.941-9.706,9.706-9.706h299.118c6.765,0,11.176,2.941,9.706,9.706l-54.118,272.059
		C305,983.824,303.235,986.765,296.471,986.765z M296.471,1622.941h-245c-6.765,0-9.706-2.941-9.706-9.706v-272.059
		c0-6.765,2.941-9.706,9.706-9.706h299.118c6.765,0,11.176,2.941,9.706,9.706l-54.118,272.059
		C305,1620,303.235,1622.941,296.471,1622.941z"/>
	<path class="st2" d="M296.471,668.235h-245c-6.765,0-9.706-2.941-9.706-9.706V386.471c0-6.765,2.941-9.706,9.706-9.706h299.118
		c6.765,0,11.176,2.941,9.706,9.706l-54.118,272.059C305,665.294,303.235,668.235,296.471,668.235z M296.471,1304.706h-245
		c-6.765,0-9.706-2.941-9.706-9.706v-272.059c0-6.765,2.941-9.706,9.706-9.706h299.118c6.765,0,11.176,2.941,9.706,9.706
		L306.176,1295C305,1301.765,303.235,1304.706,296.471,1304.706z M296.471,1941.765h-245c-6.765,0-9.706-2.941-9.706-9.706V1660
		c0-6.765,2.941-9.706,9.706-9.706h299.118c6.765,0,11.176,2.941,9.706,9.706l-54.118,272.059
		C305,1938.824,303.235,1941.765,296.471,1941.765z"/>
	<path class="st1" d="M261.765,213.235v73.529c0,4.706-2.059,7.059-7.353,7.059h-25c-5.294,0-7.941-2.353-7.353-7.059V225
		c0-10.588-5.294-14.412-15.882-14.412h-15.588l9.706,37.647c0.588,4.706-7.059,7.941-12.353,4.412l-77.059-51.765
		c-4.412-2.647-7.059-5.588-7.059-10.294c0-4.706,2.941-7.647,7.059-10l77.059-51.765c5.294-3.529,12.941-0.294,12.353,4.412
		l-9.706,37.647H210C250,170.882,261.765,187.941,261.765,213.235z M189.412,613.824l-72.353-72.353
		c-4.412-4.412-4.412-8.529-0.294-12.647l11.765-11.765c4.118-4.118,8.529-4.118,12.353-0.294l6.176,6.177l25-36.471
		c2.059-3.235,5.882-6.765,9.412-10.294l50.588-43.529c4.412-3.824,8.824-3.529,12.941,0.588l4.706,4.706
		c4.412,4.412,4.412,8.824-0.588,13.529l-23.824,23.824c0.882,0.294,1.765,0.882,2.941,1.765l5.588,5.588
		c3.529,3.235,4.412,7.059,1.471,11.176c1.765,0.294,2.941,0.882,4.412,2.059l6.176,6.176c3.529,3.235,4.118,6.765,1.765,10.588
		c1.765,0.294,3.235,1.176,4.412,2.353l6.471,6.471c3.529,3.824,3.235,9.412,0,12.941l-35.588,38.824
		c-3.529,3.529-7.941,5.588-10.588,6.471l-6.176,1.765l7.941,7.941c3.529,3.529,3.824,7.941-0.294,12.059l-11.765,12.059
		C197.941,617.941,193.529,617.941,189.412,613.824z M210.294,592.941l-72.353-72.647c-1.765-1.765-4.118-1.765-5.882,0l-5,5.294
		c-1.765,1.765-1.765,3.824,0,5.588l72.353,72.353c1.765,1.765,4.412,1.765,5.882,0.294l5.294-5.294
		C212.353,596.765,212.353,594.412,210.294,592.941z M210.882,575.294c2.059-0.588,5.588-2.059,8.235-5l35.588-38.823
		c1.765-1.765,1.765-4.412,0-6.177l-6.176-6.176c-1.471-1.471-3.235-2.353-5-0.588v-0.294l-11.765,14.118l-3.235-3.529
		l13.529-15.882c2.353-2.353,2.647-4.412,0.588-6.765l-5.588-5.588c-2.059-2.059-4.118-2.353-5.588-0.882l-12.059,14.118
		l-3.235-3.235l14.412-16.765c2.059-2.353,2.353-4.412,0.294-6.765l-5.294-5.588c-1.765-1.765-3.529-2.059-5.294,0v-0.294
		l-14.118,14.118l-3.235-3.235l42.941-42.941c2.353-2.353,2.647-4.706,0.588-6.765l-4.706-4.706
		c-2.353-2.353-4.706-1.765-6.765-0.294l-50,42.941c-3.235,2.941-6.765,6.471-8.529,8.824l-25.294,37.647l51.471,51.471
		L210.882,575.294z M212.647,902.353l-26.765-30.294l-27.647,27.647c-3.529,3.529-10.588,0.588-11.765-5.588l-17.941-92.941
		c-0.882-5-0.882-9.118,2.353-12.353c3.529-3.529,7.647-3.529,12.647-2.647l92.941,17.941c5.882,1.176,9.118,8.235,5.588,11.765
		l-27.647,27.647l30.294,26.765c3.824,3.235,3.235,6.765-0.294,10.294l-21.176,21.471
		C219.706,905.588,216.176,906.177,212.647,902.353z M150.882,1228.823l-10-2.353c-4.118-0.882-6.176-3.823-5.588-8.529
		l3.235-20.588c0.882-6.765,2.353-12.647,1.765-19.118l-1.176-15.588L126.765,1175c-3.235,3.529-7.941,4.118-12.059,0
		l-11.765-12.059c-4.118-4.118-4.118-8.235,0-12.647l58.824-58.823c4.412-4.412,8.529-4.118,12.647,0l11.765,11.765
		c4.118,4.118,4.118,8.235,0.294,12.353l-6.765,6.765l33.529,12.941c6.765,2.941,11.176,7.059,15,12.059l45,60
		c3.235,4.118,1.765,7.353-1.471,10.294l-6.176,6.471c-2.647,2.647-6.765,3.235-9.412,0.588L218.529,1190l-16.471,16.471
		c-5,5.294-10.588,7.941-18.529,5.294l-16.176-5.588l-7.059,15.882C157.941,1226.765,155.294,1229.706,150.882,1228.823z
		 M124.412,1171.177l58.824-58.823c1.765-1.765,1.765-3.823,0-5.588l-5.294-5.294c-1.765-1.765-3.824-1.765-5.588,0l-58.824,58.823
		c-1.765,1.765-1.765,4.412-0.294,5.882l5.588,5.588C120.294,1173.529,122.353,1173.235,124.412,1171.177z M155.882,1220.294
		l12.353-27.059c2.941-7.059,5.882-11.176,12.647-14.118l12.941-5.588c5.294-2.353,10.882-2.059,15.588,2.353L257.353,1220
		c1.765,1.765,4.118,1.765,5.588,0.294l5.294-5.294c1.765-1.765,1.765-3.529,0.588-5l-45-60c-3.235-4.412-6.765-7.647-12.353-10
		l-35.294-13.529l-32.059,31.765l1.471,19.118c0.588,6.765-0.588,13.235-1.765,20.588l-3.235,20.294
		c-0.588,1.765,0.588,2.941,1.765,3.235l8.824,2.353C152.941,1224.118,154.706,1223.235,155.882,1220.294z M198.235,1203.235
		L215,1186.471l-8.235-7.647c-3.529-2.941-7.059-3.529-11.176-1.765L185,1181.765c-0.294,1.471,0.882,3.235,3.235,5.882
		l-0.588,0.588c-2.941-2.647-5.882-3.824-8.235-3.53c-2.941,2.353-4.706,5.294-6.765,9.706l-3.235,6.765l15.588,5.588
		C190.294,1209.118,194.706,1207.059,198.235,1203.235z M162.059,1519.706c-2.353,0-5.294-1.765-5.294-4.412v-11.177
		c0-2.059,1.471-4.412,3.824-4.118l19.412,1.471v-2.353l-22.647-1.765c-3.235-0.294-5.588-1.471-5.588-4.412v-10.588
		c0-2.941,1.765-4.706,4.412-4.412l19.706,1.471v-2.353l-23.824-1.765c-3.235-0.294-5.588-1.471-5.588-4.412v-10
		c0-2.647,1.765-3.824,4.412-3.824h21.471v-2.353h-62.647c-3.235,0-5.882-1.471-5.882-4.412v-11.471c0-3.235,2.941-4.706,5.294-5
		l68.235-4.706c4.412-0.294,9.412-0.294,12.353,0.294l44.412,8.529v77.353l-7.941,4.412c-1.765,1.177-5.588,2.353-9.412,2.353
		L162.059,1519.706z M236.176,1531.471v-107.059c0-2.941,1.765-4.412,4.118-4.412h21.765c2.353,0,4.118,1.471,4.118,4.412v107.059
		c0,2.647-1.765,4.412-4.118,4.412h-21.765C237.941,1535.882,236.176,1534.118,236.176,1531.471z M217.647,1878.823
		c-5.882,0-9.118-3.235-9.118-10v-33.235c-0.882,0.294-2.059,0.588-3.235,0.588h-7.941c-5,0-7.941-2.059-9.118-6.765
		c-1.176,0.882-2.647,1.471-4.412,1.471H175c-4.706,0-7.647-1.765-8.824-6.176c-1.176,0.882-2.941,1.177-4.412,1.177h-9.118
		c-5.294,0-9.118-4.118-9.412-9.118l-2.059-52.353c0-5,1.765-9.412,2.941-11.765l3.235-5.588h-11.176
		c-5.294,0-8.529-2.941-8.529-8.823v-16.765c0-5.588,2.941-8.824,9.118-8.824h102.059c6.471,0,9.118,2.941,9.118,8.824v16.765
		c0,5.588-3.235,8.823-8.529,8.823h-8.824l7.941,43.529c0.588,3.529,0.588,9.118,0.588,13.823l-4.706,66.471
		c-0.294,5.588-3.529,8.823-9.706,8.823h-7.059V1878.823z M136.471,1741.765h102.059c2.941,0,4.412-1.765,4.412-4.118v-7.353
		c0-2.353-1.471-4.118-4.412-4.118H136.471c-2.647,0-4.412,1.765-4.412,4.118v7.353
		C132.059,1740.294,133.824,1741.765,136.471,1741.765z M224.412,1874.118c3.235,0,4.706-2.059,5-4.412l4.706-66.471
		c0.294-4.412,0.294-9.412-0.294-12.353l-8.529-44.412h-72.647l-4.412,7.941c-1.176,1.765-2.353,5.588-2.353,9.412l2.353,52.647
		c0,2.353,1.765,4.412,4.412,4.412h8.824c2.059,0,4.118-0.588,4.118-2.941L164.118,1800h4.706l1.765,20.882
		c0.294,3.235,1.471,5,4.412,5h7.941c2.941,0,4.412-1.177,4.412-3.529l-1.471-17.941h5l1.765,22.059c0.294,3.235,1.471,5,4.412,5
		h7.647c2.647,0,4.118-0.882,3.824-3.529v-19.706h4.706v60.882c0,3.235,1.471,5.294,4.412,5.294L224.412,1874.118L224.412,1874.118z
		"/>
	<path class="st2" d="M746.176,355.588c75.882-77.941,72.647-225.588-13.823-295H543.823c-85.882,71.176-90.294,215.882-13.529,295
		c-72.353,74.706-72.353,207.941,0,282.353c-72.353,74.706-72.353,207.941,0,282.353c-72.647,74.412-72.647,207.647,0,282.353
		c-72.353,74.706-72.353,207.647,0,282.353c-76.765,79.118-72.353,223.823,13.529,295h188.529c85-69.412,90.882-217.353,13.823-295
		c71.471-73.529,72.647-209.118,0-282.353c71.471-73.529,72.647-209.118-0.294-282.353c71.471-73.235,72.941-209.118,0.294-282.647
		C817.647,564.706,818.823,428.824,746.176,355.588z"/>
	<path class="st1" d="M641.765,587.353c-58.235,0-72.353-19.412-72.353-48.529v-80.882c0-29.118,14.118-48.824,72.353-48.824
		s72.353,19.706,72.353,48.824v80.882C713.824,567.941,700,587.353,641.765,587.353z M641.765,541.471
		c15.882,0,18.529-4.706,18.529-11.176v-63.824c0-6.176-2.647-10.882-18.529-10.882c-15.588,0-18.235,4.706-18.235,10.882v63.824
		C623.235,536.765,625.882,541.471,641.765,541.471z M641.765,873.824c-57.059,0-71.176-19.412-71.176-48.529V707.647
		c0-5.882,2.647-8.529,8.529-8.529h37.353c5.882,0,8.529,2.647,8.529,8.529v108.235c0,6.471,2.941,11.176,17.353,11.176
		c14.706,0,17.647-4.706,17.647-11.176V707.647c0-5.882,2.353-8.529,8.529-8.529h36.176c5.882,0,8.529,2.647,8.529,8.529v117.647
		C712.941,854.412,698.824,873.824,641.765,873.824z M641.765,970.294c58.824,0,73.529,19.412,73.529,48.529v117.647
		c0,5.882-2.647,8.529-8.529,8.529h-37.353c-5.882,0-8.529-2.647-8.529-8.529v-108.235c0-6.471-2.941-11.176-19.412-11.176
		c-16.765,0-19.706,4.706-19.706,11.176v108.235c0,5.882-2.353,8.529-8.529,8.529h-36.177c-5.882,0-8.529-2.647-8.529-8.529
		v-117.647C568.235,989.706,582.647,970.294,641.765,970.294z M621.471,1429.118c-45,0-58.529-19.706-58.529-48.529v-74.118
		c0-28.823,13.529-48.529,58.529-48.529h61.177c5.882,0,8.529,2.647,8.529,8.529v28.824c0,5.882-2.647,8.529-8.529,8.529h-51.471
		c-12.353,0-14.412,5.588-14.412,11.765v56.765c0,6.471,1.471,11.765,10.882,11.765h25v-37.059c0-5.882,2.647-8.529,8.529-8.529
		h36.765c5.882,0,8.529,2.647,8.529,8.529v73.529c0,5.882-2.647,8.529-8.529,8.529L621.471,1429.118L621.471,1429.118z
		 M562.353,1588.529c0-29.412,13.824-49.412,59.412-49.412h75.588c5.882,0,8.824,2.647,8.824,8.824v28.235
		c0,5.882-2.647,8.823-8.824,8.823h-65.882c-12.647,0-14.706,5.882-14.706,12.059v6.471h60.882c5.882,0,8.824,2.353,8.824,8.823
		v25.882c0,5.882-2.647,8.823-8.824,8.823h-60.882v9.118c0,6.765,2.059,11.471,14.706,11.471h65.882c5.882,0,8.824,2.647,8.824,8.53
		v28.235c0,5.882-2.647,8.823-8.824,8.823h-75.588c-45.588,0-59.412-20-59.412-49.118V1588.529z M625,133.529v118.235h78.824
		c5.882,0,8.529,2.647,8.529,8.824v29.118c0,5.882-2.647,8.824-8.529,8.824H579.118c-5.882,0-8.529-2.647-8.529-8.824V133.529
		c0-5.882,2.647-8.824,8.529-8.824h37.353C622.353,125,625,127.647,625,133.529z"/>
	<path class="st2" d="M1720.294,1727.059h-40v-13.529H1680v-350.588v-23.235V717.353v-22.941V430.294v-22.941V120.882h-0.294V78.824
		c0-12.353-5.882-18.235-18.235-18.235h-273.235c-12.353,0-18.235,5.882-18.235,18.235v42.059v22.647v264.118v22.941v264.118v22.941
		V1340v23.235v364.118h-39.706c-20.588,0-26.471,28.53-2.941,45.882l166.177,125c19.706,14.706,43.824,14.706,63.235,0l166.471-125
		C1746.765,1755.294,1740.294,1727.059,1720.294,1727.059z"/>
	<path class="st1" d="M1460.588,330.294c-6.177,0-8.823-2.647-8.823-8.824v-28.824c0-6.176,2.647-8.824,8.823-8.824h76.765
		c4.118,0,6.471-3.235,6.471-7.059c0-5.588-2.353-7.941-6.471-8.529L1490,262.941c-23.235-3.529-38.235-13.235-38.235-41.176
		v-25.882c0-28.235,19.118-43.529,51.176-43.529H1585c6.176,0,8.823,2.647,8.823,8.824v29.412c0,6.176-2.647,8.824-8.823,8.824
		h-70.588c-4.118,0-6.765,2.941-6.765,7.353c0,4.412,2.353,7.353,6.765,7.941l47.353,5c23.235,3.529,38.529,13.235,38.529,41.176
		v25.882c0,28.235-19.412,43.529-51.177,43.529L1460.588,330.294L1460.588,330.294z M1460.588,539.412
		c-6.177,0-8.823-2.647-8.823-8.824V370.294c0-6.176,2.647-8.824,8.823-8.824h38.235c6.177,0,8.823,2.647,8.823,8.824v122.353
		h38.529v-40c0-6.176,2.647-8.824,8.824-8.824h35.882c6.176,0,8.824,2.647,8.824,8.824v77.941c0,6.177-2.647,8.824-8.824,8.824
		H1460.588z M1450.882,732.941c0-6.177,2.647-8.824,8.823-8.824h67.941c11.765,0,17.941-4.706,17.941-16.471v-105
		c0-6.176,2.647-8.824,8.824-8.824h38.235c6.176,0,8.824,2.647,8.824,8.824v117.059c0,32.647-20,51.765-52.647,51.765h-89.412
		c-6.177,0-8.823-2.647-8.823-8.824v-29.706L1450.882,732.941L1450.882,732.941z M1459.706,690.294
		c-6.177,0-8.823-2.647-8.823-8.824v-78.824c0-6.176,2.647-8.824,8.823-8.824h38.235c6.177,0,8.823,2.647,8.823,8.824v78.529
		c0,6.176-2.647,8.824-8.823,8.824h-38.235V690.294z M1505,1004.118c-6.177,0-8.823-2.647-8.823-8.823V873.824h-35.588
		c-6.177,0-8.823-2.647-8.823-8.824v-30c0-6.177,2.647-8.824,8.823-8.824h130.588c6.176,0,8.823,2.647,8.823,8.824v30
		c0,6.177-2.647,8.824-8.823,8.824h-35.588v121.471c0,6.176-2.647,8.823-8.823,8.823H1505z M1460.588,1215
		c-6.177,0-8.823-2.647-8.823-8.823v-160.294c0-6.176,2.647-8.823,8.823-8.823h127.941c6.176,0,8.824,2.647,8.824,8.823v28.823
		c0,6.177-2.647,8.824-8.824,8.824h-80.882v19.118h60.882c6.176,0,8.823,2.353,8.823,8.823v26.471c0,6.177-2.647,8.823-8.823,8.823
		h-60.882v21.177h80.882c6.176,0,8.824,2.647,8.824,8.824v28.823c0,6.176-2.647,8.823-8.824,8.823h-127.941L1460.588,1215
		L1460.588,1215z M1460.588,1430.882c-6.177,0-8.823-2.647-8.823-8.823v-160.294c0-6.176,2.647-8.823,8.823-8.823h79.706
		c37.059,0,48.823,16.765,48.823,41.177v11.471c0,13.823-3.529,23.823-13.823,28.235c15,2.059,27.353,15,27.353,35.882v52.353
		c0,6.177-2.647,8.823-8.824,8.823h-38.235c-6.176,0-8.823-2.647-8.823-8.823v-39.706c0-7.353-2.353-10.588-9.412-10.588h-29.412
		v50.294c0,6.177-2.647,8.823-8.823,8.823H1460.588z M1507.353,1329.118h15.882c8.53,0,10.882-5,10.882-11.471v-8.529
		c0-6.765-2.353-11.765-10.882-11.765h-15.882V1329.118z M1450.882,1621.177c0-6.176,2.647-8.823,8.823-8.823h67.941
		c11.765,0,17.941-4.706,17.941-16.471v-105c0-6.177,2.647-8.824,8.824-8.824h38.235c6.176,0,8.824,2.647,8.824,8.824v117.059
		c0,32.647-20,51.765-52.647,51.765h-89.412c-6.177,0-8.823-2.647-8.823-8.823v-29.706H1450.882z M1459.706,1578.235
		c-6.177,0-8.823-2.647-8.823-8.823v-78.53c0-6.176,2.647-8.823,8.823-8.823h38.235c6.177,0,8.823,2.647,8.823,8.823v78.53
		c0,6.176-2.647,8.823-8.823,8.823H1459.706z"/>
</g>
</svg>
