<?xml version="1.0" encoding="utf-8"?>
<!-- Generator: Adobe Illustrator 19.2.1, SVG Export Plug-In . SVG Version: 6.00 Build 0)  -->
<svg version="1.1" id="Layer_1" xmlns="http://www.w3.org/2000/svg" xmlns:xlink="http://www.w3.org/1999/xlink" x="0px" y="0px"
	 width="1650px" height="2000px" viewBox="0 0 1650 2000" style="enable-background:new 0 0 1650 2000;" xml:space="preserve">
<style type="text/css">
	.st0{fill:#D83F16;}
	.st1{fill:#F6F1AC;}
	.st2{fill:#FFFFFF;}
	.st3{fill:#0C343D;}
	.st4{fill:#E0C74B;}
	.st5{fill:#102B33;}
	.st6{fill:#28515B;}
	.st7{fill:#E0CE51;}
	.st8{fill:#EF9D92;}
	.st9{fill:#92CAD3;}
	.st10{fill:#DA4226;}
	.st11{fill:#27839E;}
	.st12{fill:#432D2C;}
	.st13{fill:#D94126;}
</style>
<g>
	<path class="st0" d="M66,1252c0-2.667,1.333-4,4-4h61.333c33.333,0,52.667,19.333,52.667,52.667V1362c0,2.667-1.333,4-4,4H69.334
		c-2,0-3.333-1.333-3.333-3.333C66,1362.667,66,1252,66,1252z"/>
	<path class="st0" d="M196.666,1252c0-2.667,1.333-4,4-4H262c33.333,0,52.667,19.333,52.667,52.667V1362c0,2.667-1.333,4-4,4H200
		c-2,0-3.333-1.333-3.333-3.333L196.666,1252L196.666,1252z"/>
	<path class="st0" d="M327.333,1252c0-2.667,1.333-4,4-4h61.333c33.333,0,52.667,19.333,52.667,52.667V1362c0,2.667-1.333,4-4,4
		H330.667c-2,0-3.333-1.333-3.333-3.333L327.333,1252L327.333,1252z"/>
	<path class="st0" d="M458,1252c0-2.667,1.333-4,4-4h61.333c33.333,0,52.667,19.333,52.667,52.667V1362c0,2.667-1.333,4-4,4H461.334
		c-2,0-3.333-1.333-3.333-3.333L458,1252L458,1252z"/>
	<path class="st0" d="M588.667,1252c0-2.667,1.333-4,4-4H654c33.333,0,52.667,19.333,52.667,52.667V1362c0,2.667-1.333,4-4,4
		H592.001c-2,0-3.333-1.333-3.333-3.333L588.667,1252L588.667,1252z"/>
	<path class="st0" d="M720,1252c0-2.667,1.333-4,4-4h61.333c33.333,0,52.667,19.333,52.667,52.667V1362c0,2.667-1.333,4-4,4H723.334
		c-2,0-3.333-1.333-3.333-3.333L720,1252L720,1252z"/>
	<path class="st0" d="M850.667,1252c0-2.667,1.333-4,4-4H916c33.333,0,52.667,19.333,52.667,52.667V1362c0,2.667-1.333,4-4,4H854
		c-2,0-3.333-1.333-3.333-3.333L850.667,1252L850.667,1252z"/>
	<path class="st0" d="M981.333,1252c0-2.667,1.333-4,4-4h61.333c33.333,0,52.667,19.333,52.667,52.667V1362c0,2.667-1.333,4-4,4
		H984.667c-2,0-3.333-1.333-3.333-3.333L981.333,1252L981.333,1252z"/>
	<path class="st0" d="M1112,1252c0-2.667,1.333-4,4-4h61.333c33.333,0,52.667,19.333,52.667,52.667V1362c0,2.667-1.333,4-4,4
		h-110.667c-2,0-3.333-1.333-3.333-3.333L1112,1252L1112,1252z"/>
	<path class="st0" d="M1243.333,1252c0-2.667,1.333-4,4-4h61.333c33.333,0,52.667,19.333,52.667,52.667V1362c0,2.667-1.333,4-4,4
		h-110.667c-2,0-3.333-1.333-3.333-3.333L1243.333,1252L1243.333,1252z"/>
	<path class="st0" d="M1374,1252c0-2.667,1.333-4,4-4h61.333c33.333,0,52.667,19.333,52.667,52.667V1362c0,2.667-1.333,4-4,4
		h-111.333c-2,0-3.333-1.333-3.333-3.333L1374,1252L1374,1252z"/>
	<path class="st0" d="M1504.667,1252c0-2.667,1.333-4,4-4H1570c33.333,0,52.667,19.333,52.667,52.667V1362c0,2.667-1.333,4-4,4H1508
		c-2,0-3.333-1.333-3.333-3.333L1504.667,1252L1504.667,1252z"/>
</g>
<g>
	<path class="st1" d="M99.333,1346.667c-2.667,0-3.333-1.333-3.333-3.333v-62c0-2.667,0.667-3.333,3.333-3.333H114
		c2.667,0,3.333,0.667,3.333,3.333v47.333H132v-15.333c0-2.667,0.667-3.333,3.333-3.333h14c2.667,0,3.333,1.333,3.333,3.333v30
		c0,2.667-0.667,3.333-3.333,3.333H99.333z"/>
	<path class="st1" d="M255.333,1347.333c-22.667,0-28.667-8-28.667-19.333v-47.333c0-2.667,0.667-3.333,3.333-3.333h14.667
		c2.667,0,3.333,0.667,3.333,3.333v44c0,2.667,1.333,4.667,7.333,4.667c6,0,7.333-2,7.333-4.667v-44
		c0-2.667,0.667-3.333,3.333-3.333h14.667c2.667,0,3.333,0.667,3.333,3.333V1328C284,1339.333,278.667,1347.333,255.333,1347.333z"
		/>
	<path class="st1" d="M361.333,1346.667c-2.667,0-3.333-1.333-3.333-3.333v-62c0-2.667,0.667-3.333,3.333-3.333h10
		c2.667,0,4,0.667,5.333,2.667L394,1302v-20c0-2.667,0.667-3.333,3.333-3.333H412c2.667,0,3.333,0.667,3.333,3.333v62
		c0,2.667-0.667,3.333-3.333,3.333h-14.667c-2.667,0-3.333-1.333-3.333-3.333v-12l-14.667-20v31.333
		c0,2.667-0.667,3.333-3.333,3.333L361.333,1346.667L361.333,1346.667L361.333,1346.667z"/>
	<path class="st1" d="M511.333,1346.667c-18,0-23.333-8-23.333-19.333v-30c0-12,5.333-19.333,23.333-19.333h30
		c2.667,0,3.333,0.667,3.333,3.333v11.333c0,2.667-1.333,3.333-3.333,3.333h-26c-5.333,0-6,2.667-6,4.667v22.667
		c0,2.667,0.667,4.667,6,4.667h26c2.667,0,3.333,1.333,3.333,3.333v11.333c0,2.667-1.333,3.333-3.333,3.333L511.333,1346.667
		L511.333,1346.667z"/>
	<path class="st1" d="M622.667,1346.667c-2.667,0-3.333-1.333-3.333-3.333v-62c0-2.667,1.333-3.333,3.333-3.333h14.667
		c2.667,0,3.333,0.667,3.333,3.333V1302h14v-20.667c0-2.667,0.667-3.333,3.333-3.333h14.667c2.667,0,3.333,0.667,3.333,3.333v62
		c0,2.667-0.667,3.333-3.333,3.333H658c-2.667,0-3.333-1.333-3.333-3.333V1322h-14v21.333c0,2.667-0.667,3.333-3.333,3.333H622.667
		L622.667,1346.667z"/>
	<path class="st1" d="M753.333,1346.667c-2.667,0-3.333-1.333-3.333-3.333v-62c0-2.667,0.667-3.333,3.333-3.333h50
		c2.667,0,3.333,0.667,3.333,3.333v11.333c0,2.667-0.667,3.333-3.333,3.333H772v7.333h24c2.667,0,3.333,1.333,3.333,3.333v10
		c0,2.667-0.667,3.333-3.333,3.333h-24v8h31.333c2.667,0,3.333,0.667,3.333,3.333v11.333c0,2.667-0.667,3.333-3.333,3.333
		L753.333,1346.667L753.333,1346.667z"/>
	<path class="st1" d="M909.333,1347.333c-23.333,0-29.333-8-29.333-19.333v-32.667c0-12,5.333-19.333,29.333-19.333
		c23.333,0,29.333,8,29.333,19.333V1328C938.667,1339.333,932.667,1347.333,909.333,1347.333z M909.333,1329.333
		c6.667,0,7.333-2,7.333-4.667v-26c0-2.667-0.667-4.667-7.333-4.667c-6.667,0-7.333,2-7.333,4.667v26
		C902,1327.333,902.667,1329.333,909.333,1329.333z"/>
	<path class="st1" d="M1014.667,1346.667c-2.667,0-3.333-1.333-3.333-3.333v-62c0-2.667,0.667-3.333,3.333-3.333h10
		c2.667,0,4,0.667,5.333,2.667l17.333,21.333v-20c0-2.667,0.667-3.333,3.333-3.333h14.667c2.667,0,3.333,0.667,3.333,3.333v62
		c0,2.667-0.667,3.333-3.333,3.333h-14.667c-2.667,0-3.333-1.333-3.333-3.333v-12l-14.667-20v31.333
		c0,2.667-0.667,3.333-3.333,3.333L1014.667,1346.667L1014.667,1346.667L1014.667,1346.667z"/>
	<path class="st1" d="M1145.333,1346.667c-2.667,0-3.333-1.333-3.333-3.333v-62c0-2.667,1.333-3.333,3.333-3.333h50
		c2.667,0,3.333,0.667,3.333,3.333v11.333c0,2.667-0.667,3.333-3.333,3.333H1164v7.333h24c2.667,0,3.333,1.333,3.333,3.333v10
		c0,2.667-0.667,3.333-3.333,3.333h-24v8h31.333c2.667,0,3.333,0.667,3.333,3.333v11.333c0,2.667-0.667,3.333-3.333,3.333
		L1145.333,1346.667L1145.333,1346.667z"/>
	<path class="st1" d="M1293.333,1346.667c-2.667,0-3.333-1.333-3.333-3.333V1296h-14c-2.667,0-3.333-1.333-3.333-3.333v-11.333
		c0-2.667,0.667-3.333,3.333-3.333h50.667c2.667,0,3.333,1.333,3.333,3.333v11.333c0,2.667-1.333,3.333-3.333,3.333h-14v47.333
		c0,2.667-1.333,3.333-3.333,3.333H1293.333z"/>
	<path class="st1" d="M1424,1346.667c-2.667,0-3.333-1.333-3.333-3.333V1296h-14c-2.667,0-3.333-1.333-3.333-3.333v-11.333
		c0-2.667,1.333-3.333,3.333-3.333h50.667c2.667,0,3.333,1.333,3.333,3.333v11.333c0,2.667-0.667,3.333-3.333,3.333h-14v47.333
		c0,2.667-1.333,3.333-3.333,3.333H1424z"/>
	<path class="st1" d="M1538,1346.667c-2.667,0-3.333-1.333-3.333-3.333v-62c0-2.667,1.333-3.333,3.333-3.333h50
		c2.667,0,3.333,0.667,3.333,3.333v11.333c0,2.667-0.667,3.333-3.333,3.333h-31.333v7.333h24c2.667,0,3.333,1.333,3.333,3.333v10
		c0,2.667-0.667,3.333-3.333,3.333h-24v8H1588c2.667,0,3.333,0.667,3.333,3.333v11.333c0,2.667-0.667,3.333-3.333,3.333
		L1538,1346.667L1538,1346.667z"/>
</g>
<path class="st2" d="M330,1964H77.333c-8,0-11.333-3.333-11.333-11.333V1700c0-8,3.333-11.333,11.333-11.333H330
	c8,0,11.333,3.333,11.333,11.333v253.333C342,1960.667,338,1964,330,1964z"/>
<path class="st2" d="M651.333,1964H398c-8,0-11.333-3.333-11.333-11.333V1700c0-8,3.333-11.333,11.333-11.333h253.333
	c8,0,11.333,3.333,11.333,11.333v253.333C662.667,1960.667,659.333,1964,651.333,1964z"/>
<path class="st2" d="M972.667,1964H719.333c-8,0-11.333-3.333-11.333-11.333V1700c0-8,3.333-11.333,11.333-11.333h253.333
	c8,0,11.333,3.333,11.333,11.333v253.333C984,1960.667,980.667,1964,972.667,1964z"/>
<path class="st2" d="M1294,1964h-253.333c-8,0-11.333-3.333-11.333-11.333V1700c0-8,3.333-11.333,11.333-11.333H1294
	c8,0,11.333,3.333,11.333,11.333v253.333C1305.333,1960.667,1302,1964,1294,1964z"/>
<path class="st2" d="M1615.333,1964H1362c-8,0-11.333-3.333-11.333-11.333V1700c0-8,3.333-11.333,11.333-11.333h253.333
	c8,0,11.333,3.333,11.333,11.333v253.333C1626,1960.667,1623.333,1964,1615.333,1964z"/>
<path class="st3" d="M330,1962H77.333c-6,0-9.333-2.667-9.333-9.333v-253.333c0-6,2.667-8.667,9.333-8.667H330
	c6,0,9.333,2.667,9.333,8.667V1952C339.333,1958.667,336,1962,330,1962z"/>
<path class="st3" d="M651.333,1962H398c-6,0-9.333-2.667-9.333-9.333v-253.333c0-6,2.667-8.667,9.333-8.667h253.333
	c6,0,8.667,2.667,8.667,8.667V1952C660,1958.667,657.333,1962,651.333,1962z"/>
<path class="st3" d="M972.667,1962H719.333c-6,0-9.333-2.667-9.333-9.333v-253.333c0-6,2.667-8.667,9.333-8.667h253.333
	c6,0,9.333,2.667,9.333,8.667V1952C981.333,1958.667,978.667,1962,972.667,1962z"/>
<path class="st3" d="M1294,1962h-253.333c-6,0-9.333-2.667-9.333-9.333v-253.333c0-6,2.667-8.667,9.333-8.667H1294
	c6,0,8.667,2.667,8.667,8.667V1952C1302.667,1958.667,1300,1962,1294,1962z"/>
<path class="st3" d="M1615.333,1962H1362c-6,0-8.667-2.667-8.667-9.333v-253.333c0-6,2.667-8.667,8.667-8.667h253.333
	c6,0,8.667,2.667,8.667,8.667V1952C1624,1958.667,1620.667,1962,1615.333,1962z"/>
<path class="st4" d="M72.667,1696H334v260.667H72.667V1696z M331.333,1698h-256v256h256V1698z"/>
<path class="st4" d="M394,1696h260.667v260.667H394V1696L394,1696z M652.667,1698h-256v256h256V1698z"/>
<path class="st4" d="M715.333,1696H976v260.667H715.333V1696z M974,1698H718v256h256V1698z"/>
<path class="st4" d="M1036.667,1696h260.667v260.667h-260.667V1696z M1295.333,1698h-256.667v256h256v-256H1295.333L1295.333,1698z"
	/>
<path class="st4" d="M1358,1696h260.667v260.667H1358V1696z M1616,1698h-256v256h256V1698z"/>
<path class="st2" d="M152,1916.667h-29.333c-6,0-8.667-2.667-8.667-9.333v-124c0-30.667,12-51.333,50-51.333
	c18.667,0,30.667,4.667,37.333,12.667c7.333-8,18.667-12.667,37.333-12.667c38,0,50,20.667,50,51.333v124
	c0,6-2.667,9.333-9.333,9.333h-29.333c-6.667,0-9.333-2.667-9.333-9.333v-116c0-6.667-2-10-8-10c-6.667,0-8,3.333-8,10v116
	c0,6-2.667,9.333-8.667,9.333h-29.333c-6,0-9.333-2.667-9.333-9.333v-116c0-6.667-1.333-10-8-10c-6.667,0-8,3.333-8,10v116
	C161.333,1914,158.667,1916.667,152,1916.667z M169.333,1758c23.333,0,30.667,12.667,30.667,31.333V1894h2.667v-104
	c0-18.667,6.667-31.333,30.667-31.333c23.333,0,30.667,12.667,30.667,31.333v104.667h2.667V1790c0-20.667-7.333-34-32.667-34
	c-20.667,0-29.333,8.667-32,22.667c-2.667-14-11.333-22.667-31.333-22.667c-25.333,0-33.333,13.333-33.333,34v104.667H140V1790
	C138.667,1770.667,146,1758,169.333,1758z"/>
<path class="st2" d="M522,1920.667c-61.333,0-76-20.667-76-51.333V1784c0-30.667,14.667-51.333,76-51.333s76,20.667,76,51.333
	v85.333C598.667,1900,584,1920.667,522,1920.667z M571.333,1790c0-20.667-11.333-34-49.333-34c-38,0-48.667,13.333-48.667,34v74
	c0,20.667,10.667,34,48.667,34c38,0,49.333-13.333,49.333-34V1790z M476,1790c0-18.667,10-31.333,46-31.333
	s46.667,12.667,46.667,31.333v74c0,18.667-10.667,31.333-46.667,31.333s-46-12.667-46-31.333V1790L476,1790z M522,1872
	c16.667,0,19.333-5.333,19.333-12v-67.333c0-6.667-2.667-11.333-19.333-11.333c-16.667,0-19.333,5.333-19.333,11.333V1860
	C502.667,1867.333,506,1872,522,1872z"/>
<path class="st2" d="M822.667,1916.667c-6,0-9.333-2.667-9.333-9.333V1784h-36c-6,0-9.333-2.667-9.333-9.333V1744
	c0-6,2.667-8.667,9.333-8.667H910c6,0,9.333,2.667,9.333,8.667v30.667c0,6-2.667,8.667-9.333,8.667h-36v123.333
	c0,6-2.667,8.667-9.333,8.667L822.667,1916.667L822.667,1916.667z M844.667,1894.667v-133.333H896v-2.667H790.667v2.667H842v133.333
	H844.667z"/>
<path class="st2" d="M1098.667,1916.667c-6,0-9.333-2.667-9.333-9.333v-162.667c0-6,2.667-9.333,9.333-9.333h130
	c6,0,8.667,2.667,8.667,9.333V1774c0,6-2.667,9.333-8.667,9.333H1146v19.333h62.667c6,0,9.333,2.667,9.333,8.667V1838
	c0,6-2.667,9.333-9.333,9.333H1146v21.333h82.667c6,0,8.667,2.667,8.667,9.333v29.333c0,6-2.667,8.667-8.667,8.667
	L1098.667,1916.667L1098.667,1916.667z M1118.667,1892v-65.333h76V1824h-76v-63.333h96V1758H1116v135.333h98.667v-2.667h-96V1892z"
	/>
<path class="st2" d="M1468,1745.333v123.333h82c6,0,9.333,2.667,9.333,9.333v30.667c0,6-2.667,8.667-9.333,8.667h-130
	c-6,0-8.667-2.667-8.667-8.667V1746c0-6,2.667-9.333,8.667-9.333h38.667C1465.333,1736,1468,1738.667,1468,1745.333z M1536,1894.667
	V1892h-95.333v-133.333H1438V1894h98V1894.667z"/>
<path class="st5" d="M122,1606.667c-48,0-59.333-16-59.333-39.333V1502c0-23.333,11.333-39.333,59.333-39.333
	s59.333,16,59.333,39.333v65.333C182,1590.667,170,1606.667,122,1606.667z M122,1569.333c14,0,16-4,16-8.667v-51.333
	c0-5.333-2-8.667-16-8.667c-14,0-16,4-16,8.667v51.333C106,1565.333,108.667,1569.333,122,1569.333z"/>
<path class="st5" d="M212.667,1603.333c-4.667,0-6.667-2-6.667-6.667v-124c0-4.667,2-6.667,6.667-6.667h58.667
	c34.667,0,45.333,15.333,45.333,37.333V1528c0,22-10.667,37.333-45.333,37.333h-22v32c0,4.667-2,6.667-6.667,6.667L212.667,1603.333
	L212.667,1603.333L212.667,1603.333z M249.333,1530h17.333c7.333,0,9.333-4.667,9.333-9.333v-10c0-5.333-1.333-9.333-9.333-9.333
	h-17.333V1530z"/>
<path class="st5" d="M343.333,1603.333c-4.667,0-6.667-2-6.667-6.667v-124c0-4.667,2-6.667,6.667-6.667H432
	c4.667,0,6.667,2,6.667,6.667v22c0,4.667-2,6.667-6.667,6.667h-52.667V1516h37.333c4.667,0,6.667,2,6.667,6.667v20.667
	c0,4.667-2,6.667-6.667,6.667h-37.333v16.667H432c4.667,0,6.667,2,6.667,6.667V1596c0,4.667-2,6.667-6.667,6.667L343.333,1603.333
	L343.333,1603.333z"/>
<path class="st5" d="M468.667,1603.333c-4.667,0-6.667-2-6.667-6.667v-124c0-4.667,2-6.667,6.667-6.667h20
	c5.333,0,8,1.333,11.333,5.333L537.333,1514v-40.667c0-4.667,2-6.667,6.667-6.667h28.667c4.667,0,6.667,2,6.667,6.667v124
	c0,4.667-2,6.667-6.667,6.667H544c-4.667,0-6.667-2-6.667-6.667v-24l-33.333-40v63.333c0,4.667-2,6.667-6.667,6.667H468.667
	L468.667,1603.333L468.667,1603.333z"/>
<path class="st5" d="M650.667,1603.333c-4.667,0-6.667-2-6.667-6.667v-33.333c0-29.333,12.667-36.667,30-42l25.333-8
	c4-1.333,5.333-2.667,5.333-6.667s-1.333-5.333-5.333-5.333H658c-4.667,0-6.667-2-6.667-6.667V1472c0-4.667,2-6.667,6.667-6.667
	h56.667c22,0,34,11.333,34,32v18c0,19.333-11.333,28-30,34l-26,8c-4,1.333-5.333,1.333-5.333,6v4H742c4.667,0,6.667,2,6.667,6.667
	v22.667c0,4.667-2,6.667-6.667,6.667H650.667L650.667,1603.333z"/>
<path class="st5" d="M804,1571.333c-24.667,0-34.667-10-34.667-32V1472c0-4.667,2-6.667,6.667-6.667h29.333
	c4.667,0,6.667,2,6.667,6.667v52.667c0,4,2,6.667,6,6.667h18v-58.667c0-4.667,2-6.667,6.667-6.667h29.333
	c4.667,0,6.667,2,6.667,6.667v124c0,4.667-2,6.667-6.667,6.667h-29.333c-4.667,0-6.667-2-6.667-6.667v-25.333H804L804,1571.333z"/>
<path class="st5" d="M956,1603.333c-4.667,0-6.667-2-6.667-6.667v-124c0-4.667,2-6.667,6.667-6.667h29.333
	c4.667,0,6.667,2,6.667,6.667V1514h32v-41.333c0-4.667,2-6.667,6.667-6.667H1060c4.667,0,6.667,2,6.667,6.667v124
	c0,4.667-2,6.667-6.667,6.667h-29.333c-4.667,0-6.667-2-6.667-6.667V1554h-32v42.667c0,4.667-2,6.667-6.667,6.667H956z"/>
<path class="st5" d="M1152,1606.667c-48,0-59.333-16-59.333-39.333V1502c0-23.333,11.333-39.333,59.333-39.333
	s59.333,16,59.333,39.333v65.333C1211.333,1590.667,1200,1606.667,1152,1606.667z M1152,1569.333c14,0,16-4,16-8.667v-51.333
	c0-5.333-2-8.667-16-8.667c-14,0-16,4-16,8.667v51.333C1136,1565.333,1138,1569.333,1152,1569.333z"/>
<path class="st5" d="M1294,1606.667c-47.333,0-59.333-16-59.333-39.333v-94.667c0-4.667,2-6.667,6.667-6.667h30
	c4.667,0,6.667,2,6.667,6.667V1560c0,5.333,2,8.667,16,8.667c13.333,0,16-4,16-8.667v-87.333c0-4.667,2-6.667,6.667-6.667H1346
	c4.667,0,6.667,2,6.667,6.667v94.667C1353.333,1590.667,1341.333,1606.667,1294,1606.667z"/>
<path class="st5" d="M1385.333,1603.333c-4.667,0-6.667-2-6.667-6.667v-124c0-4.667,2-6.667,6.667-6.667h64
	c28.667,0,38,12.667,38,32v8.667c0,10.667-2.667,18.667-10.667,22c14,1.333,23.333,11.333,23.333,28v40.667
	c0,4.667-2,6.667-6.667,6.667H1464c-4.667,0-6.667-2-6.667-6.667V1568c0-6-2-8-7.333-8h-26.667v37.333c0,4.667-2,6.667-6.667,6.667
	L1385.333,1603.333L1385.333,1603.333L1385.333,1603.333z M1422,1524.667h14.667c6.667,0,8.667-4,8.667-8.667v-6.667
	c0-5.333-2-8.667-8.667-8.667H1422V1524.667z"/>
<path class="st5" d="M1524,1603.333c-4.667,0-6.667-2-6.667-6.667V1574c0-4.667,2-6.667,6.667-6.667h51.333
	c3.333,0,5.333-2.667,5.333-5.333c0-4.667-2-6-5.333-6.667l-28.667-4c-18-2.667-29.333-10.667-29.333-32v-20
	c0-22,14.667-34,39.333-34H1610c4.667,0,6.667,2,6.667,6.667v22.667c0,4.667-2,6.667-6.667,6.667h-44.667
	c-3.333,0-5.333,2.667-5.333,6s2,6,5.333,6l28.667,4c18,2.667,30,10.667,30,32v20c0,22-14.667,34-39.333,34H1524L1524,1603.333z"/>
<path class="st6" d="M122,1588.667c-30,0-38.667-10.667-38.667-26V1506c0-15.333,8.667-26,38.667-26s38.667,10.667,38.667,26v56.667
	C160.667,1578,152,1588.667,122,1588.667z M122,1586.667c28.667,0,37.333-9.333,37.333-24V1506c0-14.667-8.667-24-37.333-24
	s-36.667,9.333-36.667,24v56.667C85.333,1577.333,93.333,1586.667,122,1586.667z"/>
<path class="st6" d="M229.333,1548.667v38h-2v-103.333h41.333c24,0,28.667,11.333,28.667,26v14c0,14.667-4.667,25.333-28.667,25.333
	H229.333z M268.667,1546.667c22.667,0,26.667-10,26.667-23.333v-14c0-14-4-24-26.667-24h-39.333v62h39.333V1546.667z"/>
<path class="st6" d="M422,1586h-64.667v-103.333H422v2h-62.667v48h47.333v2h-47.333V1584H422V1586L422,1586z"/>
<path class="st6" d="M557.333,1563.333v-80.667h2V1586h-2v-20l-72-80.667c-0.667-0.667-0.667-0.667-1.333-0.667
	c-0.667,0-0.667,0.667-0.667,0.667v101.333h-2v-101.333c0-1.333,1.333-2,2-2c1.333,0,1.333,0.667,2.667,2L557.333,1563.333z"/>
<path class="st6" d="M719.333,1526c3.333-1.333,5.333-4,5.333-8.667V1500c0-11.333-7.333-14.667-18.667-14.667h-38.667v-2H706
	c13.333,0,20.667,4,20.667,16.667v17.333c0,6-2.667,9.333-6.667,10.667l-44.667,14.667c-7.333,2.667-9.333,5.333-9.333,14v28h65.333
	v2h-66.667v-30c0-9.333,2.667-13.333,10.667-16L719.333,1526z"/>
<path class="st6" d="M857.333,1552h-46c-14.667,0-21.333-6.667-21.333-20v-49.333h2V1532c0,12,6,18,19.333,18h46v-67.333h2V1586h-2
	V1552L857.333,1552z"/>
<path class="st6" d="M970,1482.667h2v50.667h73.333v-50.667h2V1586h-2v-50.667H972V1586h-2V1482.667z"/>
<path class="st6" d="M1152,1588.667c-30,0-38.667-10.667-38.667-26V1506c0-15.333,8.667-26,38.667-26s38.667,10.667,38.667,26
	v56.667C1190.667,1578,1182,1588.667,1152,1588.667z M1152,1586.667c28.667,0,36.667-9.333,36.667-24V1506
	c0-14.667-8.667-24-36.667-24c-28.667,0-36.667,9.333-36.667,24v56.667C1115.333,1577.333,1123.333,1586.667,1152,1586.667z"/>
<path class="st6" d="M1258,1482.667v80c0,14.667,8,24,36.667,24c28.667,0,36.667-9.333,36.667-24v-80h2v80
	c0,15.333-8.667,26-38.667,26S1256,1578,1256,1562.667v-80H1258z"/>
<path class="st6" d="M1399.333,1586v-103.333h43.333c14.667,0,22,9.333,22,22V1518c0,11.333-2,19.333-11.333,22h2
	c16,0,23.333,7.333,23.333,20.667V1586h-2v-25.333c0-12.667-6.667-18.667-21.333-18.667h-54v44L1399.333,1586L1399.333,1586z
	 M1401.333,1484.667V1540h42c16,0,20-8,20-22v-13.333c0-12-6.667-20-20-20H1401.333z"/>
<path class="st6" d="M1600,1484.667h-42.667c-10.667,0-17.333,6.667-17.333,15.333v16c0,8.667,4,11.333,10,12.667l40.667,8
	C1598,1538,1604,1542,1604,1555.333v11.333c0,11.333-8,19.333-21.333,19.333h-47.333v-2h47.333c12,0,19.333-7.333,19.333-17.333
	v-11.333c0-12-4.667-15.333-11.333-16.667l-40.667-8c-6.667-1.333-11.333-4-11.333-14.667v-16c0-10,7.333-17.333,19.333-17.333
	h42.667L1600,1484.667L1600,1484.667L1600,1484.667z"/>
<g>
	<path class="st7" d="M23.333,336V98c0-6.667,2-10.667,5.333-13.333l47.333-40c2.667-2,6.667-3.333,12-3.333h117.333
		c51.333,0,74,19.333,74,60v17.333c0,17.333-4.667,29.333-14,36.667L264.666,156C291.333,162,304,180.667,304,215.333v34
		c0,22-6,38-19.333,48.667l-47.333,40c-12,10-30.667,15.333-56,15.333H40.666C28.667,352.667,23.333,348,23.333,336z"/>
	<path class="st7" d="M369.333,349.333c-2,2-6,3.333-11.333,3.333h-54c-12,0-16.667-5.333-16.667-16.667V154.667
		c0-23.333,5.333-42.667,21.333-56.667L356,58.667C372.667,44.667,400.667,36,448.667,36C544,36,564,68.667,564,114.667V296
		c0,6.667-2,10.667-5.333,13.333l-47.333,39.333c-2,2-6,3.333-11.333,3.333h-56c-12,0-16.667-5.333-16.667-16.667V284h-6v11.333
		c0,6.667-2,10.667-5.333,13.333L369.333,349.333z M422,156.667v14h6v-3.333C428,162.667,426.666,159.333,422,156.667z"/>
	<path class="st7" d="M644,349.333c-2,2-6,3.333-11.333,3.333H576c-12,0-16.667-5.333-16.667-16.667V98
		c0-6.667,2-10.667,5.333-13.333l47.333-40c2.667-2,6.667-3.333,12-3.333h121.333c58,0,76,26.667,76,64.667v17.333
		c0,18-4,31.333-14,40h-0.667c23.333,6.667,38,26,38,54.667v78c0,6.667-2,10.667-5.333,13.333l-47.333,39.333
		c-2,2-6,3.333-11.333,3.333H724c-12,0-16.667-5.333-16.667-16.667v-56c0-8-2.667-12-10-12h-0.667v28c0,6.667-2,10.667-5.333,13.333
		L644,349.333z"/>
	<path class="st7" d="M831.333,336V98c0-6.667,2-10.667,5.333-13.333l47.333-40c2.667-2,6.667-3.333,12-3.333h116.667
		c51.333,0,74,19.333,74,60v17.333c0,17.333-4.667,29.333-14,36.667L1072,156c26.667,6,39.333,24.667,39.333,59.333v34
		c0,22-6,38-19.333,48.667l-47.333,40c-12,10-30.666,15.333-56,15.333H848C836.666,352.667,831.333,348,831.333,336z"/>
	<path class="st7" d="M1114,352.667c-12,0-16.667-5.333-16.667-16.667V98c0-6.667,2-10.667,5.333-13.333l47.333-40
		c2.667-2,6.667-3.333,12-3.333h170c12,0,16.667,5.333,16.667,16.667v42.667c0,6.667-2,10.667-5.333,13.333l-32,26
		c4.667,2.667,6.667,7.333,6.667,14.667V194c0,6.667-2,10.667-5.333,13.333L1280,234.667h50.667c12,0,16.667,5.333,16.667,16.667
		V294c0,6.667-2,10.667-5.333,13.333l-47.333,39.333c-2,2-6,3.333-11.333,3.333h-170L1114,352.667L1114,352.667z"/>
	<path class="st7" d="M1421.333,349.333c-2,2-6,3.333-11.333,3.333h-56.667c-12,0-16.667-5.333-16.667-16.667V98
		c0-6.667,2-10.667,5.333-13.333l47.333-40c2.667-2,6.667-3.333,12-3.333h122c58,0,76,26.667,76,64.667v17.333c0,18-4,31.333-14,40
		l0,0c23.333,6.667,38,26,38,54.667v78c0,6.667-2,10.667-5.333,13.333l-47.333,39.333c-2,2-6,3.333-11.333,3.333h-56.667
		c-12,0-16.667-5.333-16.667-16.667v-56c0-8-2.667-12-10-12h-0.667v28c0,6.667-2,10.667-5.333,13.333L1421.333,349.333z"/>
	<path class="st8" d="M70.667,296V58.667C70.667,46.667,76,42,87.333,42h117.333c51.333,0,74,19.333,74,60v17.333
		c0,17.333-4.667,29.333-14.667,37.333c26.667,6,39.333,24.667,39.333,59.333v34c0,43.333-22.667,64-74.667,64H88
		C76,313.333,70.667,308,70.667,296z M160.667,111.333v32H188c7.333,0,10-3.333,10-10.667v-10c0-7.333-2.667-10.667-10-10.667
		C188,111.333,160.667,111.333,160.667,111.333z M160.667,207.333v36h44c7.333,0,10-3.333,10-11.333v-14
		c0-7.333-3.333-10.667-10-10.667H160.667L160.667,207.333z"/>
	<path class="st9" d="M334.667,296V114.667C334.667,68.667,354,36,449.333,36c96,0,116,32.667,116,78.667V296
		c0,12-5.333,16.667-16.667,16.667h-56c-12,0-16.667-5.333-16.667-16.667v-50.667h-53.333v51.333c0,12-5.333,16.667-16.667,16.667
		h-54C340,313.333,334.667,308,334.667,296z M422,170.667h53.333v-43.333c0-8.667-6-13.333-26.667-13.333S422,118.667,422,127.333
		V170.667L422,170.667z"/>
	<path class="st8" d="M622.667,313.333c-12,0-16.667-5.333-16.667-16.667V59.333c0-12,5.333-16.667,16.667-16.667h122
		c58,0,76,26.667,76,64.667V124c0,18-4,31.333-14,40c23.333,6.667,38,26,38,54.667v78c0,12-5.333,16.667-16.667,16.667h-56.667
		c-12,0-16.667-5.333-16.667-16.667v-56c0-8-2.667-12-10-12h-47.333v68c0,12-5.333,16.667-16.667,16.667H622.667L622.667,313.333
		L622.667,313.333z M696.666,115.333v39.333h24c10,0,12.667-6,12.667-13.333v-12.667c0-7.333-2-13.333-12.667-13.333
		C720,115.333,696.666,115.333,696.666,115.333z"/>
	<path class="st9" d="M878.667,296V58.667c0-12,5.333-16.667,16.667-16.667H1012c51.333,0,74,19.333,74,60v17.333
		c0,17.333-4.667,29.333-14.667,37.333c26.667,6,39.333,24.667,39.333,59.333v34c0,43.333-23.333,64-74.667,64H895.333
		C884,313.333,878.667,308,878.667,296z M968.667,111.333v32H996c7.333,0,10-3.333,10-10.667v-10c0-7.333-3.333-10.667-10-10.667
		C996,111.333,968.667,111.333,968.667,111.333z M968.667,207.333v36h44c7.333,0,10-3.333,10-11.333v-14
		c0-7.333-3.333-10.667-10-10.667H968.667L968.667,207.333z"/>
	<path class="st8" d="M1144,296V58.667c0-12,5.333-16.667,16.667-16.667h170c12,0,16.667,5.333,16.667,16.667v42.667
		c0,12-5.333,16.667-16.667,16.667h-97.333v20.667h68c12,0,16.667,5.333,16.667,16.667v39.333c0,12-5.333,16.667-16.667,16.667h-68
		v24h97.333c12,0,16.667,5.333,16.667,16.667v43.333c0,12-5.333,16.667-16.667,16.667h-170C1149.333,313.333,1144,308,1144,296z"/>
	<path class="st9" d="M1400.667,313.333c-12,0-16.667-5.333-16.667-16.667V59.333c0-12,5.333-16.667,16.667-16.667h122
		c58,0,76,26.667,76,64.667V124c0,18-4,31.333-14,40c23.333,6.667,38,26,38,54.667v78c0,12-5.333,16.667-16.667,16.667h-56.667
		c-12,0-16.667-5.333-16.667-16.667v-56c0-8-2.667-12-10-12h-47.333v68c0,12-5.333,16.667-16.667,16.667H1400.667L1400.667,313.333z
		 M1474,115.333v39.333h24c10,0,12.667-6,12.667-13.333v-12.667c0-7.333-2-13.333-12.667-13.333H1474z"/>
	<path class="st10" d="M87.333,309.333C78,309.333,74,305.333,74,296V58.667c0-9.333,4-13.333,13.333-13.333h117.333
		c48,0,70.666,17.333,70.666,56v17.333C275.333,139.333,268,152,254,158c31.333,3.333,46,21.333,46,57.333v34
		c0,41.333-22.667,60-71.333,60L87.333,309.333L87.333,309.333z M157.333,147.333h31.333c9.333,0,14-4.667,14-14.667v-10
		c0-10-4.667-14.667-14-14.667h-31.333V147.333z M157.333,247.333h47.333c9.333,0,14-4.667,14-14.667v-14c0-10-4.667-14-14-14
		h-47.333V247.333z"/>
	<path class="st11" d="M405.333,309.333h-54c-9.333,0-13.333-4-13.333-13.333V115.333c0-44.667,20-74.667,110.667-74.667
		c91.333,0,112,30.667,112,74.667v181.333c0,9.333-4,13.333-13.333,13.333H492c-9.333,0-13.333-4-13.333-13.333V242H418v54.667
		C418.667,305.333,414.667,309.333,405.333,309.333z M418.667,174.667h60.667v-47.333c0-10-4.667-17.333-30-17.333
		c-26,0-30.667,7.333-30.667,17.333V174.667L418.667,174.667z"/>
	<path class="st10" d="M622.667,309.333c-9.333,0-13.333-4-13.333-13.333V58.667c0-9.333,4-13.333,13.333-13.333h122
		c54.667,0,72,25.333,72,61.333v16.667c0,20.667-5.333,35.333-20.667,42C822.667,168,840.667,188,840.667,218.667v78
		c0,9.333-4,13.333-13.333,13.333h-56.667c-9.333,0-13.333-4-13.333-13.333v-56c0-11.333-3.333-16-14-16H692v72
		C692,306,688,310,678.667,310L622.667,309.333L622.667,309.333z M692.667,158.667H720c12.667,0,16-7.333,16-17.333v-12.667
		c0-10-3.333-17.333-16-17.333h-27.333V158.667z"/>
	<path class="st11" d="M895.333,309.333c-9.333,0-13.333-4-13.333-13.333V58.667c0-9.333,4-13.333,13.333-13.333H1012
		c48,0,70.667,17.333,70.667,56v17.333c0,20.667-6.667,33.333-21.333,39.333c31.333,3.333,46,20.667,46,56.667v34
		c0,40.667-22.667,60-71.333,60L895.333,309.333L895.333,309.333L895.333,309.333z M964.667,147.333H996c9.333,0,14-4.667,14-14.667
		v-10c0-10-4.667-14.667-14-14.667h-31.333V147.333z M964.667,247.333H1012c9.333,0,14-4.667,14-14.667v-14c0-10-4.667-14-14-14
		h-47.333V247.333L964.667,247.333z"/>
	<path class="st10" d="M1161.333,309.333c-9.333,0-13.333-4-13.333-13.333V58.667c0-9.333,4-13.333,13.333-13.333h170
		c9.333,0,13.333,4,13.333,13.333v42.667c0,9.333-4,13.333-13.333,13.333H1230v28.667h71.333c9.333,0,13.333,4,13.333,13.333V196
		c0,9.333-4,13.333-13.333,13.333H1230v31.333h101.333c9.333,0,13.333,4,13.333,13.333v42.667c0,9.333-4,13.333-13.333,13.333
		L1161.333,309.333L1161.333,309.333z"/>
	<path class="st11" d="M1400.667,309.333c-9.333,0-13.333-4-13.333-13.333V58.667c0-9.333,4-13.333,13.333-13.333h122
		c54.667,0,72,25.333,72,61.333v16.667c0,20.667-5.333,35.333-20.667,42c26.667,2.667,44.667,22.667,44.667,53.333v78
		c0,9.333-4,13.333-13.333,13.333h-56.667c-9.333,0-13.333-4-13.333-13.333v-56c0-11.333-3.333-16-14-16H1470v72
		c0,9.333-4,13.333-13.333,13.333L1400.667,309.333L1400.667,309.333L1400.667,309.333z M1470.667,158.667H1498
		c12.667,0,16-7.333,16-17.333v-12.667c0-10-3.333-17.333-16-17.333h-27.333V158.667z"/>
	<path class="st8" d="M114.667,276.667v-198h74.667c40.667,0,48,17.333,48,38.667v23.333c0,14.667-2.667,28-23.333,33.333
		c40.667,0,47.333,18,47.333,42v23.333c0,21.333-7.333,36.667-48,36.667h-98.667V276.667z M118.667,82.667v92h70.667
		c40.667,0,44.667-16,44.667-33.333V118c0-20-7.333-35.333-44.667-35.333L118.667,82.667L118.667,82.667z M118.667,178v94.667
		h94.667C250,272.667,258,260,258,240v-23.333c0-22-7.333-38.667-44-38.667H118.667L118.667,178z"/>
	<path class="st9" d="M518,210.667H382v66.667h-3.333V124.667c0-29.333,13.333-49.333,71.333-49.333s72,20,72,49.333v152.667h-3.333
		L518,210.667L518,210.667z M382,206.667h136V124c0-27.333-14-46-68.667-46s-67.333,18.667-67.333,46L382,206.667L382,206.667z"/>
	<path class="st8" d="M649.333,276.667v-198h83.333c28.667,0,42,17.333,42,42V146c0,22.667-4.667,37.333-22,42.667h4
		c30,0,44.667,13.333,44.667,39.333v48.667H798v-49.333c0-24-12.667-36-40.667-36h-104v85.333H649.333L649.333,276.667
		L649.333,276.667z M652.667,82.667v106h80c30.667,0,38-14.667,38-42v-25.333c0-22.667-12-38-38-38h-80V82.667z"/>
	<path class="st9" d="M922.667,276.667v-198h74.667c40.667,0,48,17.333,48,38.667v23.333c0,14.667-2.667,28-23.333,33.333
		c40.667,0,47.333,18,47.333,42v23.333c0,21.333-6.667,36.667-48,36.667h-98.667V276.667z M926.666,82.667v92h70.667
		c40.667,0,44.667-16,44.667-33.333V118c0-20-7.333-35.333-44.667-35.333L926.666,82.667L926.666,82.667z M926.666,178v94.667
		h94.667C1058,272.667,1066,260,1066,240v-23.333c0-22-6.667-38.667-44-38.667H926.666L926.666,178L926.666,178z"/>
	<path class="st8" d="M1311.333,276.667H1188v-198h123.333V82h-120v92h90v3.333H1192v95.333h120L1311.333,276.667L1311.333,276.667z
		"/>
	<path class="st9" d="M1427.333,276.667v-198h83.333c28.667,0,42,17.333,42,42V146c0,22.667-4.667,37.333-22,42.667h4
		c30,0,44.667,13.333,44.667,39.333v48.667H1576v-49.333c0-24-12.667-36-40.667-36h-104v85.333H1427.333L1427.333,276.667
		L1427.333,276.667z M1430.667,82.667v106h80c30.667,0,38-14.667,38-42v-25.333c0-22.667-12-38-38-38h-80V82.667z"/>
</g>
<g>
	<path class="st12" d="M199.63,808.81h-67.437c-48.643,0-70.753-19.07-70.753-59.147v-85.957c0-40.353,22.11-59.423,70.753-59.423
		h67.437c8.843,0,12.713,3.87,12.713,12.713v33.44c0,8.843-3.87,12.713-12.713,12.713h-55.553c-9.397,0-14.097,3.317-14.097,11.053
		v65.78c0,7.737,4.977,10.503,14.097,10.503h55.553c8.843,0,12.713,3.87,12.713,12.713v32.89
		C212.347,804.943,208.477,808.81,199.63,808.81z"/>
	<path class="st12" d="M410.783,753.81c0,34.823-16.03,59.147-88.443,59.147s-88.72-24.323-88.72-59.147v-94.247
		c0-34.823,16.307-59.423,88.72-59.423s88.443,24.6,88.443,59.423V753.81z M301.887,743.86c0,6.633,4.7,10.227,20.453,10.227
		s20.453-3.593,20.453-10.227v-74.347c0-6.357-4.7-9.95-20.453-9.95c-15.476,0-20.453,3.593-20.453,9.95V743.86z"/>
	<path class="st12" d="M575.497,808.81h-67.44c-48.643,0-70.753-19.07-70.753-59.147v-85.957c0-40.353,22.11-59.423,70.753-59.423
		h67.44c8.843,0,12.71,3.87,12.71,12.713v33.44c0,8.843-3.87,12.713-12.71,12.713H519.94c-9.397,0-14.093,3.317-14.093,11.053v65.78
		c0,7.737,4.973,10.503,14.093,10.503h55.557c8.843,0,12.71,3.87,12.71,12.713v32.89C588.207,804.943,584.34,808.81,575.497,808.81z
		"/>
	<path class="st12" d="M626.617,808.81c-8.847,0-12.713-3.87-12.713-12.713V617c0-8.843,3.87-12.713,12.713-12.713h42.836
		c8.847,0,12.713,3.87,12.713,12.713v60.807h6.633l27.64-62.74c3.317-7.737,7.737-10.78,16.307-10.78h42.563
		c9.124,0,12.163,4.7,8.57,12.99l-26.533,60.807c19.9,2.763,32.614,17.69,32.614,40.073v77.94c0,8.843-3.87,12.713-12.713,12.713
		h-42.563c-8.847,0-12.713-3.87-12.713-12.713V742.2c0-4.147-1.933-6.633-6.08-6.633h-33.72v60.53
		c0,8.843-3.87,12.713-12.713,12.713H626.617z"/>
	<path class="st12" d="M852.41,796.097v-132.94h-37.863c-8.843,0-12.713-3.87-12.713-12.713V617c0-8.843,3.873-12.713,12.713-12.713
		h145.93c8.847,0,12.713,3.87,12.713,12.713v33.44c0,8.843-3.87,12.713-12.713,12.713h-37.863v132.94
		c0,8.843-3.87,12.713-12.713,12.713h-44.773C856.28,808.81,852.41,804.943,852.41,796.097z"/>
	<path class="st12" d="M990.313,796.097v-136.81c0-34.547,14.65-59.147,86.51-59.147c72.137,0,87.063,24.6,87.063,59.147v136.81
		c0,8.843-3.873,12.713-12.713,12.713h-42.01c-8.847,0-12.713-3.87-12.713-12.713V757.68h-40.073v38.417
		c0,8.843-3.873,12.713-12.713,12.713h-40.627C994.183,808.81,990.313,804.943,990.313,796.097z M1056.37,701.573h40.073v-32.89
		c0-6.633-4.697-10.227-19.9-10.227c-15.477,0-20.177,3.593-20.177,10.227v32.89H1056.37z"/>
	<path class="st12" d="M1252.04,808.81h-43.943c-8.847,0-12.713-3.87-12.713-12.713V617c0-8.843,3.87-12.713,12.713-12.713h43.943
		c8.847,0,12.713,3.87,12.713,12.713v179.097C1264.753,804.943,1260.883,808.81,1252.04,808.81z"/>
	<path class="st12" d="M1297.633,796.097V617c0-8.843,3.87-12.713,12.713-12.713h42.84c8.847,0,12.713,3.87,12.713,12.713v132.94
		h67.716c8.843,0,12.71,3.87,12.71,12.713v33.443c0,8.843-3.87,12.713-12.71,12.713H1310.35
		C1301.503,808.81,1297.633,804.943,1297.633,796.097z"/>
	<path class="st12" d="M1561.297,808.81h-87.337c-8.843,0-12.71-3.87-12.71-12.713V763.76c0-8.843,3.87-12.713,12.71-12.713h74.35
		c3.04,0,4.42-2.487,4.42-5.253c0-4.147-1.38-6.357-4.697-6.633l-41.46-5.803c-27.637-4.147-45.327-16.03-45.327-48.643v-29.02
		c0-33.167,22.11-51.407,59.973-51.407h77.386c8.847,0,12.713,3.87,12.713,12.713v32.89c0,8.843-3.87,12.713-12.713,12.713h-64.397
		c-3.04,0-4.7,2.487-4.7,5.527c0,3.317,1.66,5.803,4.977,6.08l41.18,5.527c27.64,4.147,45.607,16.03,45.607,48.643v29.02
		C1621.273,790.57,1598.883,808.81,1561.297,808.81z"/>
	<g>
		<path class="st2" d="M132.193,806.26c-46.434,0-67.99-17.963-67.99-56.383V663.92c0-38.693,21.557-56.66,67.99-56.66h67.437
			c6.91,0,9.95,3.04,9.95,9.95v33.44c0,6.91-3.04,9.95-9.95,9.95h-55.553c-11.607,0-16.86,4.42-16.86,13.82v65.78
			c0,9.12,5.254,13.267,16.86,13.267h55.553c6.91,0,9.95,3.04,9.95,9.95v32.89c0,6.91-3.04,9.95-9.95,9.95h-67.437V806.26z"/>
		<path class="st2" d="M322.34,810.407c-69.097,0-85.957-22.663-85.957-56.383v-94.247c0-33.717,16.86-56.657,85.957-56.657
			s85.68,22.94,85.68,56.657v94.247C408.02,787.743,391.437,810.407,322.34,810.407z M322.34,757.063
			c20.177,0,23.217-5.527,23.217-12.99v-74.347c0-7.187-3.04-12.713-23.217-12.713c-19.9,0-23.217,5.527-23.217,12.713v74.347
			C299.123,751.537,302.437,757.063,322.34,757.063z"/>
		<path class="st2" d="M508.056,806.26c-46.434,0-67.99-17.963-67.99-56.383V663.92c0-38.693,21.557-56.66,67.99-56.66h67.44
			c6.91,0,9.947,3.04,9.947,9.95v33.44c0,6.91-3.04,9.95-9.947,9.95H519.94c-11.607,0-16.86,4.42-16.86,13.82v65.78
			c0,9.12,5.253,13.267,16.86,13.267h55.557c6.91,0,9.947,3.04,9.947,9.95v32.89c0,6.91-3.04,9.95-9.947,9.95h-67.44V806.26z"/>
		<path class="st2" d="M626.617,806.26c-6.91,0-9.95-3.04-9.95-9.95V617.213c0-6.91,3.04-9.95,9.95-9.95h42.836
			c6.91,0,9.95,3.04,9.95,9.95v63.567h11.053l28.47-64.397c2.763-6.633,6.633-9.123,13.82-9.123h42.563
			c6.357,0,8.57,3.317,6.08,9.123L753.2,680.78c20.73,1.107,33.997,15.477,33.997,37.587v77.94c0,6.91-3.04,9.95-9.95,9.95h-42.563
			c-6.91,0-9.95-3.04-9.95-9.95v-53.893c0-6.08-3.04-9.397-8.843-9.397h-36.483v63.293c0,6.91-3.043,9.95-9.95,9.95L626.617,806.26
			L626.617,806.26z"/>
		<path class="st2" d="M865.123,806.26c-6.91,0-9.95-3.04-9.95-9.95V660.607h-40.627c-6.91,0-9.95-3.04-9.95-9.95v-33.44
			c0-6.91,3.043-9.95,9.95-9.95h145.93c6.91,0,9.95,3.04,9.95,9.95v33.44c0,6.91-3.04,9.95-9.95,9.95H919.85V796.31
			c0,6.91-3.04,9.95-9.95,9.95H865.123z"/>
		<path class="st2" d="M1043.657,806.26h-40.627c-6.91,0-9.95-3.04-9.95-9.95V659.5c0-33.44,15.203-56.383,83.747-56.383
			c68.82,0,84.3,22.94,84.3,56.383v136.81c0,6.91-3.043,9.95-9.95,9.95h-42.01c-6.91,0-9.95-3.04-9.95-9.95v-41.183h-45.607v41.183
			C1053.603,803.22,1050.563,806.26,1043.657,806.26z M1053.603,704.55h45.607v-35.657c0-7.46-3.317-12.99-22.663-12.99
			c-19.623,0-22.944,5.527-22.944,12.99V704.55z"/>
		<path class="st2" d="M1208.094,806.26c-6.91,0-9.95-3.04-9.95-9.95V617.213c0-6.91,3.04-9.95,9.95-9.95h43.943
			c6.91,0,9.95,3.04,9.95,9.95V796.31c0,6.91-3.04,9.95-9.95,9.95H1208.094z"/>
		<path class="st2" d="M1363.137,617.213v135.703h70.48c6.91,0,9.947,3.04,9.947,9.95v33.443c0,6.91-3.04,9.95-9.947,9.95H1310.35
			c-6.91,0-9.95-3.04-9.95-9.95V617.213c0-6.91,3.04-9.95,9.95-9.95h42.84C1360.097,607.263,1363.137,610.303,1363.137,617.213z"/>
		<path class="st2" d="M1473.957,806.26c-6.91,0-9.947-3.04-9.947-9.95v-32.337c0-6.91,3.04-9.95,9.947-9.95h74.35
			c4.697,0,7.183-3.593,7.183-8.017c0-6.357-2.487-8.843-7.183-9.397l-41.46-5.803c-25.98-3.87-42.836-14.923-42.836-45.88v-29.02
			c0-31.51,21.28-48.643,57.21-48.643h77.386c6.91,0,9.95,3.04,9.95,9.95v32.89c0,6.91-3.04,9.95-9.95,9.95h-64.397
			c-4.7,0-7.463,3.317-7.463,8.293s2.763,8.29,7.463,8.843l41.18,5.527c25.984,3.87,43.117,14.927,43.117,45.88v29.02
			c0,31.507-21.56,48.643-57.213,48.643H1473.957z"/>
	</g>
	<path class="st11" d="M184.43,781.597h-46.157c-35.93,0-44.22-9.95-44.22-35.653v-77.387c0-26.257,8.843-36.207,44.22-36.207
		h46.157v2.763h-46.157c-32.614,0-41.457,8.843-41.457,33.44v77.387c0,24.047,8.29,32.89,41.457,32.89h46.157V781.597z"/>
	<path class="st11" d="M321.783,785.193c-43.39,0-55.553-14.927-55.553-37.313v-81.533c0-22.387,12.163-37.31,55.553-37.31
		c43.393,0,56.107,14.927,56.107,37.31v81.533C377.893,770.267,365.177,785.193,321.783,785.193z M321.783,782.427
		c41.183,0,53.344-13.82,53.344-34.547v-81.533c0-20.73-12.163-34.55-53.344-34.55s-52.787,13.82-52.787,34.55v81.533
		C268.997,768.61,280.603,782.427,321.783,782.427z"/>
	<path class="st11" d="M560.296,781.597H514.14c-35.93,0-44.22-9.95-44.22-35.653v-77.387c0-26.257,8.843-36.207,44.22-36.207
		h46.157v2.763H514.14c-32.613,0-41.457,8.843-41.457,33.44v77.387c0,24.047,8.29,32.89,41.457,32.89h46.157V781.597z"/>
	<path class="st11" d="M646.79,781.597V632.35h2.763v73.52h59.973l31.783-73.52h3.04l-31.787,73.52h11.333
		c22.663,0,33.443,7.74,33.443,27.087V781.6h-2.763v-48.643c0-17.69-10.227-24.323-30.68-24.323H649.55V781.6h-2.76V781.597z"/>
	<path class="st11" d="M886.13,635.117h-56.66v-2.763h116.08v2.763h-56.66V781.6h-2.763V635.117H886.13z"/>
	<path class="st11" d="M1128.783,731.573h-102.54v50.023h-2.763V666.343c0-22.387,10.223-37.31,53.62-37.31
		c43.39,0,54.447,14.927,54.447,37.31v115.253h-2.763L1128.783,731.573L1128.783,731.573z M1026.243,728.81h102.54v-62.463
		c0-20.73-10.503-34.55-51.683-34.55c-41.183,0-50.857,13.82-50.857,34.55V728.81z"/>
	<path class="st11" d="M1231.587,632.35v149.247h-2.763V632.35H1231.587z"/>
	<path class="st11" d="M1333.287,632.35v146.483h85.403v2.763h-88.167V632.35L1333.287,632.35L1333.287,632.35z"/>
	<path class="st11" d="M1583.687,635.117h-61.36c-15.477,0-25.427,9.397-25.427,22.387v22.663c0,12.99,5.526,16.86,14.093,18.517
		l58.32,11.883c11.053,2.21,19.07,7.74,19.07,27.087v16.03c0,16.307-11.887,27.913-30.68,27.913h-68.82v-2.763h68.82
		c17.137,0,27.917-10.503,27.917-25.15v-16.03c0-17.413-6.633-22.11-16.86-24.323l-58.32-11.883
		c-9.67-1.933-16.307-6.08-16.307-21.28v-22.663c0-14.647,11.057-25.15,28.193-25.15h61.36V635.117z"/>
</g>
<g>
	<path class="st13" d="M71.08,528.363v-108.08c0-5.337,2.337-7.673,7.673-7.673h25.853c5.337,0,7.673,2.333,7.673,7.673v34.527
		h24.517v-34.527c0-5.337,2.333-7.673,7.673-7.673h25.853c5.337,0,7.673,2.333,7.673,7.673v108.08c0,5.337-2.333,7.673-7.673,7.673
		H144.47c-5.337,0-7.673-2.333-7.673-7.673v-35.36H112.28v35.36c0,5.337-2.333,7.673-7.673,7.673H78.753
		C73.417,536.037,71.08,533.7,71.08,528.363z M110.613,528.363v-37.027h27.853v37.027c0,4.17,1.833,6.003,6.003,6.003h25.853
		c4.17,0,6.007-1.837,6.007-6.003v-108.08c0-4.17-1.837-6.003-6.007-6.003H144.47c-4.17,0-6.003,1.837-6.003,6.003v36.193h-27.853
		v-36.193c0-4.17-1.837-6.003-6.007-6.003H78.753c-4.17,0-6.007,1.837-6.007,6.003v108.08c0,4.17,1.837,6.003,6.007,6.003h25.853
		C108.777,534.37,110.613,532.533,110.613,528.363z M90.76,429.287h1.67v44.2h64.05v-44.2h1.667v90.07h-1.667v-44.2H92.43v44.2
		h-1.67V429.287z"/>
	<path class="st13" d="M302.753,502.843c0,21.017-9.673,35.693-53.373,35.693s-53.54-14.68-53.54-35.693v-56.877
		c0-21.017,9.84-35.86,53.54-35.86s53.373,14.843,53.373,35.86V502.843z M301.087,445.967c0-20.347-10.007-34.193-51.707-34.193
		c-41.697,0-51.873,13.843-51.873,34.193v56.877c0,20.35,10.173,34.027,51.873,34.027s51.707-13.677,51.707-34.027V445.967z
		 M249.046,521.523c-26.187,0-33.527-9.007-33.527-22.517v-49.203c0-13.51,7.34-22.517,33.527-22.517s33.857,9.007,33.857,22.517
		v49.203C282.903,512.52,275.233,521.523,249.046,521.523z M249.046,519.857c24.854,0,32.19-8.34,32.19-20.85v-49.203
		c0-12.51-7.34-20.847-32.19-20.847c-24.854,0-31.857,8.337-31.857,20.847v49.203C217.19,511.517,224.193,519.857,249.046,519.857z
		 M235.37,451.973c0-4.337,2-7.673,14.01-7.673c12.177,0,14.01,3.333,14.01,7.673v44.867c0,4.503-1.837,7.84-14.01,7.84
		c-12.01,0-14.01-3.337-14.01-7.84V451.973z M237.037,496.84c0,4.003,2.837,6.17,12.343,6.17c9.507,0,12.343-2.17,12.343-6.17
		v-44.867c0-3.837-2.836-6.003-12.343-6.003c-9.34,0-12.343,2.17-12.343,6.003V496.84z"/>
	<path class="st13" d="M343.453,528.363v-80.227h-22.85c-5.337,0-7.673-2.333-7.673-7.673V420.28c0-5.337,2.337-7.673,7.673-7.673
		h88.07c5.333,0,7.673,2.333,7.673,7.673v20.183c0,5.337-2.34,7.673-7.673,7.673H385.82v80.227c0,5.337-2.333,7.673-7.673,7.673
		h-27.02C345.787,536.037,343.453,533.7,343.453,528.363z M384.15,528.363v-81.897h24.52c4.167,0,6.003-1.833,6.003-6.003V420.28
		c0-4.17-1.837-6.003-6.003-6.003H320.6c-4.17,0-6.007,1.837-6.007,6.003v20.183c0,4.17,1.837,6.003,6.007,6.003h24.517v81.897
		c0,4.17,1.833,6.003,6.003,6.003h27.02C382.317,534.37,384.15,532.533,384.15,528.363z M363.8,430.957h-34.19v-1.67h70.053v1.67
		H365.47v88.4h-1.667v-88.4H363.8z"/>
	<path class="st13" d="M465.04,528.363v-108.08c0-5.337,2.333-7.673,7.673-7.673h74.39c5.337,0,7.673,2.333,7.673,7.673v19.847
		c0,5.337-2.337,7.673-7.673,7.673H506.24v14.01h27.354c5.336,0,7.673,2.333,7.673,7.673V489.5c0,5.337-2.337,7.673-7.673,7.673
		H506.24v31.19c0,5.337-2.337,7.673-7.673,7.673h-25.853C467.373,536.037,465.04,533.7,465.04,528.363z M504.573,528.363v-32.857
		h29.023c4.17,0,6.007-1.837,6.007-6.003V469.49c0-4.17-1.837-6.003-6.007-6.003h-29.023V446.14h42.53
		c4.17,0,6.007-1.837,6.007-6.003V420.29c0-4.17-1.837-6.003-6.007-6.003h-74.39c-4.167,0-6.003,1.837-6.003,6.003v108.08
		c0,4.17,1.837,6.003,6.003,6.003h25.853C502.737,534.37,504.573,532.533,504.573,528.363z M484.89,429.287h53.207v1.67h-51.54
		v47.703h38.03v1.667h-38.03v39.03h-1.667V429.287z"/>
	<path class="st13" d="M575.787,536.037c-5.336,0-7.673-2.333-7.673-7.673v-108.08c0-5.337,2.333-7.673,7.673-7.673h55.543
		c26.52,0,34.527,12.177,34.527,29.523v7.673c0,8.173-1.837,14.343-6.504,18.18c10.507,3.003,17.343,11.843,17.343,25.02v35.36
		c0,5.337-2.333,7.673-7.673,7.673h-25.85c-5.336,0-7.673-2.333-7.673-7.673v-25.52c0-3.67-1.167-5.503-4.67-5.503h-21.683v31.023
		c0,5.337-2.333,7.673-7.673,7.673h-25.686V536.037z M607.48,528.363V495.67h23.353c4.67,0,6.337,2.17,6.337,7.173v25.52
		c0,4.17,1.837,6.003,6.007,6.003h25.85c4.17,0,6.007-1.837,6.007-6.003v-35.36c0-14.01-8.003-22.85-20.183-24.187
		c7.003-3.003,9.34-9.673,9.34-19.013v-7.673c0-16.513-7.836-27.853-32.857-27.853H575.79c-4.17,0-6.003,1.837-6.003,6.003v108.08
		c0,4.17,1.833,6.003,6.003,6.003h25.687C605.643,534.37,607.48,532.533,607.48,528.363z M587.796,519.357v-90.07h38.03
		c13.01,0,19.013,8.007,19.013,19.013v11.51c0,10.173-2.003,16.847-10.007,19.35h1.837c13.677,0,20.184,6.17,20.184,17.847v22.35
		h-1.667v-22.35c0-11.01-5.84-16.347-18.513-16.347H589.47v38.697L587.796,519.357L587.796,519.357z M589.463,430.957v48.203h36.364
		c13.843,0,17.347-6.84,17.347-19.18v-11.677c0-10.34-5.503-17.347-17.347-17.347H589.463z M619.99,444.3
		c5.837,0,7.34,3.333,7.34,7.84v5.67c0,4.503-1.504,7.84-7.34,7.84h-12.51V444.3L619.99,444.3L619.99,444.3z M609.147,445.967
		v18.013h10.844c4.67,0,5.67-2.67,5.67-6.17v-5.67c0-3.503-1-6.17-5.67-6.17h-10.844V445.967z"/>
	<path class="st13" d="M692.043,528.363v-108.08c0-5.337,2.333-7.673,7.673-7.673h77.393c5.336,0,7.673,2.333,7.673,7.673v19.513
		c0,5.337-2.333,7.673-7.673,7.673h-44.367v9.507H763.6c5.336,0,7.673,2.333,7.673,7.673v17.847c0,5.337-2.333,7.673-7.673,7.673
		h-30.857v11.01h44.367c5.336,0,7.673,2.333,7.673,7.673v19.513c0,5.337-2.333,7.673-7.673,7.673h-77.393
		C694.376,536.037,692.043,533.7,692.043,528.363z M783.113,528.363V508.85c0-4.17-1.837-6.003-6.007-6.003h-46.034v-14.343h32.523
		c4.17,0,6.007-1.837,6.007-6.003v-17.847c0-4.17-1.837-6.003-6.007-6.003h-32.523v-12.843h46.034c4.17,0,6.007-1.837,6.007-6.003
		V420.29c0-4.17-1.837-6.003-6.007-6.003h-77.393c-4.167,0-6.003,1.837-6.003,6.003v108.08c0,4.17,1.837,6.003,6.003,6.003h77.393
		C781.277,534.37,783.113,532.533,783.113,528.363z M768.1,519.357h-56.21v-90.07h56.21v1.67h-54.54v41.867h41.034v1.667H713.56
		v43.2h54.54L768.1,519.357L768.1,519.357z"/>
	<path class="st13" d="M858.5,536.037h-52.707c-5.337,0-7.677-2.333-7.677-7.673V508.85c0-5.337,2.34-7.673,7.677-7.673h44.867
		c1.837,0,2.667-1.5,2.667-3.17c0-2.503-0.833-3.837-2.833-4.003l-25.02-3.503c-16.68-2.503-27.354-9.673-27.354-29.357V443.63
		c0-20.013,13.347-31.023,36.193-31.023h46.703c5.336,0,7.673,2.333,7.673,7.673v19.847c0,5.337-2.333,7.673-7.673,7.673h-38.864
		c-1.837,0-2.833,1.5-2.833,3.337c0,2,1,3.503,3.003,3.67l24.854,3.337c16.68,2.503,27.523,9.673,27.523,29.357v17.513
		C894.697,525.03,881.183,536.037,858.5,536.037z M893.023,505.013V487.5c0-18.68-10.34-25.353-26.02-27.69l-24.854-3.333
		c-2.833-0.333-4.503-2.333-4.503-5.337c0-3.003,1.667-5.003,4.503-5.003h38.864c4.17,0,6.003-1.837,6.003-6.003v-19.847
		c0-4.17-1.833-6.003-6.003-6.003H834.31c-21.683,0-34.524,10.34-34.524,29.357v17.513c0,18.68,10.173,25.353,25.85,27.687
		l25.02,3.503c2.833,0.333,4.337,1.837,4.337,5.67c0,2.67-1.503,4.837-4.337,4.837H805.79c-4.17,0-6.007,1.837-6.007,6.003v19.513
		c0,4.17,1.837,6.003,6.007,6.003h52.707C880.013,534.37,893.023,524.027,893.023,505.013z M872.01,430.957h-37.03
		c-9.34,0-15.343,5.67-15.343,13.51v13.677c0,7.84,3.337,10.173,8.507,11.173l35.193,7.173c6.67,1.337,11.507,4.67,11.507,16.347
		v9.673c0,9.84-7.173,16.847-18.513,16.847H814.8v-1.67h41.53c10.343,0,16.846-6.337,16.846-15.18v-9.673
		c0-10.507-4.003-13.343-10.173-14.677l-35.193-7.173c-5.837-1.167-9.84-3.67-9.84-12.843v-13.677c0-8.84,6.673-15.18,17.013-15.18
		h37.03v1.673H872.01z"/>
	<path class="st13" d="M909.537,528.363v-108.08c0-5.337,2.337-7.673,7.673-7.673h25.853c5.336,0,7.673,2.333,7.673,7.673v34.527
		h24.52v-34.527c0-5.337,2.333-7.673,7.673-7.673h25.85c5.336,0,7.673,2.333,7.673,7.673v108.08c0,5.337-2.333,7.673-7.673,7.673
		h-25.85c-5.336,0-7.673-2.333-7.673-7.673v-35.36h-24.52v35.36c0,5.337-2.333,7.673-7.673,7.673H917.21
		C911.87,536.037,909.537,533.7,909.537,528.363z M949.07,528.363v-37.027h27.853v37.027c0,4.17,1.837,6.003,6.007,6.003h25.85
		c4.17,0,6.007-1.837,6.007-6.003v-108.08c0-4.17-1.837-6.003-6.007-6.003h-25.85c-4.17,0-6.007,1.837-6.007,6.003v36.193H949.07
		v-36.193c0-4.17-1.837-6.003-6.007-6.003H917.21c-4.167,0-6.003,1.837-6.003,6.003v108.08c0,4.17,1.837,6.003,6.003,6.003h25.853
		C947.233,534.37,949.07,532.533,949.07,528.363z M929.22,429.287h1.667v44.2h64.05v-44.2h1.67v90.07h-1.67v-44.2h-64.05v44.2
		h-1.667V429.287z"/>
	<path class="st13" d="M1073.653,528.363v-108.08c0-5.337,2.337-7.673,7.673-7.673h51.04c31.86,0,41.034,14.01,41.034,34.19v21.35
		c0,20.183-9.173,34.193-41.034,34.193h-17.513v26.02c0,5.337-2.333,7.673-7.673,7.673h-25.853
		C1075.99,536.037,1073.653,533.7,1073.653,528.363z M1113.187,528.363v-27.687h19.18c30.357,0,39.363-13.177,39.363-32.527V446.8
		c0-19.347-9.007-32.523-39.363-32.523h-51.04c-4.17,0-6.003,1.837-6.003,6.003v108.08c0,4.17,1.833,6.003,6.003,6.003h25.853
		C1111.35,534.37,1113.187,532.533,1113.187,528.363z M1095.67,486.497v32.86h-1.667v-90.07h36.027
		c21.017,0,25.02,9.677,25.02,22.683v12.343c0,13.01-4.003,22.183-25.02,22.183H1095.67z M1130.03,484.83
		c19.683,0,23.353-8.507,23.353-20.517V451.97c0-12.01-3.67-21.017-23.353-21.017h-34.36v53.873h34.36V484.83z M1127.863,445.467
		c6.504,0,7.84,3.837,7.84,8.173v8.84c0,4.337-1.337,8.173-7.84,8.173h-15.013v-25.187L1127.863,445.467L1127.863,445.467z
		 M1114.52,447.137v21.85h13.344c5.17,0,6.174-3.17,6.174-6.503v-8.84c0-3.333-1.003-6.503-6.174-6.503h-13.344V447.137z"/>
	<path class="st13" d="M1184.74,528.363v-19.847c0-5.337,2.333-7.673,7.673-7.673h14.843v-52.707h-14.843
		c-5.336,0-7.673-2.333-7.673-7.673V420.28c0-5.337,2.333-7.673,7.673-7.673h71.053c5.337,0,7.673,2.333,7.673,7.673v20.183
		c0,5.337-2.337,7.673-7.673,7.673h-14.51v52.707h14.51c5.337,0,7.673,2.333,7.673,7.673v19.847c0,5.337-2.337,7.673-7.673,7.673
		h-71.053C1187.073,536.037,1184.74,533.7,1184.74,528.363z M1263.467,534.37c4.17,0,6.007-1.837,6.007-6.003V508.52
		c0-4.17-1.837-6.003-6.007-6.003h-16.18v-56.05h16.18c4.17,0,6.007-1.833,6.007-6.003V420.28c0-4.17-1.837-6.003-6.007-6.003
		h-71.053c-4.17,0-6.007,1.837-6.007,6.003v20.183c0,4.17,1.837,6.003,6.007,6.003h16.513v56.043h-16.513
		c-4.17,0-6.007,1.837-6.007,6.003v19.847c0,4.17,1.837,6.003,6.007,6.003h71.053V534.37z M1201.42,519.357v-1.67h25.85v-86.733
		h-25.85v-1.67h53.037v1.67h-25.52v86.733h25.52v1.67H1201.42z"/>
	<path class="st13" d="M1284.48,528.363v-22.35c0-4.837,1.337-8.007,4.503-11.343l38.364-46.537h-32.193
		c-5.337,0-7.673-2.333-7.673-7.673v-20.183c0-5.337,2.337-7.673,7.673-7.673h76.723c5.34,0,7.677,2.333,7.677,7.673v24.853
		c0,5.003-1.337,8.173-4.507,11.51l-36.527,44.2h36.36c5.336,0,7.673,2.333,7.673,7.673v19.847c0,5.337-2.333,7.673-7.673,7.673
		h-82.727C1286.813,536.037,1284.48,533.7,1284.48,528.363z M1380.883,528.363v-19.847c0-4.17-1.837-6.003-6.007-6.003h-39.86
		l38.693-46.867c3.003-3.17,4.17-6.003,4.17-10.51v-24.853c0-4.17-1.837-6.003-6.007-6.003h-76.723c-4.17,0-6.007,1.837-6.007,6.003
		v20.183c0,4.17,1.837,6.003,6.007,6.003h35.693l-40.533,49.203c-3.003,3.17-4.17,6.003-4.17,10.343v22.35
		c0,4.17,1.837,6.003,6.007,6.003h82.727C1379.05,534.37,1380.883,532.533,1380.883,528.363z M1308.497,506.347
		c-1.667,2.003-2.333,3.003-2.333,5.17v2.333c0,3.17,1.667,3.837,3.503,3.837h56.213v1.67h-56.213c-3.667,0-5.17-1.67-5.17-5.507
		v-2.67c0-2.5,1.167-4.17,2.833-6.17l48.87-62.717c1.667-2,2.333-3,2.333-5.17v-2.333c0-3.17-1.667-3.837-3.503-3.837h-50.87v-1.67
		h50.87c3.67,0,5.17,1.67,5.17,5.507v2.67c0,2.5-1.167,4.17-2.833,6.17L1308.497,506.347z"/>
	<path class="st13" d="M1393.727,528.363v-22.35c0-4.837,1.337-8.007,4.503-11.343l38.364-46.537H1404.4
		c-5.337,0-7.673-2.333-7.673-7.673v-20.183c0-5.337,2.333-7.673,7.673-7.673h76.726c5.333,0,7.673,2.333,7.673,7.673v24.853
		c0,5.003-1.337,8.173-4.507,11.51l-36.527,44.2h36.36c5.336,0,7.677,2.333,7.677,7.673v19.847c0,5.337-2.337,7.673-7.677,7.673
		H1401.4C1396.06,536.037,1393.727,533.7,1393.727,528.363z M1490.133,528.363v-19.847c0-4.17-1.837-6.003-6.007-6.003h-39.86
		l38.693-46.867c3.003-3.17,4.17-6.003,4.17-10.51v-24.853c0-4.17-1.837-6.003-6.003-6.003H1404.4c-4.17,0-6.007,1.837-6.007,6.003
		v20.183c0,4.17,1.837,6.003,6.007,6.003h35.693l-40.533,49.203c-3.003,3.17-4.17,6.003-4.17,10.343v22.35
		c0,4.17,1.837,6.003,6.007,6.003h82.727C1488.297,534.37,1490.133,532.533,1490.133,528.363z M1417.743,506.347
		c-1.667,2.003-2.337,3.003-2.337,5.17v2.333c0,3.17,1.67,3.837,3.503,3.837h56.213v1.67h-56.213c-3.667,0-5.17-1.67-5.17-5.507
		v-2.67c0-2.5,1.167-4.17,2.833-6.17l48.873-62.717c1.667-2,2.333-3,2.333-5.17v-2.333c0-3.17-1.667-3.837-3.503-3.837h-50.87v-1.67
		h50.87c3.67,0,5.17,1.67,5.17,5.507v2.67c0,2.5-1.167,4.17-2.833,6.17L1417.743,506.347z"/>
	<path class="st13" d="M1505.143,528.363V484.33c0-6.84,2-15.347,6.67-27.353l14.513-37.697c1.5-4.67,4.67-6.67,10.007-6.67h44.866
		c5.173,0,8.34,2,9.843,6.503l14.51,37.86c4.67,12.01,6.673,20.517,6.673,27.353v44.033c0,5.337-2.333,7.673-7.673,7.673h-25.187
		c-5.67,0-8.173-2.5-8.173-7.673v-21.683h-26.187v21.683c0,5.337-2.333,7.673-7.673,7.673h-24.517
		C1507.48,536.037,1505.143,533.7,1505.143,528.363z M1543.337,505.013h29.524v23.35c0,4.17,2.003,6.003,6.503,6.003h25.187
		c4.17,0,6.007-1.837,6.007-6.003V484.33c0-6.673-2.003-15.013-6.504-26.687l-14.513-37.863c-1.333-3.837-4.004-5.503-8.34-5.503
		h-44.867c-4.503,0-7.173,1.667-8.507,5.503l-14.51,37.863c-4.507,11.673-6.504,20.013-6.504,26.687v44.033
		c0,4.17,1.837,6.003,6.007,6.003h24.517c4.17,0,6.007-1.837,6.007-6.003v-23.35H1543.337z M1591.21,490.667h-65.05v28.69h-1.667
		V483.83c0-6.17,1-11.34,2.833-16.177L1538,440.3c2.503-6.17,4.507-11.01,12.177-11.01h16.343c7.34,0,9.34,4.67,12.01,11.177
		l11.507,27.187c1.837,4.837,2.837,10.007,2.837,16.177v35.527h-1.667v-28.69H1591.21z M1526.157,489h65.05v-5.17
		c0-6.003-1.003-11.007-2.67-15.51l-11.51-27.19c-2.5-5.837-4.333-10.173-10.507-10.173h-16.343c-6.673,0-8.507,4.337-10.677,10.007
		l-10.673,27.353c-1.667,4.503-2.67,9.507-2.67,15.51V489z M1556.017,446.467h4.17c1.337,0,2.337,0.837,3.167,2.837l7.84,25.353
		h-26.187l7.84-25.353C1553.68,447.303,1554.68,446.467,1556.017,446.467z M1561.853,449.97c-0.5-1-0.837-1.837-1.667-1.837h-4.17
		c-0.833,0-1.167,0.833-1.667,1.837l0.163-0.167l-7.173,23.183h21.517l-7.173-23.183L1561.853,449.97z"/>
</g>
<g>
	<path class="st12" d="M103.97,1151.153l-30.993-77.487c-7.906-19.607-10.437-25.617-10.437-46.177v-83.493
		c0-5.693,1.583-9.17,4.43-11.7l40.797-34.473c2.213-1.897,5.693-2.847,10.12-2.847h50.287c10.12,0,15.497,4.743,15.497,14.547
		v87.29c0,4.11,0.95,7.59,2.213,12.017l0.95,2.213v-67.047c0-5.693,1.583-9.17,4.43-11.7l40.797-34.473
		c2.213-1.897,5.693-2.847,10.12-2.847h49.653c10.437,0,14.547,4.427,14.547,14.547v83.493c0,20.557-2.53,26.563-10.437,46.173
		l-30.993,77.483c-1.263,3.797-3.477,6.643-5.693,8.54l-40.8,33.837c-3.477,3.163-7.59,4.43-13.283,4.43h-82.227
		C113.143,1163.487,107.767,1160.323,103.97,1151.153z"/>
	<path class="st12" d="M351.303,1163.487h-46.49c-10.12,0-14.55-4.43-14.55-14.55v-83.493c0-12.967,3.797-29.097,12.65-51.867
		l27.2-71.477c1.263-3.793,3.163-6.323,5.377-8.54l0.317-0.317l40.483-33.84c3.477-3.163,7.906-4.427,13.917-4.427h85.073
		c9.8,0,15.81,3.797,18.66,12.333l27.513,71.793c8.857,22.773,12.653,38.9,12.653,51.867v83.493c0,5.693-1.583,9.173-4.427,11.703
		l-41.117,34.157c-1.897,1.897-5.374,3.163-9.803,3.163h-47.754c-10.757,0-15.497-4.747-15.497-14.55v-41.113h-8.853v6.64
		c0,5.693-1.583,9.173-4.427,11.703l-41.117,34.157C359.21,1162.22,355.733,1163.487,351.303,1163.487z"/>
	<path class="st12" d="M603.38,1163.487c-55.66,0-80.963-31.313-80.963-77.17v-88.87c0-23.403,6.643-40.167,19.927-51.55
		l41.113-34.473c12.97-11.07,33.21-16.447,60.723-16.447h77.17c10.12,0,14.547,4.427,14.547,14.547v38.267
		c0,5.693-1.583,9.17-4.427,11.703l-41.117,34.157c-1.897,1.897-5.374,3.163-9.803,3.163h-38.9v53.45
		c0,8.853,5.693,12.017,16.13,12.017h63.57c10.12,0,14.547,4.427,14.547,14.547v37.633c0,5.693-1.583,9.173-4.427,11.703
		l-41.117,34.157c-1.897,1.897-5.374,3.163-9.803,3.163h-77.17V1163.487z"/>
	<path class="st12" d="M780.813,1163.487h-46.49c-10.12,0-14.547-4.43-14.547-14.55v-83.493c0-12.967,3.797-29.097,12.65-51.867
		l27.197-71.477c1.267-3.793,3.163-6.323,5.377-8.54l0.317-0.317l40.483-33.84c3.48-3.163,7.906-4.427,13.917-4.427h85.073
		c9.803,0,15.813,3.797,18.66,12.333l27.517,71.793c8.853,22.773,12.65,38.9,12.65,51.867v83.493c0,5.693-1.583,9.173-4.427,11.703
		l-41.113,34.157c-1.897,1.897-5.377,3.163-9.803,3.163h-47.757c-10.753,0-15.493-4.747-15.493-14.55v-41.113h-8.857v6.64
		c0,5.693-1.583,9.173-4.427,11.703l-41.113,34.157C788.72,1162.22,785.24,1163.487,780.813,1163.487z"/>
	<path class="st12" d="M1027.2,1160.323c-1.897,1.897-5.377,3.163-9.804,3.163h-47.44c-10.12,0-14.547-4.43-14.547-14.55V944
		c0-5.693,1.583-9.17,4.427-11.7l40.797-34.473c2.217-1.897,5.693-2.847,10.12-2.847h32.893c9.17,0,14.863,2.53,21.187,9.487
		l21.823,25.3l38.267-31.943c2.213-1.897,5.693-2.847,10.12-2.847h47.437c10.12,0,14.547,4.427,14.547,14.547v204.937
		c0,5.693-1.58,9.173-4.427,11.703l-41.113,34.157c-1.897,1.897-5.377,3.163-9.803,3.163h-47.437c-10.12,0-14.55-4.43-14.55-14.55
		V1111.3l-6.957-8.54v11.7c0,5.693-1.583,9.173-4.427,11.703L1027.2,1160.323z"/>
	<path class="st12" d="M1271.05,1163.487c-55.66,0-80.963-31.313-80.963-77.17v-88.87c0-23.403,6.643-40.167,19.927-51.55
		l41.113-34.473c12.97-11.07,33.21-16.447,60.723-16.447h77.17c10.12,0,14.547,4.427,14.547,14.547v38.267
		c0,5.693-1.583,9.17-4.427,11.703l-41.116,34.157c-1.897,1.897-5.374,3.163-9.803,3.163h-38.9v53.45
		c0,8.853,5.693,12.017,16.13,12.017h63.57c10.12,0,14.547,4.427,14.547,14.547v37.633c0,5.693-1.583,9.173-4.427,11.703
		l-41.116,34.157c-1.897,1.897-5.374,3.163-9.803,3.163h-77.17V1163.487z"/>
	<path class="st12" d="M1459.55,1163.487c-10.437,0-14.547-4.43-14.547-14.55v-39.53l-47.754-63.887
		c-10.12-13.597-12.653-20.24-12.653-40.797V944c0-5.693,1.583-9.17,4.43-11.7l40.797-34.473c2.213-1.897,5.69-2.847,10.12-2.847
		h48.703c10.12,0,14.547,4.427,14.547,14.547v51.87c0,3.793,0,7.59,2.213,11.7l3.797,5.377V944c0-5.693,1.583-9.17,4.427-11.7
		l40.797-34.473c2.213-1.897,5.693-2.847,10.12-2.847h47.126c10.117,0,14.547,4.427,14.547,14.547v60.723
		c0,20.557-2.533,27.2-12.653,40.797l-47.437,64.203v39.217c0,5.693-1.583,9.173-4.427,11.703l-41.116,34.157
		c-1.893,1.897-5.374,3.163-9.8,3.163h-51.237V1163.487z"/>
	<path class="st2" d="M145.4,926.803v68.313c0,11.07,1.583,20.873,5.06,29.413l20.873,50.603c4.427,11.067,7.906,19.29,19.927,19.29
		h27.83c12.017,0,15.497-8.223,19.927-19.29l20.873-50.603c3.48-8.54,5.06-18.343,5.06-29.413v-68.313h3.163v68.313
		c0,11.7-1.267,21.507-5.06,30.677l-20.873,50.603c-5.06,12.337-9.803,21.19-23.087,21.19h-27.83
		c-13.283,0-18.027-8.853-23.087-21.19l-20.873-50.603c-3.797-9.17-5.06-18.973-5.06-30.677v-68.313H145.4z"/>
	<path class="st2" d="M494.257,1043.187H370.913v54.397h-3.16v-67.363c0-11.703,1.893-21.507,5.374-30.68l20.24-51.867
		c4.743-11.703,8.54-20.873,23.09-20.873h30.993c13.917,0,17.71,8.857,22.77,21.19l21.823,51.55c3.48,9.17,5.377,18.977,5.377,30.68
		v67.363h-3.163L494.257,1043.187L494.257,1043.187z M370.913,1040.027h123.344v-9.803c0-11.387-1.897-20.877-5.06-29.413
		l-21.823-51.55c-4.746-11.07-8.223-19.293-19.927-19.293h-30.993c-12.653,0-16.13,8.223-20.24,18.977l-20.24,51.867
		c-3.163,8.54-5.063,18.027-5.063,29.413v9.803H370.913z"/>
	<path class="st2" d="M703.953,1097.583h-52.817c-41.113,0-50.603-11.387-50.603-40.797v-88.553c0-30.047,10.12-41.43,50.603-41.43
		h52.817v3.163h-52.817c-37.316,0-47.44,10.12-47.44,38.267v88.553c0,27.513,9.49,37.633,47.44,37.633h52.817V1097.583z"/>
	<path class="st2" d="M923.766,1043.187H800.423v54.397h-3.163v-67.363c0-11.703,1.897-21.507,5.377-30.68l20.24-51.867
		c4.743-11.703,8.54-20.873,23.087-20.873h30.993c13.917,0,17.71,8.857,22.773,21.19l21.82,51.55
		c3.48,9.17,5.377,18.977,5.377,30.68v67.363h-3.16L923.766,1043.187L923.766,1043.187z M800.423,1040.027h123.344v-9.803
		c0-11.387-1.897-20.877-5.063-29.413l-21.823-51.55c-4.743-11.07-8.223-19.293-19.927-19.293H845.96
		c-12.65,0-16.13,8.223-20.24,18.977l-20.24,51.867c-3.16,8.54-5.06,18.027-5.06,29.413v9.803H800.423z"/>
	<path class="st2" d="M1157.5,1060.267V926.8h3.16v170.783h-3.16v-32.573l-119.547-134.097c-0.63-0.63-0.95-0.95-1.583-0.95
		c-0.633,0-0.63,0.633-0.63,0.95v166.67h-3.163V930.28c0-2.53,1.897-3.797,3.797-3.797c1.9,0,2.53,0.63,4.743,2.847L1157.5,1060.267
		z"/>
	<path class="st2" d="M1371.623,1097.583h-52.817c-41.113,0-50.603-11.387-50.603-40.797v-88.553c0-30.047,10.12-41.43,50.603-41.43
		h52.817v3.163h-52.817c-37.317,0-47.44,10.12-47.44,38.267v88.553c0,27.513,9.49,37.633,47.44,37.633h52.817V1097.583z"/>
	<path class="st2" d="M1527.55,1043.503v54.083h-3.163v-54.083h-3.16c-9.173,0-16.13-3.797-23.09-13.28l-30.677-42.697
		c-4.743-6.323-4.743-15.18-4.743-24.353v-36.37h3.16v36.37c0,8.857,0.32,16.763,4.43,23.087l30.677,42.697
		c5.693,8.54,12.967,11.387,20.24,11.387h8.54c7.906,0,14.233-3.163,20.557-11.387l31.627-42.697
		c4.427-5.693,4.427-14.233,4.427-23.087v-36.37h3.163v36.37c0,9.17,0.317,17.71-4.746,24.353l-31.624,42.697
		c-6.96,9.17-13.6,13.28-23.403,13.28H1527.55z"/>
</g>
</svg>
