<?xml version="1.0" encoding="utf-8"?>
<!-- Generator: Adobe Illustrator 19.2.1, SVG Export Plug-In . SVG Version: 6.00 Build 0)  -->
<svg version="1.1" id="Layer_1" xmlns="http://www.w3.org/2000/svg" xmlns:xlink="http://www.w3.org/1999/xlink" x="0px" y="0px"
	 width="1550px" height="2000px" viewBox="0 0 1550 2000" style="enable-background:new 0 0 1550 2000;" xml:space="preserve">
<style type="text/css">
	.st0{fill:none;}
	.st1{fill:#FFFFFF;}
	.st2{fill:#25839E;}
	.st3{fill:#3AAEC9;}
	.st4{fill:#C91705;stroke:#F6ECCC;stroke-width:3.75;}
	.st5{fill:#EEE254;}
	.st6{fill:#FFFFFF;stroke:#231F20;stroke-width:3.75;}
	.st7{fill:#DC4227;stroke:#706B5E;stroke-width:2.5;}
	.st8{fill:#762117;stroke:#706B5E;stroke-width:2.5;}
	.st9{fill:#432D2C;stroke:#ECDFC1;stroke-width:3.55;}
	.st10{fill:#ECDFC1;}
</style>
<rect class="st0" width="1550" height="2000"/>
<g>
	<g>
		<path class="st1" d="M831.875,1839.5v103.75c0,10.5-4.5,15.25-15.25,15.25h-38.5c-10.5,0-15.25-4.5-15.25-15.25v-88.5
			c0-3.5-3-5.25-6.25-5.25c-5,0-7.5,1.5-7.75,5.5l-7,49.5c-5,32.75-19,54-57.75,54h-34.5c-39.5,0-61.25-26.25-61.25-71.5v-92
			c0-10.5,4.5-15.25,15.25-15.25h39.25c10.5,0,15.25,4.5,15.25,15.25v76.5c0,3.5,3,5.5,6.5,5.5c4,0,7-2,7.25-6l6.5-49
			c5-32.75,19-54.25,57.75-54.25h34.5C810.125,1768.25,831.875,1795,831.875,1839.5z"/>
		<path class="st1" d="M816.625,1739h-213c-10.5,0-15.25-4.5-15.25-15.25v-100.5c0-62.75,27.5-80.75,67.5-80.75h42
			c39.75,0,67.5,18,67.5,80.75v34.5h51.25c10.5,0,15.25,4.5,15.25,15.25v51C831.875,1734.25,827.375,1739,816.625,1739z
			 M656.625,1658.5h43v-26.25c0-10.25-6.25-12.25-12.75-12.25h-17.5c-6.5,0-12.75,2-12.75,12.25V1658.5z"/>
		<path class="st1" d="M831.875,1447.25v52.25c0,10.5-4.5,15.25-15.25,15.25h-213c-10.5,0-15.25-4.5-15.25-15.25v-52.25
			c0-10.5,4.5-15.25,15.25-15.25h213C827.375,1432,831.875,1436.5,831.875,1447.25z"/>
		<path class="st1" d="M654.125,1394.5c-41.5,0-70.5-19.5-70.5-104.75s29-104.75,70.5-104.75h162.5c10.5,0,15.25,4.5,15.25,15.25
			v51.5c0,10.5-4.5,15.25-15.25,15.25h-149.75c-7.75,0-12.25,5.5-12.25,23.5c0,18.5,4.25,24,12.25,24h149.75
			c10.5,0,15.25,4.25,15.25,15.25v50c0,10.5-4.5,15.25-15.25,15.25h-162.5V1394.5L654.125,1394.5z"/>
		<path class="st1" d="M831.875,913.25v80.25c0,57.75-22.5,84.25-70.5,84.25h-102.25c-48,0-70.5-26.25-70.5-84.25v-80.25
			c0-10.5,4.5-15.25,15.25-15.25h39.75c10.5,0,15.25,4.5,15.25,15.25v66c0,11.25,4,16.75,13.25,16.75h78.25
			c9.25,0,12.5-6,12.5-16.75v-66c0-10.5,4.5-15.25,15.25-15.25h39.25C827.375,898,831.875,902.5,831.875,913.25z"/>
		<path class="st1" d="M816.625,812.5h-52.75c-8.5,49.5-34.25,62.25-67.5,62.25h-92.5c-10.5,0-15.25-4.5-15.25-15.25v-51
			c0-10.5,4.5-15.25,15.25-15.25h79c7.75,0,12.25-5.25,12.25-22.5c0-17.75-4.25-23-12.25-23h-78.75c-10.5,0-15.25-4.5-15.25-15.25
			V682c0-10.5,4.5-15.25,15.25-15.25h92.5c33.25,0,58.75,12.5,67.5,62.25h53c10.5,0,15.25,4.5,15.25,15.25v53
			C831.875,808,827.375,812.5,816.625,812.5z"/>
		<path class="st1" d="M831.875,474.75V555c0,57.75-22.5,84.25-70.5,84.25h-102.25c-48,0-70.5-26.25-70.5-84.25v-80.25
			c0-10.5,4.5-15.25,15.25-15.25h39.75c10.5,0,15.25,4.5,15.25,15.25v66c0,11.25,4,16.75,13.25,16.75h78.25
			c9.25,0,12.5-6,12.5-16.75v-66c0-10.5,4.5-15.25,15.25-15.25h39.25C827.375,459.5,831.875,464.25,831.875,474.75z"/>
		<path class="st1" d="M816.625,429h-213c-10.5,0-15.25-4.5-15.25-15.25v-51c0-10.5,4.5-15.25,15.25-15.25h158V267
			c0-10.5,4.5-15.25,15.25-15.25h39.75c10.5,0,15.25,4.5,15.25,15.25v146.5C831.875,424.25,827.375,429,816.625,429z"/>
		<path class="st1" d="M761.375,232.25h-102.25c-41.75,0-70.5-19-70.5-84.25V64.5c0-10.5,4.5-15.25,15.25-15.25h38.5
			c10.5,0,15.25,4.5,15.25,15.25V137c0,13.75,6,16.75,13.25,16.75h5.5v-63c0-10.5,4.25-15.25,15.25-15.25h35.25
			c10.5,0,15.25,4.5,15.25,15.25V154h9.25c7.5,0,12.5-3.25,12.5-16.75v-72.5c0-10.5,4.5-15.25,15.25-15.25h38.5
			c10.5,0,15.25,4.5,15.25,15.25v83.5C831.875,213.25,802.875,232.25,761.375,232.25z"/>
	</g>
	<path class="st2" d="M828.875,1943.25c0,8.25-3.5,11.75-11.75,11.75h-38.5c-8.25,0-11.75-3.5-11.75-11.75v-88.5
		c0-5.5-4.25-8.5-9.5-8.5c-7.5,0-10.5,3-11.25,8.5l-7,49.5c-4.5,30.75-17.75,51-54.5,51h-34.5c-37.5,0-57.75-25.5-57.75-68v-92
		c0-8.25,3.5-11.75,11.75-11.75h39.25c8.25,0,11.75,3.5,11.75,11.75v76.5c0,5.5,4,8.75,9.75,8.75c5.75,0,9.75-3.25,10.5-8.75l6.5-49
		c4.5-30.75,17.75-51.25,54.5-51.25h34.5c37.5,0,57.75,25.5,57.75,68v103.75H828.875z"/>
	<path class="st2" d="M828.875,1724c0,8.25-3.5,11.75-11.75,11.75h-213c-8.25,0-11.75-3.5-11.75-11.75v-100.5
		c0-59.75,26-77.5,64-77.5h42c38.25,0,64,17.75,64,77.5v37.75h54.5c8.25,0,11.75,3.5,11.75,11.75L828.875,1724L828.875,1724
		L828.875,1724z M703.375,1661.75v-29.5c0-12.75-7.5-15.5-16.25-15.5h-17.5c-8.5,0-16.25,2.5-16.25,15.5v29.5H703.375z"/>
	<path class="st2" d="M828.875,1499.25c0,8.25-3.5,11.75-11.75,11.75h-213c-8.25,0-11.75-3.5-11.75-11.75v-52
		c0-8.25,3.5-11.75,11.75-11.75h213c8.25,0,11.75,3.5,11.75,11.75L828.875,1499.25L828.875,1499.25z"/>
	<path class="st2" d="M587.375,1289.75c0-81.5,27-101.5,67-101.5h162.5c8.25,0,11.75,3.5,11.75,11.75v51.5
		c0,8.25-3.5,11.75-11.75,11.75h-149.75c-8.75,0-15.5,4-15.5,27c0,23.5,6.5,27.25,15.5,27.25h149.75c8.25,0,11.75,3.25,11.75,11.75
		v50c0,8.25-3.5,11.75-11.75,11.75h-162.5C614.375,1391.25,587.375,1371.25,587.375,1289.75z"/>
	<path class="st2" d="M828.875,993.25c0,55.25-21.5,80.75-67,80.75h-102.25c-46,0-67.5-25.5-67.5-80.75V913
		c0-8.25,3.5-11.75,11.75-11.75h39.75c8.25,0,11.75,3.5,11.75,11.75v66c0,13.75,5.25,20,16.5,20h78.5c10.75,0,15.75-6.25,15.75-20
		v-66c0-8.25,3.5-11.75,11.75-11.75h39.25c8.25,0,11.75,3.5,11.75,11.75L828.875,993.25L828.875,993.25z"/>
	<path class="st2" d="M828.875,797.25c0,8.25-3.5,11.75-11.75,11.75h-55.75c-7.75,49-31.75,62.25-64.5,62.25h-92.5
		c-8.25,0-11.75-3.5-11.75-11.75v-51c0-8.25,3.5-11.75,11.75-11.75h78.75c8.75,0,15.5-4,15.5-26c0-22.5-6.5-26.25-15.5-26.25h-78.75
		c-8.25,0-11.75-3.5-11.75-11.75v-50.5c0-8.25,3.5-11.75,11.75-11.75h92.5c32.5,0,56.5,13.25,64.5,62.25h55.75
		c8.25,0,11.75,3.5,11.75,11.75V797.25z"/>
	<path class="st2" d="M828.875,555c0,55.25-21.5,80.75-67,80.75h-102.25c-46,0-67.5-25.5-67.5-80.75v-80.25
		c0-8.25,3.5-11.75,11.75-11.75h39.75c8.25,0,11.75,3.5,11.75,11.75v66c0,13.75,5.25,20,16.5,20h78.5c10.75,0,15.75-6.25,15.75-20
		v-66c0-8.25,3.5-11.75,11.75-11.75h39.25c8.25,0,11.75,3.5,11.75,11.75L828.875,555L828.875,555z"/>
	<path class="st2" d="M604.125,351.25h161.25v-84c0-8.25,3.5-11.75,11.75-11.75h39.75c8.25,0,11.75,3.5,11.75,11.75v146.5
		c0,8.25-3.5,11.75-11.75,11.75h-213c-8.25,0-11.75-3.5-11.75-11.75v-51C592.375,354.75,595.875,351.25,604.125,351.25z"/>
	<path class="st2" d="M828.875,64.5V148c0,62.25-27.25,80.75-67,80.75h-102.25c-40,0-67.5-18.75-67.5-80.75V64.5
		c0-8.25,3.5-11.75,11.75-11.75h38.5c8.25,0,11.75,3.5,11.75,11.75V137c0,17,7.75,20,16.5,20h8.75V90.75
		c0-8.25,3.25-11.75,11.75-11.75h35.25c8.25,0,11.75,3.5,11.75,11.75v66.5h12.5c9.25,0,15.75-3,15.75-20v-72.5
		c0-8.25,3.5-11.75,11.75-11.75h38.5C825.375,52.75,828.875,56.25,828.875,64.5z"/>
	<path class="st3" d="M625.625,1813v73c0,18.5,11.25,30.25,26.5,30.25h27c15.5,0,20-6.5,22-16.75l14.25-69.5
		c2.5-13.25,9.25-22.5,32.25-22.5h19c19.5,0,33.25,14.25,33.25,36.5v81.75h-3.25V1844c0-20.5-12.5-33.25-30-33.25h-19
		c-20.75,0-26.25,7.75-29,20l-14.25,69.5c-2.5,11.5-7.25,19.5-25.5,19.5h-27c-17.5,0-30-13.25-30-33.5v-73L625.625,1813
		L625.625,1813L625.625,1813z"/>
	<path class="st3" d="M735.125,1695.5h64.75v3.25h-177.5v-71c0-41.5,19-49.5,44.5-49.5h24.5c25.5,0,43.75,7.75,43.75,49.5
		L735.125,1695.5L735.125,1695.5z M731.625,1628c0-38.75-16.75-46-40.5-46h-24.5c-23.5,0-41.5,7.25-41.5,46v67.75h106.25V1628
		H731.625z"/>
	<path class="st3" d="M622.375,1471.5h177.5v3.25h-177.5V1471.5z"/>
	<path class="st3" d="M799.875,1227.5h-137c-24.5,0-41,13.5-41,62.5c0,49,16.5,62.75,41,62.75h137v3.25h-137
		c-26.5,0-44.5-14.5-44.5-66c0-51.5,17.75-65.75,44.5-65.75h137V1227.5z"/>
	<path class="st3" d="M799.875,931.25V986c0,42.75-11.75,52.5-42.5,52.5h-92c-31.25,0-43-10.5-43-52.5v-54.75h3.25V986
		c0,38.75,10.5,49.5,39.75,49.5h92c28.5,0,39.25-9.75,39.25-49.5v-54.75H799.875L799.875,931.25z"/>
	<path class="st3" d="M799.875,772.25h-66.5c-0.5,50.25-18,64-44.5,64h-66.75V833h66.75c24.5,0,41-13.5,41-62.5
		s-16.5-62.75-41-62.75h-66.75v-3h66.75c26.5,0,44.5,14.5,44.5,64.5h66.5V772.25z"/>
	<path class="st3" d="M799.875,492.75v54.75c0,42.75-11.75,52.5-42.5,52.5h-92c-31.25,0-43-10.5-43-52.5v-54.75h3.25v54.75
		c0,38.75,10.5,49.5,39.75,49.5h92c28.5,0,39.25-9.75,39.25-49.5v-54.75H799.875L799.875,492.75z"/>
	<path class="st3" d="M622.375,386.5h174.25V285h3.25v104.75h-177.5V386.5z"/>
	<path class="st3" d="M799.875,82.25V142c0,42.75-11.75,52.5-42.5,52.5h-92c-31.25,0-43-10.5-43-52.5V82.25h3.25V142
		c0,38.75,10.5,49.5,39.75,49.5h42.75v-86.25h3.25v86.25h46c28.5,0,39.25-9.75,39.25-49.5V82.25
		C796.625,82.25,799.875,82.25,799.875,82.25z"/>
</g>
<path class="st4" d="M525.375,163.25h-9.5c0-31-25.5-56.5-56.5-56.5c-8-46-52.75-76.5-173.5-76.5s-165.25,30.5-173.5,76.5
	c-31,0-56.5,25.5-56.5,56.5h-9.5c-10,0-14.5,4.5-14.5,14.5v31.5c0,10,4.5,14.5,14.5,14.5h21.75v399V655v370.75V1058v370.75V1461
	v370.75V1864v1.5c0,10,4.5,14.5,14.5,14.5h9.5c0,31,25.5,56.5,56.5,56.5v9.5c0,10,4.5,14.5,14.5,14.5h245c10,0,14.5-4.5,14.5-14.5
	v-9.5c31,0,56.5-25.5,56.5-56.5h9.5c10,0,14.5-4.5,14.5-14.5v-1.5v-32.25V1461v-32.25V1058v-32.25V655v-32.25v-399h21.75
	c10,0,14.5-4.5,14.5-14.5v-31.5C540.125,167.5,535.625,163.25,525.375,163.25z"/>
<path class="st5" d="M408.625,1962.75h-245.25c-11.25,0-16.5-5.5-16.5-16.5v-7.75c-30.5-1-55.5-25.75-56.5-56.5h-7.5
	c-11.25,0-16.5-5.5-16.5-16.5v-1640h-19.75c-11.25,0-16.5-5.5-16.5-16.5v-31.25c0-11.25,5.5-16.5,16.5-16.5h7.75
	c1-31,26-55.75,56.75-56.5c10.25-52.25,65.75-76.5,175-76.5c109,0,164.75,24.5,175,76.5c30.75,0.75,55.5,25.5,56.75,56.5h7.75
	c11.25,0,16.5,5.5,16.5,16.5v31.5c0,11.25-5.5,16.5-16.5,16.5h-19.75v1640c0,11.25-5.5,16.5-16.5,16.5h-7.75
	c-1,30.5-25.75,55.5-56.5,56.5v7.75C425.125,1957.25,419.625,1962.75,408.625,1962.75z M46.625,165.25c-9,0-12.5,3.5-12.5,12.5v31.5
	c0,9,3.5,12.5,12.5,12.5h23.75v1644c0,9,3.5,12.5,12.5,12.5h11.5v2c0,30,24.5,54.5,54.5,54.5h2v11.5c0,9,3.5,12.5,12.5,12.5h245
	c9,0,12.5-3.5,12.5-12.5v-11.5h2c30,0,54.5-24.5,54.5-54.5v-2h11.5c9,0,12.5-3.5,12.5-12.5v-1644h23.75c9,0,12.5-3.5,12.5-12.5
	v-31.5c0-9-3.5-12.5-12.5-12.5h-11.5v-2c0-30-24.5-54.5-54.5-54.5h-1.5l0.25-1.5c-9-51.25-63.5-75-171.5-75s-162.75,23.75-171.75,75
	l-0.25,1.5h-1.5c-30,0-54.5,24.5-54.5,54.5v2H46.625z"/>
<g>
	<path class="st6" d="M179.625,452.75c-10,0-14.25-4.5-14.25-14.25v-46.25c0-10,4.5-14.25,14.25-14.25h123.25
		c6.75,0,10.5-5.25,10.5-11.5c0-9.25-3.5-12.5-10.5-13.5l-76.25-8.5c-37.25-5.5-61.5-21.5-61.5-65.75v-41.5
		c0-45.25,30.5-69.75,82-69.75h131.5c10,0,14.25,4.5,14.25,14.25V229c0,10-4.5,14.25-14.25,14.25h-113
		c-6.75,0-10.75,4.75-10.75,11.75c0,7.25,4,11.75,10.75,12.5l75.75,8c37.25,5.5,61.75,21.5,61.75,65.75v41.5
		c0,45.25-31,69.75-82,69.75L179.625,452.75C179.625,452.5,179.625,452.75,179.625,452.75z"/>
	<path class="st6" d="M284.375,801.25c-97.25,0-120.5-32.5-120.5-81V585c0-48.5,23.5-81.25,120.5-81.25s120.5,33,120.5,81.25v135.25
		C404.875,768.75,381.375,801.25,284.375,801.25z M284.375,724.75c26.5,0,31-8,31-18.5v-106.5c0-10.5-4.5-18.25-31-18.25
		c-26.25,0-30.5,8-30.5,18.25v106.5C253.875,716.75,258.125,724.75,284.375,724.75z"/>
	<path class="st6" d="M237.625,1134h-58.25c-10.5,0-14.25-4.5-14.25-14.25v-104.5c0-27.5,4-33.5,15.5-63.5l30.5-90
		c3.5-10,10-13,20.25-13h102.75c10.5,0,16.25,3.25,19.75,13l34.5,90c11.5,30.25,15.5,36,15.5,63.5v104.5c0,10-4.5,14.25-14.25,14.25
		h-59.75c-10,0-15.5-4.5-15.5-14.25v-55.5h-62.25v55.5C251.875,1129.75,247.375,1134,237.625,1134z M255.875,992.25h54.5
		l-18.5-60.25c-2.5-5.25-3.25-6.75-7.5-6.75h-2c-4.5,0-5.25,1.5-7.5,6.75L255.875,992.25z"/>
	<path class="st6" d="M179.625,1474.75c-10,0-14.25-4.5-14.25-14.25v-257.25c0-10,4.5-14.25,14.25-14.25h131.5
		c72.25,0,93.5,31.5,93.5,77.5v50.75c0,46-21.5,77.5-93.5,77.5h-56v65.75c0,10-4.5,14.25-14.25,14.25H179.625L179.625,1474.75z
		 M254.625,1323.25h46c15.5,0,18.5-9.25,18.5-19.5v-21c0-10.5-3.25-19.5-18.5-19.5h-46V1323.25z"/>
	<path class="st6" d="M179.625,1806.5c-10,0-14.25-4.5-14.25-14.25v-46.5c0-10,4.5-14.25,14.25-14.25h123.25
		c6.75,0,10.5-5.25,10.5-11.5c0-9.25-3.5-12.5-10.5-13.5l-76.25-8.5c-37.25-5.5-61.5-21.5-61.5-65.75v-41.5
		c0-45.25,30.5-69.75,82-69.75h131.5c10,0,14.25,4.5,14.25,14.25v47.25c0,10-4.5,14.25-14.25,14.25h-113
		c-6.75,0-10.75,4.75-10.75,11.75c0,7.25,4,11.75,10.75,12.5l75.75,8c37.25,5.5,61.75,21.5,61.75,65.75v41.5
		c0,45.25-31,69.75-82,69.75L179.625,1806.5C179.625,1806.25,179.625,1806.5,179.625,1806.5z"/>
</g>
<g>
	<path class="st5" d="M357.375,206.75h-108.5c-22.5,0-36.5,12.25-36.5,32.25v36.5c0,15.75,10.75,26.5,28.25,28.25l84.5,8.5
		c23.75,2.5,35.25,14.5,35.25,36v33c0,22.25-17,36-44,36h-115.5v-4h115.5c24.5,0,40-12.25,40-32.25v-33c0-19-10.5-30.25-32.25-32.25
		l-84.5-8.5c-19.5-2-31.5-14.25-31.5-32.25v-36.5c0-22.25,15.5-36,40.5-36h108.75L357.375,206.75L357.375,206.75z"/>
	<path class="st5" d="M283.875,764.75c-60.25,0-77-21.5-77-53.5v-117c0-32.25,16.5-53.5,77-53.5c60.25,0,78.25,21.5,78.25,53.5v117
		C361.875,743.25,343.875,764.75,283.875,764.75z M283.875,761c57.25,0,74.25-19.75,74.25-49.5v-117c0-29.75-17-49.5-74.25-49.5
		s-73,19.75-73,49.5v117C210.875,741,226.625,761,283.875,761z"/>
	<path class="st5" d="M356.625,1030.25h-146.5v68.25h-4V1014c0-14.5,2.5-27,6.75-38.5l25.5-65c6-14.5,10.75-26.25,29-26.25h30.5
		c17.5,0,22.25,11.25,28.5,26.5l27.5,64.5c4.5,11.5,6.75,23.75,6.75,38.5v84.5h-4L356.625,1030.25L356.625,1030.25L356.625,1030.25z
		 M210.375,1026.25h146.5V1014c0-14.25-2.5-26.25-6.5-36.75l-27.5-64.5c-6-13.75-10.5-24.25-25-24.25h-30.5
		c-15.75,0-20.25,10.5-25.5,23.75l-25.5,65c-4,10.75-6.5,22.5-6.5,36.75L210.375,1026.25L210.375,1026.25z"/>
	<path class="st5" d="M212.375,1361v78.25h-4V1225h96c50,0,59.5,23,59.5,54v29.5c0,31-9.5,52.75-59.5,52.75L212.375,1361
		L212.375,1361z M304.375,1357c46.75,0,55.5-20.25,55.5-48.75v-29.5c0-28.5-8.75-50-55.5-50h-92v128L304.375,1357L304.375,1357z"/>
	<path class="st5" d="M357.375,1560.75h-108.5c-22.5,0-36.5,12.25-36.5,32.25v36.5c0,15.75,10.75,26.5,28.25,28.25l84.5,8.5
		c23.75,2.5,35.25,14.5,35.25,36v33c0,22.25-17,36-44,36h-115.5v-4h115.5c24.5,0,40-12.25,40-32.25v-33c0-19-10.5-30.25-32.25-32.25
		l-84.5-8.5c-19.5-2-31.5-14.25-31.5-32.25v-36.5c0-22.25,15.5-36,40.5-36h108.75L357.375,1560.75L357.375,1560.75z"/>
</g>
<g>
	<g>
		<g>
			<path class="st7" d="M1035.875,35.75c68.75,0,117.25,48.5,117.25,117.25s-48.5,117.25-117.25,117.25
				c-68.75,0-117.25-48.5-117.25-117.25S967.125,35.75,1035.875,35.75z"/>
			<path class="st8" d="M1035.875,278.75c68.75,0,117.25,48.5,117.25,117.25s-48.5,117.25-117.25,117.25
				c-68.75,0-117.25-48.5-117.25-117.25S967.125,278.75,1035.875,278.75z"/>
			<path class="st7" d="M1035.875,521.75c68.75,0,117.25,48.5,117.25,117.25s-48.5,117.25-117.25,117.25
				c-68.75,0-117.25-48.5-117.25-117.25S967.125,521.75,1035.875,521.75z"/>
			<path class="st8" d="M1035.875,764.75c68.75,0,117.25,48.5,117.25,117.25s-48.5,117.25-117.25,117.25
				c-68.75,0-117.25-48.5-117.25-117.25S967.125,764.75,1035.875,764.75z"/>
			<path class="st7" d="M1035.875,1007.75c68.75,0,117.25,48.5,117.25,117.25s-48.5,117.25-117.25,117.25
				s-117.25-48.5-117.25-117.25S967.125,1007.75,1035.875,1007.75z"/>
			<path class="st8" d="M1035.875,1250.75c68.75,0,117.25,48.5,117.25,117.25s-48.5,117.25-117.25,117.25
				c-68.75,0-117.25-48.5-117.25-117.25C918.625,1299.25,967.125,1250.75,1035.875,1250.75z"/>
			<path class="st7" d="M1035.875,1493.75c68.75,0,117.25,48.5,117.25,117.25s-48.5,117.25-117.25,117.25
				c-68.75,0-117.25-48.5-117.25-117.25S967.125,1493.75,1035.875,1493.75z"/>
			<path class="st8" d="M1035.875,1736.75c68.75,0,117.25,48.5,117.25,117.25s-48.5,117.25-117.25,117.25
				c-68.75,0-117.25-48.5-117.25-117.25S967.125,1736.75,1035.875,1736.75z"/>
		</g>
	</g>
	<g>
		<path class="st1" d="M989.375,217c-4.5,0-6.5-2-6.5-6.5V96.25c0-4.5,2-6.5,6.5-6.5h58.5c32.25,0,41.5,14,41.5,34.5v22.5
			c0,20.5-9.5,34.5-41.5,34.5h-25v29.5c0,4.5-2,6.5-6.5,6.5C1016.375,217,989.375,217,989.375,217z M1071.375,142.75v-13
			c0-13.75-4.25-24-26.5-24h-42.75v95.5h1.75v-35h41C1067.125,166.25,1071.375,156.5,1071.375,142.75z M1003.875,107.5h41
			c20.75,0,24.75,9.5,24.75,22.25v13c0,12.75-3.75,21.75-24.75,21.75h-41L1003.875,107.5L1003.875,107.5z M1022.625,149.5h20.5
			c6.75,0,8.5-4,8.5-8.5v-9.5c0-4.5-1.5-8.5-8.5-8.5h-20.5V149.5L1022.625,149.5z"/>
		<path class="st1" d="M1035.875,458.25c-43.25,0-53.5-14.5-53.5-36V362c0-21.5,10.5-36.25,53.5-36.25c43.25,0,53.5,14.5,53.5,36.25
			v60.25C1089.625,443.5,1079.125,458.25,1035.875,458.25z M1070.375,366c0-14.5-8-23.75-34.75-23.75s-34.25,9.5-34.25,23.75v52.25
			c0,14.5,7.5,23.75,34.25,23.75s34.75-9.5,34.75-23.75V366z M1003.375,366c0-13.25,7-22,32.5-22c25.5,0,33,8.75,33,22v52.25
			c0,13.25-7.5,22-33,22c-25.5,0-32.5-8.75-32.5-22V366z M1035.875,424c11.75,0,13.75-3.5,13.75-8.5V368c0-4.5-2-8.25-13.75-8.25
			c-11.5,0-13.5,3.5-13.5,8.25v47.5C1022.375,420.5,1024.375,424,1035.875,424z"/>
		<path class="st1" d="M1035.875,701.25c-43.25,0-53.5-14.5-53.5-36V605c0-21.5,10.5-36.25,53.5-36.25c43.25,0,53.5,14.5,53.5,36.25
			v60.25C1089.625,687,1079.125,701.25,1035.875,701.25z M1070.375,609.25c0-14.5-8-23.75-34.75-23.75s-34.25,9.5-34.25,23.75v52.25
			c0,14.5,7.5,23.75,34.25,23.75s34.75-9.5,34.75-23.75V609.25z M1003.375,609.25c0-13.25,7-22,32.5-22c25.5,0,33,8.75,33,22v52.25
			c0,13.25-7.5,22-33,22c-25.5,0-32.5-8.75-32.5-22V609.25z M1035.875,667.25c11.75,0,13.75-3.5,13.75-8.5v-47.5
			c0-4.5-2-8.25-13.75-8.25c-11.5,0-13.5,3.5-13.5,8.25v47.5C1022.375,663.75,1024.375,667.25,1035.875,667.25z"/>
		<path class="st1" d="M989.375,937.25c-4.5,0-6.5-2-6.5-6.5v-114.5c0-4.5,2-6.5,6.5-6.5h27.5c4.5,0,6.5,2,6.5,6.5v87.5h27.5v-28.5
			c0-4.5,2-6.5,6.5-6.5h25.5c4.5,0,6.5,2,6.5,6.5v55.5c0,4.5-2,6.5-6.5,6.5L989.375,937.25L989.375,937.25z M1070.625,921.25v-36.5
			h-1.75v34.75h-64.75V826h-1.75v95.5L1070.625,921.25L1070.625,921.25z"/>
		<path class="st1" d="M989.375,1181.75c-4.5,0-6.5-2-6.5-6.5v-20.5c0-4.5,2-6.5,6.5-6.5h55c3,0,4.5-2.25,4.5-5.25
			c0-4-1.5-5.5-4.5-6l-34-3.75c-16.5-2.5-27.5-9.5-27.5-29.5v-18.5c0-20.25,13.5-31,36.5-31h58.5c4.5,0,6.5,2,6.5,6.5v21
			c0,4.5-2,6.5-6.5,6.5h-50.5c-3,0-4.75,2.25-4.75,5.25c0,3.25,1.75,5.25,4.75,5.5l33.75,3.5c16.5,2.5,27.5,9.5,27.5,29.5v18.5
			c0,20.25-13.75,31-36.5,31L989.375,1181.75L989.375,1181.75L989.375,1181.75z M1020.125,1070.5c-11.25,0-18,6.25-18,16v16.25
			c0,8,5.25,13.5,14,14.5l37.5,3.75c9.75,0.75,14.5,5.75,14.5,14.5v14.5c0,8.75-6.75,14.5-17.75,14.5h-51.5v1.75h51.5
			c12,0,19.5-6.25,19.5-16v-15c0-9.5-5.25-15-15.75-16l-37.5-3.75c-7.75-0.75-12.5-5.5-12.5-12.5v-16.25
			c0-8.75,6.25-14.5,16.25-14.5h48.5v-1.75L1020.125,1070.5L1020.125,1070.5L1020.125,1070.5z"/>
		<path class="st1" d="M984.375,1420.25v-21c0-4.5,2-6.5,6.5-6.5h23.5v-59.5h-23.5c-4.5,0-6.5-2-6.5-6.5v-21.5c0-4.5,2-6.5,6.5-6.5
			h90c4.5,0,6.5,2,6.5,6.5v21.5c0,4.5-2,6.5-6.5,6.5h-23.5v59.5h23.5c4.5,0,6.5,2,6.5,6.5v21c0,4.5-2,6.5-6.5,6.5h-90
			C986.375,1426.5,984.375,1424.5,984.375,1420.25z M1071.375,1408.75h-34.5V1317h34.5v-1.75h-71v1.75h34.5v91.75h-34.5v1.75h71
			V1408.75z"/>
		<path class="st1" d="M989.375,1671.25c-4.5,0-6.5-2-6.5-6.5v-114.5c0-4.5,2-6.5,6.5-6.5h57c33.5,0,43.5,14.5,43.5,36V1635
			c0,21.5-10,36-43.5,36h-57V1671.25z M1042.375,1655.25c24.5,0,28.25-10.5,28.25-24v-46.75c0-13.5-4.25-24.5-28.25-24.5h-40.25
			v95.5h40.25V1655.25z M1068.875,1584.25V1631c0,12.75-3.75,22.25-26.5,22.25h-38.5v-91.75h38.5
			C1064.625,1561.5,1068.875,1571.5,1068.875,1584.25z M1023.125,1637.75h18.5c7,0,8.5-3.75,8.5-8.5v-43c0-4.5-1.25-8.5-8.5-8.5
			h-18.5V1637.75L1023.125,1637.75z"/>
		<path class="st1" d="M989.375,1915.75c-4.5,0-6.5-2-6.5-6.5v-114.5c0-4.5,2-6.5,6.5-6.5h91.5c4.5,0,6.5,2,6.5,6.5v20.5
			c0,4.5-2,6.5-6.5,6.5h-58.25v13.5h44c4.5,0,6.5,1.75,6.5,6.5v19c0,4.5-2,6.5-6.5,6.5h-44v15.25h58.25c4.5,0,6.5,2,6.5,6.5v20.5
			c0,4.5-2,6.5-6.5,6.5L989.375,1915.75L989.375,1915.75z M1003.625,1898.25v-46h53.5v-1.75h-53.5V1806h67.5v-1.75h-69.5v95.5h69.5
			V1898L1003.625,1898.25L1003.625,1898.25L1003.625,1898.25z"/>
	</g>
</g>
<g>
	<path class="st9" d="M1519.875,88c-1.75-38.25-31.75-63.5-142.5-63.5c-111,0-140.75,25.25-142.5,63.5l0,0v4v17.25v243v21.25v243.25
		V638v244v20.25v220.5V1142v220.25v20.25v244v21v243.25V1908v4l0,0c1.75,38.25,31.75,63.5,142.5,63.5c111,0,140.75-25.25,142.5-63.5
		l0,0v-4v-17.25v-243.5V1626v-244v-20.25V1141.5v-19.25v-220.5V881.5v-244v-21.25V373v-20.75v-243V92V88L1519.875,88z"/>
	<g>
		<path class="st10" d="M1449.125,308.25h-89c-56.25,0-72.75-25-72.75-60.75v-88.25c0-36,16.5-61,72.75-61h89c9,0,13,4,13,13v34.5
			c0,9-4,13-13,13h-76.75c-12,0-14.5,5.25-14.5,11.5v67.5c0,6.5,2.75,10.75,14.5,10.75h76.75c9,0,13,4,13,13v33.75
			C1462.125,304.25,1458.375,308.25,1449.125,308.25z"/>
		<path class="st10" d="M1465.875,497.25c0,35.75-16.25,60.75-89.25,60.75s-89.25-25-89.25-60.75V400.5c0-35.75,16.25-61,89.25-61
			s89.25,25.25,89.25,61V497.25z M1357.625,487.25c0,6.5,4.25,10.5,19,10.5c15,0,19.5-3.5,19.5-10.5v-76.5
			c0-6.5-4.5-10.25-19.5-10.25c-14.75,0-19,3.5-19,10.25V487.25z"/>
		<path class="st10" d="M1291.125,788.5v-33.75c0-9,4-13,13-13h35.25V652h-35.25c-9,0-13-4-13-13v-34.5c0-9,4-13,13-13h145
			c9,0,13,4,13,13V639c0,9-4,13-13,13h-35.25v89.75h35.25c9,0,13,4,13,13v33.75c0,9-4,13-13,13h-145
			C1295.125,801.5,1291.125,797.5,1291.125,788.5z"/>
		<path class="st10" d="M1301.625,1048c-9,0-13-4-13-13V850.75c0-9,4-13,13-13h29.5c8.25,0,13.5,2.25,19,8.75l46,56.75v-52.5
			c0-9,4-13,13-13h42.5c9,0,13,4,13,13V1035c0,9-4,13-13,13h-42.5c-9,0-13-4-13-13v-34l-38.75-51.25V1035c0,9-4,13-13,13
			L1301.625,1048L1301.625,1048z"/>
		<path class="st10" d="M1344.875,1085.75c0-9,3.5-13,13-13h38c9,0,13,4,13,13V1162c0,9-3.5,13-13,13h-38c-9.5,0-13-4-13-13V1085.75
			z"/>
		<path class="st10" d="M1465.875,1354.75c0,35.75-16.25,60.75-89.25,60.75s-89.25-25-89.25-60.75V1258c0-35.75,16.25-61,89.25-61
			s89.25,25.25,89.25,61V1354.75z M1357.625,1344.5c0,6.5,4.25,10.5,19,10.5c15,0,19.5-3.5,19.5-10.5V1268
			c0-6.5-4.5-10.25-19.5-10.25c-14.75,0-19,3.5-19,10.25V1344.5z"/>
		<path class="st10" d="M1288.375,1643.75V1459.5c0-9,4-13,13-13h94.5c54.25,0,69.75,23.75,69.75,58.25v36.5
			c0,34.5-15.5,58.25-69.75,58.25h-37.25v44.5c0,9-4,13-13,13h-44C1292.375,1656.75,1288.375,1652.75,1288.375,1643.75z
			 M1358.125,1505.25v37.25h30.25c8.75,0,10.5-5.5,10.5-11v-15c0-5.5-1.75-11-10.5-11L1358.125,1505.25L1358.125,1505.25z"/>
		<path class="st10" d="M1403.375,1894.5h-101.75c-9,0-13-4-13-13v-33.25c0-9,4-13,13-13h88.5c3.25,0,4.5-2.5,4.5-5.5
			c0-4.25-1.5-6.5-4.75-6.75l-54.5-6c-28.5-4.25-46.5-16.5-46.5-50v-30c0-34,22.75-52.75,61.5-52.75h94.5c9,0,13,4,13,13V1731
			c0,9-4,13-13,13h-81c-3.25,0-4.75,2.5-4.75,5.5c0,3.5,1.75,6,5.25,6.25l54.25,5.5c28.5,4.25,46.75,16.5,46.75,50V1841
			C1465.125,1876,1442.125,1894.5,1403.375,1894.5z"/>
		<path class="st1" d="M1359.875,305.5c-53.5,0-69.75-23.5-69.75-58v-88.25c0-34.5,16.25-58.25,69.75-58.25h89
			c7.25,0,10.25,3.25,10.25,10.25v34.5c0,7.25-3.25,10.25-10.25,10.25h-76.75c-14.75,0-17.5,6.75-17.5,14.25v67.5
			c0,8,2.5,13.5,17.5,13.5h76.75c7.25,0,10.25,3.25,10.25,10.25v33.75c0,7.25-3.25,10.25-10.25,10.25L1359.875,305.5L1359.875,305.5
			z"/>
		<path class="st1" d="M1376.375,555.25c-69.5,0-86.5-23.25-86.5-58V400.5c0-34.5,16.75-58.25,86.5-58.25
			c69.75,0,86.5,23.5,86.5,58.25v96.75C1462.875,532,1446.125,555.25,1376.375,555.25z M1376.375,500.25c19,0,22.25-5.5,22.25-13.5
			v-76.5c0-7.5-3.25-13-22.25-13c-18.75,0-21.75,5.5-21.75,13v77C1354.375,494.75,1357.625,500.25,1376.375,500.25z"/>
		<path class="st1" d="M1293.625,788.5v-33.75c0-7.25,3.25-10.25,10.25-10.25h38V649h-38c-7.25,0-10.25-3.25-10.25-10.25v-34.5
			c0-7.25,3.25-10.25,10.25-10.25h145c7.25,0,10.25,3.25,10.25,10.25v34.5c0,7.25-3.25,10.25-10.25,10.25h-38v95.5h38
			c7.25,0,10.25,3.25,10.25,10.25v33.75c0,7.25-3.25,10.25-10.25,10.25h-145C1296.875,798.75,1293.625,795.5,1293.625,788.5z"/>
		<path class="st1" d="M1301.375,1045.25c-7.25,0-10.25-3.25-10.25-10.25V850.75c0-7.25,3.25-10.25,10.25-10.25h29.5
			c7.5,0,12,2,16.75,7.5l51.25,63v-60.5c0-7.25,3.25-10.25,10.25-10.25h42.5c7.25,0,10.25,3.25,10.25,10.25v184.25
			c0,7.25-3.25,10.25-10.25,10.25h-42.5c-7.25,0-10.25-3.25-10.25-10.25v-35l-44.5-58.75v93.75c0,7.25-3.25,10.25-10.25,10.25
			L1301.375,1045.25L1301.375,1045.25z"/>
		<path class="st1" d="M1357.625,1075.5h38c7.25,0,10.25,3.25,10.25,10.25V1162c0,7.25-2.75,10.25-10.25,10.25h-38
			c-7.5,0-10.25-3.25-10.25-10.25v-76.25C1347.375,1078.5,1350.375,1075.5,1357.625,1075.5z"/>
		<path class="st1" d="M1376.375,1412.75c-69.5,0-86.5-23.25-86.5-58V1258c0-34.5,16.75-58.25,86.5-58.25
			c69.75,0,86.5,23.5,86.5,58.25v96.75C1462.875,1389.5,1446.125,1412.75,1376.375,1412.75z M1376.375,1358
			c19,0,22.25-5.5,22.25-13.5V1268c0-7.5-3.25-13-22.25-13c-18.75,0-21.75,5.5-21.75,13v76.5
			C1354.375,1352.25,1357.625,1358,1376.375,1358z"/>
		<path class="st1" d="M1301.375,1654c-7.25,0-10.25-3.25-10.25-10.25V1459.5c0-7.25,3.25-10.25,10.25-10.25h94.5
			c51.75,0,67,22.5,67,55.5v36.5c0,33-15.5,55.5-67,55.5h-40V1644c0,7.25-3.25,10.25-10.25,10.25h-44.25V1654z M1355.125,1545.25h33
			c11,0,13.5-6.5,13.5-14v-15c0-7.5-2.25-14-13.5-14h-33V1545.25z"/>
		<path class="st1" d="M1301.375,1891.75c-7.25,0-10.25-3.25-10.25-10.25v-33.25c0-7.25,3.25-10.25,10.25-10.25h88.5
			c4.75,0,7.5-3.5,7.5-8.25c0-6.5-2.5-9-7.5-9.5l-54.5-6c-26.75-4-44-15.5-44-47.25v-30c0-32.5,21.75-50,58.75-50h94.5
			c7.25,0,10.25,3.25,10.25,10.25V1731c0,7.25-3.25,10.25-10.25,10.25h-81c-4.75,0-7.5,3.5-7.5,8.5c0,5.25,2.75,8.5,7.5,9l54.25,5.5
			c26.75,4,44.5,15.5,44.5,47.25v29.75c0,32.5-22.25,50-58.75,50L1301.375,1891.75L1301.375,1891.75z"/>
		<path class="st10" d="M1433.375,280h-67c-37,0-45.5-10.25-45.5-36.5v-79.75c0-27,9-37.25,45.5-37.25h67v2.75h-67
			c-33.5,0-42.5,9-42.5,34.5v79.5c0,24.75,8.5,33.75,42.5,33.75h67V280z"/>
		<path class="st10" d="M1376.125,529.25c-43.25,0-55.25-15.5-55.25-38.5V407c0-23,12-38.5,55.25-38.5s56,15.5,56,38.5v83.75
			C1431.875,513.75,1419.125,529.25,1376.125,529.25z M1376.125,526.25c41,0,53.25-14.25,53.25-35.5V407
			c0-21.5-12.25-35.5-53.25-35.5c-41,0-52.25,14.25-52.25,35.5v83.75C1323.625,512.25,1335.125,526.25,1376.125,526.25z"/>
		<path class="st10" d="M1319.125,773.25v-2.75h55.5V622.75h-55.5v-3h114.25v2.75h-55.5v147.75h55.5V773L1319.125,773.25
			L1319.125,773.25z"/>
		<path class="st10" d="M1328.875,868.25l100,117.5V866h2.75v153.5h-2.75v-29.25l-102.75-120.5c-0.5-0.5-0.75-0.75-1.5-0.75
			c-0.75,0-0.5,0.5-0.5,0.75v150h-2.75v-150.5c0-2.25,1.75-3.5,3.5-3.5C1326.375,865.75,1326.875,866.25,1328.875,868.25z"/>
		<path class="st10" d="M1375.125,1146.5V1101h2.75v45.5H1375.125z"/>
		<path class="st10" d="M1376.125,1386.5c-43.25,0-55.25-15.5-55.25-38.5v-83.75c0-23,12-38.5,55.25-38.5s56,15.5,56,38.5V1348
			C1431.875,1371.25,1419.125,1386.5,1376.125,1386.5z M1376.125,1383.75c41,0,53.25-14.25,53.25-35.5v-83.75
			c0-21.5-12.25-35.5-53.25-35.5c-41,0-52.25,14.25-52.25,35.5v83.75C1323.625,1369.5,1335.125,1383.75,1376.125,1383.75z"/>
		<path class="st10" d="M1324.875,1572.25v56h-2.75v-153.5h68.75c35.75,0,42.5,16.5,42.5,38.5v21c0,22.25-6.75,37.75-42.5,37.75h-66
			V1572.25z M1390.625,1569.5c33.5,0,39.75-14.5,39.75-35v-21c0-20.5-6.25-35.75-39.75-35.75h-66v91.75H1390.625z"/>
		<path class="st10" d="M1428.875,1715.5h-77.75c-16.25,0-26.25,8.75-26.25,23v26.25c0,11.5,7.5,19,20.25,20.25l60.5,6
			c17,1.75,25.25,10.5,25.25,25.75v23.5c0,16-12.25,25.75-31.5,25.75h-82.5v-2.75h82.5c17.5,0,28.5-8.75,28.5-23v-23.5
			c0-13.5-7.5-21.5-23-23l-60.5-6c-14-1.5-22.5-10.25-22.5-23v-26.25c0-16,11-25.75,29-25.75h77.75L1428.875,1715.5L1428.875,1715.5
			z"/>
	</g>
</g>
</svg>
