<?xml version="1.0" encoding="utf-8"?>
<!-- Generator: Adobe Illustrator 17.1.0, SVG Export Plug-In . SVG Version: 6.00 Build 0)  -->
<!DOCTYPE svg PUBLIC "-//W3C//DTD SVG 1.1//EN" "http://www.w3.org/Graphics/SVG/1.1/DTD/svg11.dtd">
<svg version="1.1" id="Layer_1" xmlns="http://www.w3.org/2000/svg" xmlns:xlink="http://www.w3.org/1999/xlink" x="0px" y="0px"
	 viewBox="-0.8 15.6 615 596.6" enable-background="new -0.8 15.6 615 596.6" xml:space="preserve">
<path fill="#26839C" d="M365.3,433.3c-3.1-3.2-6.3-2.3-6.3,0.8v10.8h-3.7c-3.6,0-4.8-1.8-4.8-5.8v-4.6v-55.6v-6.3v-72.2v-6.3V222
	v-6.3v-54.4v-24.1v-27.3c0-2-1.3-3.4-4.4-2.2l-37.9,15.1L270,107.7c-2.8-1.1-4,0.4-4,2.3v27.3v24.1v54.4v6.3v72.2v6.3v72.2v6.3v55.6
	v22.8v0.6c0,34.6,19.4,57.6,62.7,57.6h30.5v12c0,3.2,3.3,4,6.3,0.8l40.4-43c3-3.2,3.4-5.8,0-9.4L365.3,433.3z"/>
<path fill="#26839C" d="M131.8,63.3h-12v-11c0-2.1-0.9-2.8-2.8-2.8H37.9c-2,0-2.8,0.8-2.8,2.8v11H23c-2,0-2.8,0.8-2.8,2.8v37.3
	c0,2.1,0.9,2.8,2.8,2.8c8.2,0,12,4.4,12,12v3.4v45.3v6.3v72.2v6.3v107v6.3v46v58.6V494v1.7v3.3c0,12,8.4,20,42.3,20
	c34.1,0,42.3-8,42.3-20v-3.3V494v-24.4V411v-46v-6.3v-107v-6.3v-72.2v-6.3v-45.3v-2.8c0-7.9,3.9-12.6,12-12.6c2,0,2.8-0.8,2.8-2.8
	V66.1C134.7,64,133.8,63.3,131.8,63.3z"/>
<g>
	<path fill="#FFFFFF" d="M60.6,164.1c-1.6,0-2.2-0.7-2.2-2.2v-41.2c0-1.6,0.7-2.3,2.2-2.3h9.9c1.6,0,2.2,0.7,2.2,2.3v13.8H82v-13.8
		c0-1.6,0.7-2.3,2.2-2.3h9.9c1.6,0,2.2,0.7,2.2,2.3v41.2c0,1.6-0.7,2.2-2.2,2.2h-9.9c-1.6,0-2.2-0.7-2.2-2.2v-14.1h-9.3v14.1
		c0,1.6-0.7,2.2-2.2,2.2H60.6z"/>
	<path fill="#FFFFFF" d="M70,218.2h-9.3c-1.6,0-2.2-0.8-2.2-2.3v-31.5c0-7.7,3.2-12.9,19.1-12.9s19.1,5.3,19.1,12.9v31.5
		c0,1.6-0.7,2.3-2.2,2.3h-9.8c-1.6,0-2.2-0.8-2.2-2.3v-9.4H72.2v9.4C72.2,217.5,71.5,218.2,70,218.2z M72.2,194.8h10v-8.2
		c0-1.7-0.5-3-4.9-3c-4.5,0-5,1.3-5,3V194.8z"/>
	<path fill="#FFFFFF" d="M77.3,270.1c-1.8,2.1-4.8,3.1-9.5,3.1c-9.6,0-12.7-5.2-12.7-12.9v-31.5c0-1.6,0.7-2.3,2.2-2.3h7.5
		c1.6,0,2.2,0.7,2.2,2.3v29.5c0,1.7,0.4,2.5,2.1,2.5c1.6,0,2.1-0.8,2.1-2.5v-29.5c0-1.6,0.7-2.3,2.2-2.3h7.5c1.6,0,2.2,0.7,2.2,2.3
		v29.5c0,1.7,0.4,2.5,2.1,2.5c1.6,0,2.1-0.8,2.1-2.5v-29.5c0-1.6,0.6-2.3,2.2-2.3H97c1.6,0,2.2,0.7,2.2,2.3v31.5
		c0,7.7-3.1,12.9-12.7,12.9C82.1,273.3,79.1,272.1,77.3,270.1z"/>
	<path fill="#FFFFFF" d="M70,326.4h-9.3c-1.6,0-2.2-0.8-2.2-2.3v-31.5c0-7.7,3.2-12.9,19.1-12.9s19.1,5.3,19.1,12.9v31.5
		c0,1.6-0.7,2.3-2.2,2.3h-9.8c-1.6,0-2.2-0.8-2.2-2.3v-9.4H72.2v9.4C72.2,325.6,71.5,326.4,70,326.4z M72.2,303h10v-8.2
		c0-1.7-0.5-3-4.9-3c-4.5,0-5,1.3-5,3V303z"/>
	<path fill="#FFFFFF" d="M72.7,378.2c0,1.6-0.7,2.2-2.2,2.2h-9.9c-1.6,0-2.2-0.7-2.2-2.2v-41.2c0-1.6,0.7-2.3,2.2-2.3h9.9
		c1.6,0,2.2,0.7,2.2,2.3V378.2z M82,336.9c0-1.6,0.7-2.3,2.2-2.3h9.9c1.6,0,2.2,0.7,2.2,2.3v41.2c0,1.6-0.7,2.2-2.2,2.2h-9.9
		c-1.6,0-2.2-0.7-2.2-2.2V336.9z"/>
	<path fill="#FFFFFF" d="M70,434.5h-9.3c-1.6,0-2.2-0.8-2.2-2.3v-31.5c0-7.7,3.2-12.9,19.1-12.9s19.1,5.3,19.1,12.9v31.5
		c0,1.6-0.7,2.3-2.2,2.3h-9.8c-1.6,0-2.2-0.8-2.2-2.3v-9.4H72.2v9.4C72.2,433.8,71.5,434.5,70,434.5z M72.2,411.1h10v-8.2
		c0-1.7-0.5-3-4.9-3c-4.5,0-5,1.3-5,3V411.1z"/>
	<path fill="#FFFFFF" d="M77.3,441.8c15.8,0,19.1,5.2,19.1,12.9v31.5c0,1.6-0.7,2.3-2.2,2.3h-10c-1.6,0-2.2-0.8-2.2-2.3v-29
		c0-1.7-0.7-3-4.7-3c-4,0-4.7,1.3-4.7,3v29c0,1.6-0.6,2.3-2.2,2.3h-9.7c-1.6,0-2.2-0.8-2.2-2.3v-31.5
		C58.3,447,61.6,441.8,77.3,441.8z"/>
</g>
<g>
	<g>
		<path fill="#265560" d="M195.1,184.7c22.3,0,38,15.6,38,38c0,22.3-15.6,38-38,38s-38-15.6-38-38
			C157.1,200.3,172.9,184.7,195.1,184.7z"/>
		<path fill="#265560" d="M195.1,263.3c22.3,0,38,15.6,38,38c0,22.3-15.6,38-38,38s-38-15.6-38-38
			C157.1,279,172.9,263.3,195.1,263.3z"/>
		<path fill="#265560" d="M195.1,341.9c22.3,0,38,15.6,38,38c0,22.3-15.6,38-38,38s-38-15.6-38-38S172.9,341.9,195.1,341.9z"/>
		<path fill="#265560" d="M195.1,420.5c22.3,0,38,15.6,38,38c0,22.3-15.6,38-38,38s-38-15.6-38-38
			C157.1,436.1,172.9,420.5,195.1,420.5z"/>
		<path fill="#265560" d="M195.1,499c22.3,0,38,15.6,38,38c0,22.3-15.6,38-38,38s-38-15.6-38-38C157.1,514.8,172.9,499,195.1,499z"
			/>
	</g>
	<g>
		<path fill="#FFFFFF" d="M179.7,244.1c-1.4,0-2.2-0.6-2.2-2.2V204c0-1.4,0.6-2.2,2.2-2.2h19c11.1,0,14.5,4.9,14.5,12v18.3
			c0,7.1-3.3,12-14.5,12C198.7,244.1,179.7,244.1,179.7,244.1z M190.8,233.1h6.2c2.3,0,2.8-1.3,2.8-2.9v-14.3c0-1.5-0.4-2.8-2.8-2.8
			h-6.2V233.1z"/>
	</g>
	<g>
		<path fill="#FFFFFF" d="M178.1,319.8v-7c0-1.4,0.6-2.2,2.2-2.2h7.8v-19.7h-7.8c-1.4,0-2.2-0.6-2.2-2.1v-7.1c0-1.4,0.6-2.2,2.2-2.2
			h29.9c1.4,0,2.2,0.6,2.2,2.2v7.1c0,1.4-0.6,2.1-2.2,2.1h-7.8v19.7h7.8c1.4,0,2.2,0.6,2.2,2.2v7c0,1.4-0.6,2.2-2.2,2.2h-29.9
			C178.7,321.9,178.1,321.3,178.1,319.8z"/>
	</g>
	<g>
		<path fill="#FFFFFF" d="M179.7,401.4c-1.4,0-2.2-0.6-2.2-2.2v-38c0-1.4,0.6-2.2,2.2-2.2h6.1c1.5,0,2.4,0.4,3.5,1.6l10.6,13v-12.5
			c0-1.4,0.6-2.2,2.1-2.2h8.8c1.4,0,2.2,0.6,2.2,2.2v38c0,1.4-0.6,2.2-2.2,2.2H202c-1.4,0-2.1-0.6-2.1-2.2V392l-9.3-12.1v19.3
			c0,1.4-0.6,2.2-2.1,2.2H179.7z"/>
	</g>
	<g>
		<path fill="#FFFFFF" d="M179.7,478.7c-1.4,0-2.2-0.6-2.2-2.2v-38c0-1.4,0.6-2.2,2.2-2.2h30.4c1.4,0,2.2,0.6,2.2,2.2v6.8
			c0,1.4-0.6,2.2-2.2,2.2h-19.1v4.5h14.5c1.4,0,2.1,0.6,2.1,2.1v6.3c0,1.4-0.6,2.2-2.1,2.2h-14.5v5h19.1c1.4,0,2.2,0.6,2.2,2.2v6.8
			c0,1.4-0.6,2.2-2.2,2.2H179.7z"/>
	</g>
	<g>
		<path fill="#FFFFFF" d="M179.7,557.6c-1.4,0-2.2-0.6-2.2-2.2v-38c0-1.4,0.6-2.2,2.2-2.2h18.9c8.8,0,11.6,4,11.6,9.8v2.7
			c0,3.3-0.8,5.7-3.3,6.6c3.6,0.4,6.5,3.6,6.5,8.5v12.4c0,1.4-0.6,2.2-2.2,2.2h-9.1c-1.4,0-2.2-0.6-2.2-2.2V546
			c0-1.8-0.6-2.5-2.2-2.5h-7v12c0,1.4-0.6,2.2-2.2,2.2H179.7z M190.8,533.5h3.8c2.1,0,2.6-1.2,2.6-2.8v-2c0-1.6-0.5-2.8-2.6-2.8
			h-3.8V533.5z"/>
	</g>
</g>
<g>
	<path fill="#FFFFFF" d="M292.5,190c-1.6,0-2.2-0.7-2.2-2.2v-41.2c0-1.6,0.7-2.3,2.2-2.3h9.9c1.6,0,2.2,0.7,2.2,2.3v31.5h9.9v-10.3
		c0-1.6,0.7-2.2,2.2-2.2h9.3c1.6,0,2.2,0.7,2.2,2.2v20c0,1.6-0.7,2.2-2.2,2.2L292.5,190L292.5,190z"/>
	<path fill="#FFFFFF" d="M290.8,243.7v-7.5c0-1.6,0.7-2.3,2.2-2.3h8.5v-21.4h-8.5c-1.6,0-2.2-0.7-2.2-2.3v-7.6
		c0-1.6,0.7-2.3,2.2-2.3h32.4c1.6,0,2.2,0.7,2.2,2.3v7.7c0,1.6-0.7,2.3-2.2,2.3H317v21.4h8.5c1.6,0,2.2,0.7,2.2,2.3v7.5
		c0,1.6-0.7,2.2-2.2,2.2h-32.4C291.5,246,290.8,245.2,290.8,243.7z"/>
	<path fill="#FFFFFF" d="M304.4,307.2c-1.6,0-2.2-0.7-2.2-2.3v-3.6c-9.5-1.4-12.1-6.1-12.1-12.5v-21.1c0-7.7,3.8-13,19.3-13
		s19.3,5.3,19.3,13v21.1c0,6.5-2.5,11.1-12.2,12.5v3.5c0,1.6-0.7,2.3-2.2,2.3L304.4,307.2L304.4,307.2z M309.3,290.4
		c4.2,0,4.9-1.3,4.9-3v-17.3c0-1.6-0.7-3-4.9-3s-4.9,1.3-4.9,3v17.3C304.4,289.2,305.1,290.4,309.3,290.4z"/>
	<path fill="#FFFFFF" d="M309.3,361.2c-15.3,0-19.1-5.2-19.1-12.9v-31.5c0-1.6,0.7-2.3,2.2-2.3h10c1.6,0,2.2,0.7,2.2,2.3v29
		c0,1.7,0.7,3,4.7,3c4,0,4.7-1.3,4.7-3v-29c0-1.6,0.6-2.3,2.2-2.3h9.7c1.6,0,2.2,0.7,2.2,2.3v31.5
		C328.4,356,324.6,361.2,309.3,361.2z"/>
	<path fill="#FFFFFF" d="M309.3,416.2c-15.5,0-19.3-5.2-19.3-12.9v-21.7c0-7.7,3.8-13,19.3-13s19.3,5.3,19.3,13v21.7
		C328.6,411,324.9,416.2,309.3,416.2z M309.3,403.9c4.2,0,4.9-1.3,4.9-3v-17.1c0-1.6-0.7-3-4.9-3s-4.9,1.3-4.9,3V401
		C304.4,402.6,305.1,403.9,309.3,403.9z"/>
	<path fill="#FFFFFF" d="M292.5,470.2c-1.6,0-2.2-0.7-2.2-2.2v-41.2c0-1.6,0.7-2.3,2.2-2.3H313c9.5,0,12.5,4.3,12.5,10.6v3
		c0,3.6-0.9,6.1-3.6,7.3c3.9,0.5,7.1,3.9,7.1,9.3v13.5c0,1.6-0.7,2.2-2.2,2.2h-9.9c-1.6,0-2.2-0.7-2.2-2.2v-10.2
		c0-1.9-0.6-2.7-2.4-2.7h-7.5V468c0,1.6-0.7,2.2-2.2,2.2L292.5,470.2L292.5,470.2z M304.6,444h4c2.2,0,2.8-1.3,2.8-3v-2.2
		c0-1.7-0.5-3-2.8-3h-4V444z"/>
</g>
<g>
	<path fill="#FFFFFF" d="M45.5,95.1c-0.7,0-1-0.3-1-1V80.4h-4.1c-0.7,0-1-0.3-1-1V76c0-0.7,0.3-1,1-1h14.7c0.7,0,1,0.3,1,1v3.4
		c0,0.7-0.3,1-1,1H51v13.7c0,0.7-0.3,1-1,1H45.5z"/>
	<path fill="#FFFFFF" d="M68.2,95.1c-0.7,0-1-0.3-1-1V76c0-0.7,0.3-1,1-1h4.3c0.7,0,1,0.3,1,1v6h4.7v-6c0-0.7,0.3-1,1-1h4.3
		c0.7,0,1,0.3,1,1V94c0,0.7-0.3,1-1,1h-4.3c-0.7,0-1-0.3-1-1v-6.2h-4.7V94c0,0.7-0.3,1-1,1L68.2,95.1L68.2,95.1z"/>
	<path fill="#FFFFFF" d="M97.7,95.1c-0.7,0-1-0.3-1-1V76c0-0.7,0.3-1,1-1h12.9c0.7,0,1,0.3,1,1v3.2c0,0.7-0.3,1-1,1H103v2.2h5.4
		c0.7,0,1,0.3,1,1v3c0,0.7-0.3,1-1,1H103v2.4h7.6c0.7,0,1,0.3,1,1v3.2c0,0.7-0.3,1-1,1H97.7V95.1z"/>
</g>
<g>
	<path fill="#265560" d="M470.7,325.3v-75.3v-6.3v-46v-32.4v-19.9v-32.4V73.4v-4c0-1.5,0-2.1,0.3-4.6l1.5-13.3
		c0.2-1.2-1.1-2.1-2.2-1.5l-22.7,9c-0.7,0.4-1.7,0.3-2.3-0.3l-14.8-12.3c-1.2-1-3.1-1-4.2,0l-14.8,12.3c-0.6,0.5-1.6,0.6-2.3,0.3
		l-22.7-9c-1.1-0.4-2.3,0.4-2.2,1.5l1.5,13.3c0.3,2.5,0.3,3,0.3,4.6v4v39.5v32.4v19.9v32.4v46v6.3v75.3v3.1v0.9c0,1.5,0,2.1-0.3,4.6
		l-1.5,13.3c-0.2,1.2,1.1,2.1,2.2,1.5l22.7-9c0.7-0.4,1.7-0.3,2.3,0.3l14.8,12.3c1.2,1,3.1,1,4.2,0l14.8-12.3
		c0.6-0.5,1.6-0.6,2.3-0.3l22.7,9c1.1,0.4,2.3-0.4,2.2-1.5l-1.5-13.3c-0.3-2.5-0.3-3-0.3-4.6v-0.9V325.3z"/>
	<path fill="#FFFFFF" d="M410.9,137.5c-1.6,0-2.4-0.7-2.4-2.4V92.2c0-1.6,0.7-2.4,2.4-2.4h20.6c9,0,12.8,4.3,12.8,10.2v3.1
		c0,3.4-1,5.9-4,7.2c4.8,0.4,8.4,4,8.4,10.2v6.1c0,6.6-4.4,10.9-12.9,10.9L410.9,137.5L410.9,137.5z M423.4,108.2h5
		c2.2,0,2.5-1.3,2.5-2.6v-1.9c0-1.3-0.4-2.6-2.5-2.6h-5V108.2z M423.4,126.3h8c2.2,0,2.5-1.3,2.5-2.6v-2.6c0-1.4-0.4-2.6-2.5-2.6h-8
		V126.3z"/>
	<path fill="#FFFFFF" d="M410.9,251c-1.6,0-2.4-0.7-2.4-2.4v-43c0-1.6,0.7-2.4,2.4-2.4h21.3c10,0,13,4.5,13,11.1v3.1
		c0,3.7-0.9,6.4-3.7,7.5c4,0.5,7.4,4,7.4,9.6v14c0,1.6-0.7,2.4-2.4,2.4h-10.2c-1.6,0-2.4-0.7-2.4-2.4v-10.6c0-2-0.6-2.9-2.5-2.9
		h-7.9v13.5c0,1.6-0.7,2.4-2.4,2.4L410.9,251L410.9,251z M423.5,223.7h4.2c2.3,0,2.9-1.3,2.9-3.1v-2.2c0-1.8-0.6-3.1-2.9-3.1h-4.2
		V223.7z"/>
	<path fill="#FFFFFF" d="M407.4,295.9l-4.2-4.2c-0.4-0.4-0.4-1.2,0.1-1.6l21-21c0.5-0.6,1.2-0.5,1.6-0.1l4.2,4.2
		c0.4,0.4,0.5,1.2-0.1,1.6l-21,21C408.5,296.4,407.8,296.4,407.4,295.9z M414.9,297.9c-0.8-0.8-1.3-1.7-1.3-2.3l-0.8-2.4l15.3-15.3
		l10.4,7.1c0.7,0.4,1.7,1.4,2.5,2.4l12.5,14.4c0.4,0.4,0.6,1.3,0,2l-2.2,2.2c-0.6,0.6-1.3,0.4-2.1-0.3l-12.3-12.4l-0.4,0.4l4.2,4.2
		c0.5,0.4,0.6,1.1,0.1,1.6l-1.9,1.9c-0.6,0.6-1.3,0.4-2.1-0.2l-4.9-4.4l-0.4,0.4l4.1,3.6c0.5,0.4,0.5,1.2,0,1.8l-2.1,2.1
		c-0.6,0.6-1.3,0.4-2.1-0.3l-4.8-4.1l-0.4,0.4l4.1,3.6c0.5,0.4,0.4,1.2,0,1.5l-2.2,2.2c-0.4,0.4-1.3,0.4-1.9-0.1L414.9,297.9z"/>
	<path fill="#FFFFFF" d="M420.9,193.4h-9.3c-1.6,0-2.2-0.8-2.2-2.3v-31.5c0-7.7,3.2-12.9,19.1-12.9s19.1,5.3,19.1,12.9v31.5
		c0,1.6-0.7,2.3-2.2,2.3h-9.7c-1.6,0-2.2-0.8-2.2-2.3v-9.4h-10v9.3C423.2,192.6,422.5,193.4,420.9,193.4z M423.2,169.9h10v-8.2
		c0-1.7-0.5-3-4.9-3c-4.5,0-5,1.3-5,3V169.9z"/>
</g>
<g>
	<path fill="#26839C" d="M509.8,53.2c0-1.8,0.8-2.5,2.5-2.5h39.5c21.4,0,33.7,12.3,33.7,33.7v39.5c0,1.8-0.8,2.5-2.5,2.5h-71.1
		c-1.2,0-2.1-0.9-2.1-2.1V53.2z"/>
	<path fill="#26839C" d="M509.8,143.3c0-1.8,0.8-2.5,2.5-2.5h39.5c21.4,0,33.7,12.3,33.7,33.7V214c0,1.8-0.8,2.5-2.5,2.5h-71.1
		c-1.2,0-2.1-0.9-2.1-2.1V143.3z"/>
	<path fill="#26839C" d="M509.8,233.4c0-1.8,0.8-2.5,2.5-2.5h39.5c21.4,0,33.7,12.3,33.7,33.7v39.5c0,1.8-0.8,2.5-2.5,2.5h-71.1
		c-1.2,0-2.1-0.9-2.1-2.1V233.4z"/>
	<path fill="#26839C" d="M509.8,323.5c0-1.8,0.8-2.5,2.5-2.5h39.5c21.4,0,33.7,12.3,33.7,33.7v39.5c0,1.8-0.8,2.5-2.5,2.5h-71.1
		c-1.2,0-2.1-0.9-2.1-2.1V323.5z"/>
	<path fill="#26839C" d="M509.8,413.7c0-1.8,0.8-2.5,2.5-2.5h39.5c21.4,0,33.7,12.3,33.7,33.7v39.5c0,1.8-0.8,2.5-2.5,2.5h-71.1
		c-1.2,0-2.1-0.9-2.1-2.1V413.7z"/>
	<path fill="#26839C" d="M509.8,503.8c0-1.8,0.8-2.5,2.5-2.5h39.5c21.4,0,33.7,12.3,33.7,33.7v39.5c0,1.8-0.8,2.5-2.5,2.5h-71.1
		c-1.2,0-2.1-0.9-2.1-2.1V503.8z"/>
	<path fill="#FFFFFF" d="M543,111.5c-12.1,0-15.7-5.3-15.7-13V78.6c0-7.8,3.6-13.1,15.7-13.1h20c1.6,0,2.3,0.7,2.3,2.3v7.7
		c0,1.6-0.7,2.3-2.3,2.3h-17.2c-3.3,0-3.9,1.5-3.9,3.2v15.2c0,1.8,0.6,3.1,3.9,3.1H563c1.6,0,2.3,0.7,2.3,2.3v7.6
		c0,1.6-0.7,2.3-2.3,2.3H543z"/>
	<path fill="#FFFFFF" d="M541.6,201.6c-1.6,0-2.3-0.7-2.3-2.3V158c0-1.6,0.7-2.3,2.3-2.3h10.1c1.6,0,2.3,0.7,2.3,2.3v41.4
		c0,1.6-0.7,2.3-2.3,2.3H541.6z"/>
	<path fill="#FFFFFF" d="M546.7,245.3c15.8,0,19.1,5.2,19.1,13v31.6c0,1.6-0.7,2.4-2.3,2.4h-10c-1.6,0-2.3-0.8-2.3-2.4v-29.1
		c0-1.7-0.8-3-4.7-3c-4,0-4.7,1.3-4.7,3v29.1c0,1.6-0.6,2.4-2.3,2.4h-9.7c-1.6,0-2.3-0.8-2.3-2.4v-31.6
		C527.5,250.5,530.9,245.3,546.7,245.3z"/>
	<path fill="#FFFFFF" d="M527.3,349c0-7.8,3.6-13.1,15.7-13.1h20c1.6,0,2.3,0.7,2.3,2.3v7.5c0,1.6-0.7,2.3-2.3,2.3h-17.4
		c-3.3,0-3.9,1.5-3.9,3.2v1.7h16.1c1.6,0,2.3,0.6,2.3,2.3v6.8c0,1.6-0.7,2.3-2.3,2.3h-16.1v2.4c0,1.8,0.6,3.1,3.9,3.1H563
		c1.6,0,2.3,0.7,2.3,2.3v7.5c0,1.6-0.7,2.3-2.3,2.3h-20c-12.1,0-15.7-5.3-15.7-13V349z"/>
	<path fill="#FFFFFF" d="M524.4,470.2v-31.6c0-7.8,3.1-13,12.7-13c4.8,0,7.8,1.1,9.5,3.2c1.8-2,4.8-3.2,9.6-3.2
		c9.6,0,12.7,5.2,12.7,13v31.6c0,1.6-0.7,2.3-2.3,2.3h-7.5c-1.7,0-2.3-0.7-2.3-2.3v-29.6c0-1.7-0.4-2.6-2.1-2.6s-2,0.8-2,2.6v29.6
		c0,1.6-0.7,2.3-2.3,2.3h-7.5c-1.6,0-2.3-0.7-2.3-2.3v-29.6c0-1.7-0.4-2.6-2-2.6s-2.1,0.8-2.1,2.6v29.6c0,1.6-0.6,2.3-2.3,2.3h-7.5
		C525.1,472.5,524.4,471.8,524.4,470.2z"/>
	<path fill="#FFFFFF" d="M527.5,528.7c0-7.7,3.3-13,19.1-13c15.9,0,19.2,5.3,19.2,13v31.6c0,1.6-0.7,2.4-2.3,2.4h-9.7
		c-1.6,0-2.3-0.8-2.3-2.4v-9.5h-10v9.5c0,1.6-0.7,2.4-2.3,2.4h-9.4c-1.6,0-2.3-0.8-2.3-2.4V528.7z M541.5,539.1h10v-8.2
		c0-1.7-0.5-3-5-3c-4.5,0-5,1.3-5,3V539.1z"/>
</g>
</svg>
