<?xml version="1.0" encoding="utf-8"?>
<!-- Generator: Adobe Illustrator 19.2.0, SVG Export Plug-In . SVG Version: 6.00 Build 0)  -->
<!DOCTYPE svg PUBLIC "-//W3C//DTD SVG 1.1//EN" "http://www.w3.org/Graphics/SVG/1.1/DTD/svg11.dtd">
<svg version="1.1" id="Layer_1" xmlns="http://www.w3.org/2000/svg" xmlns:xlink="http://www.w3.org/1999/xlink" x="0px" y="0px"
	 viewBox="0 0 839 1000" style="enable-background:new 0 0 839 1000;" xml:space="preserve">
<style type="text/css">
	.st0{fill:#27839E;}
	.st1{fill:#92CAD3;}
	.st2{fill:#144A56;}
	.st3{fill:#F2F1F0;}
	.st4{fill:#BAA885;}
	.st5{fill:#ECDFC1;}
	.st6{fill:#432D2C;}
	.st7{fill:#F6ECCC;}
	.st8{fill:#102B33;stroke:#EF9D92;stroke-width:0.5;}
	.st9{fill:#762117;}
	.st10{fill:#DA4226;}
	.st11{fill:#EF9D92;}
	.st12{fill:#DC4227;stroke:#ECDFC1;}
</style>
<g>
	<path class="st0" d="M121.75,595.941c2.2,0,2.4,1,3.1,3.1l16.5,41.7c0.6,1.6,0.6,3.4,0,5l-16.5,41.5c-0.8,2.1-1,3.1-3.1,3.1h-88.1
		c-2.2,0-3.8-1.4-3-3.5l17.3-43.7l-17.3-43.7c-0.9-2.1,0.8-3.5,3-3.5L121.75,595.941L121.75,595.941z"/>
	<path class="st0" d="M233.75,595.941c2.2,0,2.4,1,3.1,3.1l16.5,41.7c0.6,1.6,0.6,3.4,0,5l-16.5,41.5c-0.8,2.1-1,3.1-3.1,3.1h-88.1
		c-2.2,0-3.8-1.4-3-3.5l17.3-43.7l-17.3-43.7c-0.9-2.1,0.8-3.5,3-3.5L233.75,595.941L233.75,595.941z"/>
	<path class="st0" d="M345.65,595.941c2.2,0,2.4,1,3.1,3.1l16.5,41.7c0.6,1.6,0.6,3.4,0,5l-16.5,41.5c-0.8,2.1-1,3.1-3.1,3.1h-88.1
		c-2.2,0-3.8-1.4-3-3.5l17.3-43.7l-17.3-43.7c-0.9-2.1,0.8-3.5,3-3.5L345.65,595.941L345.65,595.941z"/>
	<path class="st0" d="M457.55,595.941c2.2,0,2.4,1,3.1,3.1l16.5,41.7c0.6,1.6,0.6,3.4,0,5l-16.4,41.5c-0.8,2.1-1,3.1-3.1,3.1h-88.1
		c-2.2,0-3.8-1.4-3-3.5l17.3-43.7l-17.3-43.7c-0.9-2.1,0.8-3.5,3-3.5L457.55,595.941L457.55,595.941z"/>
	<path class="st0" d="M569.55,595.941c2.2,0,2.4,1,3.1,3.1l16.5,41.7c0.6,1.6,0.6,3.4,0,5l-16.5,41.5c-0.8,2.1-1,3.1-3.1,3.1h-88.1
		c-2.2,0-3.8-1.4-3-3.5l17.3-43.7l-17.3-43.7c-0.9-2.1,0.8-3.5,3-3.5L569.55,595.941L569.55,595.941z"/>
	<path class="st0" d="M681.45,595.941c2.2,0,2.4,1,3.1,3.1l16.5,41.7c0.6,1.6,0.6,3.4,0,5l-16.5,41.5c-0.8,2.1-1,3.1-3.1,3.1h-88.1
		c-2.2,0-3.8-1.4-3-3.5l17.3-43.7l-17.3-43.7c-0.9-2.1,0.8-3.5,3-3.5L681.45,595.941L681.45,595.941z"/>
	<path class="st0" d="M763.15,690.341h-57.8c-2.2,0-3.8-1.4-3-3.5l17.3-43.7l-17.3-43.7c-0.9-2.1,0.8-3.5,3-3.5h57.8v-12.3
		c0-3.5,3.8-4.7,7-0.9l45.1,55.1c3.2,4,3.2,6.5,0,10.5l-45.1,55.1c-2.6,3.1-7,1.8-7-0.9V690.341z"/>
	<path class="st1" d="M60.65,671.641v-56.7c0-2.8,1.2-4,4-4h45.3c2.8,0,4,1.2,4,4v10.2c0,2.8-1.2,4-4,4h-28v5h20.9c2.8,0,4,1.1,4,4
		v9.4c0,2.8-1.2,4-4,4h-20.9v5.8h28c2.8,0,4,1.2,4,4v10.2c0,2.8-1.2,4-4,4h-45.3C61.85,675.641,60.65,674.441,60.65,671.641z"/>
	<path class="st1" d="M175.65,675.641c-2.8,0-4-1.2-4-4v-9.4c0-5.7,1.1-7.3,3.5-11.3l5.4-9l-5.4-9c-2.4-3.9-3.5-5.6-3.5-11.3v-6.7
		c0-2.8,1.2-4,4-4h13.5c2.8,0,4,1.2,4,4v6c0,1,0.1,2.2,0.7,3.2l3.1,5.5c0.3,0.6,0.7,1,1.3,1h1c0.6,0,1-0.4,1.3-1l3.1-5.5
		c0.6-1,0.7-2.2,0.7-3.2v-6c0-2.8,1.2-4,4-4h13.3c2.8,0,4,1.2,4,4v6.7c0,5.7-1.1,7.3-3.5,11.3l-5.4,9.1l5.4,8.9
		c2.4,3.9,3.5,5.6,3.5,11.3v9.4c0,2.8-1.2,4-4,4h-13.3c-2.8,0-4-1.2-4-4v-8.7c0-1-0.1-2.1-0.7-3.2l-3.1-5.5c-0.3-0.7-0.7-1-1.3-1
		h-1.2c-0.6,0-1,0.3-1.3,1l-3.2,5.5c-0.6,1-0.7,2.2-0.7,3.2v8.7c0,2.8-1.2,4-4,4H175.65z"/>
	<path class="st1" d="M282.65,671.641v-56.7c0-2.8,1.2-4,4-4h29c16.7,0,21.5,7.3,21.5,17.9v11.2c0,10.6-4.8,17.9-21.5,17.9h-11.5
		v13.6c0,2.8-1.2,4-4,4h-13.4C283.95,675.641,282.65,674.441,282.65,671.641z M304.15,629.041v11.5h9.3c2.7,0,3.2-1.7,3.2-3.4v-4.6
		c0-1.7-0.5-3.4-3.2-3.4h-9.3V629.041z"/>
	<path class="st1" d="M397.75,675.641c-2.8,0-4-1.2-4-4v-56.7c0-2.8,1.2-4,4-4h28.2c13.9,0,18.1,6.4,18.1,15.5v4
		c0,4.4-1,7.7-3.5,9.6c4.7,1.6,8.3,6.2,8.3,13v18.5c0,2.8-1.2,4-4,4h-13.6c-2.8,0-4-1.2-4-4v-13.4c0-1.9-0.6-2.9-2.4-2.9h-9.5v16.3
		c0,2.8-1.2,4-4,4h-13.6V675.641z M415.25,628.441v9.4h4.7c2.4,0,3-1.4,3-3.2v-3c0-1.8-0.5-3.2-3-3.2H415.25z"/>
	<path class="st1" d="M504.95,671.641v-56.7c0-2.8,1.2-4,4-4h45.3c2.8,0,4,1.2,4,4v10.2c0,2.8-1.2,4-4,4h-28v5h20.9c2.8,0,4,1.1,4,4
		v9.4c0,2.8-1.2,4-4,4h-20.9v5.8h28c2.8,0,4,1.2,4,4v10.2c0,2.8-1.2,4-4,4h-45.3C506.15,675.641,504.95,674.441,504.95,671.641z"/>
	<path class="st1" d="M651.25,675.641h-31.3c-2.8,0-4-1.2-4-4v-10.2c0-2.8,1.2-4,4-4h27.2c1,0,1.4-0.8,1.4-1.7c0-1.3-0.4-2-1.5-2.1
		l-16.8-1.8c-8.7-1.3-14.3-5.1-14.3-15.4v-9.2c0-10.5,7-16.3,19-16.3h29c2.8,0,4,1.2,4,4v10.4c0,2.8-1.2,4-4,4h-24.9
		c-1,0-1.5,0.8-1.5,1.7c0,1,0.5,1.8,1.6,1.9l16.7,1.7c8.7,1.3,14.4,5.1,14.4,15.4v9.2C670.15,669.841,663.15,675.641,651.25,675.641
		z"/>
	<path class="st1" d="M762.25,675.641h-31.3c-2.8,0-4-1.2-4-4v-10.2c0-2.8,1.2-4,4-4h27.2c1,0,1.4-0.8,1.4-1.7c0-1.3-0.4-2-1.5-2.1
		l-16.8-1.8c-8.7-1.3-14.3-5.1-14.3-15.4v-9.2c0-10.5,7-16.3,19-16.3h29c2.8,0,4,1.2,4,4v10.4c0,2.8-1.2,4-4,4h-24.9
		c-1,0-1.5,0.8-1.5,1.7c0,1,0.5,1.8,1.6,1.9l16.7,1.7c8.7,1.3,14.4,5.1,14.4,15.4v9.2C781.25,669.841,774.15,675.641,762.25,675.641
		z"/>
	<path class="st2" d="M64.65,674.841c-2.2,0-3.1-1-3.1-3.1v-56.7c0-2.2,1-3.1,3.1-3.1h45.3c2.2,0,3.1,1,3.1,3.1v10.2
		c0,2.2-1,3.1-3.1,3.1h-28.8v6.7h21.8c2.2,0,3.1,0.9,3.1,3.1v9.4c0,2.2-1,3.1-3.1,3.1h-21.8v7.5h28.9c2.2,0,3.1,1,3.1,3.1v10.2
		c0,2.2-1,3.1-3.1,3.1h-45.4C64.65,674.541,64.65,674.841,64.65,674.841z"/>
	<path class="st2" d="M188.95,674.841h-13.3c-2.2,0-3.1-1-3.1-3.1v-9.4c0-5.4,1-7,3.3-10.8l5.8-9.5l-5.8-9.5
		c-2.3-3.8-3.3-5.3-3.3-10.8v-6.7c0-2.2,1-3.1,3.1-3.1h13.5c2.2,0,3.1,1,3.1,3.1v6c0,1.2,0.1,2.5,0.8,3.7l3.1,5.5
		c0.5,1,1.1,1.5,2.1,1.5h1c1,0,1.5-0.4,2.1-1.5l3.1-5.5c0.7-1.2,0.8-2.4,0.8-3.7v-6c0-2.2,1-3.1,3.1-3.1h13.3c2.2,0,3.1,1,3.1,3.1
		v6.7c0,5.4-1,7-3.3,10.8l-5.8,9.6l5.8,9.4c2.3,3.8,3.3,5.3,3.3,10.8v9.4c0,2.2-1,3.1-3.1,3.1h-13.3c-2.2,0-3.1-1-3.1-3.1v-8.7
		c0-1.2-0.1-2.4-0.8-3.7l-3.1-5.5c-0.6-1.1-1.1-1.5-2.1-1.5h-1.2c-1,0-1.5,0.4-2.1,1.5l-3.2,5.5c-0.7,1.2-0.8,2.4-0.8,3.7v8.7
		C192.05,673.841,191.15,674.841,188.95,674.841z"/>
	<path class="st2" d="M286.75,674.841c-2.2,0-3.1-1-3.1-3.1v-56.7c0-2.2,1-3.1,3.1-3.1h29c15.9,0,20.6,6.9,20.6,17.1v11.2
		c0,10.1-4.7,17.1-20.6,17.1h-12.3v14.5c0,2.2-1,3.1-3.1,3.1h-13.6V674.841z M303.25,641.441h10.1c3.4,0,4.1-2,4.1-4.3v-4.6
		c0-2.3-0.7-4.3-4.1-4.3h-10.1V641.441z"/>
	<path class="st2" d="M397.75,674.841c-2.2,0-3.1-1-3.1-3.1v-56.7c0-2.2,1-3.1,3.1-3.1h28.2c13.1,0,17.2,5.9,17.2,14.6v4
		c0,4.9-1.2,8.4-4.9,10c5.3,0.7,9.7,5.3,9.7,12.7v18.5c0,2.2-1,3.1-3.1,3.1h-13.6c-2.2,0-3.1-1-3.1-3.1v-13.4c0-2.6-0.9-3.8-3.3-3.8
		h-10.4v17.1c0,2.2-1,3.1-3.1,3.1h-13.6L397.75,674.841L397.75,674.841z M414.35,638.841h5.6c3.1,0,3.8-1.7,3.8-4.1v-3
		c0-2.4-0.8-4.1-3.8-4.1h-5.6V638.841z"/>
	<path class="st2" d="M508.95,674.841c-2.2,0-3.1-1-3.1-3.1v-56.7c0-2.2,1-3.1,3.1-3.1h45.3c2.2,0,3.1,1,3.1,3.1v10.2
		c0,2.2-1,3.1-3.1,3.1h-28.9v6.7h21.8c2.2,0,3.1,0.9,3.1,3.1v9.4c0,2.2-1,3.1-3.1,3.1h-21.8v7.5h28.9c2.2,0,3.1,1,3.1,3.1v10.2
		c0,2.2-1,3.1-3.1,3.1h-45.3V674.841z"/>
	<path class="st2" d="M619.95,674.841c-2.2,0-3.1-1-3.1-3.1v-10.2c0-2.2,1-3.1,3.1-3.1h27.2c1.5,0,2.3-1.1,2.3-2.5
		c0-2-0.8-2.8-2.3-3l-16.8-1.8c-8.2-1.2-13.6-4.7-13.6-14.5v-9.2c0-10,6.7-15.4,18.1-15.4h29c2.2,0,3.1,1,3.1,3.1v10.4
		c0,2.2-1,3.1-3.1,3.1h-24.9c-1.5,0-2.4,1-2.4,2.6s0.9,2.6,2.4,2.8l16.7,1.7c8.2,1.2,13.6,4.7,13.6,14.5v9.2
		c0,10-6.8,15.4-18.1,15.4H619.95z"/>
	<path class="st2" d="M730.95,674.841c-2.2,0-3.1-1-3.1-3.1v-10.2c0-2.2,1-3.1,3.1-3.1h27.2c1.5,0,2.3-1.1,2.3-2.5
		c0-2-0.8-2.8-2.3-3l-16.8-1.8c-8.2-1.2-13.6-4.7-13.6-14.5v-9.2c0-10,6.7-15.4,18.1-15.4h29c2.2,0,3.1,1,3.1,3.1v10.4
		c0,2.2-1,3.1-3.1,3.1h-24.9c-1.5,0-2.4,1-2.4,2.6s0.9,2.6,2.4,2.8l16.7,1.7c8.2,1.2,13.6,4.7,13.6,14.5v9.2
		c0,10-6.8,15.4-18.1,15.4H730.95z"/>
</g>
<g>
	<path class="st3" d="M23.35,852.641c-4.3,0-6.2-1.9-6.2-6.2v-17.9c0-3.9,1.1-6.4,3.6-9.1l30.8-37.3h-25.8c-4.3,0-6.2-1.9-6.2-6.2
		v-16.2c0-2.4,0.7-3.9,1.9-5l17.3-14.5c0.9-0.8,2.4-1.2,4.3-1.2h61.6c4.3,0,6.2,1.9,6.2,6.2v19.9c0,4-1.1,6.6-3.6,9.2l-29.3,35.5
		h29.2c4.3,0,6.2,1.9,6.2,6.2v15.9c0,2.4-0.7,3.9-1.9,5l-17.4,14.5c-0.8,0.8-2.3,1.3-4.1,1.3h-66.6
		C23.35,852.741,23.35,852.641,23.35,852.641z"/>
	<path class="st3" d="M137.95,851.341c-0.8,0.8-2.3,1.3-4.1,1.3h-19.7c-4.3,0-6.2-1.9-6.2-6.2v-66.3c0-8.4,1.9-15.5,7.9-20.6
		l17.4-14.5c6-5.1,16.3-8.2,33.9-8.2c34.9,0,42.2,11.9,42.2,28.6v66.5c0,2.4-0.7,3.9-1.9,5l-17.4,14.5c-0.8,0.8-2.3,1.3-4.1,1.3
		h-20.3c-4.3,0-6.2-1.9-6.2-6.2v-18.6h-2.1v4c0,2.4-0.7,3.9-1.9,5L137.95,851.341z M157.25,780.941v5.2h2.1v-1.3
		C159.35,783.241,158.85,781.841,157.25,780.941z"/>
	<path class="st3" d="M213.25,852.641c-4.3,0-6.2-1.9-6.2-6.2v-86.7c0-2.4,0.7-3.9,1.9-5l17.3-14.6c0.9-0.8,2.4-1.2,4.3-1.2h41
		c25.6,0,32.9,11.2,32.9,27.4v17.1c0,8.6-2.1,15.8-8,20.7l-17.4,14.5c-4.4,3.7-11.4,6.3-21.6,6.7v6.4c0,2.4-0.7,3.9-1.9,5
		l-17.4,14.5c-0.8,0.8-2.3,1.3-4.1,1.3h-20.8L213.25,852.641L213.25,852.641z"/>
	<path class="st3" d="M327.75,851.341c-0.8,0.8-2.3,1.3-4.1,1.3h-19.7c-4.3,0-6.2-1.9-6.2-6.2v-66.3c0-8.4,1.9-15.5,7.9-20.6
		l17.4-14.5c6-5.1,16.3-8.2,33.9-8.2c34.9,0,42.2,11.9,42.2,28.6v66.5c0,2.4-0.7,3.9-1.9,5l-17.4,14.5c-0.8,0.8-2.3,1.3-4.1,1.3
		h-20.3c-4.3,0-6.2-1.9-6.2-6.2v-18.6h-2.1v4c0,2.4-0.7,3.9-1.9,5L327.75,851.341z M347.05,780.941v5.2h2.1v-1.3
		C349.15,783.241,348.65,781.841,347.05,780.941z"/>
	<path class="st3" d="M420.75,852.641c-4.3,0-6.2-1.9-6.2-6.2v-64.4h-18.3c-4.3,0-6.2-1.9-6.2-6.2v-16.2c0-2.4,0.7-3.9,1.9-5
		l17.3-14.6c0.9-0.8,2.4-1.2,4.3-1.2h70.7c4.3,0,6.2,1.9,6.2,6.2v16.2c0,2.4-0.7,3.9-1.9,5l-17.4,14.5c-0.8,0.8-2.3,1.3-4.1,1.3
		h-1.1v49.9c0,2.4-0.7,3.9-1.9,5l-17.4,14.5c-0.8,0.8-2.3,1.3-4.1,1.3h-21.8L420.75,852.641L420.75,852.641z"/>
	<path class="st3" d="M515.55,852.641c-26.5,0-34.3-15.8-34.3-32.7v-37.6c0-9.1,2.3-16.7,8.4-21.8l17.3-14.6c5.2-4.4,13.5-7,25.8-7
		h34c4.3,0,6.2,1.9,6.2,6.2v15.7c0,2.4-0.7,3.9-1.9,5l-11.4,9.5c1.7,0.8,2.5,2.5,2.5,5.5v14.3c0,2.4-0.7,3.9-1.9,5l-11.9,10h18.3
		c4.3,0,6.2,1.9,6.2,6.2v15.6c0,2.4-0.7,3.9-1.9,5l-17.2,14.4c-0.8,0.8-2.3,1.3-4.1,1.3L515.55,852.641L515.55,852.641z"/>
	<path class="st3" d="M599.75,851.341c-0.8,0.8-2.3,1.3-4.2,1.3h-20.6c-4.3,0-6.2-1.9-6.2-6.2v-86.7c0-2.4,0.7-3.9,1.9-5l17.3-14.6
		c0.9-0.8,2.4-1.2,4.3-1.2h44.6c21.3,0,27.7,9.8,27.7,23.7v6.2c0,6.6-1.5,11.5-5.1,14.6h-0.1c8.4,2.4,13.9,9.5,13.9,20.1v28.4
		c0,2.4-0.7,3.9-1.9,5l-17.4,14.5c-0.8,0.8-2.3,1.3-4.1,1.3h-20.7c-4.3,0-6.2-1.9-6.2-6.2v-20.5c0-2.9-0.9-4.4-3.7-4.4h-0.1v10.3
		c0,2.4-0.7,3.9-1.9,5L599.75,851.341z"/>
	<path class="st3" d="M674.65,852.641c-4.3,0-6.2-1.9-6.2-6.2v-86.7c0-2.4,0.7-3.9,1.9-5l5.4-4.6l-11.6,1.6c-4,0.5-6-1.6-6-5.8
		v-12.9c0-2.4,0.7-3.7,1.7-4.7l17.3-14.6c0.8-0.7,2.3-1.2,4.1-1.5l42.8-5.8c4-0.5,6,1.6,6,5.8v12.9c0,2.3-0.7,3.9-1.9,4.7l-11.4,9.6
		c1.7,0.9,2.5,2.7,2.5,5.5v87c0,2.4-0.7,3.9-1.9,5l-17.4,14.5c-0.8,0.8-2.3,1.3-4.1,1.3h-21.2L674.65,852.641L674.65,852.641z"/>
	<path class="st3" d="M747.25,851.341c-0.8,0.8-2.3,1.3-4.2,1.3h-19.7c-4.3,0-6.2-1.9-6.2-6.2v-66.3c0-8.4,1.9-15.5,7.9-20.6
		l17.4-14.5c6-5.1,16.3-8.2,33.9-8.2c34.9,0,42.2,11.9,42.2,28.6v66.5c0,2.4-0.7,3.9-1.9,5l-17.4,14.5c-0.8,0.8-2.3,1.3-4.1,1.3
		h-20.3c-4.3,0-6.2-1.9-6.2-6.2v-18.6h-2.1v4c0,2.4-0.7,3.9-1.9,5L747.25,851.341z M766.55,780.941v5.2h2.1v-1.3
		C768.75,783.241,768.15,781.841,766.55,780.941z"/>
	<path class="st4" d="M34.45,831.941v-18c0-3.9,1.1-6.4,3.6-9.1l30.8-37.3h-25.8c-4.3,0-6.2-1.9-6.2-6.2v-16.2
		c0-4.3,1.9-6.2,6.2-6.2h61.6c4.3,0,6.2,1.9,6.2,6.2v19.9c0,4-1.1,6.6-3.6,9.2l-29.3,35.5h29.2c4.3,0,6.2,1.9,6.2,6.2v16
		c0,4.3-1.9,6.2-6.2,6.2h-66.5C36.35,838.041,34.45,836.241,34.45,831.941z"/>
	<path class="st4" d="M125.25,831.941v-66.3c0-16.7,7.1-28.6,41.9-28.6c34.9,0,42.2,11.9,42.2,28.6v66.3c0,4.3-1.9,6.2-6.2,6.2
		h-20.4c-4.3,0-6.2-1.9-6.2-6.2v-18.6h-19.4v18.6c0,4.3-1.9,6.2-6.2,6.2h-19.7C127.05,838.041,125.25,836.241,125.25,831.941z
		 M157.25,786.141h19.4v-15.9c0-3.2-2.3-5-9.6-5c-7.5,0-9.8,1.7-9.8,5L157.25,786.141L157.25,786.141z"/>
	<path class="st4" d="M224.45,831.941v-86.7c0-4.3,1.9-6.2,6.2-6.2h41c25.6,0,32.9,11.2,32.9,27.4v17.1c0,16.2-7.4,27.4-32.9,27.4
		h-14.1v21c0,4.3-1.9,6.2-6.2,6.2h-20.7C226.25,838.041,224.45,836.241,224.45,831.941z M257.25,766.741v17.5h10.7
		c4.1,0,5-2.5,5-5.2v-7.1c0-2.7-0.8-5.2-5-5.2H257.25z"/>
	<path class="st4" d="M315.05,831.941v-66.3c0-16.7,7.1-28.6,41.9-28.6c34.9,0,42.2,11.9,42.2,28.6v66.3c0,4.3-1.9,6.2-6.2,6.2
		h-20.3c-4.3,0-6.2-1.9-6.2-6.2v-18.6h-19.4v18.6c0,4.3-1.9,6.2-6.2,6.2h-19.7C316.95,838.041,315.05,836.241,315.05,831.941z
		 M347.05,786.141h19.4v-15.9c0-3.2-2.3-5-9.6-5c-7.5,0-9.8,1.7-9.8,5V786.141z"/>
	<path class="st4" d="M431.95,831.941v-64.4h-18.3c-4.3,0-6.2-1.9-6.2-6.2v-16.2c0-4.3,1.9-6.2,6.2-6.2h70.7c4.3,0,6.2,1.9,6.2,6.2
		v16.2c0,4.3-1.9,6.2-6.2,6.2h-18.3v64.4c0,4.3-1.9,6.2-6.2,6.2h-21.7C433.75,838.041,431.95,836.241,431.95,831.941z"/>
	<path class="st4" d="M498.55,809.441v-41.6c0-17,7.8-28.8,34.3-28.8h34c4.3,0,6.2,1.9,6.2,6.2v15.7c0,4.3-1.9,6.2-6.2,6.2h-29.6
		c-5.6,0-6.8,2.4-6.8,5.4v2.3h25.7c4.3,0,6.2,1.7,6.2,6.2v14.3c0,4.3-1.9,6.2-6.2,6.2h-25.7v3.7c0,3.1,1.3,5.1,6.8,5.1h29.6
		c4.3,0,6.2,1.9,6.2,6.2v15.4c0,4.3-1.9,6.2-6.2,6.2h-34C506.35,838.041,498.55,826.341,498.55,809.441z"/>
	<path class="st4" d="M592.25,838.041c-4.3,0-6.2-1.9-6.2-6.2v-86.7c0-4.3,1.9-6.2,6.2-6.2h44.6c21.3,0,27.7,9.8,27.7,23.7v6.2
		c0,6.6-1.5,11.5-5.2,14.6c8.4,2.4,13.9,9.5,13.9,20.1v28.4c0,4.3-1.9,6.2-6.2,6.2h-20.7c-4.3,0-6.2-1.9-6.2-6.2v-20.5
		c0-2.9-0.9-4.4-3.7-4.4h-17.4v24.9c0,4.3-1.9,6.2-6.2,6.2h-20.6L592.25,838.041L592.25,838.041z M619.05,765.841v14.5h8.7
		c3.7,0,4.6-2.1,4.6-5v-4.6c0-2.8-0.8-5-4.6-5h-8.7V765.841z"/>
	<path class="st4" d="M675.25,731.541v-12.9c0-4.1,1.7-5.6,6-6.2l42.7-5.8c4-0.5,6,1.6,6,5.8v12.9c0,4.1-1.7,5.6-6,6.2l-42.7,5.8
		C677.25,737.841,675.25,735.641,675.25,731.541z M713.15,838.041h-21.3c-4.3,0-6.2-1.9-6.2-6.2v-86.7c0-4.3,1.9-6.2,6.2-6.2h21.3
		c4.3,0,6.2,1.9,6.2,6.2v86.8C719.35,836.241,717.45,838.041,713.15,838.041z"/>
	<path class="st4" d="M734.55,831.941v-66.3c0-16.7,7.1-28.6,41.9-28.6c34.9,0,42.2,11.9,42.2,28.6v66.3c0,4.3-1.9,6.2-6.2,6.2
		h-20.3c-4.3,0-6.2-1.9-6.2-6.2v-18.6h-19.4v18.6c0,4.3-1.9,6.2-6.2,6.2h-19.6C736.45,838.041,734.55,836.241,734.55,831.941z
		 M766.55,786.141h19.4v-15.9c0-3.2-2.3-5-9.6-5c-7.5,0-9.8,1.7-9.8,5L766.55,786.141L766.55,786.141z"/>
	<path class="st5" d="M40.65,836.941c-3.3,0-4.8-1.5-4.8-4.8v-17.9c0-3.5,0.9-5.8,3.3-8.3l32.5-39.5h-28.6c-3.3,0-4.8-1.5-4.8-4.8
		v-16.2c0-3.3,1.5-4.8,4.8-4.8h61.6c3.3,0,4.8,1.5,4.8,4.8v19.9c0,3.6-0.9,5.9-3.3,8.4l-31.1,37.6h32c3.3,0,4.8,1.5,4.8,4.8v15.9
		c0,3.3-1.5,4.8-4.8,4.8h-66.4V836.941z"/>
	<path class="st5" d="M151.05,836.941h-19.7c-3.3,0-4.8-1.5-4.8-4.8v-66.3c0-16.2,7.4-27.3,40.6-27.3c33.3,0,40.8,11.1,40.8,27.3
		v66.3c0,3.3-1.5,4.8-4.8,4.8h-20.4c-3.3,0-4.8-1.5-4.8-4.8v-19.9h-22.1v19.9C155.85,835.441,154.35,836.941,151.05,836.941z
		 M155.85,787.641h22.1v-17.3c0-3.6-1.6-6.3-11-6.3c-9.5,0-11.1,2.7-11.1,6.3V787.641z"/>
	<path class="st5" d="M230.55,836.941c-3.3,0-4.8-1.5-4.8-4.8v-86.7c0-3.3,1.5-4.8,4.8-4.8h41c24.4,0,31.6,10.6,31.6,26.1v17.1
		c0,15.5-7.2,26.1-31.6,26.1h-15.4v22.2c0,3.3-1.5,4.8-4.8,4.8L230.55,836.941L230.55,836.941z M255.85,785.841h12
		c5.2,0,6.3-3.1,6.3-6.6v-7.1c0-3.5-1.1-6.6-6.3-6.6h-12V785.841z"/>
	<path class="st5" d="M340.85,836.941h-19.7c-3.3,0-4.8-1.5-4.8-4.8v-66.3c0-16.2,7.4-27.3,40.6-27.3c33.3,0,40.8,11.1,40.8,27.3
		v66.3c0,3.3-1.5,4.8-4.8,4.8h-20.3c-3.3,0-4.8-1.5-4.8-4.8v-19.9h-22.1v19.9C345.65,835.441,344.25,836.941,340.85,836.941z
		 M345.65,787.641h22.1v-17.3c0-3.6-1.6-6.3-11-6.3c-9.5,0-11.1,2.7-11.1,6.3V787.641z"/>
	<path class="st5" d="M438.05,836.941c-3.3,0-4.8-1.5-4.8-4.8v-65.7h-19.7c-3.3,0-4.8-1.5-4.8-4.8v-16.2c0-3.3,1.5-4.8,4.8-4.8h70.7
		c3.3,0,4.8,1.5,4.8,4.8v16.2c0,3.3-1.5,4.8-4.8,4.8h-19.7v65.7c0,3.3-1.5,4.8-4.8,4.8H438.05z"/>
	<path class="st5" d="M566.85,836.941h-34c-25.3,0-32.9-11.1-32.9-27.3v-41.6c0-16.3,7.6-27.4,32.9-27.4h34c3.3,0,4.8,1.5,4.8,4.8
		v15.7c0,3.3-1.5,4.8-4.8,4.8h-29.6c-7,0-8.2,3.2-8.2,6.7v3.6h27c3.3,0,4.8,1.3,4.8,4.8v14.3c0,3.3-1.5,4.8-4.8,4.8h-27v5.1
		c0,3.7,1.2,6.4,8.2,6.4h29.6c3.3,0,4.8,1.5,4.8,4.8v15.7C571.65,835.441,570.15,836.941,566.85,836.941z"/>
	<path class="st5" d="M592.25,836.941c-3.3,0-4.8-1.5-4.8-4.8v-86.7c0-3.3,1.5-4.8,4.8-4.8h44.6c20.1,0,26.4,9.1,26.4,22.4v6.2
		c0,7.5-1.9,12.9-7.5,15.3c9.8,1.1,16.2,8.2,16.2,19.4v28.4c0,3.3-1.5,4.8-4.8,4.8h-20.7c-3.3,0-4.8-1.5-4.8-4.8v-20.5
		c0-4-1.3-5.8-5.1-5.8h-18.8v26.2c0,3.3-1.5,4.8-4.8,4.8h-20.7L592.25,836.941L592.25,836.941z M617.75,781.741h10
		c4.7,0,5.9-2.7,5.9-6.3v-4.5c0-3.6-1.2-6.3-5.9-6.3h-10V781.741z"/>
	<path class="st5" d="M681.15,736.141c-3.1,0.4-4.6-1.3-4.6-4.4v-12.9c0-3.3,1.5-4.4,4.8-4.8l42.7-5.8c3.1-0.4,4.6,1.3,4.6,4.4v12.9
		c0,3.3-1.5,4.4-4.8,4.8L681.15,736.141z M691.85,836.941c-3.3,0-4.8-1.5-4.8-4.8v-86.7c0-3.3,1.5-4.8,4.8-4.8h21.3
		c3.3,0,4.8,1.5,4.8,4.8v86.7c0,3.3-1.5,4.8-4.8,4.8H691.85z"/>
	<path class="st5" d="M760.45,836.941h-19.7c-3.3,0-4.8-1.5-4.8-4.8v-66.3c0-16.2,7.4-27.3,40.6-27.3c33.3,0,40.8,11.1,40.8,27.3
		v66.3c0,3.3-1.5,4.8-4.8,4.8h-20.3c-3.3,0-4.8-1.5-4.8-4.8v-19.9h-22.1v19.9C765.25,835.441,763.75,836.941,760.45,836.941z
		 M765.25,787.641h22.1v-17.3c0-3.6-1.6-6.3-11-6.3c-9.5,0-11.1,2.7-11.1,6.3V787.641z"/>
	<path class="st4" d="M53.75,814.541c-1.3,1.6-1.9,2.4-1.9,4.1v1.9c0,2.5,1.3,3.1,2.8,3.1h45.1v1.3h-45.1c-2.9,0-4.1-1.3-4.1-4.4
		v-2.1c0-2,0.9-3.3,2.3-5l39.2-50.3c1.3-1.6,1.9-2.4,1.9-4.2v-1.9c0-2.5-1.3-3.1-2.8-3.1h-40.9v-1.3h40.8c2.9,0,4.1,1.3,4.1,4.4v2.1
		c0,2-0.9,3.3-2.3,5L53.75,814.541z"/>
	<path class="st4" d="M192.25,800.741h-49.7v24.2h-1.3v-55.8c0-10.8,5-18.1,26-18.1s26.4,7.2,26.4,18.1v55.8h-1.3v-24.2H192.25z
		 M142.65,799.441h49.7v-30.3c0-10-5.1-16.7-25-16.7s-24.6,6.7-24.6,16.7v30.3H142.65z"/>
	<path class="st4" d="M242.05,798.641v26.4h-1.3v-72.3h28.9c16.9,0,20.1,7.8,20.1,18.2v9.9c0,10.4-3.2,17.8-20.1,17.8
		L242.05,798.641L242.05,798.641z M269.65,797.241c15.8,0,18.7-6.8,18.7-16.5v-9.8c0-9.6-2.9-16.9-18.7-16.9h-27.6v43.2H269.65z"/>
	<path class="st4" d="M382.15,800.741h-49.7v24.2h-1.3v-55.8c0-10.8,5-18.1,26-18.1s26.4,7.2,26.4,18.1v55.8h-1.3v-24.2H382.15z
		 M332.45,799.441h49.7v-30.3c0-10-5.1-16.7-25-16.7s-24.6,6.7-24.6,16.7v30.3H332.45z"/>
	<path class="st4" d="M448.25,754.041h-27.5v-1.3h56.2v1.3h-27.4v70.9h-1.3L448.25,754.041L448.25,754.041z"/>
	<path class="st4" d="M559.65,825.041h-24.4c-17.4,0-21.4-4.8-21.4-17.3v-37.5c0-12.7,4.3-17.5,21.4-17.5h24.4v1.3h-24.4
		c-15.8,0-20.1,4.3-20.1,16.2v17.4h35.1v1.3h-35.1v18.7c0,11.6,4,15.9,20.1,15.9h24.4V825.041z"/>
	<path class="st4" d="M601.95,825.041v-72.3h30.5c10.4,0,15.3,6.4,15.3,15.3v9.2c0,8.2-1.6,13.5-8,15.5h1.5c11,0,16.2,5,16.2,14.3
		v17.9h-1.3v-17.9c0-8.8-4.7-13.1-14.9-13.1h-37.9v31.1H601.95z M603.25,754.041v38.7h29.2c11.1,0,13.9-5.5,13.9-15.4v-9.4
		c0-8.3-4.4-13.9-13.9-13.9L603.25,754.041L603.25,754.041z"/>
	<path class="st4" d="M716.35,719.941v1.3l-28,3.5v-1.3L716.35,719.941z M703.25,752.741v72.3h-1.3v-72.3H703.25z"/>
	<path class="st4" d="M801.65,800.741h-49.7v24.2h-1.3v-55.8c0-10.8,5-18.1,26-18.1s26.4,7.2,26.4,18.1v55.8h-1.3v-24.2H801.65z
		 M751.95,799.441h49.7v-30.3c0-10-5.1-16.7-25-16.7s-24.6,6.7-24.6,16.7v30.3H751.95z"/>
</g>
<g>
	<g>
		<g>
			<path class="st6" d="M72.95,19.241h14.4v153.7h-14.4c-4.3,0-6.2-1.6-6.2-5.1v-3.4c-13.2,0-24-9-24-19.9h-4
				c-4.3,0-6.2-1.6-6.2-5.1v-86.7c0-3.6,1.9-5.1,6.2-5.1h4.1c0-11,10.8-19.9,24-19.9v-3.4C66.75,20.741,68.65,19.241,72.95,19.241z"
				/>
			<path class="st6" d="M258.65,172.841h-185v-153.6h185V172.841z"/>
			<path class="st6" d="M429.95,172.841h-185v-153.6h185V172.841z"/>
			<path class="st6" d="M601.25,172.841h-185v-153.6h185V172.841z"/>
			<path class="st6" d="M772.55,172.841h-185v-153.6h185V172.841z"/>
			<path class="st6" d="M779.45,24.341v3.4c13.2,0,24,9,24,19.9h4.1c4.3,0,6.2,1.6,6.2,5.1v86.5c0,3.6-1.9,5.1-6.2,5.1h-4.1
				c0,11-10.8,19.9-24,19.9v3.4c0,3.6-1.9,5.1-6.2,5.1h-14.4v-153.5h14.4C777.55,19.241,779.45,20.741,779.45,24.341z"/>
		</g>
		<g>
			<path class="st5" d="M72.95,23.441c-0.7,0-1,0.3-1,0.9v7.7h-5.2c-10.3,0-18.8,7.1-18.8,15.7v4.2h-9.2c-0.7,0-1,0.3-1,0.9v86.5
				c0,0.6,0.3,0.9,1,0.9h9.3v4.3c0,8.5,8.6,15.7,18.8,15.7h5.1v7.7c0,0.6,0.3,0.9,1,0.9h14.4v1.4h-14.4c-2.1,0-2.7-0.6-2.7-2.3v-6.3
				h-3.5c-11.3,0-20.6-7.7-20.6-17.1v-2.8h-7.4c-2.1,0-2.7-0.6-2.7-2.3v-86.7c0-1.7,0.7-2.3,2.7-2.3h7.5v-2.8
				c0-9.4,9.3-17.1,20.6-17.1h3.4v-6.3c0-1.7,0.7-2.3,2.7-2.3h14.4v1.4h-14.4V23.441z"/>
			<path class="st5" d="M255.25,170.041H77.05v-148h178.2V170.041z M253.55,23.441H78.75v145.1h174.7v-145.1
				C253.45,23.441,253.55,23.441,253.55,23.441z"/>
			<path class="st5" d="M426.55,170.041h-178.2v-148h178.2V170.041z M424.85,23.441h-174.8v145.1h174.7v-145.1
				C424.75,23.441,424.85,23.441,424.85,23.441z"/>
			<path class="st5" d="M597.85,170.041h-178.2v-148h178.2V170.041z M596.15,23.441h-174.8v145.1h174.7v-145.1
				C596.05,23.441,596.15,23.441,596.15,23.441z"/>
			<path class="st5" d="M769.15,170.041h-178.2v-148h178.2V170.041z M767.45,23.441h-174.8v145.1h174.7v-145.1
				C767.35,23.441,767.45,23.441,767.45,23.441z"/>
			<path class="st5" d="M758.85,22.041h14.4c2.1,0,2.7,0.6,2.7,2.3v6.3h3.4c11.3,0,20.6,7.7,20.6,17.1v2.8h7.5
				c2.1,0,2.7,0.6,2.7,2.3v86.5c0,1.7-0.7,2.3-2.7,2.3h-7.5v2.8c0,9.4-9.3,17.1-20.6,17.1h-3.4v6.3c0,1.7-0.7,2.3-2.7,2.3h-14.4
				v-1.4h14.4c0.7,0,1-0.3,1-0.9v-7.7h5.1c10.3,0,18.8-7.1,18.8-15.7v-4.3h9.3c0.7,0,1-0.3,1-0.9v-86.5c0-0.6-0.3-0.9-1-0.9h-9.3
				v-4.3c0-8.5-8.6-15.7-18.8-15.7h-5.1v-7.7c0-0.6-0.3-0.9-1-0.9h-14.4V22.041z"/>
		</g>
		<rect x="74.95" y="23.441" class="st6" width="697" height="145.1"/>
	</g>
	<g>
		<path class="st7" d="M105.25,137.441c-2.7,0-3.9-1.2-3.9-3.9v-70.1c0-2.7,1.2-3.9,3.9-3.9h33.1c19.7,0,25.5,8.6,25.5,21.1v13.9
			c0,12.6-5.8,21.1-25.5,21.1h-12.4v18c0,2.7-1.2,3.9-3.9,3.9h-16.8V137.441z M153.05,92.041v-8c0-8.4-2.6-14.7-16.2-14.7h-23.4
			v58.5h1.1v-21.3h22.3C150.45,106.441,153.05,100.441,153.05,92.041z M114.55,70.341h22.3c12.8,0,15.2,5.8,15.2,13.6v8
			c0,7.8-2.4,13.3-15.2,13.3h-22.3V70.341z M125.65,96.141h9.7c4.2,0,5.1-2.5,5.1-5.3v-5.7c0-2.8-0.9-5.3-5.1-5.3h-9.7
			C125.65,79.841,125.65,96.141,125.65,96.141z"/>
		<path class="st7" d="M179.05,137.441c-2.7,0-3.9-1.2-3.9-3.9v-70.1c0-2.7,1.2-3.9,3.9-3.9h16.8c2.7,0,3.9,1.2,3.9,3.9v23.5h18.1
			v-23.5c0-2.7,1.2-3.9,3.9-3.9h16.8c2.7,0,3.9,1.2,3.9,3.9v70.2c0,2.7-1.2,3.9-3.9,3.9h-16.8c-2.7,0-3.9-1.2-3.9-3.9v-24h-18.1v24
			c0,2.7-1.2,3.9-3.9,3.9h-16.8V137.441z M187.95,127.741v-28.7h41.6v28.7h1.1v-58.5h-1.1v28.7h-41.6v-28.7h-1.1v58.5H187.95z"/>
		<path class="st7" d="M256.15,117.041v-36.9c0-13.2,6.6-22.2,33.6-22.2c6.8,0,12.2,0.5,16.7,1.6c3.2-0.1,4-1.2,4-3.1v-2.3
			c0-2.6,0.8-3.4,3.2-3.4h12c2.7,0,3.9,1.2,3.9,3.9v4.8c0,5.6-1.7,10.2-7.4,12.8c0.8,2.5,1.1,5.1,1.1,7.9v36.9
			c0,13.2-6.5,22.1-33.6,22.1C262.75,139.141,256.15,130.241,256.15,117.041z M311.55,114.541v-31.9c0-4.7-1.4-8.4-5.2-11
			c10.5-0.6,13.9-6.8,13.9-12.4v-1h-1.1v1c0,5.8-4.4,11.5-14.5,11.5c-3.5-1.6-8.2-2.6-15-2.6c-17,0-21.8,5.8-21.8,14.6v31.9
			c0,8.8,4.8,14.6,21.8,14.6S311.55,123.341,311.55,114.541z M289.55,69.041c16.1,0,20.9,5.4,20.9,13.5v31.9
			c0,8.1-4.8,13.5-20.9,13.5s-20.7-5.4-20.7-13.5v-31.8C268.85,74.441,273.45,69.041,289.55,69.041z M282.15,56.541
			c-1.4,0.2-1.9-0.3-2.2-1.7l-1.2-8.6c-0.2-1.4,0.4-2.1,1.8-2.3l9.6-1.5c1.4-0.2,2.1-0.5,2.1-1.8c0-1.1-0.9-1.5-2.1-1.5h-14
			c-1.4,0-2.1-0.6-2.1-2.1v-7.9c0-1.4,0.6-2.1,2.1-2.1h18.2c7.4,0,11.7,3.8,11.7,11v6.9c0,6.4-3.4,8.7-8.8,9.4L282.15,56.541z
			 M295.35,48.741c2.3-0.3,4.4-1.4,4.4-5.5v-5.4c0-4.2-2.7-5.3-5.4-5.3h-14.7v1.1h14.7c2.2,0,4.3,0.9,4.3,4.2v5.4
			c0,3-1.4,4.2-3.6,4.5l-10.3,1.5l0.1,1.1L295.35,48.741z M289.75,118.241c7.9,0,9.1-2.2,9.1-5.1v-29.1c0-2.8-1.2-5-9.1-5
			c-7.8,0-9.1,2.2-9.1,5v29.1C280.75,116.041,281.95,118.241,289.75,118.241z"/>
		<path class="st7" d="M367.55,137.441c-2.7,0-3.9-1.2-3.9-3.9v-24.8h-2.5c-2.7,0-3.9-1.1-3.9-3.9v-11.6c0-2.7,1.2-3.9,3.9-3.9h2.5
			v-26c0-2.7,1.2-3.9,3.9-3.9h36.5c20.5,0,26.6,9,26.6,22.1v33.8c0,13.1-6.2,22.1-26.6,22.1H367.55z M401.65,127.741
			c14.9,0,17.3-6.4,17.3-14.7v-28.7c0-8.3-2.6-15-17.3-15h-26.4v29.3h-8.2v1.1h8.2v28L401.65,127.741L401.65,127.741z
			 M386.45,98.641h-10.2v-28.3h25.3c13.6,0,16.2,6.1,16.2,14v28.7c0,7.9-2.4,13.6-16.2,13.6h-25.3v-27h10.2V98.641z M401.05,117.041
			c4.3,0,5.1-2.4,5.1-5.3v-26.3c0-2.8-0.8-5.2-5.1-5.2h-13.2v9.2h4.4c2.7,0,3.9,1.1,3.9,3.9v11.6c0,2.8-1.2,3.9-3.9,3.9h-4.4v8.2
			C387.85,117.041,401.05,117.041,401.05,117.041z"/>
		<path class="st7" d="M462.55,137.441h-15.9c-2.7,0-3.9-1.2-3.9-3.9v-28.6c0-4.3,1.3-9.7,4.2-17.3l9.4-24.6
			c0.9-2.5,2.6-3.6,5.5-3.6h29.1c2.8,0,4.5,1.1,5.4,3.6l9.4,24.6c2.9,7.6,4.2,13,4.2,17.3v28.6c0,2.7-1.2,3.9-3.9,3.9h-16.3
			c-2.9,0-4.2-1.2-4.2-3.9v-15.2h-19.2v15.2C466.45,136.341,465.25,137.441,462.55,137.441z M457.55,51.341
			c-2.7-0.3-3.9-1.2-3.9-3.9v-10.4c0-2.5,1.2-3.9,3.7-3.6l37.8,4.7c2.7,0.3,3.9,1.2,3.9,3.9v10.4c0,2.5-1.2,3.9-3.7,3.6
			L457.55,51.341z M498.65,127.741v-23.1c0-4-0.6-7.4-1.8-10.5l-7.5-17.6c-1.7-4.2-3-7.3-7.8-7.3h-10.6c-5,0-6.3,3.1-7.9,7.1
			l-6.9,17.8c-1.2,3.1-1.8,6.5-1.8,10.5v23.1h1.1v-18.6h42.2v18.6C497.65,127.741,498.65,127.741,498.65,127.741z M457.05,94.641
			l6.9-17.8c1.4-3.7,2.6-6.5,6.9-6.5h10.6c4,0,5.2,2.8,6.8,6.6l7.5,17.6c1.1,2.9,1.7,6.2,1.7,10.1v3.4h-42.2v-3.4
			C455.35,100.741,455.95,97.541,457.05,94.641z M489.35,46.841v-1.1l-25.9-3.2v1.1L489.35,46.841z M467.55,98.741h17l-5.1-16.5
			c-0.5-1.3-1.2-1.8-2.1-1.8h-2.7c-0.9,0-1.5,0.5-2.1,1.8L467.55,98.741z"/>
		<path class="st7" d="M571.85,63.441v53.2h27.6c2.7,0,3.9,1.2,3.9,3.9v13.1c0,2.7-1.2,3.9-3.9,3.9h-48.3c-2.7,0-3.9-1.2-3.9-3.9
			v-70.2c0-2.7,1.2-3.9,3.9-3.9h16.8C570.65,59.541,571.85,60.741,571.85,63.441z M559.05,127.741h34.5v-1.1h-33.5v-57.4h-1.1v58.5
			H559.05z"/>
		<path class="st7" d="M631.95,137.441h-15.9c-2.7,0-3.9-1.2-3.9-3.9v-28.6c0-4.3,1.3-9.7,4.2-17.3l9.4-24.6
			c0.9-2.5,2.6-3.6,5.5-3.6h29.1c2.8,0,4.5,1.1,5.4,3.6l9.4,24.6c2.9,7.6,4.2,13,4.2,17.3v28.6c0,2.7-1.2,3.9-3.9,3.9h-16.3
			c-2.9,0-4.2-1.2-4.2-3.9v-15.2h-19.2v15.2C635.85,136.341,634.65,137.441,631.95,137.441z M668.05,127.741v-23.1
			c0-4-0.6-7.4-1.8-10.5l-7.5-17.6c-1.7-4.2-3-7.3-7.8-7.3h-10.6c-5,0-6.3,3.1-7.9,7.1l-6.9,17.8c-1.2,3.1-1.8,6.5-1.8,10.5v23.1
			h1.1v-18.6h42.2v18.6C667.05,127.741,668.05,127.741,668.05,127.741z M626.45,94.641l6.9-17.8c1.4-3.7,2.6-6.5,6.9-6.5h10.6
			c4,0,5.2,2.8,6.8,6.6l7.5,17.6c1.1,2.9,1.7,6.2,1.7,10.1v3.4h-42.1v-3.4C624.75,100.741,625.35,97.541,626.45,94.641z
			 M637.25,163.441c-2.7,0-3.9-1.2-3.9-3.9v-13.7c0-2.7,1.2-3.9,3.9-3.9h17.1c2.7,0,3.9,1.2,3.9,3.9v13.7c0,2.7-1.2,3.9-3.9,3.9
			H637.25z M636.95,98.741h17l-5.1-16.5c-0.5-1.3-1.2-1.8-2.1-1.8h-2.7c-0.9,0-1.5,0.5-2.1,1.8L636.95,98.741z M646.35,149.541h-1.1
			v6.4h1.1V149.541z"/>
		<path class="st7" d="M707.75,137.441c-2.7,0-3.9-1.2-3.9-3.9v-53.1h-15.9c-2.7,0-3.9-1.2-3.9-3.9v-13.1c0-2.7,1.2-3.9,3.9-3.9
			h57.2c2.7,0,3.9,1.2,3.9,3.9v13.1c0,2.7-1.2,3.9-3.9,3.9h-15.9v53.2c0,2.7-1.2,3.9-3.9,3.9h-17.6L707.75,137.441L707.75,137.441z
			 M717.05,127.741v-57.4h22.2v-1.1h-45.5v1.1h22.2v57.4H717.05z"/>
	</g>
</g>
<g>
	<g>
		<path class="st8" d="M178.85,331.641v89.1c-17.2,21.5-44.7,32.2-72.3,32.2c-27.9,0-55.7-10.9-73.1-32.2v-89.1
			c17.8-21.4,45.2-32.2,72.7-32.2S161.05,310.241,178.85,331.641z"/>
		<path class="st8" d="M337.65,331.641v89.1c-17.2,21.5-44.7,32.2-72.3,32.2c-27.9,0-55.7-10.9-73.1-32.2v-89.1
			c17.8-21.4,45.2-32.2,72.7-32.2S319.85,310.241,337.65,331.641z"/>
		<path class="st8" d="M496.45,331.641v89.1c-17.3,21.5-44.7,32.2-72.3,32.2c-27.9,0-55.7-10.9-73.1-32.2v-89.1
			c17.8-21.4,45.2-32.2,72.7-32.2S478.65,310.241,496.45,331.641z"/>
		<path class="st8" d="M655.15,331.641v89.1c-17.2,21.5-44.7,32.2-72.3,32.2c-27.9,0-55.7-10.9-73.1-32.2v-89.1
			c17.8-21.4,45.2-32.2,72.7-32.2S637.45,310.241,655.15,331.641z"/>
		<path class="st8" d="M813.95,331.641v89.1c-17.2,21.5-44.6,32.2-72.2,32.2c-27.9,0-55.7-10.9-73.1-32.2v-89.1
			c17.8-21.4,45.2-32.2,72.7-32.2S796.25,310.241,813.95,331.641z"/>
	</g>
	<g>
		<g>
			<path class="st9" d="M65.25,416.841v-12.3c0-1.9,0.5-3,1.5-3.9l10.5-8.8c-7.4-2.3-11.9-7.1-11.9-17.3v-11
				c0-6.3,2.1-11.2,6.1-14.6l13.6-11.4c3.8-3.1,9.4-4.9,16.6-4.9h34.8c3.4,0,4.8,1.5,4.8,4.8v12.5c0,1.9-0.5,3-1.5,3.9l-9.7,8.1
				c8.6,2,13.9,6.8,13.9,17.8v11c0,6.3-2.1,11.2-6.2,14.6l-13.5,11.3c-3.9,3.2-9.5,5-16.6,5h-37.5
				C66.75,421.641,65.25,420.241,65.25,416.841z"/>
			<path class="st9" d="M223.55,397.641v-48.7c0-1.9,0.5-3,1.5-3.9l13.5-11.4c0.7-0.6,1.9-0.9,3.4-0.9h16.4c3.4,0,4.8,1.5,4.8,4.8
				v9.5c0.2-0.8,0.5-1.5,1-1.9l0.1-0.1l13.6-11.4c0.7-0.6,1.8-0.9,3.4-0.9h15.9c3.4,0,4.8,1.5,4.8,4.8v51.9c0,6.5-1.6,12-6.4,16
				l-13.5,11.4c-4.8,4-12.9,6.4-26.1,6.4C229.65,423.241,223.55,410.841,223.55,397.641z"/>
			<path class="st9" d="M444.35,420.641c-0.6,0.6-1.8,1-3.2,1h-53.4c-3.4,0-4.8-1.5-4.8-4.8v-12.5c0-1.9,0.5-3,1.5-3.9l13.5-11.4
				c0.6-0.5,1.6-0.8,2.8-0.9v-21.7h-13c-3.4,0-4.8-1.5-4.8-4.8v-12.7c0-1.9,0.5-3,1.5-3.9l13.5-11.4c0.7-0.6,1.9-0.9,3.4-0.9h53.4
				c3.4,0,4.8,1.5,4.8,4.8v12.7c0,1.9-0.5,3-1.5,3.9l-13.6,11.3l0.1-0.1c-0.6,0.6-1.6,1-2.8,1.2v21.7h13c3.4,0,4.8,1.5,4.8,4.8v12.5
				c0,1.9-0.5,3-1.5,3.9L444.35,420.641z"/>
			<path class="st9" d="M563.85,421.641c-3.4,0-4.8-1.5-4.8-4.8v-50.4h-14c-3.4,0-4.8-1.5-4.8-4.8v-12.7c0-1.9,0.5-3,1.5-3.9
				l13.5-11.4c0.7-0.6,1.9-0.9,3.4-0.9h55.3c3.4,0,4.8,1.5,4.8,4.8v12.7c0,1.9-0.5,3-1.5,3.9l-13.6,11.3c-0.6,0.6-1.8,1-3.2,1h-0.5
				v39c0,1.9-0.5,3-1.5,3.9l-13.7,11.3c-0.6,0.6-1.8,1-3.2,1H563.85z"/>
			<path class="st9" d="M698.45,416.841v-12.3c0-1.9,0.5-3,1.5-3.9l10.5-8.8c-7.4-2.3-11.9-7.1-11.9-17.3v-11
				c0-6.3,2.1-11.2,6.1-14.6l13.6-11.4c3.8-3.1,9.4-4.9,16.6-4.9h34.8c3.4,0,4.8,1.5,4.8,4.8v12.5c0,1.9-0.5,3-1.5,3.9l-9.7,8.1
				c8.6,2,13.9,6.8,13.9,17.8v11c0,6.3-2.1,11.2-6.2,14.6l-13.5,11.3c-3.9,3.2-9.5,5-16.6,5h-37.5
				C699.95,421.641,698.45,420.241,698.45,416.841z"/>
		</g>
		<g>
			<path class="st10" d="M83.65,409.241c-2.6,0-3.8-1.2-3.8-3.8v-12.3c0-2.6,1.2-3.8,3.8-3.8h32.6c1.8,0,2.7-1.4,2.7-3
				c0-2.4-0.9-3.4-2.7-3.6l-20.1-2.2c-9.8-1.5-16.2-5.7-16.2-17.4v-11c0-11.9,8.1-18.4,21.7-18.4h34.8c2.6,0,3.8,1.2,3.8,3.8v12.5
				c0,2.6-1.2,3.8-3.8,3.8h-29.9c-1.8,0-2.8,1.3-2.8,3.1s1,3.1,2.8,3.4l20,2.1c9.8,1.5,16.3,5.7,16.3,17.4v11
				c0,11.9-8.2,18.4-21.7,18.4H83.65z"/>
			<path class="st10" d="M269.55,410.741c-25.1,0-31.4-8.6-31.4-21.4v-51.9c0-2.6,1.2-3.8,3.8-3.8h16.4c2.6,0,3.8,1.2,3.8,3.8v47.8
				c0,2.8,1.3,4.9,7.6,4.9c6.5,0,7.8-2.1,7.8-4.9v-47.8c0-2.6,1-3.8,3.8-3.8h15.9c2.6,0,3.8,1.2,3.8,3.8v51.9
				C301.05,402.141,294.75,410.741,269.55,410.741z"/>
			<path class="st10" d="M397.35,405.441v-12.5c0-2.6,1.2-3.8,3.8-3.8h14v-35.2h-14c-2.6,0-3.8-1.2-3.8-3.8v-12.7
				c0-2.6,1.2-3.8,3.8-3.8h53.4c2.6,0,3.8,1.2,3.8,3.8v12.7c0,2.6-1.2,3.8-3.8,3.8h-14v35.2h14c2.6,0,3.8,1.2,3.8,3.8v12.5
				c0,2.6-1.2,3.8-3.8,3.8h-53.4C398.55,409.241,397.35,408.041,397.35,405.441z"/>
			<path class="st10" d="M577.35,409.241c-2.6,0-3.8-1.2-3.8-3.8v-51.5h-15.1c-2.6,0-3.8-1.2-3.8-3.8v-12.7c0-2.6,1.2-3.8,3.8-3.8
				h55.3c2.6,0,3.8,1.2,3.8,3.8v12.7c0,2.6-1.2,3.8-3.8,3.8h-15v51.4c0,2.6-1.2,3.8-3.8,3.8h-17.6L577.35,409.241L577.35,409.241z"
				/>
			<path class="st10" d="M716.85,409.241c-2.6,0-3.8-1.2-3.8-3.8v-12.3c0-2.6,1.2-3.8,3.8-3.8h32.6c1.8,0,2.7-1.4,2.7-3
				c0-2.4-0.9-3.4-2.7-3.6l-20.1-2.2c-9.8-1.5-16.2-5.7-16.2-17.4v-11c0-11.9,8.1-18.4,21.7-18.4h34.8c2.6,0,3.8,1.2,3.8,3.8v12.5
				c0,2.6-1.2,3.8-3.8,3.8h-29.9c-1.8,0-2.8,1.3-2.8,3.1s1,3.1,2.8,3.4l20,2.1c9.8,1.5,16.3,5.7,16.3,17.4v11
				c0,11.9-8.2,18.4-21.7,18.4H716.85z"/>
		</g>
		<g>
			<path class="st11" d="M130.65,344.241h-28.7c-6,0-9.6,3.2-9.6,8.5v9.6c0,4.2,2.8,7,7.4,7.4l22.3,2.2c6.3,0.6,9.3,3.9,9.3,9.5v8.7
				c0,5.9-4.5,9.5-11.6,9.5h-30.5v-1h30.5c6.5,0,10.6-3.2,10.6-8.5v-8.7c0-5-2.7-8-8.5-8.5l-22.3-2.2c-5.1-0.5-8.3-3.8-8.3-8.5v-9.6
				c0-5.9,4.1-9.5,10.7-9.5h28.7V344.241z"/>
			<path class="st11" d="M250.75,343.241v43.7c0,7.9,4,13.1,18.5,13.1c15.2,0,19.5-5.2,19.5-13.1v-43.7h1v43.7
				c0,8.5-4.5,14.1-20.5,14.1c-15.4,0-19.6-5.7-19.6-14.1v-43.7H250.75z"/>
			<path class="st11" d="M406.85,399.741v-1h20.5v-54.5h-20.5v-1h42.1v1h-20.5v54.5h20.5v1H406.85z"/>
			<path class="st11" d="M585.65,344.241h-21.5v-1h44v1h-21.4v55.5h-1v-55.5H585.65z"/>
			<path class="st11" d="M763.85,344.241h-28.7c-6,0-9.6,3.2-9.6,8.5v9.6c0,4.2,2.8,7,7.4,7.4l22.3,2.2c6.3,0.6,9.3,3.9,9.3,9.5v8.7
				c0,5.9-4.5,9.5-11.6,9.5h-30.5v-1h30.5c6.5,0,10.6-3.2,10.6-8.5v-8.7c0-5-2.7-8-8.5-8.5l-22.3-2.2c-5.1-0.5-8.3-3.8-8.3-8.5v-9.6
				c0-5.9,4.1-9.5,10.7-9.5h28.7L763.85,344.241L763.85,344.241z"/>
		</g>
	</g>
</g>
<g>
	<path class="st6" d="M39.25,554.541c-2.3,0-3.3-1-3.3-3.3v-59.6c0-2.3,1-3.3,3.3-3.3h29.3c12.1,0,17.7,4.4,17.7,14.1v4.4
		c0,5.2-1.7,8.4-5.4,9.9c7.9,0.7,11.6,5.2,11.6,14.3v8.5c0,10.3-5.6,15.1-17.8,15.1h-35.4
		C39.25,554.641,39.25,554.541,39.25,554.541z M56.65,513.941h7.8c2.4,0,3.5-1.2,3.5-3.7v-2.6c0-2.5-1.1-3.7-3.5-3.7h-7.8
		C56.65,503.941,56.65,513.941,56.65,513.941z M56.65,538.941h12c2.4,0,3.5-1.2,3.5-3.7v-3.6c0-2.5-1.1-3.6-3.5-3.6h-12V538.941z"/>
	<path class="st6" d="M139.95,555.941c-23,0-28.6-7.5-28.6-18.8v-31.4c0-11.2,5.6-18.9,28.6-18.9s28.5,7.6,28.5,18.9v31.4
		C168.45,548.341,162.95,555.941,139.95,555.941z M139.95,538.141c6.7,0,7.7-1.8,7.7-4.3v-24.7c0-2.4-1-4.2-7.7-4.2
		c-6.6,0-7.7,1.8-7.7,4.2v24.7C132.25,536.341,133.35,538.141,139.95,538.141z"/>
	<path class="st6" d="M217.75,555.941c-22.8,0-28.4-7.5-28.4-18.8v-45.5c0-2.3,1-3.3,3.3-3.3h14.4c2.3,0,3.3,1,3.3,3.3v41.9
		c0,2.5,1.1,4.3,7.5,4.3c6.5,0,7.6-1.8,7.6-4.3v-41.9c0-2.3,0.9-3.3,3.3-3.3h14c2.3,0,3.3,1,3.3,3.3v45.5
		C246.15,548.341,240.55,555.941,217.75,555.941z"/>
	<path class="st6" d="M271.45,554.541c-2.3,0-3.3-1-3.3-3.3v-59.6c0-2.3,1-3.3,3.3-3.3h14.3c2.3,0,3.3,1,3.3,3.3v45.5h12.6v-14.9
		c0-2.3,1-3.3,3.3-3.3h13.3c2.3,0,3.3,1,3.3,3.3v29c0,2.3-1,3.3-3.3,3.3L271.45,554.541L271.45,554.541z"/>
	<path class="st6" d="M358.05,554.541h-13.5c-2.3,0-3.3-1-3.3-3.3v-45.5c0-11.1,5.1-18.8,27.9-18.8c22.9,0,28.1,7.6,28.1,18.8v45.5
		c0,2.3-1,3.3-3.3,3.3h-14c-2.3,0-3.3-1-3.3-3.3v-13.7h-15.2v13.7C361.35,553.541,360.35,554.541,358.05,554.541z M361.35,520.741
		h15.2v-11.9c0-2.5-1.1-4.3-7.5-4.3c-6.5,0-7.6,1.8-7.6,4.3v11.9H361.35z"/>
	<path class="st6" d="M447.05,486.941c22.8,0,28.4,7.5,28.4,18.8v45.5c0,2.3-1,3.3-3.3,3.3h-14.4c-2.3,0-3.3-1-3.3-3.3v-41.9
		c0-2.5-1.1-4.3-7.5-4.3c-6.5,0-7.6,1.8-7.6,4.3v41.9c0,2.3-0.9,3.3-3.3,3.3h-14c-2.3,0-3.3-1-3.3-3.3v-45.5
		C418.65,494.441,424.25,486.941,447.05,486.941z"/>
	<path class="st6" d="M518.95,554.541c-15.5,0-22.6-6-22.6-18.8v-28.7c0-12.8,7.2-18.8,22.6-18.8h23c2.3,0,3.3,1,3.3,3.3v11.1
		c0,2.3-1,3.3-3.3,3.3h-19.1c-3.9,0-5.6,1.5-5.6,4.6v22c0,3.1,1.4,4.5,4.2,4.5h8.9v-14.4c0-2.3,1-3.3,3.3-3.3h14.3
		c2.3,0,3.3,1,3.3,3.3v28.4c0,2.3-1,3.3-3.3,3.3h-29L518.95,554.541L518.95,554.541z"/>
	<path class="st6" d="M617.15,554.541h-23.4c-17.4,0-22.6-7.6-22.6-18.8v-28.6c0-11.2,5.2-18.9,22.6-18.9h23.4c2.3,0,3.3,1,3.3,3.3
		v10.8c0,2.3-1,3.3-3.3,3.3h-20.3c-4.8,0-5.6,2.2-5.6,4.6v2.5h18.5c2.3,0,3.3,0.9,3.3,3.3v9.8c0,2.3-1,3.3-3.3,3.3h-18.6v3.5
		c0,2.6,0.8,4.4,5.6,4.4h20.3c2.3,0,3.3,1,3.3,3.3v10.8C620.45,553.541,619.45,554.541,617.15,554.541z"/>
	<path class="st6" d="M644.25,554.541c-2.3,0-3.3-1-3.3-3.3v-59.6c0-2.3,1-3.3,3.3-3.3h30.6c13.8,0,18.1,6.3,18.1,15.4v4.2
		c0,5.2-1.3,8.8-5.2,10.5c6.7,0.7,11.1,5.6,11.1,13.3v19.5c0,2.3-1,3.3-3.3,3.3h-14.3c-2.3,0-3.3-1-3.3-3.3v-14.1c0-2.8-0.9-4-3.5-4
		h-12.7v18c0,2.3-1,3.3-3.3,3.3h-14.2L644.25,554.541L644.25,554.541z M661.75,516.641h6.9c3.2,0,4-1.8,4-4.3v-3.1
		c0-2.5-0.8-4.3-4-4.3h-6.9V516.641z"/>
	<path class="st6" d="M722.35,554.541c-2.3,0-3.3-1-3.3-3.3v-59.6c0-2.3,1-3.3,3.3-3.3h14.6c2.3,0,3.3,1,3.3,3.3v59.6
		c0,2.3-1,3.3-3.3,3.3H722.35z"/>
	<path class="st6" d="M807.75,554.541h-23.4c-17.4,0-22.6-7.6-22.6-18.8v-28.6c0-11.2,5.2-18.9,22.6-18.9h23.4c2.3,0,3.3,1,3.3,3.3
		v10.8c0,2.3-1,3.3-3.3,3.3h-20.3c-4.8,0-5.6,2.2-5.6,4.6v2.5h18.6c2.3,0,3.3,0.9,3.3,3.3v9.8c0,2.3-1,3.3-3.3,3.3h-18.6v3.5
		c0,2.6,0.8,4.4,5.6,4.4h20.3c2.3,0,3.3,1,3.3,3.3v10.8C811.05,553.541,810.05,554.541,807.75,554.541z"/>
</g>
<g>
	<path class="st0" d="M49.35,267.941c-0.5,0.5-1.3,0.8-2.4,0.8h-12c-2.5,0-3.6-1.1-3.6-3.6v-50.5c0-1.4,0.4-2.3,1.1-2.9l10-8.5
		c0.5-0.5,1.4-0.7,2.5-0.7h25.9c12.4,0,16.1,5.7,16.1,13.8v3.6c0,3.8-0.9,6.7-3,8.5h-0.1c4.9,1.4,8.1,5.5,8.1,11.7v16.5
		c0,1.4-0.4,2.3-1.1,2.9l-10,8.4c-0.5,0.5-1.3,0.8-2.4,0.8h-12.1c-2.5,0-3.6-1.1-3.6-3.6v-11.9c0-1.7-0.5-2.6-2.2-2.6h-0.1v6
		c0,1.4-0.4,2.3-1.1,2.9L49.35,267.941z M59.75,256.641v-15.3h10.9c2.2,0,3,1,3,3.3v11.9c0,1.9,0.9,2.8,2.8,2.8h12.1
		c1.9,0,2.8-0.9,2.8-2.8v-16.5c0-6.5-3.7-10.7-9.4-11.3c3.3-1.4,4.4-4.5,4.4-8.9v-3.6c0-7.7-3.7-13-15.3-13h-26.1
		c-1.9,0-2.8,0.9-2.8,2.8v50.5c0,1.9,0.9,2.8,2.8,2.8h12C58.85,259.441,59.75,258.641,59.75,256.641z M50.55,252.441v-42.1h17.8
		c6.1,0,8.9,3.7,8.9,8.9v5.4c0,4.8-0.9,7.9-4.7,9h0.9c6.4,0,9.4,2.9,9.4,8.3v10.4h-0.8v-10.4c0-5.1-2.7-7.6-8.6-7.6h-22v18.1H50.55z
		 M51.35,211.141v22.5h17c6.5,0,8.1-3.2,8.1-9v-5.5c0-4.8-2.6-8.1-8.1-8.1h-17V211.141z M65.55,217.441c2.7,0,3.4,1.6,3.4,3.7v2.6
		c0,2.1-0.7,3.7-3.4,3.7h-5.8v-10H65.55z"/>
	<path class="st0" d="M120.75,269.941c-20.4,0-25-9.2-25-19v-24.2c0-4.8,1.2-9,4.7-11.9l10.1-8.4c3.7-3.1,9.8-4.9,20.2-4.9
		c20.4,0,24.9,6.9,24.9,16.7v26.6c0,4.8-1.2,8.9-4.7,11.8l-10,8.4C137.35,268.141,131.05,269.941,120.75,269.941z M154.95,218.141
		c0-9.5-4.7-16-24.1-16s-24.2,6.5-24.2,16v26.6c0,9.5,4.8,15.9,24.2,15.9s24.1-6.4,24.1-15.9V218.141z M130.65,253.441
		c-12.2,0-15.7-4.2-15.7-10.5v-23c0-6.3,3.4-10.5,15.7-10.5s15.8,4.2,15.8,10.5v23C146.45,249.241,142.85,253.441,130.65,253.441z
		 M130.65,252.641c11.6,0,15-3.9,15-9.7v-23c0-5.8-3.4-9.7-15-9.7s-14.9,3.9-14.9,9.7v23
		C115.75,248.841,118.95,252.641,130.65,252.641z M124.25,220.941c0-2,0.9-3.6,6.5-3.6c5.7,0,6.5,1.6,6.5,3.6v21
		c0,2.1-0.9,3.7-6.5,3.7c-5.6,0-6.5-1.6-6.5-3.7V220.941z M126.45,244.241v-14.8c0-1-0.3-1.8-1.5-2.3v14.8
		C124.95,242.941,125.35,243.741,126.45,244.241z"/>
	<path class="st0" d="M160.35,265.141v-9.1c0-1.4,0.4-2.3,1.1-2.9l7.8-6.5c-5.5-1.7-8.9-5.3-8.9-12.9v-8.2c0-4.7,1.6-8.3,4.5-10.8
		l10.1-8.5c2.8-2.3,7-3.7,12.3-3.7h21.8c2.5,0,3.6,1.1,3.6,3.6v9.3c0,1.4-0.4,2.3-1.1,2.9l-7,5.8c6.6,1.5,10.9,5,10.9,13.4v8.2
		c0,4.7-1.6,8.3-4.6,10.8l-10,8.4c-2.9,2.4-7.1,3.7-12.3,3.7h-24.6C161.45,268.741,160.35,267.641,160.35,265.141z M214.75,245.741
		v-8.2c0-8.7-4.8-11.8-12.1-12.9l-11.6-1.6c-1.3-0.2-2.1-1.1-2.1-2.5s0.8-2.3,2.1-2.3h18.1c1.9,0,2.8-0.9,2.8-2.8v-9.3
		c0-1.9-0.9-2.8-2.8-2.8h-21.8c-10.1,0-16.1,4.8-16.1,13.7v8.2c0,8.7,4.8,11.8,12.1,12.9l11.7,1.6c1.3,0.2,2,0.9,2,2.6
		c0,1.2-0.7,2.3-2,2.3h-21c-1.9,0-2.8,0.9-2.8,2.8v9.1c0,1.9,0.9,2.8,2.8,2.8h24.6C208.65,259.441,214.75,254.641,214.75,245.741z
		 M204.85,211.141h-17.3c-4.4,0-7.2,2.6-7.2,6.3v6.4c0,3.7,1.6,4.8,4,5.2l16.4,3.3c3.1,0.6,5.4,2.2,5.4,7.6v4.5
		c0,4.6-3.3,7.9-8.6,7.9h-19.4v-0.8h19.4c4.8,0,7.9-3,7.9-7.1v-4.5c0-4.9-1.9-6.2-4.8-6.9l-16.4-3.3c-2.7-0.5-4.6-1.7-4.6-6v-6.4
		c0-4.1,3.1-7.1,7.9-7.1h17.3L204.85,211.141L204.85,211.141z"/>
	<path class="st0" d="M237.25,267.941c-0.5,0.5-1.3,0.8-2.4,0.8h-11.4c-2.5,0-3.6-1.1-3.6-3.6v-38.6c0-4.9,1.1-9,4.6-12l10.1-8.4
		c3.5-3,9.5-4.8,19.7-4.8c20.3,0,24.5,6.9,24.5,16.7v38.6c0,1.4-0.4,2.3-1.1,2.9l-10.1,8.4c-0.5,0.5-1.3,0.8-2.4,0.8h-11.8
		c-2.5,0-3.6-1.1-3.6-3.6v-10.8h-1.2v2.3c0,1.4-0.4,2.3-1.1,2.9L237.25,267.941z M247.65,245.041h12.9v11.6c0,1.9,0.9,2.8,2.8,2.8
		h11.8c1.9,0,2.8-0.9,2.8-2.8v-38.6c0-9.4-4.4-15.9-23.8-15.9c-19.3,0-23.6,6.5-23.6,15.9v38.6c0,1.9,0.9,2.8,2.8,2.8h11.4
		c1.9,0,2.8-0.9,2.8-2.8v-11.6L247.65,245.041L247.65,245.041z M268.85,238.341h-28.9v14.1h-0.8v-32.5c0-6.3,2.9-10.5,15.1-10.5
		c12.2,0,15.3,4.2,15.3,10.5v32.5h-0.8v-14.1H268.85z M239.95,237.541h28.9v-17.6c0-5.8-3-9.7-14.6-9.7s-14.3,3.9-14.3,9.7V237.541z
		 M254.15,217.141c5.5,0,6.4,1.6,6.4,3.7v10h-12.9v-10C247.65,218.641,248.55,217.141,254.15,217.141z M248.45,226.941v3h1.2v-0.8
		C249.65,228.341,249.35,227.541,248.45,226.941z"/>
	<path class="st0" d="M284.95,230.841v-2.3c0-1.1,0.3-1.8,0.9-2.3l1.6-1.4h-0.5c-1.9,0-2.8-0.9-2.8-2.8v-8.1c0-1.1,0.3-1.8,0.9-2.3
		l10-8.5c0.5-0.5,1.2-0.5,1.9-0.5h11.4c1.9,0,2.8,0.9,2.8,2.8v10.5c0,3.3-1.1,5.8-3,7.3l-10,8.5c-1.5,1.2-3.7,1.9-6.2,1.9h-4.2
		C285.85,233.641,284.95,232.841,284.95,230.841z M310.35,215.941v-10.5c0-1.4-0.6-2-2-2h-11.4c-1.4,0-1.9,0.6-1.9,2v8.3
		c0,1.4,0.5,2,1.9,2h6.2v0.9c0,1-0.5,1.6-1.6,1.6h-3.8c-1.4,0-2,0.6-2,2v2.3c0,1.5,0.6,2,2,2h4.3
		C307.05,224.441,310.35,221.741,310.35,215.941z M306.55,209.141v6.7c0,3-1.3,5.8-4.4,5.8h-3.2v-0.8h3.2c2.6,0,3.6-2.4,3.6-5v-5.9
		h-6.9v-0.8H306.55z"/>
	<path class="st0" d="M314.75,265.141v-9.1c0-1.4,0.4-2.3,1.1-2.9l7.8-6.5c-5.5-1.7-8.9-5.3-8.9-12.9v-8.2c0-4.7,1.6-8.3,4.5-10.8
		l10.1-8.5c2.8-2.3,7-3.7,12.3-3.7h21.8c2.5,0,3.6,1.1,3.6,3.6v9.3c0,1.4-0.4,2.3-1.1,2.9l-7,5.8c6.6,1.5,10.9,5,10.9,13.4v8.2
		c0,4.7-1.6,8.3-4.6,10.8l-10,8.4c-2.9,2.4-7.1,3.7-12.3,3.7h-24.6C315.85,268.741,314.75,267.641,314.75,265.141z M369.15,245.741
		v-8.2c0-8.7-4.8-11.8-12.1-12.9l-11.6-1.6c-1.3-0.2-2.1-1.1-2.1-2.5s0.8-2.3,2.1-2.3h18.1c1.9,0,2.8-0.9,2.8-2.8v-9.3
		c0-1.9-0.9-2.8-2.8-2.8h-21.8c-10.1,0-16.1,4.8-16.1,13.7v8.2c0,8.7,4.8,11.8,12.1,12.9l11.7,1.6c1.3,0.2,2,0.9,2,2.6
		c0,1.2-0.7,2.3-2,2.3h-21c-1.9,0-2.8,0.9-2.8,2.8v9.1c0,1.9,0.9,2.8,2.8,2.8h24.6C363.05,259.441,369.15,254.641,369.15,245.741z
		 M359.35,211.141h-17.3c-4.4,0-7.2,2.6-7.2,6.3v6.4c0,3.7,1.6,4.8,4,5.2l16.4,3.3c3.1,0.6,5.4,2.2,5.4,7.6v4.5
		c0,4.6-3.3,7.9-8.6,7.9h-19.4v-0.8h19.4c4.8,0,7.9-3,7.9-7.1v-4.5c0-4.9-1.9-6.2-4.8-6.9l-16.4-3.3c-2.7-0.5-4.6-1.7-4.6-6v-6.4
		c0-4.1,3.1-7.1,7.9-7.1h17.3L359.35,211.141L359.35,211.141z"/>
	<path class="st0" d="M403.45,268.741c-2.5,0-3.6-1.1-3.6-3.6v-50.5c0-1.4,0.4-2.3,1.1-2.9l10-8.5c0.5-0.5,1.4-0.7,2.5-0.7h12.1
		c2.5,0,3.6,1.1,3.6,3.6v31.7l0.2-0.2l10-8.5c0.5-0.5,1.4-0.7,2.5-0.7h11.3c2.5,0,3.6,1.1,3.6,3.6v24.5c0,1.4-0.4,2.3-1.1,2.9
		l-10.1,8.4c-0.5,0.5-1.3,0.8-2.4,0.8h-39.7V268.741z M455.95,256.641v-24.5c0-1.9-0.9-2.8-2.8-2.8h-11.3c-1.9,0-2.8,0.9-2.8,2.8
		v12.6h-10.7v-38.6c0-1.9-0.9-2.8-2.8-2.8h-12.1c-1.9,0-2.8,0.9-2.8,2.8v50.5c0,1.9,0.9,2.8,2.8,2.8h39.6
		C455.15,259.441,455.95,258.641,455.95,256.641z M419.25,210.441h0.8v41.3h27.1v-15.3h0.8v16.1h-28.7L419.25,210.441
		L419.25,210.441z"/>
	<path class="st0" d="M465.45,268.741c-2.5,0-3.6-1.1-3.6-3.6v-50.5c0-1.4,0.4-2.3,1.1-2.9l10-8.5c0.5-0.5,1.4-0.7,2.5-0.7h12.4
		c2.5,0,3.6,1.1,3.6,3.6v50.5c0,1.4-0.4,2.3-1.1,2.9l-10.1,8.4c-0.5,0.5-1.3,0.8-2.4,0.8L465.45,268.741L465.45,268.741z
		 M490.65,256.641v-50.5c0-1.9-0.9-2.8-2.8-2.8h-12.4c-1.9,0-2.8,0.9-2.8,2.8v50.5c0,1.9,0.9,2.8,2.8,2.8h12.4
		C489.85,259.441,490.65,258.641,490.65,256.641z M482.15,210.441v42.1h-0.8v-42.1L482.15,210.441L482.15,210.441z"/>
	<path class="st0" d="M516.55,275.741c-2.5,0-3.6-1.1-3.6-3.6v-3.6c-12.1-2-15.3-10.3-15.3-18.4v-23.5c0-4.8,1.2-9,4.7-11.9
		l10.1-8.4c3.7-3.1,9.8-4.9,20.2-4.9c20.4,0,24.9,6.9,24.9,16.7v25.9c0,4.8-1.2,8.9-4.7,11.8l-10,8.4c-0.3,0.2-0.5,0.5-0.9,0.6
		c-0.2,0.8-0.5,1.2-0.9,1.6l-10.1,8.4c-0.5,0.5-1.3,0.8-2.4,0.8h-12V275.741z M541.35,263.641v-4.3c12.2-1.7,15.4-7.5,15.4-15.3
		v-25.9c0-9.5-4.7-16-24.1-16c-19.5,0-24.2,6.5-24.2,16v25.9c0,7.9,3.3,13.6,15.3,15.3v4.3c0,1.9,0.9,2.8,2.8,2.8h12
		C540.55,266.441,541.35,265.641,541.35,263.641z M532.15,253.441c-11.9-0.1-15.3-4.3-15.3-10.5v-23c0-6.3,3.4-10.5,15.7-10.5
		s15.8,4.2,15.8,10.5v23c0,6.2-3.5,10.4-15.4,10.5v6h-0.8V253.441z M532.55,252.641c11.6,0,15-3.9,15-9.7v-23c0-5.8-3.4-9.7-15-9.7
		s-14.9,3.9-14.9,9.7v23C517.65,248.841,520.95,252.641,532.55,252.641z M526.15,221.041c0-2,0.9-3.6,6.5-3.6c5.7,0,6.5,1.6,6.5,3.6
		v21.3c0,2.1-0.9,3.7-6.5,3.7s-6.5-1.6-6.5-3.7V221.041z M528.35,244.641v-15.1c0-1-0.3-1.8-1.5-2.3v15
		C526.95,243.341,527.25,244.141,528.35,244.641z"/>
	<path class="st0" d="M563.25,250.941v-36.2c0-1.4,0.4-2.3,1.1-2.9l10-8.5c0.5-0.5,1.4-0.7,2.5-0.7h12.2c2.5,0,3.6,1.1,3.6,3.6v35.5
		c0,0.9,0.2,1.7,1.2,2.2v-29.2c0-1.4,0.3-2.3,0.9-2.8l0.1-0.1l10.1-8.5c0.5-0.5,1.3-0.7,2.5-0.7h11.8c2.5,0,3.6,1.1,3.6,3.6v38.6
		c0,4.8-1.2,8.9-4.7,11.8l-10.1,8.4c-3.7,3.1-9.8,4.9-20.1,4.9C567.85,269.941,563.25,260.741,563.25,250.941z M622.25,206.241
		c0-1.9-0.9-2.8-2.8-2.8h-11.8c-2,0-2.8,0.9-2.8,2.8v35.5c0,2.1-0.9,3.7-6.5,3.7c-5.5,0-6.4-1.6-6.4-3.7v-35.5
		c0-1.9-0.9-2.8-2.8-2.8h-12.2c-1.9,0-2.8,0.9-2.8,2.8v38.6c0,9.5,4.8,15.9,24.1,15.9s24.1-6.4,24.1-15.9v-38.6H622.25z
		 M583.45,210.441v32.5c0,5.8,3.2,9.7,14.8,9.7s14.9-3.9,14.9-9.7v-32.5h0.8v32.5c0,6.3-3.4,10.5-15.7,10.5s-15.6-4.2-15.6-10.5
		v-32.5H583.45z"/>
	<path class="st0" d="M653.65,269.941c-20.4,0-25-9.2-25-19v-24.2c0-4.8,1.2-9,4.7-11.9l10.1-8.4c3.7-3.1,9.8-4.9,20.2-4.9
		c20.4,0,24.9,6.9,24.9,16.7v26.6c0,4.8-1.2,8.9-4.7,11.8l-10,8.4C670.25,268.141,664.05,269.941,653.65,269.941z M687.85,218.141
		c0-9.5-4.7-16-24.1-16s-24.2,6.5-24.2,16v26.6c0,9.5,4.8,15.9,24.2,15.9s24.1-6.4,24.1-15.9V218.141z M663.55,253.441
		c-12.2,0-15.7-4.2-15.7-10.5v-23c0-6.3,3.4-10.5,15.7-10.5c12.2,0,15.8,4.2,15.8,10.5v23
		C679.35,249.241,675.85,253.441,663.55,253.441z M663.55,252.641c11.6,0,15-3.9,15-9.7v-23c0-5.8-3.4-9.7-15-9.7
		s-14.9,3.9-14.9,9.7v23C648.75,248.841,651.95,252.641,663.55,252.641z M657.15,220.941c0-2,0.9-3.6,6.5-3.6c5.7,0,6.5,1.6,6.5,3.6
		v21c0,2.1-0.9,3.7-6.5,3.7s-6.5-1.6-6.5-3.7V220.941z M659.45,244.241v-14.8c0-1-0.3-1.8-1.5-2.3v14.8
		C657.95,242.941,658.25,243.741,659.45,244.241z"/>
	<path class="st0" d="M712.75,267.941c-0.5,0.5-1.3,0.8-2.4,0.8h-12c-2.5,0-3.6-1.1-3.6-3.6v-50.5c0-1.4,0.4-2.3,1.1-2.9l10-8.5
		c0.5-0.5,1.4-0.7,2.5-0.7h25.9c12.4,0,16.1,5.7,16.1,13.8v3.6c0,3.8-0.9,6.7-3,8.5h-0.1c4.9,1.4,8.1,5.5,8.1,11.7v16.5
		c0,1.4-0.4,2.3-1.1,2.9l-10.1,8.4c-0.5,0.5-1.3,0.8-2.4,0.8h-12c-2.5,0-3.6-1.1-3.6-3.6v-11.9c0-1.7-0.5-2.6-2.2-2.6h-0.1v6
		c0,1.4-0.4,2.3-1.1,2.9L712.75,267.941z M723.15,256.641v-15.3h10.9c2.2,0,3,1,3,3.3v11.9c0,1.9,0.9,2.8,2.8,2.8h12.1
		c1.9,0,2.8-0.9,2.8-2.8v-16.5c0-6.5-3.7-10.7-9.4-11.3c3.3-1.4,4.4-4.5,4.4-8.9v-3.6c0-7.7-3.7-13-15.3-13h-25.9
		c-1.9,0-2.8,0.9-2.8,2.8v50.5c0,1.9,0.9,2.8,2.8,2.8h12C722.25,259.441,723.15,258.641,723.15,256.641z M713.95,252.441v-42.1h17.8
		c6.1,0,8.9,3.7,8.9,8.9v5.4c0,4.8-0.9,7.9-4.7,9h0.9c6.4,0,9.4,2.9,9.4,8.3v10.4h-0.8v-10.4c0-5.1-2.7-7.6-8.6-7.6h-22v18.1H713.95
		z M714.75,211.141v22.5h17c6.5,0,8.1-3.2,8.1-9v-5.5c0-4.8-2.6-8.1-8.1-8.1h-17V211.141z M728.95,217.441c2.7,0,3.4,1.6,3.4,3.7
		v2.6c0,2.1-0.7,3.7-3.4,3.7h-5.8v-10H728.95z"/>
	<path class="st0" d="M758.95,265.141v-9.1c0-1.4,0.4-2.3,1.1-2.9l7.8-6.5c-5.5-1.7-8.9-5.3-8.9-12.9v-8.2c0-4.7,1.6-8.3,4.5-10.8
		l10.1-8.5c2.8-2.3,7-3.7,12.3-3.7h21.9c2.5,0,3.6,1.1,3.6,3.6v9.3c0,1.4-0.4,2.3-1.1,2.9l-7,5.8c6.6,1.5,10.9,5,10.9,13.4v8.2
		c0,4.7-1.6,8.3-4.6,10.8l-10,8.4c-2.9,2.4-7.1,3.7-12.3,3.7h-24.6C760.05,268.741,758.95,267.641,758.95,265.141z M813.35,245.741
		v-8.2c0-8.7-4.8-11.8-12.1-12.9l-11.6-1.6c-1.3-0.2-2.1-1.1-2.1-2.5s0.8-2.3,2.1-2.3h18.1c1.9,0,2.8-0.9,2.8-2.8v-9.3
		c0-1.9-0.9-2.8-2.8-2.8h-21.8c-10.1,0-16.1,4.8-16.1,13.7v8.2c0,8.7,4.8,11.8,12.1,12.9l11.7,1.6c1.3,0.2,2,0.9,2,2.6
		c0,1.2-0.7,2.3-2,2.3h-20.9c-1.9,0-2.8,0.9-2.8,2.8v9.1c0,1.9,0.9,2.8,2.8,2.8h24.6C807.25,259.441,813.35,254.641,813.35,245.741z
		 M803.55,211.141h-17.3c-4.4,0-7.2,2.6-7.2,6.3v6.4c0,3.7,1.6,4.8,4,5.2l16.4,3.3c3.1,0.6,5.4,2.2,5.4,7.6v4.5
		c0,4.6-3.3,7.9-8.6,7.9h-19.4v-0.8h19.4c4.8,0,7.9-3,7.9-7.1v-4.5c0-4.9-1.9-6.2-4.8-6.9l-16.4-3.3c-2.7-0.5-4.6-1.7-4.6-6v-6.4
		c0-4.1,3.1-7.1,7.9-7.1h17.3L803.55,211.141L803.55,211.141z"/>
</g>
<g>
	<path class="st12" d="M820.95,931.141c1.2-1.4,1.2-3.6,0-5l-14.5-17.4c-0.6-0.7-0.7-1.9-0.4-2.8l10.5-26.8c0.6-1.3-0.5-2.8-1.8-2.6
		l-15.7,1.8c-3,0.4-3.5,0.4-5.4,0.4h-4.8h-84.9h-7.4h-84.8h-7.4h-84.9h-7.4h-84.9h-7.4h-84.9h-7.4h-84.7h-7.4h-84.9h-7.4h-84.8h-4.8
		c-1.8,0-2.4,0-5.4-0.4l-15.7-1.8c-1.4-0.2-2.4,1.3-1.8,2.6l10.5,26.8c0.4,0.8,0.3,2-0.4,2.8l-14.5,17.4c-1.2,1.4-1.2,3.6,0,5
		l14.5,17.4c0.6,0.7,0.8,1.9,0.4,2.8l-10.5,26.8c-0.6,1.3,0.5,2.8,1.8,2.6l15.7-1.8c3-0.4,3.5-0.4,5.4-0.4h4.8h84.9h7.4h84.9h7.4
		h84.9h7.4h84.9h7.4h84.9h7.4h84.9h7.4h84.9h7.4h84.9h4.8c1.8,0,2.4,0,5.4,0.4l15.7,1.8c1.4,0.2,2.4-1.3,1.8-2.6l-10.5-26.8
		c-0.5-0.8-0.3-2,0.4-2.8L820.95,931.141z"/>
	<g>
		<path class="st5" d="M83.75,960.441v-62.2h26.3c9,0,13.1,5.5,13.1,13.1v8c0,7-1.4,11.6-6.9,13.4h1.3c9.4,0,13.9,4.3,13.9,12.3
			v15.4h-1.2v-15.5c0-7.6-4-11.3-12.8-11.3h-32.5v26.7h-1.2V960.441z M84.95,899.341v33.3h25.1c9.6,0,12-4.7,12-13.3v-8.1
			c0-7.1-3.8-12-12-12h-25.1V899.341z"/>
		<path class="st5" d="M207.25,939.541h-42.8v20.9h-1.2v-48.1c0-9.3,4.3-15.6,22.4-15.6s22.7,6.2,22.7,15.6v48.1h-1.2v-20.9H207.25z
			 M164.45,938.341h42.8v-26c0-8.6-4.4-14.4-21.5-14.4s-21.2,5.8-21.2,14.4v26H164.45z"/>
		<path class="st5" d="M262.45,960.441v-23.3c-17.6-0.1-22.5-6.3-22.5-15.6v-23.4h1.2v23.4c0,8.6,4.7,14.4,21.9,14.4s22-5.8,22-14.4
			v-23.4h1.2v23.4c0,9.3-5.1,15.6-22.6,15.6v23.3H262.45z"/>
		<path class="st5" d="M310.05,896.341h11.3v9.9c0,4.5-2,8.5-6.5,8.5h-4.7v-1.2h4.7c3.8,0,5.3-3.6,5.3-7.4v-8.8h-10.1
			L310.05,896.341L310.05,896.341z"/>
		<path class="st5" d="M382.15,899.341h-25.6c-6.5,0-10.6,3.9-10.6,9.3v9.4c0,5.4,2.3,7,5.9,7.7l24.3,5c4.6,0.9,8,3.2,8,11.3v6.7
			c0,6.8-5,11.6-12.8,11.6h-28.7v-1.2h28.7c7.1,0,11.6-4.4,11.6-10.5v-6.7c0-7.3-2.8-9.2-7-10.1l-24.3-5c-4-0.8-6.8-2.5-6.8-8.9
			v-9.4c0-6.1,4.6-10.5,11.8-10.5h25.6v1.3L382.15,899.341L382.15,899.341z"/>
		<path class="st5" d="M441.95,898.141h27.9c15.7,0,18.4,7.1,18.4,16v30.5c0,8.9-2.5,15.7-18.4,15.7h-27.9V898.141z M443.15,899.341
			v59.9h26.7c14.8,0,17.3-6.1,17.3-14.5v-30.5c0-8.4-2.8-14.9-17.3-14.9H443.15z"/>
		<path class="st5" d="M523.65,898.141v62.2h-1.2v-62.2H523.65z"/>
		<path class="st5" d="M603.45,960.441v-48.1c0-8.6-4.7-14.4-21.9-14.4s-22,5.8-22,14.4v48.1h-1.2v-48.1c0-9.3,5.1-15.6,23.2-15.6
			s23,6.2,23,15.6v48.1H603.45z"/>
		<path class="st5" d="M676.95,960.441h-21c-15,0-18.4-4.1-18.4-14.9v-32.3c0-10.9,3.7-15.1,18.4-15.1h21v1.2h-21
			c-13.6,0-17.3,3.7-17.3,13.9v15h30.2v1.2h-30.2v16.1c0,10,3.5,13.7,17.3,13.7h21V960.441z"/>
		<path class="st5" d="M707.55,960.441v-62.2h26.3c9,0,13.1,5.5,13.1,13.1v8c0,7-1.4,11.6-6.9,13.4h1.3c9.4,0,13.9,4.3,13.9,12.3
			v15.4h-1.2v-15.5c0-7.6-4-11.3-12.8-11.3h-32.5v26.7h-1.2L707.55,960.441L707.55,960.441z M708.75,899.341v33.3h25.1
			c9.6,0,12-4.7,12-13.3v-8.1c0-7.1-3.8-12-12-12h-25.1V899.341z"/>
	</g>
</g>
</svg>
