<?xml version="1.0" encoding="utf-8"?>
<!-- Generator: Adobe Illustrator 17.1.0, SVG Export Plug-In . SVG Version: 6.00 Build 0)  -->
<!DOCTYPE svg PUBLIC "-//W3C//DTD SVG 1.1//EN" "http://www.w3.org/Graphics/SVG/1.1/DTD/svg11.dtd">
<svg version="1.1" id="Layer_1" xmlns="http://www.w3.org/2000/svg" xmlns:xlink="http://www.w3.org/1999/xlink" x="0px" y="0px"
	 viewBox="-56.3 -86.1 620 800" enable-background="new -56.3 -86.1 620 800" xml:space="preserve">
<path fill="#26839C" d="M245.6,444.2c-4.3-4.4-8.6-3.2-8.6,1.1v14.8h-5.1c-4.9,0-6.5-2.5-6.5-8v-6.3v-76.5v-8.6v-99.2v-8.6v-99.2
	V145V70.2V37.1V-0.5c0-2.7-1.7-4.7-6.1-3l-52.1,20.8L114.5-3.6c-3.8-1.5-5.6,0.5-5.6,3.2v37.6v33.1v74.8v8.6V253v8.6v99.2v8.6V446
	v31.4v0.9c0,47.6,26.7,79.2,86.2,79.2h41.9V574c0,4.4,4.6,5.4,8.6,1.1l55.6-59.2c4.1-4.4,4.7-8,0-13L245.6,444.2z"/>
<path fill="#26839C" d="M553.5-54.2h-16.6v-15.1c0-2.8-1.2-3.8-3.8-3.8H424.3c-2.7,0-3.8,1.1-3.8,3.8v15.1h-16.7
	c-2.7,0-3.8,1.1-3.8,3.8V0.9c0,2.8,1.2,3.8,3.8,3.8c11.2,0,16.6,6.1,16.6,16.6V26v62.3v8.6v99.2v8.6v147.2v8.6v63.3v80.6V538v2.3
	v4.6c0,16.6,11.5,27.6,58.2,27.6c46.8,0,58.2-11,58.2-27.6v-4.6V538v-33.6v-80.6v-63.3v-8.6V204.7v-8.6V96.9v-8.6V26v-3.8
	c0-10.9,5.3-17.3,16.6-17.3c2.7,0,3.8-1.1,3.8-3.8v-51.4C557.4-53.2,556.2-54.2,553.5-54.2z"/>
<g>
	<path fill="#FFFFFF" d="M455.6,84.4c-2.2,0-3.1-1-3.1-3.1V24.6c0-2.2,1-3.2,3.1-3.2h13.6c2.2,0,3.1,1,3.1,3.2v19H485v-19
		c0-2.2,1-3.2,3.1-3.2h13.6c2.2,0,3.1,1,3.1,3.2v56.7c0,2.2-1,3.1-3.1,3.1h-13.6c-2.2,0-3.1-1-3.1-3.1V61.9h-12.7v19.4
		c0,2.2-1,3.1-3.1,3.1H455.6z"/>
	<path fill="#FFFFFF" d="M468.4,158.8h-12.9c-2.2,0-3.1-1.1-3.1-3.2v-43.2c0-10.6,4.4-17.8,26.2-17.8c21.7,0,26.3,7.3,26.3,17.8
		v43.2c0,2.2-1,3.2-3.1,3.2h-13.5c-2.2,0-3.1-1.1-3.1-3.2v-13h-13.8v13C471.5,157.8,470.5,158.8,468.4,158.8z M471.5,126.5h13.7
		v-11.2c0-2.3-0.7-4.1-6.8-4.1c-6.2,0-6.9,1.7-6.9,4.1V126.5z"/>
	<path fill="#FFFFFF" d="M478.6,230.1c-2.5,2.8-6.5,4.3-13.1,4.3c-13.2,0-17.4-7.2-17.4-17.8v-43.2c0-2.2,1-3.2,3.1-3.2h10.3
		c2.2,0,3.1,1,3.1,3.2v40.5c0,2.3,0.6,3.5,2.8,3.5c2.2,0,2.8-1.1,2.8-3.5v-40.5c0-2.2,1-3.2,3.1-3.2h10.3c2.2,0,3.1,1,3.1,3.2v40.5
		c0,2.3,0.5,3.5,2.8,3.5c2.2,0,2.8-1.1,2.8-3.5v-40.5c0-2.2,0.9-3.2,3.1-3.2h10.3c2.2,0,3.1,1,3.1,3.2v43.2
		c0,10.6-4.2,17.8-17.4,17.8C485.1,234.5,481,232.9,478.6,230.1z"/>
	<path fill="#FFFFFF" d="M468.4,307.6h-12.9c-2.2,0-3.1-1.1-3.1-3.2v-43.2c0-10.6,4.4-17.8,26.2-17.8c21.7,0,26.3,7.3,26.3,17.8
		v43.2c0,2.2-1,3.2-3.1,3.2h-13.5c-2.2,0-3.1-1.1-3.1-3.2v-13h-13.8v13C471.5,306.4,470.5,307.6,468.4,307.6z M471.5,275.3h13.7
		v-11.2c0-2.3-0.7-4.1-6.8-4.1c-6.2,0-6.9,1.7-6.9,4.1V275.3z"/>
	<path fill="#FFFFFF" d="M472.3,378.7c0,2.2-1,3.1-3.1,3.1h-13.6c-2.2,0-3.1-1-3.1-3.1V322c0-2.2,1-3.2,3.1-3.2h13.6
		c2.2,0,3.1,1,3.1,3.2V378.7z M485,322c0-2.2,1-3.2,3.1-3.2h13.6c2.2,0,3.1,1,3.1,3.2v56.7c0,2.2-1,3.1-3.1,3.1h-13.6
		c-2.2,0-3.1-1-3.1-3.1V322z"/>
	<path fill="#FFFFFF" d="M468.4,456.2h-12.9c-2.2,0-3.1-1.1-3.1-3.2v-43.2c0-10.6,4.4-17.8,26.2-17.8c21.7,0,26.3,7.3,26.3,17.8V453
		c0,2.2-1,3.2-3.1,3.2h-13.5c-2.2,0-3.1-1.1-3.1-3.2v-13h-13.8v13C471.5,455.2,470.5,456.2,468.4,456.2z M471.5,423.9h13.7v-11.2
		c0-2.3-0.7-4.1-6.8-4.1c-6.2,0-6.9,1.7-6.9,4.1V423.9z"/>
	<path fill="#FFFFFF" d="M478.6,466.2c21.7,0,26.2,7.2,26.2,17.8v43.2c0,2.2-1,3.2-3.1,3.2H488c-2.2,0-3.1-1.1-3.1-3.2v-39.9
		c0-2.3-1-4.1-6.4-4.1s-6.4,1.7-6.4,4.1v39.9c0,2.2-0.9,3.2-3.1,3.2h-13.3c-2.2,0-3.1-1.1-3.1-3.2V484
		C452.4,473.4,457,466.2,478.6,466.2z"/>
</g>
<g>
	<path fill="#FFFFFF" d="M145.5,109.6c-2.2,0-3.1-1-3.1-3.1V49.8c0-2.2,1-3.2,3.1-3.2h13.6c2.2,0,3.1,1,3.1,3.2v43.2h13.6V78.9
		c0-2.2,1-3.1,3.1-3.1h12.7c2.2,0,3.1,1,3.1,3.1v27.6c0,2.2-1,3.1-3.1,3.1h-46.1V109.6z"/>
	<path fill="#FFFFFF" d="M143.2,183.5v-10.4c0-2.2,1-3.2,3.1-3.2H158v-29.4h-11.7c-2.2,0-3.1-1-3.1-3.2v-10.5c0-2.2,1-3.2,3.1-3.2
		h44.6c2.2,0,3.1,1,3.1,3.2v10.6c0,2.2-1,3.2-3.1,3.2h-11.7V170h11.7c2.2,0,3.1,1,3.1,3.2v10.4c0,2.2-1,3.1-3.1,3.1h-44.6
		C144.1,186.6,143.2,185.6,143.2,183.5z"/>
	<path fill="#FFFFFF" d="M161.8,270.8c-2.2,0-3.1-1-3.1-3.2v-4.9c-13.1-2-16.7-8.4-16.7-17.2v-29c0-10.6,5.2-17.9,26.6-17.9
		s26.6,7.3,26.6,17.9v29c0,8.9-3.5,15.2-16.8,17.2v4.8c0,2.2-1,3.2-3.1,3.2h-13.5V270.8z M168.6,247.8c5.8,0,6.8-1.7,6.8-4.1v-23.8
		c0-2.2-1-4.1-6.8-4.1c-5.8,0-6.7,1.7-6.7,4.1v23.8C161.8,246,162.8,247.8,168.6,247.8z"/>
	<path fill="#FFFFFF" d="M168.6,345c-21,0-26.2-7.2-26.2-17.8V284c0-2.2,1-3.2,3.1-3.2h13.7c2.2,0,3.1,1,3.1,3.2v39.9
		c0,2.3,1,4.1,6.4,4.1c5.4,0,6.4-1.7,6.4-4.1V284c0-2.2,0.9-3.2,3.1-3.2h13.3c2.2,0,3.1,1,3.1,3.2v43.2
		C194.8,337.8,189.6,345,168.6,345z"/>
	<path fill="#FFFFFF" d="M168.6,420.6c-21.4,0-26.6-7.2-26.6-17.8v-29.8c0-10.6,5.2-17.9,26.6-17.9s26.6,7.3,26.6,17.9v29.8
		C195.2,413.5,190,420.6,168.6,420.6z M168.6,403.8c5.8,0,6.8-1.7,6.8-4.1v-23.5c0-2.2-1-4.1-6.8-4.1c-5.8,0-6.7,1.7-6.7,4.1v23.5
		C161.8,402,162.8,403.8,168.6,403.8z"/>
	<path fill="#FFFFFF" d="M145.5,494.9c-2.2,0-3.1-1-3.1-3.1v-56.7c0-2.2,1-3.2,3.1-3.2h28.2c13.1,0,17.2,5.9,17.2,14.6v4.1
		c0,4.9-1.2,8.4-4.9,10c5.3,0.7,9.8,5.3,9.8,12.7v18.5c0,2.2-1,3.1-3.1,3.1H179c-2.2,0-3.1-1-3.1-3.1v-14c0-2.6-0.9-3.7-3.3-3.7
		h-10.4v17.8c0,2.2-1,3.1-3.1,3.1h-13.6V494.9z M162.1,458.9h5.6c3.1,0,3.8-1.7,3.8-4.1v-3.1c0-2.3-0.7-4.1-3.8-4.1h-5.6V458.9z"/>
</g>
<g>
	<path fill="#FFFFFF" d="M434.8-10.5c-1,0-1.4-0.4-1.4-1.4v-18.9h-5.7c-1,0-1.4-0.4-1.4-1.4v-4.7c0-1,0.4-1.4,1.4-1.4h20.3
		c1,0,1.4,0.4,1.4,1.4v4.7c0,1-0.4,1.4-1.4,1.4h-5.7v18.9c0,1-0.4,1.4-1.4,1.4H434.8z"/>
	<path fill="#FFFFFF" d="M466-10.5c-1,0-1.4-0.4-1.4-1.4v-25c0-1,0.4-1.4,1.4-1.4h5.9c1,0,1.4,0.4,1.4,1.4v8.3h6.4v-8.3
		c0-1,0.4-1.4,1.4-1.4h5.9c1,0,1.4,0.4,1.4,1.4V-12c0,1-0.4,1.4-1.4,1.4H481c-1,0-1.4-0.4-1.4-1.4v-8.5h-6.4v8.5
		c0,1-0.4,1.4-1.4,1.4H466V-10.5z"/>
	<path fill="#FFFFFF" d="M506.6-10.5c-1,0-1.4-0.4-1.4-1.4v-25c0-1,0.4-1.4,1.4-1.4h17.8c1,0,1.4,0.4,1.4,1.4v4.4
		c0,1-0.4,1.4-1.4,1.4h-10.5v3h7.4c1,0,1.4,0.4,1.4,1.4v4.1c0,1-0.4,1.4-1.4,1.4h-7.4v3.3h10.5c1,0,1.4,0.4,1.4,1.4v4.4
		c0,1-0.4,1.4-1.4,1.4h-17.8V-10.5z"/>
</g>
<g>
	<path fill="#265560" d="M377.5,320.5V216.9v-8.6V145v-44.6V73.1V28.5v-54.4v-5.6c0-2.1,0-2.8,0.4-6.3L380-56c0.2-1.6-1.5-2.8-3-2.1
		l-31.3,12.4c-1,0.5-2.3,0.4-3.2-0.4l-20.4-16.9c-1.6-1.4-4.2-1.4-5.8,0L296-46.1c-0.9,0.7-2.2,0.9-3.2,0.4l-31.3-12.4
		c-1.5-0.6-3.2,0.5-3,2.1l2.1,18.3c0.4,3.5,0.4,4.1,0.4,6.3v5.6v54.4v44.6v27.3V145v63.3v8.6v103.5v4.3v1.2c0,2.1,0,2.8-0.4,6.3
		l-2.1,18.3c-0.2,1.6,1.5,2.8,3,2.1l31.3-12.4c1-0.5,2.3-0.4,3.2,0.4l20.4,16.9c1.6,1.4,4.2,1.4,5.8,0l20.4-16.9
		c0.9-0.7,2.2-0.9,3.2-0.4l31.3,12.4c1.5,0.6,3.2-0.5,3-2.1l-2.1-18.3c-0.4-3.5-0.4-4.1-0.4-6.3v-1.2V320.5z"/>
	<path fill="#FFFFFF" d="M295.2,62.4c-2.2,0-3.3-1-3.3-3.3V0.1c0-2.2,1-3.3,3.3-3.3h28.3c12.4,0,17.5,5.9,17.5,14V15
		c0,4.7-1.4,8.2-5.4,9.9c6.5,0.6,11.5,5.6,11.5,14.1v8.4c0,9.1-6.1,15-17.7,15L295.2,62.4L295.2,62.4z M312.4,22.1h6.9
		c3,0,3.5-1.7,3.5-3.6v-2.6c0-1.9-0.5-3.6-3.5-3.6h-6.9V22.1z M312.4,46.9h11c3,0,3.5-1.7,3.5-3.6v-3.6c0-2-0.5-3.6-3.5-3.6h-11
		V46.9z"/>
	<path fill="#FFFFFF" d="M295.2,218.4c-2.2,0-3.3-1-3.3-3.3V156c0-2.2,1-3.3,3.3-3.3h29.3c13.7,0,17.9,6.2,17.9,15.2v4.2
		c0,5.1-1.2,8.8-5.1,10.4c5.6,0.7,10.1,5.6,10.1,13.2V215c0,2.2-1,3.3-3.3,3.3h-14.1c-2.2,0-3.3-1-3.3-3.3v-14.6c0-2.7-0.9-4-3.5-4
		h-10.9V215c0,2.2-1,3.3-3.3,3.3h-13.8V218.4z M312.5,180.8h5.8c3.2,0,4-1.9,4-4.3v-3.1c0-2.5-0.9-4.3-4-4.3h-5.8V180.8z"/>
	<path fill="#FFFFFF" d="M290.4,280.1l-5.8-5.8c-0.6-0.6-0.6-1.6,0.1-2.2l28.9-28.9c0.7-0.9,1.6-0.7,2.2-0.1l5.8,5.8
		c0.6,0.6,0.7,1.6-0.1,2.2l-28.9,28.9C292,280.8,291,280.8,290.4,280.1z M300.8,282.9c-1.1-1.1-1.7-2.3-1.9-3.2l-1.1-3.3l21-21
		l14.3,9.8c1,0.6,2.3,2,3.5,3.3l17.2,19.8c0.5,0.6,0.9,1.9,0,2.7l-3.1,3.1c-0.9,0.9-1.9,0.5-2.8-0.4l-16.9-17.1l-0.6,0.6l5.8,5.8
		c0.7,0.6,0.9,1.5,0.1,2.2l-2.6,2.6c-0.9,0.9-1.9,0.5-2.8-0.2l-6.8-6.1l-0.6,0.6l5.7,4.9c0.7,0.6,0.7,1.6,0,2.5l-2.8,2.8
		c-0.9,0.9-1.9,0.5-2.8-0.4l-6.5-5.7l-0.6,0.6l5.7,4.9c0.7,0.5,0.5,1.6,0,2.1l-3.1,3c-0.6,0.6-1.9,0.5-2.6-0.1L300.8,282.9z"/>
	<path fill="#FFFFFF" d="M309,139.2h-12.9c-2.2,0-3.1-1.1-3.1-3.2V92.8c0-10.6,4.4-17.8,26.2-17.8c21.7,0,26.3,7.3,26.3,17.8V136
		c0,2.2-1,3.2-3.1,3.2h-13.3c-2.2,0-3.1-1.1-3.1-3.2v-13h-13.7v12.9C312.2,138.1,311.2,139.2,309,139.2z M312.2,106.8h13.7V95.6
		c0-2.3-0.7-4.1-6.8-4.1c-6.2,0-6.9,1.7-6.9,4.1V106.8z"/>
</g>
<g>
	<path fill="#265560" d="M-32-72.3c0-2.4,1.1-3.5,3.5-3.5h54.4c29.4,0,46.3,16.9,46.3,46.4v54.3c0,2.4-1.1,3.5-3.5,3.5h-97.8
		c-1.6,0-2.9-1.3-2.9-2.9V-72.3z"/>
	<path fill="#265560" d="M-32,37.9c0-2.4,1.1-3.5,3.5-3.5h54.4c29.4,0,46.3,16.9,46.3,46.4v54.3c0,2.4-1.1,3.5-3.5,3.5h-97.8
		c-1.6,0-2.9-1.3-2.9-2.9V37.9z"/>
	<path fill="#265560" d="M-32,148.1c0-2.4,1.1-3.5,3.5-3.5h54.4c29.4,0,46.3,16.9,46.3,46.4v54.3c0,2.4-1.1,3.5-3.5,3.5h-97.8
		c-1.6,0-2.9-1.3-2.9-2.9V148.1z"/>
	<path fill="#265560" d="M-32,258.2c0-2.4,1.1-3.5,3.5-3.5h54.4c29.4,0,46.3,16.9,46.3,46.4v54.3c0,2.4-1.1,3.5-3.5,3.5h-97.8
		c-1.6,0-2.9-1.3-2.9-2.9V258.2z"/>
	<path fill="#265560" d="M-32,368.4c0-2.4,1.1-3.5,3.5-3.5h54.4c29.4,0,46.3,16.9,46.3,46.4v54.3c0,2.4-1.1,3.5-3.5,3.5h-97.8
		c-1.6,0-2.9-1.3-2.9-2.9V368.4z"/>
	<path fill="#265560" d="M-32,478.6c0-2.4,1.1-3.5,3.5-3.5h54.4c29.4,0,46.3,16.9,46.3,46.4v54.3c0,2.4-1.1,3.5-3.5,3.5h-97.8
		c-1.6,0-2.9-1.3-2.9-2.9V478.6z"/>
	<path fill="#FFFFFF" d="M13.6,7.9C-3,7.9-8,0.6-8-10v-27.3c0-10.7,5-18,21.6-18h27.5c2.2,0,3.2,1,3.2,3.2v10.6c0,2.2-1,3.2-3.2,3.2
		H17.4c-4.6,0-5.4,2.1-5.4,4.4v20.9c0,2.5,0.8,4.2,5.4,4.2h23.7c2.2,0,3.2,1,3.2,3.2V4.8c0,2.2-1,3.2-3.2,3.2H13.6z"/>
	<path fill="#FFFFFF" d="M11.7,118.1c-2.2,0-3.2-1-3.2-3.2V58.1c0-2.2,1-3.2,3.2-3.2h14c2.2,0,3.2,1,3.2,3.2v56.9
		c0,2.2-1,3.2-3.2,3.2H11.7z"/>
	<path fill="#FFFFFF" d="M18.7,164.4c21.8,0,26.3,7.2,26.3,17.9v43.4c0,2.2-1,3.2-3.2,3.2H28.1c-2.2,0-3.2-1.1-3.2-3.2v-40
		c0-2.4-1.1-4.1-6.4-4.1c-5.4,0-6.5,1.8-6.5,4.1v40c0,2.2-0.9,3.2-3.2,3.2H-4.5c-2.2,0-3.2-1.1-3.2-3.2v-43.4
		C-7.7,171.5-3.1,164.4,18.7,164.4z"/>
	<path fill="#FFFFFF" d="M-8,293.2c0-10.7,5-18,21.6-18h27.5c2.2,0,3.2,1,3.2,3.2v10.3c0,2.2-1,3.2-3.2,3.2h-24
		c-4.6,0-5.4,2.1-5.4,4.4v2.4h22.2c2.2,0,3.2,0.9,3.2,3.2v9.4c0,2.2-1,3.2-3.2,3.2H11.7v3.3c0,2.5,0.8,4.2,5.4,4.2h24
		c2.2,0,3.2,1,3.2,3.2v10.3c0,2.2-1,3.2-3.2,3.2H13.6C-3,338.4-8,331.1-8,320.5V293.2z"/>
	<path fill="#FFFFFF" d="M-12,446.1v-43.4c0-10.7,4.2-17.9,17.5-17.9c6.6,0,10.7,1.6,13.1,4.4c2.5-2.8,6.6-4.4,13.2-4.4
		c13.3,0,17.5,7.2,17.5,17.9v43.4c0,2.2-1,3.2-3.2,3.2H35.8c-2.3,0-3.2-1-3.2-3.2v-40.6c0-2.4-0.6-3.5-2.9-3.5s-2.8,1.1-2.8,3.5
		v40.6c0,2.2-1,3.2-3.2,3.2H13.5c-2.2,0-3.2-1-3.2-3.2v-40.6c0-2.4-0.5-3.5-2.8-3.5s-2.9,1.1-2.9,3.5v40.6c0,2.2-0.9,3.2-3.2,3.2
		H-8.8C-11,449.2-12,448.3-12,446.1z"/>
	<path fill="#FFFFFF" d="M-7.7,512.7c0-10.6,4.5-17.9,26.2-17.9c21.9,0,26.4,7.3,26.4,17.9v43.4c0,2.2-1,3.2-3.2,3.2H28.5
		c-2.2,0-3.2-1.1-3.2-3.2v-13.1H11.6v13.1c0,2.2-1,3.2-3.2,3.2H-4.5c-2.2,0-3.2-1.1-3.2-3.2V512.7z M11.6,527.1h13.8v-11.3
		c0-2.4-0.7-4.1-6.8-4.1c-6.2,0-6.9,1.8-6.9,4.1V527.1z"/>
</g>
</svg>
