<?xml version="1.0" encoding="utf-8"?>
<!-- Generator: Adobe Illustrator 17.1.0, SVG Export Plug-In . SVG Version: 6.00 Build 0)  -->
<!DOCTYPE svg PUBLIC "-//W3C//DTD SVG 1.1//EN" "http://www.w3.org/Graphics/SVG/1.1/DTD/svg11.dtd">
<svg version="1.1" id="Layer_1" xmlns="http://www.w3.org/2000/svg" xmlns:xlink="http://www.w3.org/1999/xlink" x="0px" y="0px"
	 width="660px" height="800px" viewBox="70 0 660 800" enable-background="new 70 0 660 800" xml:space="preserve">
<g>
	<path fill="#1A4249" stroke="#EF9D92" stroke-width="0.5" d="M204.5,265.3v71.3c-13.8,17.2-35.8,25.8-57.8,25.8
		c-22.3,0-44.6-8.7-58.5-25.8v-71.3c14.2-17.1,36.2-25.8,58.2-25.8S190.2,248.2,204.5,265.3z"/>
	<path fill="#1A4249" stroke="#EF9D92" stroke-width="0.5" d="M331.5,265.3v71.3c-13.8,17.2-35.8,25.8-57.8,25.8
		c-22.3,0-44.6-8.7-58.5-25.8v-71.3c14.2-17.1,36.2-25.8,58.2-25.8S317.3,248.2,331.5,265.3z"/>
	<path fill="#1A4249" stroke="#EF9D92" stroke-width="0.5" d="M458.6,265.3v71.3c-13.8,17.2-35.8,25.8-57.8,25.8
		c-22.3,0-44.6-8.7-58.5-25.8v-71.3c14.2-17.1,36.2-25.8,58.2-25.8S444.3,248.2,458.6,265.3z"/>
	<path fill="#1A4249" stroke="#EF9D92" stroke-width="0.5" d="M585.5,265.3v71.3c-13.8,17.2-35.8,25.8-57.8,25.8
		c-22.3,0-44.6-8.7-58.5-25.8v-71.3c14.2-17.1,36.2-25.8,58.2-25.8C549.4,239.6,571.4,248.2,585.5,265.3z"/>
	<path fill="#1A4249" stroke="#EF9D92" stroke-width="0.5" d="M712.6,265.3v71.3c-13.8,17.2-35.7,25.8-57.8,25.8
		c-22.3,0-44.6-8.7-58.5-25.8v-71.3c14.2-17.1,36.2-25.8,58.2-25.8S698.4,248.2,712.6,265.3z"/>
</g>
<g>
	<g>
		<path fill="#FFFFFF" d="M158.8,476.8c1.8,0,1.9,0.8,2.5,2.5l13.2,33.4c0.5,1.3,0.5,2.7,0,4l-13.2,33.2c-0.6,1.7-0.8,2.5-2.5,2.5
			H88.3c-1.8,0-3-1.1-2.4-2.8l13.8-35l-13.8-35c-0.7-1.7,0.6-2.8,2.4-2.8L158.8,476.8L158.8,476.8z"/>
		<path fill="#FFFFFF" d="M248.4,476.8c1.8,0,1.9,0.8,2.5,2.5l13.2,33.4c0.5,1.3,0.5,2.7,0,4l-13.2,33.2c-0.6,1.7-0.8,2.5-2.5,2.5
			h-70.5c-1.8,0-3-1.1-2.4-2.8l13.8-35l-13.8-35c-0.7-1.7,0.6-2.8,2.4-2.8L248.4,476.8L248.4,476.8z"/>
		<path fill="#FFFFFF" d="M337.9,476.8c1.8,0,1.9,0.8,2.5,2.5l13.2,33.4c0.5,1.3,0.5,2.7,0,4l-13.2,33.2c-0.6,1.7-0.8,2.5-2.5,2.5
			h-70.5c-1.8,0-3-1.1-2.4-2.8l13.8-35l-13.8-35c-0.7-1.7,0.6-2.8,2.4-2.8L337.9,476.8L337.9,476.8z"/>
		<path fill="#FFFFFF" d="M427.4,476.8c1.8,0,1.9,0.8,2.5,2.5l13.2,33.4c0.5,1.3,0.5,2.7,0,4L430,549.8c-0.6,1.7-0.8,2.5-2.5,2.5
			H357c-1.8,0-3-1.1-2.4-2.8l13.8-35l-13.8-35c-0.7-1.7,0.6-2.8,2.4-2.8L427.4,476.8L427.4,476.8z"/>
		<path fill="#FFFFFF" d="M517,476.8c1.8,0,1.9,0.8,2.5,2.5l13.2,33.4c0.5,1.3,0.5,2.7,0,4l-13.2,33.2c-0.6,1.7-0.8,2.5-2.5,2.5
			h-70.5c-1.8,0-3-1.1-2.4-2.8l13.8-35l-13.8-35c-0.7-1.7,0.6-2.8,2.4-2.8L517,476.8L517,476.8z"/>
		<path fill="#FFFFFF" d="M606.6,476.8c1.8,0,1.9,0.8,2.5,2.5l13.2,33.4c0.5,1.3,0.5,2.7,0,4L609,549.8c-0.6,1.7-0.8,2.5-2.5,2.5
			h-70.5c-1.8,0-3-1.1-2.4-2.8l13.8-35l-13.8-35c-0.7-1.7,0.6-2.8,2.4-2.8L606.6,476.8L606.6,476.8z"/>
		<path fill="#FFFFFF" d="M671.9,552.3h-46.2c-1.8,0-3-1.1-2.4-2.8l13.8-35l-13.8-35c-0.7-1.7,0.6-2.8,2.4-2.8h46.2v-9.8
			c0-2.8,3-3.8,5.6-0.7l36.1,44.1c2.6,3.2,2.6,5.2,0,8.4l-36.1,44.1c-2.1,2.5-5.6,1.4-5.6-0.7V552.3z"/>
	</g>
	<path fill="#144A56" d="M113.1,539.9c-1.8,0-2.5-0.8-2.5-2.5V492c0-1.8,0.8-2.5,2.5-2.5h36.2c1.8,0,2.5,0.8,2.5,2.5v8.2
		c0,1.8-0.8,2.5-2.5,2.5h-23v5.4h17.4c1.8,0,2.5,0.7,2.5,2.5v7.5c0,1.8-0.8,2.5-2.5,2.5h-17.4v6h23.1c1.8,0,2.5,0.8,2.5,2.5v8.2
		c0,1.8-0.8,2.5-2.5,2.5h-36.3C113.1,539.6,113.1,539.9,113.1,539.9z"/>
	<path fill="#144A56" d="M212.6,539.9h-10.6c-1.8,0-2.5-0.8-2.5-2.5v-7.5c0-4.3,0.8-5.6,2.6-8.6l4.6-7.6l-4.6-7.6
		c-1.8-3-2.6-4.2-2.6-8.6V492c0-1.8,0.8-2.5,2.5-2.5h10.8c1.8,0,2.5,0.8,2.5,2.5v4.8c0,1,0.1,2,0.6,3l2.5,4.4
		c0.4,0.8,0.9,1.2,1.7,1.2h0.8c0.8,0,1.2-0.3,1.7-1.2l2.5-4.4c0.6-1,0.6-1.9,0.6-3V492c0-1.8,0.8-2.5,2.5-2.5h10.6
		c1.8,0,2.5,0.8,2.5,2.5v5.4c0,4.3-0.8,5.6-2.6,8.6l-4.6,7.7l4.6,7.5c1.8,3,2.6,4.2,2.6,8.6v7.5c0,1.8-0.8,2.5-2.5,2.5h-10.6
		c-1.8,0-2.5-0.8-2.5-2.5v-7c0-1-0.1-1.9-0.6-3l-2.5-4.4c-0.5-0.9-0.9-1.2-1.7-1.2h-1c-0.8,0-1.2,0.3-1.7,1.2l-2.6,4.4
		c-0.6,1-0.6,1.9-0.6,3v7C215,539.1,214.3,539.9,212.6,539.9z"/>
	<path fill="#144A56" d="M290.8,539.9c-1.8,0-2.5-0.8-2.5-2.5V492c0-1.8,0.8-2.5,2.5-2.5H314c12.7,0,16.5,5.5,16.5,13.7v9
		c0,8.1-3.8,13.7-16.5,13.7h-9.8v11.6c0,1.8-0.8,2.5-2.5,2.5L290.8,539.9L290.8,539.9z M304,513.2h8.1c2.7,0,3.3-1.6,3.3-3.4V506
		c0-1.8-0.6-3.4-3.3-3.4H304V513.2z"/>
	<path fill="#144A56" d="M379.6,539.9c-1.8,0-2.5-0.8-2.5-2.5V492c0-1.8,0.8-2.5,2.5-2.5h22.6c10.5,0,13.8,4.7,13.8,11.7v3.2
		c0,3.9-1,6.7-3.9,8c4.2,0.6,7.8,4.2,7.8,10.2v14.8c0,1.8-0.8,2.5-2.5,2.5h-10.9c-1.8,0-2.5-0.8-2.5-2.5v-10.7c0-2.1-0.7-3-2.6-3
		H393v13.7c0,1.8-0.8,2.5-2.5,2.5L379.6,539.9L379.6,539.9L379.6,539.9z M392.9,511.1h4.5c2.5,0,3-1.4,3-3.3v-2.4
		c0-1.9-0.6-3.3-3-3.3h-4.5V511.1z"/>
	<path fill="#144A56" d="M468.6,539.9c-1.8,0-2.5-0.8-2.5-2.5V492c0-1.8,0.8-2.5,2.5-2.5h36.2c1.8,0,2.5,0.8,2.5,2.5v8.2
		c0,1.8-0.8,2.5-2.5,2.5h-23.1v5.4h17.4c1.8,0,2.5,0.7,2.5,2.5v7.5c0,1.8-0.8,2.5-2.5,2.5h-17.4v6h23.1c1.8,0,2.5,0.8,2.5,2.5v8.2
		c0,1.8-0.8,2.5-2.5,2.5h-36.2V539.9z"/>
	<path fill="#144A56" d="M557.4,539.9c-1.8,0-2.5-0.8-2.5-2.5v-8.2c0-1.8,0.8-2.5,2.5-2.5h21.8c1.2,0,1.8-0.9,1.8-2
		c0-1.6-0.6-2.2-1.8-2.4l-13.4-1.4c-6.6-1-10.9-3.8-10.9-11.6V502c0-8,5.4-12.3,14.5-12.3h23.2c1.8,0,2.5,0.8,2.5,2.5v8.3
		c0,1.8-0.8,2.5-2.5,2.5h-19.9c-1.2,0-1.9,0.8-1.9,2.1c0,1.3,0.7,2.1,1.9,2.2l13.4,1.4c6.6,1,10.9,3.8,10.9,11.6v7.4
		c0,8-5.4,12.3-14.5,12.3H557.4z"/>
	<path fill="#144A56" d="M646.2,539.9c-1.8,0-2.5-0.8-2.5-2.5v-8.2c0-1.8,0.8-2.5,2.5-2.5h21.8c1.2,0,1.8-0.9,1.8-2
		c0-1.6-0.6-2.2-1.8-2.4l-13.4-1.4c-6.6-1-10.9-3.8-10.9-11.6V502c0-8,5.4-12.3,14.5-12.3h23.2c1.8,0,2.5,0.8,2.5,2.5v8.3
		c0,1.8-0.8,2.5-2.5,2.5h-19.9c-1.2,0-1.9,0.8-1.9,2.1c0,1.3,0.7,2.1,1.9,2.2l13.4,1.4c6.6,1,10.9,3.8,10.9,11.6v7.4
		c0,8-5.4,12.3-14.5,12.3H646.2z"/>
</g>
<path fill="#DDCE43" d="M80.1,682.1c-3.4,0-5-1.5-5-5v-14.3c0-3.1,0.9-5.1,2.9-7.3l24.6-29.8H82c-3.4,0-5-1.5-5-5v-13
	c0-1.9,0.6-3.1,1.5-4l13.8-11.6c0.7-0.6,1.9-1,3.4-1h49.3c3.4,0,5,1.5,5,5v15.9c0,3.2-0.9,5.3-2.9,7.4l-23.4,28.4h23.4
	c3.4,0,5,1.5,5,5v12.7c0,1.9-0.6,3.1-1.5,4l-13.9,11.6c-0.6,0.6-1.8,1-3.3,1L80.1,682.1C80.1,682.2,80.1,682.1,80.1,682.1z"/>
<path fill="#DDCE43" d="M171.8,681.1c-0.6,0.6-1.8,1-3.3,1h-15.8c-3.4,0-5-1.5-5-5v-53c0-6.7,1.5-12.4,6.3-16.5L168,596
	c4.8-4.1,13-6.6,27.1-6.6c27.9,0,33.8,9.5,33.8,22.9v53.2c0,1.9-0.6,3.1-1.5,4l-13.9,11.6c-0.6,0.6-1.8,1-3.3,1h-16.2
	c-3.4,0-5-1.5-5-5v-14.9h-1.7v3.2c0,1.9-0.6,3.1-1.5,4L171.8,681.1z M187.2,624.8v4.2h1.7v-1C188.9,626.6,188.5,625.5,187.2,624.8z"
	/>
<path fill="#DDCE43" d="M232,682.1c-3.4,0-5-1.5-5-5v-69.4c0-1.9,0.6-3.1,1.5-4l13.8-11.7c0.7-0.6,1.9-1,3.4-1h32.8
	c20.5,0,26.3,9,26.3,21.9v13.7c0,6.9-1.7,12.6-6.4,16.6l-13.9,11.6c-3.5,3-9.1,5-17.3,5.4v5.1c0,1.9-0.6,3.1-1.5,4L251.9,681
	c-0.6,0.6-1.8,1-3.3,1L232,682.1L232,682.1L232,682.1z"/>
<path fill="#DDCE43" d="M323.6,681.1c-0.6,0.6-1.8,1-3.3,1h-15.8c-3.4,0-5-1.5-5-5v-53c0-6.7,1.5-12.4,6.3-16.5l13.9-11.6
	c4.8-4.1,13-6.6,27.1-6.6c27.9,0,33.8,9.5,33.8,22.9v53.2c0,1.9-0.6,3.1-1.5,4l-13.9,11.6c-0.6,0.6-1.8,1-3.3,1h-16.2
	c-3.4,0-5-1.5-5-5v-14.9h-1.7v3.2c0,1.9-0.6,3.1-1.5,4L323.6,681.1z M339,624.8v4.2h1.7v-1C340.7,626.6,340.3,625.5,339,624.8z"/>
<path fill="#DDCE43" d="M398,682.1c-3.4,0-5-1.5-5-5v-51.5h-14.6c-3.4,0-5-1.5-5-5v-13c0-1.9,0.6-3.1,1.5-4l13.8-11.7
	c0.7-0.6,1.9-1,3.4-1h56.6c3.4,0,5,1.5,5,5v13c0,1.9-0.6,3.1-1.5,4l-13.9,11.6c-0.6,0.6-1.8,1-3.3,1h-0.9v39.9c0,1.9-0.6,3.1-1.5,4
	l-13.9,11.6c-0.6,0.6-1.8,1-3.3,1L398,682.1L398,682.1L398,682.1z"/>
<path fill="#DDCE43" d="M473.8,682.1c-21.2,0-27.4-12.6-27.4-26.2v-30.1c0-7.3,1.8-13.4,6.7-17.4l13.8-11.7
	c4.2-3.5,10.8-5.6,20.6-5.6h27.2c3.4,0,5,1.5,5,5v12.6c0,1.9-0.6,3.1-1.5,4l-9.1,7.6c1.4,0.6,2,2,2,4.4v11.4c0,1.9-0.6,3.1-1.5,4
	l-9.5,8h14.6c3.4,0,5,1.5,5,5v12.5c0,1.9-0.6,3.1-1.5,4l-13.8,11.5c-0.6,0.6-1.8,1-3.3,1L473.8,682.1L473.8,682.1z"/>
<path fill="#DDCE43" d="M541.2,681.1c-0.6,0.6-1.8,1-3.4,1h-16.5c-3.4,0-5-1.5-5-5v-69.4c0-1.9,0.6-3.1,1.5-4l13.8-11.7
	c0.7-0.6,1.9-1,3.4-1h35.7c17,0,22.2,7.8,22.2,19v5c0,5.3-1.2,9.2-4.1,11.7h-0.1c6.7,1.9,11.1,7.6,11.1,16.1v22.7
	c0,1.9-0.6,3.1-1.5,4l-13.9,11.6c-0.6,0.6-1.8,1-3.3,1h-16.6c-3.4,0-5-1.5-5-5v-16.4c0-2.3-0.7-3.5-3-3.5h-0.1v8.2
	c0,1.9-0.6,3.1-1.5,4L541.2,681.1z"/>
<path fill="#DDCE43" d="M601.1,682.1c-3.4,0-5-1.5-5-5v-69.4c0-1.9,0.6-3.1,1.5-4l4.3-3.7l-9.3,1.3c-3.2,0.4-4.8-1.3-4.8-4.6v-10.3
	c0-1.9,0.6-3,1.4-3.8l13.8-11.7c0.6-0.6,1.8-1,3.3-1.2l34.2-4.6c3.2-0.4,4.8,1.3,4.8,4.6v10.3c0,1.8-0.6,3.1-1.5,3.8l-9.1,7.7
	c1.4,0.7,2,2.2,2,4.4v69.6c0,1.9-0.6,3.1-1.5,4l-13.9,11.6c-0.6,0.6-1.8,1-3.3,1L601.1,682.1L601.1,682.1L601.1,682.1z"/>
<path fill="#DDCE43" d="M659.2,681.1c-0.6,0.6-1.8,1-3.4,1h-15.8c-3.4,0-5-1.5-5-5v-53c0-6.7,1.5-12.4,6.3-16.5l13.9-11.6
	c4.8-4.1,13-6.6,27.1-6.6c27.9,0,33.8,9.5,33.8,22.9v53.2c0,1.9-0.6,3.1-1.5,4l-13.9,11.6c-0.6,0.6-1.8,1-3.3,1h-16.2
	c-3.4,0-5-1.5-5-5v-14.9h-1.7v3.2c0,1.9-0.6,3.1-1.5,4L659.2,681.1z M674.6,624.8v4.2h1.7v-1C676.4,626.6,675.9,625.5,674.6,624.8z"
	/>
<path fill="#AF9F25" d="M89,665.6v-14.4c0-3.1,0.9-5.1,2.9-7.3l24.6-29.8H95.8c-3.4,0-5-1.5-5-5v-13c0-3.4,1.5-5,5-5h49.3
	c3.4,0,5,1.5,5,5V612c0,3.2-0.9,5.3-2.9,7.4l-23.4,28.4h23.4c3.4,0,5,1.5,5,5v12.8c0,3.4-1.5,5-5,5H93.9C90.5,670.4,89,669,89,665.6
	z"/>
<path fill="#AF9F25" d="M161.6,665.6v-53c0-13.4,5.7-22.9,33.5-22.9c27.9,0,33.8,9.5,33.8,22.9v53c0,3.4-1.5,5-5,5h-16.3
	c-3.4,0-5-1.5-5-5v-14.9h-15.5v14.9c0,3.4-1.5,5-5,5h-15.8C163,670.4,161.6,669,161.6,665.6z M187.2,628.9h15.5v-12.7
	c0-2.6-1.8-4-7.7-4c-6,0-7.8,1.4-7.8,4L187.2,628.9L187.2,628.9z"/>
<path fill="#AF9F25" d="M241,665.6v-69.4c0-3.4,1.5-5,5-5h32.8c20.5,0,26.3,9,26.3,21.9v13.7c0,13-5.9,21.9-26.3,21.9h-11.3v16.8
	c0,3.4-1.5,5-5,5h-16.6C242.4,670.4,241,669,241,665.6z M267.2,613.4v14h8.6c3.3,0,4-2,4-4.2v-5.7c0-2.2-0.6-4.2-4-4.2H267.2z"/>
<path fill="#AF9F25" d="M313.4,665.6v-53c0-13.4,5.7-22.9,33.5-22.9c27.9,0,33.8,9.5,33.8,22.9v53c0,3.4-1.5,5-5,5h-16.2
	c-3.4,0-5-1.5-5-5v-14.9H339v14.9c0,3.4-1.5,5-5,5h-15.8C315,670.4,313.4,669,313.4,665.6z M339,628.9h15.5v-12.7c0-2.6-1.8-4-7.7-4
	c-6,0-7.8,1.4-7.8,4V628.9z"/>
<path fill="#AF9F25" d="M407,665.6V614h-14.6c-3.4,0-5-1.5-5-5v-13c0-3.4,1.5-5,5-5h56.6c3.4,0,5,1.5,5,5v13c0,3.4-1.5,5-5,5h-14.6
	v51.5c0,3.4-1.5,5-5,5h-17.4C408.4,670.4,407,669,407,665.6z"/>
<path fill="#AF9F25" d="M460.2,647.6v-33.3c0-13.6,6.2-23,27.4-23h27.2c3.4,0,5,1.5,5,5v12.6c0,3.4-1.5,5-5,5h-23.7
	c-4.5,0-5.4,1.9-5.4,4.3v1.8h20.6c3.4,0,5,1.4,5,5v11.4c0,3.4-1.5,5-5,5h-20.6v3c0,2.5,1,4.1,5.4,4.1h23.7c3.4,0,5,1.5,5,5v12.3
	c0,3.4-1.5,5-5,5h-27.2C466.5,670.4,460.2,661.1,460.2,647.6z"/>
<path fill="#AF9F25" d="M535.2,670.4c-3.4,0-5-1.5-5-5v-69.4c0-3.4,1.5-5,5-5h35.7c17,0,22.2,7.8,22.2,19v5c0,5.3-1.2,9.2-4.2,11.7
	c6.7,1.9,11.1,7.6,11.1,16.1v22.7c0,3.4-1.5,5-5,5h-16.6c-3.4,0-5-1.5-5-5v-16.4c0-2.3-0.7-3.5-3-3.5h-13.9v19.9c0,3.4-1.5,5-5,5
	L535.2,670.4L535.2,670.4L535.2,670.4z M556.6,612.7v11.6h7c3,0,3.7-1.7,3.7-4v-3.7c0-2.2-0.6-4-3.7-4L556.6,612.7L556.6,612.7z"/>
<path fill="#AF9F25" d="M601.6,585.2v-10.3c0-3.3,1.4-4.5,4.8-5l34.2-4.6c3.2-0.4,4.8,1.3,4.8,4.6v10.3c0,3.3-1.4,4.5-4.8,5
	l-34.2,4.6C603.2,590.3,601.6,588.5,601.6,585.2z M631.9,670.4h-17c-3.4,0-5-1.5-5-5v-69.4c0-3.4,1.5-5,5-5h17c3.4,0,5,1.5,5,5v69.4
	C636.9,669,635.4,670.4,631.9,670.4z"/>
<path fill="#AF9F25" d="M649,665.6v-53c0-13.4,5.7-22.9,33.5-22.9c27.9,0,33.8,9.5,33.8,22.9v53c0,3.4-1.5,5-5,5h-16.2
	c-3.4,0-5-1.5-5-5v-14.9h-15.5v14.9c0,3.4-1.5,5-5,5H654C650.6,670.4,649,669,649,665.6z M674.6,628.9h15.5v-12.7c0-2.6-1.8-4-7.7-4
	c-6,0-7.8,1.4-7.8,4V628.9L674.6,628.9z"/>
<g>
	<path fill="#FFFFFF" d="M93.9,669.6c-2.6,0-3.8-1.2-3.8-3.8v-14.3c0-2.8,0.7-4.6,2.6-6.6l26-31.6H95.8c-2.6,0-3.8-1.2-3.8-3.8v-13
		c0-2.6,1.2-3.8,3.8-3.8h49.3c2.6,0,3.8,1.2,3.8,3.8v15.9c0,2.9-0.7,4.7-2.6,6.7l-24.9,30.1H147c2.6,0,3.8,1.2,3.8,3.8v12.7
		c0,2.6-1.2,3.8-3.8,3.8L93.9,669.6L93.9,669.6z"/>
	<path fill="#FFFFFF" d="M182.2,669.6h-15.8c-2.6,0-3.8-1.2-3.8-3.8v-53c0-13,5.9-21.8,32.5-21.8c26.6,0,32.6,8.9,32.6,21.8v53
		c0,2.6-1.2,3.8-3.8,3.8h-16.3c-2.6,0-3.8-1.2-3.8-3.8v-15.9h-17.7v15.9C186.1,668.4,184.9,669.6,182.2,669.6z M186.1,630.1h17.7
		v-13.8c0-2.9-1.3-5-8.8-5c-7.6,0-8.9,2.2-8.9,5V630.1z"/>
	<path fill="#FFFFFF" d="M245.8,669.6c-2.6,0-3.8-1.2-3.8-3.8v-69.4c0-2.6,1.2-3.8,3.8-3.8h32.8c19.5,0,25.3,8.5,25.3,20.9v13.7
		c0,12.4-5.8,20.9-25.3,20.9h-12.3v17.8c0,2.6-1.2,3.8-3.8,3.8L245.8,669.6L245.8,669.6z M266.1,628.7h9.6c4.2,0,5-2.5,5-5.3v-5.7
		c0-2.8-0.9-5.3-5-5.3h-9.6V628.7z"/>
	<path fill="#FFFFFF" d="M334.1,669.6h-15.8c-2.6,0-3.8-1.2-3.8-3.8v-53c0-13,5.9-21.8,32.5-21.8c26.6,0,32.6,8.9,32.6,21.8v53
		c0,2.6-1.2,3.8-3.8,3.8h-16.2c-2.6,0-3.8-1.2-3.8-3.8v-15.9H338v15.9C337.9,668.4,336.8,669.6,334.1,669.6z M337.9,630.1h17.7
		v-13.8c0-2.9-1.3-5-8.8-5c-7.6,0-8.9,2.2-8.9,5V630.1z"/>
	<path fill="#FFFFFF" d="M411.8,669.6c-2.6,0-3.8-1.2-3.8-3.8v-52.6h-15.8c-2.6,0-3.8-1.2-3.8-3.8v-13c0-2.6,1.2-3.8,3.8-3.8h56.6
		c2.6,0,3.8,1.2,3.8,3.8v13c0,2.6-1.2,3.8-3.8,3.8H433v52.6c0,2.6-1.2,3.8-3.8,3.8H411.8z"/>
	<path fill="#FFFFFF" d="M514.9,669.6h-27.2c-20.2,0-26.3-8.9-26.3-21.8v-33.3c0-13,6.1-21.9,26.3-21.9h27.2c2.6,0,3.8,1.2,3.8,3.8
		v12.6c0,2.6-1.2,3.8-3.8,3.8h-23.7c-5.6,0-6.6,2.6-6.6,5.4v2.9h21.6c2.6,0,3.8,1,3.8,3.8v11.4c0,2.6-1.2,3.8-3.8,3.8h-21.6v4.1
		c0,3,1,5.1,6.6,5.1h23.7c2.6,0,3.8,1.2,3.8,3.8v12.6C518.7,668.4,517.5,669.6,514.9,669.6z"/>
	<path fill="#FFFFFF" d="M535.2,669.6c-2.6,0-3.8-1.2-3.8-3.8v-69.4c0-2.6,1.2-3.8,3.8-3.8h35.7c16.1,0,21.1,7.3,21.1,17.9v5
		c0,6-1.5,10.3-6,12.2c7.8,0.9,13,6.6,13,15.5v22.7c0,2.6-1.2,3.8-3.8,3.8h-16.6c-2.6,0-3.8-1.2-3.8-3.8v-16.4c0-3.2-1-4.6-4.1-4.6
		h-15v21c0,2.6-1.2,3.8-3.8,3.8L535.2,669.6L535.2,669.6L535.2,669.6z M555.6,625.4h8c3.8,0,4.7-2.2,4.7-5v-3.6c0-2.9-1-5-4.7-5h-8
		V625.4z"/>
	<path fill="#FFFFFF" d="M606.3,588.9c-2.5,0.3-3.7-1-3.7-3.5v-10.3c0-2.6,1.2-3.5,3.8-3.8l34.2-4.6c2.5-0.3,3.7,1,3.7,3.5v10.3
		c0,2.6-1.2,3.5-3.8,3.8L606.3,588.9z M614.9,669.6c-2.6,0-3.8-1.2-3.8-3.8v-69.4c0-2.6,1.2-3.8,3.8-3.8h17c2.6,0,3.8,1.2,3.8,3.8
		v69.4c0,2.6-1.2,3.8-3.8,3.8H614.9z"/>
	<path fill="#FFFFFF" d="M669.8,669.6H654c-2.6,0-3.8-1.2-3.8-3.8v-53c0-13,5.9-21.8,32.5-21.8c26.6,0,32.6,8.9,32.6,21.8v53
		c0,2.6-1.2,3.8-3.8,3.8h-16.2c-2.6,0-3.8-1.2-3.8-3.8v-15.9h-17.7v15.9C673.6,668.4,672.4,669.6,669.8,669.6z M673.6,630.1h17.7
		v-13.8c0-2.9-1.3-5-8.8-5c-7.6,0-8.9,2.2-8.9,5V630.1z"/>
</g>
<g>
	<path fill="#EEE254" d="M104.4,651.6c-1,1.3-1.5,1.9-1.5,3.3v1.5c0,2,1,2.5,2.2,2.5h36.1v1h-36.1c-2.3,0-3.3-1-3.3-3.5v-1.7
		c0-1.6,0.7-2.6,1.8-4l31.4-40.2c1-1.3,1.5-1.9,1.5-3.4v-1.5c0-2-1-2.5-2.2-2.5h-32.7v-1h32.6c2.3,0,3.3,1,3.3,3.5v1.7
		c0,1.6-0.7,2.6-1.8,4L104.4,651.6z"/>
	<path fill="#EEE254" d="M215.2,640.6h-39.8V660h-1v-44.6c0-8.6,4-14.5,20.8-14.5s21.1,5.8,21.1,14.5V660h-1L215.2,640.6
		L215.2,640.6z M175.5,639.6h39.8v-24.2c0-8-4.1-13.4-20-13.4s-19.7,5.4-19.7,13.4L175.5,639.6L175.5,639.6z"/>
	<path fill="#EEE254" d="M255,638.9V660h-1v-57.8h23.1c13.5,0,16.1,6.2,16.1,14.6v7.9c0,8.3-2.6,14.2-16.1,14.2L255,638.9L255,638.9
		z M277.1,637.8c12.6,0,15-5.4,15-13.2v-7.8c0-7.7-2.3-13.5-15-13.5H255v34.6H277.1z"/>
	<path fill="#EEE254" d="M367.1,640.6h-39.8V660h-1v-44.6c0-8.6,4-14.5,20.8-14.5s21.1,5.8,21.1,14.5V660h-1L367.1,640.6
		L367.1,640.6z M327.4,639.6h39.8v-24.2c0-8-4.1-13.4-20-13.4c-15.9,0-19.7,5.4-19.7,13.4L327.4,639.6L327.4,639.6z"/>
	<path fill="#EEE254" d="M420,603.2h-22v-1h45v1H421V660h-1L420,603.2L420,603.2z"/>
	<path fill="#EEE254" d="M509.1,660h-19.5c-13.9,0-17.1-3.8-17.1-13.8v-30c0-10.2,3.4-14,17.1-14h19.5v1h-19.5
		c-12.6,0-16.1,3.4-16.1,13v13.9h28.1v1h-28.1v15c0,9.3,3.2,12.7,16.1,12.7h19.5V660z"/>
	<path fill="#EEE254" d="M543,660v-57.8h24.4c8.3,0,12.2,5.1,12.2,12.2v7.4c0,6.6-1.3,10.8-6.4,12.4h1.2c8.8,0,13,4,13,11.4V660h-1
		v-14.3c0-7-3.8-10.5-11.9-10.5h-30.3V660H543z M544,603.2v31h23.4c8.9,0,11.1-4.4,11.1-12.3v-7.5c0-6.6-3.5-11.1-11.1-11.1
		L544,603.2L544,603.2z"/>
	<path fill="#EEE254" d="M634.5,576v1l-22.4,2.8v-1L634.5,576z M624,602.2V660h-1v-57.8H624z"/>
	<path fill="#EEE254" d="M702.7,640.6H663V660h-1v-44.6c0-8.6,4-14.5,20.8-14.5s21.1,5.8,21.1,14.5V660h-1L702.7,640.6L702.7,640.6z
		 M663,639.6h39.8v-24.2c0-8-4.1-13.4-20-13.4c-15.9,0-19.7,5.4-19.7,13.4L663,639.6L663,639.6z"/>
</g>
<g>
	<g>
		<g>
			<path fill="#432D2C" d="M119.8,15.4h11.5v123h-11.5c-3.4,0-5-1.3-5-4.1v-2.7c-10.6,0-19.2-7.2-19.2-15.9h-3.2c-3.4,0-5-1.3-5-4.1
				V42.2c0-2.9,1.5-4.1,5-4.1h3.3c0-8.8,8.6-15.9,19.2-15.9v-2.7C114.8,16.6,116.3,15.4,119.8,15.4z"/>
			<path fill="#432D2C" d="M268.3,138.3h-148V15.4h148V138.3z"/>
			<path fill="#432D2C" d="M405.4,138.3h-148V15.4h148V138.3z"/>
			<path fill="#432D2C" d="M542.4,138.3h-148V15.4h148V138.3z"/>
			<path fill="#432D2C" d="M679.4,138.3h-148V15.4h148V138.3z"/>
			<path fill="#432D2C" d="M685,19.5v2.7c10.6,0,19.2,7.2,19.2,15.9h3.3c3.4,0,5,1.3,5,4.1v69.2c0,2.9-1.5,4.1-5,4.1h-3.3
				c0,8.8-8.6,15.9-19.2,15.9v2.7c0,2.9-1.5,4.1-5,4.1h-11.5V15.4H680C683.4,15.4,685,16.6,685,19.5z"/>
		</g>
		<g>
			<path fill="#ECDFC1" d="M119.8,18.8c-0.6,0-0.8,0.2-0.8,0.7v6.2h-4.2c-8.2,0-15,5.7-15,12.6v3.4h-7.4c-0.6,0-0.8,0.2-0.8,0.7
				v69.2c0,0.5,0.2,0.7,0.8,0.7h7.4v3.4c0,6.8,6.9,12.6,15,12.6h4.1v6.2c0,0.5,0.2,0.7,0.8,0.7h11.5v1.1h-11.5
				c-1.7,0-2.2-0.5-2.2-1.8v-5h-2.8c-9,0-16.5-6.2-16.5-13.7v-2.2h-5.9c-1.7,0-2.2-0.5-2.2-1.8V42.2c0-1.4,0.6-1.8,2.2-1.8h6v-2.2
				c0-7.5,7.4-13.7,16.5-13.7h2.7v-5c0-1.4,0.6-1.8,2.2-1.8h11.5v1.1L119.8,18.8L119.8,18.8z"/>
			<path fill="#ECDFC1" d="M265.6,136H123V17.6h142.6V136z M264.2,18.8H124.4v116.1h139.8L264.2,18.8
				C264.2,18.8,264.2,18.8,264.2,18.8z"/>
			<path fill="#ECDFC1" d="M402.6,136H260.1V17.6h142.6V136z M401.3,18.8H261.4v116.1h139.8L401.3,18.8
				C401.2,18.8,401.3,18.8,401.3,18.8z"/>
			<path fill="#ECDFC1" d="M539.7,136H397.1V17.6h142.6V136z M538.3,18.8H398.5v116.1h139.8L538.3,18.8
				C538.2,18.8,538.3,18.8,538.3,18.8z"/>
			<path fill="#ECDFC1" d="M676.7,136H534.2V17.6h142.6V136z M675.4,18.8H535.5v116.1h139.8L675.4,18.8
				C675.3,18.8,675.4,18.8,675.4,18.8z"/>
			<path fill="#ECDFC1" d="M668.5,17.6H680c1.7,0,2.2,0.5,2.2,1.8v5h2.7c9,0,16.5,6.2,16.5,13.7v2.2h6c1.7,0,2.2,0.5,2.2,1.8v69.2
				c0,1.4-0.6,1.8-2.2,1.8h-6v2.2c0,7.5-7.4,13.7-16.5,13.7h-2.7v5c0,1.4-0.6,1.8-2.2,1.8h-11.5V135H680c0.6,0,0.8-0.2,0.8-0.7v-6.2
				h4.1c8.2,0,15-5.7,15-12.6v-3.4h7.4c0.6,0,0.8-0.2,0.8-0.7V42.2c0-0.5-0.2-0.7-0.8-0.7h-7.4V38c0-6.8-6.9-12.6-15-12.6h-4.1v-6.2
				c0-0.5-0.2-0.7-0.8-0.7h-11.5V17.6z"/>
		</g>
		<rect x="121.4" y="18.8" fill="#432D2C" width="557.6" height="116.1"/>
	</g>
	<g>
		<path fill="#F6ECCC" d="M145.6,110c-2.2,0-3.1-1-3.1-3.1V50.8c0-2.2,1-3.1,3.1-3.1h26.5c15.8,0,20.4,6.9,20.4,16.9v11.1
			c0,10.1-4.6,16.9-20.4,16.9h-9.9v14.4c0,2.2-1,3.1-3.1,3.1L145.6,110L145.6,110z M183.8,73.6v-6.4c0-6.7-2.1-11.8-13-11.8h-18.7
			v46.8h0.9v-17h17.8C181.8,85.2,183.8,80.4,183.8,73.6z M153,56.3h17.8c10.2,0,12.2,4.6,12.2,10.9v6.4c0,6.2-1.9,10.6-12.2,10.6
			H153V56.3z M161.9,76.9h7.8c3.4,0,4.1-2,4.1-4.2v-4.6c0-2.2-0.7-4.2-4.1-4.2h-7.8C161.9,63.9,161.9,76.9,161.9,76.9z"/>
		<path fill="#F6ECCC" d="M204.6,110c-2.2,0-3.1-1-3.1-3.1V50.8c0-2.2,1-3.1,3.1-3.1h13.4c2.2,0,3.1,1,3.1,3.1v18.8h14.5V50.8
			c0-2.2,1-3.1,3.1-3.1h13.4c2.2,0,3.1,1,3.1,3.1v56.2c0,2.2-1,3.1-3.1,3.1h-13.4c-2.2,0-3.1-1-3.1-3.1V87.7h-14.5v19.2
			c0,2.2-1,3.1-3.1,3.1L204.6,110L204.6,110z M211.8,102.2v-23H245v23h0.9V55.4H245v23h-33.3v-23h-0.9v46.8H211.8z"/>
		<path fill="#F6ECCC" d="M266.3,93.6V64.1c0-10.6,5.3-17.8,26.9-17.8c5.4,0,9.8,0.4,13.4,1.3c2.6-0.1,3.2-1,3.2-2.5v-1.8
			c0-2.1,0.6-2.7,2.6-2.7h9.6c2.2,0,3.1,1,3.1,3.1v3.8c0,4.5-1.4,8.2-5.9,10.2c0.6,2,0.9,4.1,0.9,6.3v29.5
			c0,10.6-5.2,17.7-26.9,17.7C271.6,111.3,266.3,104.2,266.3,93.6z M310.6,91.6V66.1c0-3.8-1.1-6.7-4.2-8.8
			c8.4-0.5,11.1-5.4,11.1-9.9v-0.8h-0.9v0.8c0,4.6-3.5,9.2-11.6,9.2c-2.8-1.3-6.6-2.1-12-2.1c-13.6,0-17.4,4.6-17.4,11.7v25.5
			c0,7,3.8,11.7,17.4,11.7S310.6,98.7,310.6,91.6z M293,55.2c12.9,0,16.7,4.3,16.7,10.8v25.5c0,6.5-3.8,10.8-16.7,10.8
			s-16.6-4.3-16.6-10.8V66.1C276.5,59.6,280.2,55.2,293,55.2z M287.1,45.2c-1.1,0.2-1.5-0.2-1.8-1.4l-1-6.9
			c-0.2-1.1,0.3-1.7,1.4-1.8l7.7-1.2c1.1-0.2,1.7-0.4,1.7-1.4c0-0.9-0.7-1.2-1.7-1.2h-11.2c-1.1,0-1.7-0.5-1.7-1.7v-6.3
			c0-1.1,0.5-1.7,1.7-1.7h14.6c5.9,0,9.4,3,9.4,8.8V36c0,5.1-2.7,7-7,7.5L287.1,45.2z M297.7,39c1.8-0.2,3.5-1.1,3.5-4.4v-4.3
			c0-3.4-2.2-4.2-4.3-4.2h-11.8v0.9h11.8c1.8,0,3.4,0.7,3.4,3.4v4.3c0,2.4-1.1,3.4-2.9,3.6l-8.2,1.2l0.1,0.9L297.7,39z M293.2,94.6
			c6.3,0,7.3-1.8,7.3-4.1V67.2c0-2.2-1-4-7.3-4c-6.2,0-7.3,1.8-7.3,4v23.3C286,92.8,287,94.6,293.2,94.6z"/>
		<path fill="#F6ECCC" d="M355.4,110c-2.2,0-3.1-1-3.1-3.1V87h-2c-2.2,0-3.1-0.9-3.1-3.1v-9.3c0-2.2,1-3.1,3.1-3.1h2V50.7
			c0-2.2,1-3.1,3.1-3.1h29.2c16.4,0,21.3,7.2,21.3,17.7v27c0,10.5-5,17.7-21.3,17.7H355.4z M382.7,102.2c11.9,0,13.8-5.1,13.8-11.8
			v-23c0-6.6-2.1-12-13.8-12h-21.1v23.4H355v0.9h6.6v22.4H382.7L382.7,102.2z M370.6,78.9h-8.2V56.3h20.2c10.9,0,13,4.9,13,11.2v23
			c0,6.3-1.9,10.9-13,10.9h-20.2V79.7h8.2V78.9z M382.2,93.6c3.4,0,4.1-1.9,4.1-4.2v-21c0-2.2-0.6-4.2-4.1-4.2h-10.6v7.4h3.5
			c2.2,0,3.1,0.9,3.1,3.1V84c0,2.2-1,3.1-3.1,3.1h-3.5v6.6C371.7,93.6,382.2,93.6,382.2,93.6z"/>
		<path fill="#F6ECCC" d="M431.4,110h-12.7c-2.2,0-3.1-1-3.1-3.1V84c0-3.4,1-7.8,3.4-13.8l7.5-19.7c0.7-2,2.1-2.9,4.4-2.9h23.3
			c2.2,0,3.6,0.9,4.3,2.9l7.5,19.7c2.3,6.1,3.4,10.4,3.4,13.8v22.9c0,2.2-1,3.1-3.1,3.1h-13c-2.3,0-3.4-1-3.4-3.1V94.7h-15.4v12.2
			C434.6,109.1,433.6,110,431.4,110z M427.4,41.1c-2.2-0.2-3.1-1-3.1-3.1v-8.3c0-2,1-3.1,3-2.9l30.2,3.8c2.2,0.2,3.1,1,3.1,3.1V42
			c0,2-1,3.1-3,2.9L427.4,41.1z M460.3,102.2V83.7c0-3.2-0.5-5.9-1.4-8.4l-6-14.1c-1.4-3.4-2.4-5.8-6.2-5.8h-8.5c-4,0-5,2.5-6.3,5.7
			l-5.5,14.2c-1,2.5-1.4,5.2-1.4,8.4v18.5h0.9V87.3h33.8v14.9C459.5,102.2,460.3,102.2,460.3,102.2z M427,75.7l5.5-14.2
			c1.1-3,2.1-5.2,5.5-5.2h8.5c3.2,0,4.2,2.2,5.4,5.3l6,14.1c0.9,2.3,1.4,5,1.4,8.1v2.7h-33.8v-2.7C425.7,80.6,426.2,78,427,75.7z
			 M452.9,37.5v-0.9L432.2,34v0.9L452.9,37.5z M435.4,79H449L445,65.8c-0.4-1-1-1.4-1.7-1.4h-2.2c-0.7,0-1.2,0.4-1.7,1.4L435.4,79z"
			/>
		<path fill="#F6ECCC" d="M518.9,50.8v42.6H541c2.2,0,3.1,1,3.1,3.1v10.5c0,2.2-1,3.1-3.1,3.1h-38.6c-2.2,0-3.1-1-3.1-3.1V50.8
			c0-2.2,1-3.1,3.1-3.1h13.4C517.9,47.6,518.9,48.6,518.9,50.8z M508.6,102.2h27.6v-0.9h-26.8V55.4h-0.9L508.6,102.2L508.6,102.2z"
			/>
		<path fill="#F6ECCC" d="M567,110h-12.7c-2.2,0-3.1-1-3.1-3.1V84c0-3.4,1-7.8,3.4-13.8l7.5-19.7c0.7-2,2.1-2.9,4.4-2.9h23.3
			c2.2,0,3.6,0.9,4.3,2.9l7.5,19.7c2.3,6.1,3.4,10.4,3.4,13.8v22.9c0,2.2-1,3.1-3.1,3.1h-13c-2.3,0-3.4-1-3.4-3.1V94.7H570v12.2
			C570.1,109.1,569.1,110,567,110z M595.8,102.2V83.7c0-3.2-0.5-5.9-1.4-8.4l-6-14.1c-1.4-3.4-2.4-5.8-6.2-5.8h-8.5
			c-4,0-5,2.5-6.3,5.7l-5.5,14.2c-1,2.5-1.4,5.2-1.4,8.4v18.5h0.9V87.3H595v14.9C595,102.2,595.8,102.2,595.8,102.2z M562.6,75.7
			l5.5-14.2c1.1-3,2.1-5.2,5.5-5.2h8.5c3.2,0,4.2,2.2,5.4,5.3l6,14.1c0.9,2.3,1.4,5,1.4,8.1v2.7h-33.7v-2.7
			C561.2,80.6,561.7,78,562.6,75.7z M571.2,130.8c-2.2,0-3.1-1-3.1-3.1v-11c0-2.2,1-3.1,3.1-3.1h13.7c2.2,0,3.1,1,3.1,3.1v11
			c0,2.2-1,3.1-3.1,3.1H571.2z M571,79h13.6l-4.1-13.2c-0.4-1-1-1.4-1.7-1.4h-2.2c-0.7,0-1.2,0.4-1.7,1.4L571,79z M578.5,119.6h-0.9
			v5.1h0.9V119.6z"/>
		<path fill="#F6ECCC" d="M627.6,110c-2.2,0-3.1-1-3.1-3.1V64.4h-12.7c-2.2,0-3.1-1-3.1-3.1V50.8c0-2.2,1-3.1,3.1-3.1h45.8
			c2.2,0,3.1,1,3.1,3.1v10.5c0,2.2-1,3.1-3.1,3.1h-12.7v42.6c0,2.2-1,3.1-3.1,3.1L627.6,110L627.6,110L627.6,110z M635,102.2V56.3
			h17.8v-0.9h-36.4v0.9h17.8v45.9H635z"/>
	</g>
</g>
<g>
	<path fill="#102B33" d="M111.6,335.5v-9.8c0-1.5,0.4-2.4,1.2-3.1l8.4-7c-5.9-1.8-9.5-5.7-9.5-13.8v-8.8c0-5,1.7-9,4.9-11.7
		l10.9-9.1c3-2.5,7.5-3.9,13.3-3.9h27.8c2.7,0,3.8,1.2,3.8,3.8v10c0,1.5-0.4,2.4-1.2,3.1l-7.8,6.5c6.9,1.6,11.1,5.4,11.1,14.2v8.8
		c0,5-1.7,9-5,11.7l-10.8,9c-3.1,2.6-7.6,4-13.3,4h-30C112.8,339.3,111.6,338.2,111.6,335.5z"/>
	<path fill="#102B33" d="M238.2,320.1v-39c0-1.5,0.4-2.4,1.2-3.1l10.8-9.1c0.6-0.5,1.5-0.7,2.7-0.7h13.1c2.7,0,3.8,1.2,3.8,3.8v7.6
		c0.2-0.6,0.4-1.2,0.8-1.5l0.1-0.1l10.9-9.1c0.6-0.5,1.4-0.7,2.7-0.7h12.7c2.7,0,3.8,1.2,3.8,3.8v41.5c0,5.2-1.3,9.6-5.1,12.8
		l-10.8,9.1c-3.8,3.2-10.3,5.1-20.9,5.1C243.1,340.6,238.2,330.7,238.2,320.1z"/>
	<path fill="#102B33" d="M414.9,338.5c-0.5,0.5-1.4,0.8-2.6,0.8h-42.7c-2.7,0-3.8-1.2-3.8-3.8v-10c0-1.5,0.4-2.4,1.2-3.1l10.8-9.1
		c0.5-0.4,1.3-0.6,2.2-0.7v-17.4h-10.4c-2.7,0-3.8-1.2-3.8-3.8v-10.2c0-1.5,0.4-2.4,1.2-3.1l10.8-9.1c0.6-0.5,1.5-0.7,2.7-0.7h42.7
		c2.7,0,3.8,1.2,3.8,3.8v10.2c0,1.5-0.4,2.4-1.2,3.1l-10.9,9l0.1-0.1c-0.5,0.5-1.3,0.8-2.2,1v17.4h10.4c2.7,0,3.8,1.2,3.8,3.8v10
		c0,1.5-0.4,2.4-1.2,3.1L414.9,338.5z"/>
	<path fill="#102B33" d="M510.5,339.3c-2.7,0-3.8-1.2-3.8-3.8v-40.3h-11.2c-2.7,0-3.8-1.2-3.8-3.8v-10.2c0-1.5,0.4-2.4,1.2-3.1
		l10.8-9.1c0.6-0.5,1.5-0.7,2.7-0.7h44.2c2.7,0,3.8,1.2,3.8,3.8v10.2c0,1.5-0.4,2.4-1.2,3.1l-10.9,9c-0.5,0.5-1.4,0.8-2.6,0.8h-0.4
		v31.2c0,1.5-0.4,2.4-1.2,3.1l-11,9c-0.5,0.5-1.4,0.8-2.6,0.8H510.5z"/>
	<path fill="#102B33" d="M618.2,335.5v-9.8c0-1.5,0.4-2.4,1.2-3.1l8.4-7c-5.9-1.8-9.5-5.7-9.5-13.8v-8.8c0-5,1.7-9,4.9-11.7L634,272
		c3-2.5,7.5-3.9,13.3-3.9h27.8c2.7,0,3.8,1.2,3.8,3.8v10c0,1.5-0.4,2.4-1.2,3.1l-7.8,6.5c6.9,1.6,11.1,5.4,11.1,14.2v8.8
		c0,5-1.7,9-5,11.7l-10.8,9c-3.1,2.6-7.6,4-13.3,4h-30C619.4,339.3,618.2,338.2,618.2,335.5z"/>
</g>
<g>
	<path fill="#DA4226" d="M126.3,329.4c-2.1,0-3-1-3-3v-9.8c0-2.1,1-3,3-3h26.1c1.4,0,2.2-1.1,2.2-2.4c0-1.9-0.7-2.7-2.2-2.9
		l-16.1-1.8c-7.8-1.2-13-4.6-13-13.9v-8.8c0-9.5,6.5-14.7,17.4-14.7h27.8c2.1,0,3,1,3,3v10c0,2.1-1,3-3,3h-23.9
		c-1.4,0-2.2,1-2.2,2.5c0,1.4,0.8,2.5,2.2,2.7l16,1.7c7.8,1.2,13,4.6,13,13.9v8.8c0,9.5-6.6,14.7-17.4,14.7H126.3z"/>
	<path fill="#DA4226" d="M275,330.6c-20.1,0-25.1-6.9-25.1-17.1V272c0-2.1,1-3,3-3h13.1c2.1,0,3,1,3,3v38.2c0,2.2,1,3.9,6.1,3.9
		c5.2,0,6.2-1.7,6.2-3.9V272c0-2.1,0.8-3,3-3h12.7c2.1,0,3,1,3,3v41.5C300.2,323.7,295.2,330.6,275,330.6z"/>
	<path fill="#DA4226" d="M377.3,326.4v-10c0-2.1,1-3,3-3h11.2v-28.2h-11.2c-2.1,0-3-1-3-3V272c0-2.1,1-3,3-3H423c2.1,0,3,1,3,3v10.2
		c0,2.1-1,3-3,3h-11.2v28.2H423c2.1,0,3,1,3,3v10c0,2.1-1,3-3,3h-42.7C378.2,329.4,377.3,328.4,377.3,326.4z"/>
	<path fill="#DA4226" d="M521.3,329.4c-2.1,0-3-1-3-3v-41.2h-12.1c-2.1,0-3-1-3-3V272c0-2.1,1-3,3-3h44.2c2.1,0,3,1,3,3v10.2
		c0,2.1-1,3-3,3h-12v41.1c0,2.1-1,3-3,3L521.3,329.4L521.3,329.4L521.3,329.4z"/>
	<path fill="#DA4226" d="M632.9,329.4c-2.1,0-3-1-3-3v-9.8c0-2.1,1-3,3-3H659c1.4,0,2.2-1.1,2.2-2.4c0-1.9-0.7-2.7-2.2-2.9
		l-16.1-1.8c-7.8-1.2-13-4.6-13-13.9v-8.8c0-9.5,6.5-14.7,17.4-14.7h27.8c2.1,0,3,1,3,3v10c0,2.1-1,3-3,3h-23.9
		c-1.4,0-2.2,1-2.2,2.5c0,1.4,0.8,2.5,2.2,2.7l16,1.7c7.8,1.2,13,4.6,13,13.9v8.8c0,9.5-6.6,14.7-17.4,14.7H632.9z"/>
</g>
<g>
	<path fill="#EF9D92" d="M163.9,277.4h-23c-4.8,0-7.7,2.6-7.7,6.8v7.7c0,3.4,2.2,5.6,5.9,5.9l17.8,1.8c5,0.5,7.4,3.1,7.4,7.6v7
		c0,4.7-3.6,7.6-9.3,7.6h-24.4v-0.8h24.4c5.2,0,8.5-2.6,8.5-6.8v-7c0-4-2.2-6.4-6.8-6.8l-17.8-1.8c-4.1-0.4-6.6-3-6.6-6.8v-7.7
		c0-4.7,3.3-7.6,8.6-7.6h23V277.4z"/>
	<path fill="#EF9D92" d="M260,276.6v35c0,6.3,3.2,10.5,14.8,10.5c12.2,0,15.6-4.2,15.6-10.5v-35h0.8v35c0,6.8-3.6,11.3-16.4,11.3
		c-12.3,0-15.7-4.6-15.7-11.3v-35H260z"/>
	<path fill="#EF9D92" d="M384.9,321.8V321h16.4v-43.6h-16.4v-0.8h33.7v0.8h-16.4V321h16.4v0.8H384.9z"/>
	<path fill="#EF9D92" d="M527.9,277.4h-17.2v-0.8h35.2v0.8h-17.1v44.4H528L527.9,277.4L527.9,277.4z"/>
	<path fill="#EF9D92" d="M670.5,277.4h-23c-4.8,0-7.7,2.6-7.7,6.8v7.7c0,3.4,2.2,5.6,5.9,5.9l17.8,1.8c5,0.5,7.4,3.1,7.4,7.6v7
		c0,4.7-3.6,7.6-9.3,7.6h-24.4v-0.8h24.4c5.2,0,8.5-2.6,8.5-6.8v-7c0-4-2.2-6.4-6.8-6.8l-17.8-1.8c-4.1-0.4-6.6-3-6.6-6.8v-7.7
		c0-4.7,3.3-7.6,8.6-7.6h23L670.5,277.4L670.5,277.4z"/>
</g>
<g>
	<path fill="#C12400" d="M92.8,443.6c-1.8,0-2.6-0.8-2.6-2.6v-47.7c0-1.8,0.8-2.6,2.6-2.6h23.4c9.7,0,14.2,3.5,14.2,11.3v3.5
		c0,4.2-1.4,6.7-4.3,7.9c6.3,0.6,9.3,4.2,9.3,11.4v6.8c0,8.2-4.5,12.1-14.2,12.1L92.8,443.6C92.8,443.7,92.8,443.6,92.8,443.6z
		 M106.7,411.2h6.2c1.9,0,2.8-1,2.8-3v-2.1c0-2-0.9-3-2.8-3h-6.2C106.7,403.2,106.7,411.2,106.7,411.2z M106.7,431.2h9.6
		c1.9,0,2.8-1,2.8-3v-2.9c0-2-0.9-2.9-2.8-2.9h-9.6V431.2z"/>
	<path fill="#C12400" d="M173.4,444.8c-18.4,0-22.9-6-22.9-15v-25.1c0-9,4.5-15.1,22.9-15.1s22.8,6.1,22.8,15.1v25.1
		C196.2,438.7,191.8,444.8,173.4,444.8z M173.4,430.5c5.4,0,6.2-1.4,6.2-3.4v-19.8c0-1.9-0.8-3.4-6.2-3.4c-5.3,0-6.2,1.4-6.2,3.4
		v19.8C167.2,429.1,168.1,430.5,173.4,430.5z"/>
	<path fill="#C12400" d="M235.6,444.8c-18.2,0-22.7-6-22.7-15v-36.4c0-1.8,0.8-2.6,2.6-2.6H227c1.8,0,2.6,0.8,2.6,2.6v33.5
		c0,2,0.9,3.4,6,3.4c5.2,0,6.1-1.4,6.1-3.4v-33.5c0-1.8,0.7-2.6,2.6-2.6h11.2c1.8,0,2.6,0.8,2.6,2.6v36.4
		C258.3,438.7,253.8,444.8,235.6,444.8z"/>
	<path fill="#C12400" d="M278.6,443.6c-1.8,0-2.6-0.8-2.6-2.6v-47.7c0-1.8,0.8-2.6,2.6-2.6H290c1.8,0,2.6,0.8,2.6,2.6v36.4h10.1
		v-11.9c0-1.8,0.8-2.6,2.6-2.6H316c1.8,0,2.6,0.8,2.6,2.6V441c0,1.8-0.8,2.6-2.6,2.6L278.6,443.6L278.6,443.6z"/>
	<path fill="#C12400" d="M347.8,443.6H337c-1.8,0-2.6-0.8-2.6-2.6v-36.4c0-8.9,4.1-15,22.3-15c18.3,0,22.5,6.1,22.5,15V441
		c0,1.8-0.8,2.6-2.6,2.6h-11.2c-1.8,0-2.6-0.8-2.6-2.6v-11h-12.2v11C350.5,442.8,349.7,443.6,347.8,443.6z M350.5,416.6h12.2v-9.5
		c0-2-0.9-3.4-6-3.4c-5.2,0-6.1,1.4-6.1,3.4L350.5,416.6L350.5,416.6z"/>
	<path fill="#C12400" d="M419,389.6c18.2,0,22.7,6,22.7,15V441c0,1.8-0.8,2.6-2.6,2.6h-11.5c-1.8,0-2.6-0.8-2.6-2.6v-33.5
		c0-2-0.9-3.4-6-3.4c-5.2,0-6.1,1.4-6.1,3.4V441c0,1.8-0.7,2.6-2.6,2.6H399c-1.8,0-2.6-0.8-2.6-2.6v-36.4
		C396.3,395.6,400.8,389.6,419,389.6z"/>
	<path fill="#C12400" d="M476.6,443.6c-12.4,0-18.1-4.8-18.1-15v-23c0-10.2,5.8-15,18.1-15H495c1.8,0,2.6,0.8,2.6,2.6v8.9
		c0,1.8-0.8,2.6-2.6,2.6h-15.3c-3.1,0-4.5,1.2-4.5,3.7V426c0,2.5,1.1,3.6,3.4,3.6h7.1v-11.5c0-1.8,0.8-2.6,2.6-2.6h11.4
		c1.8,0,2.6,0.8,2.6,2.6v22.7c0,1.8-0.8,2.6-2.6,2.6h-23.2L476.6,443.6L476.6,443.6z"/>
	<path fill="#C12400" d="M555.1,443.6h-18.7c-13.9,0-18.1-6.1-18.1-15v-22.9c0-9,4.2-15.1,18.1-15.1h18.7c1.8,0,2.6,0.8,2.6,2.6v8.6
		c0,1.8-0.8,2.6-2.6,2.6h-16.2c-3.8,0-4.5,1.8-4.5,3.7v2h14.8c1.8,0,2.6,0.7,2.6,2.6v7.8c0,1.8-0.8,2.6-2.6,2.6h-14.9v2.8
		c0,2.1,0.6,3.5,4.5,3.5H555c1.8,0,2.6,0.8,2.6,2.6v8.6C557.8,442.8,557,443.6,555.1,443.6z"/>
	<path fill="#C12400" d="M576.8,443.6c-1.8,0-2.6-0.8-2.6-2.6v-47.7c0-1.8,0.8-2.6,2.6-2.6h24.5c11,0,14.5,5,14.5,12.3v3.4
		c0,4.2-1,7-4.2,8.4c5.4,0.6,8.9,4.5,8.9,10.6V441c0,1.8-0.8,2.6-2.6,2.6h-11.4c-1.8,0-2.6-0.8-2.6-2.6v-11.3c0-2.2-0.7-3.2-2.8-3.2
		h-10.2v14.4c0,1.8-0.8,2.6-2.6,2.6L576.8,443.6L576.8,443.6L576.8,443.6z M590.8,413.3h5.5c2.6,0,3.2-1.4,3.2-3.4v-2.5
		c0-2-0.6-3.4-3.2-3.4h-5.5V413.3z"/>
	<path fill="#C12400" d="M639.3,443.6c-1.8,0-2.6-0.8-2.6-2.6v-47.7c0-1.8,0.8-2.6,2.6-2.6H651c1.8,0,2.6,0.8,2.6,2.6V441
		c0,1.8-0.8,2.6-2.6,2.6H639.3z"/>
	<path fill="#C12400" d="M707.6,443.6h-18.7c-13.9,0-18.1-6.1-18.1-15v-22.9c0-9,4.2-15.1,18.1-15.1h18.7c1.8,0,2.6,0.8,2.6,2.6v8.6
		c0,1.8-0.8,2.6-2.6,2.6h-16.2c-3.8,0-4.5,1.8-4.5,3.7v2h14.9c1.8,0,2.6,0.7,2.6,2.6v7.8c0,1.8-0.8,2.6-2.6,2.6h-14.9v2.8
		c0,2.1,0.6,3.5,4.5,3.5h16.2c1.8,0,2.6,0.8,2.6,2.6v8.6C710.2,442.8,709.4,443.6,707.6,443.6z"/>
</g>
<g>
	<path fill="#93851F" d="M100.9,214.4c-0.4,0.4-1,0.6-1.9,0.6h-9.6c-2,0-2.9-0.9-2.9-2.9v-40.4c0-1.1,0.3-1.8,0.9-2.3l8-6.8
		c0.4-0.4,1.1-0.6,2-0.6h20.7c9.9,0,12.9,4.6,12.9,11v2.9c0,3-0.7,5.4-2.4,6.8h-0.1c3.9,1.1,6.5,4.4,6.5,9.4v13.2
		c0,1.1-0.3,1.8-0.9,2.3l-8,6.7c-0.4,0.4-1,0.6-1.9,0.6h-9.7c-2,0-2.9-0.9-2.9-2.9v-9.5c0-1.4-0.4-2.1-1.8-2.1h-0.1v4.8
		c0,1.1-0.3,1.8-0.9,2.3L100.9,214.4z M109.2,205.3v-12.2h8.7c1.8,0,2.4,0.8,2.4,2.6v9.5c0,1.5,0.7,2.2,2.2,2.2h9.7
		c1.5,0,2.2-0.7,2.2-2.2V192c0-5.2-3-8.6-7.5-9c2.6-1.1,3.5-3.6,3.5-7.1V173c0-6.2-3-10.4-12.2-10.4H97.4c-1.5,0-2.2,0.7-2.2,2.2
		v40.4c0,1.5,0.7,2.2,2.2,2.2h9.6C108.5,207.6,109.2,206.9,109.2,205.3z M101.8,202v-33.7h14.2c4.9,0,7.1,3,7.1,7.1v4.3
		c0,3.8-0.7,6.3-3.8,7.2h0.7c5.1,0,7.5,2.3,7.5,6.6v8.3H127v-8.3c0-4.1-2.2-6.1-6.9-6.1h-17.6V202H101.8z M102.5,168.9v18h13.6
		c5.2,0,6.5-2.6,6.5-7.2v-4.4c0-3.8-2.1-6.5-6.5-6.5L102.5,168.9L102.5,168.9z M113.8,174c2.2,0,2.7,1.3,2.7,3v2.1
		c0,1.7-0.6,3-2.7,3h-4.6v-8H113.8z"/>
	<path fill="#93851F" d="M158,216c-16.3,0-20-7.4-20-15.2v-19.4c0-3.8,1-7.2,3.8-9.5l8.1-6.7c3-2.5,7.8-3.9,16.2-3.9
		c16.3,0,19.9,5.5,19.9,13.4v21.3c0,3.8-1,7.1-3.8,9.4l-8,6.7C171.3,214.5,166.2,216,158,216z M185.4,174.5
		c0-7.6-3.8-12.8-19.3-12.8s-19.4,5.2-19.4,12.8v21.3c0,7.6,3.8,12.7,19.4,12.7s19.3-5.1,19.3-12.7V174.5z M165.9,202.8
		c-9.8,0-12.6-3.4-12.6-8.4V176c0-5,2.7-8.4,12.6-8.4c9.8,0,12.6,3.4,12.6,8.4v18.4C178.6,199.4,175.7,202.8,165.9,202.8z
		 M165.9,202.1c9.3,0,12-3.1,12-7.8V176c0-4.6-2.7-7.8-12-7.8c-9.3,0-11.9,3.1-11.9,7.8v18.4C154,199.1,156.6,202.1,165.9,202.1z
		 M160.8,176.8c0-1.6,0.7-2.9,5.2-2.9c4.6,0,5.2,1.3,5.2,2.9v16.8c0,1.7-0.7,3-5.2,3c-4.5,0-5.2-1.3-5.2-3V176.8z M162.6,195.4
		v-11.8c0-0.8-0.2-1.4-1.2-1.8v11.8C161.4,194.4,161.7,195,162.6,195.4z"/>
	<path fill="#93851F" d="M189.7,212.1v-7.3c0-1.1,0.3-1.8,0.9-2.3l6.2-5.2c-4.4-1.4-7.1-4.2-7.1-10.3v-6.6c0-3.8,1.3-6.6,3.6-8.6
		l8.1-6.8c2.2-1.8,5.6-3,9.8-3h17.4c2,0,2.9,0.9,2.9,2.9v7.4c0,1.1-0.3,1.8-0.9,2.3l-5.6,4.6c5.3,1.2,8.7,4,8.7,10.7v6.6
		c0,3.8-1.3,6.6-3.7,8.6l-8,6.7c-2.3,1.9-5.7,3-9.8,3h-19.7C190.6,215,189.7,214.1,189.7,212.1z M233.2,196.6V190
		c0-7-3.8-9.4-9.7-10.3l-9.3-1.3c-1-0.2-1.7-0.9-1.7-2s0.6-1.8,1.7-1.8h14.5c1.5,0,2.2-0.7,2.2-2.2v-7.4c0-1.5-0.7-2.2-2.2-2.2
		h-17.4c-8.1,0-12.9,3.8-12.9,11v6.6c0,7,3.8,9.4,9.7,10.3l9.4,1.3c1,0.2,1.6,0.7,1.6,2.1c0,1-0.6,1.8-1.6,1.8h-16.8
		c-1.5,0-2.2,0.7-2.2,2.2v7.3c0,1.5,0.7,2.2,2.2,2.2h19.7C228.3,207.6,233.2,203.7,233.2,196.6z M225.3,168.9h-13.8
		c-3.5,0-5.8,2.1-5.8,5v5.1c0,3,1.3,3.8,3.2,4.2l13.1,2.6c2.5,0.5,4.3,1.8,4.3,6.1v3.6c0,3.7-2.6,6.3-6.9,6.3h-15.5v-0.6h15.5
		c3.8,0,6.3-2.4,6.3-5.7V192c0-3.9-1.5-5-3.8-5.5l-13.1-2.6c-2.2-0.4-3.7-1.4-3.7-4.8v-5.1c0-3.3,2.5-5.7,6.3-5.7h13.8L225.3,168.9
		L225.3,168.9z"/>
	<path fill="#93851F" d="M251.2,214.4c-0.4,0.4-1,0.6-1.9,0.6h-9.1c-2,0-2.9-0.9-2.9-2.9v-30.9c0-3.9,0.9-7.2,3.7-9.6l8.1-6.7
		c2.8-2.4,7.6-3.8,15.8-3.8c16.2,0,19.6,5.5,19.6,13.4v30.9c0,1.1-0.3,1.8-0.9,2.3l-8.1,6.7c-0.4,0.4-1,0.6-1.9,0.6h-9.4
		c-2,0-2.9-0.9-2.9-2.9v-8.6h-1v1.8c0,1.1-0.3,1.8-0.9,2.3L251.2,214.4z M259.5,196h10.3v9.3c0,1.5,0.7,2.2,2.2,2.2h9.4
		c1.5,0,2.2-0.7,2.2-2.2v-30.9c0-7.5-3.5-12.7-19-12.7c-15.4,0-18.9,5.2-18.9,12.7v30.9c0,1.5,0.7,2.2,2.2,2.2h9.1
		c1.5,0,2.2-0.7,2.2-2.2L259.5,196L259.5,196L259.5,196z M276.5,190.7h-23.1V202h-0.6v-26c0-5,2.3-8.4,12.1-8.4
		c9.8,0,12.2,3.4,12.2,8.4v26h-0.6L276.5,190.7L276.5,190.7z M253.4,190h23.1V176c0-4.6-2.4-7.8-11.7-7.8c-9.3,0-11.4,3.1-11.4,7.8
		V190z M264.7,173.7c4.4,0,5.1,1.3,5.1,3v8h-10.3v-8C259.5,174.9,260.2,173.7,264.7,173.7z M260.2,181.6v2.4h1v-0.6
		C261.1,182.7,260.9,182,260.2,181.6z"/>
	<path fill="#93851F" d="M289.4,184.7v-1.8c0-0.9,0.2-1.4,0.7-1.8l1.3-1.1H291c-1.5,0-2.2-0.7-2.2-2.2v-6.5c0-0.9,0.2-1.4,0.7-1.8
		l8-6.8c0.4-0.4,1-0.4,1.5-0.4h9.1c1.5,0,2.2,0.7,2.2,2.2v8.4c0,2.6-0.9,4.6-2.4,5.8l-8,6.8c-1.2,1-3,1.5-5,1.5h-3.4
		C290.1,186.9,289.4,186.3,289.4,184.7z M309.7,172.8v-8.4c0-1.1-0.5-1.6-1.6-1.6H299c-1.1,0-1.5,0.5-1.5,1.6v6.6
		c0,1.1,0.4,1.6,1.5,1.6h5v0.7c0,0.8-0.4,1.3-1.3,1.3h-3c-1.1,0-1.6,0.5-1.6,1.6v1.8c0,1.2,0.5,1.6,1.6,1.6h3.4
		C307,179.6,309.7,177.4,309.7,172.8z M306.6,167.3v5.4c0,2.4-1,4.6-3.5,4.6h-2.6v-0.6h2.6c2.1,0,2.9-1.9,2.9-4V168h-5.5v-0.6H306.6
		z"/>
	<path fill="#93851F" d="M313.2,212.1v-7.3c0-1.1,0.3-1.8,0.9-2.3l6.2-5.2c-4.4-1.4-7.1-4.2-7.1-10.3v-6.6c0-3.8,1.3-6.6,3.6-8.6
		l8.1-6.8c2.2-1.8,5.6-3,9.8-3h17.4c2,0,2.9,0.9,2.9,2.9v7.4c0,1.1-0.3,1.8-0.9,2.3l-5.6,4.6c5.3,1.2,8.7,4,8.7,10.7v6.6
		c0,3.8-1.3,6.6-3.7,8.6l-8,6.7c-2.3,1.9-5.7,3-9.8,3h-19.7C314.1,215,313.2,214.1,313.2,212.1z M356.7,196.6V190
		c0-7-3.8-9.4-9.7-10.3l-9.3-1.3c-1-0.2-1.7-0.9-1.7-2s0.6-1.8,1.7-1.8h14.5c1.5,0,2.2-0.7,2.2-2.2v-7.4c0-1.5-0.7-2.2-2.2-2.2
		h-17.4c-8.1,0-12.9,3.8-12.9,11v6.6c0,7,3.8,9.4,9.7,10.3l9.4,1.3c1,0.2,1.6,0.7,1.6,2.1c0,1-0.6,1.8-1.6,1.8h-16.8
		c-1.5,0-2.2,0.7-2.2,2.2v7.3c0,1.5,0.7,2.2,2.2,2.2h19.7C351.8,207.6,356.7,203.7,356.7,196.6z M348.9,168.9H335
		c-3.5,0-5.8,2.1-5.8,5v5.1c0,3,1.3,3.8,3.2,4.2l13.1,2.6c2.5,0.5,4.3,1.8,4.3,6.1v3.6c0,3.7-2.6,6.3-6.9,6.3h-15.5v-0.6H343
		c3.8,0,6.3-2.4,6.3-5.7V192c0-3.9-1.5-5-3.8-5.5l-13.1-2.6c-2.2-0.4-3.7-1.4-3.7-4.8v-5.1c0-3.3,2.5-5.7,6.3-5.7h13.8L348.9,168.9
		L348.9,168.9z"/>
	<path fill="#93851F" d="M384.2,215c-2,0-2.9-0.9-2.9-2.9v-40.4c0-1.1,0.3-1.8,0.9-2.3l8-6.8c0.4-0.4,1.1-0.6,2-0.6h9.7
		c2,0,2.9,0.9,2.9,2.9v25.4l0.2-0.2l8-6.8c0.4-0.4,1.1-0.6,2-0.6h9c2,0,2.9,0.9,2.9,2.9v19.6c0,1.1-0.3,1.8-0.9,2.3l-8.1,6.7
		c-0.4,0.4-1,0.6-1.9,0.6L384.2,215L384.2,215z M426.2,205.3v-19.6c0-1.5-0.7-2.2-2.2-2.2h-9c-1.5,0-2.2,0.7-2.2,2.2v10.1h-8.6
		v-30.9c0-1.5-0.7-2.2-2.2-2.2h-9.7c-1.5,0-2.2,0.7-2.2,2.2v40.4c0,1.5,0.7,2.2,2.2,2.2h31.7C425.5,207.6,426.2,206.9,426.2,205.3z
		 M396.8,168.4h0.6v33h21.7v-12.2h0.6V202h-23V168.4L396.8,168.4z"/>
	<path fill="#93851F" d="M433.8,215c-2,0-2.9-0.9-2.9-2.9v-40.4c0-1.1,0.3-1.8,0.9-2.3l8-6.8c0.4-0.4,1.1-0.6,2-0.6h9.9
		c2,0,2.9,0.9,2.9,2.9v40.4c0,1.1-0.3,1.8-0.9,2.3l-8.1,6.7c-0.4,0.4-1,0.6-1.9,0.6L433.8,215L433.8,215z M453.9,205.3v-40.4
		c0-1.5-0.7-2.2-2.2-2.2h-9.9c-1.5,0-2.2,0.7-2.2,2.2v40.4c0,1.5,0.7,2.2,2.2,2.2h9.9C453.3,207.6,453.9,206.9,453.9,205.3z
		 M447.1,168.4V202h-0.6v-33.7L447.1,168.4L447.1,168.4z"/>
	<path fill="#93851F" d="M474.6,220.6c-2,0-2.9-0.9-2.9-2.9v-2.9c-9.7-1.6-12.2-8.2-12.2-14.7v-18.8c0-3.8,1-7.2,3.8-9.5l8.1-6.7
		c3-2.5,7.8-3.9,16.2-3.9c16.3,0,19.9,5.5,19.9,13.4v20.7c0,3.8-1,7.1-3.8,9.4l-8,6.7c-0.2,0.2-0.4,0.4-0.7,0.5
		c-0.2,0.6-0.4,1-0.7,1.3l-8.1,6.7c-0.4,0.4-1,0.6-1.9,0.6L474.6,220.6L474.6,220.6z M494.5,210.9v-3.4c9.8-1.4,12.3-6,12.3-12.2
		v-20.7c0-7.6-3.8-12.8-19.3-12.8c-15.6,0-19.4,5.2-19.4,12.8v20.7c0,6.3,2.6,10.9,12.2,12.2v3.4c0,1.5,0.7,2.2,2.2,2.2h9.6
		C493.8,213.2,494.5,212.5,494.5,210.9z M487.1,202.8c-9.5-0.1-12.2-3.4-12.2-8.4V176c0-5,2.7-8.4,12.6-8.4s12.6,3.4,12.6,8.4v18.4
		c0,5-2.8,8.3-12.3,8.4v4.8h-0.6V202.8z M487.4,202.1c9.3,0,12-3.1,12-7.8V176c0-4.6-2.7-7.8-12-7.8c-9.3,0-11.9,3.1-11.9,7.8v18.4
		C475.5,199.1,478.2,202.1,487.4,202.1z M482.3,176.8c0-1.6,0.7-2.9,5.2-2.9c4.6,0,5.2,1.3,5.2,2.9v17c0,1.7-0.7,3-5.2,3
		s-5.2-1.3-5.2-3V176.8z M484.1,195.7v-12.1c0-0.8-0.2-1.4-1.2-1.8v12C483,194.7,483.2,195.3,484.1,195.7z"/>
	<path fill="#93851F" d="M512,200.8v-29c0-1.1,0.3-1.8,0.9-2.3l8-6.8c0.4-0.4,1.1-0.6,2-0.6h9.8c2,0,2.9,0.9,2.9,2.9v28.4
		c0,0.7,0.2,1.4,1,1.8v-23.4c0-1.1,0.2-1.8,0.7-2.2l0.1-0.1l8.1-6.8c0.4-0.4,1-0.6,2-0.6h9.4c2,0,2.9,0.9,2.9,2.9v30.9
		c0,3.8-1,7.1-3.8,9.4l-8.1,6.7c-3,2.5-7.8,3.9-16.1,3.9C515.7,216,512,208.6,512,200.8z M559.2,165c0-1.5-0.7-2.2-2.2-2.2h-9.4
		c-1.6,0-2.2,0.7-2.2,2.2v28.4c0,1.7-0.7,3-5.2,3c-4.4,0-5.1-1.3-5.1-3V165c0-1.5-0.7-2.2-2.2-2.2H523c-1.5,0-2.2,0.7-2.2,2.2v30.9
		c0,7.6,3.8,12.7,19.3,12.7s19.3-5.1,19.3-12.7L559.2,165L559.2,165z M528.2,168.4v26c0,4.6,2.6,7.8,11.8,7.8s11.9-3.1,11.9-7.8v-26
		h0.6v26c0,5-2.7,8.4-12.6,8.4s-12.5-3.4-12.5-8.4v-26H528.2z"/>
	<path fill="#93851F" d="M584.3,216c-16.3,0-20-7.4-20-15.2v-19.4c0-3.8,1-7.2,3.8-9.5l8.1-6.7c3-2.5,7.8-3.9,16.2-3.9
		c16.3,0,19.9,5.5,19.9,13.4v21.3c0,3.8-1,7.1-3.8,9.4l-8,6.7C597.6,214.5,592.6,216,584.3,216z M611.7,174.5
		c0-7.6-3.8-12.8-19.3-12.8c-15.5,0-19.4,5.2-19.4,12.8v21.3c0,7.6,3.8,12.7,19.4,12.7s19.3-5.1,19.3-12.7V174.5z M592.2,202.8
		c-9.8,0-12.6-3.4-12.6-8.4V176c0-5,2.7-8.4,12.6-8.4c9.8,0,12.6,3.4,12.6,8.4v18.4C604.9,199.4,602.1,202.8,592.2,202.8z
		 M592.2,202.1c9.3,0,12-3.1,12-7.8V176c0-4.6-2.7-7.8-12-7.8s-11.9,3.1-11.9,7.8v18.4C580.4,199.1,583,202.1,592.2,202.1z
		 M587.1,176.8c0-1.6,0.7-2.9,5.2-2.9c4.6,0,5.2,1.3,5.2,2.9v16.8c0,1.7-0.7,3-5.2,3s-5.2-1.3-5.2-3V176.8z M589,195.4v-11.8
		c0-0.8-0.2-1.4-1.2-1.8v11.8C587.8,194.4,588,195,589,195.4z"/>
	<path fill="#93851F" d="M631.6,214.4c-0.4,0.4-1,0.6-1.9,0.6h-9.6c-2,0-2.9-0.9-2.9-2.9v-40.4c0-1.1,0.3-1.8,0.9-2.3l8-6.8
		c0.4-0.4,1.1-0.6,2-0.6h20.7c9.9,0,12.9,4.6,12.9,11v2.9c0,3-0.7,5.4-2.4,6.8h-0.1c3.9,1.1,6.5,4.4,6.5,9.4v13.2
		c0,1.1-0.3,1.8-0.9,2.3l-8.1,6.7c-0.4,0.4-1,0.6-1.9,0.6h-9.6c-2,0-2.9-0.9-2.9-2.9v-9.5c0-1.4-0.4-2.1-1.8-2.1h-0.1v4.8
		c0,1.1-0.3,1.8-0.9,2.3L631.6,214.4z M639.9,205.3v-12.2h8.7c1.8,0,2.4,0.8,2.4,2.6v9.5c0,1.5,0.7,2.2,2.2,2.2h9.7
		c1.5,0,2.2-0.7,2.2-2.2V192c0-5.2-3-8.6-7.5-9c2.6-1.1,3.5-3.6,3.5-7.1V173c0-6.2-3-10.4-12.2-10.4h-20.7c-1.5,0-2.2,0.7-2.2,2.2
		v40.4c0,1.5,0.7,2.2,2.2,2.2h9.6C639.2,207.6,639.9,206.9,639.9,205.3z M632.6,202v-33.7h14.2c4.9,0,7.1,3,7.1,7.1v4.3
		c0,3.8-0.7,6.3-3.8,7.2h0.7c5.1,0,7.5,2.3,7.5,6.6v8.3h-0.6v-8.3c0-4.1-2.2-6.1-6.9-6.1h-17.6V202H632.6z M633.2,168.9v18h13.6
		c5.2,0,6.5-2.6,6.5-7.2v-4.4c0-3.8-2.1-6.5-6.5-6.5L633.2,168.9L633.2,168.9z M644.6,174c2.2,0,2.7,1.3,2.7,3v2.1
		c0,1.7-0.6,3-2.7,3h-4.6v-8H644.6z"/>
	<path fill="#93851F" d="M668.6,212.1v-7.3c0-1.1,0.3-1.8,0.9-2.3l6.2-5.2c-4.4-1.4-7.1-4.2-7.1-10.3v-6.6c0-3.8,1.3-6.6,3.6-8.6
		l8.1-6.8c2.2-1.8,5.6-3,9.8-3h17.5c2,0,2.9,0.9,2.9,2.9v7.4c0,1.1-0.3,1.8-0.9,2.3l-5.6,4.6c5.3,1.2,8.7,4,8.7,10.7v6.6
		c0,3.8-1.3,6.6-3.7,8.6l-8,6.7c-2.3,1.9-5.7,3-9.8,3h-19.7C669.4,215,668.6,214.1,668.6,212.1z M712.1,196.6V190
		c0-7-3.8-9.4-9.7-10.3l-9.3-1.3c-1-0.2-1.7-0.9-1.7-2s0.6-1.8,1.7-1.8h14.5c1.5,0,2.2-0.7,2.2-2.2v-7.4c0-1.5-0.7-2.2-2.2-2.2
		h-17.4c-8.1,0-12.9,3.8-12.9,11v6.6c0,7,3.8,9.4,9.7,10.3l9.4,1.3c1,0.2,1.6,0.7,1.6,2.1c0,1-0.6,1.8-1.6,1.8h-16.7
		c-1.5,0-2.2,0.7-2.2,2.2v7.3c0,1.5,0.7,2.2,2.2,2.2h19.7C707.2,207.6,712.1,203.7,712.1,196.6z M704.2,168.9h-13.8
		c-3.5,0-5.8,2.1-5.8,5v5.1c0,3,1.3,3.8,3.2,4.2l13.1,2.6c2.5,0.5,4.3,1.8,4.3,6.1v3.6c0,3.7-2.6,6.3-6.9,6.3h-15.5v-0.6h15.5
		c3.8,0,6.3-2.4,6.3-5.7V192c0-3.9-1.5-5-3.8-5.5l-13.1-2.6c-2.2-0.4-3.7-1.4-3.7-4.8v-5.1c0-3.3,2.5-5.7,6.3-5.7h13.8L704.2,168.9
		L704.2,168.9z"/>
</g>
<path fill="#DC4227" stroke="#FFFFFF" d="M718.2,744.9c1-1.1,1-2.9,0-4L706.6,727c-0.5-0.6-0.6-1.5-0.3-2.2l8.4-21.4
	c0.5-1-0.4-2.2-1.4-2.1l-12.6,1.4c-2.4,0.3-2.8,0.3-4.3,0.3h-3.8h-67.9h-5.9h-67.8h-5.9H477H471h-67.9h-5.9h-67.9h-5.9h-67.8h-5.9
	h-67.9h-5.9H108h-3.8c-1.4,0-1.9,0-4.3-0.3l-12.6-1.4c-1.1-0.2-1.9,1-1.4,2.1l8.4,21.4c0.3,0.6,0.2,1.6-0.3,2.2l-11.6,13.9
	c-1,1.1-1,2.9,0,4l11.6,13.9c0.5,0.6,0.6,1.5,0.3,2.2l-8.4,21.4c-0.5,1,0.4,2.2,1.4,2.1l12.6-1.4c2.4-0.3,2.8-0.3,4.3-0.3h3.8h67.9
	h5.9h67.9h5.9h67.9h5.9h67.9h5.9h67.9h5.9h67.9h5.9H619h5.9h67.9h3.8c1.4,0,1.9,0,4.3,0.3l12.6,1.4c1.1,0.2,1.9-1,1.4-2.1l-8.4-21.4
	c-0.4-0.6-0.2-1.6,0.3-2.2L718.2,744.9z"/>
<g>
	<path fill="#FFFFFF" d="M128.4,768.4v-49.8h21c7.2,0,10.5,4.4,10.5,10.5v6.4c0,5.6-1.1,9.3-5.5,10.7h1c7.5,0,11.1,3.4,11.1,9.8
		v12.3h-1V756c0-6.1-3.2-9-10.2-9h-26v21.4L128.4,768.4L128.4,768.4z M129.4,719.5v26.6h20.1c7.7,0,9.6-3.8,9.6-10.6V729
		c0-5.7-3-9.6-9.6-9.6L129.4,719.5L129.4,719.5z"/>
	<path fill="#FFFFFF" d="M227.2,751.6H193v16.7h-1v-38.5c0-7.4,3.4-12.5,17.9-12.5c14.5,0,18.2,5,18.2,12.5v38.5h-1L227.2,751.6
		L227.2,751.6z M193,750.7h34.2v-20.8c0-6.9-3.5-11.5-17.2-11.5s-17,4.6-17,11.5L193,750.7L193,750.7z"/>
	<path fill="#FFFFFF" d="M271.4,768.4v-18.6c-14.1-0.1-18-5-18-12.5v-18.7h1v18.7c0,6.9,3.8,11.5,17.5,11.5
		c13.8,0,17.6-4.6,17.6-11.5v-18.7h1v18.7c0,7.4-4.1,12.5-18.1,12.5v18.6H271.4z"/>
	<path fill="#FFFFFF" d="M309.4,717.1h9v7.9c0,3.6-1.6,6.8-5.2,6.8h-3.8v-1h3.8c3,0,4.2-2.9,4.2-5.9v-7h-8.1L309.4,717.1
		L309.4,717.1z"/>
	<path fill="#FFFFFF" d="M367.1,719.5h-20.5c-5.2,0-8.5,3.1-8.5,7.4v7.5c0,4.3,1.8,5.6,4.7,6.2l19.4,4c3.7,0.7,6.4,2.6,6.4,9v5.4
		c0,5.4-4,9.3-10.2,9.3h-23v-1h23c5.7,0,9.3-3.5,9.3-8.4v-5.4c0-5.8-2.2-7.4-5.6-8.1l-19.4-4c-3.2-0.6-5.4-2-5.4-7.1v-7.5
		c0-4.9,3.7-8.4,9.4-8.4h20.5L367.1,719.5L367.1,719.5L367.1,719.5z"/>
	<path fill="#FFFFFF" d="M415,718.5h22.3c12.6,0,14.7,5.7,14.7,12.8v24.4c0,7.1-2,12.6-14.7,12.6H415V718.5z M415.9,719.5v47.9h21.4
		c11.8,0,13.8-4.9,13.8-11.6v-24.4c0-6.7-2.2-11.9-13.8-11.9H415.9z"/>
	<path fill="#FFFFFF" d="M480.3,718.5v49.8h-1v-49.8H480.3z"/>
	<path fill="#FFFFFF" d="M544.2,768.4v-38.5c0-6.9-3.8-11.5-17.5-11.5S509,723,509,729.9v38.5h-1v-38.5c0-7.4,4.1-12.5,18.6-12.5
		c14.5,0,18.4,5,18.4,12.5v38.5H544.2z"/>
	<path fill="#FFFFFF" d="M603,768.4h-16.8c-12,0-14.7-3.3-14.7-11.9v-25.8c0-8.7,3-12.1,14.7-12.1H603v1h-16.8
		c-10.9,0-13.8,3-13.8,11.1v12h24.2v1h-24.2v12.9c0,8,2.8,11,13.8,11H603V768.4z"/>
	<path fill="#FFFFFF" d="M627.4,768.4v-49.8h21c7.2,0,10.5,4.4,10.5,10.5v6.4c0,5.6-1.1,9.3-5.5,10.7h1c7.5,0,11.1,3.4,11.1,9.8
		v12.3h-1V756c0-6.1-3.2-9-10.2-9h-26v21.4L627.4,768.4L627.4,768.4L627.4,768.4z M628.4,719.5v26.6h20.1c7.7,0,9.6-3.8,9.6-10.6
		V729c0-5.7-3-9.6-9.6-9.6L628.4,719.5L628.4,719.5z"/>
</g>
</svg>
