<?xml version="1.0" encoding="utf-8"?>
<!-- Generator: Adobe Illustrator 17.1.0, SVG Export Plug-In . SVG Version: 6.00 Build 0)  -->
<!DOCTYPE svg PUBLIC "-//W3C//DTD SVG 1.1//EN" "http://www.w3.org/Graphics/SVG/1.1/DTD/svg11.dtd">
<svg version="1.1" id="Layer_1" xmlns="http://www.w3.org/2000/svg" xmlns:xlink="http://www.w3.org/1999/xlink" x="0px" y="0px"
	 viewBox="0 0 615 597.4" enable-background="new 0 0 615 597.4" xml:space="preserve">
<g>
	<g>
		<path fill="#265560" d="M331.7,99.3h-67.3c-1.7,0-2.4-0.7-2.4-2.4V29.6c0-1.7,0.7-2.4,2.4-2.4h67.3c1.7,0,2.4,0.7,2.4,2.4v67.3
			C334.1,98.6,333.4,99.3,331.7,99.3z"/>
		<path fill="#265560" d="M331.7,182.7h-67.3c-1.7,0-2.4-0.7-2.4-2.4V113c0-1.7,0.7-2.4,2.4-2.4h67.3c1.7,0,2.4,0.7,2.4,2.4v67.3
			C334.1,181.9,333.4,182.7,331.7,182.7z"/>
		<path fill="#265560" d="M331.7,266.1h-67.3c-1.7,0-2.4-0.7-2.4-2.4v-67.3c0-1.7,0.7-2.4,2.4-2.4h67.3c1.7,0,2.4,0.7,2.4,2.4v67.3
			C334.1,265.3,333.4,266.1,331.7,266.1z"/>
		<path fill="#265560" d="M331.7,349.5h-67.3c-1.7,0-2.4-0.7-2.4-2.4v-67.3c0-1.7,0.7-2.4,2.4-2.4h67.3c1.7,0,2.4,0.7,2.4,2.4v67.3
			C334.1,348.7,333.4,349.5,331.7,349.5z"/>
		<path fill="#265560" d="M331.7,432.8h-67.3c-1.7,0-2.4-0.7-2.4-2.4v-67.3c0-1.7,0.7-2.4,2.4-2.4h67.3c1.7,0,2.4,0.7,2.4,2.4v67.3
			C334.1,432.1,333.4,432.8,331.7,432.8z"/>
	</g>
	<g>
		<path fill="#FFFFFF" d="M281.3,85.4c-1.5,0-2.1-0.6-2.1-2.1l0.2-38.1c0-1.5,0.6-2.1,2.1-2.1h7.7c1.5,0,3.1,0.4,3.8,1.8l4.1,10.3
			h1.4l4.6-10.3c0.8-1.3,1.8-1.8,3.3-1.8h8.2c1.5,0,2.1,0.6,2.1,2.1l0.2,38.1c0,1.5-0.6,2.1-2.1,2.1H306c-1.5,0-2.1-0.6-2.1-2.1
			l-0.2-17.2v-2.5l-2.2,6.5c-0.8,1.4-1.6,1.9-3.1,1.9h-1.6c-1.5,0-2.4-0.5-3.1-1.9l-2.3-6.5v2.5l-0.2,17.2c0,1.5-0.6,2.1-2.1,2.1
			H281.3z"/>
	</g>
	<g>
		<path fill="#FFFFFF" d="M298.1,167.7c-14.4,0-17.9-4.8-17.9-12v-20c0-7.2,3.5-12,17.9-12c14.4,0,17.9,4.9,17.9,12v20
			C315.9,162.9,312.5,167.7,298.1,167.7z M298.1,156.4c3.9,0,4.6-1.2,4.6-2.8v-15.8c0-1.5-0.6-2.7-4.6-2.7c-3.9,0-4.5,1.2-4.5,2.7
			v15.8C293.5,155.2,294.2,156.4,298.1,156.4z"/>
	</g>
	<g>
		<path fill="#FFFFFF" d="M293.1,250.8c-1.5,0-2.1-0.6-2.1-2.1v-28.8h-8.5c-1.5,0-2.1-0.6-2.1-2.1v-7.1c0-1.5,0.6-2.1,2.1-2.1h31
			c1.5,0,2.1,0.6,2.1,2.1v7.1c0,1.5-0.6,2.1-2.1,2.1h-8.5v28.8c0,1.5-0.6,2.1-2.1,2.1H293.1z"/>
	</g>
	<g>
		<path fill="#FFFFFF" d="M282.6,332.6c-1.5,0-2.1-0.6-2.1-2.1v-38.1c0-1.5,0.6-2.1,2.1-2.1H313c1.5,0,2.1,0.6,2.1,2.1v6.9
			c0,1.5-0.6,2.1-2.1,2.1h-19.2v4.5h14.5c1.5,0,2.1,0.6,2.1,2.1v6.3c0,1.5-0.6,2.1-2.1,2.1h-14.5v5.1H313c1.5,0,2.1,0.6,2.1,2.1v6.9
			c0,1.5-0.6,2.1-2.1,2.1H282.6z"/>
	</g>
	<g>
		<path fill="#FFFFFF" d="M282.6,416.9c-1.5,0-2.1-0.6-2.1-2.1v-38.1c0-1.5,0.6-2.1,2.1-2.1h9.1c1.5,0,2.1,0.6,2.1,2.1v29.1h9.2
			v-9.5c0-1.5,0.6-2.1,2.1-2.1h8.5c1.5,0,2.1,0.6,2.1,2.1v18.5c0,1.5-0.6,2.1-2.1,2.1H282.6z"/>
	</g>
</g>
<g>
	<path fill="#265560" d="M85.6,102.5H25c-1.7,0-2.4-0.7-2.4-2.4V32.8c0-1.7,0.7-2.4,2.4-2.4H99c1.7,0,2.7,0.7,2.4,2.4L88,100.1
		C87.7,101.8,87.3,102.5,85.6,102.5z"/>
	<path fill="#26839C" d="M85.6,181.2H25c-1.7,0-2.4-0.7-2.4-2.4v-67.3c0-1.7,0.7-2.4,2.4-2.4H99c1.7,0,2.7,0.7,2.4,2.4L88,178.8
		C87.7,180.5,87.3,181.2,85.6,181.2z"/>
	<path fill="#265560" d="M85.6,259.9H25c-1.7,0-2.4-0.7-2.4-2.4v-67.3c0-1.7,0.7-2.4,2.4-2.4H99c1.7,0,2.7,0.7,2.4,2.4L88,257.5
		C87.7,259.2,87.3,259.9,85.6,259.9z"/>
	<path fill="#26839C" d="M85.6,338.6H25c-1.7,0-2.4-0.7-2.4-2.4V269c0-1.7,0.7-2.4,2.4-2.4H99c1.7,0,2.7,0.7,2.4,2.4L88,336.2
		C87.7,337.9,87.3,338.6,85.6,338.6z"/>
	<path fill="#265560" d="M85.6,417.4H25c-1.7,0-2.4-0.7-2.4-2.4v-67.3c0-1.7,0.7-2.4,2.4-2.4H99c1.7,0,2.7,0.7,2.4,2.4L88,415
		C87.7,416.6,87.3,417.4,85.6,417.4z"/>
	<path fill="#26839C" d="M85.6,496.1H25c-1.7,0-2.4-0.7-2.4-2.4v-67.3c0-1.7,0.7-2.4,2.4-2.4H99c1.7,0,2.7,0.7,2.4,2.4L88,493.7
		C87.7,495.4,87.3,496.1,85.6,496.1z"/>
	<g>
		<path fill="#FFFFFF" d="M77.1,68.7v18.2c0,1.2-0.5,1.8-1.8,1.8h-6.2c-1.3,0-1.9-0.6-1.8-1.8V71.6c0-2.6-1.3-3.6-3.9-3.6h-3.9
			l2.4,9.3c0.1,1.2-1.8,1.9-3.1,1.1l-19-12.8C38.7,65,38,64.3,38,63.1s0.7-1.9,1.8-2.5l19-12.8c1.3-0.9,3.2-0.1,3.1,1.1l-2.4,9.3
			h4.8C74.1,58.2,77.1,62.4,77.1,68.7z"/>
	</g>
	<g>
		<path fill="#FFFFFF" d="M59.1,167.7l-17.9-17.9c-1.1-1.1-1.1-2.1-0.1-3.1l2.9-2.9c1-1,2.1-1,3.1-0.1l1.5,1.5l6.2-9
			c0.5-0.8,1.5-1.7,2.4-2.5l12.5-10.8c1.1-0.9,2.2-0.9,3.2,0.2l1.2,1.2c1.1,1.1,1.1,2.2-0.1,3.4l-5.9,5.9c0.2,0.1,0.5,0.2,0.7,0.5
			l1.4,1.4c0.9,0.8,1.1,1.8,0.4,2.8c0.4,0.1,0.8,0.2,1.1,0.5l1.5,1.5c0.9,0.8,1,1.7,0.4,2.6c0.4,0.1,0.8,0.3,1.1,0.6l1.6,1.6
			c0.9,0.9,0.8,2.3,0,3.2l-8.8,9.6c-0.9,0.9-2,1.4-2.6,1.6l-1.5,0.5l1.9,1.9c0.9,0.9,0.9,2-0.1,3l-2.9,3
			C61.3,168.8,60.2,168.8,59.1,167.7z M64.3,162.5l-17.9-17.9c-0.5-0.5-1-0.4-1.5,0l-1.2,1.3c-0.4,0.4-0.5,0.9,0,1.4l17.9,17.9
			c0.5,0.5,1.1,0.5,1.5,0.1l1.3-1.3C64.8,163.5,64.8,163,64.3,162.5z M64.5,158.2c0.5-0.1,1.4-0.5,2.1-1.2l8.8-9.6
			c0.4-0.4,0.4-1.1,0-1.5l-1.5-1.5c-0.4-0.4-0.8-0.6-1.2-0.2V144l-2.9,3.5l-0.8-0.9l3.3-3.9c0.6-0.6,0.6-1.1,0.1-1.6l-1.4-1.4
			c-0.5-0.5-1-0.6-1.4-0.2l-3,3.5l-0.8-0.8l3.6-4.2c0.5-0.6,0.6-1.1,0.1-1.6l-1.3-1.4c-0.5-0.4-0.9-0.5-1.3,0v-0.1l-3.5,3.5
			l-0.8-0.8l10.6-10.6c0.6-0.6,0.6-1.2,0.1-1.7l-1.2-1.2c-0.6-0.6-1.2-0.4-1.6-0.1L58,134.7c-0.8,0.7-1.6,1.6-2.1,2.2l-6.3,9.3
			l12.7,12.7L64.5,158.2z"/>
	</g>
	<g>
		<path fill="#FFFFFF" d="M64.9,239.1l-6.6-7.5l-6.8,6.8c-0.9,0.9-2.6,0.1-2.9-1.4L44,214c-0.2-1.2-0.2-2.2,0.6-3.1
			c0.9-0.9,1.9-0.9,3.1-0.6l23,4.5c1.5,0.3,2.2,2.1,1.4,2.9l-6.8,6.8l7.5,6.6c0.9,0.8,0.8,1.7-0.1,2.5l-5.2,5.3
			C66.6,239.9,65.8,240,64.9,239.1z"/>
	</g>
	<g>
		<path fill="#FFFFFF" d="M49.6,319.8l-2.5-0.6c-1-0.2-1.5-0.9-1.4-2.1l0.8-5.1c0.2-1.6,0.6-3.1,0.5-4.7l-0.3-3.8l-3.1,3.1
			c-0.8,0.9-2,1-3,0l-2.9-3c-1-1-1-2.1,0-3.1l14.5-14.5c1.1-1.1,2.1-1,3.1,0l2.9,2.9c1,1,1,2.1,0.1,3.1l-1.7,1.6l8.3,3.2
			c1.7,0.7,2.8,1.8,3.7,3l11.2,14.9c0.8,1,0.4,1.8-0.4,2.5l-1.5,1.6c-0.6,0.6-1.6,0.8-2.3,0.1l-9.3-8.6l-4.1,4.1
			c-1.2,1.3-2.6,2-4.6,1.3l-4-1.4l-1.8,3.9C51.4,319.3,50.7,320,49.6,319.8z M43,305.6l14.5-14.6c0.5-0.5,0.5-0.9,0-1.4l-1.3-1.3
			c-0.4-0.4-0.9-0.5-1.4,0l-14.5,14.5c-0.5,0.5-0.5,1.1-0.1,1.5l1.4,1.4C42,306.1,42.6,306,43,305.6z M50.9,317.7l3.1-6.7
			c0.8-1.8,1.5-2.8,3.1-3.5l3.2-1.4c1.3-0.6,2.7-0.5,3.9,0.6L76,317.6c0.4,0.5,1,0.5,1.4,0.1l1.3-1.3c0.4-0.4,0.5-0.9,0.2-1.2
			l-11.1-14.8c-0.8-1.1-1.7-1.9-3.1-2.5l-8.8-3.3l-7.9,7.9l0.4,4.7c0.2,1.7-0.2,3.3-0.5,5.1l-0.8,5.1c-0.1,0.4,0.2,0.8,0.5,0.8
			l2.2,0.6C50.2,318.7,50.6,318.4,50.9,317.7z M61.3,313.6l4.1-4.1l-2.1-1.9c-0.9-0.8-1.8-0.9-2.8-0.4l-2.6,1.1
			c-0.1,0.4,0.2,0.8,0.8,1.5l-0.2,0.2c-0.7-0.6-1.5-0.9-2.1-0.9c-0.8,0.6-1.2,1.3-1.6,2.4l-0.8,1.6l3.9,1.4
			C59.4,314.9,60.4,314.4,61.3,313.6z"/>
	</g>
	<g>
		<path fill="#FFFFFF" d="M52.4,391.7c-0.6,0-1.3-0.5-1.3-1.1v-2.8c0-0.5,0.4-1.1,0.9-1l4.8,0.4v-0.6l-5.6-0.4
			c-0.8-0.1-1.4-0.4-1.4-1.1v-2.6c0-0.7,0.5-1.2,1.1-1.1l4.9,0.4v-0.6l-5.9-0.4c-0.8-0.1-1.4-0.4-1.4-1.1v-2.5
			c0-0.6,0.4-0.9,1.1-0.9h5.3v-0.6H39.4c-0.8,0-1.5-0.4-1.5-1.1v-2.8c0-0.8,0.7-1.2,1.3-1.2l16.9-1.2c1.1-0.1,2.3-0.1,3.1,0.1
			l11,2.1v19.2l-2,1.1c-0.5,0.3-1.4,0.6-2.4,0.6L52.4,391.7z M70.7,394.7v-26.4c0-0.7,0.4-1.1,1-1.1h5.3c0.6,0,1,0.4,1,1.1v26.4
			c0,0.6-0.4,1.1-1,1.1h-5.3C71.1,395.7,70.7,395.3,70.7,394.7z"/>
	</g>
	<g>
		<path fill="#FFFFFF" d="M66.1,480.6c-1.5,0-2.3-0.8-2.3-2.5v-8.2c-0.2,0.1-0.5,0.1-0.8,0.1h-2c-1.2,0-2-0.5-2.2-1.7
			c-0.3,0.2-0.6,0.4-1.1,0.4h-2.2c-1.2,0-1.9-0.5-2.2-1.5c-0.3,0.2-0.8,0.3-1.1,0.3H50c-1.3,0-2.2-1-2.3-2.2l-0.5-13
			c0-1.2,0.4-2.4,0.7-2.9l0.8-1.4h-2.8c-1.3,0-2.1-0.8-2.1-2.2v-4.2c0-1.4,0.8-2.2,2.2-2.2h25.3c1.6,0,2.2,0.8,2.2,2.2v4.2
			c0,1.4-0.8,2.2-2.1,2.2h-2.2l2,10.8c0.2,0.9,0.2,2.2,0.1,3.4l-1.2,16.5c-0.1,1.4-0.9,2.2-2.4,2.2H66.1z M46,446.7h25.3
			c0.7,0,1.1-0.4,1.1-1v-1.8c0-0.6-0.4-1-1.1-1H46c-0.6,0-1.1,0.4-1.1,1v1.8C45,446.3,45.4,446.7,46,446.7z M67.8,479.5
			c0.8,0,1.2-0.5,1.2-1.1l1.2-16.5c0.1-1.1,0.1-2.3-0.1-3.1l-2.1-11H50l-1.1,2c-0.3,0.5-0.6,1.4-0.6,2.4l0.6,13
			c0,0.6,0.5,1.1,1.1,1.1h2.2c0.5,0,1-0.2,1-0.8l-0.4-4.4H54l0.4,5.2c0.1,0.8,0.4,1.2,1.1,1.2h2c0.7,0,1.1-0.3,1.1-0.9l-0.4-4.5h1.2
			l0.4,5.5c0.1,0.8,0.4,1.2,1.1,1.2h1.9c0.6,0,1-0.2,0.9-0.9v-4.9H65v15c0,0.8,0.4,1.3,1.1,1.3H67.8z"/>
	</g>
</g>
<g>
	<g>
		<path fill="#26839C" d="M155.7,131h46.6c22.6,18.1,22.2,58,0,76.1h-46.6C133.3,188.5,133.3,149.6,155.7,131z"/>
		<path fill="#26839C" d="M155.7,200.8h46.6c22.6,18.1,22.2,58,0,76.1h-46.6C133.3,258.3,133.3,219.4,155.7,200.8z"/>
		<path fill="#26839C" d="M155.7,270.7h46.6c22.6,18.1,22.2,58,0,76.1h-46.6C133.3,328.2,133.3,289.3,155.7,270.7z"/>
		<path fill="#26839C" d="M155.7,340.5h46.6c22.6,18.1,22.2,58,0,76.1h-46.6C133.3,398,133.3,359.1,155.7,340.5z"/>
		<path fill="#26839C" d="M155.7,410.3h46.6c22.6,18.1,22.2,58,0,76.1h-46.6C133.3,467.8,133.3,428.9,155.7,410.3z"/>
		<path fill="#26839C" d="M155.7,480.2h46.6c22.6,18.1,22.2,58,0,76.1h-46.6C133.3,537.7,133.3,498.8,155.7,480.2z"/>
	</g>
	<g>
		<path fill="#FFFFFF" d="M179.9,261.2c-14.4,0-17.9-4.8-17.9-12v-20c0-7.2,3.5-12,17.9-12c14.4,0,17.9,4.9,17.9,12v20
			C197.8,256.4,194.3,261.2,179.9,261.2z M179.9,249.8c3.9,0,4.6-1.2,4.6-2.8v-15.8c0-1.5-0.6-2.7-4.6-2.7c-3.9,0-4.5,1.2-4.5,2.7
			v15.8C175.4,248.7,176,249.8,179.9,249.8z"/>
	</g>
	<g>
		<path fill="#FFFFFF" d="M179.9,332c-14.1,0-17.6-4.8-17.6-12V291c0-1.5,0.6-2.1,2.1-2.1h9.2c1.5,0,2.1,0.6,2.1,2.1v26.8
			c0,1.6,0.7,2.8,4.3,2.8c3.6,0,4.3-1.2,4.3-2.8V291c0-1.5,0.6-2.1,2.1-2.1h8.9c1.5,0,2.1,0.6,2.1,2.1V320
			C197.5,327.2,194,332,179.9,332z"/>
	</g>
	<g>
		<path fill="#FFFFFF" d="M179.9,355.9c14.6,0,18.2,4.8,18.2,12v29.1c0,1.5-0.6,2.1-2.1,2.1h-9.2c-1.5,0-2.1-0.6-2.1-2.1v-26.8
			c0-1.6-0.7-2.8-4.8-2.8c-4.2,0-4.9,1.2-4.9,2.8v26.8c0,1.5-0.6,2.1-2.1,2.1h-8.9c-1.5,0-2.1-0.6-2.1-2.1v-29.1
			C161.8,360.7,165.3,355.9,179.9,355.9z"/>
	</g>
	<g>
		<path fill="#FFFFFF" d="M174.9,469.3c-11.1,0-14.5-4.9-14.5-12V439c0-7.1,3.4-12,14.5-12h15.2c1.5,0,2.1,0.6,2.1,2.1v7.1
			c0,1.5-0.6,2.1-2.1,2.1h-12.7c-3.1,0-3.6,1.4-3.6,2.9v14c0,1.6,0.4,2.9,2.7,2.9h6.2V449c0-1.5,0.6-2.1,2.1-2.1h9.1
			c1.5,0,2.1,0.6,2.1,2.1v18.2c0,1.5-0.6,2.1-2.1,2.1H174.9z"/>
	</g>
	<g>
		<path fill="#FFFFFF" d="M160.3,508.8c0-7.3,3.4-12.2,14.7-12.2h18.7c1.5,0,2.1,0.7,2.1,2.1v7c0,1.5-0.7,2.1-2.1,2.1h-16.3
			c-3.1,0-3.6,1.4-3.6,3v1.6h15.1c1.5,0,2.1,0.6,2.1,2.1v6.4c0,1.5-0.7,2.1-2.1,2.1h-15.1v2.3c0,1.7,0.5,2.9,3.6,2.9h16.3
			c1.5,0,2.1,0.7,2.1,2.1v7c0,1.5-0.7,2.1-2.1,2.1H175c-11.3,0-14.7-4.9-14.7-12.2V508.8z"/>
	</g>
	<g>
		<path fill="#FFFFFF" d="M175.8,149l0,29.3h19.5c1.5,0,2.1,0.7,2.1,2.1v7.2c0,1.5-0.7,2.1-2.1,2.1h-30.9c-1.5,0-2.1-0.7-2.1-2.1
			l0-38.6c0-1.5,0.7-2.1,2.1-2.1h9.2C175.2,146.9,175.8,147.5,175.8,149z"/>
	</g>
</g>
<g>
	<path fill="#28849C" d="M464.2,159.6h-1.9c0-6-4.9-11-11-11c-1.5-9-10.2-14.9-33.7-14.9s-32.2,5.9-33.7,14.9c-6,0-11,4.9-11,11
		h-1.9c-2,0-2.8,0.9-2.8,2.8v6.1c0,2,0.9,2.8,2.8,2.8h4.2v77.5v6.3v72.2v6.3v72.2v6.3v19.9v84.7v12.2v1.7v4.9c0,2,0.9,2.8,2.8,2.8
		h1.9c0,6,4.9,11,11,11v1.9c0,2,0.9,2.8,2.8,2.8h47.7c2,0,2.8-0.9,2.8-2.8v-1.9c6,0,11-4.9,11-11h1.9c2,0,2.8-0.9,2.8-2.8v-4.9v10.4
		v-24.4v-84.7v-19.9v-6.3v-72.2v-6.3V255v-6.3v-77.4h4.2c2,0,2.8-0.9,2.8-2.8v-6.1C467,160.5,466.1,159.6,464.2,159.6z"/>
	<g>
		<path fill="#FFFFFF" d="M403.1,212.1c-1.5,0-2.2-0.6-2.2-2.2v-39.5c0-1.5,0.6-2.2,2.2-2.2h19c8.3,0,11.7,4,11.7,9.3v2.9
			c0,3.1-0.9,5.4-3.6,6.6c4.4,0.4,7.7,3.7,7.7,9.4v5.7c0,6.2-4,10-11.9,10C426,212.1,403.1,212.1,403.1,212.1z M414.6,185.1h4.7
			c2,0,2.3-1.2,2.3-2.4V181c0-1.3-0.4-2.4-2.3-2.4h-4.7V185.1z M414.6,201.7h7.4c2,0,2.3-1.2,2.3-2.4v-2.4c0-1.3-0.4-2.3-2.3-2.3
			h-7.4V201.7z"/>
		<path fill="#FFFFFF" d="M419.2,265.5c-14.6,0-18.3-5-18.3-12.5v-30.2c0-1.5,0.6-2.2,2.2-2.2h9.6c1.5,0,2.2,0.6,2.2,2.2v27.9
			c0,1.6,0.7,2.9,4.5,2.9s4.5-1.3,4.5-2.9v-27.9c0-1.5,0.6-2.2,2.2-2.2h9.3c1.5,0,2.2,0.6,2.2,2.2V253
			C437.5,260.4,433.9,265.5,419.2,265.5z"/>
		<path fill="#FFFFFF" d="M403.1,317.2c-1.5,0-2.2-0.6-2.2-2.2v-39.5c0-1.5,0.6-2.2,2.2-2.2h19.7c9.2,0,12,4.1,12,10.2v2.8
			c0,3.4-0.9,5.8-3.4,6.9c3.7,0.4,6.7,3.7,6.7,8.9v12.9c0,1.5-0.6,2.2-2.2,2.2h-9.4c-1.5,0-2.2-0.6-2.2-2.2v-9.8
			c0-1.8-0.6-2.6-2.3-2.6h-7.3v12.4c0,1.5-0.6,2.2-2.2,2.2H403.1L403.1,317.2z M414.6,292h3.9c2.2,0,2.7-1.3,2.7-2.9v-2.1
			c0-1.6-0.5-2.9-2.7-2.9h-3.9V292z"/>
		<path fill="#FFFFFF" d="M415.6,369.3c-11.5,0-15-5-15-12.5v-19.1c0-7.4,3.5-12.5,15-12.5h15.7c1.5,0,2.2,0.6,2.2,2.2v7.4
			c0,1.5-0.6,2.2-2.2,2.2h-13.2c-3.1,0-3.7,1.4-3.7,3.1v14.7c0,1.6,0.4,3,2.8,3h6.4v-9.5c0-1.5,0.6-2.2,2.2-2.2h9.4
			c1.5,0,2.2,0.6,2.2,2.2v18.9c0,1.5-0.6,2.2-2.2,2.2L415.6,369.3L415.6,369.3z"/>
		<path fill="#FFFFFF" d="M403.1,422.5c-1.5,0-2.2-0.6-2.2-2.2v-39.5c0-1.5,0.6-2.2,2.2-2.2h31.6c1.5,0,2.2,0.6,2.2,2.2v7.1
			c0,1.5-0.6,2.2-2.2,2.2h-19.9v4.7h15c1.5,0,2.2,0.6,2.2,2.2v6.6c0,1.5-0.6,2.2-2.2,2.2h-15v5.2h19.9c1.5,0,2.2,0.6,2.2,2.2v7.1
			c0,1.5-0.6,2.2-2.2,2.2h-31.6V422.5z"/>
		<path fill="#FFFFFF" d="M403.1,475.7c-1.5,0-2.2-0.6-2.2-2.2V434c0-1.5,0.6-2.2,2.2-2.2h19.7c9.2,0,12,4.1,12,10.2v2.8
			c0,3.4-0.9,5.8-3.4,6.9c3.7,0.4,6.7,3.7,6.7,8.9v12.9c0,1.5-0.6,2.2-2.2,2.2h-9.4c-1.5,0-2.2-0.6-2.2-2.2v-9.8
			c0-1.8-0.6-2.6-2.3-2.6h-7.3v12.4c0,1.5-0.6,2.2-2.2,2.2H403.1z M414.6,450.6h3.9c2.2,0,2.7-1.3,2.7-2.9v-2.1
			c0-1.6-0.5-2.9-2.7-2.9h-3.9V450.6z"/>
		<path fill="#FFFFFF" d="M403.1,528.1c-1.5,0-2.2-0.6-2.2-2.2v-7.1c0-1.5,0.6-2.2,2.2-2.2h19.1c1.1,0,1.6-0.8,1.6-1.8
			c0-1.4-0.5-2-1.6-2.1l-11.7-1.3c-5.8-0.9-9.4-3.3-9.4-10.2V495c0-6.9,4.7-10.8,12.7-10.8h20.1c1.5,0,2.2,0.6,2.2,2.2v7.3
			c0,1.5-0.6,2.2-2.2,2.2h-17.4c-1.1,0-1.6,0.7-1.6,1.8c0,1.1,0.6,1.8,1.6,2l11.7,1.3c5.8,0.8,9.5,3.3,9.5,10.2v6.4
			c0,6.9-4.8,10.8-12.7,10.8H403.1z"/>
	</g>
</g>
<g>
	<path fill="#265560" d="M508.2,29.5c0-3.1,1.5-4.5,4.5-4.5h67.5c3,0,4.5,1.5,4.5,4.5v16h-76.6V29.5z"/>
	<path fill="#265560" d="M508.2,116.5V39.8h76.6v76.6H508.2z"/>
	<path fill="#265560" d="M508.2,187.4v-76.6h76.6v76.6H508.2z"/>
	<path fill="#265560" d="M508.2,347V181.7h76.6V347H508.2z"/>
	<path fill="#265560" d="M508.2,439.5v-98.1h76.6v98.1H508.2z"/>
	<path fill="#265560" d="M584.9,437.1h10c5,0,6.5,7,0.7,11.4l-41.1,30.9c-4.8,3.6-10.8,3.6-15.6,0l-41.1-30.9
		c-5.8-4.3-4.3-11.4,0.7-11.4h9.9v-3.3h76.6V437.1z"/>
</g>
<g>
	<path fill="#FFFFFF" d="M530.6,91.6c-1.5,0-2.2-0.7-2.2-2.2v-7.2c0-1.5,0.7-2.2,2.2-2.2h19c1,0,1.6-0.8,1.6-1.8
		c0-1.4-0.5-2-1.6-2.1l-11.7-1.3c-5.7-0.9-9.5-3.3-9.5-10.1v-6.4c0-7,4.7-10.8,12.7-10.8h20.3c1.5,0,2.2,0.7,2.2,2.2v7.3
		c0,1.5-0.7,2.2-2.2,2.2h-17.4c-1,0-1.7,0.7-1.7,1.8c0,1.1,0.6,1.8,1.7,2l11.7,1.2c5.7,0.9,9.5,3.3,9.5,10.1v6.4
		c0,7-4.8,10.8-12.7,10.8H530.6z"/>
	<path fill="#FFFFFF" d="M530.6,143.4c-1.5,0-2.2-0.7-2.2-2.2v-39.6c0-1.5,0.7-2.2,2.2-2.2h9.5c1.5,0,2.2,0.7,2.2,2.2v30.3h9.5v-9.9
		c0-1.5,0.7-2.2,2.2-2.2h8.9c1.5,0,2.2,0.7,2.2,2.2v19.3c0,1.5-0.7,2.2-2.2,2.2H530.6z"/>
	<path fill="#FFFFFF" d="M528.2,191.2c0-1.5,0.7-2.2,2.2-2.2h16.8c2.9,0,4.5-1.2,4.5-4.1V159c0-1.5,0.7-2.2,2.2-2.2h9.5
		c1.5,0,2.2,0.7,2.2,2.2v29c0,8.1-5,12.8-13,12.8h-22.1c-1.5,0-2.2-0.7-2.2-2.2V191.2z M530.4,180.6c-1.5,0-2.2-0.7-2.2-2.2V159
		c0-1.5,0.7-2.2,2.2-2.2h9.5c1.5,0,2.2,0.7,2.2,2.2v19.4c0,1.5-0.7,2.2-2.2,2.2H530.4z"/>
	<path fill="#FFFFFF" d="M541.6,258.2c-1.5,0-2.2-0.7-2.2-2.2v-30h-8.8c-1.5,0-2.2-0.7-2.2-2.2v-7.4c0-1.5,0.7-2.2,2.2-2.2h32.3
		c1.5,0,2.2,0.7,2.2,2.2v7.4c0,1.5-0.7,2.2-2.2,2.2h-8.8v30c0,1.5-0.7,2.2-2.2,2.2H541.6z"/>
	<path fill="#FFFFFF" d="M530.6,310.5c-1.5,0-2.2-0.7-2.2-2.2v-39.6c0-1.5,0.7-2.2,2.2-2.2h31.7c1.5,0,2.2,0.7,2.2,2.2v7.2
		c0,1.5-0.7,2.2-2.2,2.2h-20v4.7h15c1.5,0,2.2,0.6,2.2,2.2v6.5c0,1.5-0.7,2.2-2.2,2.2h-15v5.3h20c1.5,0,2.2,0.7,2.2,2.2v7.2
		c0,1.5-0.7,2.2-2.2,2.2H530.6z"/>
	<path fill="#FFFFFF" d="M530.6,363.8c-1.5,0-2.2-0.7-2.2-2.2V322c0-1.5,0.7-2.2,2.2-2.2h19.7c9.2,0,12,4.2,12,10.2v2.8
		c0,3.4-0.9,5.9-3.4,7c3.7,0.5,6.8,3.7,6.8,8.9v13c0,1.5-0.7,2.2-2.2,2.2H554c-1.5,0-2.2-0.7-2.2-2.2v-9.8c0-1.8-0.6-2.6-2.3-2.6
		h-7.3v12.4c0,1.5-0.7,2.2-2.2,2.2H530.6z M542.2,338.6h3.9c2.1,0,2.7-1.2,2.7-2.9v-2.1c0-1.7-0.5-2.9-2.7-2.9h-3.9V338.6z"/>
	<path fill="#FFFFFF" d="M528.2,410.8c0-1.5,0.7-2.2,2.2-2.2h16.8c2.9,0,4.5-1.2,4.5-4.1v-25.9c0-1.5,0.7-2.2,2.2-2.2h9.5
		c1.5,0,2.2,0.7,2.2,2.2v29c0,8.1-5,12.8-13,12.8h-22.1c-1.5,0-2.2-0.7-2.2-2.2V410.8z M530.4,400.2c-1.5,0-2.2-0.7-2.2-2.2v-19.4
		c0-1.5,0.7-2.2,2.2-2.2h9.5c1.5,0,2.2,0.7,2.2,2.2V398c0,1.5-0.7,2.2-2.2,2.2H530.4z"/>
</g>
</svg>
