<?xml version="1.0" encoding="utf-8"?>
<!-- Generator: Adobe Illustrator 19.2.1, SVG Export Plug-In . SVG Version: 6.00 Build 0)  -->
<svg version="1.1" id="Layer_1" xmlns="http://www.w3.org/2000/svg" xmlns:xlink="http://www.w3.org/1999/xlink" x="0px" y="0px"
	 width="580px" height="680px" viewBox="0 0 580 680" style="enable-background:new 0 0 580 680;" xml:space="preserve">
<style type="text/css">
	.st0{fill:#265560;}
	.st1{fill:#FFFFFF;}
	.st2{fill:#26839C;}
</style>
<g>
	<path class="st0" d="M402.8,120.1h-92.5c-2.3,0-3.3-1-3.3-3.3V24.3c0-2.3,1-3.3,3.3-3.3h92.5c2.3,0,3.3,1,3.3,3.3v92.5
		C406.1,119.1,405.1,120.1,402.8,120.1z M402.8,234.7h-92.5c-2.3,0-3.3-1-3.3-3.3v-92.5c0-2.3,1-3.3,3.3-3.3h92.5
		c2.3,0,3.3,1,3.3,3.3v92.5C406.1,233.7,405.1,234.7,402.8,234.7z M402.8,349.4h-92.5c-2.3,0-3.3-1-3.3-3.3v-92.5
		c0-2.3,1-3.3,3.3-3.3h92.5c2.3,0,3.3,1,3.3,3.3v92.5C406.1,348.4,405.1,349.4,402.8,349.4z M402.8,464.1h-92.5
		c-2.3,0-3.3-1-3.3-3.3v-92.5c0-2.3,1-3.3,3.3-3.3h92.5c2.3,0,3.3,1,3.3,3.3v92.5C406.1,463.1,405.1,464.1,402.8,464.1z
		 M402.8,578.7h-92.5c-2.3,0-3.3-1-3.3-3.3v-92.5c0-2.3,1-3.3,3.3-3.3h92.5c2.3,0,3.3,1,3.3,3.3v92.5
		C406.1,577.7,405.1,578.7,402.8,578.7z"/>
	<path class="st1" d="M333.4,101c-2,0-2.9-0.9-2.9-2.9l0.3-52.4c0-2,0.9-2.9,2.9-2.9h10.6c2.1,0,4.2,0.6,5.3,2.4l5.7,14.2h1.9
		l6.3-14.2c1.1-1.8,2.4-2.4,4.5-2.4h11.3c2.1,0,2.9,0.9,2.9,2.9l0.3,52.4c0,2-0.8,2.9-2.9,2.9h-12.2c-2,0-2.9-0.9-2.9-2.9l-0.3-23.7
		V71l-3.1,8.9c-1,1.9-2.2,2.6-4.3,2.6h-2.2c-2.1,0-3.2-0.7-4.3-2.6l-3.2-8.9v3.4l-0.2,23.7c0,2-0.9,2.9-2.9,2.9H333.4z M356.5,214.2
		c-19.8,0-24.6-6.6-24.6-16.5v-27.5c0-9.9,4.8-16.6,24.6-16.6c19.8,0,24.6,6.7,24.6,16.6v27.5C381.1,207.5,376.3,214.2,356.5,214.2z
		 M356.5,198.6c5.4,0,6.3-1.6,6.3-3.8v-21.7c0-2.1-0.9-3.7-6.3-3.7c-5.3,0-6.2,1.6-6.2,3.7v21.7C350.3,197,351.2,198.6,356.5,198.6z
		 M349.7,328.4c-2,0-2.9-0.9-2.9-2.9v-39.7h-11.6c-2,0-2.9-0.9-2.9-2.9v-9.8c0-2,0.9-2.9,2.9-2.9h42.7c2,0,2.9,0.9,2.9,2.9v9.8
		c0,2-0.9,2.9-2.9,2.9h-11.6v39.7c0,2-0.9,2.9-2.9,2.9H349.7z M335.2,440.9c-2,0-2.9-0.9-2.9-2.9v-52.4c0-2,0.9-2.9,2.9-2.9h41.9
		c2,0,2.9,0.9,2.9,2.9v9.5c0,2-0.9,2.9-2.9,2.9h-26.4v6.2h19.9c2,0,2.9,0.8,2.9,2.9v8.6c0,2-0.9,2.9-2.9,2.9h-19.9v6.9h26.4
		c2,0,2.9,0.9,2.9,2.9v9.5c0,2-0.9,2.9-2.9,2.9h-41.9V440.9z M335.2,556.7c-2,0-2.9-0.9-2.9-2.9v-52.4c0-2,0.9-2.9,2.9-2.9h12.5
		c2,0,2.9,0.9,2.9,2.9v40h12.6v-13.1c0-2,0.9-2.9,2.9-2.9h11.8c2,0,2.9,0.9,2.9,2.9v25.4c0,2-0.9,2.9-2.9,2.9L335.2,556.7
		L335.2,556.7z"/>
	<path class="st0" d="M88.8,119H5.5c-2.3,0-3.3-1-3.3-3.3V23.2c0-2.3,1-3.3,3.3-3.3h101.7c2.3,0,3.8,1,3.3,3.3l-18.4,92.5
		C91.7,118,91.1,119,88.8,119z M88.8,335.5H5.5c-2.3,0-3.3-1-3.3-3.3v-92.5c0-2.3,1-3.3,3.3-3.3h101.7c2.3,0,3.8,1,3.3,3.3
		l-18.4,92.5C91.7,334.5,91.1,335.5,88.8,335.5z M88.8,551.8H5.5c-2.3,0-3.3-1-3.3-3.3v-92.5c0-2.3,1-3.3,3.3-3.3h101.7
		c2.3,0,3.8,1,3.3,3.3l-18.4,92.5C91.7,550.8,91.1,551.8,88.8,551.8z"/>
	<path class="st2" d="M88.8,227.2H5.5c-2.3,0-3.3-1-3.3-3.3v-92.5c0-2.3,1-3.3,3.3-3.3h101.7c2.3,0,3.8,1,3.3,3.3l-18.4,92.5
		C91.7,226.2,91.1,227.2,88.8,227.2z M88.8,443.6H5.5c-2.3,0-3.3-1-3.3-3.3v-92.5c0-2.3,1-3.3,3.3-3.3h101.7c2.3,0,3.8,1,3.3,3.3
		l-18.4,92.5C91.7,442.6,91.1,443.6,88.8,443.6z M88.8,660.2H5.5c-2.3,0-3.3-1-3.3-3.3v-92.5c0-2.3,1-3.3,3.3-3.3h101.7
		c2.3,0,3.8,1,3.3,3.3l-18.4,92.5C91.7,659.2,91.1,660.2,88.8,660.2z"/>
	<path class="st1" d="M77,72.5v25c0,1.6-0.7,2.4-2.5,2.4H66c-1.8,0-2.7-0.8-2.5-2.4v-21c0-3.6-1.8-4.9-5.4-4.9h-5.3l3.3,12.8
		c0.2,1.6-2.4,2.7-4.2,1.5L25.7,68.3c-1.5-0.9-2.4-1.9-2.4-3.5s1-2.6,2.4-3.4l26.2-17.6c1.8-1.2,4.4-0.1,4.2,1.5l-3.3,12.8h6.6
		C73,58.1,77,63.9,77,72.5z M52.4,208.7l-24.6-24.6c-1.5-1.5-1.5-2.9-0.1-4.3l4-4c1.4-1.4,2.9-1.4,4.2-0.1l2.1,2.1l8.5-12.4
		c0.7-1.1,2-2.3,3.2-3.5l17.2-14.8c1.5-1.3,3-1.2,4.4,0.2l1.6,1.6c1.5,1.5,1.5,3-0.2,4.6l-8.1,8.1c0.3,0.1,0.6,0.3,1,0.6l1.9,1.9
		c1.2,1.1,1.5,2.4,0.5,3.8c0.6,0.1,1,0.3,1.5,0.7l2.1,2.1c1.2,1.1,1.4,2.3,0.6,3.6c0.6,0.1,1.1,0.4,1.5,0.8l2.2,2.2
		c1.2,1.3,1.1,3.2,0,4.4l-12.1,13.2c-1.2,1.2-2.7,1.9-3.6,2.2l-2.1,0.6l2.7,2.7c1.2,1.2,1.3,2.7-0.1,4.1l-4,4.1
		C55.3,210.1,53.8,210.1,52.4,208.7z M59.5,201.6l-24.6-24.7c-0.6-0.6-1.4-0.6-2,0l-1.7,1.8c-0.6,0.6-0.6,1.3,0,1.9l24.6,24.6
		c0.6,0.6,1.5,0.6,2,0.1l1.8-1.8C60.2,202.9,60.2,202.1,59.5,201.6z M59.7,195.6c0.7-0.2,1.9-0.7,2.8-1.7l12.1-13.2
		c0.6-0.6,0.6-1.5,0-2.1l-2.1-2.1c-0.5-0.5-1.1-0.8-1.7-0.2v-0.1l-4,4.8l-1.1-1.2l4.6-5.4c0.8-0.8,0.9-1.5,0.2-2.3l-1.9-1.9
		c-0.7-0.7-1.4-0.8-1.9-0.3l-4.1,4.8l-1.1-1.1l4.9-5.7c0.7-0.8,0.8-1.5,0.1-2.3l-1.8-1.9c-0.6-0.6-1.2-0.7-1.8,0v-0.1l-4.8,4.8
		l-1.1-1.1l14.6-14.6c0.8-0.8,0.9-1.6,0.2-2.3l-1.6-1.6c-0.8-0.8-1.6-0.6-2.3-0.1l-17,14.6c-1.1,1-2.3,2.2-2.9,3l-8.6,12.8
		l17.5,17.5L59.7,195.6z M60.3,306.8l-9.1-10.3l-9.4,9.4c-1.2,1.2-3.6,0.2-4-1.9l-6.1-31.6c-0.3-1.7-0.3-3.1,0.8-4.2
		c1.2-1.2,2.6-1.2,4.3-0.9l31.6,6.1c2,0.4,3.1,2.8,1.9,4l-9.4,9.4l10.3,9.1c1.3,1.1,1.1,2.3-0.1,3.5l-7.2,7.3
		C62.7,307.9,61.5,308.1,60.3,306.8z M39.3,417.8l-3.4-0.8c-1.4-0.3-2.1-1.3-1.9-2.9l1.1-7c0.3-2.3,0.8-4.3,0.6-6.5l-0.4-5.3
		l-4.2,4.2c-1.1,1.2-2.7,1.4-4.1,0l-4-4.1c-1.4-1.4-1.4-2.8,0-4.3l20-20c1.5-1.5,2.9-1.4,4.3,0l4,4c1.4,1.4,1.4,2.8,0.1,4.2
		l-2.3,2.3l11.4,4.4c2.3,1,3.8,2.4,5.1,4.1l15.3,20.4c1.1,1.4,0.6,2.5-0.5,3.5l-2.1,2.2c-0.9,0.9-2.3,1.1-3.2,0.2l-12.8-11.8
		l-5.6,5.6c-1.7,1.8-3.6,2.7-6.3,1.8l-5.5-1.9l-2.4,5.4C41.7,417.1,40.8,418.1,39.3,417.8z M30.3,398.2l20-20c0.6-0.6,0.6-1.3,0-1.9
		l-1.8-1.8c-0.6-0.6-1.3-0.6-1.9,0l-20,20c-0.6,0.6-0.6,1.5-0.1,2l1.9,1.9C28.9,399,29.6,398.9,30.3,398.2z M41,414.9l4.2-9.2
		c1-2.4,2-3.8,4.3-4.8l4.4-1.9c1.8-0.8,3.7-0.7,5.3,0.8l16.3,15c0.6,0.6,1.4,0.6,1.9,0.1l1.8-1.8c0.6-0.6,0.6-1.2,0.2-1.7L64.1,391
		c-1.1-1.5-2.3-2.6-4.2-3.4l-12-4.6L37,393.8l0.5,6.5c0.2,2.3-0.2,4.5-0.6,7l-1.1,6.9c-0.2,0.6,0.2,1,0.6,1.1l3,0.8
		C40,416.2,40.6,415.9,41,414.9z M55.4,409.1l5.7-5.7l-2.8-2.6c-1.2-1-2.4-1.2-3.8-0.6l-3.6,1.6c-0.1,0.5,0.3,1.1,1.1,2l-0.2,0.2
		c-1-0.9-2-1.3-2.8-1.2c-1,0.8-1.6,1.8-2.3,3.3l-1.1,2.3l5.3,1.9C52.7,411.1,54.2,410.4,55.4,409.1z M43.1,516.7
		c-0.8,0-1.8-0.6-1.8-1.5v-3.8c0-0.7,0.5-1.5,1.3-1.4l6.6,0.5v-0.8l-7.7-0.6c-1.1-0.1-1.9-0.5-1.9-1.5V504c0-1,0.6-1.6,1.5-1.5
		l6.7,0.5v-0.8l-8.1-0.6c-1.1-0.1-1.9-0.5-1.9-1.5v-3.4c0-0.9,0.6-1.3,1.5-1.3h7.3v-0.8H25.3c-1.1,0-2-0.5-2-1.5v-3.9
		c0-1.1,1-1.6,1.8-1.7l23.2-1.6c1.5-0.1,3.2-0.1,4.2,0.1l15.1,2.9v26.3l-2.7,1.5c-0.6,0.4-1.9,0.8-3.2,0.8L43.1,516.7z M68.3,520.7
		v-36.4c0-1,0.6-1.5,1.4-1.5h7.4c0.8,0,1.4,0.5,1.4,1.5v36.4c0,0.9-0.6,1.5-1.4,1.5h-7.4C68.9,522.2,68.3,521.6,68.3,520.7z
		 M62,638.8c-2,0-3.1-1.1-3.1-3.4v-11.3c-0.3,0.1-0.7,0.2-1.1,0.2h-2.7c-1.7,0-2.7-0.7-3.1-2.3c-0.4,0.3-0.9,0.5-1.5,0.5h-3
		c-1.6,0-2.6-0.6-3-2.1c-0.4,0.3-1,0.4-1.5,0.4h-3.1c-1.8,0-3.1-1.4-3.2-3.1L36,599.9c0-1.7,0.6-3.2,1-4l1.1-1.9h-3.8
		c-1.8,0-2.9-1-2.9-3v-5.7c0-1.9,1-3,3.1-3h34.7c2.2,0,3.1,1,3.1,3v5.7c0,1.9-1.1,3-2.9,3h-3l2.7,14.8c0.2,1.2,0.2,3.1,0.2,4.7
		l-1.6,22.6c-0.1,1.9-1.2,3-3.3,3H62V638.8z M34.4,592.2h34.7c1,0,1.5-0.6,1.5-1.4v-2.5c0-0.8-0.5-1.4-1.5-1.4H34.4
		c-0.9,0-1.5,0.6-1.5,1.4v2.5C32.9,591.7,33.5,592.2,34.4,592.2z M64.3,637.2c1.1,0,1.6-0.7,1.7-1.5l1.6-22.6
		c0.1-1.5,0.1-3.2-0.1-4.2l-2.9-15.1H39.9l-1.5,2.7c-0.4,0.6-0.8,1.9-0.8,3.2l0.8,17.9c0,0.8,0.6,1.5,1.5,1.5h3c0.7,0,1.4-0.2,1.4-1
		l-0.5-6.1h1.6l0.6,7.1c0.1,1.1,0.5,1.7,1.5,1.7h2.7c1,0,1.5-0.4,1.5-1.2l-0.5-6.1h1.7l0.6,7.5c0.1,1.1,0.5,1.7,1.5,1.7h2.6
		c0.9,0,1.4-0.3,1.3-1.2v-6.7h1.6v20.7c0,1.1,0.5,1.8,1.5,1.8L64.3,637.2L64.3,637.2z"/>
	<path class="st2" d="M241.7,120.9c25.8-26.5,24.7-76.7-4.7-100.3h-64.1c-29.2,24.2-30.7,73.4-4.6,100.3c-24.6,25.4-24.6,70.7,0,96
		c-24.6,25.4-24.6,70.7,0,96c-24.7,25.3-24.7,70.6,0,96c-24.6,25.4-24.6,70.6,0,96c-26.1,26.9-24.6,76.1,4.6,100.3H237
		c28.9-23.6,30.9-73.9,4.7-100.3c24.3-25,24.7-71.1,0-96c24.3-25,24.7-71.1-0.1-96c24.3-24.9,24.8-71.1,0.1-96.1
		C266,192,266.4,145.8,241.7,120.9z"/>
	<path class="st1" d="M206.2,199.7c-19.8,0-24.6-6.6-24.6-16.5v-27.5c0-9.9,4.8-16.6,24.6-16.6s24.6,6.7,24.6,16.6v27.5
		C230.7,193.1,226,199.7,206.2,199.7z M206.2,184.1c5.4,0,6.3-1.6,6.3-3.8v-21.7c0-2.1-0.9-3.7-6.3-3.7c-5.3,0-6.2,1.6-6.2,3.7v21.7
		C199.9,182.5,200.8,184.1,206.2,184.1z M206.2,297.1c-19.4,0-24.2-6.6-24.2-16.5v-40c0-2,0.9-2.9,2.9-2.9h12.7c2,0,2.9,0.9,2.9,2.9
		v36.8c0,2.2,1,3.8,5.9,3.8c5,0,6-1.6,6-3.8v-36.8c0-2,0.8-2.9,2.9-2.9h12.3c2,0,2.9,0.9,2.9,2.9v40
		C230.4,290.5,225.6,297.1,206.2,297.1z M206.2,329.9c20,0,25,6.6,25,16.5v40c0,2-0.9,2.9-2.9,2.9h-12.7c-2,0-2.9-0.9-2.9-2.9v-36.8
		c0-2.2-1-3.8-6.6-3.8c-5.7,0-6.7,1.6-6.7,3.8v36.8c0,2-0.8,2.9-2.9,2.9h-12.3c-2,0-2.9-0.9-2.9-2.9v-40
		C181.2,336.5,186.1,329.9,206.2,329.9z M199.3,485.9c-15.3,0-19.9-6.7-19.9-16.5v-25.2c0-9.8,4.6-16.5,19.9-16.5h20.8
		c2,0,2.9,0.9,2.9,2.9v9.8c0,2-0.9,2.9-2.9,2.9h-17.5c-4.2,0-4.9,1.9-4.9,4v19.3c0,2.2,0.5,4,3.7,4h8.5v-12.6c0-2,0.9-2.9,2.9-2.9
		h12.5c2,0,2.9,0.9,2.9,2.9v25c0,2-0.9,2.9-2.9,2.9L199.3,485.9L199.3,485.9z M179.2,540.1c0-10,4.7-16.8,20.2-16.8h25.7
		c2,0,3,0.9,3,3v9.6c0,2-0.9,3-3,3h-22.4c-4.3,0-5,2-5,4.1v2.2h20.7c2,0,3,0.8,3,3v8.8c0,2-0.9,3-3,3h-20.7v3.1c0,2.3,0.7,3.9,5,3.9
		h22.4c2,0,3,0.9,3,2.9v9.6c0,2-0.9,3-3,3h-25.7c-15.5,0-20.2-6.8-20.2-16.7V540.1z M200.5,45.4v40.2h26.8c2,0,2.9,0.9,2.9,3v9.9
		c0,2-0.9,3-2.9,3h-42.4c-2,0-2.9-0.9-2.9-3V45.4c0-2,0.9-3,2.9-3h12.7C199.6,42.5,200.5,43.4,200.5,45.4z"/>
	<path class="st2" d="M572.9,587.2h-13.6v-4.6h-0.1V463.4v-7.9V243.9v-7.8v-89.8v-7.8V41.1h-0.1V26.8c0-4.2-2-6.2-6.2-6.2H460
		c-4.2,0-6.2,2-6.2,6.2v14.3v7.7v89.8v7.8v89.8v7.8v211.6v7.9v123.8h-13.5c-7,0-9,9.7-1,15.6l56.5,42.5c6.7,5,14.9,5,21.5,0
		l56.6-42.5C581.9,596.8,579.7,587.2,572.9,587.2z"/>
	<path class="st1" d="M484.6,112.3c-2.1,0-3-0.9-3-3v-9.8c0-2.1,0.9-3,3-3h26.1c1.4,0,2.2-1.1,2.2-2.4c0-1.9-0.8-2.7-2.2-2.9
		l-16.1-1.8c-7.9-1.2-13-4.5-13-14v-8.8c0-9.6,6.5-14.8,17.4-14.8h27.9c2.1,0,3,0.9,3,3v10c0,2.1-0.9,3-3,3h-24
		c-1.4,0-2.3,1-2.3,2.5s0.8,2.5,2.3,2.7l16.1,1.7c7.9,1.2,13.1,4.5,13.1,14v8.8c0,9.6-6.6,14.8-17.4,14.8H484.6z M484.6,183.4
		c-2.1,0-3-0.9-3-3v-54.5c0-2.1,0.9-3,3-3h13c2.1,0,3,0.9,3,3v41.6h13.1v-13.6c0-2.1,0.9-3,3-3h12.2c2.1,0,3,0.9,3,3v26.5
		c0,2.1-0.9,3-3,3H484.6z M481.3,249.2c0-2.1,0.9-3,3-3h23.1c4,0,6.1-1.6,6.1-5.6v-35.7c0-2.1,0.9-3,3-3h13c2.1,0,3,0.9,3,3v39.8
		c0,11.1-6.8,17.6-17.9,17.6h-30.4c-2.1,0-3-0.9-3-3v-10.1H481.3z M484.3,234.7c-2.1,0-3-0.9-3-3v-26.8c0-2.1,0.9-3,3-3h13
		c2.1,0,3,0.9,3,3v26.7c0,2.1-0.9,3-3,3h-13V234.7z M499.7,341.4c-2.1,0-3-0.9-3-3v-41.3h-12.1c-2.1,0-3-0.9-3-3v-10.2
		c0-2.1,0.9-3,3-3H529c2.1,0,3,0.9,3,3v10.2c0,2.1-0.9,3-3,3h-12.1v41.3c0,2.1-0.9,3-3,3H499.7z M484.6,413.1c-2.1,0-3-0.9-3-3
		v-54.5c0-2.1,0.9-3,3-3h43.5c2.1,0,3,0.9,3,3v9.8c0,2.1-0.9,3-3,3h-27.5v6.5h20.7c2.1,0,3,0.8,3,3v9c0,2.1-0.9,3-3,3h-20.7v7.2
		h27.5c2.1,0,3,0.9,3,3v9.8c0,2.1-0.9,3-3,3h-43.5V413.1z M484.6,486.5c-2.1,0-3-0.9-3-3V429c0-2.1,0.9-3,3-3h27.1
		c12.6,0,16.6,5.7,16.6,14v3.9c0,4.7-1.2,8.1-4.7,9.6c5.1,0.7,9.3,5.1,9.3,12.2v17.8c0,2.1-0.9,3-3,3h-13c-2.1,0-3-0.9-3-3V470
		c0-2.5-0.8-3.6-3.2-3.6h-10v17.1c0,2.1-0.9,3-3,3H484.6z M500.5,451.9h5.4c2.9,0,3.7-1.7,3.7-3.9v-2.9c0-2.3-0.8-4-3.7-4h-5.4
		V451.9z M481.3,551.2c0-2.1,0.9-3,3-3h23.1c4,0,6.1-1.6,6.1-5.6v-35.7c0-2.1,0.9-3,3-3h13c2.1,0,3,0.9,3,3v39.8
		c0,11.1-6.8,17.6-17.9,17.6h-30.4c-2.1,0-3-0.9-3-3v-10.1H481.3z M484.3,536.6c-2.1,0-3-0.9-3-3v-26.7c0-2.1,0.9-3,3-3h13
		c2.1,0,3,0.9,3,3v26.7c0,2.1-0.9,3-3,3H484.3z"/>
</g>
</svg>
