<?xml version="1.0" encoding="utf-8"?>
<!-- Generator: Adobe Illustrator 19.2.1, SVG Export Plug-In . SVG Version: 6.00 Build 0)  -->
<svg version="1.1" id="Layer_1" xmlns="http://www.w3.org/2000/svg" xmlns:xlink="http://www.w3.org/1999/xlink" x="0px" y="0px"
	 width="600px" height="680px" viewBox="0 0 600 680" style="enable-background:new 0 0 600 680;" xml:space="preserve">
<style type="text/css">
	.st0{fill:#26839C;}
	.st1{fill:#FFFFFF;}
	.st2{fill:#265560;}
</style>
<path class="st0" d="M333.2,590.1l-55.6-58.7c-4.3-4.4-8.6-3.2-8.6,1.1v14.8h-5.1c-4.9,0-6.5-2.5-6.5-8v-6.3v-76.5V448v-99.2v-8.6
	V241v-8.7v-74.8v-33.1V86.8c0-2.7-1.7-4.7-6.1-3l-52.1,20.8l-52.7-20.9c-3.8-1.5-5.6,0.5-5.6,3.2v37.6v33.1v74.8v8.6v99.3v8.6V448
	v8.6v76.6v31.4v0.9c0,47.6,26.7,79.2,86.2,79.2H269v16.5c0,4.4,4.6,5.4,8.6,1.1l55.6-59.2C337.3,598.8,337.9,595.1,333.2,590.1z"/>
<path class="st0" d="M585.5,33.1h-16.6V18c0-2.8-1.2-3.8-3.8-3.8H456.3c-2.7,0-3.8,1.1-3.8,3.8v15.1h-16.7c-2.7,0-3.8,1.1-3.8,3.8
	v51.3c0,2.8,1.2,3.8,3.8,3.8c11.2,0,16.6,6.1,16.6,16.6v4.7v62.3v8.6v99.2v8.6v147.2v8.6v63.3v80.6v33.6v2.3v4.6
	c0,16.6,11.5,27.6,58.2,27.6c46.8,0,58.2-11,58.2-27.6v-4.6v-2.3v-33.6V511v-63.3v-8.6V292v-8.6v-99.2v-8.6v-62.3v-3.8
	c0-10.9,5.3-17.3,16.6-17.3c2.7,0,3.8-1.1,3.8-3.8V37C589.4,34.1,588.2,33.1,585.5,33.1z"/>
<path class="st1" d="M177.5,196.9c-2.2,0-3.1-1-3.1-3.1v-56.7c0-2.2,1-3.2,3.1-3.2h13.6c2.2,0,3.1,1,3.1,3.2v43.2h13.6v-14.1
	c0-2.2,1-3.1,3.1-3.1h12.7c2.2,0,3.1,1,3.1,3.1v27.6c0,2.2-1,3.1-3.1,3.1H177.5L177.5,196.9L177.5,196.9z M175.2,270.8v-10.4
	c0-2.2,1-3.2,3.1-3.2H190v-29.4h-11.7c-2.2,0-3.1-1-3.1-3.2v-10.5c0-2.2,1-3.2,3.1-3.2h44.6c2.2,0,3.1,1,3.1,3.2v10.6
	c0,2.2-1,3.2-3.1,3.2h-11.7v29.4h11.7c2.2,0,3.1,1,3.1,3.2v10.4c0,2.2-1,3.1-3.1,3.1h-44.6C176.1,273.9,175.2,272.9,175.2,270.8z
	 M193.8,358.1c-2.2,0-3.1-1-3.1-3.2V350c-13.1-2-16.7-8.4-16.7-17.2v-29c0-10.6,5.2-17.9,26.6-17.9c21.4,0,26.6,7.3,26.6,17.9v29
	c0,8.9-3.5,15.2-16.8,17.2v4.8c0,2.2-1,3.2-3.1,3.2h-13.5V358.1z M200.6,335.1c5.8,0,6.8-1.7,6.8-4.1v-23.8c0-2.2-1-4.1-6.8-4.1
	c-5.8,0-6.7,1.7-6.7,4.1V331C193.8,333.3,194.8,335.1,200.6,335.1z M200.6,432.3c-21,0-26.2-7.2-26.2-17.8v-43.2
	c0-2.2,1-3.2,3.1-3.2h13.7c2.2,0,3.1,1,3.1,3.2v39.9c0,2.3,1,4.1,6.4,4.1s6.4-1.7,6.4-4.1v-39.9c0-2.2,0.9-3.2,3.1-3.2h13.3
	c2.2,0,3.1,1,3.1,3.2v43.2C226.8,425.1,221.6,432.3,200.6,432.3z M200.6,507.9c-21.4,0-26.6-7.2-26.6-17.8v-29.8
	c0-10.6,5.2-17.9,26.6-17.9c21.4,0,26.6,7.3,26.6,17.9v29.8C227.2,500.8,222,507.9,200.6,507.9z M200.6,491.1c5.8,0,6.8-1.7,6.8-4.1
	v-23.5c0-2.2-1-4.1-6.8-4.1c-5.8,0-6.7,1.7-6.7,4.1V487C193.8,489.3,194.8,491.1,200.6,491.1z M177.5,582.2c-2.2,0-3.1-1-3.1-3.1
	v-56.7c0-2.2,1-3.2,3.1-3.2h28.2c13.1,0,17.2,5.9,17.2,14.6v4.1c0,4.9-1.2,8.4-4.9,10c5.3,0.7,9.8,5.3,9.8,12.7v18.5
	c0,2.2-1,3.1-3.1,3.1H211c-2.2,0-3.1-1-3.1-3.1v-14c0-2.6-0.9-3.7-3.3-3.7h-10.4v17.8c0,2.2-1,3.1-3.1,3.1L177.5,582.2L177.5,582.2
	L177.5,582.2z M194.1,546.2h5.6c3.1,0,3.8-1.7,3.8-4.1V539c0-2.3-0.7-4.1-3.8-4.1h-5.6V546.2z"/>
<path class="st1" d="M466.8,76.8c-1,0-1.4-0.4-1.4-1.4V56.5h-5.7c-1,0-1.4-0.4-1.4-1.4v-4.7c0-1,0.4-1.4,1.4-1.4H480
	c1,0,1.4,0.4,1.4,1.4v4.7c0,1-0.4,1.4-1.4,1.4h-5.7v18.9c0,1-0.4,1.4-1.4,1.4C472.9,76.8,466.8,76.8,466.8,76.8z M487.6,171.7
	c-2.2,0-3.1-1-3.1-3.1v-56.7c0-2.2,1-3.2,3.1-3.2h13.6c2.2,0,3.1,1,3.1,3.2v19H517v-19c0-2.2,1-3.2,3.1-3.2h13.6
	c2.2,0,3.1,1,3.1,3.2v56.7c0,2.2-1,3.1-3.1,3.1h-13.6c-2.2,0-3.1-1-3.1-3.1v-19.4h-12.7v19.4c0,2.2-1,3.1-3.1,3.1H487.6z
	 M500.4,246.1h-12.9c-2.2,0-3.1-1.1-3.1-3.2v-43.2c0-10.6,4.4-17.8,26.2-17.8c21.7,0,26.3,7.3,26.3,17.8v43.2c0,2.2-1,3.2-3.1,3.2
	h-13.5c-2.2,0-3.1-1.1-3.1-3.2v-13h-13.8v13C503.5,245.1,502.5,246.1,500.4,246.1z M503.5,213.8h13.7v-11.2c0-2.3-0.7-4.1-6.8-4.1
	c-6.2,0-6.9,1.7-6.9,4.1L503.5,213.8L503.5,213.8z M510.6,317.4c-2.5,2.8-6.5,4.3-13.1,4.3c-13.2,0-17.4-7.2-17.4-17.8v-43.2
	c0-2.2,1-3.2,3.1-3.2h10.3c2.2,0,3.1,1,3.1,3.2v40.5c0,2.3,0.6,3.5,2.8,3.5c2.2,0,2.8-1.1,2.8-3.5v-40.5c0-2.2,1-3.2,3.1-3.2h10.3
	c2.2,0,3.1,1,3.1,3.2v40.5c0,2.3,0.5,3.5,2.8,3.5c2.2,0,2.8-1.1,2.8-3.5v-40.5c0-2.2,0.9-3.2,3.1-3.2h10.3c2.2,0,3.1,1,3.1,3.2v43.2
	c0,10.6-4.2,17.8-17.4,17.8C517.1,321.8,513,320.2,510.6,317.4z M500.4,394.9h-12.9c-2.2,0-3.1-1.1-3.1-3.2v-43.2
	c0-10.6,4.4-17.8,26.2-17.8c21.7,0,26.3,7.3,26.3,17.8v43.2c0,2.2-1,3.2-3.1,3.2h-13.5c-2.2,0-3.1-1.1-3.1-3.2v-13h-13.8v13
	C503.5,393.7,502.5,394.9,500.4,394.9z M503.5,362.6h13.7v-11.2c0-2.3-0.7-4.1-6.8-4.1c-6.2,0-6.9,1.7-6.9,4.1L503.5,362.6
	L503.5,362.6z M504.3,466c0,2.2-1,3.1-3.1,3.1h-13.6c-2.2,0-3.1-1-3.1-3.1v-56.7c0-2.2,1-3.2,3.1-3.2h13.6c2.2,0,3.1,1,3.1,3.2V466z
	 M517,409.3c0-2.2,1-3.2,3.1-3.2h13.6c2.2,0,3.1,1,3.1,3.2V466c0,2.2-1,3.1-3.1,3.1h-13.6c-2.2,0-3.1-1-3.1-3.1V409.3z M500.4,543.5
	h-12.9c-2.2,0-3.1-1.1-3.1-3.2v-43.2c0-10.6,4.4-17.8,26.2-17.8c21.7,0,26.3,7.3,26.3,17.8v43.2c0,2.2-1,3.2-3.1,3.2h-13.5
	c-2.2,0-3.1-1.1-3.1-3.2v-13h-13.8v13C503.5,542.5,502.5,543.5,500.4,543.5z M503.5,511.2h13.7V500c0-2.3-0.7-4.1-6.8-4.1
	c-6.2,0-6.9,1.7-6.9,4.1L503.5,511.2L503.5,511.2z M510.6,553.5c21.7,0,26.2,7.2,26.2,17.8v43.2c0,2.2-1,3.2-3.1,3.2H520
	c-2.2,0-3.1-1.1-3.1-3.2v-39.9c0-2.3-1-4.1-6.4-4.1c-5.4,0-6.4,1.7-6.4,4.1v39.9c0,2.2-0.9,3.2-3.1,3.2h-13.3
	c-2.2,0-3.1-1.1-3.1-3.2v-43.2C484.4,560.7,489,553.5,510.6,553.5z M498,76.8c-1,0-1.4-0.4-1.4-1.4v-25c0-1,0.4-1.4,1.4-1.4h5.9
	c1,0,1.4,0.4,1.4,1.4v8.3h6.4v-8.3c0-1,0.4-1.4,1.4-1.4h5.9c1,0,1.4,0.4,1.4,1.4v24.9c0,1-0.4,1.4-1.4,1.4h-6c-1,0-1.4-0.4-1.4-1.4
	v-8.5h-6.4v8.5c0,1-0.4,1.4-1.4,1.4L498,76.8L498,76.8z M538.6,76.8c-1,0-1.4-0.4-1.4-1.4v-25c0-1,0.4-1.4,1.4-1.4h17.8
	c1,0,1.4,0.4,1.4,1.4v4.4c0,1-0.4,1.4-1.4,1.4h-10.5v3h7.4c1,0,1.4,0.4,1.4,1.4v4.1c0,1-0.4,1.4-1.4,1.4h-7.4v3.3h10.5
	c1,0,1.4,0.4,1.4,1.4v4.4c0,1-0.4,1.4-1.4,1.4h-17.8V76.8L538.6,76.8z"/>
<path class="st2" d="M410,419.5c-0.4-3.5-0.4-4.1-0.4-6.3V412v-4.2h-0.1V304.2v-8.6v-63.3v-44.6v-27.3v-44.6V61.4v-5.6
	c0-2.1,0-2.8,0.4-6.3l2.1-18.2c0.2-1.6-1.5-2.8-3-2.1l-31.3,12.4c-1,0.5-2.3,0.4-3.2-0.4l-20.4-16.9c-1.6-1.4-4.2-1.4-5.8,0
	L328,41.2c-0.9,0.7-2.2,0.9-3.2,0.4l-31.3-12.4c-1.5-0.6-3.2,0.5-3,2.1l2.1,18.3c0.4,3.5,0.4,4.1,0.4,6.3v5.6v54.4v44.6v27.3v44.5
	v63.3v8.6v103.5v4.3v1.2c0,2.1,0,2.8-0.4,6.3l-2.1,18.3c-0.2,1.6,1.5,2.8,3,2.1l31.3-12.4c1-0.5,2.3-0.4,3.2,0.4l20.4,16.9
	c1.6,1.4,4.2,1.4,5.8,0l20.4-16.9c0.9-0.7,2.2-0.9,3.2-0.4l31.3,12.4c1.5,0.6,3.2-0.5,3-2.1L410,419.5z"/>
<path class="st1" d="M327.2,149.7c-2.2,0-3.3-1-3.3-3.3v-59c0-2.2,1-3.3,3.3-3.3h28.3c12.4,0,17.5,5.9,17.5,14v4.2
	c0,4.7-1.4,8.2-5.4,9.9c6.5,0.6,11.5,5.6,11.5,14.1v8.4c0,9.1-6.1,15-17.7,15H327.2L327.2,149.7z M344.4,109.4h6.9
	c3,0,3.5-1.7,3.5-3.6v-2.6c0-1.9-0.5-3.6-3.5-3.6h-6.9V109.4z M344.4,134.2h11c3,0,3.5-1.7,3.5-3.6V127c0-2-0.5-3.6-3.5-3.6h-11
	V134.2z M327.2,305.7c-2.2,0-3.3-1-3.3-3.3v-59.1c0-2.2,1-3.3,3.3-3.3h29.3c13.7,0,17.9,6.2,17.9,15.2v4.2c0,5.1-1.2,8.8-5.1,10.4
	c5.6,0.7,10.1,5.6,10.1,13.2v19.3c0,2.2-1,3.3-3.3,3.3H362c-2.2,0-3.3-1-3.3-3.3v-14.6c0-2.7-0.9-4-3.5-4h-10.9v18.6
	c0,2.2-1,3.3-3.3,3.3L327.2,305.7L327.2,305.7L327.2,305.7z M344.5,268.1h5.8c3.2,0,4-1.9,4-4.3v-3.1c0-2.5-0.9-4.3-4-4.3h-5.8
	V268.1z M322.4,367.4l-5.8-5.8c-0.6-0.6-0.6-1.6,0.1-2.2l28.9-28.9c0.7-0.9,1.6-0.7,2.2-0.1l5.8,5.8c0.6,0.6,0.7,1.6-0.1,2.2
	l-28.9,28.9C324,368.1,323,368.1,322.4,367.4z M332.8,370.2c-1.1-1.1-1.7-2.3-1.9-3.2l-1.1-3.3l21-21l14.3,9.8c1,0.6,2.3,2,3.5,3.3
	l17.2,19.8c0.5,0.6,0.9,1.9,0,2.7l-3.1,3.1c-0.9,0.9-1.9,0.5-2.8-0.4L363,363.9l-0.6,0.6l5.8,5.8c0.7,0.6,0.9,1.5,0.1,2.2l-2.6,2.6
	c-0.9,0.9-1.9,0.5-2.8-0.2l-6.8-6.1l-0.6,0.6l5.7,4.9c0.7,0.6,0.7,1.6,0,2.5l-2.8,2.8c-0.9,0.9-1.9,0.5-2.8-0.4l-6.5-5.7l-0.6,0.6
	l5.7,4.9c0.7,0.5,0.5,1.6,0,2.1l-3.1,3c-0.6,0.6-1.9,0.5-2.6-0.1L332.8,370.2z M341,226.5h-12.9c-2.2,0-3.1-1.1-3.1-3.2v-43.2
	c0-10.6,4.4-17.8,26.2-17.8c21.7,0,26.3,7.3,26.3,17.8v43.2c0,2.2-1,3.2-3.1,3.2h-13.3c-2.2,0-3.1-1.1-3.1-3.2v-13h-13.7v12.9
	C344.2,225.4,343.2,226.5,341,226.5z M344.2,194.1h13.7v-11.2c0-2.3-0.7-4.1-6.8-4.1c-6.2,0-6.9,1.7-6.9,4.1L344.2,194.1
	L344.2,194.1z"/>
<path class="st2" d="M0,15c0-2.4,1.1-3.5,3.5-3.5h54.4c29.4,0,46.3,16.9,46.3,46.4v54.3c0,2.4-1.1,3.5-3.5,3.5H2.9
	c-1.6,0-2.9-1.3-2.9-2.9C0,112.8,0,15,0,15z M0,125.2c0-2.4,1.1-3.5,3.5-3.5h54.4c29.4,0,46.3,16.9,46.3,46.4v54.3
	c0,2.4-1.1,3.5-3.5,3.5H2.9c-1.6,0-2.9-1.3-2.9-2.9C0,223,0,125.2,0,125.2z M0,235.4c0-2.4,1.1-3.5,3.5-3.5h54.4
	c29.4,0,46.3,16.9,46.3,46.4v54.3c0,2.4-1.1,3.5-3.5,3.5H2.9c-1.6,0-2.9-1.3-2.9-2.9C0,333.2,0,235.4,0,235.4z M0,345.5
	c0-2.4,1.1-3.5,3.5-3.5h54.4c29.4,0,46.3,16.9,46.3,46.4v54.3c0,2.4-1.1,3.5-3.5,3.5H2.9c-1.6,0-2.9-1.3-2.9-2.9
	C0,443.3,0,345.5,0,345.5z M0,455.7c0-2.4,1.1-3.5,3.5-3.5h54.4c29.4,0,46.3,16.9,46.3,46.4v54.3c0,2.4-1.1,3.5-3.5,3.5H2.9
	c-1.6,0-2.9-1.3-2.9-2.9C0,553.5,0,455.7,0,455.7z M0,565.9c0-2.4,1.1-3.5,3.5-3.5h54.4c29.4,0,46.3,16.9,46.3,46.4v54.3
	c0,2.4-1.1,3.5-3.5,3.5H2.9c-1.6,0-2.9-1.3-2.9-2.9C0,663.7,0,565.9,0,565.9z"/>
<path class="st1" d="M45.6,95.2C29,95.2,24,87.9,24,77.3V50c0-10.7,5-18,21.6-18h27.5c2.2,0,3.2,1,3.2,3.2v10.6c0,2.2-1,3.2-3.2,3.2
	H49.4c-4.6,0-5.4,2.1-5.4,4.4v20.9c0,2.5,0.8,4.2,5.4,4.2h23.7c2.2,0,3.2,1,3.2,3.2v10.4c0,2.2-1,3.2-3.2,3.2L45.6,95.2L45.6,95.2z
	 M43.7,205.4c-2.2,0-3.2-1-3.2-3.2v-56.8c0-2.2,1-3.2,3.2-3.2h14c2.2,0,3.2,1,3.2,3.2v56.9c0,2.2-1,3.2-3.2,3.2L43.7,205.4
	L43.7,205.4z M50.7,251.7c21.8,0,26.3,7.2,26.3,17.9V313c0,2.2-1,3.2-3.2,3.2H60.1c-2.2,0-3.2-1.1-3.2-3.2v-40
	c0-2.4-1.1-4.1-6.4-4.1c-5.4,0-6.5,1.8-6.5,4.1v40c0,2.2-0.9,3.2-3.2,3.2H27.5c-2.2,0-3.2-1.1-3.2-3.2v-43.4
	C24.3,258.8,28.9,251.7,50.7,251.7z M24,380.5c0-10.7,5-18,21.6-18h27.5c2.2,0,3.2,1,3.2,3.2V376c0,2.2-1,3.2-3.2,3.2h-24
	c-4.6,0-5.4,2.1-5.4,4.4v2.4h22.2c2.2,0,3.2,0.9,3.2,3.2v9.4c0,2.2-1,3.2-3.2,3.2H43.7v3.3c0,2.5,0.8,4.2,5.4,4.2h24
	c2.2,0,3.2,1,3.2,3.2v10.3c0,2.2-1,3.2-3.2,3.2H45.6C29,425.7,24,418.4,24,407.8V380.5z M20,533.4V490c0-10.7,4.2-17.9,17.5-17.9
	c6.6,0,10.7,1.6,13.1,4.4c2.5-2.8,6.6-4.4,13.2-4.4c13.3,0,17.5,7.2,17.5,17.9v43.4c0,2.2-1,3.2-3.2,3.2H67.8c-2.3,0-3.2-1-3.2-3.2
	v-40.6c0-2.4-0.6-3.5-2.9-3.5c-2.3,0-2.8,1.1-2.8,3.5v40.6c0,2.2-1,3.2-3.2,3.2H45.5c-2.2,0-3.2-1-3.2-3.2v-40.6
	c0-2.4-0.5-3.5-2.8-3.5s-2.9,1.1-2.9,3.5v40.6c0,2.2-0.9,3.2-3.2,3.2H23.2C21,536.5,20,535.6,20,533.4z M24.3,600
	c0-10.6,4.5-17.9,26.2-17.9c21.9,0,26.4,7.3,26.4,17.9v43.4c0,2.2-1,3.2-3.2,3.2H60.5c-2.2,0-3.2-1.1-3.2-3.2v-13.1H43.6v13.1
	c0,2.2-1,3.2-3.2,3.2H27.5c-2.2,0-3.2-1.1-3.2-3.2V600z M43.6,614.3h13.8v-11.3c0-2.4-0.7-4.1-6.8-4.1c-6.2,0-6.9,1.8-6.9,4.1v11.3
	H43.6z"/>
</svg>
