<?xml version="1.0" encoding="utf-8"?>
<!-- Generator: Adobe Illustrator 17.1.0, SVG Export Plug-In . SVG Version: 6.00 Build 0)  -->
<!DOCTYPE svg PUBLIC "-//W3C//DTD SVG 1.1//EN" "http://www.w3.org/Graphics/SVG/1.1/DTD/svg11.dtd">
<svg version="1.1" id="Layer_1" xmlns="http://www.w3.org/2000/svg" xmlns:xlink="http://www.w3.org/1999/xlink" x="0px" y="0px"
	 viewBox="-56.3 -86.1 620 800" enable-background="new -56.3 -86.1 620 800" xml:space="preserve">
<path fill="#26839C" d="M242.6,399.4c-4.3-4.4-8.6-3.2-8.6,1.1v14.8h-5.1c-4.9,0-6.5-2.5-6.5-8V401v-76.5v-8.6v-99.2V208v-99.2v-8.6
	V25.4V-7.8v-37.6c0-2.7-1.7-4.7-6.1-3l-52.1,20.8l-52.6-20.9c-3.8-1.5-5.6,0.5-5.6,3.2v37.6v33.1v74.8v8.6v99.2v8.6V316v8.6v76.5
	v31.4v0.9c0,47.6,26.7,79.2,86.2,79.2h41.9v16.6c0,4.4,4.6,5.4,8.6,1.1l55.6-59.2c4.1-4.4,4.7-8,0-13L242.6,399.4z"/>
<path fill="#26839C" d="M550.5-27.1h-16.6v-15.1c0-2.8-1.2-3.8-3.8-3.8H421.3c-2.7,0-3.8,1.1-3.8,3.8v15.1h-16.7
	c-2.7,0-3.8,1.1-3.8,3.8V28c0,2.8,1.2,3.8,3.8,3.8c11.2,0,16.6,6.1,16.6,16.6v4.7v62.3v8.6v99.2v8.6V379v8.6V451v80.6v33.6v2.3v4.6
	c0,16.6,11.5,27.6,58.2,27.6c46.8,0,58.2-11,58.2-27.6v-4.6v-2.3v-33.6V451v-63.3V379V231.9v-8.6V124v-8.6V53.1v-3.8
	c0-10.9,5.3-17.3,16.6-17.3c2.7,0,3.8-1.1,3.8-3.8v-51.4C554.4-26.1,553.2-27.1,550.5-27.1z"/>
<g>
	<path fill="#FFFFFF" d="M452.6,111.5c-2.2,0-3.1-1-3.1-3.1V51.7c0-2.2,1-3.2,3.1-3.2h13.6c2.2,0,3.1,1,3.1,3.2v19H482v-19
		c0-2.2,1-3.2,3.1-3.2h13.6c2.2,0,3.1,1,3.1,3.2v56.7c0,2.2-1,3.1-3.1,3.1h-13.6c-2.2,0-3.1-1-3.1-3.1V89.1h-12.7v19.4
		c0,2.2-1,3.1-3.1,3.1H452.6z"/>
	<path fill="#FFFFFF" d="M465.4,185.9h-12.9c-2.2,0-3.1-1.1-3.1-3.2v-43.2c0-10.6,4.4-17.8,26.2-17.8c21.7,0,26.3,7.3,26.3,17.8
		v43.2c0,2.2-1,3.2-3.1,3.2h-13.5c-2.2,0-3.1-1.1-3.1-3.2v-13h-13.8v13C468.5,184.9,467.5,185.9,465.4,185.9z M468.5,153.7h13.7
		v-11.2c0-2.3-0.7-4.1-6.8-4.1c-6.2,0-6.9,1.7-6.9,4.1V153.7z"/>
	<path fill="#FFFFFF" d="M475.6,257.2c-2.5,2.8-6.5,4.3-13.1,4.3c-13.2,0-17.4-7.2-17.4-17.8v-43.2c0-2.2,1-3.2,3.1-3.2h10.3
		c2.2,0,3.1,1,3.1,3.2V241c0,2.3,0.6,3.5,2.8,3.5c2.2,0,2.8-1.1,2.8-3.5v-40.5c0-2.2,1-3.2,3.1-3.2h10.3c2.2,0,3.1,1,3.1,3.2V241
		c0,2.3,0.5,3.5,2.8,3.5c2.2,0,2.8-1.1,2.8-3.5v-40.5c0-2.2,0.9-3.2,3.1-3.2h10.3c2.2,0,3.1,1,3.1,3.2v43.2
		c0,10.6-4.2,17.8-17.4,17.8C482.1,261.7,478,260.1,475.6,257.2z"/>
	<path fill="#FFFFFF" d="M465.4,334.7h-12.9c-2.2,0-3.1-1.1-3.1-3.2v-43.2c0-10.6,4.4-17.8,26.2-17.8c21.7,0,26.3,7.3,26.3,17.8
		v43.2c0,2.2-1,3.2-3.1,3.2h-13.5c-2.2,0-3.1-1.1-3.1-3.2v-13h-13.8v13C468.5,333.6,467.5,334.7,465.4,334.7z M468.5,302.4h13.7
		v-11.2c0-2.3-0.7-4.1-6.8-4.1c-6.2,0-6.9,1.7-6.9,4.1V302.4z"/>
	<path fill="#FFFFFF" d="M469.3,405.9c0,2.2-1,3.1-3.1,3.1h-13.6c-2.2,0-3.1-1-3.1-3.1v-56.7c0-2.2,1-3.2,3.1-3.2h13.6
		c2.2,0,3.1,1,3.1,3.2V405.9z M482,349.1c0-2.2,1-3.2,3.1-3.2h13.6c2.2,0,3.1,1,3.1,3.2v56.7c0,2.2-1,3.1-3.1,3.1h-13.6
		c-2.2,0-3.1-1-3.1-3.1V349.1z"/>
	<path fill="#FFFFFF" d="M465.4,483.3h-12.9c-2.2,0-3.1-1.1-3.1-3.2v-43.2c0-10.6,4.4-17.8,26.2-17.8c21.7,0,26.3,7.3,26.3,17.8
		v43.2c0,2.2-1,3.2-3.1,3.2h-13.5c-2.2,0-3.1-1.1-3.1-3.2v-13h-13.8v13C468.5,482.3,467.5,483.3,465.4,483.3z M468.5,451.1h13.7
		v-11.2c0-2.3-0.7-4.1-6.8-4.1c-6.2,0-6.9,1.7-6.9,4.1V451.1z"/>
	<path fill="#FFFFFF" d="M475.6,493.3c21.7,0,26.2,7.2,26.2,17.8v43.2c0,2.2-1,3.2-3.1,3.2H485c-2.2,0-3.1-1.1-3.1-3.2v-39.9
		c0-2.3-1-4.1-6.4-4.1s-6.4,1.7-6.4,4.1v39.9c0,2.2-0.9,3.2-3.1,3.2h-13.3c-2.2,0-3.1-1.1-3.1-3.2v-43.2
		C449.4,500.5,454,493.3,475.6,493.3z"/>
</g>
<g>
	<path fill="#FFFFFF" d="M142.5,64.8c-2.2,0-3.1-1-3.1-3.1V5c0-2.2,1-3.2,3.1-3.2h13.6c2.2,0,3.1,1,3.1,3.2v43.2h13.6V34
		c0-2.2,1-3.1,3.1-3.1h12.7c2.2,0,3.1,1,3.1,3.1v27.6c0,2.2-1,3.1-3.1,3.1h-46.1V64.8z"/>
	<path fill="#FFFFFF" d="M140.2,138.7v-10.4c0-2.2,1-3.2,3.1-3.2H155V95.7h-11.7c-2.2,0-3.1-1-3.1-3.2V81.9c0-2.2,1-3.2,3.1-3.2
		h44.6c2.2,0,3.1,1,3.1,3.2v10.6c0,2.2-1,3.2-3.1,3.2h-11.7v29.4h11.7c2.2,0,3.1,1,3.1,3.2v10.4c0,2.2-1,3.1-3.1,3.1h-44.6
		C141.1,141.7,140.2,140.8,140.2,138.7z"/>
	<path fill="#FFFFFF" d="M158.8,225.9c-2.2,0-3.1-1-3.1-3.2v-4.9c-13.1-2-16.7-8.4-16.7-17.2v-29c0-10.6,5.2-17.9,26.6-17.9
		s26.6,7.3,26.6,17.9v29c0,8.9-3.5,15.2-16.8,17.2v4.8c0,2.2-1,3.2-3.1,3.2h-13.5V225.9z M165.6,202.9c5.8,0,6.8-1.7,6.8-4.1V175
		c0-2.2-1-4.1-6.8-4.1c-5.8,0-6.7,1.7-6.7,4.1v23.8C158.8,201.2,159.8,202.9,165.6,202.9z"/>
	<path fill="#FFFFFF" d="M165.6,300.2c-21,0-26.2-7.2-26.2-17.8v-43.2c0-2.2,1-3.2,3.1-3.2h13.7c2.2,0,3.1,1,3.1,3.2V279
		c0,2.3,1,4.1,6.4,4.1c5.4,0,6.4-1.7,6.4-4.1v-39.9c0-2.2,0.9-3.2,3.1-3.2h13.3c2.2,0,3.1,1,3.1,3.2v43.2
		C191.8,293,186.6,300.2,165.6,300.2z"/>
	<path fill="#FFFFFF" d="M165.6,375.8c-21.4,0-26.6-7.2-26.6-17.8v-29.8c0-10.6,5.2-17.9,26.6-17.9s26.6,7.3,26.6,17.9V358
		C192.2,368.6,187,375.8,165.6,375.8z M165.6,359c5.8,0,6.8-1.7,6.8-4.1v-23.5c0-2.2-1-4.1-6.8-4.1c-5.8,0-6.7,1.7-6.7,4.1v23.5
		C158.8,357.1,159.8,359,165.6,359z"/>
	<path fill="#FFFFFF" d="M142.5,450c-2.2,0-3.1-1-3.1-3.1v-56.7c0-2.2,1-3.2,3.1-3.2h28.2c13.1,0,17.2,5.9,17.2,14.6v4.1
		c0,4.9-1.2,8.4-4.9,10c5.3,0.7,9.8,5.3,9.8,12.7v18.5c0,2.2-1,3.1-3.1,3.1H176c-2.2,0-3.1-1-3.1-3.1v-14c0-2.6-0.9-3.7-3.3-3.7
		h-10.4v17.8c0,2.2-1,3.1-3.1,3.1h-13.6V450z M159.1,414.1h5.6c3.1,0,3.8-1.7,3.8-4.1v-3.1c0-2.3-0.7-4.1-3.8-4.1h-5.6V414.1z"/>
</g>
<g>
	<path fill="#FFFFFF" d="M431.8,16.6c-1,0-1.4-0.4-1.4-1.4V-3.6h-5.7c-1,0-1.4-0.4-1.4-1.4v-4.7c0-1,0.4-1.4,1.4-1.4h20.3
		c1,0,1.4,0.4,1.4,1.4V-5c0,1-0.4,1.4-1.4,1.4h-5.7v18.9c0,1-0.4,1.4-1.4,1.4H431.8z"/>
	<path fill="#FFFFFF" d="M463,16.6c-1,0-1.4-0.4-1.4-1.4v-25c0-1,0.4-1.4,1.4-1.4h5.9c1,0,1.4,0.4,1.4,1.4v8.3h6.4v-8.3
		c0-1,0.4-1.4,1.4-1.4h5.9c1,0,1.4,0.4,1.4,1.4v24.8c0,1-0.4,1.4-1.4,1.4H478c-1,0-1.4-0.4-1.4-1.4V6.6h-6.4v8.5
		c0,1-0.4,1.4-1.4,1.4H463V16.6z"/>
	<path fill="#FFFFFF" d="M503.6,16.6c-1,0-1.4-0.4-1.4-1.4v-25c0-1,0.4-1.4,1.4-1.4h17.8c1,0,1.4,0.4,1.4,1.4v4.4
		c0,1-0.4,1.4-1.4,1.4h-10.5v3h7.4c1,0,1.4,0.4,1.4,1.4v4.1c0,1-0.4,1.4-1.4,1.4h-7.4v3.3h10.5c1,0,1.4,0.4,1.4,1.4V15
		c0,1-0.4,1.4-1.4,1.4h-17.8V16.6z"/>
</g>
<g>
	<path fill="#265560" d="M372.5,335.6V232.1v-8.6v-63.3v-44.6V88.2V43.6v-54.4v-5.6c0-2.1,0-2.8,0.4-6.3l2.1-18.3
		c0.2-1.6-1.5-2.8-3-2.1l-31.3,12.4c-1,0.5-2.3,0.4-3.2-0.4l-20.4-16.9c-1.6-1.4-4.2-1.4-5.8,0L291-31c-0.9,0.7-2.2,0.9-3.2,0.4
		L256.5-43c-1.5-0.6-3.2,0.5-3,2.1l2.1,18.3c0.4,3.5,0.4,4.1,0.4,6.3v5.6v54.4v44.6v27.3v44.6v63.3v8.6v103.5v4.3v1.2
		c0,2.1,0,2.8-0.4,6.3l-2.1,18.3c-0.2,1.6,1.5,2.8,3,2.1l31.3-12.4c1-0.5,2.3-0.4,3.2,0.4l20.4,16.9c1.6,1.4,4.2,1.4,5.8,0
		l20.4-16.9c0.9-0.7,2.2-0.9,3.2-0.4l31.3,12.4c1.5,0.6,3.2-0.5,3-2.1l-2.1-18.3c-0.4-3.5-0.4-4.1-0.4-6.3v-1.2V335.6z"/>
	<path fill="#FFFFFF" d="M290.2,77.5c-2.2,0-3.3-1-3.3-3.3V15.2c0-2.2,1-3.3,3.3-3.3h28.3c12.4,0,17.5,5.9,17.5,14v4.3
		c0,4.7-1.4,8.2-5.4,9.9c6.5,0.6,11.5,5.6,11.5,14.1v8.4c0,9.1-6.1,15-17.7,15L290.2,77.5L290.2,77.5z M307.4,37.2h6.9
		c3,0,3.5-1.7,3.5-3.6V31c0-1.9-0.5-3.6-3.5-3.6h-6.9V37.2z M307.4,62.1h11c3,0,3.5-1.7,3.5-3.6v-3.6c0-2-0.5-3.6-3.5-3.6h-11V62.1z
		"/>
	<path fill="#FFFFFF" d="M290.2,233.6c-2.2,0-3.3-1-3.3-3.3v-59.1c0-2.2,1-3.3,3.3-3.3h29.3c13.7,0,17.9,6.2,17.9,15.2v4.2
		c0,5.1-1.2,8.8-5.1,10.4c5.6,0.7,10.1,5.6,10.1,13.2v19.3c0,2.2-1,3.3-3.3,3.3h-14.1c-2.2,0-3.3-1-3.3-3.3v-14.6c0-2.7-0.9-4-3.5-4
		h-10.9v18.5c0,2.2-1,3.3-3.3,3.3h-13.8V233.6z M307.5,196h5.8c3.2,0,4-1.9,4-4.3v-3.1c0-2.5-0.9-4.3-4-4.3h-5.8V196z"/>
	<path fill="#FFFFFF" d="M285.4,295.2l-5.8-5.8c-0.6-0.6-0.6-1.6,0.1-2.2l28.9-28.9c0.7-0.9,1.6-0.7,2.2-0.1l5.8,5.8
		c0.6,0.6,0.7,1.6-0.1,2.2l-28.9,28.9C287,295.9,286,295.9,285.4,295.2z M295.8,298c-1.1-1.1-1.7-2.3-1.9-3.2l-1.1-3.3l21-21
		l14.3,9.8c1,0.6,2.3,2,3.5,3.3l17.2,19.8c0.5,0.6,0.9,1.9,0,2.7l-3.1,3.1c-0.9,0.9-1.9,0.5-2.8-0.4l-16.9-17.1l-0.6,0.6l5.8,5.8
		c0.7,0.6,0.9,1.5,0.1,2.2l-2.6,2.6c-0.9,0.9-1.9,0.5-2.8-0.2l-6.8-6.1l-0.6,0.6l5.7,4.9c0.7,0.6,0.7,1.6,0,2.5l-2.8,2.8
		c-0.9,0.9-1.9,0.5-2.8-0.4l-6.5-5.7l-0.6,0.6l5.7,4.9c0.7,0.5,0.5,1.6,0,2.1l-3.1,3c-0.6,0.6-1.9,0.5-2.6-0.1L295.8,298z"/>
	<path fill="#FFFFFF" d="M304,154.3h-12.9c-2.2,0-3.1-1.1-3.1-3.2v-43.2c0-10.6,4.4-17.8,26.2-17.8c21.7,0,26.3,7.3,26.3,17.8v43.2
		c0,2.2-1,3.2-3.1,3.2h-13.3c-2.2,0-3.1-1.1-3.1-3.2v-13h-13.7V151C307.2,153.2,306.2,154.3,304,154.3z M307.2,122h13.7v-11.2
		c0-2.3-0.7-4.1-6.8-4.1c-6.2,0-6.9,1.7-6.9,4.1V122z"/>
</g>
<g>
	<path fill="#265560" d="M-32-45.1c0-2.4,1.1-3.5,3.5-3.5h54.4c29.4,0,46.3,16.9,46.3,46.4v54.3c0,2.4-1.1,3.5-3.5,3.5h-97.8
		c-1.6,0-2.9-1.3-2.9-2.9V-45.1z"/>
	<path fill="#265560" d="M-32,65c0-2.4,1.1-3.5,3.5-3.5h54.4c29.4,0,46.3,16.9,46.3,46.4v54.3c0,2.4-1.1,3.5-3.5,3.5h-97.8
		c-1.6,0-2.9-1.3-2.9-2.9V65z"/>
	<path fill="#265560" d="M-32,175.2c0-2.4,1.1-3.5,3.5-3.5h54.4c29.4,0,46.3,16.9,46.3,46.4v54.3c0,2.4-1.1,3.5-3.5,3.5h-97.8
		c-1.6,0-2.9-1.3-2.9-2.9V175.2z"/>
	<path fill="#265560" d="M-32,285.4c0-2.4,1.1-3.5,3.5-3.5h54.4c29.4,0,46.3,16.9,46.3,46.4v54.3c0,2.4-1.1,3.5-3.5,3.5h-97.8
		c-1.6,0-2.9-1.3-2.9-2.9V285.4z"/>
	<path fill="#265560" d="M-32,395.5c0-2.4,1.1-3.5,3.5-3.5h54.4c29.4,0,46.3,16.9,46.3,46.4v54.3c0,2.4-1.1,3.5-3.5,3.5h-97.8
		c-1.6,0-2.9-1.3-2.9-2.9V395.5z"/>
	<path fill="#265560" d="M-32,505.7c0-2.4,1.1-3.5,3.5-3.5h54.4c29.4,0,46.3,16.9,46.3,46.4v54.3c0,2.4-1.1,3.5-3.5,3.5h-97.8
		c-1.6,0-2.9-1.3-2.9-2.9V505.7z"/>
	<path fill="#FFFFFF" d="M13.6,35.1C-3,35.1-8,27.8-8,17.2v-27.3c0-10.7,5-18,21.6-18h27.5c2.2,0,3.2,1,3.2,3.2v10.6
		c0,2.2-1,3.2-3.2,3.2H17.4c-4.6,0-5.4,2.1-5.4,4.4v20.9c0,2.5,0.8,4.2,5.4,4.2h23.7c2.2,0,3.2,1,3.2,3.2v10.4c0,2.2-1,3.2-3.2,3.2
		H13.6z"/>
	<path fill="#FFFFFF" d="M11.7,145.2c-2.2,0-3.2-1-3.2-3.2V85.2c0-2.2,1-3.2,3.2-3.2h14c2.2,0,3.2,1,3.2,3.2v56.9
		c0,2.2-1,3.2-3.2,3.2H11.7z"/>
	<path fill="#FFFFFF" d="M18.7,191.5c21.8,0,26.3,7.2,26.3,17.9v43.4c0,2.2-1,3.2-3.2,3.2H28.1c-2.2,0-3.2-1.1-3.2-3.2v-40
		c0-2.4-1.1-4.1-6.4-4.1c-5.4,0-6.5,1.8-6.5,4.1v40c0,2.2-0.9,3.2-3.2,3.2H-4.5c-2.2,0-3.2-1.1-3.2-3.2v-43.4
		C-7.7,198.7-3.1,191.5,18.7,191.5z"/>
	<path fill="#FFFFFF" d="M-8,320.4c0-10.7,5-18,21.6-18h27.5c2.2,0,3.2,1,3.2,3.2v10.3c0,2.2-1,3.2-3.2,3.2h-24
		c-4.6,0-5.4,2.1-5.4,4.4v2.4h22.2c2.2,0,3.2,0.9,3.2,3.2v9.4c0,2.2-1,3.2-3.2,3.2H11.7v3.3c0,2.5,0.8,4.2,5.4,4.2h24
		c2.2,0,3.2,1,3.2,3.2v10.3c0,2.2-1,3.2-3.2,3.2H13.6C-3,365.6-8,358.3-8,347.6V320.4z"/>
	<path fill="#FFFFFF" d="M-12,473.2v-43.4c0-10.7,4.2-17.9,17.5-17.9c6.6,0,10.7,1.6,13.1,4.4c2.5-2.8,6.6-4.4,13.2-4.4
		c13.3,0,17.5,7.2,17.5,17.9v43.4c0,2.2-1,3.2-3.2,3.2H35.8c-2.3,0-3.2-1-3.2-3.2v-40.6c0-2.4-0.6-3.5-2.9-3.5s-2.8,1.1-2.8,3.5
		v40.6c0,2.2-1,3.2-3.2,3.2H13.5c-2.2,0-3.2-1-3.2-3.2v-40.6c0-2.4-0.5-3.5-2.8-3.5s-2.9,1.1-2.9,3.5v40.6c0,2.2-0.9,3.2-3.2,3.2
		H-8.8C-11,476.4-12,475.4-12,473.2z"/>
	<path fill="#FFFFFF" d="M-7.7,539.9c0-10.6,4.5-17.9,26.2-17.9c21.9,0,26.4,7.3,26.4,17.9v43.4c0,2.2-1,3.2-3.2,3.2H28.5
		c-2.2,0-3.2-1.1-3.2-3.2v-13.1H11.6v13.1c0,2.2-1,3.2-3.2,3.2H-4.5c-2.2,0-3.2-1.1-3.2-3.2V539.9z M11.6,554.2h13.8v-11.3
		c0-2.4-0.7-4.1-6.8-4.1c-6.2,0-6.9,1.8-6.9,4.1V554.2z"/>
</g>
</svg>
