<?xml version="1.0" encoding="utf-8"?>
<!-- Generator: Adobe Illustrator 19.2.1, SVG Export Plug-In . SVG Version: 6.00 Build 0)  -->
<svg version="1.1" id="Layer_1" xmlns="http://www.w3.org/2000/svg" xmlns:xlink="http://www.w3.org/1999/xlink" x="0px" y="0px"
	 width="1650px" height="2000px" viewBox="0 0 1650 2000" style="enable-background:new 0 0 1650 2000;" xml:space="preserve">
<style type="text/css">
	.st0{fill:#1A4249;stroke:#EF9D92;stroke-width:0.5;}
	.st1{fill:#102B33;}
	.st2{fill:#DA4226;}
	.st3{fill:#EF9D92;}
	.st4{fill:#C12400;}
	.st5{fill:#FFFFFF;}
	.st6{fill:#EEE254;}
	.st7{fill:#DC4227;stroke:#FFFFFF;}
	.st8{fill:#432D2C;}
	.st9{fill:#ECDEC0;}
	.st10{fill:#F6EBCB;}
	.st11{fill:#93851F;}
	.st12{fill:#DDCE43;}
	.st13{fill:#AF9F25;}
	.st14{fill:#BAA885;}
</style>
<g>
	<path class="st0" d="M348.043,663.073v178.25c-34.5,43-89.5,64.5-144.5,64.5c-55.75,0-111.5-21.75-146.25-64.5v-178.25
		c35.5-42.75,90.5-64.5,145.5-64.5S312.293,620.322,348.043,663.073z"/>
	<path class="st0" d="M665.543,663.073v178.25c-34.5,43-89.5,64.5-144.5,64.5c-55.75,0-111.5-21.75-146.25-64.5v-178.25
		c35.5-42.75,90.5-64.5,145.5-64.5S630.043,620.322,665.543,663.073z"/>
	<path class="st0" d="M983.292,663.073v178.25c-34.5,43-89.5,64.5-144.5,64.5c-55.75,0-111.5-21.75-146.25-64.5v-178.25
		c35.5-42.75,90.5-64.5,145.5-64.5S947.543,620.322,983.292,663.073z"/>
	<path class="st0" d="M1300.543,663.073v178.25c-34.5,43-89.5,64.5-144.5,64.5c-55.75,0-111.5-21.75-146.25-64.5v-178.25
		c35.5-42.75,90.5-64.5,145.5-64.5C1210.293,598.822,1265.293,620.322,1300.543,663.073z"/>
	<path class="st0" d="M1618.292,663.073v178.25c-34.5,43-89.25,64.5-144.5,64.5c-55.75,0-111.5-21.75-146.25-64.5v-178.25
		c35.5-42.75,90.5-64.5,145.5-64.5S1582.793,620.322,1618.292,663.073z"/>
</g>
<g>
	<path class="st1" d="M115.792,838.573v-24.5c0-3.75,1-6,3-7.75l21-17.5c-14.75-4.5-23.75-14.25-23.75-34.5v-22
		c0-12.5,4.25-22.5,12.25-29.25l27.25-22.75c7.5-6.25,18.75-9.75,33.25-9.75h69.5c6.75,0,9.5,3,9.5,9.5v25c0,3.75-1,6-3,7.75
		l-19.5,16.25c17.25,4,27.75,13.5,27.75,35.5v22c0,12.5-4.25,22.5-12.5,29.25l-27,22.5c-7.75,6.5-19,10-33.25,10h-75
		C118.793,848.073,115.792,845.322,115.792,838.573z"/>
	<path class="st1" d="M432.293,800.072v-97.5c0-3.75,1-6,3-7.75l27-22.75c1.5-1.25,3.75-1.75,6.75-1.75h32.75c6.75,0,9.5,3,9.5,9.5
		v19c0.5-1.5,1-3,2-3.75l0.25-0.25l27.25-22.75c1.5-1.25,3.5-1.75,6.75-1.75h31.75c6.75,0,9.5,3,9.5,9.5v103.75
		c0,13-3.25,24-12.75,32l-27,22.75c-9.5,8-25.75,12.75-52.25,12.75C444.542,851.322,432.293,826.572,432.293,800.072z"/>
	<path class="st1" d="M874.043,846.073c-1.25,1.25-3.5,2-6.5,2h-106.75c-6.75,0-9.5-3-9.5-9.5v-25c0-3.75,1-6,3-7.75l27-22.75
		c1.25-1,3.25-1.5,5.5-1.75v-43.5h-26c-6.75,0-9.5-3-9.5-9.5v-25.5c0-3.75,1-6,3-7.75l27-22.75c1.5-1.25,3.75-1.75,6.75-1.75h106.75
		c6.75,0,9.5,3,9.5,9.5v25.5c0,3.75-1,6-3,7.75l-27.25,22.5l0.25-0.25c-1.25,1.25-3.25,2-5.5,2.5v43.5h26c6.75,0,9.5,3,9.5,9.5v25
		c0,3.75-1,6-3,7.75L874.043,846.073z"/>
	<path class="st1" d="M1113.043,848.073c-6.75,0-9.5-3-9.5-9.5v-100.75h-28c-6.75,0-9.5-3-9.5-9.5v-25.5c0-3.75,1-6,3-7.75l27-22.75
		c1.5-1.25,3.75-1.75,6.75-1.75h110.5c6.75,0,9.5,3,9.5,9.5v25.5c0,3.75-1,6-3,7.75l-27.25,22.5c-1.25,1.25-3.5,2-6.5,2h-1v78
		c0,3.75-1,6-3,7.75l-27.5,22.5c-1.25,1.25-3.5,2-6.5,2H1113.043z"/>
	<path class="st1" d="M1382.293,838.573v-24.5c0-3.75,1-6,3-7.75l21-17.5c-14.75-4.5-23.75-14.25-23.75-34.5v-22
		c0-12.5,4.25-22.5,12.25-29.25l27-23.25c7.5-6.25,18.75-9.75,33.25-9.75h69.5c6.75,0,9.5,3,9.5,9.5v25c0,3.75-1,6-3,7.75
		l-19.5,16.25c17.25,4,27.75,13.5,27.75,35.5v22c0,12.5-4.25,22.5-12.5,29.25l-27,22.5c-7.75,6.5-19,10-33.25,10h-75
		C1385.293,848.073,1382.293,845.322,1382.293,838.573z"/>
</g>
<g>
	<path class="st2" d="M152.543,823.323c-5.25,0-7.5-2.5-7.5-7.5v-24.5c0-5.25,2.5-7.5,7.5-7.5h65.25c3.5,0,5.5-2.75,5.5-6
		c0-4.75-1.75-6.75-5.5-7.25l-40.25-4.5c-19.5-3-32.5-11.5-32.5-34.75v-22c0-23.75,16.25-36.75,43.5-36.75h69.5
		c5.25,0,7.5,2.5,7.5,7.5v25c0,5.25-2.5,7.5-7.5,7.5h-59.75c-3.5,0-5.5,2.5-5.5,6.25c0,3.5,2,6.25,5.5,6.75l40,4.25
		c19.5,3,32.5,11.5,32.5,34.75v22c0,23.75-16.5,36.75-43.5,36.75L152.543,823.323L152.543,823.323z"/>
	<path class="st2" d="M524.293,826.322c-50.25,0-62.75-17.25-62.75-42.75v-103.75c0-5.25,2.5-7.5,7.5-7.5h32.75
		c5.25,0,7.5,2.5,7.5,7.5v95.5c0,5.5,2.5,9.75,15.25,9.75c13,0,15.5-4.25,15.5-9.75v-95.5c0-5.25,2-7.5,7.5-7.5h31.75
		c5.25,0,7.5,2.5,7.5,7.5v103.75C587.293,809.072,574.793,826.322,524.293,826.322z"/>
	<path class="st2" d="M780.043,815.823v-25c0-5.25,2.5-7.5,7.5-7.5h28v-70.5h-28c-5.25,0-7.5-2.5-7.5-7.5v-25.5
		c0-5.25,2.5-7.5,7.5-7.5h106.75c5.25,0,7.5,2.5,7.5,7.5v25.5c0,5.25-2.5,7.5-7.5,7.5h-28v70.5h28c5.25,0,7.5,2.5,7.5,7.5v25
		c0,5.25-2.5,7.5-7.5,7.5h-106.75C782.293,823.323,780.043,820.823,780.043,815.823z"/>
	<path class="st2" d="M1140.042,823.323c-5.25,0-7.5-2.5-7.5-7.5v-103h-30.25c-5.25,0-7.5-2.5-7.5-7.5v-25.5c0-5.25,2.5-7.5,7.5-7.5
		h110.5c5.25,0,7.5,2.5,7.5,7.5v25.5c0,5.25-2.5,7.5-7.5,7.5h-30v102.75c0,5.25-2.5,7.5-7.5,7.5L1140.042,823.323L1140.042,823.323
		L1140.042,823.323z"/>
	<path class="st2" d="M1419.043,823.323c-5.25,0-7.5-2.5-7.5-7.5v-24.5c0-5.25,2.5-7.5,7.5-7.5h65.25c3.5,0,5.5-2.75,5.5-6
		c0-4.75-1.75-6.75-5.5-7.25l-40.25-4.5c-19.5-3-32.5-11.5-32.5-34.75v-22c0-23.75,16.25-36.75,43.5-36.75h69.5
		c5.25,0,7.5,2.5,7.5,7.5v25c0,5.25-2.5,7.5-7.5,7.5h-59.75c-3.5,0-5.5,2.5-5.5,6.25c0,3.5,2,6.25,5.5,6.75l40,4.25
		c19.5,3,32.5,11.5,32.5,34.75v22c0,23.75-16.5,36.75-43.5,36.75L1419.043,823.323L1419.043,823.323z"/>
</g>
<g>
	<path class="st3" d="M246.543,693.323h-57.5c-12,0-19.25,6.5-19.25,17v19.25c0,8.5,5.5,14,14.75,14.75l44.5,4.5
		c12.5,1.25,18.5,7.75,18.5,19v17.5c0,11.75-9,19-23.25,19h-61v-2h61c13,0,21.25-6.5,21.25-17v-17.5c0-10-5.5-16-17-17l-44.5-4.5
		c-10.25-1-16.5-7.5-16.5-17v-19.25c0-11.75,8.25-19,21.5-19h57.5L246.543,693.323L246.543,693.323z"/>
	<path class="st3" d="M486.793,691.322v87.5c0,15.75,8,26.25,37,26.25c30.5,0,39-10.5,39-26.25v-87.5h2v87.5c0,17-9,28.25-41,28.25
		c-30.75,0-39.25-11.5-39.25-28.25v-87.5H486.793z"/>
	<path class="st3" d="M799.043,804.323v-2h41v-109h-41v-2h84.25v2h-41v109h41v2H799.043z"/>
	<path class="st3" d="M1156.543,693.323h-43v-2h88v2h-42.75v111h-2L1156.543,693.323L1156.543,693.323z"/>
	<path class="st3" d="M1513.043,693.323h-57.5c-12,0-19.25,6.5-19.25,17v19.25c0,8.5,5.5,14,14.75,14.75l44.5,4.5
		c12.5,1.25,18.5,7.75,18.5,19v17.5c0,11.75-9,19-23.25,19h-61v-2h61c13,0,21.25-6.5,21.25-17v-17.5c0-10-5.5-16-17-17l-44.5-4.5
		c-10.25-1-16.5-7.5-16.5-17v-19.25c0-11.75,8.25-19,21.5-19h57.5L1513.043,693.323L1513.043,693.323z"/>
</g>
<g>
	<path class="st4" d="M68.793,1366.323c-4.5,0-6.5-2-6.5-6.5v-119.25c0-4.5,2-6.5,6.5-6.5h58.5c24.25,0,35.5,8.75,35.5,28.25v8.75
		c0,10.5-3.5,16.75-10.75,19.75c15.75,1.5,23.25,10.5,23.25,28.5v17c0,20.5-11.25,30.25-35.5,30.25L68.793,1366.323
		C68.793,1366.573,68.793,1366.323,68.793,1366.323z M103.543,1285.323h15.5c4.75,0,7-2.5,7-7.5v-5.25c0-5-2.25-7.5-7-7.5h-15.5
		C103.543,1265.323,103.543,1285.323,103.543,1285.323z M103.543,1335.323h24c4.75,0,7-2.5,7-7.5v-7.25c0-5-2.25-7.25-7-7.25h-24
		V1335.323z"/>
	<path class="st4" d="M270.293,1369.323c-46,0-57.25-15-57.25-37.5v-62.75c0-22.5,11.25-37.75,57.25-37.75s57,15.25,57,37.75v62.75
		C327.293,1354.073,316.293,1369.323,270.293,1369.323z M270.293,1333.573c13.5,0,15.5-3.5,15.5-8.5v-49.5c0-4.75-2-8.5-15.5-8.5
		c-13.25,0-15.5,3.5-15.5,8.5v49.5C254.793,1330.073,257.042,1333.573,270.293,1333.573z"/>
	<path class="st4" d="M425.792,1369.323c-45.5,0-56.75-15-56.75-37.5v-91c0-4.5,2-6.5,6.5-6.5h28.75c4.5,0,6.5,2,6.5,6.5v83.75
		c0,5,2.25,8.5,15,8.5c13,0,15.25-3.5,15.25-8.5v-83.75c0-4.5,1.75-6.5,6.5-6.5h28c4.5,0,6.5,2,6.5,6.5v91
		C482.543,1354.073,471.293,1369.323,425.792,1369.323z"/>
	<path class="st4" d="M533.292,1366.323c-4.5,0-6.5-2-6.5-6.5v-119.25c0-4.5,2-6.5,6.5-6.5h28.5c4.5,0,6.5,2,6.5,6.5v91h25.25
		v-29.75c0-4.5,2-6.5,6.5-6.5h26.75c4.5,0,6.5,2,6.5,6.5v58c0,4.5-2,6.5-6.5,6.5H533.292L533.292,1366.323z"/>
	<path class="st4" d="M706.293,1366.323h-27c-4.5,0-6.5-2-6.5-6.5v-91c0-22.25,10.25-37.5,55.75-37.5
		c45.75,0,56.25,15.25,56.25,37.5v91c0,4.5-2,6.5-6.5,6.5h-28c-4.5,0-6.5-2-6.5-6.5v-27.5h-30.5v27.5
		C713.043,1364.323,711.043,1366.323,706.293,1366.323z M713.043,1298.823h30.5v-23.75c0-5-2.25-8.5-15-8.5
		c-13,0-15.25,3.5-15.25,8.5L713.043,1298.823L713.043,1298.823z"/>
	<path class="st4" d="M884.293,1231.323c45.5,0,56.75,15,56.75,37.5v91c0,4.5-2,6.5-6.5,6.5h-28.75c-4.5,0-6.5-2-6.5-6.5v-83.75
		c0-5-2.25-8.5-15-8.5c-13,0-15.25,3.5-15.25,8.5v83.75c0,4.5-1.75,6.5-6.5,6.5h-28.25c-4.5,0-6.5-2-6.5-6.5v-91
		C827.543,1246.323,838.793,1231.323,884.293,1231.323z"/>
	<path class="st4" d="M1028.292,1366.323c-31,0-45.25-12-45.25-37.5v-57.5c0-25.5,14.5-37.5,45.25-37.5h46c4.5,0,6.5,2,6.5,6.5
		v22.25c0,4.5-2,6.5-6.5,6.5h-38.25c-7.75,0-11.25,3-11.25,9.25v44c0,6.25,2.75,9,8.5,9h17.75v-28.75c0-4.5,2-6.5,6.5-6.5h28.5
		c4.5,0,6.5,2,6.5,6.5v56.75c0,4.5-2,6.5-6.5,6.5h-58L1028.292,1366.323L1028.292,1366.323z"/>
	<path class="st4" d="M1224.542,1366.323h-46.75c-34.75,0-45.25-15.25-45.25-37.5v-57.25c0-22.5,10.5-37.75,45.25-37.75h46.75
		c4.5,0,6.5,2,6.5,6.5v21.5c0,4.5-2,6.5-6.5,6.5h-40.5c-9.5,0-11.25,4.5-11.25,9.25v5h37c4.5,0,6.5,1.75,6.5,6.5v19.5
		c0,4.5-2,6.5-6.5,6.5h-37.25v7c0,5.25,1.5,8.75,11.25,8.75h40.5c4.5,0,6.5,2,6.5,6.5v21.5
		C1231.292,1364.323,1229.293,1366.323,1224.542,1366.323z"/>
	<path class="st4" d="M1278.792,1366.323c-4.5,0-6.5-2-6.5-6.5v-119.25c0-4.5,2-6.5,6.5-6.5h61.25c27.5,0,36.25,12.5,36.25,30.75
		v8.5c0,10.5-2.5,17.5-10.5,21c13.5,1.5,22.25,11.25,22.25,26.5v39c0,4.5-2,6.5-6.5,6.5h-28.5c-4.5,0-6.5-2-6.5-6.5v-28.25
		c0-5.5-1.75-8-7-8h-25.5v36c0,4.5-2,6.5-6.5,6.5L1278.792,1366.323L1278.792,1366.323L1278.792,1366.323z M1313.792,1290.573h13.75
		c6.5,0,8-3.5,8-8.5v-6.25c0-5-1.5-8.5-8-8.5h-13.75V1290.573z"/>
	<path class="st4" d="M1435.042,1366.323c-4.5,0-6.5-2-6.5-6.5v-119.25c0-4.5,2-6.5,6.5-6.5h29.25c4.5,0,6.5,2,6.5,6.5v119.25
		c0,4.5-2,6.5-6.5,6.5H1435.042z"/>
	<path class="st4" d="M1605.792,1366.323h-46.75c-34.75,0-45.25-15.25-45.25-37.5v-57.25c0-22.5,10.5-37.75,45.25-37.75h46.75
		c4.5,0,6.5,2,6.5,6.5v21.5c0,4.5-2,6.5-6.5,6.5h-40.5c-9.5,0-11.25,4.5-11.25,9.25v5h37.25c4.5,0,6.5,1.75,6.5,6.5v19.5
		c0,4.5-2,6.5-6.5,6.5h-37.25v7c0,5.25,1.5,8.75,11.25,8.75h40.5c4.5,0,6.5,2,6.5,6.5v21.5
		C1612.293,1364.323,1610.293,1366.323,1605.792,1366.323z"/>
</g>
<g>
	<g>
		<path class="st5" d="M233.793,971.823c4.5,0,4.75,2,6.25,6.25l33,83.5c1.25,3.25,1.25,6.75,0,10l-33,83
			c-1.5,4.25-2,6.25-6.25,6.25H57.543c-4.5,0-7.5-2.75-6-7l34.5-87.5l-34.5-87.5c-1.75-4.25,1.5-7,6-7L233.793,971.823
			L233.793,971.823z"/>
		<path class="st5" d="M457.793,971.823c4.5,0,4.75,2,6.25,6.25l33,83.5c1.25,3.25,1.25,6.75,0,10l-33,83
			c-1.5,4.25-2,6.25-6.25,6.25h-176.25c-4.5,0-7.5-2.75-6-7l34.5-87.5l-34.5-87.5c-1.75-4.25,1.5-7,6-7L457.793,971.823
			L457.793,971.823z"/>
		<path class="st5" d="M681.543,971.823c4.5,0,4.75,2,6.25,6.25l33,83.5c1.25,3.25,1.25,6.75,0,10l-33,83
			c-1.5,4.25-2,6.25-6.25,6.25h-176.25c-4.5,0-7.5-2.75-6-7l34.5-87.5l-34.5-87.5c-1.75-4.25,1.5-7,6-7L681.543,971.823
			L681.543,971.823z"/>
		<path class="st5" d="M905.293,971.823c4.5,0,4.75,2,6.25,6.25l33,83.5c1.25,3.25,1.25,6.75,0,10l-32.75,82.75
			c-1.5,4.25-2,6.25-6.25,6.25h-176.25c-4.5,0-7.5-2.75-6-7l34.5-87.5l-34.5-87.5c-1.75-4.25,1.5-7,6-7L905.293,971.823
			L905.293,971.823z"/>
		<path class="st5" d="M1129.293,971.823c4.5,0,4.75,2,6.25,6.25l33,83.5c1.25,3.25,1.25,6.75,0,10l-33,83
			c-1.5,4.25-2,6.25-6.25,6.25h-176.25c-4.5,0-7.5-2.75-6-7l34.5-87.5l-34.5-87.5c-1.75-4.25,1.5-7,6-7L1129.293,971.823
			L1129.293,971.823z"/>
		<path class="st5" d="M1353.292,971.823c4.5,0,4.75,2,6.25,6.25l33,83.5c1.25,3.25,1.25,6.75,0,10l-33.25,82.75
			c-1.5,4.25-2,6.25-6.25,6.25h-176.25c-4.5,0-7.5-2.75-6-7l34.5-87.5l-34.5-87.5c-1.75-4.25,1.5-7,6-7L1353.292,971.823
			L1353.292,971.823z"/>
		<path class="st5" d="M1516.543,1160.573h-115.5c-4.5,0-7.5-2.75-6-7l34.5-87.5l-34.5-87.5c-1.75-4.25,1.5-7,6-7h115.5v-24.5
			c0-7,7.5-9.5,14-1.75l90.25,110.25c6.5,8,6.5,13,0,21l-90.25,110.25c-5.25,6.25-14,3.5-14-1.75V1160.573z"/>
	</g>
	<path class="st6" d="M124.542,1129.572c-4.5,0-6.25-2-6.25-6.25v-113.5c0-4.5,2-6.25,6.25-6.25h90.5c4.5,0,6.25,2,6.25,6.25v20.5
		c0,4.5-2,6.25-6.25,6.25h-57.5v13.5h43.5c4.5,0,6.25,1.75,6.25,6.25v18.75c0,4.5-2,6.25-6.25,6.25h-43.5v15h57.75
		c4.5,0,6.25,2,6.25,6.25v20.5c0,4.5-2,6.25-6.25,6.25h-90.75C124.542,1128.823,124.542,1129.572,124.542,1129.572z"/>
	<path class="st6" d="M373.292,1129.572h-26.5c-4.5,0-6.25-2-6.25-6.25v-18.75c0-10.75,2-14,6.5-21.5l11.5-19l-11.5-19
		c-4.5-7.5-6.5-10.5-6.5-21.5v-13.75c0-4.5,2-6.25,6.25-6.25h27c4.5,0,6.25,2,6.25,6.25v12c0,2.5,0.25,5,1.5,7.5l6.25,11
		c1,2,2.25,3,4.25,3h2c2,0,3-0.75,4.25-3l6.25-11c1.5-2.5,1.5-4.75,1.5-7.5v-12c0-4.5,2-6.25,6.25-6.25h26.5c4.5,0,6.25,2,6.25,6.25
		v13.5c0,10.75-2,14-6.5,21.5l-11.5,19.25l11.5,18.75c4.5,7.5,6.5,10.5,6.5,21.5v18.75c0,4.5-2,6.25-6.25,6.25h-26.5
		c-4.5,0-6.25-2-6.25-6.25v-17.5c0-2.5-0.25-4.75-1.5-7.5l-6.25-11c-1.25-2.25-2.25-3-4.25-3h-2.5c-2,0-3,0.75-4.25,3l-6.5,11
		c-1.5,2.5-1.5,4.75-1.5,7.5v17.5C379.293,1127.573,377.543,1129.572,373.292,1129.572z"/>
	<path class="st6" d="M568.793,1129.572c-4.5,0-6.25-2-6.25-6.25v-113.5c0-4.5,2-6.25,6.25-6.25h58c31.75,0,41.25,13.75,41.25,34.25
		v22.5c0,20.25-9.5,34.25-41.25,34.25h-24.5v29c0,4.5-2,6.25-6.25,6.25L568.793,1129.572L568.793,1129.572z M601.793,1062.823h20.25
		c6.75,0,8.25-4,8.25-8.5v-9.5c0-4.5-1.5-8.5-8.25-8.5h-20.25V1062.823z"/>
	<path class="st6" d="M790.792,1129.572c-4.5,0-6.25-2-6.25-6.25v-113.5c0-4.5,2-6.25,6.25-6.25h56.5c26.25,0,34.5,11.75,34.5,29.25
		v8c0,9.75-2.5,16.75-9.75,20c10.5,1.5,19.5,10.5,19.5,25.5v37c0,4.5-2,6.25-6.25,6.25h-27.25c-4.5,0-6.25-2-6.25-6.25v-26.75
		c0-5.25-1.75-7.5-6.5-7.5h-21v34.25c0,4.5-2,6.25-6.25,6.25H790.792L790.792,1129.572L790.792,1129.572z M824.043,1057.573h11.25
		c6.25,0,7.5-3.5,7.5-8.25v-6c0-4.75-1.5-8.25-7.5-8.25h-11.25V1057.573z"/>
	<path class="st6" d="M1013.292,1129.572c-4.5,0-6.25-2-6.25-6.25v-113.5c0-4.5,2-6.25,6.25-6.25h90.5c4.5,0,6.25,2,6.25,6.25v20.5
		c0,4.5-2,6.25-6.25,6.25h-57.75v13.5h43.5c4.5,0,6.25,1.75,6.25,6.25v18.75c0,4.5-2,6.25-6.25,6.25h-43.5v15h57.75
		c4.5,0,6.25,2,6.25,6.25v20.5c0,4.5-2,6.25-6.25,6.25h-90.5V1129.572z"/>
	<path class="st6" d="M1235.293,1129.572c-4.5,0-6.25-2-6.25-6.25v-20.5c0-4.5,2-6.25,6.25-6.25h54.5c3,0,4.5-2.25,4.5-5
		c0-4-1.5-5.5-4.5-6l-33.5-3.5c-16.5-2.5-27.25-9.5-27.25-29v-18.25c0-20,13.5-30.75,36.25-30.75h58c4.5,0,6.25,2,6.25,6.25v20.75
		c0,4.5-2,6.25-6.25,6.25h-49.75c-3,0-4.75,2-4.75,5.25s1.75,5.25,4.75,5.5l33.5,3.5c16.5,2.5,27.25,9.5,27.25,29v18.5
		c0,20-13.5,30.75-36.25,30.75L1235.293,1129.572L1235.293,1129.572z"/>
	<path class="st6" d="M1457.293,1129.572c-4.5,0-6.25-2-6.25-6.25v-20.5c0-4.5,2-6.25,6.25-6.25h54.5c3,0,4.5-2.25,4.5-5
		c0-4-1.5-5.5-4.5-6l-33.5-3.5c-16.5-2.5-27.25-9.5-27.25-29v-18.25c0-20,13.5-30.75,36.25-30.75h58c4.5,0,6.25,2,6.25,6.25v20.75
		c0,4.5-2,6.25-6.25,6.25h-49.75c-3,0-4.75,2-4.75,5.25s1.75,5.25,4.75,5.5l33.5,3.5c16.5,2.5,27.25,9.5,27.25,29v18.5
		c0,20-13.5,30.75-36.25,30.75L1457.293,1129.572L1457.293,1129.572z"/>
</g>
<path class="st7" d="M1632.293,1862.072c2.5-2.75,2.5-7.25,0-10l-29-34.75c-1.25-1.5-1.5-3.75-0.75-5.5l21-53.5
	c1.25-2.5-1-5.5-3.5-5.25l-31.5,3.5c-6,0.75-7,0.75-10.75,0.75h-9.5h-169.75h-14.75h-169.5h-14.75h-170.25h-15h-169.75h-14.75
	h-169.75h-14.75h-169.5h-14.75h-169.75h-14.75H106.793h-9.5c-3.5,0-4.75,0-10.75-0.75l-31.5-3.5c-2.75-0.5-4.75,2.5-3.5,5.25
	l21,53.5c0.75,1.5,0.5,4-0.75,5.5l-29,34.75c-2.5,2.75-2.5,7.25,0,10l29,34.75c1.25,1.5,1.5,3.75,0.75,5.5l-21,53.5
	c-1.25,2.5,1,5.5,3.5,5.25l31.5-3.5c6-0.75,7-0.75,10.75-0.75h9.5h169.75h14.75h169.75h14.75h169.75h14.75h169.75h14.75h169.75
	h14.75h169.75h14.75h170.5h14.75h169.75h9.5c3.5,0,4.75,0,10.75,0.75l31.5,3.5c2.75,0.5,4.75-2.5,3.5-5.25l-21-53.5
	c-1-1.5-0.5-4,0.75-5.5L1632.293,1862.072z"/>
<g>
	<path class="st5" d="M157.793,1920.822v-124.5h52.5c18,0,26.25,11,26.25,26.25v16c0,14-2.75,23.25-13.75,26.75h2.5
		c18.75,0,27.75,8.5,27.75,24.5v30.75h-2.5v-30.75c0-15.25-8-22.5-25.5-22.5h-65v53.5H157.793L157.793,1920.822z M160.293,1798.573
		v66.5h50.25c19.25,0,24-9.5,24-26.5v-16.25c0-14.25-7.5-24-24-24L160.293,1798.573L160.293,1798.573z"/>
	<path class="st5" d="M404.793,1878.823h-85.5v41.75h-2.5v-96.25c0-18.5,8.5-31.25,44.75-31.25s45.5,12.5,45.5,31.25v96.25h-2.5
		L404.793,1878.823L404.793,1878.823z M319.293,1876.573h85.5v-52c0-17.25-8.75-28.75-43-28.75s-42.5,11.5-42.5,28.75V1876.573
		L319.293,1876.573z"/>
	<path class="st5" d="M515.293,1920.822v-46.5c-35.25-0.25-45-12.5-45-31.25v-46.75h2.5v46.75c0,17.25,9.5,28.75,43.75,28.75
		c34.5,0,44-11.5,44-28.75v-46.75h2.5v46.75c0,18.5-10.25,31.25-45.25,31.25v46.5L515.293,1920.822L515.293,1920.822z"/>
	<path class="st5" d="M610.293,1792.573h22.5v19.75c0,9-4,17-13,17h-9.5v-2.5h9.5c7.5,0,10.5-7.25,10.5-14.75v-17.5h-20.25
		L610.293,1792.573L610.293,1792.573z"/>
	<path class="st5" d="M754.542,1798.573h-51.25c-13,0-21.25,7.75-21.25,18.5v18.75c0,10.75,4.5,14,11.75,15.5l48.5,10
		c9.25,1.75,16,6.5,16,22.5v13.5c0,13.5-10,23.25-25.5,23.25h-57.5v-2.5h57.5c14.25,0,23.25-8.75,23.25-21v-13.5
		c0-14.5-5.5-18.5-14-20.25l-48.5-10c-8-1.5-13.5-5-13.5-17.75v-18.75c0-12.25,9.25-21,23.5-21h51.25L754.542,1798.573
		L754.542,1798.573L754.542,1798.573z"/>
	<path class="st5" d="M874.293,1796.073h55.75c31.5,0,36.75,14.25,36.75,32v61c0,17.75-5,31.5-36.75,31.5h-55.75V1796.073z
		 M876.543,1798.573v119.75h53.5c29.5,0,34.5-12.25,34.5-29v-61c0-16.75-5.5-29.75-34.5-29.75H876.543z"/>
	<path class="st5" d="M1037.542,1796.073v124.5h-2.5v-124.5H1037.542z"/>
	<path class="st5" d="M1197.293,1920.822v-96.25c0-17.25-9.5-28.75-43.75-28.75c-34.25,0-44.25,11.5-44.25,28.75v96.25h-2.5v-96.25
		c0-18.5,10.25-31.25,46.5-31.25s46,12.5,46,31.25v96.25H1197.293z"/>
	<path class="st5" d="M1344.293,1920.822h-42c-30,0-36.75-8.25-36.75-29.75v-64.5c0-21.75,7.5-30.25,36.75-30.25h42v2.5h-42
		c-27.25,0-34.5,7.5-34.5,27.75v30h60.5v2.5h-60.5v32.25c0,20,7,27.5,34.5,27.5h42V1920.822z"/>
	<path class="st5" d="M1405.293,1920.822v-124.5h52.5c18,0,26.25,11,26.25,26.25v16c0,14-2.75,23.25-13.75,26.75h2.5
		c18.75,0,27.75,8.5,27.75,24.5v30.75h-2.5v-30.75c0-15.25-8-22.5-25.5-22.5h-65v53.5H1405.293L1405.293,1920.822L1405.293,1920.822
		z M1407.793,1798.573v66.5h50.25c19.25,0,24-9.5,24-26.5v-16.25c0-14.25-7.5-24-24-24L1407.793,1798.573L1407.793,1798.573z"/>
</g>
<g>
	<g>
		<g>
			<path class="st8" d="M128.476,38.872h28.917v308.827h-28.917c-8.607,0-12.393-3.147-12.393-10.293v-6.863
				c-26.507,0-48.193-18.017-48.193-40.033h-8.263c-8.607,0-12.393-3.143-12.393-10.293v-173.86c0-7.15,3.787-10.293,12.393-10.293
				h8.263c0-22.017,21.687-40.033,48.193-40.033v-6.863C116.086,42.019,119.872,38.872,128.476,38.872z"/>
			<path class="st8" d="M501.619,347.699H129.843V38.872h371.777V347.699z"/>
			<path class="st8" d="M845.839,347.699H474.063V38.872h371.777V347.699z"/>
			<path class="st8" d="M1190.056,347.699H818.279V38.872h371.776V347.699z"/>
			<path class="st8" d="M1534.273,347.699h-371.777V38.872h371.777V347.699z"/>
			<path class="st8" d="M1548.019,49.166v6.863c26.507,0,48.193,18.013,48.193,40.033h8.263c8.607,0,12.393,3.143,12.393,10.293
				v173.857c0,7.15-3.787,10.293-12.393,10.293h-8.263c0,22.017-21.687,40.033-48.193,40.033v6.863
				c0,7.15-3.787,10.293-12.393,10.293h-28.917V38.872h28.917C1544.233,38.872,1548.019,42.019,1548.019,49.166z"/>
		</g>
		<g>
			<path class="st9" d="M128.469,47.472c-1.377,0-2.067,0.57-2.067,1.717v15.44h-10.327c-20.653,0-37.863,14.297-37.863,31.453
				v8.577H59.626c-1.377,0-2.067,0.57-2.067,1.717v173.843c0,1.143,0.687,1.717,2.067,1.717h18.587v8.577
				c0,17.157,17.21,31.453,37.863,31.453h10.327v15.44c0,1.143,0.687,1.717,2.067,1.717h28.913v2.86h-28.913
				c-4.13,0-5.507-1.143-5.507-4.573v-12.587h-6.887c-22.716,0-41.303-15.44-41.303-34.31v-5.72H59.626
				c-4.13,0-5.507-1.143-5.507-4.573V106.372c0-3.43,1.377-4.573,5.507-4.573h15.146v-5.72c0-18.87,18.587-34.31,41.303-34.31h6.887
				v-12.58c0-3.43,1.377-4.573,5.507-4.573h28.913v2.86h-28.913V47.472z"/>
			<path class="st9" d="M494.709,341.976H136.726V44.612h357.983V341.976z M491.269,47.472h-351.1v291.643h351.1V47.472z"/>
			<path class="st9" d="M838.926,341.976H480.943V44.612h357.983V341.976z M835.486,47.472h-351.1v291.643h351.1V47.472z"/>
			<path class="st9" d="M1183.143,341.976H825.159V44.612h357.983V341.976z M1179.699,47.472h-351.1v291.643h351.1V47.472z"/>
			<path class="st9" d="M1527.359,341.976h-357.983V44.612h357.983V341.976z M1523.916,47.472h-351.1v291.643h351.1V47.472z"/>
			<path class="st9" d="M1506.706,44.612h28.913c4.13,0,5.507,1.143,5.507,4.573v12.58h6.887c22.717,0,41.303,15.44,41.303,34.31
				v5.72h15.146c4.13,0,5.507,1.143,5.507,4.573v173.843c0,3.43-1.377,4.573-5.507,4.573h-15.146v5.72
				c0,18.87-18.587,34.31-41.303,34.31h-6.887v12.58c0,3.43-1.377,4.573-5.507,4.573h-28.913v-2.86h28.913
				c1.376,0,2.067-0.57,2.067-1.717v-15.44h10.327c20.654,0,37.863-14.297,37.863-31.453v-8.577h18.587
				c1.377,0,2.067-0.57,2.067-1.717V106.372c0-1.143-0.687-1.717-2.067-1.717h-18.587v-8.577c0-17.157-17.21-31.453-37.863-31.453
				h-10.327V49.189c0-1.143-0.69-1.717-2.067-1.717h-28.913V44.612z"/>
		</g>
		<rect x="132.463" y="47.472" class="st8" width="1400.567" height="291.643"/>
	</g>
	<g>
		<path class="st10" d="M193.286,276.579c-5.437,0-7.833-2.393-7.833-7.833V127.779c0-5.437,2.393-7.83,7.833-7.83h66.567
			c39.59,0,51.34,17.183,51.34,42.42v27.847c0,25.237-11.747,42.42-51.34,42.42h-25.017v36.11c0,5.44-2.393,7.833-7.83,7.833
			H193.286z M289.436,185.212v-16.097c0-16.967-5.22-29.583-32.63-29.583h-46.99v117.47h2.173v-42.857h44.813
			C284.216,214.146,289.436,202.182,289.436,185.212z M211.993,141.706h44.813c25.67,0,30.453,11.747,30.453,27.41v16.097
			c0,15.663-4.787,26.757-30.453,26.757h-44.813V141.706z M234.399,193.479h19.58c8.483,0,10.223-5.003,10.223-10.66v-11.53
			c0-5.657-1.74-10.66-10.223-10.66h-19.58V193.479z"/>
		<path class="st10" d="M341.639,276.579c-5.437,0-7.833-2.393-7.833-7.833V127.779c0-5.437,2.393-7.83,7.833-7.83h33.72
			c5.437,0,7.83,2.393,7.83,7.83v47.21h36.33v-47.207c0-5.437,2.393-7.83,7.83-7.83h33.72c5.44,0,7.833,2.393,7.833,7.83v140.967
			c0,5.44-2.393,7.833-7.833,7.833h-33.72c-5.437,0-7.83-2.393-7.83-7.833v-48.293h-36.33v48.293c0,5.44-2.393,7.833-7.83,7.833
			h-33.72V276.579z M359.476,257.002v-57.65h83.537v57.647h2.173V139.532h-2.173v57.647h-83.537v-57.647H357.3v117.47H359.476z"/>
		<path class="st10" d="M496.516,235.466v-74.183c0-26.54,13.27-44.593,67.653-44.593c13.707,0,24.583,1.087,33.5,3.263
			c6.527-0.217,8.05-2.393,8.05-6.31v-4.567c0-5.22,1.523-6.743,6.527-6.743h24.147c5.437,0,7.83,2.393,7.83,7.833v9.573
			c0,11.313-3.48,20.45-14.793,25.67c1.523,5.003,2.173,10.223,2.173,15.88v74.18c0,26.54-13.05,44.377-67.437,44.377
			C509.786,279.842,496.516,262.006,496.516,235.466z M607.896,230.462v-64.177c0-9.353-2.83-16.967-10.44-22.19
			c21.104-1.307,27.843-13.703,27.843-25.017v-1.957h-2.173v1.957c0,11.747-8.92,23.057-29.15,23.057
			c-6.96-3.263-16.533-5.22-30.237-5.22c-34.153,0-43.727,11.747-43.727,29.367v64.173c0,17.62,9.573,29.367,43.727,29.367
			S607.896,248.082,607.896,230.462z M563.736,139.096c32.413,0,41.987,10.877,41.987,27.193v64.173
			c0,16.317-9.573,27.193-41.987,27.193s-41.55-10.877-41.55-27.193v-64.177C522.186,149.972,531.323,139.096,563.736,139.096z
			 M548.726,113.859c-2.83,0.433-3.917-0.653-4.353-3.48l-2.393-17.187c-0.433-2.83,0.87-4.133,3.697-4.57l19.363-3.047
			c2.827-0.437,4.133-1.087,4.133-3.697c0-2.177-1.74-3.047-4.133-3.047h-28.063c-2.827,0-4.133-1.303-4.133-4.133V58.822
			c0-2.827,1.307-4.133,4.133-4.133h36.547c14.793,0,23.493,7.613,23.493,22.19v13.923c0,12.833-6.743,17.403-17.62,18.927
			L548.726,113.859z M575.266,98.199c4.567-0.653,8.92-2.83,8.92-11.097V76.226c0-8.483-5.44-10.66-10.876-10.66h-29.587v2.177
			h29.587c4.35,0,8.7,1.74,8.7,8.483v10.877c0,6.093-2.83,8.483-7.18,9.137l-20.883,3.047l0.216,2.177L575.266,98.199z
			 M564.169,237.859c15.88,0,18.273-4.35,18.273-10.223v-58.52c0-5.657-2.393-10.007-18.273-10.007
			c-15.663,0-18.273,4.35-18.273,10.007v58.517C545.896,233.506,548.509,237.859,564.169,237.859z"/>
		<path class="st10" d="M720.349,276.579c-5.437,0-7.833-2.393-7.833-7.833v-49.813h-5.003c-5.437,0-7.83-2.173-7.83-7.833v-23.277
			c0-5.437,2.393-7.83,7.83-7.83h5.003v-52.21c0-5.437,2.397-7.83,7.833-7.83h73.31c41.117,0,53.517,18.057,53.517,44.377v67.873
			c0,26.323-12.4,44.377-53.517,44.377C793.659,276.579,720.349,276.579,720.349,276.579z M788.876,257.002
			c30.02,0,34.807-12.837,34.807-29.583v-57.65c0-16.75-5.22-30.237-34.807-30.237h-53.08v58.953h-16.533v2.177h16.533v56.343h53.08
			V257.002z M758.419,198.482h-20.45v-56.777h50.903c27.41,0,32.63,12.183,32.63,28.063v57.647c0,15.88-4.787,27.41-32.63,27.41
			h-50.903v-54.167h20.45V198.482z M787.789,235.466c8.7,0,10.223-4.787,10.223-10.66v-52.863c0-5.657-1.523-10.44-10.223-10.44
			h-26.54v18.49h8.92c5.44,0,7.833,2.173,7.833,7.83v23.277c0,5.657-2.393,7.833-7.833,7.833h-8.92v16.533H787.789z"/>
		<path class="st10" d="M911.343,276.579h-31.977c-5.44,0-7.833-2.393-7.833-7.833v-57.427c0-8.7,2.61-19.58,8.483-34.807
			l18.927-49.38c1.74-5.003,5.22-7.177,11.093-7.177h58.52c5.657,0,9.137,2.173,10.876,7.177l18.93,49.38
			c5.873,15.227,8.483,26.107,8.483,34.807v57.43c0,5.44-2.393,7.833-7.833,7.833h-32.847c-5.873,0-8.483-2.393-8.483-7.833v-30.457
			h-38.507v30.457C919.176,274.189,916.782,276.579,911.343,276.579z M901.336,103.419c-5.44-0.653-7.833-2.393-7.833-7.833V74.702
			c0-5.003,2.393-7.833,7.4-7.18l75.92,9.357c5.437,0.653,7.83,2.393,7.83,7.83v20.883c0,5.003-2.393,7.833-7.397,7.18
			L901.336,103.419z M983.786,257.002v-46.337c0-8.05-1.307-14.793-3.697-21.1l-15.01-35.46c-3.48-8.483-6.09-14.577-15.663-14.577
			h-21.32c-10.006,0-12.617,6.31-15.88,14.357l-13.923,35.677c-2.397,6.31-3.7,13.053-3.7,21.1v46.337h2.177v-37.413h84.84v37.417
			H983.786z M900.249,190.436l13.923-35.677c2.83-7.397,5.22-13.053,13.923-13.053h21.32c8.05,0,10.444,5.657,13.703,13.27
			l15.01,35.46c2.177,5.873,3.483,12.4,3.483,20.23v6.743h-84.84v-6.743C896.769,202.836,898.076,196.309,900.249,190.436z
			 M965.076,94.499v-2.177l-51.993-6.527v2.177L965.076,94.499z M921.349,198.702h34.153l-10.223-33.067
			c-1.087-2.61-2.393-3.697-4.13-3.697h-5.44c-1.74,0-3.047,1.087-4.133,3.697L921.349,198.702z"/>
		<path class="st10" d="M1130.829,127.782v106.81h55.473c5.44,0,7.833,2.393,7.833,7.833v26.32c0,5.44-2.393,7.833-7.833,7.833
			h-97.02c-5.44,0-7.833-2.393-7.833-7.833V127.779c0-5.437,2.393-7.83,7.833-7.83H1123
			C1128.436,119.952,1130.829,122.346,1130.829,127.782z M1105.159,257.002h69.397v-2.177h-67.22V139.532h-2.177V257.002z"/>
		<path class="st10" d="M1251.773,276.579h-31.977c-5.44,0-7.833-2.393-7.833-7.833v-57.427c0-8.7,2.61-19.58,8.484-34.807
			l18.927-49.38c1.74-5.003,5.22-7.177,11.093-7.177h58.52c5.657,0,9.137,2.173,10.876,7.177l18.93,49.38
			c5.873,15.227,8.484,26.107,8.484,34.807v57.43c0,5.44-2.393,7.833-7.833,7.833h-32.847c-5.873,0-8.484-2.393-8.484-7.833v-30.457
			h-38.507v30.457C1259.606,274.189,1257.213,276.579,1251.773,276.579z M1324.216,257.002v-46.337c0-8.05-1.307-14.793-3.697-21.1
			l-15.01-35.46c-3.48-8.483-6.09-14.577-15.663-14.577h-21.32c-10.006,0-12.617,6.31-15.88,14.357l-13.923,35.677
			c-2.397,6.31-3.7,13.053-3.7,21.1v46.337h2.177v-37.413h84.84v37.417H1324.216z M1240.679,190.436l13.923-35.677
			c2.83-7.397,5.22-13.053,13.923-13.053h21.32c8.05,0,10.444,5.657,13.703,13.27l15.01,35.46c2.177,5.873,3.484,12.4,3.484,20.23
			v6.743h-84.84v-6.743C1237.199,202.836,1238.506,196.309,1240.679,190.436z M1262.433,328.789c-5.44,0-7.833-2.393-7.833-7.833
			v-27.627c0-5.44,2.393-7.833,7.833-7.833h34.373c5.437,0,7.833,2.393,7.833,7.833v27.627c0,5.437-2.397,7.833-7.833,7.833
			H1262.433z M1261.779,198.702h34.153l-10.223-33.067c-1.087-2.61-2.393-3.697-4.13-3.697h-5.44c-1.74,0-3.047,1.087-4.133,3.697
			L1261.779,198.702z M1280.706,300.726h-2.173v12.837h2.173V300.726z"/>
		<path class="st10" d="M1404.049,276.579c-5.44,0-7.833-2.393-7.833-7.833v-106.81h-31.98c-5.44,0-7.833-2.393-7.833-7.83v-26.323
			c0-5.437,2.393-7.83,7.833-7.83h114.86c5.44,0,7.833,2.393,7.833,7.83v26.323c0,5.437-2.393,7.83-7.833,7.83h-31.977v106.81
			c0,5.44-2.397,7.833-7.833,7.833H1404.049z M1422.756,257.002V141.706h44.597v-2.173h-91.367v2.173h44.594v115.297H1422.756z"/>
	</g>
</g>
<g>
	<path class="st11" d="M87.599,534.456c-0.937,0.937-2.65,1.56-4.833,1.56H58.759c-4.99,0-7.17-2.183-7.17-7.17v-101.02
		c0-2.807,0.78-4.52,2.183-5.767l20.11-16.993c1.09-0.937,2.807-1.403,4.99-1.403h51.913c24.787,0,32.27,11.38,32.27,27.593v7.17
		c0,7.64-1.717,13.407-5.923,16.993h-0.157c9.82,2.807,16.213,11.07,16.213,23.383v33.05c0,2.807-0.78,4.52-2.183,5.767
		l-20.267,16.837c-0.937,0.937-2.65,1.56-4.833,1.56h-24.163c-4.99,0-7.17-2.183-7.17-7.17v-23.85c0-3.43-1.093-5.143-4.367-5.143
		h-0.157v12.003c0,2.807-0.78,4.52-2.183,5.767L87.599,534.456z M108.489,511.852v-30.557h21.827c4.367,0,5.923,2.027,5.923,6.703
		v23.853c0,3.897,1.717,5.613,5.613,5.613h24.163c3.896,0,5.613-1.717,5.613-5.613v-33.05c0-13.093-7.483-21.357-18.864-22.603
		c6.547-2.807,8.73-9.04,8.73-17.773v-7.17c0-15.433-7.327-26.033-30.71-26.033H78.872c-3.896,0-5.613,1.713-5.613,5.613v101.02
		c0,3.897,1.713,5.613,5.613,5.613h24.007C106.776,517.463,108.489,515.749,108.489,511.852z M90.093,503.432v-84.183h35.543
		c12.16,0,17.773,7.483,17.773,17.773v10.757c0,9.51-1.87,15.747-9.353,18.083h1.717c12.783,0,18.864,5.767,18.864,16.68v20.89
		h-1.56v-20.89c0-10.29-5.457-15.277-17.303-15.277H91.656v36.17h-1.563V503.432z M91.653,420.809v45.053h33.983
		c12.94,0,16.213-6.39,16.213-17.927v-10.913c0-9.667-5.143-16.213-16.213-16.213C125.636,420.809,91.653,420.809,91.653,420.809z
		 M120.182,433.282c5.457,0,6.86,3.12,6.86,7.327v5.3c0,4.21-1.403,7.327-6.86,7.327h-11.694v-19.953H120.182z"/>
	<path class="st11" d="M230.559,538.356c-40.844,0-50.04-18.397-50.04-38.04v-48.483c0-9.663,2.337-17.927,9.353-23.85
		l20.267-16.837c7.327-6.237,19.643-9.82,40.533-9.82c40.844,0,49.886,13.877,49.886,33.517v53.16c0,9.667-2.34,17.773-9.353,23.697
		l-20.11,16.837C263.766,534.769,251.293,538.356,230.559,538.356z M298.996,434.839c0-19.02-9.353-31.957-48.327-31.957
		s-48.483,12.94-48.483,31.957v53.16c0,19.02,9.51,31.803,48.483,31.803s48.327-12.783,48.327-31.803V434.839z M250.359,505.459
		c-24.477,0-31.333-8.417-31.333-21.047v-45.987c0-12.627,6.86-21.047,31.333-21.047s31.647,8.42,31.647,21.047v45.987
		C282.003,497.042,274.833,505.459,250.359,505.459z M250.359,503.902c23.227,0,30.087-7.793,30.087-19.487v-45.987
		c0-11.693-6.86-19.487-30.087-19.487c-23.23,0-29.777,7.793-29.777,19.487v45.987C220.582,496.106,227.129,503.902,250.359,503.902
		z M237.573,440.452c0-4.053,1.873-7.17,13.097-7.17c11.38,0,13.097,3.12,13.097,7.17v41.937c0,4.21-1.717,7.327-13.097,7.327
		c-11.223,0-13.097-3.12-13.097-7.327V440.452z M242.096,487.066v-29.62c0-2.027-0.623-3.587-2.963-4.52v29.463
		C239.133,484.412,239.756,485.972,242.096,487.066z"/>
	<path class="st11" d="M309.916,528.846v-18.24c0-2.807,0.78-4.52,2.183-5.767l15.59-13.097c-11.066-3.43-17.773-10.6-17.773-25.723
		v-16.37c0-9.353,3.12-16.68,9.04-21.667l20.267-16.993c5.613-4.677,14.03-7.327,24.63-7.327h43.65c4.99,0,7.17,2.183,7.17,7.17
		v18.55c0,2.807-0.78,4.52-2.183,5.767l-14.03,11.69c13.25,2.963,21.823,9.977,21.823,26.813v16.37c0,9.353-3.117,16.68-9.197,21.67
		l-20.11,16.837c-5.767,4.833-14.187,7.483-24.63,7.483h-49.264C312.096,536.016,309.916,533.833,309.916,528.846z M418.729,490.026
		v-16.37c0-17.46-9.664-23.693-24.317-25.877l-23.23-3.12c-2.65-0.31-4.21-2.183-4.21-4.99c0-2.807,1.56-4.677,4.21-4.677h36.323
		c3.896,0,5.613-1.717,5.613-5.613v-18.55c0-3.897-1.713-5.613-5.613-5.613h-43.65c-20.267,0-32.27,9.663-32.27,27.437v16.37
		c0,17.46,9.51,23.697,24.163,25.88l23.383,3.273c2.65,0.313,4.053,1.717,4.053,5.3c0,2.493-1.403,4.52-4.053,4.52h-41.937
		c-3.896,0-5.613,1.717-5.613,5.613v18.24c0,3.897,1.713,5.613,5.613,5.613h49.264C406.569,517.463,418.729,507.799,418.729,490.026
		z M399.086,420.809h-34.607c-8.73,0-14.343,5.3-14.343,12.627v12.783c0,7.327,3.117,9.51,7.95,10.443l32.893,6.703
		c6.237,1.247,10.757,4.367,10.757,15.277v9.043c0,9.197-6.703,15.747-17.303,15.747h-38.82v-1.56h38.82
		c9.663,0,15.743-5.923,15.743-14.187v-9.043c0-9.82-3.74-12.47-9.51-13.717l-32.893-6.703c-5.457-1.09-9.197-3.43-9.197-12.003
		v-12.783c0-8.263,6.237-14.187,15.903-14.187h34.607V420.809z"/>
	<path class="st11" d="M463.789,534.456c-0.933,0.937-2.65,1.56-4.833,1.56h-22.917c-4.99,0-7.17-2.183-7.17-7.17v-77.167
		c0-9.82,2.183-18.083,9.197-24.007l20.267-16.837c7.013-5.923,19.02-9.51,39.443-9.51c40.687,0,49.107,13.877,49.107,33.36v77.167
		c0,2.807-0.78,4.52-2.183,5.767l-20.267,16.837c-0.937,0.937-2.65,1.56-4.833,1.56h-23.697c-4.99,0-7.17-2.183-7.17-7.17v-21.67
		h-2.493v4.677c0,2.807-0.78,4.52-2.183,5.767L463.789,534.456z M484.679,488.622h25.723v23.23c0,3.897,1.713,5.613,5.613,5.613
		h23.697c3.896,0,5.613-1.717,5.613-5.613v-77.167c0-18.863-8.73-31.803-47.547-31.803c-38.663,0-47.237,12.94-47.237,31.803v77.167
		c0,3.897,1.713,5.613,5.613,5.613h22.917c3.896,0,5.613-1.717,5.613-5.613v-23.23H484.679z M527.079,475.216h-57.837v28.217h-1.56
		v-65.007c0-12.627,5.767-21.047,30.243-21.047c24.477,0,30.71,8.42,30.71,21.047v65.007h-1.56v-28.217H527.079z M469.246,473.656
		h57.837v-35.23c0-11.693-5.923-19.487-29.153-19.487c-23.227,0-28.683,7.793-28.683,19.487V473.656z M497.619,432.659
		c10.91,0,12.783,3.12,12.783,7.327v20.11h-25.723v-20.11C484.679,435.776,486.549,432.659,497.619,432.659z M486.236,452.456v6.08
		h2.493v-1.56C488.733,455.106,488.109,453.549,486.236,452.456z"/>
	<path class="st11" d="M559.359,460.249v-4.52c0-2.183,0.623-3.587,1.717-4.52l3.273-2.807h-0.937c-3.896,0-5.613-1.717-5.613-5.613
		v-16.527c0-2.183,0.623-3.587,1.717-4.52l20.11-16.993c0.933-0.937,2.337-1.09,3.896-1.09h22.76c3.896,0,5.613,1.713,5.613,5.613
		v21.043c0,6.703-2.18,11.537-5.923,14.653l-20.11,16.993c-2.964,2.493-7.327,3.897-12.317,3.897h-8.573
		C561.073,465.862,559.359,464.149,559.359,460.249z M610.179,430.319v-21.043c0-2.807-1.247-4.053-4.053-4.053h-22.76
		c-2.807,0-3.896,1.247-3.896,4.053v16.527c0,2.807,1.09,4.053,3.896,4.053h12.316v1.717c0,2.027-1.09,3.117-3.12,3.117h-7.64
		c-2.807,0-4.053,1.247-4.053,4.053v4.52c0,2.963,1.247,4.053,4.053,4.053h8.573C603.633,447.312,610.179,441.856,610.179,430.319z
		 M602.539,416.756v13.407c0,6.08-2.65,11.537-8.73,11.537h-6.39v-1.56h6.39c5.143,0,7.17-4.833,7.17-9.977v-11.847h-13.72v-1.56
		H602.539z"/>
	<path class="st11" d="M619.069,528.846v-18.24c0-2.807,0.777-4.52,2.183-5.767l15.59-13.097c-11.07-3.43-17.773-10.6-17.773-25.723
		v-16.37c0-9.353,3.12-16.68,9.043-21.667l20.263-16.993c5.617-4.677,14.033-7.327,24.633-7.327h43.653
		c4.987,0,7.17,2.183,7.17,7.17v18.55c0,2.807-0.78,4.52-2.183,5.767l-14.03,11.69c13.253,2.963,21.827,9.977,21.827,26.813v16.37
		c0,9.353-3.12,16.68-9.2,21.67l-20.11,16.837c-5.767,4.833-14.187,7.483-24.633,7.483h-49.26
		C621.253,536.016,619.069,533.833,619.069,528.846z M727.883,490.026v-16.37c0-17.46-9.667-23.693-24.32-25.877l-23.23-3.12
		c-2.65-0.31-4.21-2.183-4.21-4.99c0-2.807,1.56-4.677,4.21-4.677h36.323c3.896,0,5.613-1.717,5.613-5.613v-18.55
		c0-3.897-1.717-5.613-5.613-5.613h-43.653c-20.267,0-32.27,9.663-32.27,27.437v16.37c0,17.46,9.51,23.697,24.163,25.88
		l23.383,3.273c2.653,0.313,4.057,1.717,4.057,5.3c0,2.493-1.403,4.52-4.057,4.52h-41.933c-3.896,0-5.613,1.717-5.613,5.613v18.24
		c0,3.897,1.717,5.613,5.613,5.613h49.26C715.722,517.463,727.883,507.799,727.883,490.026z M708.239,420.809h-34.607
		c-8.73,0-14.343,5.3-14.343,12.627v12.783c0,7.327,3.12,9.51,7.95,10.443l32.893,6.703c6.237,1.247,10.76,4.367,10.76,15.277v9.043
		c0,9.197-6.707,15.747-17.303,15.747h-38.82v-1.56h38.82c9.664,0,15.747-5.923,15.747-14.187v-9.043
		c0-9.82-3.743-12.47-9.513-13.717l-32.893-6.703c-5.457-1.09-9.197-3.43-9.197-12.003v-12.783c0-8.263,6.237-14.187,15.903-14.187
		h34.607v1.56H708.239z"/>
	<path class="st11" d="M796.639,536.016c-4.987,0-7.17-2.183-7.17-7.17v-101.02c0-2.807,0.78-4.52,2.183-5.767l20.107-16.993
		c1.093-0.937,2.807-1.403,4.99-1.403h24.163c4.987,0,7.17,2.183,7.17,7.17v63.45l0.313-0.313l20.11-16.993
		c1.09-0.937,2.807-1.403,4.987-1.403h22.603c4.99,0,7.17,2.183,7.17,7.17v49.107c0,2.807-0.777,4.52-2.18,5.767l-20.266,16.837
		c-0.933,0.937-2.65,1.56-4.833,1.56h-79.346V536.016z M901.712,511.852v-49.107c0-3.897-1.714-5.613-5.613-5.613h-22.603
		c-3.896,0-5.613,1.713-5.613,5.613v25.253h-21.357v-77.167c0-3.897-1.717-5.613-5.613-5.613h-24.163
		c-3.896,0-5.613,1.713-5.613,5.613v101.02c0,3.897,1.717,5.613,5.613,5.613h79.35C899.999,517.463,901.712,515.749,901.712,511.852
		z M828.129,419.253h1.56v82.623h54.25v-30.71h1.56v32.27h-57.37V419.253z"/>
	<path class="st11" d="M920.739,536.016c-4.99,0-7.17-2.183-7.17-7.17v-101.02c0-2.807,0.777-4.52,2.18-5.767l20.11-16.993
		c1.093-0.937,2.807-1.403,4.99-1.403h24.787c4.99,0,7.17,2.183,7.17,7.17v101.02c0,2.807-0.777,4.52-2.18,5.767l-20.267,16.837
		c-0.933,0.937-2.65,1.56-4.83,1.56H920.739z M971.246,511.852v-101.02c0-3.897-1.714-5.613-5.613-5.613h-24.787
		c-3.896,0-5.613,1.713-5.613,5.613v101.02c0,3.897,1.717,5.613,5.613,5.613h24.787
		C969.533,517.463,971.246,515.749,971.246,511.852z M954.099,419.253v84.183h-1.56v-84.183H954.099z"/>
	<path class="st11" d="M1023.006,550.046c-4.99,0-7.17-2.183-7.17-7.17v-7.17c-24.32-4.053-30.713-20.577-30.713-36.79v-47.08
		c0-9.663,2.34-17.927,9.357-23.85l20.263-16.837c7.327-6.237,19.647-9.82,40.534-9.82c40.844,0,49.886,13.877,49.886,33.517v51.757
		c0,9.667-2.337,17.773-9.354,23.697l-20.11,16.837c-0.627,0.47-1.093,0.937-1.717,1.25c-0.313,1.557-0.933,2.493-1.873,3.273
		l-20.266,16.837c-0.933,0.937-2.65,1.56-4.83,1.56h-24.007V550.046z M1072.736,525.882v-8.573
		c24.477-3.43,30.867-14.967,30.867-30.71v-51.757c0-19.02-9.354-31.957-48.327-31.957c-38.973,0-48.483,12.937-48.483,31.953
		v51.757c0,15.747,6.547,27.127,30.713,30.71v8.573c0,3.897,1.714,5.613,5.613,5.613h24.007
		C1071.023,531.492,1072.736,529.779,1072.736,525.882z M1054.186,505.459c-23.85-0.157-30.557-8.573-30.557-21.047v-45.987
		c0-12.627,6.86-21.047,31.333-21.047s31.647,8.42,31.647,21.047v45.987c0,12.473-7.013,20.89-30.867,21.047v12.003h-1.56v-12.003
		H1054.186z M1054.963,503.902c23.23,0,30.087-7.793,30.087-19.487v-45.987c0-11.693-6.86-19.487-30.087-19.487
		s-29.777,7.793-29.777,19.487v45.987C1025.189,496.106,1031.736,503.902,1054.963,503.902z M1042.179,440.609
		c0-4.053,1.873-7.17,13.096-7.17c11.38,0,13.097,3.12,13.097,7.17v42.56c0,4.21-1.717,7.327-13.097,7.327
		c-11.223,0-13.096-3.12-13.096-7.327V440.609z M1046.703,487.846v-30.243c0-2.027-0.623-3.587-2.963-4.52v30.087
		C1043.739,485.192,1044.363,486.752,1046.703,487.846z"/>
	<path class="st11" d="M1116.549,500.316v-72.49c0-2.807,0.777-4.52,2.18-5.767l20.11-16.993c1.09-0.937,2.807-1.403,4.987-1.403
		h24.477c4.99,0,7.17,2.183,7.17,7.17v71.087c0,1.87,0.47,3.43,2.497,4.367v-58.46c0-2.807,0.623-4.52,1.87-5.613l0.157-0.157
		l20.267-16.993c1.09-0.937,2.65-1.403,4.987-1.403h23.697c4.987,0,7.17,2.183,7.17,7.17v77.167c0,9.667-2.34,17.773-9.357,23.697
		l-20.263,16.837c-7.327,6.237-19.647,9.823-40.22,9.823C1125.746,538.356,1116.549,519.959,1116.549,500.316z M1234.559,410.832
		c0-3.897-1.717-5.613-5.613-5.613h-23.697c-4.053,0-5.613,1.713-5.613,5.613v71.087c0,4.21-1.87,7.327-12.94,7.327
		c-10.91,0-12.783-3.12-12.783-7.327v-71.087c0-3.897-1.714-5.613-5.613-5.613h-24.477c-3.896,0-5.613,1.713-5.613,5.613v77.167
		c0,19.02,9.513,31.803,48.173,31.803c38.66,0,48.17-12.783,48.17-31.803v-77.167H1234.559z M1156.922,419.253v65.007
		c0,11.69,6.393,19.487,29.623,19.487c23.227,0,29.777-7.793,29.777-19.487v-65.007h1.56v65.007
		c0,12.627-6.863,21.043-31.333,21.043c-24.477,0-31.18-8.417-31.18-21.043v-65.007
		C1155.369,419.253,1156.922,419.253,1156.922,419.253z"/>
	<path class="st11" d="M1297.546,538.356c-40.844,0-50.043-18.397-50.043-38.04v-48.483c0-9.663,2.34-17.927,9.357-23.85
		l20.266-16.837c7.323-6.237,19.643-9.82,40.53-9.82c40.844,0,49.886,13.877,49.886,33.517v53.16c0,9.667-2.337,17.773-9.353,23.697
		l-20.11,16.837C1330.753,534.769,1318.279,538.356,1297.546,538.356z M1365.982,434.839c0-19.02-9.353-31.957-48.327-31.957
		s-48.484,12.94-48.484,31.957v53.16c0,19.02,9.51,31.803,48.484,31.803s48.327-12.783,48.327-31.803V434.839z M1317.343,505.459
		c-24.477,0-31.333-8.417-31.333-21.047v-45.987c0-12.627,6.86-21.047,31.333-21.047c24.473,0,31.647,8.42,31.647,21.047v45.987
		C1348.99,497.042,1341.819,505.459,1317.343,505.459z M1317.343,503.902c23.23,0,30.087-7.793,30.087-19.487v-45.987
		c0-11.693-6.86-19.487-30.087-19.487c-23.227,0-29.777,7.793-29.777,19.487v45.987
		C1287.566,496.106,1294.116,503.902,1317.343,503.902z M1304.559,440.452c0-4.053,1.873-7.17,13.097-7.17
		c11.38,0,13.097,3.12,13.097,7.17v41.937c0,4.21-1.717,7.327-13.097,7.327c-11.223,0-13.097-3.12-13.097-7.327V440.452z
		 M1309.083,487.066v-29.62c0-2.027-0.623-3.587-2.964-4.52v29.463C1306.119,484.412,1306.743,485.972,1309.083,487.066z"/>
	<path class="st11" d="M1415.719,534.456c-0.937,0.937-2.65,1.56-4.833,1.56h-24.007c-4.987,0-7.17-2.183-7.17-7.17v-101.02
		c0-2.807,0.78-4.52,2.183-5.767l20.107-16.993c1.093-0.937,2.807-1.403,4.99-1.403h51.913c24.787,0,32.27,11.38,32.27,27.593v7.17
		c0,7.64-1.717,13.407-5.923,16.993h-0.157c9.82,2.807,16.213,11.07,16.213,23.383v33.05c0,2.807-0.78,4.52-2.183,5.767
		l-20.263,16.837c-0.937,0.937-2.653,1.56-4.833,1.56h-24.163c-4.99,0-7.17-2.183-7.17-7.17v-23.85c0-3.43-1.09-5.143-4.367-5.143
		h-0.157v12.003c0,2.807-0.777,4.52-2.18,5.767L1415.719,534.456z M1436.606,511.852v-30.557h21.827
		c4.367,0,5.923,2.027,5.923,6.703v23.853c0,3.897,1.713,5.613,5.613,5.613h24.163c3.896,0,5.613-1.717,5.613-5.613v-33.05
		c0-13.093-7.483-21.357-18.864-22.603c6.55-2.807,8.73-9.04,8.73-17.773v-7.17c0-15.433-7.327-26.033-30.71-26.033h-51.913
		c-3.896,0-5.613,1.713-5.613,5.613v101.02c0,3.897,1.717,5.613,5.613,5.613h24.007
		C1434.893,517.463,1436.606,515.749,1436.606,511.852z M1418.213,503.432v-84.183h35.543c12.16,0,17.773,7.483,17.773,17.773
		v10.757c0,9.51-1.873,15.747-9.357,18.083h1.717c12.783,0,18.864,5.767,18.864,16.68v20.89h-1.56v-20.89
		c0-10.29-5.457-15.277-17.303-15.277h-44.117v36.17h-1.56V503.432z M1419.773,420.809v45.053h33.983
		c12.94,0,16.213-6.39,16.213-17.927v-10.913c0-9.667-5.146-16.213-16.213-16.213
		C1453.756,420.809,1419.773,420.809,1419.773,420.809z M1448.299,433.282c5.457,0,6.86,3.12,6.86,7.327v5.3
		c0,4.21-1.403,7.327-6.86,7.327h-11.693v-19.953H1448.299z"/>
	<path class="st11" d="M1508.323,528.846v-18.24c0-2.807,0.78-4.52,2.183-5.767l15.59-13.097c-11.07-3.43-17.773-10.6-17.773-25.723
		v-16.37c0-9.353,3.12-16.68,9.043-21.667l20.263-16.993c5.617-4.677,14.033-7.327,24.633-7.327h43.653
		c4.987,0,7.17,2.183,7.17,7.17v18.55c0,2.807-0.78,4.52-2.183,5.767l-14.03,11.69c13.253,2.963,21.827,9.977,21.827,26.813v16.37
		c0,9.353-3.12,16.68-9.2,21.67l-20.11,16.837c-5.767,4.833-14.187,7.483-24.633,7.483h-49.26
		C1510.506,536.016,1508.323,533.833,1508.323,528.846z M1617.139,490.026v-16.37c0-17.46-9.667-23.693-24.32-25.877l-23.23-3.12
		c-2.65-0.31-4.21-2.183-4.21-4.99c0-2.807,1.56-4.677,4.21-4.677h36.323c3.896,0,5.613-1.717,5.613-5.613v-18.55
		c0-3.897-1.717-5.613-5.613-5.613h-43.653c-20.266,0-32.27,9.663-32.27,27.437v16.37c0,17.46,9.51,23.697,24.163,25.88
		l23.383,3.273c2.653,0.313,4.057,1.717,4.057,5.3c0,2.493-1.403,4.52-4.057,4.52h-41.933c-3.896,0-5.613,1.717-5.613,5.613v18.24
		c0,3.897,1.717,5.613,5.613,5.613h49.26C1604.976,517.463,1617.139,507.799,1617.139,490.026z M1597.492,420.809h-34.606
		c-8.73,0-14.343,5.3-14.343,12.627v12.783c0,7.327,3.12,9.51,7.95,10.443l32.894,6.703c6.237,1.247,10.76,4.367,10.76,15.277v9.043
		c0,9.197-6.707,15.747-17.303,15.747h-38.82v-1.56h38.82c9.664,0,15.747-5.923,15.747-14.187v-9.043
		c0-9.82-3.744-12.47-9.513-13.717l-32.894-6.703c-5.457-1.09-9.197-3.43-9.197-12.003v-12.783c0-8.263,6.237-14.187,15.903-14.187
		h34.607v1.56H1597.492z"/>
</g>
<g>
	<path class="st12" d="M28.172,1703.863c-8.583,0-12.34-3.757-12.34-12.34v-35.953c0-7.78,2.147-12.877,7.243-18.243l61.71-74.857
		h-51.78c-8.587,0-12.343-3.757-12.343-12.343v-32.463c0-4.827,1.34-7.78,3.757-9.927l34.613-29.243
		c1.877-1.61,4.827-2.417,8.583-2.417h123.417c8.587,0,12.343,3.757,12.343,12.34v39.977c0,8.05-2.15,13.147-7.246,18.513
		l-58.757,71.1h58.49c8.583,0,12.34,3.757,12.34,12.343v31.927c0,4.827-1.34,7.78-3.757,9.927l-34.88,28.977
		c-1.607,1.61-4.56,2.683-8.317,2.683L28.172,1703.863L28.172,1703.863z"/>
	<path class="st12" d="M257.836,1701.179c-1.61,1.61-4.56,2.683-8.317,2.683h-39.44c-8.587,0-12.343-3.757-12.343-12.34v-132.81
		c0-16.903,3.757-31.123,15.83-41.32l34.88-28.977c12.073-10.197,32.733-16.363,67.88-16.363c70.027,0,84.513,23.877,84.513,57.417
		v132.81c0,4.827-1.34,7.78-3.757,9.927l-34.88,28.977c-1.61,1.61-4.56,2.683-8.317,2.683h-40.78
		c-8.587,0-12.343-3.757-12.343-12.34v-37.293h-4.29v8.05c0,4.827-1.34,7.78-3.757,9.927L257.836,1701.179z M296.473,1560.052
		v10.467h4.29v-2.687C300.763,1564.616,299.693,1561.932,296.473,1560.052z"/>
	<path class="st12" d="M408.889,1703.863c-8.587,0-12.343-3.757-12.343-12.34v-173.86c0-4.827,1.343-7.78,3.757-9.927l34.613-29.243
		c1.877-1.61,4.827-2.417,8.583-2.417h82.1c51.247,0,66.003,22.537,66.003,55.003v34.343c0,17.17-4.293,31.657-16.097,41.587
		l-34.88,28.973c-8.853,7.513-22.807,12.61-43.197,13.417v12.877c0,4.827-1.34,7.78-3.757,9.927l-34.88,28.977
		c-1.607,1.61-4.56,2.683-8.317,2.683H408.889z"/>
	<path class="st12" d="M638.286,1701.179c-1.61,1.61-4.56,2.683-8.317,2.683h-39.44c-8.587,0-12.343-3.757-12.343-12.34v-132.81
		c0-16.903,3.756-31.123,15.83-41.32l34.88-28.977c12.073-10.197,32.733-16.363,67.88-16.363c70.027,0,84.513,23.877,84.513,57.417
		v132.81c0,4.827-1.34,7.78-3.756,9.927l-34.88,28.977c-1.61,1.61-4.56,2.683-8.317,2.683h-40.78
		c-8.587,0-12.343-3.757-12.343-12.34v-37.293h-4.29v8.05c0,4.827-1.34,7.78-3.756,9.927L638.286,1701.179z M676.922,1560.052
		v10.467h4.29v-2.687C681.213,1564.616,680.143,1561.932,676.922,1560.052z"/>
	<path class="st12" d="M824.759,1703.863c-8.587,0-12.343-3.757-12.343-12.34v-129.053h-36.753c-8.587,0-12.343-3.757-12.343-12.343
		v-32.463c0-4.827,1.34-7.78,3.757-9.927l34.61-29.243c1.877-1.61,4.83-2.417,8.587-2.417h141.663c8.583,0,12.34,3.757,12.34,12.34
		v32.463c0,4.83-1.34,7.783-3.756,9.93l-34.88,28.977c-1.607,1.607-4.56,2.683-8.317,2.683h-2.147v99.807
		c0,4.827-1.34,7.78-3.757,9.927l-34.88,28.977c-1.607,1.61-4.56,2.683-8.317,2.683L824.759,1703.863L824.759,1703.863z"/>
	<path class="st12" d="M1014.716,1703.863c-53.127,0-68.683-31.66-68.683-65.467v-75.39c0-18.247,4.56-33.54,16.9-43.733
		l34.613-29.243c10.463-8.853,27.097-13.953,51.78-13.953h68.147c8.587,0,12.343,3.757,12.343,12.34v31.393
		c0,4.827-1.34,7.78-3.757,9.927l-22.807,19.05c3.49,1.61,5.097,5.097,5.097,11.003v28.707c0,4.827-1.34,7.78-3.756,9.927
		l-23.877,20.123h36.753c8.587,0,12.343,3.757,12.343,12.34v31.393c0,4.827-1.34,7.78-3.756,9.927l-34.88,28.977
		c-1.607,1.61-4.56,2.683-8.317,2.683h-68.144V1703.863z"/>
	<path class="st12" d="M1183.476,1701.179c-1.61,1.61-4.56,2.683-8.317,2.683h-41.32c-8.587,0-12.343-3.757-12.343-12.34v-173.86
		c0-4.827,1.343-7.78,3.756-9.927l34.614-29.243c1.877-1.61,4.827-2.417,8.583-2.417h89.347c42.66,0,55.537,19.587,55.537,47.49
		v12.34c0,13.147-2.953,23.073-10.197,29.243h-0.266c16.9,4.83,27.903,19.05,27.903,40.243v56.88c0,4.827-1.343,7.78-3.756,9.927
		l-34.88,28.977c-1.61,1.61-4.56,2.683-8.317,2.683h-41.59c-8.583,0-12.34-3.757-12.34-12.34v-41.05
		c0-5.903-1.877-8.853-7.513-8.853h-0.267v20.66c0,4.827-1.34,7.78-3.756,9.927L1183.476,1701.179z"/>
	<path class="st12" d="M1333.453,1703.863c-8.583,0-12.34-3.757-12.34-12.34v-173.86c0-4.827,1.34-7.78,3.756-9.927l10.733-9.123
		l-23.344,3.223c-8.05,1.07-12.073-3.223-12.073-11.54v-25.757c0-4.83,1.34-7.513,3.487-9.39l34.613-29.243
		c1.607-1.34,4.56-2.417,8.317-2.95l85.857-11.54c8.05-1.07,12.073,3.22,12.073,11.54v25.757c0,4.56-1.34,7.78-3.756,9.39
		l-22.807,19.317c3.49,1.877,5.097,5.367,5.097,11v173.86c0,4.827-1.34,7.78-3.756,9.927l-34.88,28.977
		c-1.607,1.61-4.56,2.683-8.317,2.683h-42.66V1703.863z"/>
	<path class="st12" d="M1479.139,1701.179c-1.61,1.61-4.56,2.683-8.317,2.683h-39.44c-8.587,0-12.343-3.757-12.343-12.34v-132.81
		c0-16.903,3.757-31.123,15.83-41.32l34.88-28.977c12.073-10.197,32.733-16.363,67.88-16.363c70.027,0,84.513,23.877,84.513,57.417
		v132.81c0,4.827-1.34,7.78-3.757,9.927l-34.88,28.977c-1.61,1.61-4.56,2.683-8.317,2.683h-40.78
		c-8.587,0-12.343-3.757-12.343-12.34v-37.293h-4.29v8.05c0,4.827-1.34,7.78-3.757,9.927L1479.139,1701.179z M1517.776,1560.052
		v10.467h4.29v-2.687C1522.066,1564.616,1520.996,1561.932,1517.776,1560.052z"/>
</g>
<g>
	<g>
		<path class="st13" d="M50.443,1662.276v-35.953c0-7.78,2.147-12.877,7.243-18.243l61.71-74.857H67.613
			c-8.587,0-12.34-3.757-12.34-12.343v-32.463c0-8.583,3.753-12.34,12.34-12.34h123.417c8.587,0,12.343,3.757,12.343,12.34v39.977
			c0,8.05-2.147,13.147-7.243,18.513l-58.757,71.1h58.49c8.587,0,12.34,3.757,12.34,12.343v31.927c0,8.583-3.753,12.34-12.34,12.34
			H62.786C54.199,1674.616,50.443,1670.863,50.443,1662.276z"/>
		<path class="st13" d="M232.349,1662.276v-132.81c0-33.54,14.22-57.417,83.977-57.417c70.027,0,84.513,23.877,84.513,57.417v132.81
			c0,8.583-3.753,12.34-12.34,12.34h-40.783c-8.587,0-12.34-3.757-12.34-12.34v-37.293h-38.903v37.293
			c0,8.583-3.757,12.34-12.343,12.34h-39.44C236.102,1674.616,232.349,1670.863,232.349,1662.276z M296.473,1570.519h38.903v-31.93
			c0-6.44-4.563-9.927-19.317-9.927c-15.023,0-19.587,3.487-19.587,9.927V1570.519z"/>
		<path class="st13" d="M431.159,1662.276v-173.86c0-8.583,3.757-12.34,12.343-12.34h82.1c51.247,0,66,22.537,66,55.003v34.343
			c0,32.463-14.757,55-66,55h-28.173v41.857c0,8.583-3.757,12.34-12.343,12.34H443.5
			C434.916,1674.616,431.159,1670.863,431.159,1662.276z M496.893,1531.612v35.15h21.463c8.317,0,9.927-5.097,9.927-10.467v-14.22
			c0-5.367-1.61-10.467-9.927-10.467h-21.463V1531.612z"/>
		<path class="st13" d="M612.799,1662.276v-132.81c0-33.54,14.22-57.417,83.977-57.417c70.027,0,84.513,23.877,84.513,57.417v132.81
			c0,8.583-3.756,12.34-12.343,12.34h-40.78c-8.583,0-12.34-3.757-12.34-12.34v-37.293h-38.903v37.293
			c0,8.583-3.757,12.34-12.343,12.34h-39.44C616.556,1674.616,612.799,1670.863,612.799,1662.276z M676.922,1570.519h38.903v-31.93
			c0-6.44-4.56-9.927-19.32-9.927c-15.023,0-19.583,3.487-19.583,9.927V1570.519z"/>
		<path class="st13" d="M847.026,1662.276v-129.053h-36.757c-8.587,0-12.34-3.757-12.34-12.343v-32.463
			c0-8.583,3.753-12.34,12.34-12.34h141.663c8.583,0,12.34,3.757,12.34,12.34v32.463c0,8.587-3.756,12.343-12.34,12.343h-36.757
			v129.053c0,8.583-3.756,12.34-12.34,12.34h-43.467C850.783,1674.616,847.026,1670.863,847.026,1662.276z"/>
		<path class="st13" d="M980.639,1617.202v-83.44c0-34.077,15.563-57.687,68.683-57.687h68.146c8.587,0,12.343,3.757,12.343,12.34
			v31.393c0,8.583-3.756,12.34-12.343,12.34h-59.293c-11.27,0-13.68,4.83-13.68,10.733v4.56h51.513c8.583,0,12.34,3.49,12.34,12.343
			v28.707c0,8.583-3.756,12.34-12.34,12.34h-51.513v7.513c0,6.173,2.683,10.197,13.68,10.197h59.293
			c8.587,0,12.343,3.757,12.343,12.34v31.393c0,8.583-3.756,12.34-12.343,12.34h-68.146
			C996.203,1674.616,980.639,1651.006,980.639,1617.202z"/>
		<path class="st13" d="M1168.449,1674.616c-8.583,0-12.34-3.757-12.34-12.34v-173.86c0-8.583,3.756-12.34,12.34-12.34h89.347
			c42.66,0,55.537,19.587,55.537,47.49v12.34c0,13.147-2.953,23.073-10.463,29.243c16.9,4.83,27.903,19.05,27.903,40.243v56.88
			c0,8.583-3.756,12.34-12.343,12.34h-41.586c-8.587,0-12.343-3.757-12.343-12.34v-41.05c0-5.903-1.877-8.853-7.51-8.853h-34.88
			v49.907c0,8.583-3.756,12.34-12.343,12.34L1168.449,1674.616L1168.449,1674.616z M1222.112,1529.736v28.977h17.437
			c7.513,0,9.12-4.293,9.12-9.93v-9.12c0-5.633-1.607-9.93-9.12-9.93h-17.437V1529.736z"/>
		<path class="st13" d="M1334.793,1461.049v-25.757c0-8.317,3.49-11.27,12.073-12.34l85.59-11.54
			c8.05-1.07,12.073,3.22,12.073,11.54v25.757c0,8.317-3.49,11.27-12.073,12.34l-85.59,11.54
			C1338.819,1473.659,1334.793,1469.366,1334.793,1461.049z M1410.726,1674.616h-42.66c-8.587,0-12.343-3.757-12.343-12.34v-173.86
			c0-8.583,3.756-12.34,12.343-12.34h42.66c8.583,0,12.34,3.757,12.34,12.34v173.86
			C1423.066,1670.863,1419.309,1674.616,1410.726,1674.616z"/>
		<path class="st13" d="M1453.653,1662.276v-132.81c0-33.54,14.22-57.417,83.977-57.417c70.027,0,84.513,23.877,84.513,57.417
			v132.81c0,8.583-3.757,12.34-12.343,12.34h-40.78c-8.583,0-12.34-3.757-12.34-12.34v-37.293h-38.903v37.293
			c0,8.583-3.756,12.34-12.343,12.34h-39.44C1457.409,1674.616,1453.653,1670.863,1453.653,1662.276z M1517.776,1570.519h38.903
			v-31.93c0-6.44-4.56-9.927-19.32-9.927c-15.023,0-19.583,3.487-19.583,9.927V1570.519z"/>
	</g>
	<g>
		<path class="st5" d="M62.783,1671.936c-6.707,0-9.657-2.953-9.657-9.657v-35.957c0-6.977,1.877-11.537,6.707-16.633l65.197-79.147
			H67.613c-6.707,0-9.657-2.953-9.657-9.66v-32.463c0-6.707,2.95-9.657,9.657-9.657h123.417c6.71,0,9.66,2.953,9.66,9.657v39.977
			c0,7.247-1.877,11.807-6.707,16.903l-62.247,75.39h64.123c6.707,0,9.657,2.953,9.657,9.66v31.927c0,6.707-2.95,9.657-9.657,9.657
			H62.783V1671.936z"/>
		<path class="st5" d="M284.129,1671.936h-39.44c-6.707,0-9.657-2.953-9.657-9.657v-132.81c0-32.463,14.757-54.733,81.297-54.733
			c66.807,0,81.83,22.27,81.83,54.733v132.81c0,6.707-2.95,9.657-9.657,9.657H347.72c-6.707,0-9.657-2.953-9.657-9.657v-39.977
			h-44.27v39.977C293.789,1668.982,290.839,1671.936,284.129,1671.936z M293.789,1573.203h44.27v-34.613
			c0-7.243-3.22-12.607-22-12.607c-19.05,0-22.27,5.363-22.27,12.607V1573.203z"/>
		<path class="st5" d="M443.502,1671.936c-6.71,0-9.66-2.953-9.66-9.657v-173.86c0-6.707,2.95-9.657,9.66-9.657h82.1
			c48.83,0,63.32,21.197,63.32,52.32v34.343c0,31.12-14.49,52.317-63.32,52.317h-30.853v44.537c0,6.707-2.953,9.657-9.66,9.657
			L443.502,1671.936L443.502,1671.936z M494.209,1569.446h24.147c10.464,0,12.61-6.173,12.61-13.147v-14.22
			c0-6.977-2.147-13.147-12.61-13.147h-24.147V1569.446z"/>
		<path class="st5" d="M664.579,1671.936h-39.44c-6.707,0-9.657-2.953-9.657-9.657v-132.81c0-32.463,14.757-54.733,81.297-54.733
			c66.807,0,81.833,22.27,81.833,54.733v132.81c0,6.707-2.953,9.657-9.66,9.657h-40.78c-6.707,0-9.657-2.953-9.657-9.657v-39.977
			h-44.27v39.977C674.236,1668.982,671.289,1671.936,664.579,1671.936z M674.236,1573.203h44.27v-34.613
			c0-7.243-3.22-12.607-22.003-12.607c-19.05,0-22.27,5.363-22.27,12.607v34.613H674.236z"/>
		<path class="st5" d="M859.366,1671.936c-6.707,0-9.657-2.953-9.657-9.657v-131.737h-39.44c-6.71,0-9.657-2.953-9.657-9.66v-32.463
			c0-6.707,2.95-9.657,9.657-9.657h141.663c6.707,0,9.657,2.953,9.657,9.657v32.463c0,6.71-2.953,9.66-9.657,9.66h-39.44v131.737
			c0,6.707-2.953,9.657-9.657,9.657H859.366z"/>
		<path class="st5" d="M1117.473,1671.936h-68.147c-50.707,0-66.003-22.27-66.003-54.733v-83.44
			c0-32.733,15.297-55.003,66.003-55.003h68.147c6.71,0,9.66,2.953,9.66,9.657v31.393c0,6.707-2.953,9.657-9.66,9.657h-59.293
			c-13.953,0-16.367,6.44-16.367,13.413v7.243h54.2c6.707,0,9.657,2.687,9.657,9.66v28.707c0,6.707-2.953,9.657-9.657,9.657h-54.2
			v10.197c0,7.513,2.417,12.877,16.367,12.877h59.293c6.71,0,9.66,2.953,9.66,9.657v31.393
			C1127.136,1668.982,1124.183,1671.936,1117.473,1671.936z"/>
		<path class="st5" d="M1168.449,1671.936c-6.707,0-9.657-2.953-9.657-9.657v-173.86c0-6.707,2.953-9.657,9.657-9.657h89.347
			c40.243,0,52.853,18.247,52.853,44.807v12.34c0,15.027-3.756,25.76-15.027,30.587c19.587,2.15,32.463,16.367,32.463,38.903v56.88
			c0,6.707-2.95,9.657-9.657,9.657h-41.586c-6.71,0-9.657-2.953-9.657-9.657v-41.05c0-8.047-2.687-11.537-10.197-11.537h-37.567
			v52.587c0,6.707-2.95,9.657-9.656,9.657L1168.449,1671.936L1168.449,1671.936z M1219.426,1561.396h20.123
			c9.39,0,11.807-5.363,11.807-12.61v-9.12c0-7.243-2.417-12.61-11.807-12.61h-20.123V1561.396z"/>
		<path class="st5" d="M1346.599,1469.902c-6.174,0.807-9.12-2.683-9.12-8.853v-25.757c0-6.71,2.95-8.853,9.656-9.657l85.587-11.537
			c6.173-0.807,9.124,2.683,9.124,8.853v25.757c0,6.71-2.953,8.853-9.657,9.657L1346.599,1469.902z M1368.066,1671.936
			c-6.71,0-9.657-2.953-9.657-9.657v-173.86c0-6.707,2.95-9.657,9.657-9.657h42.66c6.707,0,9.657,2.953,9.657,9.657v173.86
			c0,6.707-2.953,9.657-9.657,9.657H1368.066z"/>
		<path class="st5" d="M1505.433,1671.936h-39.44c-6.707,0-9.657-2.953-9.657-9.657v-132.81c0-32.463,14.757-54.733,81.297-54.733
			c66.807,0,81.833,22.27,81.833,54.733v132.81c0,6.707-2.953,9.657-9.66,9.657h-40.78c-6.707,0-9.657-2.953-9.657-9.657v-39.977
			h-44.27v39.977C1515.089,1668.982,1512.139,1671.936,1505.433,1671.936z M1515.089,1573.203h44.27v-34.613
			c0-7.243-3.22-12.607-22.003-12.607c-19.05,0-22.27,5.363-22.27,12.607v34.613H1515.089z"/>
	</g>
	<g>
		<path class="st14" d="M89.079,1626.859c-2.684,3.22-3.757,4.83-3.757,8.317v3.757c0,5.097,2.684,6.173,5.633,6.173h90.417v2.683
			H90.956c-5.903,0-8.317-2.683-8.317-8.853v-4.293c0-4.023,1.877-6.707,4.56-9.927l78.61-100.883
			c2.684-3.22,3.757-4.827,3.757-8.317v-3.757c0-5.097-2.684-6.173-5.633-6.173h-81.83v-2.683h81.83
			c5.903,0,8.317,2.683,8.317,8.853v4.293c0,4.023-1.877,6.707-4.56,9.93L89.079,1626.859z"/>
		<path class="st14" d="M366.766,1599.226h-99.54v48.56h-2.684v-111.88c0-21.733,9.927-36.22,52.05-36.22s52.857,14.49,52.857,36.22
			v111.88h-2.684L366.766,1599.226L366.766,1599.226z M267.226,1596.542h99.54v-60.633c0-20.123-10.197-33.54-50.173-33.54
			s-49.367,13.413-49.367,33.54L267.226,1596.542L267.226,1596.542z"/>
		<path class="st14" d="M466.576,1594.932v52.853h-2.684v-144.883h57.953c33.807,0,40.247,15.563,40.247,36.49v19.853
			c0,20.927-6.44,35.683-40.247,35.683h-55.27V1594.932z M521.846,1592.252c31.66,0,37.563-13.683,37.563-33v-19.853
			c0-19.32-5.903-33.81-37.563-33.81h-55.27v86.663H521.846z"/>
		<path class="st14" d="M747.216,1599.226h-99.536v48.56h-2.687v-111.88c0-21.733,9.93-36.22,52.05-36.22
			c42.12,0,52.853,14.49,52.853,36.22v111.88h-2.684v-48.56H747.216z M647.679,1596.542h99.536v-60.633
			c0-20.123-10.197-33.54-50.173-33.54s-49.367,13.413-49.367,33.54v60.633H647.679z"/>
		<path class="st14" d="M879.759,1505.586h-55v-2.683h112.687v2.683h-55.003v142.2h-2.683V1505.586z"/>
		<path class="st14" d="M1102.986,1647.789h-48.83c-34.88,0-42.93-9.657-42.93-34.61v-75.127c0-25.487,8.587-35.147,42.93-35.147
			h48.83v2.683h-48.83c-31.66,0-40.243,8.587-40.243,32.463v34.88h70.293v2.687h-70.293v37.563c0,23.34,8.047,31.927,40.243,31.927
			h48.83V1647.789z"/>
		<path class="st14" d="M1187.769,1647.789v-144.883h61.173c20.927,0,30.587,12.877,30.587,30.587v18.513
			c0,16.367-3.22,27.1-16.097,31.123h2.95c22.003,0,32.463,9.93,32.463,28.707v35.953h-2.683v-35.953
			c0-17.707-9.39-26.293-29.784-26.293h-75.927v62.247H1187.769z M1190.453,1505.586v77.54h58.49c22.27,0,27.903-11,27.903-30.853
			v-18.783c0-16.633-8.853-27.903-27.903-27.903L1190.453,1505.586L1190.453,1505.586z"/>
		<path class="st14" d="M1417.162,1437.172v2.683l-56.073,6.977v-2.683L1417.162,1437.172z M1390.873,1502.906v144.883h-2.687
			v-144.883H1390.873z"/>
		<path class="st14" d="M1588.069,1599.226h-99.536v48.56h-2.687v-111.88c0-21.733,9.93-36.22,52.05-36.22
			s52.853,14.49,52.853,36.22v111.88h-2.683v-48.56H1588.069z M1488.529,1596.542h99.536v-60.633
			c0-20.123-10.197-33.54-50.173-33.54s-49.367,13.413-49.367,33.54v60.633H1488.529z"/>
	</g>
</g>
</svg>
