<?xml version="1.0" encoding="utf-8"?>
<!-- Generator: Adobe Illustrator 19.2.0, SVG Export Plug-In . SVG Version: 6.00 Build 0)  -->
<!DOCTYPE svg PUBLIC "-//W3C//DTD SVG 1.1//EN" "http://www.w3.org/Graphics/SVG/1.1/DTD/svg11.dtd">
<svg version="1.1" id="Layer_1" xmlns="http://www.w3.org/2000/svg" xmlns:xlink="http://www.w3.org/1999/xlink" x="0px" y="0px"
	 viewBox="0 0 839 1000" style="enable-background:new 0 0 839 1000;" xml:space="preserve">
<style type="text/css">
	.st0{fill:#432D2C;}
	.st1{fill:#FFFFFF;}
	.st2{fill:#F1F2F2;}
	.st3{fill:#EF9D92;}
	.st4{fill:#92CAD3;}
	.st5{fill:#DA4226;}
	.st6{fill:#27839E;}
	.st7{fill:#762117;}
	.st8{fill:#ECDFC1;}
	.st9{fill:#144A56;}
	.st10{fill:#102B33;}
	.st11{fill:#28515B;}
</style>
<g>
	<path class="st0" d="M55.85,393l-15.5-38.7c-4-9.8-5.2-12.8-5.2-23.1v-41.7c0-2.8,0.8-4.6,2.2-5.9l20.4-17.2
		c1.1-0.9,2.8-1.4,5.1-1.4h25.1c5.1,0,7.7,2.4,7.7,7.3v43.5c0,2.1,0.5,3.8,1.1,6l0.5,1.1v-33.5c0-2.8,0.8-4.6,2.2-5.9l20.4-17.2
		c1.1-0.9,2.8-1.4,5.1-1.4h24.8c5.2,0,7.3,2.2,7.3,7.3v41.7c0,10.3-1.3,13.3-5.2,23.1l-15.5,38.8c-0.6,1.9-1.7,3.3-2.8,4.3
		l-20.5,16.9c-1.7,1.6-3.8,2.2-6.6,2.2h-41.1C60.45,399.2,57.75,397.6,55.85,393z"/>
	<path class="st0" d="M179.45,399.2h-23.2c-5.1,0-7.3-2.2-7.3-7.3v-41.7c0-6.5,1.9-14.5,6.3-25.9l13.6-35.7c0.6-1.9,1.6-3.2,2.7-4.3
		l0.2-0.2l20.2-16.9c1.7-1.6,4-2.2,7-2.2h42.5c4.9,0,7.9,1.9,9.3,6.2l13.8,35.9c4.4,11.4,6.3,19.4,6.3,25.9v41.7
		c0,2.8-0.8,4.6-2.2,5.9l-20.6,17.1c-0.9,0.9-2.7,1.6-4.9,1.6h-23.9c-5.4,0-7.7-2.4-7.7-7.3v-20.6h-4.4v3.3c0,2.8-0.8,4.6-2.2,5.9
		l-20.6,17.1C183.45,398.5,181.65,399.2,179.45,399.2z"/>
	<path class="st0" d="M305.45,399.2c-27.8,0-40.5-15.7-40.5-38.6v-44.4c0-11.7,3.3-20.1,10-25.8l20.6-17.2
		c6.5-5.5,16.6-8.2,30.4-8.2h38.6c5.1,0,7.3,2.2,7.3,7.3v19.1c0,2.8-0.8,4.6-2.2,5.8l-20.6,17.1c-0.9,0.9-2.7,1.6-4.9,1.6h-19.4
		v26.7c0,4.4,2.8,6,8.1,6h31.8c5.1,0,7.3,2.2,7.3,7.3v18.8c0,2.8-0.8,4.6-2.2,5.9l-20.6,17.1c-0.9,0.9-2.7,1.6-4.9,1.6h-38.8
		L305.45,399.2L305.45,399.2z"/>
	<path class="st0" d="M394.15,399.2h-23.2c-5.1,0-7.3-2.2-7.3-7.3v-41.7c0-6.5,1.9-14.5,6.3-25.9l13.6-35.7c0.6-1.9,1.6-3.2,2.7-4.3
		l0.2-0.2l20.2-16.9c1.7-1.6,4-2.2,7-2.2h42.5c4.9,0,7.9,1.9,9.3,6.2l13.8,35.9c4.4,11.4,6.3,19.4,6.3,25.9v41.7
		c0,2.8-0.8,4.6-2.2,5.9l-20.6,17.1c-0.9,0.9-2.7,1.6-4.9,1.6h-23.8c-5.4,0-7.7-2.4-7.7-7.3v-20.6h-4.4v3.3c0,2.8-0.8,4.6-2.2,5.9
		l-20.6,17.1C398.15,398.5,396.35,399.2,394.15,399.2z"/>
	<path class="st0" d="M517.35,397.6c-0.9,0.9-2.7,1.6-4.9,1.6h-23.7c-5.1,0-7.3-2.2-7.3-7.3V289.4c0-2.8,0.8-4.6,2.2-5.9l20.4-17.2
		c1.1-0.9,2.8-1.4,5.1-1.4h16.4c4.6,0,7.4,1.3,10.6,4.7l10.9,12.6l19.1-16c1.1-0.9,2.8-1.4,5.1-1.4h23.7c5.1,0,7.3,2.2,7.3,7.3
		v102.5c0,2.8-0.8,4.6-2.2,5.9l-20.6,17.1c-0.9,0.9-2.7,1.6-4.9,1.6h-23.7c-5.1,0-7.3-2.2-7.3-7.3v-18.8l-3.5-4.3v5.8
		c0,2.8-0.8,4.6-2.2,5.9L517.35,397.6z"/>
	<path class="st0" d="M639.25,399.2c-27.8,0-40.5-15.7-40.5-38.6v-44.4c0-11.7,3.3-20.1,10-25.8l20.6-17.2
		c6.5-5.5,16.6-8.2,30.4-8.2h38.6c5.1,0,7.3,2.2,7.3,7.3v19.1c0,2.8-0.8,4.6-2.2,5.8l-20.6,17.1c-0.9,0.9-2.7,1.6-4.9,1.6h-19.4
		v26.7c0,4.4,2.8,6,8.1,6h31.8c5.1,0,7.3,2.2,7.3,7.3v18.8c0,2.8-0.8,4.6-2.2,5.9l-20.6,17.1c-0.9,0.9-2.7,1.6-4.9,1.6h-38.8
		L639.25,399.2L639.25,399.2z"/>
	<path class="st0" d="M733.45,399.2c-5.2,0-7.3-2.2-7.3-7.3v-19.8l-23.9-31.9c-5.1-6.8-6.3-10.1-6.3-20.4v-30.4
		c0-2.8,0.8-4.6,2.2-5.9l20.4-17.2c1.1-0.9,2.8-1.4,5.1-1.4h24.3c5.1,0,7.3,2.2,7.3,7.3v25.9c0,1.9,0,3.8,1.1,5.8l1.9,2.7v-17.2
		c0-2.8,0.8-4.6,2.2-5.9l20.4-17.2c1.1-0.9,2.8-1.4,5.1-1.4h23.6c5.1,0,7.3,2.2,7.3,7.3v30.4c0,10.3-1.3,13.6-6.3,20.4l-23.7,32.1
		v19.6c0,2.8-0.8,4.6-2.2,5.9l-20.6,17.1c-0.9,0.9-2.7,1.6-4.9,1.6h-25.7L733.45,399.2L733.45,399.2z"/>
	<path class="st1" d="M76.55,280.7v34.2c0,5.5,0.8,10.4,2.5,14.7l10.4,25.3c2.2,5.5,4,9.6,10,9.6h13.9c6,0,7.7-4.1,10-9.6l10.4-25.3
		c1.7-4.3,2.5-9.2,2.5-14.7v-34.2h1.6v34.2c0,5.8-0.6,10.8-2.5,15.3l-10.4,25.3c-2.5,6.2-4.9,10.6-11.5,10.6h-13.9
		c-6.6,0-9-4.4-11.5-10.6l-10.4-25.3c-1.9-4.6-2.5-9.5-2.5-15.3v-34.2H76.55z"/>
	<path class="st1" d="M250.95,338.9h-61.7v27.2h-1.6v-33.7c0-5.8,0.9-10.8,2.7-15.3l10.1-25.9c2.4-5.9,4.3-10.4,11.5-10.4h15.5
		c7,0,8.9,4.4,11.4,10.6l10.9,25.8c1.7,4.6,2.7,9.5,2.7,15.3v33.7h-1.6v-27.3L250.95,338.9L250.95,338.9z M189.25,337.4h61.7v-4.9
		c0-5.7-0.9-10.4-2.5-14.7l-10.9-25.8c-2.4-5.5-4.1-9.6-10-9.6h-15.5c-6.3,0-8.1,4.1-10.1,9.5l-10.1,25.9c-1.6,4.3-2.5,9-2.5,14.7
		v4.9H189.25z"/>
	<path class="st1" d="M355.75,366.1h-26.4c-20.6,0-25.3-5.7-25.3-20.4v-44.3c0-15,5.1-20.7,25.3-20.7h26.4v1.6h-26.4
		c-18.7,0-23.7,5.1-23.7,19.1v44.3c0,13.8,4.7,18.8,23.7,18.8h26.4V366.1z"/>
	<path class="st1" d="M465.65,338.9h-61.7v27.2h-1.6v-33.7c0-5.8,0.9-10.8,2.7-15.3l10.1-25.9c2.4-5.9,4.3-10.4,11.5-10.4h15.5
		c7,0,8.9,4.4,11.4,10.6l10.9,25.8c1.7,4.6,2.7,9.5,2.7,15.3v33.7h-1.6v-27.3L465.65,338.9L465.65,338.9z M403.95,337.4h61.7v-4.9
		c0-5.7-0.9-10.4-2.5-14.7l-10.9-25.8c-2.4-5.5-4.1-9.6-10-9.6h-15.5c-6.3,0-8.1,4.1-10.1,9.5l-10.1,25.9c-1.6,4.3-2.5,9-2.5,14.7
		v4.9H403.95z"/>
	<path class="st1" d="M582.45,347.5v-66.7h1.6v85.4h-1.6v-16.4l-59.8-67c-0.3-0.3-0.5-0.5-0.8-0.5s-0.3,0.3-0.3,0.5v83.3h-1.6v-83.6
		c0-1.3,0.9-1.9,1.9-1.9c0.9,0,1.3,0.3,2.4,1.4L582.45,347.5z"/>
	<path class="st1" d="M689.55,366.1h-26.4c-20.6,0-25.3-5.7-25.3-20.4v-44.3c0-15,5.1-20.7,25.3-20.7h26.4v1.6h-26.4
		c-18.7,0-23.7,5.1-23.7,19.1v44.3c0,13.8,4.7,18.8,23.7,18.8h26.4V366.1z"/>
	<path class="st1" d="M767.45,339.1v27h-1.6v-27h-1.6c-4.6,0-8.1-1.9-11.5-6.6l-15.3-21.3c-2.4-3.2-2.4-7.6-2.4-12.2v-18.2h1.6V299
		c0,4.4,0.2,8.4,2.2,11.5l15.3,21.3c2.8,4.3,6.5,5.7,10.1,5.7h4.3c4,0,7.1-1.6,10.3-5.7l15.8-21.3c2.2-2.8,2.2-7.1,2.2-11.5v-18.2
		h1.6V299c0,4.6,0.2,8.9-2.4,12.2l-15.8,21.3c-3.5,4.6-6.8,6.6-11.7,6.6H767.45z"/>
</g>
<g>
	<path class="st2" d="M15.15,686.7V567.9c0-3.3,0.9-5.3,2.6-6.8l23.6-20c1.3-1.1,3.3-1.6,5.9-1.6h58.5c25.7,0,37,9.7,37,29.9v8.8
		c0,8.6-2.4,14.7-7,18.3l-0.5,0.4c13.4,2.9,19.8,12.3,19.8,29.5v16.9c0,11-3.1,18.9-9.5,24.2l-23.6,20c-6,5.1-15.2,7.7-27.9,7.7
		h-70.4C17.75,695.1,15.15,692.6,15.15,686.7z"/>
	<path class="st2" d="M188.25,693.3c-1.1,1.1-3.1,1.8-5.7,1.8h-26.9c-5.9,0-8.4-2.6-8.4-8.4V596c0-11.5,2.6-21.3,10.8-28.2
		l23.8-19.8c8.2-7,22.4-11.2,46.4-11.2c47.8,0,57.7,16.3,57.7,39.2v90.7c0,3.3-0.9,5.3-2.6,6.8l-23.8,19.8c-1.1,1.1-3.1,1.8-5.7,1.8
		h-27.9c-5.9,0-8.4-2.6-8.4-8.4v-25.5h-2.9v5.5c0,3.3-0.9,5.3-2.6,6.8L188.25,693.3z M214.65,596.9v7.1h2.9v-1.8
		C217.55,600,216.85,598.2,214.65,596.9z"/>
	<path class="st2" d="M325.35,693.3c-1.1,1.1-3.1,1.8-5.7,1.8h-28.2c-5.9,0-8.4-2.6-8.4-8.4V567.9c0-3.3,0.9-5.3,2.6-6.8l23.6-20
		c1.3-1.1,3.3-1.6,5.9-1.6h61c29.1,0,37.9,13.4,37.9,32.4v8.4c0,9-2,15.8-7,20h-0.2c11.5,3.3,19.1,13,19.1,27.5v38.9
		c0,3.3-0.9,5.3-2.6,6.8l-23.8,19.8c-1.1,1.1-3.1,1.8-5.7,1.8h-28.4c-5.9,0-8.4-2.6-8.4-8.4v-28c0-4-1.3-6-5.1-6h-0.2v14.1
		c0,3.3-0.9,5.3-2.6,6.8L325.35,693.3z"/>
	<path class="st2" d="M419.15,686.7V567.9c0-3.3,0.9-5.3,2.6-6.8l23.6-20c1.3-1.1,3.3-1.6,5.9-1.6h58.5c25.7,0,37,9.7,37,29.9v8.8
		c0,8.6-2.4,14.7-7,18.3l-0.5,0.4c13.4,2.9,19.8,12.3,19.8,29.5v16.9c0,11-3.1,18.9-9.5,24.2l-23.6,20c-6,5.1-15.2,7.7-27.9,7.7
		h-70.4C421.75,695.1,419.15,692.6,419.15,686.7z"/>
	<path class="st2" d="M560.45,695.1c-5.9,0-8.4-2.6-8.4-8.4V567.9c0-3.3,0.9-5.3,2.6-6.8l23.6-20c1.3-1.1,3.3-1.6,5.9-1.6h85
		c5.9,0,8.4,2.6,8.4,8.4v21.4c0,3.3-0.9,5.3-2.6,6.8l-15.8,13c2.4,1.3,3.5,3.7,3.5,7.5v19.6c0,3.3-0.9,5.3-2.6,6.8l-16.3,13.7h25.3
		c5.9,0,8.4,2.6,8.4,8.4v21.4c0,3.3-0.9,5.3-2.6,6.8l-23.8,19.8c-1.1,1.1-3.1,1.8-5.7,1.8h-84.9L560.45,695.1L560.45,695.1z"/>
	<path class="st2" d="M714.25,693.3c-1.1,1.1-3.1,1.8-5.7,1.8h-28.2c-5.9,0-8.4-2.6-8.4-8.4V567.9c0-3.3,0.9-5.3,2.6-6.8l23.6-20
		c1.3-1.1,3.3-1.6,5.9-1.6h61c29.1,0,37.9,13.4,37.9,32.4v8.4c0,9-2,15.8-7,20h-0.2c11.5,3.3,19.1,13,19.1,27.5v38.9
		c0,3.3-0.9,5.3-2.6,6.8l-23.8,19.8c-1.1,1.1-3.1,1.8-5.7,1.8h-28.4c-5.9,0-8.4-2.6-8.4-8.4v-28c0-4-1.3-6-5.1-6h-0.2v14.1
		c0,3.3-0.9,5.3-2.6,6.8L714.25,693.3z"/>
	<path class="st3" d="M38.85,666.8V548.1c0-5.9,2.6-8.4,8.4-8.4h58.5c25.7,0,37,9.7,37,29.9v8.8c0,8.8-2.4,14.8-7.3,18.7
		c13.2,3.1,19.6,12.3,19.6,29.5v16.9c0,21.6-11.5,31.9-37.4,31.9h-70.4C41.35,675.3,38.85,672.7,38.85,666.8z M83.75,574.5v16.1
		h13.7c3.7,0,5.1-1.8,5.1-5.5V580c0-3.7-1.5-5.5-5.1-5.5H83.75z M83.75,622.5v18h22c3.7,0,5.1-1.8,5.1-5.5v-7.2
		c0-3.7-1.6-5.3-5.1-5.3H83.75z"/>
	<path class="st4" d="M170.85,666.8v-90.7c0-22.9,9.7-39.2,57.4-39.2c47.8,0,57.7,16.3,57.7,39.2v90.7c0,5.9-2.6,8.4-8.4,8.4h-27.9
		c-5.9,0-8.4-2.6-8.4-8.4v-25.5h-26.6v25.5c0,5.9-2.6,8.4-8.4,8.4h-26.9C173.35,675.3,170.85,672.7,170.85,666.8z M214.65,604.1
		h26.6v-21.8c0-4.4-3.1-6.8-13.2-6.8c-10.3,0-13.4,2.4-13.4,6.8L214.65,604.1L214.65,604.1z"/>
	<path class="st3" d="M315.05,675.3c-5.9,0-8.4-2.6-8.4-8.4V548.1c0-5.9,2.6-8.4,8.4-8.4h61c29.1,0,37.9,13.4,37.9,32.4v8.4
		c0,9-2,15.8-7.1,20c11.5,3.3,19.1,13,19.1,27.5v38.8c0,5.9-2.6,8.4-8.4,8.4h-28.4c-5.9,0-8.4-2.6-8.4-8.4v-28c0-4-1.3-6-5.1-6
		h-23.8v34c0,5.9-2.6,8.4-8.4,8.4h-28.4L315.05,675.3L315.05,675.3z M351.75,576.3v19.8h11.9c5.1,0,6.2-2.9,6.2-6.8v-6.2
		c0-3.8-1.1-6.8-6.2-6.8H351.75z"/>
	<path class="st4" d="M442.85,666.8V548.1c0-5.9,2.6-8.4,8.4-8.4h58.5c25.7,0,37,9.7,37,29.9v8.8c0,8.8-2.4,14.8-7.3,18.7
		c13.2,3.1,19.6,12.3,19.6,29.5v16.9c0,21.6-11.5,31.9-37.4,31.9h-70.4C445.35,675.3,442.85,672.7,442.85,666.8z M487.75,574.5v16.1
		h13.7c3.7,0,5.1-1.8,5.1-5.5V580c0-3.7-1.5-5.5-5.1-5.5H487.75z M487.75,622.5v18h22c3.7,0,5.1-1.8,5.1-5.5v-7.2
		c0-3.7-1.6-5.3-5.1-5.3H487.75z"/>
	<path class="st3" d="M575.65,666.8V548.1c0-5.9,2.6-8.4,8.4-8.4h85c5.9,0,8.4,2.6,8.4,8.4v21.4c0,5.9-2.6,8.4-8.4,8.4h-48.8v10.4
		h33.9c5.9,0,8.4,2.6,8.4,8.4v19.6c0,5.9-2.6,8.4-8.4,8.4h-33.9v12.1h48.8c5.9,0,8.4,2.6,8.4,8.4v21.6c0,5.9-2.6,8.4-8.4,8.4h-85
		C578.25,675.3,575.65,672.7,575.65,666.8z"/>
	<path class="st4" d="M704.05,675.3c-5.9,0-8.4-2.6-8.4-8.4V548.1c0-5.9,2.6-8.4,8.4-8.4h61c29.1,0,37.9,13.4,37.9,32.4v8.4
		c0,9-2,15.8-7.1,20c11.5,3.3,19.1,13,19.1,27.5v38.8c0,5.9-2.6,8.4-8.4,8.4h-28.5c-5.9,0-8.4-2.6-8.4-8.4v-28c0-4-1.3-6-5.1-6
		h-23.8v34c0,5.9-2.6,8.4-8.4,8.4h-28.3V675.3z M740.65,576.3v19.8h11.9c5.1,0,6.2-2.9,6.2-6.8v-6.2c0-3.8-1.1-6.8-6.2-6.8H740.65z"
		/>
	<path class="st5" d="M47.25,673.5c-4.6,0-6.6-2-6.6-6.6V548.2c0-4.6,2-6.6,6.6-6.6h58.5c24,0,35.2,8.8,35.2,28v8.8
		c0,10.3-3.5,16.7-10.8,19.8c15.8,1.5,23.1,10.4,23.1,28.4v16.9c0,20.5-11.2,30.1-35.6,30.1h-70.4V673.5z M81.95,592.5h15.6
		c4.8,0,7-2.4,7-7.3v-5.1c0-4.9-2.2-7.3-7-7.3h-15.6V592.5z M81.95,642.4h23.8c4.8,0,7-2.4,7-7.3V628c0-4.9-2.2-7.1-7-7.1h-23.8
		V642.4z"/>
	<path class="st6" d="M206.15,673.5h-26.9c-4.6,0-6.6-2-6.6-6.6v-90.7c0-22.2,10.1-37.4,55.5-37.4c45.6,0,55.9,15.2,55.9,37.4v90.7
		c0,4.6-2,6.6-6.6,6.6h-27.9c-4.6,0-6.6-2-6.6-6.6v-27.3h-30.2v27.3C212.75,671.5,210.75,673.5,206.15,673.5z M212.75,606.1h30.2
		v-23.6c0-4.9-2.2-8.6-15-8.6c-13,0-15.2,3.7-15.2,8.6V606.1z"/>
	<path class="st5" d="M315.05,673.5c-4.6,0-6.6-2-6.6-6.6V548.2c0-4.6,2-6.6,6.6-6.6h61c27.5,0,36.1,12.5,36.1,30.6v8.4
		c0,10.3-2.6,17.6-10.3,20.9c13.4,1.5,22.2,11.2,22.2,26.6V667c0,4.6-2,6.6-6.6,6.6h-28.4c-4.6,0-6.6-2-6.6-6.6v-28
		c0-5.5-1.8-7.9-7-7.9h-25.7V667c0,4.6-2,6.6-6.6,6.6h-28.1V673.5z M349.85,598h13.7c6.4,0,8.1-3.7,8.1-8.6v-6.2
		c0-4.9-1.7-8.6-8.1-8.6h-13.7V598z"/>
	<path class="st6" d="M451.25,673.5c-4.6,0-6.6-2-6.6-6.6V548.2c0-4.6,2-6.6,6.6-6.6h58.5c24,0,35.2,8.8,35.2,28v8.8
		c0,10.3-3.5,16.7-10.8,19.8c15.8,1.5,23.1,10.4,23.1,28.4v16.9c0,20.5-11.2,30.1-35.6,30.1h-70.4L451.25,673.5L451.25,673.5z
		 M485.85,592.5h15.6c4.8,0,7-2.4,7-7.3v-5.1c0-4.9-2.2-7.3-7-7.3h-15.6V592.5z M485.85,642.4h23.8c4.8,0,7-2.4,7-7.3V628
		c0-4.9-2.2-7.1-7-7.1h-23.8L485.85,642.4L485.85,642.4z"/>
	<path class="st5" d="M584.15,673.5c-4.6,0-6.6-2-6.6-6.6V548.2c0-4.6,2-6.6,6.6-6.6h85c4.6,0,6.6,2,6.6,6.6v21.4
		c0,4.6-2,6.6-6.6,6.6h-50.6v14.1h35.7c4.6,0,6.6,2,6.6,6.6v19.6c0,4.6-2,6.6-6.6,6.6h-35.7v15.8h50.6c4.6,0,6.6,2,6.6,6.6v21.4
		c0,4.6-2,6.6-6.6,6.6L584.15,673.5L584.15,673.5z"/>
	<path class="st6" d="M704.05,673.5c-4.6,0-6.6-2-6.6-6.6V548.2c0-4.6,2-6.6,6.6-6.6h61c27.5,0,36.1,12.5,36.1,30.6v8.4
		c0,10.3-2.6,17.6-10.3,20.9c13.4,1.5,22.2,11.2,22.2,26.6V667c0,4.6-2,6.6-6.6,6.6h-28.4c-4.6,0-6.6-2-6.6-6.6v-28
		c0-5.5-1.8-7.9-7-7.9h-25.7V667c0,4.6-2,6.6-6.6,6.6h-28.1L704.05,673.5L704.05,673.5z M738.85,598h13.7c6.4,0,8.1-3.7,8.1-8.6
		v-6.2c0-4.9-1.7-8.6-8.1-8.6h-13.7V598z"/>
	<path class="st3" d="M61.05,657.1v-99h37.2c20.3,0,24,8.8,24,19.4v11.7c0,7.3-1.3,13.9-11.7,16.7c20.3,0,23.8,9,23.8,21.1v11.8
		c0,10.8-3.5,18.3-24,18.3H61.05z M62.85,560v46h35.4c20.2,0,22.2-7.9,22.2-16.7v-11.7c0-9.9-3.7-17.6-22.2-17.6H62.85z
		 M62.85,607.8v47.5h47.5c18.3,0,22.2-6.4,22.2-16.5v-11.7c0-11-3.5-19.2-22-19.2h-47.7C62.85,607.9,62.85,607.8,62.85,607.8z"/>
	<path class="st4" d="M262.65,624h-68v33.2h-1.8v-76.4c0-14.8,6.8-24.7,35.6-24.7s36.1,9.9,36.1,24.7v76.4h-1.8V624H262.65z
		 M194.65,622.1h68v-41.4c0-13.7-7-22.9-34.3-22.9s-33.7,9.2-33.7,22.9V622.1L194.65,622.1z"/>
	<path class="st3" d="M328.25,657.1v-99h41.8c14.3,0,20.9,8.8,20.9,20.9v12.6c0,11.2-2.2,18.5-11,21.3h2c15,0,22.2,6.8,22.2,19.6
		v24.6h-1.8v-24.6c0-12.1-6.4-18-20.3-18h-52V657h-1.8L328.25,657.1L328.25,657.1z M330.05,560v53h40c15.2,0,19.1-7.5,19.1-21.1
		v-12.8c0-11.4-6-19.1-19.1-19.1L330.05,560L330.05,560z"/>
	<path class="st4" d="M464.95,657.1v-99h37.2c20.3,0,24,8.8,24,19.4v11.7c0,7.3-1.3,13.9-11.7,16.7c20.3,0,23.8,9,23.8,21.1v11.8
		c0,10.8-3.5,18.3-24,18.3H464.95z M466.85,560v46h35.4c20.2,0,22.2-7.9,22.2-16.7v-11.7c0-9.9-3.7-17.6-22.2-17.6H466.85z
		 M466.85,607.8v47.5h47.5c18.3,0,22.2-6.4,22.2-16.5v-11.7c0-11-3.5-19.2-22-19.2h-47.7L466.85,607.8L466.85,607.8z"/>
	<path class="st3" d="M659.25,657.1h-61.8v-99h61.8v1.8h-59.9v46h45.1v1.8h-45.1v47.5h59.9V657.1z"/>
	<path class="st4" d="M717.25,657.1v-99h41.8c14.3,0,20.9,8.8,20.9,20.9v12.6c0,11.2-2.2,18.5-11,21.3h2c15,0,22.2,6.8,22.2,19.6
		v24.6h-1.8v-24.6c0-12.1-6.4-18-20.3-18h-52V657h-1.8L717.25,657.1L717.25,657.1z M719.05,560v53h40c15.2,0,19.1-7.5,19.1-21.1
		v-12.8c0-11.4-6-19.1-19.1-19.1L719.05,560L719.05,560z"/>
</g>
<g>
	<g>
		<path class="st7" d="M36.45,443.1c0-1.4,0.6-2,2-2h30.7c16.6,0,26.2,9.5,26.2,26.2V498c0,1.4-0.6,2-2,2h-55.3
			c-0.9,0-1.6-0.7-1.6-1.6C36.45,498.4,36.45,443.1,36.45,443.1z"/>
		<path class="st7" d="M101.85,443.1c0-1.4,0.6-2,2-2h30.7c16.6,0,26.2,9.5,26.2,26.2V498c0,1.4-0.6,2-2,2h-55.3
			c-0.9,0-1.6-0.7-1.6-1.6V443.1L101.85,443.1z"/>
		<path class="st7" d="M167.25,443.1c0-1.4,0.6-2,2-2h30.7c16.6,0,26.2,9.5,26.2,26.2V498c0,1.4-0.6,2-2,2h-55.3
			c-0.9,0-1.6-0.7-1.6-1.6L167.25,443.1L167.25,443.1z"/>
		<path class="st7" d="M232.65,443.1c0-1.4,0.6-2,2-2h30.7c16.6,0,26.2,9.5,26.2,26.2V498c0,1.4-0.6,2-2,2h-55.3
			c-0.9,0-1.6-0.7-1.6-1.6L232.65,443.1L232.65,443.1z"/>
		<path class="st7" d="M298.05,443.1c0-1.4,0.6-2,2-2h30.7c16.6,0,26.2,9.5,26.2,26.2V498c0,1.4-0.6,2-2,2h-55.3
			c-0.9,0-1.6-0.7-1.6-1.6L298.05,443.1L298.05,443.1z"/>
		<path class="st7" d="M363.45,443.1c0-1.4,0.6-2,2-2h30.7c16.6,0,26.2,9.5,26.2,26.2V498c0,1.4-0.6,2-2,2h-55.3
			c-0.9,0-1.6-0.7-1.6-1.6L363.45,443.1L363.45,443.1z"/>
		<path class="st7" d="M428.85,443.1c0-1.4,0.6-2,2-2h30.7c16.6,0,26.2,9.5,26.2,26.2V498c0,1.4-0.6,2-2,2h-55.3
			c-0.9,0-1.6-0.7-1.6-1.6L428.85,443.1L428.85,443.1z"/>
		<path class="st7" d="M494.25,443.1c0-1.4,0.6-2,2-2h30.7c16.6,0,26.2,9.5,26.2,26.2V498c0,1.4-0.6,2-2,2h-55.3
			c-0.9,0-1.6-0.7-1.6-1.6L494.25,443.1L494.25,443.1z"/>
		<path class="st7" d="M559.65,443.1c0-1.4,0.6-2,2-2h30.7c16.6,0,26.2,9.5,26.2,26.2V498c0,1.4-0.6,2-2,2h-55.3
			c-0.9,0-1.6-0.7-1.6-1.6L559.65,443.1L559.65,443.1z"/>
		<path class="st7" d="M625.05,443.1c0-1.4,0.6-2,2-2h30.7c16.6,0,26.2,9.5,26.2,26.2V498c0,1.4-0.6,2-2,2h-55.3
			c-0.9,0-1.6-0.7-1.6-1.6L625.05,443.1L625.05,443.1z"/>
		<path class="st7" d="M690.45,443.1c0-1.4,0.6-2,2-2h30.7c16.6,0,26.2,9.5,26.2,26.2V498c0,1.4-0.6,2-2,2h-55.3
			c-0.9,0-1.6-0.7-1.6-1.6L690.45,443.1L690.45,443.1z"/>
		<path class="st7" d="M755.85,443.1c0-1.4,0.6-2,2-2h30.7c16.6,0,26.2,9.5,26.2,26.2V498c0,1.4-0.6,2-2,2h-55.3
			c-0.9,0-1.6-0.7-1.6-1.6L755.85,443.1L755.85,443.1z"/>
	</g>
	<g>
		<path class="st8" d="M53.25,490.2c-1.2,0-1.7-0.5-1.7-1.7v-31.1c0-1.2,0.5-1.7,1.7-1.7h7.4c1.2,0,1.7,0.5,1.7,1.7v23.8h7.5v-7.8
			c0-1.2,0.5-1.7,1.7-1.7h7c1.2,0,1.7,0.5,1.7,1.7v15.1c0,1.2-0.5,1.7-1.7,1.7H53.25z"/>
		<path class="st8" d="M131.25,490.9c-11.5,0-14.4-3.9-14.4-9.8v-23.8c0-1.2,0.5-1.7,1.7-1.7h7.5c1.2,0,1.7,0.5,1.7,1.7v21.9
			c0,1.3,0.6,2.3,3.5,2.3c3,0,3.6-1,3.6-2.3v-21.9c0-1.2,0.5-1.7,1.7-1.7h7.3c1.2,0,1.7,0.5,1.7,1.7v23.8
			C145.65,486.9,142.75,490.9,131.25,490.9z"/>
		<path class="st8" d="M183.95,490.2c-1.2,0-1.7-0.5-1.7-1.7v-31.1c0-1.2,0.5-1.7,1.7-1.7h5c1.2,0,2,0.3,2.8,1.3l8.6,10.7v-10.2
			c0-1.2,0.5-1.7,1.7-1.7h7.2c1.2,0,1.7,0.5,1.7,1.7v31.1c0,1.2-0.5,1.7-1.7,1.7h-7.2c-1.2,0-1.7-0.5-1.7-1.7v-5.9l-7.5-9.9v15.8
			c0,1.2-0.5,1.7-1.7,1.7h-7.2L183.95,490.2L183.95,490.2z"/>
		<path class="st8" d="M259.25,490.2c-9.1,0-11.8-4-11.8-9.8v-14.9c0-5.9,2.7-9.8,11.8-9.8h15c1.2,0,1.7,0.5,1.7,1.7v5.8
			c0,1.2-0.5,1.7-1.7,1.7h-13c-2.5,0-2.9,1.2-2.9,2.4v11.4c0,1.3,0.4,2.3,2.9,2.3h13c1.2,0,1.7,0.5,1.7,1.7v5.7
			c0,1.2-0.5,1.7-1.7,1.7h-15V490.2z"/>
		<path class="st8" d="M314.75,490.2c-1.2,0-1.7-0.5-1.7-1.7v-31.1c0-1.2,0.5-1.7,1.7-1.7h7.4c1.2,0,1.7,0.5,1.7,1.7v10.4h7v-10.4
			c0-1.2,0.5-1.7,1.7-1.7h7.4c1.2,0,1.7,0.5,1.7,1.7v31.1c0,1.2-0.5,1.7-1.7,1.7h-7.4c-1.2,0-1.7-0.5-1.7-1.7v-10.7h-7v10.7
			c0,1.2-0.5,1.7-1.7,1.7H314.75L314.75,490.2z"/>
		<path class="st8" d="M380.15,490.2c-1.2,0-1.7-0.5-1.7-1.7v-31.1c0-1.2,0.5-1.7,1.7-1.7h24.9c1.2,0,1.7,0.5,1.7,1.7v5.6
			c0,1.2-0.5,1.7-1.7,1.7h-15.8v3.7h12c1.2,0,1.7,0.5,1.7,1.7v5.1c0,1.2-0.5,1.7-1.7,1.7h-12v4.1h15.8c1.2,0,1.7,0.5,1.7,1.7v5.6
			c0,1.2-0.5,1.7-1.7,1.7h-24.9V490.2z"/>
		<path class="st8" d="M458.15,490.9c-11.8,0-14.6-3.9-14.6-9.8v-16.4c0-5.9,2.8-9.8,14.6-9.8s14.6,4,14.6,9.8v16.4
			C472.75,486.9,469.95,490.9,458.15,490.9z M458.15,481.6c3.2,0,3.7-1,3.7-2.3v-12.9c0-1.2-0.5-2.2-3.7-2.2s-3.7,1-3.7,2.2v12.9
			C454.45,480.7,454.95,481.6,458.15,481.6z"/>
		<path class="st8" d="M510.85,490.2c-1.2,0-1.7-0.5-1.7-1.7v-31.1c0-1.2,0.5-1.7,1.7-1.7h5c1.2,0,2,0.3,2.8,1.3l8.6,10.7v-10.2
			c0-1.2,0.5-1.7,1.7-1.7h7.2c1.2,0,1.7,0.5,1.7,1.7v31.1c0,1.2-0.5,1.7-1.7,1.7h-7.2c-1.2,0-1.7-0.5-1.7-1.7v-5.9l-7.5-9.9v15.8
			c0,1.2-0.5,1.7-1.7,1.7h-7.2L510.85,490.2L510.85,490.2z"/>
		<path class="st8" d="M576.25,490.2c-1.2,0-1.7-0.5-1.7-1.7v-31.1c0-1.2,0.5-1.7,1.7-1.7h24.9c1.2,0,1.7,0.5,1.7,1.7v5.6
			c0,1.2-0.5,1.7-1.7,1.7h-15.8v3.7h12c1.2,0,1.7,0.5,1.7,1.7v5.1c0,1.2-0.5,1.7-1.7,1.7h-12v4.1h15.8c1.2,0,1.7,0.5,1.7,1.7v5.6
			c0,1.2-0.5,1.7-1.7,1.7h-24.9V490.2z"/>
		<path class="st8" d="M650.25,490.2c-1.2,0-1.7-0.5-1.7-1.7v-23.6h-6.9c-1.2,0-1.7-0.5-1.7-1.7v-5.8c0-1.2,0.5-1.7,1.7-1.7h25.3
			c1.2,0,1.7,0.5,1.7,1.7v5.8c0,1.2-0.5,1.7-1.7,1.7h-6.9v23.6c0,1.2-0.5,1.7-1.7,1.7H650.25z"/>
		<path class="st8" d="M715.65,490.2c-1.2,0-1.7-0.5-1.7-1.7v-23.6h-6.9c-1.2,0-1.7-0.5-1.7-1.7v-5.8c0-1.2,0.5-1.7,1.7-1.7h25.3
			c1.2,0,1.7,0.5,1.7,1.7v5.8c0,1.2-0.5,1.7-1.7,1.7h-6.9v23.6c0,1.2-0.5,1.7-1.7,1.7H715.65z"/>
		<path class="st8" d="M772.45,490.2c-1.2,0-1.7-0.5-1.7-1.7v-31.1c0-1.2,0.5-1.7,1.7-1.7h24.9c1.2,0,1.7,0.5,1.7,1.7v5.6
			c0,1.2-0.5,1.7-1.7,1.7h-15.8v3.7h12c1.2,0,1.7,0.5,1.7,1.7v5.1c0,1.2-0.5,1.7-1.7,1.7h-12v4.1h15.8c1.2,0,1.7,0.5,1.7,1.7v5.6
			c0,1.2-0.5,1.7-1.7,1.7h-24.9V490.2z"/>
	</g>
</g>
<g>
	<path class="st6" d="M105.35,220.3h-33.2c-23.9,0-34.8-9.4-34.8-29.1v-42.3c0-19.8,10.9-29.2,34.8-29.2h33.2c4.3,0,6.3,1.9,6.3,6.3
		v16.4c0,4.3-1.9,6.3-6.3,6.3h-27.3c-4.6,0-6.9,1.6-6.9,5.4v32.3c0,3.8,2.4,5.2,6.9,5.2h27.3c4.3,0,6.3,1.9,6.3,6.3v16.2
		C111.65,218.4,109.75,220.3,105.35,220.3z"/>
	<path class="st6" d="M209.15,193.3c0,17.1-7.9,29.1-43.5,29.1s-43.6-12-43.6-29.1V147c0-17.1,8-29.2,43.6-29.2s43.5,12.1,43.5,29.2
		V193.3z M155.65,188.4c0,3.3,2.3,5,10.1,5s10.1-1.8,10.1-5v-36.6c0-3.1-2.3-4.9-10.1-4.9c-7.6,0-10.1,1.8-10.1,4.9V188.4z"/>
	<path class="st6" d="M290.15,220.3h-33.1c-23.9,0-34.8-9.4-34.8-29.1v-42.3c0-19.8,10.9-29.2,34.8-29.2h33.2c4.3,0,6.3,1.9,6.3,6.3
		v16.4c0,4.3-1.9,6.3-6.3,6.3h-27.3c-4.6,0-6.9,1.6-6.9,5.4v32.3c0,3.8,2.4,5.2,6.9,5.2h27.3c4.3,0,6.3,1.9,6.3,6.3v16.2
		C296.45,218.4,294.55,220.3,290.15,220.3z"/>
	<path class="st6" d="M315.35,220.3c-4.3,0-6.3-1.9-6.3-6.3v-88.1c0-4.3,1.9-6.3,6.3-6.3h21.1c4.3,0,6.3,1.9,6.3,6.3v29.9h3.3
		l13.6-30.8c1.6-3.8,3.8-5.3,8-5.3h20.9c4.5,0,6,2.3,4.2,6.4l-13,29.9c9.8,1.4,16,8.7,16,19.7V214c0,4.3-1.9,6.3-6.3,6.3h-20.9
		c-4.3,0-6.3-1.9-6.3-6.3v-26.5c0-2-1-3.3-3-3.3h-16.6V214c0,4.3-1.9,6.3-6.3,6.3H315.35L315.35,220.3z"/>
	<path class="st6" d="M426.35,214.1v-65.4h-18.6c-4.3,0-6.3-1.9-6.3-6.3V126c0-4.3,1.9-6.3,6.3-6.3h71.8c4.3,0,6.3,1.9,6.3,6.3v16.4
		c0,4.3-1.9,6.3-6.3,6.3h-18.6v65.4c0,4.3-1.9,6.3-6.3,6.3h-22C428.25,220.3,426.35,218.4,426.35,214.1z"/>
	<path class="st6" d="M494.15,214.1v-67.3c0-17,7.2-29.1,42.5-29.1c35.5,0,42.8,12.1,42.8,29.1v67.3c0,4.3-1.9,6.3-6.3,6.3h-20.7
		c-4.3,0-6.3-1.9-6.3-6.3v-18.9h-19.7v18.9c0,4.3-1.9,6.3-6.3,6.3h-20C496.05,220.3,494.15,218.4,494.15,214.1z M526.65,167.6h19.7
		v-16.2c0-3.3-2.3-5-9.8-5c-7.6,0-9.9,1.8-9.9,5V167.6L526.65,167.6z"/>
	<path class="st6" d="M622.85,220.3h-21.6c-4.3,0-6.3-1.9-6.3-6.3v-88.1c0-4.3,1.9-6.3,6.3-6.3h21.6c4.3,0,6.3,1.9,6.3,6.3V214
		C629.05,218.4,627.15,220.3,622.85,220.3z"/>
	<path class="st6" d="M645.25,214.1V126c0-4.3,1.9-6.3,6.3-6.3h21.1c4.3,0,6.3,1.9,6.3,6.3v65.4h33.3c4.3,0,6.3,1.9,6.3,6.3v16.4
		c0,4.3-1.9,6.3-6.3,6.3h-60.6C647.15,220.3,645.25,218.4,645.25,214.1z"/>
	<path class="st6" d="M774.95,220.3h-42.9c-4.3,0-6.3-1.9-6.3-6.3v-15.9c0-4.3,1.9-6.3,6.3-6.3h36.6c1.5,0,2.2-1.2,2.2-2.6
		c0-2-0.7-3.1-2.3-3.3l-20.4-2.9c-13.6-2-22.3-7.9-22.3-23.9v-14.3c0-16.3,10.9-25.3,29.5-25.3h38.1c4.3,0,6.3,1.9,6.3,6.3V142
		c0,4.3-1.9,6.3-6.3,6.3h-31.7c-1.5,0-2.3,1.2-2.3,2.7c0,1.6,0.8,2.9,2.4,3l20.2,2.7c13.6,2,22.4,7.9,22.4,23.9v14.3
		C804.35,211.3,793.35,220.3,774.95,220.3z"/>
	<path class="st4" d="M72.25,219.1c-22.8,0-33.4-8.8-33.4-27.7v-42.3c0-19,10.6-27.9,33.4-27.9h33.2c3.4,0,4.9,1.5,4.9,4.9v16.4
		c0,3.4-1.5,4.9-4.9,4.9h-27.4c-5.7,0-8.3,2.2-8.3,6.8v32.3c0,4.5,2.6,6.5,8.3,6.5h27.3c3.4,0,4.9,1.5,4.9,4.9v16.2
		c0,3.4-1.5,4.9-4.9,4.9h-33.1C72.25,219,72.25,219.1,72.25,219.1z"/>
	<path class="st4" d="M165.65,221.1c-34,0-42.3-11.1-42.3-27.7v-46.3c0-16.6,8.3-27.9,42.3-27.9s42.1,11.3,42.1,27.9v46.3
		C207.85,209.9,199.65,221.1,165.65,221.1z M165.65,194.9c9.9,0,11.4-2.7,11.4-6.4v-36.6c0-3.5-1.5-6.3-11.4-6.3
		c-9.8,0-11.4,2.7-11.4,6.3v36.6C154.25,192.1,155.95,194.9,165.65,194.9z"/>
	<path class="st4" d="M257.05,219.1c-22.8,0-33.4-8.8-33.4-27.7v-42.3c0-19,10.6-27.9,33.4-27.9h33.2c3.4,0,4.9,1.5,4.9,4.9v16.4
		c0,3.4-1.5,4.9-4.9,4.9h-27.3c-5.7,0-8.3,2.2-8.3,6.8v32.3c0,4.5,2.6,6.5,8.3,6.5h27.3c3.4,0,4.9,1.5,4.9,4.9v16.2
		c0,3.4-1.5,4.9-4.9,4.9h-33.2V219.1z"/>
	<path class="st4" d="M315.35,219.1c-3.4,0-4.9-1.5-4.9-4.9v-88.1c0-3.4,1.5-4.9,4.9-4.9h21.1c3.4,0,4.9,1.5,4.9,4.9v31.3h5.4
		l14-31.7c1.4-3.3,3.3-4.5,6.8-4.5h20.9c3.1,0,4.2,1.6,3,4.5l-13.9,31.7c10.2,0.5,16.7,7.6,16.7,18.5v38.3c0,3.4-1.5,4.9-4.9,4.9
		h-20.9c-3.4,0-4.9-1.5-4.9-4.9v-26.5c0-3-1.5-4.6-4.3-4.6h-17.9v31.1c0,3.4-1.5,4.9-4.9,4.9H315.35L315.35,219.1z"/>
	<path class="st4" d="M432.55,219.1c-3.4,0-4.9-1.5-4.9-4.9v-66.7h-20c-3.4,0-4.9-1.5-4.9-4.9v-16.4c0-3.4,1.5-4.9,4.9-4.9h71.8
		c3.4,0,4.9,1.5,4.9,4.9v16.4c0,3.4-1.5,4.9-4.9,4.9h-20v66.7c0,3.4-1.5,4.9-4.9,4.9H432.55z"/>
	<path class="st4" d="M520.35,219.1h-20c-3.4,0-4.9-1.5-4.9-4.9v-67.3c0-16.4,7.5-27.7,41.2-27.7c33.8,0,41.4,11.3,41.4,27.7v67.3
		c0,3.4-1.5,4.9-4.9,4.9h-20.7c-3.4,0-4.9-1.5-4.9-4.9V194h-22.4v20.2C525.25,217.6,523.75,219.1,520.35,219.1z M525.25,169h22.4
		v-17.5c0-3.7-1.6-6.4-11.1-6.4c-9.6,0-11.3,2.7-11.3,6.4L525.25,169L525.25,169z"/>
	<path class="st4" d="M601.25,219.1c-3.4,0-4.9-1.5-4.9-4.9v-88.1c0-3.4,1.5-4.9,4.9-4.9h21.6c3.4,0,4.9,1.5,4.9,4.9v88.1
		c0,3.4-1.5,4.9-4.9,4.9H601.25L601.25,219.1z"/>
	<path class="st4" d="M677.45,126.1v66.7h34.7c3.4,0,4.9,1.5,4.9,4.9v16.4c0,3.4-1.5,4.9-4.9,4.9h-60.6c-3.4,0-4.9-1.5-4.9-4.9V126
		c0-3.4,1.5-4.9,4.9-4.9h21.1C675.95,121.2,677.45,122.7,677.45,126.1z"/>
	<path class="st4" d="M731.95,219.1c-3.4,0-4.9-1.5-4.9-4.9v-15.9c0-3.4,1.5-4.9,4.9-4.9h36.6c2.3,0,3.5-1.8,3.5-3.9
		c0-3.1-1.2-4.3-3.5-4.6l-20.4-2.9c-12.8-1.9-21.1-7.3-21.1-22.6v-14.3c0-15.5,10.5-23.9,28.1-23.9h38.1c3.4,0,4.9,1.5,4.9,4.9v16.2
		c0,3.4-1.5,4.9-4.9,4.9h-31.7c-2.3,0-3.7,1.6-3.7,4.1s1.4,4.1,3.7,4.3l20.2,2.7c12.8,1.9,21.2,7.3,21.2,22.6v14.3
		c0,15.5-10.6,23.9-28.1,23.9L731.95,219.1L731.95,219.1z"/>
	<path class="st9" d="M97.85,206.9h-22.7c-17.7,0-21.7-4.9-21.7-17.5v-38.1c0-12.9,4.3-17.8,21.7-17.8h22.7v1.4h-22.7
		c-16,0-20.4,4.3-20.4,16.4v38.1c0,11.8,4.1,16.2,20.4,16.2h22.7C97.85,205.6,97.85,206.9,97.85,206.9z"/>
	<path class="st9" d="M165.45,208.7c-21.3,0-27.3-7.3-27.3-18.3v-40.1c0-11,6-18.3,27.3-18.3s27.6,7.3,27.6,18.3v40.1
		C193.05,201.4,186.75,208.7,165.45,208.7z M165.45,207.3c20.2,0,26.2-6.8,26.2-17v-40.1c0-10.2-6-17-26.2-17s-26,6.8-26,17v40.1
		C139.45,200.5,145.15,207.3,165.45,207.3z"/>
	<path class="st9" d="M282.75,206.9h-22.7c-17.7,0-21.7-4.9-21.7-17.5v-38.1c0-12.9,4.3-17.8,21.7-17.8h22.7v1.4h-22.7
		c-16,0-20.4,4.3-20.4,16.4v38.1c0,11.8,4.1,16.2,20.4,16.2h22.7V206.9z"/>
	<path class="st9" d="M325.25,206.9v-73.4h1.4v36.1h29.5l15.6-36.1h1.5l-15.6,36.1h5.6c11.1,0,16.4,3.8,16.4,13.3v23.9h-1.4v-23.9
		c0-8.7-5-12-15.1-12h-36.6v35.9h-1.3V206.9z"/>
	<path class="st9" d="M442.95,134.9h-27.9v-1.4h57.1v1.4h-27.9v72h-1.4v-72H442.95z"/>
	<path class="st9" d="M562.25,182.3h-50.4v24.6h-1.4v-56.7c0-11,5-18.3,26.4-18.3c21.3,0,26.8,7.3,26.8,18.3v56.7h-1.4V182.3z
		 M511.85,181h50.4v-30.7c0-10.2-5.2-17-25.4-17s-25,6.8-25,17L511.85,181L511.85,181z"/>
	<path class="st9" d="M612.75,133.5v73.4h-1.4v-73.4H612.75L612.75,133.5z"/>
	<path class="st9" d="M662.75,133.5v72h42v1.4h-43.4v-73.4H662.75L662.75,133.5z"/>
	<path class="st9" d="M785.95,134.9h-30.2c-7.6,0-12.5,4.6-12.5,11V157c0,6.4,2.7,8.3,6.9,9.1l28.7,5.8c5.4,1.1,9.4,3.8,9.4,13.3
		v7.9c0,8-5.8,13.7-15.1,13.7h-33.8v-1.4h33.8c8.4,0,13.7-5.2,13.7-12.4v-7.9c0-8.6-3.3-10.9-8.3-12l-28.7-5.8c-4.8-1-8-3-8-10.5
		v-11.1c0-7.2,5.4-12.4,13.9-12.4h30.2L785.95,134.9L785.95,134.9z"/>
</g>
<g>
	<path class="st5" d="M36.15,79.4V24.8c0-2.7,1.2-3.9,3.9-3.9h13c2.7,0,3.9,1.2,3.9,3.9v17.4h12.4V24.8c0-2.7,1.2-3.9,3.9-3.9h13.1
		c2.7,0,3.9,1.2,3.9,3.9v54.6c0,2.7-1.2,3.9-3.9,3.9h-13.1c-2.7,0-3.9-1.2-3.9-3.9V61.5h-12.4v17.9c0,2.7-1.2,3.9-3.9,3.9h-13
		C37.35,83.3,36.15,82.1,36.15,79.4z M56.15,79.4V60.7h14.1v18.7c0,2.1,0.9,3,3,3h13.1c2.1,0,3-0.9,3-3V24.8c0-2.1-0.9-3-3-3h-13.1
		c-2.1,0-3,0.9-3,3v18.3h-14.1V24.8c0-2.1-0.9-3-3-3h-13.1c-2.1,0-3,0.9-3,3v54.6c0,2.1,0.9,3,3,3h13
		C55.15,82.4,56.15,81.5,56.15,79.4z M46.05,29.4h0.8v22.3h32.3V29.4h0.8v45.4h-0.8V52.5h-32.3v22.3h-0.8
		C46.05,74.8,46.05,29.4,46.05,29.4z"/>
	<path class="st5" d="M153.15,66.5c0,10.6-4.9,18-27,18s-27-7.4-27-18V37.8c0-10.6,5-18.1,27-18.1s27,7.5,27,18.1V66.5z
		 M152.35,37.8c0-10.3-5.1-17.3-26.1-17.3s-26.2,7-26.2,17.3v28.7c0,10.3,5.1,17.2,26.2,17.2s26.1-6.9,26.1-17.2V37.8z M126.05,75.9
		c-13.2,0-16.9-4.5-16.9-11.4V39.7c0-6.8,3.7-11.4,16.9-11.4s17.1,4.5,17.1,11.4v24.9C143.15,71.4,139.25,75.9,126.05,75.9z
		 M126.05,75.1c12.6,0,16.3-4.2,16.3-10.5V39.7c0-6.3-3.7-10.5-16.3-10.5s-16.1,4.2-16.1,10.5v24.9
		C109.95,70.9,113.45,75.1,126.05,75.1z M119.15,40.8c0-2.2,1-3.9,7.1-3.9c6.1,0,7.1,1.7,7.1,3.9v22.7c0,2.3-0.9,4-7.1,4
		c-6.1,0-7.1-1.7-7.1-4C119.15,63.5,119.15,40.8,119.15,40.8z M119.95,63.5c0,2,1.4,3.1,6.2,3.1c4.8,0,6.2-1.1,6.2-3.1V40.8
		c0-1.9-1.4-3-6.2-3c-4.7,0-6.2,1.1-6.2,3V63.5z"/>
	<path class="st5" d="M173.75,79.4V38.9h-11.5c-2.7,0-3.9-1.2-3.9-3.9V24.8c0-2.7,1.2-3.9,3.9-3.9h44.5c2.7,0,3.9,1.2,3.9,3.9V35
		c0,2.7-1.2,3.9-3.9,3.9h-11.5v40.5c0,2.7-1.2,3.9-3.9,3.9h-13.6C174.95,83.3,173.75,82.1,173.75,79.4z M194.25,79.4V38h12.4
		c2.1,0,3-0.9,3-3V24.8c0-2.1-0.9-3-3-3h-44.5c-2.1,0-3,0.9-3,3V35c0,2.1,0.9,3,3,3h12.4v41.4c0,2.1,0.9,3,3,3h13.6
		C193.35,82.4,194.25,81.5,194.25,79.4z M184.05,30.2h-17.3v-0.8h35.4v0.8h-17.3v44.6h-0.8L184.05,30.2L184.05,30.2z"/>
	<path class="st5" d="M235.15,79.4V24.8c0-2.7,1.2-3.9,3.9-3.9h37.6c2.7,0,3.9,1.2,3.9,3.9v10c0,2.7-1.2,3.9-3.9,3.9h-20.6v7.1h13.8
		c2.7,0,3.9,1.2,3.9,3.9v10.1c0,2.7-1.2,3.9-3.9,3.9h-13.8v15.8c0,2.7-1.2,3.9-3.9,3.9h-13.1C236.35,83.3,235.15,82.1,235.15,79.4z
		 M255.15,79.4V62.8h14.7c2.1,0,3-0.9,3-3V49.7c0-2.1-0.9-3-3-3h-14.7v-8.8h21.5c2.1,0,3-0.9,3-3V24.8c0-2.1-0.9-3-3-3h-37.6
		c-2.1,0-3,0.9-3,3v54.6c0,2.1,0.9,3,3,3h13.1C254.15,82.4,255.15,81.5,255.15,79.4z M245.15,29.4h26.9v0.8h-26v24.1h19.2v0.8h-19.2
		v19.7h-0.8V29.4H245.15z"/>
	<path class="st5" d="M291.05,83.3c-2.7,0-3.9-1.2-3.9-3.9V24.8c0-2.7,1.2-3.9,3.9-3.9h28.1c13.4,0,17.4,6.1,17.4,14.9v3.9
		c0,4.1-0.9,7.2-3.3,9.2c5.3,1.5,8.8,6,8.8,12.6v17.9c0,2.7-1.2,3.9-3.9,3.9h-13.1c-2.7,0-3.9-1.2-3.9-3.9V66.5
		c0-1.9-0.6-2.8-2.4-2.8h-11v15.7c0,2.7-1.2,3.9-3.9,3.9H291.05z M307.05,79.4V62.9h11.8c2.4,0,3.2,1.1,3.2,3.6v12.9
		c0,2.1,0.9,3,3,3h13.1c2.1,0,3-0.9,3-3V61.5c0-7.1-4-11.5-10.2-12.2c3.5-1.5,4.7-4.9,4.7-9.6v-3.9c0-8.3-4-14.1-16.6-14.1h-28
		c-2.1,0-3,0.9-3,3v54.6c0,2.1,0.9,3,3,3h13C306.15,82.4,307.05,81.5,307.05,79.4z M297.15,74.8V29.4h19.2c6.6,0,9.6,4,9.6,9.6v5.8
		c0,5.1-1,8.5-5.1,9.8h0.9c6.9,0,10.2,3.1,10.2,9v11.2h-0.8V63.6c0-5.6-2.9-8.3-9.4-8.3h-23.8v19.5H297.15z M297.95,30.2v24.3h18.4
		c7,0,8.8-3.5,8.8-9.7v-5.9c0-5.2-2.8-8.8-8.8-8.8h-18.4V30.2z M313.45,36.9c2.9,0,3.7,1.7,3.7,4v2.9c0,2.3-0.8,4-3.7,4h-6.3V36.9
		H313.45z M307.95,37.8v9.1h5.5c2.4,0,2.9-1.3,2.9-3.1v-2.9c0-1.8-0.5-3.1-2.9-3.1C313.45,37.8,307.95,37.8,307.95,37.8z"/>
	<path class="st5" d="M349.85,79.4V24.8c0-2.7,1.2-3.9,3.9-3.9h39.1c2.7,0,3.9,1.2,3.9,3.9v9.9c0,2.7-1.2,3.9-3.9,3.9h-22.4v4.8
		h15.6c2.7,0,3.9,1.2,3.9,3.9v9c0,2.7-1.2,3.9-3.9,3.9h-15.6v5.6h22.4c2.7,0,3.9,1.2,3.9,3.9v9.9c0,2.7-1.2,3.9-3.9,3.9h-39.1
		C350.95,83.3,349.85,82.1,349.85,79.4z M395.85,79.4v-9.9c0-2.1-0.9-3-3-3h-23.3v-7.2h16.4c2.1,0,3-0.9,3-3v-9c0-2.1-0.9-3-3-3
		h-16.4v-6.5h23.3c2.1,0,3-0.9,3-3v-10c0-2.1-0.9-3-3-3h-39.1c-2.1,0-3,0.9-3,3v54.6c0,2.1,0.9,3,3,3h39.1
		C394.85,82.4,395.85,81.5,395.85,79.4z M388.25,74.8h-28.4V29.4h28.4v0.8h-27.5v21.1h20.7v0.8h-20.7v21.8h27.5V74.8z"/>
	<path class="st5" d="M433.85,83.3h-26.6c-2.7,0-3.9-1.2-3.9-3.9v-9.9c0-2.7,1.2-3.9,3.9-3.9h22.7c0.9,0,1.3-0.8,1.3-1.6
		c0-1.3-0.4-1.9-1.4-2l-12.6-1.8c-8.4-1.3-13.8-4.9-13.8-14.8v-8.8c0-10.1,6.7-15.7,18.3-15.7h23.6c2.7,0,3.9,1.2,3.9,3.9v10
		c0,2.7-1.2,3.9-3.9,3.9h-19.6c-0.9,0-1.4,0.8-1.4,1.7c0,1,0.5,1.8,1.5,1.9l12.6,1.7c8.4,1.3,13.9,4.9,13.9,14.8v8.8
		C452.15,77.7,445.35,83.3,433.85,83.3z M451.35,67.6v-8.8c0-9.4-5.2-12.8-13.1-14l-12.6-1.7c-1.4-0.2-2.3-1.2-2.3-2.7
		s0.8-2.5,2.3-2.5h19.6c2.1,0,3-0.9,3-3V24.8c0-2.1-0.9-3-3-3h-23.6c-11,0-17.4,5.2-17.4,14.8v8.8c0,9.4,5.1,12.8,13.1,14l12.6,1.8
		c1.4,0.2,2.2,0.9,2.2,2.9c0,1.3-0.8,2.4-2.2,2.4h-22.7c-2.1,0-3,0.9-3,3v9.9c0,2.1,0.9,3,3,3h26.6
		C444.75,82.4,451.35,77.2,451.35,67.6z M440.75,30.2h-18.7c-4.7,0-7.8,2.9-7.8,6.8v6.9c0,4,1.7,5.1,4.3,5.6l17.8,3.6
		c3.4,0.7,5.8,2.4,5.8,8.3v4.9c0,5-3.6,8.5-9.4,8.5h-21V74h21c5.2,0,8.5-3.2,8.5-7.7v-4.9c0-5.3-2-6.7-5.1-7.4l-17.8-3.6
		c-2.9-0.6-5-1.9-5-6.5V37c0-4.5,3.4-7.7,8.6-7.7h18.7v0.9C440.65,30.2,440.75,30.2,440.75,30.2z"/>
	<path class="st5" d="M459.65,79.4V24.8c0-2.7,1.2-3.9,3.9-3.9h13.1c2.7,0,3.9,1.2,3.9,3.9v17.4h12.4V24.8c0-2.7,1.2-3.9,3.9-3.9
		h13.1c2.7,0,3.9,1.2,3.9,3.9v54.6c0,2.7-1.2,3.9-3.9,3.9h-13.1c-2.7,0-3.9-1.2-3.9-3.9V61.5h-12.4v17.9c0,2.7-1.2,3.9-3.9,3.9
		h-13.1C460.85,83.3,459.65,82.1,459.65,79.4z M479.65,79.4V60.7h14.1v18.7c0,2.1,0.9,3,3,3h13.1c2.1,0,3-0.9,3-3V24.8
		c0-2.1-0.9-3-3-3h-13.1c-2.1,0-3,0.9-3,3v18.3h-14.1V24.8c0-2.1-0.9-3-3-3h-13.1c-2.1,0-3,0.9-3,3v54.6c0,2.1,0.9,3,3,3h13.1
		C478.75,82.4,479.65,81.5,479.65,79.4z M469.65,29.4h0.8v22.3h32.3V29.4h0.8v45.4h-0.8V52.5h-32.3v22.3h-0.8V29.4z"/>
	<path class="st5" d="M542.55,79.4V24.8c0-2.7,1.2-3.9,3.9-3.9h25.8c16.1,0,20.7,7.1,20.7,17.3V49c0,10.2-4.6,17.3-20.7,17.3h-8.8
		v13.1c0,2.7-1.2,3.9-3.9,3.9h-13.1C543.75,83.3,542.55,82.1,542.55,79.4z M562.55,79.4v-14h9.7c15.3,0,19.9-6.7,19.9-16.4V38.2
		c0-9.8-4.5-16.4-19.9-16.4h-25.8c-2.1,0-3,0.9-3,3v54.6c0,2.1,0.9,3,3,3h13.1C561.65,82.4,562.55,81.5,562.55,79.4z M553.65,58.2
		v16.6h-0.8V29.4h18.2c10.6,0,12.6,4.9,12.6,11.5v6.2c0,6.6-2,11.2-12.6,11.2h-17.4V58.2z M571.05,57.4c9.9,0,11.8-4.3,11.8-10.4
		v-6.2c0-6.1-1.9-10.6-11.8-10.6h-17.4v27.2C553.65,57.4,571.05,57.4,571.05,57.4z M569.95,37.5c3.3,0,4,1.9,4,4.1v4.5
		c0,2.2-0.7,4.1-4,4.1h-7.6V37.5H569.95z M563.25,38.4v11h6.7c2.6,0,3.1-1.6,3.1-3.3v-4.5c0-1.7-0.5-3.3-3.1-3.3h-6.7V38.4z"/>
	<path class="st5" d="M598.65,79.4v-10c0-2.7,1.2-3.9,3.9-3.9h7.5V38.9h-7.5c-2.7,0-3.9-1.2-3.9-3.9V24.8c0-2.7,1.2-3.9,3.9-3.9
		h35.9c2.7,0,3.9,1.2,3.9,3.9V35c0,2.7-1.2,3.9-3.9,3.9h-7.3v26.6h7.3c2.7,0,3.9,1.2,3.9,3.9v10c0,2.7-1.2,3.9-3.9,3.9h-35.9
		C599.85,83.3,598.65,82.1,598.65,79.4z M638.45,82.4c2.1,0,3-0.9,3-3v-10c0-2.1-0.9-3-3-3h-8.2V38h8.2c2.1,0,3-0.9,3-3V24.8
		c0-2.1-0.9-3-3-3h-35.9c-2.1,0-3,0.9-3,3V35c0,2.1,0.9,3,3,3h8.3v28.3h-8.3c-2.1,0-3,0.9-3,3v10c0,2.1,0.9,3,3,3h35.9V82.4z
		 M607.15,74.8V74h13.1V30.2h-13.1v-0.8h26.8v0.8h-12.9V74h12.9v0.8H607.15z"/>
	<path class="st5" d="M649.05,79.4V68.1c0-2.4,0.7-4,2.3-5.7l19.4-23.5h-16.3c-2.7,0-3.9-1.2-3.9-3.9V24.8c0-2.7,1.2-3.9,3.9-3.9
		h38.8c2.7,0,3.9,1.2,3.9,3.9v12.6c0,2.5-0.7,4.1-2.3,5.8l-18.4,22.3h18.4c2.7,0,3.9,1.2,3.9,3.9v10c0,2.7-1.2,3.9-3.9,3.9h-41.8
		C650.25,83.3,649.05,82.1,649.05,79.4z M697.75,79.4v-10c0-2.1-0.9-3-3-3h-20.1l19.5-23.7c1.5-1.6,2.1-3,2.1-5.3V24.8
		c0-2.1-0.9-3-3-3h-38.8c-2.1,0-3,0.9-3,3V35c0,2.1,0.9,3,3,3h18l-20.4,24.9c-1.5,1.6-2.1,3-2.1,5.2v11.3c0,2.1,0.9,3,3,3h41.8
		C696.85,82.4,697.75,81.5,697.75,79.4z M661.15,68.3c-0.8,1-1.2,1.5-1.2,2.6v1.2c0,1.6,0.8,1.9,1.8,1.9h28.4v0.8h-28.4
		c-1.9,0-2.6-0.8-2.6-2.8v-1.3c0-1.3,0.6-2.1,1.4-3.1l24.7-31.7c0.8-1,1.2-1.5,1.2-2.6v-1.2c0-1.6-0.8-1.9-1.8-1.9h-25.6v-0.8h25.7
		c1.9,0,2.6,0.8,2.6,2.8v1.3c0,1.3-0.6,2.1-1.4,3.1L661.15,68.3z"/>
	<path class="st5" d="M704.25,79.4V68.1c0-2.4,0.7-4,2.3-5.7l19.4-23.5h-16.3c-2.7,0-3.9-1.2-3.9-3.9V24.8c0-2.7,1.2-3.9,3.9-3.9
		h38.8c2.7,0,3.9,1.2,3.9,3.9v12.6c0,2.5-0.7,4.1-2.3,5.8l-18.4,22.3h18.4c2.7,0,3.9,1.2,3.9,3.9v10c0,2.7-1.2,3.9-3.9,3.9h-41.8
		C705.45,83.3,704.25,82.1,704.25,79.4z M752.95,79.4v-10c0-2.1-0.9-3-3-3h-20.1l19.5-23.7c1.5-1.6,2.1-3,2.1-5.3V24.8
		c0-2.1-0.9-3-3-3h-38.8c-2.1,0-3,0.9-3,3V35c0,2.1,0.9,3,3,3h18l-20.5,24.9c-1.5,1.6-2.1,3-2.1,5.2v11.3c0,2.1,0.9,3,3,3h41.8
		C752.05,82.4,752.95,81.5,752.95,79.4z M716.35,68.3c-0.8,1-1.2,1.5-1.2,2.6v1.2c0,1.6,0.8,1.9,1.8,1.9h28.4v0.8h-28.4
		c-1.9,0-2.6-0.8-2.6-2.8v-1.3c0-1.3,0.6-2.1,1.4-3.1l24.7-31.7c0.8-1,1.2-1.5,1.2-2.6v-1.2c0-1.6-0.8-1.9-1.8-1.9h-25.7v-0.8h25.7
		c1.9,0,2.6,0.8,2.6,2.8v1.3c0,1.3-0.6,2.1-1.4,3.1L716.35,68.3z"/>
	<path class="st5" d="M760.55,79.4V57.2c0-3.5,1-7.8,3.4-13.8l7.3-19c0.8-2.4,2.4-3.4,5.1-3.4h22.7c2.6,0,4.2,1,5,3.3l7.3,19.1
		c2.4,6.1,3.4,10.4,3.4,13.8v22.2c0,2.7-1.2,3.9-3.9,3.9h-12.8c-2.9,0-4.1-1.3-4.1-3.9v-11h-13.2v11c0,2.7-1.2,3.9-3.9,3.9h-12.4
		C761.75,83.3,760.55,82.1,760.55,79.4z M779.85,67.6h14.9v11.8c0,2.1,1,3,3.3,3h12.7c2.1,0,3-0.9,3-3V57.2c0-3.4-1-7.6-3.3-13.5
		l-7.3-19.1c-0.7-1.9-2-2.8-4.2-2.8h-22.7c-2.3,0-3.6,0.8-4.3,2.8l-7.3,19.1c-2.3,5.9-3.3,10.1-3.3,13.5v22.2c0,2.1,0.9,3,3,3h12.4
		c2.1,0,3-0.9,3-3V67.6H779.85z M804.05,60.4h-32.9v14.4h-0.8V56.9c0-3.1,0.5-5.7,1.4-8.2l5.4-13.8c1.3-3.1,2.3-5.6,6.1-5.6h8.3
		c3.7,0,4.7,2.4,6.1,5.6l5.8,13.7c0.9,2.4,1.4,5.1,1.4,8.2v18h-0.8V60.4z M771.15,59.5h32.9v-2.6c0-3-0.5-5.6-1.3-7.8l-5.8-13.7
		c-1.3-2.9-2.2-5.1-5.3-5.1h-8.3c-3.4,0-4.3,2.2-5.4,5.1l-5.4,13.8c-0.8,2.3-1.3,4.8-1.3,7.8v2.5H771.15z M786.25,38h2.1
		c0.7,0,1.2,0.4,1.6,1.4l4,12.8h-13.2l4-12.8C785.05,38.4,785.55,38,786.25,38z M789.15,39.8c-0.3-0.5-0.4-0.9-0.8-0.9h-2.1
		c-0.4,0-0.6,0.4-0.8,0.9l0.1-0.1l-3.6,11.7h10.9L789.15,39.8L789.15,39.8z"/>
</g>
<g>
	<path class="st6" d="M168.55,980.3H42.05c-4,0-5.8-1.8-5.8-5.8V848.1c0-4,1.8-5.8,5.8-5.8h126.5c4,0,5.8,1.8,5.8,5.8v126.5
		C174.35,978.6,172.55,980.3,168.55,980.3z"/>
	<path class="st6" d="M329.15,980.3h-126.5c-4,0-5.8-1.8-5.8-5.8V848.1c0-4,1.8-5.8,5.8-5.8h126.5c4,0,5.8,1.8,5.8,5.8v126.5
		C334.95,978.6,333.15,980.3,329.15,980.3z"/>
	<path class="st6" d="M489.75,980.3h-126.5c-4,0-5.8-1.8-5.8-5.8V848.1c0-4,1.8-5.8,5.8-5.8h126.5c4,0,5.8,1.8,5.8,5.8v126.5
		C495.45,978.6,493.75,980.3,489.75,980.3z"/>
	<path class="st6" d="M650.35,980.3h-126.5c-4,0-5.8-1.8-5.8-5.8V848.1c0-4,1.8-5.8,5.8-5.8h126.5c4,0,5.8,1.8,5.8,5.8v126.5
		C656.05,978.6,654.35,980.3,650.35,980.3z"/>
	<path class="st6" d="M810.95,980.3h-126.5c-4,0-5.8-1.8-5.8-5.8V848.1c0-4,1.8-5.8,5.8-5.8h126.5c4,0,5.8,1.8,5.8,5.8v126.5
		C816.65,978.6,814.95,980.3,810.95,980.3z"/>
	<path class="st4" d="M168.55,979.2H42.05c-3.1,0-4.5-1.4-4.5-4.5V848.2c0-3.1,1.4-4.5,4.5-4.5h126.5c3.1,0,4.5,1.4,4.5,4.5v126.5
		C173.05,977.8,171.65,979.2,168.55,979.2z"/>
	<path class="st4" d="M329.15,979.2h-126.5c-3.1,0-4.5-1.4-4.5-4.5V848.2c0-3.1,1.4-4.5,4.5-4.5h126.5c3.1,0,4.5,1.4,4.5,4.5v126.5
		C333.65,977.8,332.25,979.2,329.15,979.2z"/>
	<path class="st4" d="M489.75,979.2h-126.5c-3.1,0-4.5-1.4-4.5-4.5V848.2c0-3.1,1.4-4.5,4.5-4.5h126.5c3.1,0,4.5,1.4,4.5,4.5v126.5
		C494.25,977.8,492.85,979.2,489.75,979.2z"/>
	<path class="st4" d="M650.35,979.2h-126.5c-3.1,0-4.5-1.4-4.5-4.5V848.2c0-3.1,1.4-4.5,4.5-4.5h126.5c3.1,0,4.5,1.4,4.5,4.5v126.5
		C654.85,977.8,653.45,979.2,650.35,979.2z"/>
	<path class="st4" d="M810.95,979.2h-126.5c-3.1,0-4.5-1.4-4.5-4.5V848.2c0-3.1,1.4-4.5,4.5-4.5h126.5c3.1,0,4.5,1.4,4.5,4.5v126.5
		C815.45,977.8,814.05,979.2,810.95,979.2z"/>
	<path class="st6" d="M40.05,846.3h130.5v130.5H40.05V846.3z M169.25,847.5h-128v128h128V847.5z"/>
	<path class="st6" d="M200.65,846.3h130.5v130.5h-130.5V846.3z M329.85,847.5h-128v128h128V847.5z"/>
	<path class="st6" d="M361.25,846.3h130.5v130.5h-130.5V846.3z M490.45,847.5h-128v128h128V847.5z"/>
	<path class="st6" d="M521.85,846.3h130.5v130.5h-130.5V846.3z M651.05,847.5h-128v128h128V847.5z"/>
	<path class="st6" d="M682.45,846.3h130.5v130.5h-130.5V846.3z M811.65,847.5h-128v128h128V847.5z"/>
	<path class="st6" d="M79.45,956.8h-14.7c-3.1,0-4.5-1.4-4.5-4.5v-62.1c0-15.3,6-25.6,25-25.6c9.4,0,15.3,2.3,18.7,6.3
		c3.5-4,9.4-6.3,18.8-6.3c18.9,0,25,10.3,25,25.6v62.1c0,3.1-1.4,4.5-4.5,4.5h-14.7c-3.3,0-4.5-1.4-4.5-4.5v-58.1c0-3.4-0.9-5-4.1-5
		c-3.3,0-4,1.6-4,5v58.1c0,3.1-1.4,4.5-4.5,4.5h-14.7c-3.1,0-4.5-1.4-4.5-4.5v-58.1c0-3.4-0.8-5-4-5s-4.1,1.6-4.1,5v58.1
		C83.95,955.4,82.75,956.8,79.45,956.8z M88.25,877.5c11.8,0,15.2,6.3,15.2,15.7v52.3h1.3v-52.3c0-9.4,3.4-15.7,15.3-15.7
		c11.8,0,15.2,6.3,15.2,15.7v52.3h1.3v-52.3c0-10.2-3.6-16.9-16.4-16.9c-10.2,0-14.6,4.3-15.9,11.2c-1.4-6.9-5.6-11.2-15.8-11.2
		c-12.8,0-16.7,6.8-16.7,16.9v52.3h1.3v-52.3C72.85,883.8,76.45,877.5,88.25,877.5z"/>
	<path class="st6" d="M264.65,958.7c-30.7,0-38.1-10.3-38.1-25.6v-42.8c0-15.3,7.4-25.7,38.1-25.7s38.1,10.4,38.1,25.7v42.8
		C302.75,948.4,295.35,958.7,264.65,958.7z M289.25,893.2c0-10.2-5.6-16.9-24.7-16.9s-24.3,6.8-24.3,16.9v37
		c0,10.2,5.3,16.9,24.3,16.9s24.7-6.8,24.7-16.9V893.2z M241.45,893.2c0-9.4,5-15.7,23.1-15.7s23.5,6.3,23.5,15.7v37
		c0,9.4-5.4,15.7-23.5,15.7s-23.1-6.3-23.1-15.7L241.45,893.2L241.45,893.2z M264.65,934.4c8.4,0,9.8-2.5,9.8-5.9v-33.7
		c0-3.3-1.4-5.8-9.8-5.8c-8.3,0-9.7,2.5-9.7,5.8v33.7C254.95,931.9,256.35,934.4,264.65,934.4z"/>
	<path class="st6" d="M414.75,956.8c-3.1,0-4.5-1.4-4.5-4.5v-61.6h-18.1c-3.1,0-4.5-1.4-4.5-4.5V871c0-3.1,1.4-4.5,4.5-4.5h66.2
		c3.1,0,4.5,1.4,4.5,4.5v15.2c0,3.1-1.4,4.5-4.5,4.5h-18.1v61.6c0,3.1-1.4,4.5-4.5,4.5H414.75z M425.85,945.5V879h25.7v-1.3h-52.7
		v1.3h25.7v66.5H425.85z"/>
	<path class="st6" d="M552.85,956.8c-3.1,0-4.5-1.4-4.5-4.5V871c0-3.1,1.4-4.5,4.5-4.5h65c3.1,0,4.5,1.4,4.5,4.5v14.7
		c0,3.1-1.4,4.5-4.5,4.5h-41.4v9.7h31.2c3.1,0,4.5,1.3,4.5,4.5v13.4c0,3.1-1.4,4.5-4.5,4.5h-31.2v10.8h41.4c3.1,0,4.5,1.4,4.5,4.5
		v14.7c0,3.1-1.4,4.5-4.5,4.5L552.85,956.8L552.85,956.8z M563.05,944.2v-32.5h37.9v-1.3h-37.9v-31.5h48.1v-1.3h-49.3v67.7h49.3V944
		h-48.1V944.2z"/>
	<path class="st6" d="M737.35,871v61.6h41c3.1,0,4.5,1.4,4.5,4.5v15.2c0,3.1-1.4,4.5-4.5,4.5h-65c-3.1,0-4.5-1.4-4.5-4.5V871
		c0-3.1,1.4-4.5,4.5-4.5h19.4C736.05,866.4,737.35,867.8,737.35,871z M771.65,945.5v-1.3h-47.8v-66.5h-1.3v67.7h49.1V945.5z"/>
</g>
<g>
	<path class="st10" d="M64.65,801.5c-23.9,0-29.8-7.9-29.8-19.5v-32.7c0-11.7,5.8-19.6,29.8-19.6c23.9,0,29.7,7.9,29.7,19.6V782
		C94.35,793.6,88.55,801.5,64.65,801.5z M64.65,783c7,0,8-1.9,8-4.5v-25.7c0-2.5-1.1-4.4-8-4.4s-8,1.9-8,4.4v25.8
		C56.55,781.1,57.75,783,64.65,783z"/>
	<path class="st10" d="M109.95,800.1c-2.4,0-3.4-1.1-3.4-3.4v-62c0-2.4,1.1-3.4,3.4-3.4h29.3c17.4,0,22.6,7.6,22.6,18.7v12.3
		c0,11.1-5.2,18.7-22.6,18.7h-11v15.9c0,2.4-1.1,3.4-3.4,3.4h-14.9V800.1z M128.05,763.5h8.6c3.7,0,4.5-2.2,4.5-4.7v-5.1
		c0-2.5-0.8-4.7-4.5-4.7h-8.6V763.5z"/>
	<path class="st10" d="M175.25,800.1c-2.4,0-3.4-1.1-3.4-3.4v-62c0-2.4,1.1-3.4,3.4-3.4h44.4c2.4,0,3.4,1.1,3.4,3.4v11.1
		c0,2.4-1.1,3.4-3.4,3.4h-26.4v7.4h18.7c2.4,0,3.4,1.1,3.4,3.4v10.2c0,2.4-1.1,3.4-3.4,3.4h-18.7v8.2h26.4c2.4,0,3.4,1.1,3.4,3.4
		v11.2c0,2.4-1.1,3.4-3.4,3.4h-44.4V800.1z"/>
	<path class="st10" d="M237.85,800.1c-2.4,0-3.4-1.1-3.4-3.4v-62c0-2.4,1.1-3.4,3.4-3.4h10c2.5,0,4,0.7,5.6,2.6l18.6,21.3v-20.4
		c0-2.4,1.1-3.4,3.4-3.4h14.4c2.4,0,3.4,1.1,3.4,3.4v62c0,2.4-1.1,3.4-3.4,3.4h-14.4c-2.4,0-3.4-1.1-3.4-3.4v-12l-16.4-19.8v31.6
		c0,2.4-1.1,3.4-3.4,3.4h-14.4L237.85,800.1L237.85,800.1z"/>
	<path class="st10" d="M328.75,800.1c-2.4,0-3.4-1.1-3.4-3.4v-16.5c0-14.8,6.2-18.3,15-21l12.8-4c2-0.6,2.6-1.3,2.6-3.4
		c0-1.9-0.7-2.5-2.6-2.5h-20.8c-2.4,0-3.4-1.1-3.4-3.4v-11.2c0-2.4,1.1-3.4,3.4-3.4h28.2c10.9,0,16.9,5.6,16.9,15.9v9
		c0,9.7-5.6,14.1-14.9,16.9l-13,4.1c-1.9,0.6-2.5,0.8-2.5,2.9v2h27.3c2.4,0,3.4,1.1,3.4,3.4v11.2c0,2.4-1.1,3.4-3.4,3.4H328.75z"/>
	<path class="st10" d="M405.55,784.1c-12.4,0-17.4-5-17.4-15.9v-33.6c0-2.4,1.1-3.4,3.4-3.4h14.8c2.4,0,3.4,1.1,3.4,3.4v26.2
		c0,2,1.1,3.3,3,3.3h8.9v-29.5c0-2.4,1.1-3.4,3.4-3.4h14.7c2.4,0,3.4,1.1,3.4,3.4v62c0,2.4-1.1,3.4-3.4,3.4h-14.7
		c-2.4,0-3.4-1.1-3.4-3.4v-12.5H405.55z"/>
	<path class="st10" d="M481.65,800.1c-2.4,0-3.4-1.1-3.4-3.4v-62c0-2.4,1.1-3.4,3.4-3.4h14.8c2.4,0,3.4,1.1,3.4,3.4v20.8h16v-20.8
		c0-2.4,1.1-3.4,3.4-3.4h14.8c2.4,0,3.4,1.1,3.4,3.4v62c0,2.4-1.1,3.4-3.4,3.4h-14.8c-2.4,0-3.4-1.1-3.4-3.4v-21.3h-16v21.3
		c0,2.4-1.1,3.4-3.4,3.4H481.65z"/>
	<path class="st10" d="M579.55,801.5c-23.9,0-29.8-7.9-29.8-19.5v-32.7c0-11.7,5.8-19.6,29.8-19.6c23.9,0,29.7,7.9,29.7,19.6V782
		C609.25,793.6,603.45,801.5,579.55,801.5z M579.55,783c7,0,8-1.9,8-4.5v-25.7c0-2.5-1.1-4.4-8-4.4s-8,1.9-8,4.4v25.8
		C571.55,781.1,572.65,783,579.55,783z"/>
	<path class="st10" d="M650.55,801.5c-23.7,0-29.6-7.9-29.6-19.5v-47.4c0-2.4,1.1-3.4,3.4-3.4h15c2.4,0,3.4,1.1,3.4,3.4v43.7
		c0,2.6,1.1,4.5,7.9,4.5s7.9-1.9,7.9-4.5v-43.7c0-2.4,1-3.4,3.4-3.4h14.6c2.4,0,3.4,1.1,3.4,3.4V782
		C680.05,793.6,674.25,801.5,650.55,801.5z"/>
	<path class="st10" d="M696.25,800.1c-2.4,0-3.4-1.1-3.4-3.4v-62c0-2.4,1.1-3.4,3.4-3.4h31.9c14.4,0,18.9,6.5,18.9,16v4.4
		c0,5.4-1.3,9.2-5.4,10.9c7,0.8,11.6,5.8,11.6,13.9v20.3c0,2.4-1.1,3.4-3.4,3.4h-14.8c-2.4,0-3.4-1.1-3.4-3.4v-14.7
		c0-2.9-1-4.1-3.6-4.1h-13.4v18.8c0,2.4-1.1,3.4-3.4,3.4h-15L696.25,800.1L696.25,800.1z M714.45,760.6h7.2c3.4,0,4.2-1.9,4.2-4.5
		v-3.3c0-2.6-0.9-4.5-4.2-4.5h-7.2V760.6z"/>
	<path class="st10" d="M765.65,800.1c-2.4,0-3.4-1.1-3.4-3.4v-11.2c0-2.4,1.1-3.4,3.4-3.4h25.8c1.6,0,2.5-1.2,2.5-2.8
		c0-2.2-0.9-3.1-2.5-3.3l-14.4-2c-9-1.3-14.8-5.2-14.8-15.9V748c0-10.9,7.4-16.9,19.8-16.9h26.8c2.4,0,3.4,1.1,3.4,3.4v11.4
		c0,2.4-1.1,3.4-3.4,3.4h-22.3c-1.6,0-2.6,1.2-2.6,2.9s1,2.9,2.6,3.1l14.3,1.9c9,1.3,14.9,5.2,14.9,15.9v10.1
		c0,10.9-7.5,16.9-19.8,16.9L765.65,800.1L765.65,800.1z"/>
	<path class="st11" d="M64.45,792.7c-15,0-19.2-5.2-19.2-12.9v-28.2c0-7.8,4.2-12.9,19.2-12.9s19.4,5.2,19.4,12.9v28.2
		C83.85,787.5,79.45,792.7,64.45,792.7z M64.45,791.7c14.3,0,18.5-4.8,18.5-12v-28.2c0-7.2-4.2-12-18.5-12s-18.3,4.8-18.3,12v28.3
		C46.15,786.9,50.15,791.7,64.45,791.7z"/>
	<path class="st11" d="M118.15,772.6v18.9h-1v-51.7h20.7c12.1,0,14.4,5.6,14.4,13v7.1c0,7.5-2.3,12.7-14.4,12.7H118.15z
		 M137.85,771.6c11.3,0,13.4-4.9,13.4-11.8v-7c0-6.9-2.1-12.1-13.4-12.1h-19.7v30.9L137.85,771.6L137.85,771.6z"/>
	<path class="st11" d="M214.45,791.4h-32.3v-51.7h32.3v1h-31.3v24h23.6v1h-23.6v24.8h31.3V791.4L214.45,791.4z"/>
	<path class="st11" d="M282.25,780.1v-40.4h1v51.7h-1v-9.9l-36.2-40.6c-0.2-0.2-0.3-0.3-0.5-0.3s-0.2,0.2-0.2,0.3v50.5h-1v-50.6
		c0-0.8,0.6-1.1,1.1-1.1c0.6,0,0.8,0.2,1.4,0.9L282.25,780.1z"/>
	<path class="st11" d="M363.25,761.3c1.6-0.7,2.8-2.1,2.8-4.5v-8.7c0-5.8-3.5-7.4-9.3-7.4h-19.2v-1h19.2c6.5,0,10.2,1.9,10.2,8.3
		v8.7c0,3-1.3,4.5-3.4,5.4l-22.3,7.4c-3.6,1.2-4.8,2.7-4.8,7v14h32.6v1h-33.4v-14.9c0-4.7,1.3-6.5,5.3-7.9L363.25,761.3z"/>
	<path class="st11" d="M432.15,774.5h-22.9c-7.4,0-10.6-3.4-10.6-10.1v-24.7h1v24.7c0,6.1,3.1,9.1,9.7,9.1h22.9v-33.8h1v51.7h-1
		v-16.9H432.15z"/>
	<path class="st11" d="M488.45,739.7h1v25.4h36.8v-25.4h1v51.7h-1V766h-36.8v25.4h-1V739.7z"/>
	<path class="st11" d="M579.35,792.7c-15,0-19.2-5.2-19.2-12.9v-28.2c0-7.8,4.2-12.9,19.2-12.9s19.4,5.2,19.4,12.9v28.2
		C598.75,787.5,594.35,792.7,579.35,792.7z M579.35,791.7c14.3,0,18.5-4.8,18.5-12v-28.2c0-7.2-4.2-12-18.5-12s-18.3,4.8-18.3,12
		v28.3C561.05,786.9,565.05,791.7,579.35,791.7z"/>
	<path class="st11" d="M632.45,739.7v39.9c0,7.2,3.9,12,18.2,12s18.3-4.8,18.3-12v-39.9h1v39.9c0,7.8-4.2,12.9-19.2,12.9
		s-19.2-5.2-19.2-12.9v-39.9H632.45z"/>
	<path class="st11" d="M703.15,791.4v-51.7h21.8c7.5,0,10.9,4.6,10.9,10.9v6.6c0,5.8-1.1,9.7-5.7,11.1h1.1c7.9,0,11.6,3.5,11.6,10.2
		v12.8h-1v-12.8c0-6.3-3.4-9.4-10.6-9.4h-27.1v22.2h-1V791.4z M704.15,740.7v27.7h20.9c7.9,0,10-3.9,10-11v-6.7c0-5.9-3.2-10-10-10
		H704.15z"/>
	<path class="st11" d="M803.65,740.7h-21.3c-5.4,0-8.8,3.3-8.8,7.8v7.9c0,4.5,1.9,5.8,4.9,6.4l20.2,4.1c3.8,0.8,6.6,2.7,6.6,9.4v5.6
		c0,5.7-4.1,9.7-10.6,9.7h-23.8v-1h23.8c5.9,0,9.7-3.6,9.7-8.7v-5.6c0-6-2.3-7.7-5.8-8.4l-20.2-4.1c-3.4-0.7-5.6-2.1-5.6-7.4v-7.9
		c0-5.1,3.8-8.7,9.8-8.7h21.3v0.9H803.65z"/>
</g>
</svg>
