<?xml version="1.0" encoding="utf-8"?>
<!-- Generator: Adobe Illustrator 17.1.0, SVG Export Plug-In . SVG Version: 6.00 Build 0)  -->
<!DOCTYPE svg PUBLIC "-//W3C//DTD SVG 1.1//EN" "http://www.w3.org/Graphics/SVG/1.1/DTD/svg11.dtd">
<svg version="1.1" id="Layer_1" xmlns="http://www.w3.org/2000/svg" xmlns:xlink="http://www.w3.org/1999/xlink" x="0px" y="0px"
	 viewBox="0 0 620 800" enable-background="new 0 0 620 800" xml:space="preserve">
<g>
	<g>
		<path fill="#265560" d="M428.9,110.2h-92.5c-2.3,0-3.3-1-3.3-3.3V14.4c0-2.3,1-3.3,3.3-3.3h92.5c2.3,0,3.3,1,3.3,3.3v92.5
			C432.2,109.2,431.2,110.2,428.9,110.2z"/>
		<path fill="#265560" d="M428.9,224.8h-92.5c-2.3,0-3.3-1-3.3-3.3v-92.5c0-2.3,1-3.3,3.3-3.3h92.5c2.3,0,3.3,1,3.3,3.3v92.5
			C432.2,223.8,431.2,224.8,428.9,224.8z"/>
		<path fill="#265560" d="M428.9,339.5h-92.5c-2.3,0-3.3-1-3.3-3.3v-92.5c0-2.3,1-3.3,3.3-3.3h92.5c2.3,0,3.3,1,3.3,3.3v92.5
			C432.2,338.5,431.2,339.5,428.9,339.5z"/>
		<path fill="#265560" d="M428.9,454.2h-92.5c-2.3,0-3.3-1-3.3-3.3v-92.5c0-2.3,1-3.3,3.3-3.3h92.5c2.3,0,3.3,1,3.3,3.3v92.5
			C432.2,453.2,431.2,454.2,428.9,454.2z"/>
		<path fill="#265560" d="M428.9,568.8h-92.5c-2.3,0-3.3-1-3.3-3.3V473c0-2.3,1-3.3,3.3-3.3h92.5c2.3,0,3.3,1,3.3,3.3v92.5
			C432.2,567.8,431.2,568.8,428.9,568.8z"/>
	</g>
	<g>
		<path fill="#FFFFFF" d="M359.5,91.1c-2,0-2.9-0.9-2.9-2.9l0.3-52.4c0-2,0.9-2.9,2.9-2.9h10.6c2.1,0,4.2,0.6,5.3,2.4l5.7,14.2h1.9
			l6.3-14.2c1.1-1.8,2.4-2.4,4.5-2.4h11.3c2.1,0,2.9,0.9,2.9,2.9l0.3,52.4c0,2-0.8,2.9-2.9,2.9h-12.2c-2,0-2.9-0.9-2.9-2.9
			l-0.3-23.7v-3.4l-3.1,8.9c-1,1.9-2.2,2.6-4.3,2.6h-2.2c-2.1,0-3.2-0.7-4.3-2.6l-3.2-8.9v3.4l-0.2,23.7c0,2-0.9,2.9-2.9,2.9H359.5z
			"/>
	</g>
	<g>
		<path fill="#FFFFFF" d="M382.6,204.3c-19.8,0-24.6-6.6-24.6-16.5v-27.5c0-9.9,4.8-16.6,24.6-16.6c19.8,0,24.6,6.7,24.6,16.6v27.5
			C407.2,197.6,402.4,204.3,382.6,204.3z M382.6,188.7c5.4,0,6.3-1.6,6.3-3.8v-21.7c0-2.1-0.9-3.7-6.3-3.7c-5.3,0-6.2,1.6-6.2,3.7
			v21.7C376.4,187.1,377.3,188.7,382.6,188.7z"/>
	</g>
	<g>
		<path fill="#FFFFFF" d="M375.8,318.5c-2,0-2.9-0.9-2.9-2.9v-39.7h-11.6c-2,0-2.9-0.9-2.9-2.9v-9.8c0-2,0.9-2.9,2.9-2.9H404
			c2,0,2.9,0.9,2.9,2.9v9.8c0,2-0.9,2.9-2.9,2.9h-11.6v39.7c0,2-0.9,2.9-2.9,2.9H375.8z"/>
	</g>
	<g>
		<path fill="#FFFFFF" d="M361.3,431c-2,0-2.9-0.9-2.9-2.9v-52.4c0-2,0.9-2.9,2.9-2.9h41.9c2,0,2.9,0.9,2.9,2.9v9.5
			c0,2-0.9,2.9-2.9,2.9h-26.4v6.2h19.9c2,0,2.9,0.8,2.9,2.9v8.6c0,2-0.9,2.9-2.9,2.9h-19.9v6.9h26.4c2,0,2.9,0.9,2.9,2.9v9.5
			c0,2-0.9,2.9-2.9,2.9H361.3z"/>
	</g>
	<g>
		<path fill="#FFFFFF" d="M361.3,546.8c-2,0-2.9-0.9-2.9-2.9v-52.4c0-2,0.9-2.9,2.9-2.9h12.5c2,0,2.9,0.9,2.9,2.9v40h12.6v-13.1
			c0-2,0.9-2.9,2.9-2.9H404c2,0,2.9,0.9,2.9,2.9v25.4c0,2-0.9,2.9-2.9,2.9H361.3z"/>
	</g>
</g>
<g>
	<path fill="#265560" d="M114.9,109.1H31.6c-2.3,0-3.3-1-3.3-3.3V13.3c0-2.3,1-3.3,3.3-3.3h101.7c2.3,0,3.8,1,3.3,3.3l-18.4,92.5
		C117.8,108.1,117.2,109.1,114.9,109.1z"/>
	<path fill="#26839C" d="M114.9,217.3H31.6c-2.3,0-3.3-1-3.3-3.3v-92.5c0-2.3,1-3.3,3.3-3.3h101.7c2.3,0,3.8,1,3.3,3.3L118.2,214
		C117.8,216.3,117.2,217.3,114.9,217.3z"/>
	<path fill="#265560" d="M114.9,325.6H31.6c-2.3,0-3.3-1-3.3-3.3v-92.5c0-2.3,1-3.3,3.3-3.3h101.7c2.3,0,3.8,1,3.3,3.3l-18.4,92.5
		C117.8,324.6,117.2,325.6,114.9,325.6z"/>
	<path fill="#26839C" d="M114.9,433.8H31.6c-2.3,0-3.3-1-3.3-3.3V338c0-2.3,1-3.3,3.3-3.3h101.7c2.3,0,3.8,1,3.3,3.3l-18.4,92.5
		C117.8,432.8,117.2,433.8,114.9,433.8z"/>
	<path fill="#265560" d="M114.9,542H31.6c-2.3,0-3.3-1-3.3-3.3v-92.5c0-2.3,1-3.3,3.3-3.3h101.7c2.3,0,3.8,1,3.3,3.3l-18.4,92.5
		C117.8,541,117.2,542,114.9,542z"/>
	<path fill="#26839C" d="M114.9,650.3H31.6c-2.3,0-3.3-1-3.3-3.3v-92.5c0-2.3,1-3.3,3.3-3.3h101.7c2.3,0,3.8,1,3.3,3.3L118.2,647
		C117.8,649.3,117.2,650.3,114.9,650.3z"/>
	<g>
		<path fill="#FFFFFF" d="M103.1,62.6v25c0,1.6-0.7,2.4-2.5,2.4h-8.5c-1.8,0-2.7-0.8-2.5-2.4v-21c0-3.6-1.8-4.9-5.4-4.9h-5.3
			l3.3,12.8c0.2,1.6-2.4,2.7-4.2,1.5L51.8,58.4c-1.5-0.9-2.4-1.9-2.4-3.5s1-2.6,2.4-3.4L78,33.9c1.8-1.2,4.4-0.1,4.2,1.5l-3.3,12.8
			h6.6C99.1,48.2,103.1,54,103.1,62.6z"/>
	</g>
	<g>
		<path fill="#FFFFFF" d="M78.5,198.8l-24.6-24.6c-1.5-1.5-1.5-2.9-0.1-4.3l4-4c1.4-1.4,2.9-1.4,4.2-0.1l2.1,2.1l8.5-12.4
			c0.7-1.1,2-2.3,3.2-3.5L93,137.2c1.5-1.3,3-1.2,4.4,0.2l1.6,1.6c1.5,1.5,1.5,3-0.2,4.6l-8.1,8.1c0.3,0.1,0.6,0.3,1,0.6l1.9,1.9
			c1.2,1.1,1.5,2.4,0.5,3.8c0.6,0.1,1,0.3,1.5,0.7l2.1,2.1c1.2,1.1,1.4,2.3,0.6,3.6c0.6,0.1,1.1,0.4,1.5,0.8l2.2,2.2
			c1.2,1.3,1.1,3.2,0,4.4l-12.1,13.2c-1.2,1.2-2.7,1.9-3.6,2.2l-2.1,0.6l2.7,2.7c1.2,1.2,1.3,2.7-0.1,4.1l-4,4.1
			C81.4,200.2,79.9,200.2,78.5,198.8z M85.6,191.7L61,167c-0.6-0.6-1.4-0.6-2,0l-1.7,1.8c-0.6,0.6-0.6,1.3,0,1.9l24.6,24.6
			c0.6,0.6,1.5,0.6,2,0.1l1.8-1.8C86.3,193,86.3,192.2,85.6,191.7z M85.8,185.7c0.7-0.2,1.9-0.7,2.8-1.7l12.1-13.2
			c0.6-0.6,0.6-1.5,0-2.1l-2.1-2.1c-0.5-0.5-1.1-0.8-1.7-0.2v-0.1l-4,4.8l-1.1-1.2l4.6-5.4c0.8-0.8,0.9-1.5,0.2-2.3l-1.9-1.9
			c-0.7-0.7-1.4-0.8-1.9-0.3l-4.1,4.8l-1.1-1.1l4.9-5.7c0.7-0.8,0.8-1.5,0.1-2.3l-1.8-1.9c-0.6-0.6-1.2-0.7-1.8,0v-0.1l-4.8,4.8
			l-1.1-1.1l14.6-14.6c0.8-0.8,0.9-1.6,0.2-2.3l-1.6-1.6c-0.8-0.8-1.6-0.6-2.3-0.1L77,153.4c-1.1,1-2.3,2.2-2.9,3l-8.6,12.8
			l17.5,17.5L85.8,185.7z"/>
	</g>
	<g>
		<path fill="#FFFFFF" d="M86.4,296.9l-9.1-10.3l-9.4,9.4c-1.2,1.2-3.6,0.2-4-1.9l-6.1-31.6c-0.3-1.7-0.3-3.1,0.8-4.2
			c1.2-1.2,2.6-1.2,4.3-0.9l31.6,6.1c2,0.4,3.1,2.8,1.9,4l-9.4,9.4l10.3,9.1c1.3,1.1,1.1,2.3-0.1,3.5l-7.2,7.3
			C88.8,298,87.6,298.2,86.4,296.9z"/>
	</g>
	<g>
		<path fill="#FFFFFF" d="M65.4,407.9l-3.4-0.8c-1.4-0.3-2.1-1.3-1.9-2.9l1.1-7c0.3-2.3,0.8-4.3,0.6-6.5l-0.4-5.3l-4.2,4.2
			c-1.1,1.2-2.7,1.4-4.1,0l-4-4.1c-1.4-1.4-1.4-2.8,0-4.3l20-20c1.5-1.5,2.9-1.4,4.3,0l4,4c1.4,1.4,1.4,2.8,0.1,4.2l-2.3,2.3
			l11.4,4.4c2.3,1,3.8,2.4,5.1,4.1l15.3,20.4c1.1,1.4,0.6,2.5-0.5,3.5l-2.1,2.2c-0.9,0.9-2.3,1.1-3.2,0.2l-12.8-11.8l-5.6,5.6
			c-1.7,1.8-3.6,2.7-6.3,1.8l-5.5-1.9l-2.4,5.4C67.8,407.2,66.9,408.2,65.4,407.9z M56.4,388.4l20-20c0.6-0.6,0.6-1.3,0-1.9
			l-1.8-1.8c-0.6-0.6-1.3-0.6-1.9,0l-20,20c-0.6,0.6-0.6,1.5-0.1,2l1.9,1.9C55,389.1,55.7,389,56.4,388.4z M67.1,405l4.2-9.2
			c1-2.4,2-3.8,4.3-4.8l4.4-1.9c1.8-0.8,3.7-0.7,5.3,0.8l16.3,15c0.6,0.6,1.4,0.6,1.9,0.1l1.8-1.8c0.6-0.6,0.6-1.2,0.2-1.7
			l-15.3-20.4c-1.1-1.5-2.3-2.6-4.2-3.4L74,373.1l-10.9,10.8l0.5,6.5c0.2,2.3-0.2,4.5-0.6,7l-1.1,6.9c-0.2,0.6,0.2,1,0.6,1.1l3,0.8
			C66.1,406.4,66.7,406,67.1,405z M81.5,399.3l5.7-5.7l-2.8-2.6c-1.2-1-2.4-1.2-3.8-0.6L77,392c-0.1,0.5,0.3,1.1,1.1,2l-0.2,0.2
			c-1-0.9-2-1.3-2.8-1.2c-1,0.8-1.6,1.8-2.3,3.3l-1.1,2.3l5.3,1.9C78.8,401.2,80.3,400.5,81.5,399.3z"/>
	</g>
	<g>
		<path fill="#FFFFFF" d="M69.2,506.8c-0.8,0-1.8-0.6-1.8-1.5v-3.8c0-0.7,0.5-1.5,1.3-1.4l6.6,0.5v-0.8l-7.7-0.6
			c-1.1-0.1-1.9-0.5-1.9-1.5v-3.6c0-1,0.6-1.6,1.5-1.5l6.7,0.5v-0.8l-8.1-0.6c-1.1-0.1-1.9-0.5-1.9-1.5v-3.4c0-0.9,0.6-1.3,1.5-1.3
			h7.3v-0.8H51.4c-1.1,0-2-0.5-2-1.5v-3.9c0-1.1,1-1.6,1.8-1.7l23.2-1.6c1.5-0.1,3.2-0.1,4.2,0.1l15.1,2.9v26.3l-2.7,1.5
			c-0.6,0.4-1.9,0.8-3.2,0.8L69.2,506.8z M94.4,510.8v-36.4c0-1,0.6-1.5,1.4-1.5h7.4c0.8,0,1.4,0.5,1.4,1.5v36.4
			c0,0.9-0.6,1.5-1.4,1.5h-7.4C95,512.3,94.4,511.7,94.4,510.8z"/>
	</g>
	<g>
		<path fill="#FFFFFF" d="M88.1,629c-2,0-3.1-1.1-3.1-3.4v-11.3c-0.3,0.1-0.7,0.2-1.1,0.2h-2.7c-1.7,0-2.7-0.7-3.1-2.3
			c-0.4,0.3-0.9,0.5-1.5,0.5h-3c-1.6,0-2.6-0.6-3-2.1c-0.4,0.3-1,0.4-1.5,0.4H66c-1.8,0-3.1-1.4-3.2-3.1l-0.7-17.9
			c0-1.7,0.6-3.2,1-4l1.1-1.9h-3.8c-1.8,0-2.9-1-2.9-3v-5.7c0-1.9,1-3,3.1-3h34.7c2.2,0,3.1,1,3.1,3v5.7c0,1.9-1.1,3-2.9,3h-3
			l2.7,14.8c0.2,1.2,0.2,3.1,0.2,4.7l-1.6,22.6c-0.1,1.9-1.2,3-3.3,3H88.1z M60.5,582.3h34.7c1,0,1.5-0.6,1.5-1.4v-2.5
			c0-0.8-0.5-1.4-1.5-1.4H60.5c-0.9,0-1.5,0.6-1.5,1.4v2.5C59,581.8,59.6,582.3,60.5,582.3z M90.4,627.4c1.1,0,1.6-0.7,1.7-1.5
			l1.6-22.6c0.1-1.5,0.1-3.2-0.1-4.2L90.7,584H66l-1.5,2.7c-0.4,0.6-0.8,1.9-0.8,3.2l0.8,17.9c0,0.8,0.6,1.5,1.5,1.5h3
			c0.7,0,1.4-0.2,1.4-1l-0.5-6.1h1.6l0.6,7.1c0.1,1.1,0.5,1.7,1.5,1.7h2.7c1,0,1.5-0.4,1.5-1.2l-0.5-6.1H79l0.6,7.5
			c0.1,1.1,0.5,1.7,1.5,1.7h2.6c0.9,0,1.4-0.3,1.3-1.2V605h1.6v20.7c0,1.1,0.5,1.8,1.5,1.8H90.4z"/>
	</g>
</g>
<g>
	<g>
		<path fill="#26839C" d="M199,10.8h64.1c31.1,24.9,30.5,79.7,0,104.6H199C168.2,89.8,168.2,36.4,199,10.8z"/>
		<path fill="#26839C" d="M199,106.8h64.1c31.1,24.9,30.5,79.7,0,104.6H199C168.2,185.9,168.2,132.4,199,106.8z"/>
		<path fill="#26839C" d="M199,202.8h64.1c31.1,24.9,30.5,79.7,0,104.6H199C168.2,281.9,168.2,228.4,199,202.8z"/>
		<path fill="#26839C" d="M199,298.9h64.1c31.1,24.9,30.5,79.7,0,104.6H199C168.2,377.9,168.2,324.4,199,298.9z"/>
		<path fill="#26839C" d="M199,394.9h64.1c31.1,24.9,30.5,79.7,0,104.6H199C168.2,473.9,168.2,420.5,199,394.9z"/>
		<path fill="#26839C" d="M199,490.9h64.1c31.1,24.9,30.5,79.7,0,104.6H199C168.2,569.9,168.2,516.5,199,490.9z"/>
	</g>
	<g>
		<path fill="#FFFFFF" d="M232.3,189.8c-19.8,0-24.6-6.6-24.6-16.5v-27.5c0-9.9,4.8-16.6,24.6-16.6c19.8,0,24.6,6.7,24.6,16.6v27.5
			C256.8,183.2,252.1,189.8,232.3,189.8z M232.3,174.2c5.4,0,6.3-1.6,6.3-3.8v-21.7c0-2.1-0.9-3.7-6.3-3.7c-5.3,0-6.2,1.6-6.2,3.7
			v21.7C226,172.6,226.9,174.2,232.3,174.2z"/>
	</g>
	<g>
		<path fill="#FFFFFF" d="M232.3,287.2c-19.4,0-24.2-6.6-24.2-16.5v-40c0-2,0.9-2.9,2.9-2.9h12.7c2,0,2.9,0.9,2.9,2.9v36.8
			c0,2.2,1,3.8,5.9,3.8c5,0,6-1.6,6-3.8v-36.8c0-2,0.8-2.9,2.9-2.9h12.3c2,0,2.9,0.9,2.9,2.9v40
			C256.5,280.6,251.7,287.2,232.3,287.2z"/>
	</g>
	<g>
		<path fill="#FFFFFF" d="M232.3,320c20,0,25,6.6,25,16.5v40c0,2-0.9,2.9-2.9,2.9h-12.7c-2,0-2.9-0.9-2.9-2.9v-36.8
			c0-2.2-1-3.8-6.6-3.8c-5.7,0-6.7,1.6-6.7,3.8v36.8c0,2-0.8,2.9-2.9,2.9h-12.3c-2,0-2.9-0.9-2.9-2.9v-40
			C207.3,326.6,212.2,320,232.3,320z"/>
	</g>
	<g>
		<path fill="#FFFFFF" d="M225.4,476c-15.3,0-19.9-6.7-19.9-16.5v-25.2c0-9.8,4.6-16.5,19.9-16.5h20.8c2,0,2.9,0.9,2.9,2.9v9.8
			c0,2-0.9,2.9-2.9,2.9h-17.5c-4.2,0-4.9,1.9-4.9,4v19.3c0,2.2,0.5,4,3.7,4h8.5v-12.6c0-2,0.9-2.9,2.9-2.9h12.5c2,0,2.9,0.9,2.9,2.9
			v25c0,2-0.9,2.9-2.9,2.9H225.4z"/>
	</g>
	<g>
		<path fill="#FFFFFF" d="M205.3,530.2c0-10,4.7-16.8,20.2-16.8h25.7c2,0,3,0.9,3,3v9.6c0,2-0.9,3-3,3h-22.4c-4.3,0-5,2-5,4.1v2.2
			h20.7c2,0,3,0.8,3,3v8.8c0,2-0.9,3-3,3h-20.7v3.1c0,2.3,0.7,3.9,5,3.9h22.4c2,0,3,0.9,3,2.9v9.6c0,2-0.9,3-3,3h-25.7
			c-15.5,0-20.2-6.8-20.2-16.7V530.2z"/>
	</g>
	<g>
		<path fill="#FFFFFF" d="M226.6,35.5l0,40.2h26.8c2,0,2.9,0.9,2.9,3v9.9c0,2-0.9,3-2.9,3H211c-2,0-2.9-0.9-2.9-3l0-53.1
			c0-2,0.9-3,2.9-3h12.7C225.7,32.6,226.6,33.5,226.6,35.5z"/>
	</g>
</g>
<g>
	<path fill="#26839C" d="M479.9,16.9c0-4.2,2-6.2,6.2-6.2H579c4.2,0,6.2,2,6.2,6.2v22H479.9V16.9z"/>
	<path fill="#26839C" d="M479.9,136.5V31.2h105.4v105.3H479.9z"/>
	<path fill="#26839C" d="M479.9,234.1V128.7h105.4v105.4H479.9z"/>
	<path fill="#26839C" d="M479.9,453.6V226.3h105.4v227.3H479.9z"/>
	<path fill="#26839C" d="M479.9,580.7V445.7h105.4v134.9H479.9z"/>
	<path fill="#26839C" d="M585.3,577.4H599c6.8,0,9,9.6,1,15.6l-56.6,42.5c-6.6,5-14.8,5-21.5,0L465.4,593c-8-5.9-6-15.6,1-15.6h13.6
		v-4.6h105.4V577.4z"/>
</g>
<g>
	<path fill="#FFFFFF" d="M510.7,102.4c-2.1,0-3-0.9-3-3v-9.8c0-2.1,0.9-3,3-3h26.1c1.4,0,2.2-1.1,2.2-2.4c0-1.9-0.8-2.7-2.2-2.9
		l-16.1-1.8c-7.9-1.2-13-4.5-13-14v-8.8c0-9.6,6.5-14.8,17.4-14.8H553c2.1,0,3,0.9,3,3v10c0,2.1-0.9,3-3,3h-24c-1.4,0-2.3,1-2.3,2.5
		c0,1.5,0.8,2.5,2.3,2.7l16.1,1.7c7.9,1.2,13.1,4.5,13.1,14v8.8c0,9.6-6.6,14.8-17.4,14.8H510.7z"/>
	<path fill="#FFFFFF" d="M510.7,173.5c-2.1,0-3-0.9-3-3v-54.5c0-2.1,0.9-3,3-3h13c2.1,0,3,0.9,3,3v41.6h13.1V144c0-2.1,0.9-3,3-3
		h12.2c2.1,0,3,0.9,3,3v26.5c0,2.1-0.9,3-3,3H510.7z"/>
	<path fill="#FFFFFF" d="M507.4,239.3c0-2.1,0.9-3,3-3h23.1c4,0,6.1-1.6,6.1-5.6V195c0-2.1,0.9-3,3-3h13c2.1,0,3,0.9,3,3v39.8
		c0,11.1-6.8,17.6-17.9,17.6h-30.4c-2.1,0-3-0.9-3-3V239.3z M510.4,224.8c-2.1,0-3-0.9-3-3V195c0-2.1,0.9-3,3-3h13c2.1,0,3,0.9,3,3
		v26.7c0,2.1-0.9,3-3,3H510.4z"/>
	<path fill="#FFFFFF" d="M525.8,331.5c-2.1,0-3-0.9-3-3v-41.3h-12.1c-2.1,0-3-0.9-3-3V274c0-2.1,0.9-3,3-3h44.4c2.1,0,3,0.9,3,3
		v10.2c0,2.1-0.9,3-3,3H543v41.3c0,2.1-0.9,3-3,3H525.8z"/>
	<path fill="#FFFFFF" d="M510.7,403.3c-2.1,0-3-0.9-3-3v-54.5c0-2.1,0.9-3,3-3h43.5c2.1,0,3,0.9,3,3v9.8c0,2.1-0.9,3-3,3h-27.5v6.5
		h20.7c2.1,0,3,0.8,3,3v9c0,2.1-0.9,3-3,3h-20.7v7.2h27.5c2.1,0,3,0.9,3,3v9.8c0,2.1-0.9,3-3,3H510.7z"/>
	<path fill="#FFFFFF" d="M510.7,476.6c-2.1,0-3-0.9-3-3v-54.5c0-2.1,0.9-3,3-3h27.1c12.6,0,16.6,5.7,16.6,14v3.9
		c0,4.7-1.2,8.1-4.7,9.6c5.1,0.7,9.3,5.1,9.3,12.2v17.8c0,2.1-0.9,3-3,3h-13c-2.1,0-3-0.9-3-3v-13.5c0-2.5-0.8-3.6-3.2-3.6h-10v17.1
		c0,2.1-0.9,3-3,3H510.7z M526.6,442h5.4c2.9,0,3.7-1.7,3.7-3.9v-2.9c0-2.3-0.8-4-3.7-4h-5.4V442z"/>
	<path fill="#FFFFFF" d="M507.4,541.3c0-2.1,0.9-3,3-3h23.1c4,0,6.1-1.6,6.1-5.6V497c0-2.1,0.9-3,3-3h13c2.1,0,3,0.9,3,3v39.8
		c0,11.1-6.8,17.6-17.9,17.6h-30.4c-2.1,0-3-0.9-3-3V541.3z M510.4,526.7c-2.1,0-3-0.9-3-3V497c0-2.1,0.9-3,3-3h13c2.1,0,3,0.9,3,3
		v26.7c0,2.1-0.9,3-3,3H510.4z"/>
</g>
</svg>
