<?xml version="1.0" encoding="utf-8"?>
<!-- Generator: Adobe Illustrator 17.1.0, SVG Export Plug-In . SVG Version: 6.00 Build 0)  -->
<!DOCTYPE svg PUBLIC "-//W3C//DTD SVG 1.1//EN" "http://www.w3.org/Graphics/SVG/1.1/DTD/svg11.dtd">
<svg version="1.1" id="Layer_1" xmlns="http://www.w3.org/2000/svg" xmlns:xlink="http://www.w3.org/1999/xlink" x="0px" y="0px"
	 width="495px" height="600px" viewBox="1178.7 0 495 600" enable-background="new 1178.7 0 495 600" xml:space="preserve">
<g>
	<path fill="#D83F16" d="M1196.5,374.6c0-0.8,0.4-1.2,1.2-1.2h18.4c10,0,15.8,5.8,15.8,15.8v18.4c0,0.8-0.4,1.2-1.2,1.2h-33.2
		c-0.6,0-1-0.4-1-1C1196.5,407.8,1196.5,374.6,1196.5,374.6z"/>
	<path fill="#D83F16" d="M1235.7,374.6c0-0.8,0.4-1.2,1.2-1.2h18.4c10,0,15.8,5.8,15.8,15.8v18.4c0,0.8-0.4,1.2-1.2,1.2h-33.2
		c-0.6,0-1-0.4-1-1V374.6L1235.7,374.6z"/>
	<path fill="#D83F16" d="M1274.9,374.6c0-0.8,0.4-1.2,1.2-1.2h18.4c10,0,15.8,5.8,15.8,15.8v18.4c0,0.8-0.4,1.2-1.2,1.2h-33.2
		c-0.6,0-1-0.4-1-1V374.6L1274.9,374.6z"/>
	<path fill="#D83F16" d="M1314.1,374.6c0-0.8,0.4-1.2,1.2-1.2h18.4c10,0,15.8,5.8,15.8,15.8v18.4c0,0.8-0.4,1.2-1.2,1.2h-33.2
		c-0.6,0-1-0.4-1-1L1314.1,374.6L1314.1,374.6z"/>
	<path fill="#D83F16" d="M1353.3,374.6c0-0.8,0.4-1.2,1.2-1.2h18.4c10,0,15.8,5.8,15.8,15.8v18.4c0,0.8-0.4,1.2-1.2,1.2h-33.2
		c-0.6,0-1-0.4-1-1V374.6L1353.3,374.6z"/>
	<path fill="#D83F16" d="M1392.7,374.6c0-0.8,0.4-1.2,1.2-1.2h18.4c10,0,15.8,5.8,15.8,15.8v18.4c0,0.8-0.4,1.2-1.2,1.2h-33.2
		c-0.6,0-1-0.4-1-1V374.6L1392.7,374.6z"/>
	<path fill="#D83F16" d="M1431.9,374.6c0-0.8,0.4-1.2,1.2-1.2h18.4c10,0,15.8,5.8,15.8,15.8v18.4c0,0.8-0.4,1.2-1.2,1.2h-33.2
		c-0.6,0-1-0.4-1-1V374.6L1431.9,374.6z"/>
	<path fill="#D83F16" d="M1471.1,374.6c0-0.8,0.4-1.2,1.2-1.2h18.4c10,0,15.8,5.8,15.8,15.8v18.4c0,0.8-0.4,1.2-1.2,1.2h-33.2
		c-0.6,0-1-0.4-1-1V374.6L1471.1,374.6z"/>
	<path fill="#D83F16" d="M1510.3,374.6c0-0.8,0.4-1.2,1.2-1.2h18.4c10,0,15.8,5.8,15.8,15.8v18.4c0,0.8-0.4,1.2-1.2,1.2h-33.2
		c-0.6,0-1-0.4-1-1V374.6L1510.3,374.6z"/>
	<path fill="#D83F16" d="M1549.7,374.6c0-0.8,0.4-1.2,1.2-1.2h18.4c10,0,15.8,5.8,15.8,15.8v18.4c0,0.8-0.4,1.2-1.2,1.2h-33.2
		c-0.6,0-1-0.4-1-1V374.6L1549.7,374.6z"/>
	<path fill="#D83F16" d="M1588.9,374.6c0-0.8,0.4-1.2,1.2-1.2h18.4c10,0,15.8,5.8,15.8,15.8v18.4c0,0.8-0.4,1.2-1.2,1.2h-33.4
		c-0.6,0-1-0.4-1-1L1588.9,374.6L1588.9,374.6z"/>
	<path fill="#D83F16" d="M1628.1,374.6c0-0.8,0.4-1.2,1.2-1.2h18.4c10,0,15.8,5.8,15.8,15.8v18.4c0,0.8-0.4,1.2-1.2,1.2h-33.2
		c-0.6,0-1-0.4-1-1V374.6L1628.1,374.6z"/>
</g>
<g>
	<path fill="#F6F1AC" d="M1206.5,403c-0.8,0-1-0.4-1-1v-18.6c0-0.8,0.2-1,1-1h4.4c0.8,0,1,0.2,1,1v14.2h4.4V393c0-0.8,0.2-1,1-1h4.2
		c0.8,0,1,0.4,1,1v9c0,0.8-0.2,1-1,1H1206.5z"/>
	<path fill="#F6F1AC" d="M1253.3,403.2c-6.8,0-8.6-2.4-8.6-5.8v-14.2c0-0.8,0.2-1,1-1h4.4c0.8,0,1,0.2,1,1v13.2
		c0,0.8,0.4,1.4,2.2,1.4c1.8,0,2.2-0.6,2.2-1.4v-13.2c0-0.8,0.2-1,1-1h4.4c0.8,0,1,0.2,1,1v14.2
		C1261.9,400.8,1260.3,403.2,1253.3,403.2z"/>
	<path fill="#F6F1AC" d="M1285.1,403c-0.8,0-1-0.4-1-1v-18.6c0-0.8,0.2-1,1-1h3c0.8,0,1.2,0.2,1.6,0.8l5.2,6.4v-6c0-0.8,0.2-1,1-1
		h4.4c0.8,0,1,0.2,1,1v18.6c0,0.8-0.2,1-1,1h-4.4c-0.8,0-1-0.4-1-1v-3.6l-4.4-6v9.4c0,0.8-0.2,1-1,1L1285.1,403L1285.1,403
		L1285.1,403z"/>
	<path fill="#F6F1AC" d="M1330.1,403c-5.4,0-7-2.4-7-5.8v-9c0-3.6,1.6-5.8,7-5.8h9c0.8,0,1,0.2,1,1v3.4c0,0.8-0.4,1-1,1h-7.8
		c-1.6,0-1.8,0.8-1.8,1.4v6.8c0,0.8,0.2,1.4,1.8,1.4h7.8c0.8,0,1,0.4,1,1v3.4c0,0.8-0.4,1-1,1L1330.1,403L1330.1,403z"/>
	<path fill="#F6F1AC" d="M1363.5,403c-0.8,0-1-0.4-1-1v-18.6c0-0.8,0.4-1,1-1h4.4c0.8,0,1,0.2,1,1v6.2h4.2v-6.2c0-0.8,0.2-1,1-1h4.4
		c0.8,0,1,0.2,1,1V402c0,0.8-0.2,1-1,1h-4.4c-0.8,0-1-0.4-1-1v-6.4h-4.2v6.4c0,0.8-0.2,1-1,1H1363.5L1363.5,403z"/>
	<path fill="#F6F1AC" d="M1402.7,403c-0.8,0-1-0.4-1-1v-18.6c0-0.8,0.2-1,1-1h15c0.8,0,1,0.2,1,1v3.4c0,0.8-0.2,1-1,1h-9.4v2.2h7.2
		c0.8,0,1,0.4,1,1v3c0,0.8-0.2,1-1,1h-7.2v2.4h9.4c0.8,0,1,0.2,1,1v3.4c0,0.8-0.2,1-1,1L1402.7,403L1402.7,403z"/>
	<path fill="#F6F1AC" d="M1449.5,403.2c-7,0-8.8-2.4-8.8-5.8v-9.8c0-3.6,1.6-5.8,8.8-5.8c7,0,8.8,2.4,8.8,5.8v9.8
		C1458.3,400.8,1456.5,403.2,1449.5,403.2z M1449.5,397.8c2,0,2.2-0.6,2.2-1.4v-7.8c0-0.8-0.2-1.4-2.2-1.4s-2.2,0.6-2.2,1.4v7.8
		C1447.3,397.2,1447.5,397.8,1449.5,397.8z"/>
	<path fill="#F6F1AC" d="M1481.1,403c-0.8,0-1-0.4-1-1v-18.6c0-0.8,0.2-1,1-1h3c0.8,0,1.2,0.2,1.6,0.8l5.2,6.4v-6c0-0.8,0.2-1,1-1
		h4.4c0.8,0,1,0.2,1,1v18.6c0,0.8-0.2,1-1,1h-4.4c-0.8,0-1-0.4-1-1v-3.6l-4.4-6v9.4c0,0.8-0.2,1-1,1L1481.1,403L1481.1,403
		L1481.1,403z"/>
	<path fill="#F6F1AC" d="M1520.3,403c-0.8,0-1-0.4-1-1v-18.6c0-0.8,0.4-1,1-1h15c0.8,0,1,0.2,1,1v3.4c0,0.8-0.2,1-1,1h-9.4v2.2h7.2
		c0.8,0,1,0.4,1,1v3c0,0.8-0.2,1-1,1h-7.2v2.4h9.4c0.8,0,1,0.2,1,1v3.4c0,0.8-0.2,1-1,1L1520.3,403L1520.3,403z"/>
	<path fill="#F6F1AC" d="M1564.7,403c-0.8,0-1-0.4-1-1v-14.2h-4.2c-0.8,0-1-0.4-1-1v-3.4c0-0.8,0.2-1,1-1h15.2c0.8,0,1,0.4,1,1v3.4
		c0,0.8-0.4,1-1,1h-4.2V402c0,0.8-0.4,1-1,1H1564.7z"/>
	<path fill="#F6F1AC" d="M1603.9,403c-0.8,0-1-0.4-1-1v-14.2h-4.2c-0.8,0-1-0.4-1-1v-3.4c0-0.8,0.4-1,1-1h15.2c0.8,0,1,0.4,1,1v3.4
		c0,0.8-0.2,1-1,1h-4.2V402c0,0.8-0.4,1-1,1H1603.9z"/>
	<path fill="#F6F1AC" d="M1638.1,403c-0.8,0-1-0.4-1-1v-18.6c0-0.8,0.4-1,1-1h15c0.8,0,1,0.2,1,1v3.4c0,0.8-0.2,1-1,1h-9.4v2.2h7.2
		c0.8,0,1,0.4,1,1v3c0,0.8-0.2,1-1,1h-7.2v2.4h9.4c0.8,0,1,0.2,1,1v3.4c0,0.8-0.2,1-1,1L1638.1,403L1638.1,403z"/>
</g>
<path fill="#FFFFFF" d="M1275.7,588.2h-75.8c-2.4,0-3.4-1-3.4-3.4V509c0-2.4,1-3.4,3.4-3.4h75.8c2.4,0,3.4,1,3.4,3.4v76
	C1279.3,587.2,1278.1,588.2,1275.7,588.2z"/>
<path fill="#FFFFFF" d="M1372.1,588.2h-76c-2.4,0-3.4-1-3.4-3.4V509c0-2.4,1-3.4,3.4-3.4h76c2.4,0,3.4,1,3.4,3.4v76
	C1375.5,587.2,1374.5,588.2,1372.1,588.2z"/>
<path fill="#FFFFFF" d="M1468.5,588.2h-76c-2.4,0-3.4-1-3.4-3.4V509c0-2.4,1-3.4,3.4-3.4h76c2.4,0,3.4,1,3.4,3.4v76
	C1471.9,587.2,1470.9,588.2,1468.5,588.2z"/>
<path fill="#FFFFFF" d="M1564.9,588.2h-76c-2.4,0-3.4-1-3.4-3.4V509c0-2.4,1-3.4,3.4-3.4h76c2.4,0,3.4,1,3.4,3.4v76
	C1568.3,587.2,1567.3,588.2,1564.9,588.2z"/>
<path fill="#FFFFFF" d="M1661.3,588.2h-76c-2.4,0-3.4-1-3.4-3.4V509c0-2.4,1-3.4,3.4-3.4h76c2.4,0,3.4,1,3.4,3.4v76
	C1664.5,587.2,1663.7,588.2,1661.3,588.2z"/>
<path fill="#0C343D" d="M1275.7,587.6h-75.8c-1.8,0-2.8-0.8-2.8-2.8v-76c0-1.8,0.8-2.6,2.8-2.6h75.8c1.8,0,2.8,0.8,2.8,2.6v75.8
	C1278.5,586.6,1277.5,587.6,1275.7,587.6z"/>
<path fill="#0C343D" d="M1372.1,587.6h-76c-1.8,0-2.8-0.8-2.8-2.8v-76c0-1.8,0.8-2.6,2.8-2.6h76c1.8,0,2.6,0.8,2.6,2.6v75.8
	C1374.7,586.6,1373.9,587.6,1372.1,587.6z"/>
<path fill="#0C343D" d="M1468.5,587.6h-76c-1.8,0-2.8-0.8-2.8-2.8v-76c0-1.8,0.8-2.6,2.8-2.6h76c1.8,0,2.8,0.8,2.8,2.6v75.8
	C1471.1,586.6,1470.3,587.6,1468.5,587.6z"/>
<path fill="#0C343D" d="M1564.9,587.6h-76c-1.8,0-2.8-0.8-2.8-2.8v-76c0-1.8,0.8-2.6,2.8-2.6h76c1.8,0,2.6,0.8,2.6,2.6v75.8
	C1567.5,586.6,1566.7,587.6,1564.9,587.6z"/>
<path fill="#0C343D" d="M1661.3,587.6h-76c-1.8,0-2.6-0.8-2.6-2.8v-76c0-1.8,0.8-2.6,2.6-2.6h76c1.8,0,2.6,0.8,2.6,2.6v75.8
	C1663.9,586.6,1662.9,587.6,1661.3,587.6z"/>
<path fill="#E0C74B" d="M1198.5,507.8h78.4V586h-78.4V507.8z M1276.1,508.4h-76.8v76.8h76.8V508.4z"/>
<path fill="#E0C74B" d="M1294.9,507.8h78.2V586h-78.2V507.8L1294.9,507.8z M1372.5,508.4h-76.8v76.8h76.8V508.4z"/>
<path fill="#E0C74B" d="M1391.3,507.8h78.2V586h-78.2V507.8z M1468.9,508.4h-76.8v76.8h76.8V508.4z"/>
<path fill="#E0C74B" d="M1487.7,507.8h78.2V586h-78.2V507.8z M1565.3,508.4h-77v76.8h76.8v-76.8H1565.3z"/>
<path fill="#E0C74B" d="M1584.1,507.8h78.2V586h-78.2V507.8z M1661.5,508.4h-76.8v76.8h76.8V508.4z"/>
<path fill="#FFFFFF" d="M1222.3,574h-8.8c-1.8,0-2.6-0.8-2.6-2.8V534c0-9.2,3.6-15.4,15-15.4c5.6,0,9.2,1.4,11.2,3.8
	c2.2-2.4,5.6-3.8,11.2-3.8c11.4,0,15,6.2,15,15.4v37.2c0,1.8-0.8,2.8-2.8,2.8h-8.8c-2,0-2.8-0.8-2.8-2.8v-34.8c0-2-0.6-3-2.4-3
	c-2,0-2.4,1-2.4,3v34.8c0,1.8-0.8,2.8-2.6,2.8h-8.8c-1.8,0-2.8-0.8-2.8-2.8v-34.8c0-2-0.4-3-2.4-3s-2.4,1-2.4,3v34.8
	C1225.1,573.2,1224.3,574,1222.3,574z M1227.5,526.4c7,0,9.2,3.8,9.2,9.4v31.4h0.8V536c0-5.6,2-9.4,9.2-9.4c7,0,9.2,3.8,9.2,9.4
	v31.4h0.8V536c0-6.2-2.2-10.2-9.8-10.2c-6.2,0-8.8,2.6-9.6,6.8c-0.8-4.2-3.4-6.8-9.4-6.8c-7.6,0-10,4-10,10.2v31.4h0.8V536
	C1218.3,530.2,1220.5,526.4,1227.5,526.4z"/>
<path fill="#FFFFFF" d="M1333.3,575.2c-18.4,0-22.8-6.2-22.8-15.4v-25.6c0-9.2,4.4-15.4,22.8-15.4s22.8,6.2,22.8,15.4v25.6
	C1356.3,569,1351.9,575.2,1333.3,575.2z M1348.1,536c0-6.2-3.4-10.2-14.8-10.2s-14.6,4-14.6,10.2v22.2c0,6.2,3.2,10.2,14.6,10.2
	s14.8-4,14.8-10.2V536z M1319.5,536c0-5.6,3-9.4,13.8-9.4c10.8,0,14,3.8,14,9.4v22.2c0,5.6-3.2,9.4-14,9.4
	c-10.8,0-13.8-3.8-13.8-9.4V536L1319.5,536z M1333.3,560.6c5,0,5.8-1.6,5.8-3.6v-20.2c0-2-0.8-3.4-5.8-3.4s-5.8,1.6-5.8,3.4V557
	C1327.5,559.2,1328.5,560.6,1333.3,560.6z"/>
<path fill="#FFFFFF" d="M1423.5,574c-1.8,0-2.8-0.8-2.8-2.8v-37h-10.8c-1.8,0-2.8-0.8-2.8-2.8v-9.2c0-1.8,0.8-2.6,2.8-2.6h39.8
	c1.8,0,2.8,0.8,2.8,2.6v9.2c0,1.8-0.8,2.6-2.8,2.6h-10.8v37c0,1.8-0.8,2.6-2.8,2.6L1423.5,574L1423.5,574z M1430.1,567.4v-40h15.4
	v-0.8h-31.6v0.8h15.4v40H1430.1z"/>
<path fill="#FFFFFF" d="M1506.3,574c-1.8,0-2.8-0.8-2.8-2.8v-48.8c0-1.8,0.8-2.8,2.8-2.8h39c1.8,0,2.6,0.8,2.6,2.8v8.8
	c0,1.8-0.8,2.8-2.6,2.8h-24.8v5.8h18.8c1.8,0,2.8,0.8,2.8,2.6v8c0,1.8-0.8,2.8-2.8,2.8h-18.8v6.4h24.8c1.8,0,2.6,0.8,2.6,2.8v8.8
	c0,1.8-0.8,2.6-2.6,2.6L1506.3,574L1506.3,574z M1512.3,566.6V547h22.8v-0.8h-22.8v-19h28.8v-0.8h-29.6V567h29.6v-0.8h-28.8V566.6z"
	/>
<path fill="#FFFFFF" d="M1617.1,522.6v37h24.6c1.8,0,2.8,0.8,2.8,2.8v9.2c0,1.8-0.8,2.6-2.8,2.6h-39c-1.8,0-2.6-0.8-2.6-2.6v-48.8
	c0-1.8,0.8-2.8,2.6-2.8h11.6C1616.3,519.8,1617.1,520.6,1617.1,522.6z M1637.5,567.4v-0.8h-28.6v-40h-0.8v40.6h29.4V567.4z"/>
<path fill="#102B33" d="M1213.3,481c-14.4,0-17.8-4.8-17.8-11.8v-19.6c0-7,3.4-11.8,17.8-11.8s17.8,4.8,17.8,11.8v19.6
	C1231.3,476.2,1227.7,481,1213.3,481z M1213.3,469.8c4.2,0,4.8-1.2,4.8-2.6v-15.4c0-1.6-0.6-2.6-4.8-2.6c-4.2,0-4.8,1.2-4.8,2.6
	v15.4C1208.5,468.6,1209.3,469.8,1213.3,469.8z"/>
<path fill="#102B33" d="M1240.5,480c-1.4,0-2-0.6-2-2v-37.2c0-1.4,0.6-2,2-2h17.6c10.4,0,13.6,4.6,13.6,11.2v7.4
	c0,6.6-3.2,11.2-13.6,11.2h-6.6v9.6c0,1.4-0.6,2-2,2L1240.5,480L1240.5,480L1240.5,480z M1251.5,458h5.2c2.2,0,2.8-1.4,2.8-2.8v-3
	c0-1.6-0.4-2.8-2.8-2.8h-5.2V458z"/>
<path fill="#102B33" d="M1279.7,480c-1.4,0-2-0.6-2-2v-37.2c0-1.4,0.6-2,2-2h26.6c1.4,0,2,0.6,2,2v6.6c0,1.4-0.6,2-2,2h-15.8v4.4
	h11.2c1.4,0,2,0.6,2,2v6.2c0,1.4-0.6,2-2,2h-11.2v5h15.8c1.4,0,2,0.6,2,2v6.8c0,1.4-0.6,2-2,2L1279.7,480L1279.7,480z"/>
<path fill="#102B33" d="M1317.3,480c-1.4,0-2-0.6-2-2v-37.2c0-1.4,0.6-2,2-2h6c1.6,0,2.4,0.4,3.4,1.6l11.2,12.8V441c0-1.4,0.6-2,2-2
	h8.6c1.4,0,2,0.6,2,2v37.2c0,1.4-0.6,2-2,2h-8.6c-1.4,0-2-0.6-2-2V471l-10-12v19c0,1.4-0.6,2-2,2L1317.3,480L1317.3,480L1317.3,480z
	"/>
<path fill="#102B33" d="M1371.9,480c-1.4,0-2-0.6-2-2v-10c0-8.8,3.8-11,9-12.6l7.6-2.4c1.2-0.4,1.6-0.8,1.6-2s-0.4-1.6-1.6-1.6
	h-12.4c-1.4,0-2-0.6-2-2v-6.8c0-1.4,0.6-2,2-2h17c6.6,0,10.2,3.4,10.2,9.6v5.4c0,5.8-3.4,8.4-9,10.2l-7.8,2.4
	c-1.2,0.4-1.6,0.4-1.6,1.8v1.2h16.4c1.4,0,2,0.6,2,2v6.8c0,1.4-0.6,2-2,2H1371.9L1371.9,480z"/>
<path fill="#102B33" d="M1417.9,470.4c-7.4,0-10.4-3-10.4-9.6v-20.2c0-1.4,0.6-2,2-2h8.8c1.4,0,2,0.6,2,2v15.8c0,1.2,0.6,2,1.8,2
	h5.4v-17.6c0-1.4,0.6-2,2-2h8.8c1.4,0,2,0.6,2,2V478c0,1.4-0.6,2-2,2h-8.8c-1.4,0-2-0.6-2-2v-7.6H1417.9L1417.9,470.4z"/>
<path fill="#102B33" d="M1463.5,480c-1.4,0-2-0.6-2-2v-37.2c0-1.4,0.6-2,2-2h8.8c1.4,0,2,0.6,2,2v12.4h9.6v-12.4c0-1.4,0.6-2,2-2
	h8.8c1.4,0,2,0.6,2,2V478c0,1.4-0.6,2-2,2h-8.8c-1.4,0-2-0.6-2-2v-12.8h-9.6V478c0,1.4-0.6,2-2,2H1463.5z"/>
<path fill="#102B33" d="M1522.3,481c-14.4,0-17.8-4.8-17.8-11.8v-19.6c0-7,3.4-11.8,17.8-11.8c14.4,0,17.8,4.8,17.8,11.8v19.6
	C1540.1,476.2,1536.7,481,1522.3,481z M1522.3,469.8c4.2,0,4.8-1.2,4.8-2.6v-15.4c0-1.6-0.6-2.6-4.8-2.6c-4.2,0-4.8,1.2-4.8,2.6
	v15.4C1517.5,468.6,1518.1,469.8,1522.3,469.8z"/>
<path fill="#102B33" d="M1564.9,481c-14.2,0-17.8-4.8-17.8-11.8v-28.4c0-1.4,0.6-2,2-2h9c1.4,0,2,0.6,2,2V467c0,1.6,0.6,2.6,4.8,2.6
	c4,0,4.8-1.2,4.8-2.6v-26.2c0-1.4,0.6-2,2-2h8.8c1.4,0,2,0.6,2,2v28.4C1582.7,476.2,1579.1,481,1564.9,481z"/>
<path fill="#102B33" d="M1592.3,480c-1.4,0-2-0.6-2-2v-37.2c0-1.4,0.6-2,2-2h19.2c8.6,0,11.4,3.8,11.4,9.6v2.6
	c0,3.2-0.8,5.6-3.2,6.6c4.2,0.4,7,3.4,7,8.4v12.2c0,1.4-0.6,2-2,2h-8.8c-1.4,0-2-0.6-2-2v-8.8c0-1.8-0.6-2.4-2.2-2.4h-8v11.2
	c0,1.4-0.6,2-2,2L1592.3,480L1592.3,480L1592.3,480z M1603.3,456.4h4.4c2,0,2.6-1.2,2.6-2.6v-2c0-1.6-0.6-2.6-2.6-2.6h-4.4V456.4z"
	/>
<path fill="#102B33" d="M1633.9,480c-1.4,0-2-0.6-2-2v-6.8c0-1.4,0.6-2,2-2h15.4c1,0,1.6-0.8,1.6-1.6c0-1.4-0.6-1.8-1.6-2l-8.6-1.2
	c-5.4-0.8-8.8-3.2-8.8-9.6v-6c0-6.6,4.4-10.2,11.8-10.2h16c1.4,0,2,0.6,2,2v6.8c0,1.4-0.6,2-2,2h-13.4c-1,0-1.6,0.8-1.6,1.8
	s0.6,1.8,1.6,1.8l8.6,1.2c5.4,0.8,9,3.2,9,9.6v6c0,6.6-4.4,10.2-11.8,10.2L1633.9,480L1633.9,480z"/>
<path fill="#28515B" d="M1213.3,475.6c-9,0-11.6-3.2-11.6-7.8v-17c0-4.6,2.6-7.8,11.6-7.8s11.6,3.2,11.6,7.8v17
	C1224.9,472.4,1222.3,475.6,1213.3,475.6z M1213.3,475c8.6,0,11.2-2.8,11.2-7.2v-17c0-4.4-2.6-7.2-11.2-7.2s-11,2.8-11,7.2v17
	C1202.3,472.2,1204.7,475,1213.3,475z"/>
<path fill="#28515B" d="M1245.5,463.6V475h-0.6v-31h12.4c7.2,0,8.6,3.4,8.6,7.8v4.2c0,4.4-1.4,7.6-8.6,7.6H1245.5z M1257.3,463
	c6.8,0,8-3,8-7v-4.2c0-4.2-1.2-7.2-8-7.2h-11.8v18.6h11.8V463z"/>
<path fill="#28515B" d="M1303.3,474.8h-19.4v-31h19.4v0.6h-18.8v14.4h14.2v0.6h-14.2v14.8h18.8V474.8L1303.3,474.8z"/>
<path fill="#28515B" d="M1343.9,468v-24.2h0.6v31h-0.6v-6l-21.6-24.2c-0.2-0.2-0.2-0.2-0.4-0.2c-0.2,0-0.2,0.2-0.2,0.2V475h-0.6
	v-30.4c0-0.4,0.4-0.6,0.6-0.6c0.4,0,0.4,0.2,0.8,0.6L1343.9,468z"/>
<path fill="#28515B" d="M1392.5,456.8c1-0.4,1.6-1.2,1.6-2.6V449c0-3.4-2.2-4.4-5.6-4.4h-11.6V444h11.6c4,0,6.2,1.2,6.2,5v5.2
	c0,1.8-0.8,2.8-2,3.2l-13.4,4.4c-2.2,0.8-2.8,1.6-2.8,4.2v8.4h19.6v0.6h-20v-9c0-2.8,0.8-4,3.2-4.8L1392.5,456.8z"/>
<path fill="#28515B" d="M1433.9,464.6h-13.8c-4.4,0-6.4-2-6.4-6v-14.8h0.6v14.8c0,3.6,1.8,5.4,5.8,5.4h13.8v-20.2h0.6v31h-0.6V464.6
	L1433.9,464.6z"/>
<path fill="#28515B" d="M1467.7,443.8h0.6V459h22v-15.2h0.6v31h-0.6v-15.2h-22v15.2h-0.6V443.8z"/>
<path fill="#28515B" d="M1522.3,475.6c-9,0-11.6-3.2-11.6-7.8v-17c0-4.6,2.6-7.8,11.6-7.8s11.6,3.2,11.6,7.8v17
	C1533.9,472.4,1531.3,475.6,1522.3,475.6z M1522.3,475c8.6,0,11-2.8,11-7.2v-17c0-4.4-2.6-7.2-11-7.2c-8.6,0-11,2.8-11,7.2v17
	C1511.3,472.2,1513.7,475,1522.3,475z"/>
<path fill="#28515B" d="M1554.1,443.8v24c0,4.4,2.4,7.2,11,7.2s11-2.8,11-7.2v-24h0.6v24c0,4.6-2.6,7.8-11.6,7.8s-11.6-3.2-11.6-7.8
	v-24H1554.1z"/>
<path fill="#28515B" d="M1596.5,474.8v-31h13c4.4,0,6.6,2.8,6.6,6.6v4c0,3.4-0.6,5.8-3.4,6.6h0.6c4.8,0,7,2.2,7,6.2v7.6h-0.6v-7.6
	c0-3.8-2-5.6-6.4-5.6h-16.2v13.2L1596.5,474.8L1596.5,474.8z M1597.1,444.4V461h12.6c4.8,0,6-2.4,6-6.6v-4c0-3.6-2-6-6-6H1597.1z"/>
<path fill="#28515B" d="M1656.7,444.4h-12.8c-3.2,0-5.2,2-5.2,4.6v4.8c0,2.6,1.2,3.4,3,3.8l12.2,2.4c2.2,0.4,4,1.6,4,5.6v3.4
	c0,3.4-2.4,5.8-6.4,5.8h-14.2v-0.6h14.2c3.6,0,5.8-2.2,5.8-5.2v-3.4c0-3.6-1.4-4.6-3.4-5l-12.2-2.4c-2-0.4-3.4-1.2-3.4-4.4V449
	c0-3,2.2-5.2,5.8-5.2h12.8L1656.7,444.4L1656.7,444.4L1656.7,444.4z"/>
<g>
	<path fill="#E0CE51" d="M1183.7,99.8V28.4c0-2,0.6-3.2,1.6-4l14.2-12c0.8-0.6,2-1,3.6-1h35.2c15.4,0,22.2,5.8,22.2,18v5.2
		c0,5.2-1.4,8.8-4.2,11l-0.2,0.2c8,1.8,11.8,7.4,11.8,17.8v10.2c0,6.6-1.8,11.4-5.8,14.6l-14.2,12c-3.6,3-9.2,4.6-16.8,4.6h-42.2
		C1185.3,104.8,1183.7,103.4,1183.7,99.8z"/>
	<path fill="#E0CE51" d="M1287.5,103.8c-0.6,0.6-1.8,1-3.4,1h-16.2c-3.6,0-5-1.6-5-5V45.4c0-7,1.6-12.8,6.4-17l14.2-11.8
		c5-4.2,13.4-6.8,27.8-6.8c28.6,0,34.6,9.8,34.6,23.6v54.4c0,2-0.6,3.2-1.6,4l-14.2,11.8c-0.6,0.6-1.8,1-3.4,1h-16.8
		c-3.6,0-5-1.6-5-5V84.2h-1.8v3.4c0,2-0.6,3.2-1.6,4L1287.5,103.8z M1303.3,46v4.2h1.8v-1C1305.1,47.8,1304.7,46.8,1303.3,46z"/>
	<path fill="#E0CE51" d="M1369.9,103.8c-0.6,0.6-1.8,1-3.4,1h-17c-3.6,0-5-1.6-5-5V28.4c0-2,0.6-3.2,1.6-4l14.2-12
		c0.8-0.6,2-1,3.6-1h36.4c17.4,0,22.8,8,22.8,19.4V36c0,5.4-1.2,9.4-4.2,12h-0.2c7,2,11.4,7.8,11.4,16.4v23.4c0,2-0.6,3.2-1.6,4
		l-14.2,11.8c-0.6,0.6-1.8,1-3.4,1h-17c-3.6,0-5-1.6-5-5V82.8c0-2.4-0.8-3.6-3-3.6h-0.2v8.4c0,2-0.6,3.2-1.6,4L1369.9,103.8z"/>
	<path fill="#E0CE51" d="M1426.1,99.8V28.4c0-2,0.6-3.2,1.6-4l14.2-12c0.8-0.6,2-1,3.6-1h35c15.4,0,22.2,5.8,22.2,18v5.2
		c0,5.2-1.4,8.8-4.2,11l-0.2,0.2c8,1.8,11.8,7.4,11.8,17.8v10.2c0,6.6-1.8,11.4-5.8,14.6l-14.2,12c-3.6,3-9.2,4.6-16.8,4.6h-42.2
		C1427.7,104.8,1426.1,103.4,1426.1,99.8z"/>
	<path fill="#E0CE51" d="M1510.9,104.8c-3.6,0-5-1.6-5-5V28.4c0-2,0.6-3.2,1.6-4l14.2-12c0.8-0.6,2-1,3.6-1h51c3.6,0,5,1.6,5,5v12.8
		c0,2-0.6,3.2-1.6,4l-9.6,7.8c1.4,0.8,2,2.2,2,4.4v11.8c0,2-0.6,3.2-1.6,4l-9.8,8.2h15.2c3.6,0,5,1.6,5,5v12.8c0,2-0.6,3.2-1.6,4
		l-14.2,11.8c-0.6,0.6-1.8,1-3.4,1h-51L1510.9,104.8L1510.9,104.8z"/>
	<path fill="#E0CE51" d="M1603.1,103.8c-0.6,0.6-1.8,1-3.4,1h-17c-3.6,0-5-1.6-5-5V28.4c0-2,0.6-3.2,1.6-4l14.2-12
		c0.8-0.6,2-1,3.6-1h36.6c17.4,0,22.8,8,22.8,19.4V36c0,5.4-1.2,9.4-4.2,12l0,0c7,2,11.4,7.8,11.4,16.4v23.4c0,2-0.6,3.2-1.6,4
		l-14.2,11.8c-0.6,0.6-1.8,1-3.4,1h-17c-3.6,0-5-1.6-5-5V82.8c0-2.4-0.8-3.6-3-3.6h-0.2v8.4c0,2-0.6,3.2-1.6,4L1603.1,103.8z"/>
	<path fill="#EF9D92" d="M1197.9,87.8V16.6c0-3.6,1.6-5,5-5h35.2c15.4,0,22.2,5.8,22.2,18v5.2c0,5.2-1.4,8.8-4.4,11.2
		c8,1.8,11.8,7.4,11.8,17.8V74c0,13-6.8,19.2-22.4,19.2h-42.2C1199.5,93,1197.9,91.4,1197.9,87.8z M1224.9,32.4V42h8.2
		c2.2,0,3-1,3-3.2v-3c0-2.2-0.8-3.2-3-3.2C1233.1,32.4,1224.9,32.4,1224.9,32.4z M1224.9,61.2V72h13.2c2.2,0,3-1,3-3.4v-4.2
		c0-2.2-1-3.2-3-3.2H1224.9L1224.9,61.2z"/>
	<path fill="#92CAD3" d="M1277.1,87.8V33.4c0-13.8,5.8-23.6,34.4-23.6c28.8,0,34.8,9.8,34.8,23.6v54.4c0,3.6-1.6,5-5,5h-16.8
		c-3.6,0-5-1.6-5-5V72.6h-16V88c0,3.6-1.6,5-5,5h-16.2C1278.7,93,1277.1,91.4,1277.1,87.8z M1303.3,50.2h16v-13c0-2.6-1.8-4-8-4
		c-6.2,0-8,1.4-8,4V50.2L1303.3,50.2z"/>
	<path fill="#EF9D92" d="M1363.5,93c-3.6,0-5-1.6-5-5V16.8c0-3.6,1.6-5,5-5h36.6c17.4,0,22.8,8,22.8,19.4v5c0,5.4-1.2,9.4-4.2,12
		c7,2,11.4,7.8,11.4,16.4V88c0,3.6-1.6,5-5,5h-17c-3.6,0-5-1.6-5-5V71.2c0-2.4-0.8-3.6-3-3.6h-14.2V88c0,3.6-1.6,5-5,5H1363.5
		L1363.5,93L1363.5,93z M1385.7,33.6v11.8h7.2c3,0,3.8-1.8,3.8-4v-3.8c0-2.2-0.6-4-3.8-4C1392.7,33.6,1385.7,33.6,1385.7,33.6z"/>
	<path fill="#92CAD3" d="M1440.3,87.8V16.6c0-3.6,1.6-5,5-5h35c15.4,0,22.2,5.8,22.2,18v5.2c0,5.2-1.4,8.8-4.4,11.2
		c8,1.8,11.8,7.4,11.8,17.8V74c0,13-7,19.2-22.4,19.2h-42.2C1441.9,93,1440.3,91.4,1440.3,87.8z M1467.3,32.4V42h8.2
		c2.2,0,3-1,3-3.2v-3c0-2.2-1-3.2-3-3.2C1475.5,32.4,1467.3,32.4,1467.3,32.4z M1467.3,61.2V72h13.2c2.2,0,3-1,3-3.4v-4.2
		c0-2.2-1-3.2-3-3.2H1467.3L1467.3,61.2z"/>
	<path fill="#EF9D92" d="M1519.9,87.8V16.6c0-3.6,1.6-5,5-5h51c3.6,0,5,1.6,5,5v12.8c0,3.6-1.6,5-5,5h-29.2v6.2h20.4
		c3.6,0,5,1.6,5,5v11.8c0,3.6-1.6,5-5,5h-20.4v7.2h29.2c3.6,0,5,1.6,5,5v13c0,3.6-1.6,5-5,5h-51C1521.5,93,1519.9,91.4,1519.9,87.8z
		"/>
	<path fill="#92CAD3" d="M1596.9,93c-3.6,0-5-1.6-5-5V16.8c0-3.6,1.6-5,5-5h36.6c17.4,0,22.8,8,22.8,19.4v5c0,5.4-1.2,9.4-4.2,12
		c7,2,11.4,7.8,11.4,16.4V88c0,3.6-1.6,5-5,5h-17c-3.6,0-5-1.6-5-5V71.2c0-2.4-0.8-3.6-3-3.6h-14.2V88c0,3.6-1.6,5-5,5H1596.9
		L1596.9,93z M1618.9,33.6v11.8h7.2c3,0,3.8-1.8,3.8-4v-3.8c0-2.2-0.6-4-3.8-4H1618.9z"/>
	<path fill="#DA4226" d="M1202.9,91.8c-2.8,0-4-1.2-4-4V16.6c0-2.8,1.2-4,4-4h35.2c14.4,0,21.2,5.2,21.2,16.8v5.2
		c0,6.2-2.2,10-6.4,11.8c9.4,1,13.8,6.4,13.8,17.2v10.2c0,12.4-6.8,18-21.4,18L1202.9,91.8L1202.9,91.8z M1223.9,43.2h9.4
		c2.8,0,4.2-1.4,4.2-4.4v-3c0-3-1.4-4.4-4.2-4.4h-9.4V43.2z M1223.9,73.2h14.2c2.8,0,4.2-1.4,4.2-4.4v-4.2c0-3-1.4-4.2-4.2-4.2
		h-14.2V73.2z"/>
	<path fill="#27839E" d="M1298.3,91.8h-16.2c-2.8,0-4-1.2-4-4V33.6c0-13.4,6-22.4,33.2-22.4c27.4,0,33.6,9.2,33.6,22.4V88
		c0,2.8-1.2,4-4,4h-16.6c-2.8,0-4-1.2-4-4V71.6h-18.2V88C1302.3,90.6,1301.1,91.8,1298.3,91.8z M1302.3,51.4h18.2V37.2
		c0-3-1.4-5.2-9-5.2c-7.8,0-9.2,2.2-9.2,5.2V51.4L1302.3,51.4z"/>
	<path fill="#DA4226" d="M1363.5,91.8c-2.8,0-4-1.2-4-4V16.6c0-2.8,1.2-4,4-4h36.6c16.4,0,21.6,7.6,21.6,18.4v5
		c0,6.2-1.6,10.6-6.2,12.6c8,0.8,13.4,6.8,13.4,16V88c0,2.8-1.2,4-4,4h-17c-2.8,0-4-1.2-4-4V71.2c0-3.4-1-4.8-4.2-4.8h-15.4V88
		c0,2.8-1.2,4-4,4L1363.5,91.8L1363.5,91.8z M1384.5,46.6h8.2c3.8,0,4.8-2.2,4.8-5.2v-3.8c0-3-1-5.2-4.8-5.2h-8.2V46.6z"/>
	<path fill="#27839E" d="M1445.3,91.8c-2.8,0-4-1.2-4-4V16.6c0-2.8,1.2-4,4-4h35c14.4,0,21.2,5.2,21.2,16.8v5.2c0,6.2-2,10-6.4,11.8
		c9.4,1,13.8,6.2,13.8,17v10.2c0,12.2-6.8,18-21.4,18L1445.3,91.8L1445.3,91.8L1445.3,91.8z M1466.1,43.2h9.4c2.8,0,4.2-1.4,4.2-4.4
		v-3c0-3-1.4-4.4-4.2-4.4h-9.4V43.2z M1466.1,73.2h14.2c2.8,0,4.2-1.4,4.2-4.4v-4.2c0-3-1.4-4.2-4.2-4.2h-14.2V73.2L1466.1,73.2z"/>
	<path fill="#DA4226" d="M1525.1,91.8c-2.8,0-4-1.2-4-4V16.6c0-2.8,1.2-4,4-4h51c2.8,0,4,1.2,4,4v12.8c0,2.8-1.2,4-4,4h-30.4V42
		h21.4c2.8,0,4,1.2,4,4v11.8c0,2.8-1.2,4-4,4h-21.4v9.4h30.4c2.8,0,4,1.2,4,4V88c0,2.8-1.2,4-4,4L1525.1,91.8L1525.1,91.8z"/>
	<path fill="#27839E" d="M1596.9,91.8c-2.8,0-4-1.2-4-4V16.6c0-2.8,1.2-4,4-4h36.6c16.4,0,21.6,7.6,21.6,18.4v5
		c0,6.2-1.6,10.6-6.2,12.6c8,0.8,13.4,6.8,13.4,16V88c0,2.8-1.2,4-4,4h-17c-2.8,0-4-1.2-4-4V71.2c0-3.4-1-4.8-4.2-4.8h-15.4V88
		c0,2.8-1.2,4-4,4L1596.9,91.8L1596.9,91.8L1596.9,91.8z M1617.9,46.6h8.2c3.8,0,4.8-2.2,4.8-5.2v-3.8c0-3-1-5.2-4.8-5.2h-8.2V46.6z
		"/>
	<path fill="#EF9D92" d="M1211.1,82V22.6h22.4c12.2,0,14.4,5.2,14.4,11.6v7c0,4.4-0.8,8.4-7,10c12.2,0,14.2,5.4,14.2,12.6v7
		c0,6.4-2.2,11-14.4,11h-29.6V82z M1212.3,23.8v27.6h21.2c12.2,0,13.4-4.8,13.4-10v-7c0-6-2.2-10.6-13.4-10.6L1212.3,23.8
		L1212.3,23.8z M1212.3,52.4v28.4h28.4c11,0,13.4-3.8,13.4-9.8v-7c0-6.6-2.2-11.6-13.2-11.6H1212.3L1212.3,52.4z"/>
	<path fill="#92CAD3" d="M1332.1,62.2h-40.8v20h-1V36.4c0-8.8,4-14.8,21.4-14.8s21.6,6,21.6,14.8v45.8h-1L1332.1,62.2L1332.1,62.2z
		 M1291.3,61h40.8V36.2c0-8.2-4.2-13.8-20.6-13.8c-16.4,0-20.2,5.6-20.2,13.8V61L1291.3,61z"/>
	<path fill="#EF9D92" d="M1371.5,82V22.6h25c8.6,0,12.6,5.2,12.6,12.6v7.6c0,6.8-1.4,11.2-6.6,12.8h1.2c9,0,13.4,4,13.4,11.8V82h-1
		V67.2c0-7.2-3.8-10.8-12.2-10.8h-31.2V82H1371.5L1371.5,82L1371.5,82z M1372.5,23.8v31.8h24c9.2,0,11.4-4.4,11.4-12.6v-7.6
		c0-6.8-3.6-11.4-11.4-11.4h-24V23.8z"/>
	<path fill="#92CAD3" d="M1453.5,82V22.6h22.4c12.2,0,14.4,5.2,14.4,11.6v7c0,4.4-0.8,8.4-7,10c12.2,0,14.2,5.4,14.2,12.6v7
		c0,6.4-2,11-14.4,11h-29.6V82z M1454.7,23.8v27.6h21.2c12.2,0,13.4-4.8,13.4-10v-7c0-6-2.2-10.6-13.4-10.6L1454.7,23.8L1454.7,23.8
		z M1454.7,52.4v28.4h28.4c11,0,13.4-3.8,13.4-9.8v-7c0-6.6-2-11.6-13.2-11.6H1454.7L1454.7,52.4L1454.7,52.4z"/>
	<path fill="#EF9D92" d="M1570.1,82h-37V22.6h37v1h-36v27.6h27v1h-26.8v28.6h36L1570.1,82L1570.1,82z"/>
	<path fill="#92CAD3" d="M1604.9,82V22.6h25c8.6,0,12.6,5.2,12.6,12.6v7.6c0,6.8-1.4,11.2-6.6,12.8h1.2c9,0,13.4,4,13.4,11.8V82h-1
		V67.2c0-7.2-3.8-10.8-12.2-10.8h-31.2V82H1604.9L1604.9,82L1604.9,82z M1605.9,23.8v31.8h24c9.2,0,11.4-4.4,11.4-12.6v-7.6
		c0-6.8-3.6-11.4-11.4-11.4h-24V23.8z"/>
</g>
<g>
	<path fill="#432D2C" d="M1236.589,241.643h-20.231c-14.593,0-21.226-5.721-21.226-17.744v-25.787
		c0-12.106,6.633-17.827,21.226-17.827h20.231c2.653,0,3.814,1.161,3.814,3.814v10.032c0,2.653-1.161,3.814-3.814,3.814h-16.666
		c-2.819,0-4.229,0.995-4.229,3.316v19.734c0,2.321,1.493,3.151,4.229,3.151h16.666c2.653,0,3.814,1.161,3.814,3.814v9.867
		C1240.404,240.483,1239.243,241.643,1236.589,241.643z"/>
	<path fill="#432D2C" d="M1299.935,225.143c0,10.447-4.809,17.744-26.533,17.744c-21.724,0-26.616-7.297-26.616-17.744v-28.274
		c0-10.447,4.892-17.827,26.616-17.827c21.724,0,26.533,7.38,26.533,17.827V225.143z M1267.266,222.158
		c0,1.99,1.41,3.068,6.136,3.068c4.726,0,6.136-1.078,6.136-3.068v-22.304c0-1.907-1.41-2.985-6.136-2.985
		c-4.643,0-6.136,1.078-6.136,2.985V222.158z"/>
	<path fill="#432D2C" d="M1349.349,241.643h-20.232c-14.593,0-21.226-5.721-21.226-17.744v-25.787
		c0-12.106,6.633-17.827,21.226-17.827h20.232c2.653,0,3.813,1.161,3.813,3.814v10.032c0,2.653-1.161,3.814-3.813,3.814h-16.667
		c-2.819,0-4.228,0.995-4.228,3.316v19.734c0,2.321,1.492,3.151,4.228,3.151h16.667c2.653,0,3.813,1.161,3.813,3.814v9.867
		C1353.162,240.483,1352.002,241.643,1349.349,241.643z"/>
	<path fill="#432D2C" d="M1364.685,241.643c-2.654,0-3.814-1.161-3.814-3.814V184.1c0-2.653,1.161-3.814,3.814-3.814h12.851
		c2.654,0,3.814,1.161,3.814,3.814v18.242h1.99l8.292-18.822c0.995-2.321,2.321-3.234,4.892-3.234h12.769
		c2.737,0,3.649,1.41,2.571,3.897l-7.96,18.242c5.97,0.829,9.784,5.307,9.784,12.022v23.382c0,2.653-1.161,3.814-3.814,3.814
		h-12.769c-2.654,0-3.814-1.161-3.814-3.814v-16.169c0-1.244-0.58-1.99-1.824-1.99h-10.116v18.159c0,2.653-1.161,3.814-3.814,3.814
		H1364.685z"/>
	<path fill="#432D2C" d="M1432.423,237.829v-39.882h-11.359c-2.653,0-3.814-1.161-3.814-3.814V184.1
		c0-2.653,1.162-3.814,3.814-3.814h43.779c2.654,0,3.814,1.161,3.814,3.814v10.032c0,2.653-1.161,3.814-3.814,3.814h-11.359v39.882
		c0,2.653-1.161,3.814-3.814,3.814h-13.432C1433.584,241.643,1432.423,240.483,1432.423,237.829z"/>
	<path fill="#432D2C" d="M1473.794,237.829v-41.043c0-10.364,4.395-17.744,25.953-17.744c21.641,0,26.119,7.38,26.119,17.744v41.043
		c0,2.653-1.162,3.814-3.814,3.814h-12.603c-2.654,0-3.814-1.161-3.814-3.814v-11.525h-12.022v11.525
		c0,2.653-1.162,3.814-3.814,3.814h-12.188C1474.955,241.643,1473.794,240.483,1473.794,237.829z M1493.611,209.472h12.022v-9.867
		c0-1.99-1.409-3.068-5.97-3.068c-4.643,0-6.053,1.078-6.053,3.068V209.472z"/>
	<path fill="#432D2C" d="M1552.312,241.643h-13.183c-2.654,0-3.814-1.161-3.814-3.814V184.1c0-2.653,1.161-3.814,3.814-3.814h13.183
		c2.654,0,3.814,1.161,3.814,3.814v53.729C1556.126,240.483,1554.965,241.643,1552.312,241.643z"/>
	<path fill="#432D2C" d="M1565.99,237.829V184.1c0-2.653,1.161-3.814,3.814-3.814h12.852c2.654,0,3.814,1.161,3.814,3.814v39.882
		h20.315c2.653,0,3.813,1.161,3.813,3.814v10.033c0,2.653-1.161,3.814-3.813,3.814h-36.98
		C1567.151,241.643,1565.99,240.483,1565.99,237.829z"/>
	<path fill="#432D2C" d="M1645.089,241.643h-26.201c-2.653,0-3.813-1.161-3.813-3.814v-9.701c0-2.653,1.161-3.814,3.813-3.814
		h22.305c0.912,0,1.326-0.746,1.326-1.576c0-1.244-0.414-1.907-1.409-1.99l-12.438-1.741c-8.291-1.244-13.598-4.809-13.598-14.593
		v-8.706c0-9.95,6.633-15.422,17.992-15.422h23.216c2.654,0,3.814,1.161,3.814,3.814v9.867c0,2.653-1.161,3.814-3.814,3.814h-19.319
		c-0.912,0-1.41,0.746-1.41,1.658c0,0.995,0.498,1.741,1.493,1.824l12.354,1.658c8.292,1.244,13.682,4.809,13.682,14.593v8.706
		C1663.082,236.171,1656.365,241.643,1645.089,241.643z"/>
	<g>
		<path fill="#FFFFFF" d="M1216.358,240.878c-13.93,0-20.397-5.389-20.397-16.915v-25.787c0-11.608,6.467-16.998,20.397-16.998
			h20.231c2.073,0,2.985,0.912,2.985,2.985v10.032c0,2.073-0.912,2.985-2.985,2.985h-16.666c-3.482,0-5.058,1.326-5.058,4.146
			v19.734c0,2.736,1.576,3.98,5.058,3.98h16.666c2.073,0,2.985,0.912,2.985,2.985v9.867c0,2.073-0.912,2.985-2.985,2.985H1216.358z"
			/>
		<path fill="#FFFFFF" d="M1273.402,242.122c-20.729,0-25.787-6.799-25.787-16.915v-28.274c0-10.115,5.058-16.997,25.787-16.997
			s25.704,6.882,25.704,16.997v28.274C1299.106,235.323,1294.131,242.122,1273.402,242.122z M1273.402,226.119
			c6.053,0,6.965-1.658,6.965-3.897v-22.304c0-2.156-0.912-3.814-6.965-3.814c-5.97,0-6.965,1.658-6.965,3.814v22.304
			C1266.437,224.461,1267.431,226.119,1273.402,226.119z"/>
		<path fill="#FFFFFF" d="M1329.117,240.878c-13.93,0-20.397-5.389-20.397-16.915v-25.787c0-11.608,6.467-16.998,20.397-16.998
			h20.232c2.073,0,2.984,0.912,2.984,2.985v10.032c0,2.073-0.912,2.985-2.984,2.985h-16.667c-3.482,0-5.058,1.326-5.058,4.146
			v19.734c0,2.736,1.576,3.98,5.058,3.98h16.667c2.073,0,2.984,0.912,2.984,2.985v9.867c0,2.073-0.912,2.985-2.984,2.985H1329.117z"
			/>
		<path fill="#FFFFFF" d="M1364.685,240.878c-2.073,0-2.985-0.912-2.985-2.985v-53.729c0-2.073,0.912-2.985,2.985-2.985h12.851
			c2.073,0,2.985,0.912,2.985,2.985v19.07h3.316l8.541-19.319c0.829-1.99,1.99-2.737,4.146-2.737h12.769
			c1.907,0,2.571,0.995,1.824,2.737l-8.457,19.319c6.219,0.332,10.199,4.643,10.199,11.276v23.382c0,2.073-0.912,2.985-2.985,2.985
			h-12.769c-2.073,0-2.985-0.912-2.985-2.985v-16.168c0-1.824-0.912-2.819-2.653-2.819h-10.945v18.988
			c0,2.073-0.913,2.985-2.985,2.985H1364.685z"/>
		<path fill="#FFFFFF" d="M1436.237,240.878c-2.073,0-2.985-0.912-2.985-2.985v-40.711h-12.188c-2.073,0-2.985-0.912-2.985-2.985
			v-10.032c0-2.073,0.913-2.985,2.985-2.985h43.779c2.073,0,2.985,0.912,2.985,2.985v10.032c0,2.073-0.912,2.985-2.985,2.985
			h-12.188v40.711c0,2.073-0.912,2.985-2.985,2.985H1436.237z"/>
		<path fill="#FFFFFF" d="M1489.797,240.878h-12.188c-2.073,0-2.985-0.912-2.985-2.985V196.85c0-10.032,4.561-16.915,25.124-16.915
			c20.646,0,25.29,6.882,25.29,16.915v41.043c0,2.073-0.913,2.985-2.985,2.985h-12.603c-2.073,0-2.985-0.912-2.985-2.985v-12.355
			h-13.682v12.355C1492.781,239.966,1491.869,240.878,1489.797,240.878z M1492.781,210.365h13.682v-10.697
			c0-2.238-0.995-3.897-6.799-3.897c-5.887,0-6.883,1.658-6.883,3.897V210.365z"/>
		<path fill="#FFFFFF" d="M1539.128,240.878c-2.073,0-2.985-0.912-2.985-2.985v-53.729c0-2.073,0.912-2.985,2.985-2.985h13.183
			c2.073,0,2.985,0.912,2.985,2.985v53.729c0,2.073-0.912,2.985-2.985,2.985H1539.128z"/>
		<path fill="#FFFFFF" d="M1585.641,184.164v40.711h21.144c2.073,0,2.984,0.912,2.984,2.985v10.033c0,2.073-0.912,2.985-2.984,2.985
			h-36.98c-2.073,0-2.985-0.912-2.985-2.985v-53.729c0-2.073,0.912-2.985,2.985-2.985h12.852
			C1584.729,181.179,1585.641,182.091,1585.641,184.164z"/>
		<path fill="#FFFFFF" d="M1618.887,240.878c-2.073,0-2.984-0.912-2.984-2.985v-9.701c0-2.073,0.912-2.985,2.984-2.985h22.305
			c1.409,0,2.155-1.078,2.155-2.405c0-1.907-0.746-2.653-2.155-2.819l-12.438-1.741c-7.794-1.161-12.851-4.477-12.851-13.764v-8.706
			c0-9.453,6.384-14.593,17.163-14.593h23.216c2.073,0,2.985,0.912,2.985,2.985v9.867c0,2.073-0.912,2.985-2.985,2.985h-19.319
			c-1.41,0-2.239,0.995-2.239,2.488c0,1.493,0.829,2.487,2.239,2.653l12.354,1.658c7.795,1.161,12.935,4.478,12.935,13.764v8.706
			c0,9.452-6.468,14.593-17.164,14.593H1618.887z"/>
	</g>
	<path fill="#27839E" d="M1232.029,233.479h-13.847c-10.779,0-13.266-2.985-13.266-10.696v-23.216
		c0-7.877,2.653-10.862,13.266-10.862h13.847v0.829h-13.847c-9.784,0-12.437,2.653-12.437,10.032v23.216
		c0,7.214,2.487,9.867,12.437,9.867h13.847V233.479z"/>
	<path fill="#27839E" d="M1273.235,234.558c-13.017,0-16.666-4.478-16.666-11.194v-24.46c0-6.716,3.649-11.193,16.666-11.193
		c13.018,0,16.832,4.478,16.832,11.193v24.46C1290.068,230.08,1286.253,234.558,1273.235,234.558z M1273.235,233.728
		c12.355,0,16.003-4.146,16.003-10.364v-24.46c0-6.219-3.649-10.365-16.003-10.365c-12.354,0-15.836,4.146-15.836,10.365v24.46
		C1257.399,229.583,1260.881,233.728,1273.235,233.728z"/>
	<path fill="#27839E" d="M1344.789,233.479h-13.847c-10.779,0-13.266-2.985-13.266-10.696v-23.216
		c0-7.877,2.653-10.862,13.266-10.862h13.847v0.829h-13.847c-9.784,0-12.437,2.653-12.437,10.032v23.216
		c0,7.214,2.487,9.867,12.437,9.867h13.847V233.479z"/>
	<path fill="#27839E" d="M1370.737,233.479v-44.774h0.829v22.056h17.992l9.535-22.056h0.912l-9.536,22.056h3.4
		c6.799,0,10.033,2.322,10.033,8.126v14.593h-0.829v-14.593c0-5.307-3.068-7.297-9.204-7.297h-22.304v21.89H1370.737z"/>
	<path fill="#27839E" d="M1442.539,189.535h-16.998v-0.829h34.824v0.829h-16.998v43.945h-0.829V189.535z"/>
	<path fill="#27839E" d="M1515.335,218.472h-30.762v15.007h-0.829v-34.576c0-6.716,3.067-11.193,16.086-11.193
		c13.017,0,16.334,4.478,16.334,11.193v34.576h-0.829V218.472z M1484.573,217.643h30.762v-18.739
		c0-6.219-3.151-10.365-15.505-10.365c-12.355,0-15.257,4.146-15.257,10.365V217.643z"/>
	<path fill="#27839E" d="M1546.176,188.705v44.774h-0.829v-44.774H1546.176z"/>
	<path fill="#27839E" d="M1576.686,188.705v43.945h25.621v0.829h-26.45v-44.774H1576.686z"/>
	<path fill="#27839E" d="M1651.806,189.535h-18.408c-4.643,0-7.628,2.819-7.628,6.716v6.799c0,3.897,1.658,5.058,4.228,5.555
		l17.496,3.565c3.316,0.663,5.721,2.322,5.721,8.126v4.809c0,4.892-3.566,8.374-9.204,8.374h-20.646v-0.829h20.646
		c5.141,0,8.375-3.151,8.375-7.545v-4.809c0-5.224-1.99-6.633-5.058-7.297l-17.496-3.565c-2.901-0.58-4.892-1.824-4.892-6.384
		v-6.799c0-4.394,3.317-7.545,8.458-7.545h18.408V189.535z"/>
</g>
<g>
	<path fill="#D94126" d="M1198.024,157.509v-32.424c0-1.601,0.701-2.302,2.302-2.302h7.756c1.601,0,2.302,0.7,2.302,2.302v10.358
		h7.355v-10.358c0-1.601,0.7-2.302,2.302-2.302h7.756c1.601,0,2.302,0.7,2.302,2.302v32.424c0,1.601-0.7,2.302-2.302,2.302h-7.756
		c-1.601,0-2.302-0.7-2.302-2.302v-10.608h-7.355v10.608c0,1.601-0.7,2.302-2.302,2.302h-7.756
		C1198.725,159.811,1198.024,159.11,1198.024,157.509z M1209.884,157.509v-11.108h8.356v11.108c0,1.251,0.55,1.801,1.801,1.801
		h7.756c1.251,0,1.802-0.551,1.802-1.801v-32.424c0-1.251-0.551-1.801-1.802-1.801h-7.756c-1.251,0-1.801,0.551-1.801,1.801v10.858
		h-8.356v-10.858c0-1.251-0.551-1.801-1.802-1.801h-7.756c-1.251,0-1.802,0.551-1.802,1.801v32.424c0,1.251,0.551,1.801,1.802,1.801
		h7.756C1209.333,159.311,1209.884,158.76,1209.884,157.509z M1203.928,127.786h0.501v13.26h19.215v-13.26h0.5v27.021h-0.5v-13.26
		h-19.215v13.26h-0.501V127.786z"/>
	<path fill="#D94126" d="M1267.526,149.853c0,6.305-2.902,10.708-16.012,10.708c-13.11,0-16.062-4.404-16.062-10.708V132.79
		c0-6.305,2.952-10.758,16.062-10.758c13.11,0,16.012,4.453,16.012,10.758V149.853z M1267.026,132.79
		c0-6.104-3.002-10.258-15.512-10.258c-12.509,0-15.562,4.153-15.562,10.258v17.063c0,6.105,3.052,10.208,15.562,10.208
		c12.51,0,15.512-4.103,15.512-10.208V132.79z M1251.414,155.457c-7.856,0-10.058-2.702-10.058-6.755v-14.761
		c0-4.053,2.202-6.755,10.058-6.755c7.856,0,10.157,2.702,10.157,6.755v14.761C1261.571,152.756,1259.27,155.457,1251.414,155.457z
		 M1251.414,154.957c7.456,0,9.657-2.502,9.657-6.255v-14.761c0-3.753-2.202-6.254-9.657-6.254c-7.456,0-9.557,2.501-9.557,6.254
		v14.761C1241.857,152.455,1243.958,154.957,1251.414,154.957z M1247.311,134.592c0-1.301,0.6-2.302,4.203-2.302
		c3.653,0,4.203,1,4.203,2.302v13.46c0,1.351-0.551,2.352-4.203,2.352c-3.603,0-4.203-1.001-4.203-2.352V134.592z M1247.811,148.052
		c0,1.201,0.851,1.851,3.703,1.851c2.852,0,3.703-0.651,3.703-1.851v-13.46c0-1.151-0.851-1.801-3.703-1.801
		c-2.802,0-3.703,0.651-3.703,1.801V148.052z"/>
	<path fill="#D94126" d="M1279.736,157.509v-24.068h-6.855c-1.601,0-2.302-0.7-2.302-2.302v-6.055c0-1.601,0.701-2.302,2.302-2.302
		h26.421c1.6,0,2.302,0.7,2.302,2.302v6.055c0,1.601-0.702,2.302-2.302,2.302h-6.856v24.068c0,1.601-0.7,2.302-2.302,2.302h-8.106
		C1280.436,159.811,1279.736,159.11,1279.736,157.509z M1291.945,157.509V132.94h7.356c1.25,0,1.801-0.55,1.801-1.801v-6.055
		c0-1.251-0.551-1.801-1.801-1.801h-26.421c-1.251,0-1.802,0.551-1.802,1.801v6.055c0,1.251,0.551,1.801,1.802,1.801h7.355v24.569
		c0,1.251,0.55,1.801,1.801,1.801h8.106C1291.395,159.311,1291.945,158.76,1291.945,157.509z M1285.84,128.287h-10.257v-0.501
		h21.016v0.501h-10.258v26.52h-0.5V128.287z"/>
	<path fill="#D94126" d="M1316.212,157.509v-32.424c0-1.601,0.7-2.302,2.302-2.302h22.317c1.601,0,2.302,0.7,2.302,2.302v5.954
		c0,1.601-0.701,2.302-2.302,2.302h-12.259v4.203h8.206c1.601,0,2.302,0.7,2.302,2.302v6.004c0,1.601-0.701,2.302-2.302,2.302
		h-8.206v9.357c0,1.601-0.701,2.302-2.302,2.302h-7.756C1316.912,159.811,1316.212,159.11,1316.212,157.509z M1328.072,157.509
		v-9.857h8.707c1.251,0,1.802-0.551,1.802-1.801v-6.004c0-1.251-0.551-1.801-1.802-1.801h-8.707v-5.204h12.759
		c1.251,0,1.802-0.551,1.802-1.801v-5.954c0-1.251-0.551-1.801-1.802-1.801h-22.317c-1.25,0-1.801,0.551-1.801,1.801v32.424
		c0,1.251,0.551,1.801,1.801,1.801h7.756C1327.521,159.311,1328.072,158.76,1328.072,157.509z M1322.167,127.786h15.962v0.501
		h-15.462v14.311h11.409v0.5h-11.409v11.709h-0.5V127.786z"/>
	<path fill="#D94126" d="M1349.436,159.811c-1.601,0-2.302-0.7-2.302-2.302v-32.424c0-1.601,0.7-2.302,2.302-2.302h16.663
		c7.956,0,10.358,3.653,10.358,8.857v2.302c0,2.452-0.551,4.303-1.951,5.454c3.152,0.901,5.203,3.553,5.203,7.506v10.608
		c0,1.601-0.7,2.302-2.302,2.302h-7.755c-1.601,0-2.302-0.7-2.302-2.302v-7.656c0-1.101-0.35-1.651-1.401-1.651h-6.505v9.307
		c0,1.601-0.7,2.302-2.302,2.302H1349.436z M1358.944,157.509v-9.808h7.006c1.401,0,1.901,0.651,1.901,2.152v7.656
		c0,1.251,0.551,1.801,1.802,1.801h7.755c1.251,0,1.802-0.551,1.802-1.801v-10.608c0-4.203-2.401-6.855-6.055-7.256
		c2.101-0.901,2.802-2.902,2.802-5.704v-2.302c0-4.954-2.351-8.356-9.857-8.356h-16.663c-1.251,0-1.801,0.551-1.801,1.801v32.424
		c0,1.251,0.55,1.801,1.801,1.801h7.706C1358.393,159.311,1358.944,158.76,1358.944,157.509z M1353.039,154.807v-27.021h11.409
		c3.903,0,5.704,2.402,5.704,5.704v3.453c0,3.052-0.601,5.054-3.002,5.805h0.551c4.103,0,6.055,1.851,6.055,5.354v6.705h-0.5v-6.705
		c0-3.303-1.752-4.904-5.554-4.904h-14.161v11.609H1353.039z M1353.539,128.287v14.461h10.909c4.153,0,5.204-2.052,5.204-5.754
		v-3.503c0-3.102-1.651-5.204-5.204-5.204H1353.539z M1362.697,132.29c1.751,0,2.202,1,2.202,2.352v1.701
		c0,1.351-0.451,2.352-2.202,2.352h-3.753v-6.405H1362.697z M1359.444,132.79v5.404h3.253c1.401,0,1.701-0.801,1.701-1.851v-1.701
		c0-1.051-0.3-1.851-1.701-1.851H1359.444z"/>
	<path fill="#D94126" d="M1384.313,157.509v-32.424c0-1.601,0.7-2.302,2.302-2.302h23.218c1.601,0,2.302,0.7,2.302,2.302v5.854
		c0,1.601-0.7,2.302-2.302,2.302h-13.31v2.852h9.257c1.601,0,2.302,0.7,2.302,2.302v5.354c0,1.601-0.7,2.302-2.302,2.302h-9.257
		v3.303h13.31c1.601,0,2.302,0.7,2.302,2.302v5.854c0,1.601-0.7,2.302-2.302,2.302h-23.218
		C1385.013,159.811,1384.313,159.11,1384.313,157.509z M1411.634,157.509v-5.854c0-1.251-0.551-1.801-1.802-1.801h-13.81v-4.303
		h9.757c1.251,0,1.802-0.551,1.802-1.801v-5.354c0-1.251-0.551-1.801-1.802-1.801h-9.757v-3.853h13.81
		c1.251,0,1.802-0.551,1.802-1.801v-5.854c0-1.251-0.551-1.801-1.802-1.801h-23.218c-1.25,0-1.801,0.551-1.801,1.801v32.424
		c0,1.251,0.551,1.801,1.801,1.801h23.218C1411.083,159.311,1411.634,158.76,1411.634,157.509z M1407.13,154.807h-16.863v-27.021
		h16.863v0.501h-16.362v12.56h12.31v0.5h-12.31v12.96h16.362V154.807z"/>
	<path fill="#D94126" d="M1434.25,159.811h-15.812c-1.601,0-2.303-0.7-2.303-2.302v-5.854c0-1.601,0.702-2.302,2.303-2.302h13.46
		c0.551,0,0.8-0.45,0.8-0.951c0-0.751-0.25-1.151-0.85-1.201l-7.506-1.051c-5.004-0.751-8.206-2.902-8.206-8.807v-5.254
		c0-6.004,4.004-9.307,10.858-9.307h14.011c1.601,0,2.302,0.7,2.302,2.302v5.954c0,1.601-0.7,2.302-2.302,2.302h-11.659
		c-0.551,0-0.85,0.45-0.85,1.001c0,0.6,0.3,1.051,0.901,1.101l7.456,1.001c5.004,0.751,8.257,2.902,8.257,8.807v5.254
		C1445.109,156.509,1441.055,159.811,1434.25,159.811z M1444.607,150.504v-5.254c0-5.604-3.102-7.606-7.806-8.307l-7.456-1
		c-0.85-0.1-1.351-0.7-1.351-1.601s0.5-1.501,1.351-1.501h11.659c1.251,0,1.801-0.551,1.801-1.801v-5.954
		c0-1.251-0.55-1.801-1.801-1.801h-14.011c-6.505,0-10.357,3.102-10.357,8.807v5.254c0,5.604,3.052,7.606,7.755,8.306l7.506,1.051
		c0.85,0.1,1.301,0.551,1.301,1.701c0,0.801-0.451,1.451-1.301,1.451h-13.46c-1.251,0-1.802,0.551-1.802,1.801v5.854
		c0,1.251,0.551,1.801,1.802,1.801h15.812C1440.704,159.311,1444.607,156.208,1444.607,150.504z M1438.303,128.287h-11.109
		c-2.802,0-4.603,1.701-4.603,4.053v4.103c0,2.352,1.001,3.052,2.552,3.352l10.558,2.152c2.001,0.401,3.452,1.401,3.452,4.904v2.902
		c0,2.952-2.152,5.054-5.554,5.054h-12.459v-0.501h12.459c3.103,0,5.054-1.901,5.054-4.554v-2.902c0-3.152-1.201-4.003-3.052-4.403
		l-10.558-2.152c-1.751-0.35-2.952-1.101-2.952-3.853v-4.103c0-2.652,2.002-4.554,5.104-4.554h11.109V128.287z"/>
	<path fill="#D94126" d="M1449.561,157.509v-32.424c0-1.601,0.701-2.302,2.302-2.302h7.756c1.601,0,2.302,0.7,2.302,2.302v10.358
		h7.356v-10.358c0-1.601,0.7-2.302,2.302-2.302h7.755c1.601,0,2.302,0.7,2.302,2.302v32.424c0,1.601-0.7,2.302-2.302,2.302h-7.755
		c-1.601,0-2.302-0.7-2.302-2.302v-10.608h-7.356v10.608c0,1.601-0.7,2.302-2.302,2.302h-7.756
		C1450.261,159.811,1449.561,159.11,1449.561,157.509z M1461.421,157.509v-11.108h8.356v11.108c0,1.251,0.551,1.801,1.802,1.801
		h7.755c1.251,0,1.802-0.551,1.802-1.801v-32.424c0-1.251-0.551-1.801-1.802-1.801h-7.755c-1.251,0-1.802,0.551-1.802,1.801v10.858
		h-8.356v-10.858c0-1.251-0.551-1.801-1.802-1.801h-7.756c-1.25,0-1.801,0.551-1.801,1.801v32.424c0,1.251,0.551,1.801,1.801,1.801
		h7.756C1460.87,159.311,1461.421,158.76,1461.421,157.509z M1455.466,127.786h0.5v13.26h19.215v-13.26h0.501v27.021h-0.501v-13.26
		h-19.215v13.26h-0.5V127.786z"/>
	<path fill="#D94126" d="M1498.796,157.509v-32.424c0-1.601,0.701-2.302,2.302-2.302h15.312c9.558,0,12.31,4.203,12.31,10.257v6.405
		c0,6.055-2.752,10.258-12.31,10.258h-5.254v7.806c0,1.601-0.7,2.302-2.302,2.302h-7.756
		C1499.497,159.811,1498.796,159.11,1498.796,157.509z M1510.656,157.509v-8.306h5.754c9.107,0,11.809-3.953,11.809-9.758v-6.405
		c0-5.804-2.702-9.757-11.809-9.757h-15.312c-1.251,0-1.801,0.551-1.801,1.801v32.424c0,1.251,0.55,1.801,1.801,1.801h7.756
		C1510.105,159.311,1510.656,158.76,1510.656,157.509z M1505.401,144.949v9.858h-0.5v-27.021h10.808
		c6.305,0,7.506,2.903,7.506,6.805v3.703c0,3.903-1.201,6.655-7.506,6.655H1505.401z M1515.709,144.449
		c5.905,0,7.006-2.552,7.006-6.155v-3.703c0-3.603-1.101-6.305-7.006-6.305h-10.308v16.162H1515.709z M1515.059,132.64
		c1.951,0,2.352,1.151,2.352,2.452v2.652c0,1.301-0.401,2.452-2.352,2.452h-4.504v-7.556H1515.059z M1511.056,133.141v6.555h4.003
		c1.551,0,1.852-0.951,1.852-1.951v-2.652c0-1-0.301-1.951-1.852-1.951H1511.056z"/>
	<path fill="#D94126" d="M1532.122,157.509v-5.954c0-1.601,0.7-2.302,2.302-2.302h4.453v-15.812h-4.453
		c-1.601,0-2.302-0.7-2.302-2.302v-6.055c0-1.601,0.7-2.302,2.302-2.302h21.316c1.601,0,2.302,0.7,2.302,2.302v6.055
		c0,1.601-0.701,2.302-2.302,2.302h-4.353v15.812h4.353c1.601,0,2.302,0.7,2.302,2.302v5.954c0,1.601-0.701,2.302-2.302,2.302
		h-21.316C1532.822,159.811,1532.122,159.11,1532.122,157.509z M1555.74,159.311c1.251,0,1.802-0.551,1.802-1.801v-5.954
		c0-1.251-0.551-1.801-1.802-1.801h-4.854V132.94h4.854c1.251,0,1.802-0.55,1.802-1.801v-6.055c0-1.251-0.551-1.801-1.802-1.801
		h-21.316c-1.251,0-1.802,0.551-1.802,1.801v6.055c0,1.251,0.551,1.801,1.802,1.801h4.954v16.813h-4.954
		c-1.251,0-1.802,0.551-1.802,1.801v5.954c0,1.251,0.551,1.801,1.802,1.801H1555.74z M1537.126,154.807v-0.501h7.755v-26.02h-7.755
		v-0.501h15.911v0.501h-7.656v26.02h7.656v0.501H1537.126z"/>
	<path fill="#D94126" d="M1562.044,157.509v-6.705c0-1.451,0.401-2.402,1.351-3.403l11.509-13.961h-9.658
		c-1.601,0-2.302-0.7-2.302-2.302v-6.055c0-1.601,0.701-2.302,2.302-2.302h23.017c1.602,0,2.303,0.7,2.303,2.302v7.456
		c0,1.501-0.401,2.452-1.352,3.453l-10.958,13.26h10.908c1.601,0,2.302,0.7,2.302,2.302v5.954c0,1.601-0.7,2.302-2.302,2.302
		h-24.818C1562.744,159.811,1562.044,159.11,1562.044,157.509z M1590.965,157.509v-5.954c0-1.251-0.551-1.801-1.802-1.801h-11.958
		l11.608-14.06c0.901-0.951,1.251-1.801,1.251-3.153v-7.456c0-1.251-0.551-1.801-1.802-1.801h-23.017
		c-1.251,0-1.802,0.551-1.802,1.801v6.055c0,1.251,0.551,1.801,1.802,1.801h10.708l-12.16,14.761
		c-0.901,0.951-1.251,1.801-1.251,3.103v6.705c0,1.251,0.551,1.801,1.802,1.801h24.818
		C1590.415,159.311,1590.965,158.76,1590.965,157.509z M1569.249,150.904c-0.5,0.601-0.7,0.901-0.7,1.551v0.7
		c0,0.951,0.5,1.151,1.051,1.151h16.864v0.501h-16.864c-1.1,0-1.551-0.501-1.551-1.652v-0.801c0-0.75,0.35-1.251,0.85-1.851
		l14.661-18.815c0.5-0.6,0.7-0.9,0.7-1.551v-0.7c0-0.951-0.5-1.151-1.051-1.151h-15.261v-0.501h15.261
		c1.101,0,1.551,0.501,1.551,1.652v0.801c0,0.75-0.35,1.251-0.85,1.851L1569.249,150.904z"/>
	<path fill="#D94126" d="M1594.818,157.509v-6.705c0-1.451,0.401-2.402,1.351-3.403l11.509-13.961h-9.658
		c-1.601,0-2.302-0.7-2.302-2.302v-6.055c0-1.601,0.7-2.302,2.302-2.302h23.018c1.6,0,2.302,0.7,2.302,2.302v7.456
		c0,1.501-0.401,2.452-1.352,3.453l-10.958,13.26h10.908c1.601,0,2.303,0.7,2.303,2.302v5.954c0,1.601-0.701,2.302-2.303,2.302
		h-24.818C1595.518,159.811,1594.818,159.11,1594.818,157.509z M1623.74,157.509v-5.954c0-1.251-0.551-1.801-1.802-1.801h-11.958
		l11.608-14.06c0.901-0.951,1.251-1.801,1.251-3.153v-7.456c0-1.251-0.551-1.801-1.801-1.801h-23.018
		c-1.251,0-1.802,0.551-1.802,1.801v6.055c0,1.251,0.551,1.801,1.802,1.801h10.708l-12.16,14.761
		c-0.901,0.951-1.251,1.801-1.251,3.103v6.705c0,1.251,0.551,1.801,1.802,1.801h24.818
		C1623.189,159.311,1623.74,158.76,1623.74,157.509z M1602.023,150.904c-0.5,0.601-0.701,0.901-0.701,1.551v0.7
		c0,0.951,0.501,1.151,1.051,1.151h16.864v0.501h-16.864c-1.1,0-1.551-0.501-1.551-1.652v-0.801c0-0.75,0.35-1.251,0.85-1.851
		l14.662-18.815c0.5-0.6,0.7-0.9,0.7-1.551v-0.7c0-0.951-0.5-1.151-1.051-1.151h-15.261v-0.501h15.261
		c1.101,0,1.551,0.501,1.551,1.652v0.801c0,0.75-0.35,1.251-0.85,1.851L1602.023,150.904z"/>
	<path fill="#D94126" d="M1628.243,157.509v-13.21c0-2.052,0.6-4.604,2.001-8.206l4.354-11.309c0.45-1.401,1.401-2.001,3.002-2.001
		h13.46c1.552,0,2.502,0.6,2.953,1.951l4.353,11.358c1.401,3.603,2.002,6.155,2.002,8.206v13.21c0,1.601-0.7,2.302-2.302,2.302
		h-7.556c-1.701,0-2.452-0.75-2.452-2.302v-6.505h-7.856v6.505c0,1.601-0.7,2.302-2.302,2.302h-7.355
		C1628.944,159.811,1628.243,159.11,1628.243,157.509z M1639.701,150.504h8.857v7.005c0,1.251,0.601,1.801,1.951,1.801h7.556
		c1.251,0,1.802-0.551,1.802-1.801v-13.21c0-2.002-0.601-4.504-1.951-8.006l-4.354-11.359c-0.4-1.151-1.201-1.651-2.502-1.651
		h-13.46c-1.351,0-2.152,0.5-2.552,1.651l-4.353,11.359c-1.352,3.502-1.951,6.004-1.951,8.006v13.21
		c0,1.251,0.551,1.801,1.802,1.801h7.355c1.251,0,1.802-0.551,1.802-1.801V150.504z M1654.063,146.2h-19.515v8.607h-0.5v-10.658
		c0-1.851,0.3-3.402,0.85-4.853l3.202-8.206c0.751-1.851,1.352-3.303,3.653-3.303h4.903c2.202,0,2.802,1.401,3.603,3.353
		l3.452,8.156c0.551,1.451,0.851,3.002,0.851,4.853v10.658h-0.5V146.2z M1634.547,145.7h19.515v-1.551
		c0-1.801-0.301-3.302-0.801-4.653l-3.453-8.157c-0.75-1.751-1.3-3.052-3.152-3.052h-4.903c-2.002,0-2.552,1.301-3.203,3.002
		l-3.202,8.206c-0.5,1.351-0.801,2.852-0.801,4.653V145.7z M1643.505,132.94h1.251c0.401,0,0.701,0.251,0.95,0.851l2.352,7.606
		h-7.856l2.352-7.606C1642.804,133.191,1643.104,132.94,1643.505,132.94z M1645.256,133.991c-0.15-0.3-0.251-0.551-0.5-0.551h-1.251
		c-0.25,0-0.35,0.25-0.5,0.551l0.049-0.05l-2.152,6.955h6.455l-2.152-6.955L1645.256,133.991z"/>
</g>
<g>
	<path fill="#432D2C" d="M1207.891,344.346l-9.298-23.246c-2.372-5.882-3.131-7.685-3.131-13.853v-25.048
		c0-1.708,0.475-2.751,1.329-3.51l12.239-10.342c0.664-0.569,1.708-0.854,3.036-0.854h15.086c3.036,0,4.649,1.423,4.649,4.364
		v26.187c0,1.233,0.285,2.277,0.664,3.605l0.285,0.664v-20.114c0-1.708,0.475-2.751,1.329-3.51l12.239-10.342
		c0.664-0.569,1.708-0.854,3.036-0.854h14.896c3.131,0,4.364,1.328,4.364,4.364v25.048c0,6.167-0.759,7.969-3.131,13.852
		l-9.298,23.245c-0.379,1.139-1.043,1.993-1.708,2.562l-12.24,10.151c-1.043,0.949-2.277,1.329-3.985,1.329h-24.668
		C1210.643,348.046,1209.03,347.097,1207.891,344.346z"/>
	<path fill="#432D2C" d="M1282.091,348.046h-13.947c-3.036,0-4.365-1.329-4.365-4.365v-25.048c0-3.89,1.139-8.729,3.795-15.56
		l8.16-21.443c0.379-1.138,0.949-1.897,1.613-2.562l0.095-0.095l12.145-10.152c1.043-0.949,2.372-1.328,4.175-1.328h25.522
		c2.94,0,4.743,1.139,5.598,3.7l8.254,21.538c2.657,6.832,3.796,11.67,3.796,15.56v25.048c0,1.708-0.475,2.752-1.328,3.511
		l-12.335,10.247c-0.569,0.569-1.612,0.949-2.941,0.949h-14.326c-3.227,0-4.649-1.424-4.649-4.365v-12.334h-2.656v1.992
		c0,1.708-0.475,2.752-1.328,3.511l-12.335,10.247C1284.463,347.666,1283.42,348.046,1282.091,348.046z"/>
	<path fill="#432D2C" d="M1357.714,348.046c-16.698,0-24.289-9.394-24.289-23.151v-26.661c0-7.021,1.993-12.05,5.978-15.465
		l12.334-10.342c3.891-3.321,9.963-4.934,18.217-4.934h23.151c3.036,0,4.364,1.328,4.364,4.364v11.48
		c0,1.708-0.475,2.751-1.328,3.511l-12.335,10.247c-0.569,0.569-1.612,0.949-2.941,0.949h-11.67v16.035
		c0,2.656,1.708,3.605,4.839,3.605h19.071c3.036,0,4.364,1.328,4.364,4.364v11.29c0,1.708-0.475,2.752-1.328,3.511l-12.335,10.247
		c-0.569,0.569-1.612,0.949-2.941,0.949H1357.714z"/>
	<path fill="#432D2C" d="M1410.944,348.046h-13.947c-3.036,0-4.364-1.329-4.364-4.365v-25.048c0-3.89,1.139-8.729,3.795-15.56
		l8.159-21.443c0.38-1.138,0.949-1.897,1.613-2.562l0.095-0.095l12.145-10.152c1.044-0.949,2.372-1.328,4.175-1.328h25.522
		c2.941,0,4.744,1.139,5.598,3.7l8.255,21.538c2.656,6.832,3.795,11.67,3.795,15.56v25.048c0,1.708-0.475,2.752-1.328,3.511
		l-12.334,10.247c-0.569,0.569-1.613,0.949-2.941,0.949h-14.327c-3.226,0-4.648-1.424-4.648-4.365v-12.334h-2.657v1.992
		c0,1.708-0.475,2.752-1.328,3.511l-12.334,10.247C1413.316,347.666,1412.272,348.046,1410.944,348.046z"/>
	<path fill="#432D2C" d="M1484.86,347.097c-0.569,0.569-1.613,0.949-2.941,0.949h-14.232c-3.036,0-4.364-1.329-4.364-4.365v-61.481
		c0-1.708,0.475-2.751,1.328-3.51l12.239-10.342c0.665-0.569,1.708-0.854,3.036-0.854h9.868c2.751,0,4.459,0.759,6.356,2.846
		l6.547,7.59l11.48-9.583c0.664-0.569,1.708-0.854,3.036-0.854h14.231c3.036,0,4.364,1.328,4.364,4.364v61.481
		c0,1.708-0.474,2.752-1.328,3.511l-12.334,10.247c-0.569,0.569-1.613,0.949-2.941,0.949h-14.231c-3.036,0-4.365-1.329-4.365-4.365
		v-11.29l-2.087-2.562v3.51c0,1.708-0.475,2.752-1.328,3.511L1484.86,347.097z"/>
	<path fill="#432D2C" d="M1558.015,348.046c-16.698,0-24.289-9.394-24.289-23.151v-26.661c0-7.021,1.993-12.05,5.978-15.465
		l12.334-10.342c3.891-3.321,9.963-4.934,18.217-4.934h23.151c3.036,0,4.364,1.328,4.364,4.364v11.48
		c0,1.708-0.475,2.751-1.328,3.511l-12.335,10.247c-0.569,0.569-1.612,0.949-2.941,0.949h-11.67v16.035
		c0,2.656,1.708,3.605,4.839,3.605h19.071c3.036,0,4.364,1.328,4.364,4.364v11.29c0,1.708-0.475,2.752-1.328,3.511l-12.335,10.247
		c-0.569,0.569-1.612,0.949-2.941,0.949H1558.015z"/>
	<path fill="#432D2C" d="M1614.565,348.046c-3.131,0-4.364-1.329-4.364-4.365v-11.859l-14.326-19.166
		c-3.036-4.079-3.796-6.072-3.796-12.239v-18.217c0-1.708,0.475-2.751,1.329-3.51l12.239-10.342
		c0.664-0.569,1.707-0.854,3.036-0.854h14.611c3.036,0,4.364,1.328,4.364,4.364v15.561c0,1.138,0,2.277,0.664,3.51l1.139,1.613
		v-10.342c0-1.708,0.475-2.751,1.328-3.51l12.239-10.342c0.664-0.569,1.708-0.854,3.036-0.854h14.138
		c3.035,0,4.364,1.328,4.364,4.364v18.217c0,6.167-0.76,8.16-3.796,12.239l-14.231,19.261v11.765c0,1.708-0.475,2.752-1.328,3.511
		l-12.335,10.247c-0.568,0.569-1.612,0.949-2.94,0.949H1614.565z"/>
	<path fill="#FFFFFF" d="M1220.32,277.041v20.494c0,3.321,0.475,6.262,1.518,8.824l6.262,15.181c1.328,3.32,2.372,5.787,5.978,5.787
		h8.349c3.605,0,4.649-2.467,5.978-5.787l6.262-15.181c1.044-2.562,1.518-5.503,1.518-8.824v-20.494h0.949v20.494
		c0,3.51-0.38,6.452-1.518,9.203l-6.262,15.181c-1.518,3.701-2.941,6.357-6.926,6.357h-8.349c-3.985,0-5.408-2.656-6.926-6.357
		l-6.262-15.181c-1.139-2.751-1.518-5.692-1.518-9.203v-20.494H1220.32z"/>
	<path fill="#FFFFFF" d="M1324.977,311.956h-37.003v16.319h-0.948v-20.209c0-3.511,0.568-6.452,1.612-9.204l6.072-15.56
		c1.423-3.511,2.562-6.262,6.927-6.262h9.298c4.175,0,5.313,2.657,6.831,6.357l6.547,15.465c1.044,2.751,1.613,5.693,1.613,9.204
		v20.209h-0.949V311.956z M1287.974,311.008h37.003v-2.941c0-3.416-0.569-6.263-1.518-8.824l-6.547-15.465
		c-1.424-3.321-2.467-5.788-5.978-5.788h-9.298c-3.796,0-4.839,2.467-6.072,5.693l-6.072,15.56
		c-0.949,2.562-1.519,5.408-1.519,8.824V311.008z"/>
	<path fill="#FFFFFF" d="M1387.886,328.275h-15.845c-12.334,0-15.181-3.416-15.181-12.239V289.47
		c0-9.014,3.036-12.429,15.181-12.429h15.845v0.949h-15.845c-11.195,0-14.232,3.036-14.232,11.48v26.566
		c0,8.254,2.847,11.29,14.232,11.29h15.845V328.275z"/>
	<path fill="#FFFFFF" d="M1453.83,311.956h-37.003v16.319h-0.949v-20.209c0-3.511,0.569-6.452,1.613-9.204l6.072-15.56
		c1.423-3.511,2.562-6.262,6.926-6.262h9.298c4.175,0,5.313,2.657,6.832,6.357l6.546,15.465c1.044,2.751,1.613,5.693,1.613,9.204
		v20.209h-0.948V311.956z M1416.827,311.008h37.003v-2.941c0-3.416-0.569-6.263-1.519-8.824l-6.547-15.465
		c-1.423-3.321-2.467-5.788-5.978-5.788h-9.298c-3.795,0-4.839,2.467-6.072,5.693l-6.072,15.56
		c-0.948,2.562-1.518,5.408-1.518,8.824V311.008z"/>
	<path fill="#FFFFFF" d="M1523.95,317.08v-40.04h0.948v51.235h-0.948v-9.772l-35.864-40.229c-0.189-0.189-0.285-0.285-0.475-0.285
		s-0.189,0.19-0.189,0.285v50.001h-0.949v-50.191c0-0.759,0.569-1.139,1.139-1.139s0.759,0.189,1.423,0.854L1523.95,317.08z"/>
	<path fill="#FFFFFF" d="M1588.187,328.275h-15.845c-12.334,0-15.181-3.416-15.181-12.239V289.47
		c0-9.014,3.036-12.429,15.181-12.429h15.845v0.949h-15.845c-11.195,0-14.232,3.036-14.232,11.48v26.566
		c0,8.254,2.847,11.29,14.232,11.29h15.845V328.275z"/>
	<path fill="#FFFFFF" d="M1634.965,312.051v16.225h-0.949v-16.225h-0.948c-2.752,0-4.839-1.139-6.927-3.984l-9.203-12.809
		c-1.423-1.897-1.423-4.554-1.423-7.306v-10.911h0.948v10.911c0,2.657,0.096,5.029,1.329,6.926l9.203,12.809
		c1.708,2.562,3.89,3.416,6.072,3.416h2.562c2.372,0,4.27-0.949,6.167-3.416l9.488-12.809c1.328-1.708,1.328-4.27,1.328-6.926
		v-10.911h0.949v10.911c0,2.751,0.095,5.313-1.424,7.306l-9.487,12.809c-2.088,2.751-4.08,3.984-7.021,3.984H1634.965z"/>
</g>
</svg>
