<?xml version="1.0" encoding="utf-8"?>
<!-- Generator: Adobe Illustrator 19.2.0, SVG Export Plug-In . SVG Version: 6.00 Build 0)  -->
<!DOCTYPE svg PUBLIC "-//W3C//DTD SVG 1.1//EN" "http://www.w3.org/Graphics/SVG/1.1/DTD/svg11.dtd">
<svg version="1.1" id="Layer_1" xmlns="http://www.w3.org/2000/svg" xmlns:xlink="http://www.w3.org/1999/xlink" x="0px" y="0px"
	 viewBox="0 0 780 1000" style="enable-background:new 0 0 780 1000;" xml:space="preserve">
<style type="text/css">
	.st0{fill:#CABC6C;}
	.st1{fill:#25839E;}
	.st2{fill:#771F15;stroke:#432D2C;stroke-width:5;}
	.st3{fill:#ECDFC1;}
	.st4{fill:#9C5134;}
	.st5{fill:#F6ECCC;}
	.st6{fill:#DC4227;stroke:#ECDFC1;}
	.st7{fill:#762117;stroke:#ECDFC1;}
	.st8{fill:#432D2C;stroke:#ECDFC1;stroke-width:1.42;}
	.st9{fill:#FFFFFF;}
</style>
<g>
	<path class="st0" d="M413.25,919.9v51.9c0,5.3-2.3,7.6-7.6,7.6h-19.2c-5.3,0-7.6-2.3-7.6-7.6v-44.2c0-1.8-1.5-2.6-3.1-2.6
		c-2.5,0-3.8,0.8-3.9,2.8l-3.5,24.7c-2.5,16.4-9.5,27-28.9,27h-17.2c-19.7,0-30.6-13.1-30.6-35.7v-46c0-5.3,2.3-7.6,7.6-7.6h19.6
		c5.3,0,7.6,2.3,7.6,7.6v38.3c0,1.8,1.5,2.8,3.3,2.8c2,0,3.5-1,3.6-3l3.3-24.5c2.5-16.4,9.5-27.1,28.9-27.1h17.3
		C402.35,884.2,413.25,897.6,413.25,919.9z"/>
	<path class="st0" d="M405.65,869.6h-106.5c-5.3,0-7.6-2.3-7.6-7.6v-50.3c0-31.4,13.8-40.4,33.7-40.4h21c19.9,0,33.7,9,33.7,40.4
		V829h25.6c5.3,0,7.6,2.3,7.6,7.6v25.5C413.25,867.3,410.95,869.6,405.65,869.6z M325.65,829.4h21.5v-13.1c0-5.1-3.1-6.1-6.4-6.1
		h-8.7c-3.3,0-6.4,1-6.4,6.1V829.4z"/>
	<path class="st0" d="M413.25,723.7v26.1c0,5.3-2.3,7.6-7.6,7.6h-106.5c-5.3,0-7.6-2.3-7.6-7.6v-26.1c0-5.3,2.3-7.6,7.6-7.6h106.5
		C410.95,716.1,413.25,718.4,413.25,723.7z"/>
	<path class="st0" d="M324.35,697.4c-20.7,0-35.2-9.7-35.2-52.4s14.5-52.4,35.2-52.4h81.3c5.3,0,7.6,2.3,7.6,7.6V626
		c0,5.3-2.3,7.6-7.6,7.6h-74.9c-3.9,0-6.1,2.8-6.1,11.8c0,9.2,2.1,12,6.1,12h74.9c5.3,0,7.6,2.1,7.6,7.6v25c0,5.3-2.3,7.6-7.6,7.6
		h-81.3L324.35,697.4L324.35,697.4z"/>
	<path class="st0" d="M413.25,456.7v40.1c0,28.9-11.3,42.1-35.2,42.1h-51.1c-24,0-35.3-13.1-35.3-42.1v-40.1c0-5.3,2.3-7.6,7.6-7.6
		h19.9c5.3,0,7.6,2.3,7.6,7.6v33c0,5.6,2,8.4,6.6,8.4h39.1c4.6,0,6.2-3,6.2-8.4v-33c0-5.3,2.3-7.6,7.6-7.6h19.6
		C410.95,449.1,413.25,451.4,413.25,456.7z"/>
	<path class="st0" d="M405.65,406.4h-26.4c-4.3,24.8-17.1,31.1-33.7,31.1h-46.2c-5.3,0-7.6-2.3-7.6-7.6v-25.5c0-5.3,2.3-7.6,7.6-7.6
		h39.4c3.9,0,6.1-2.6,6.1-11.3c0-8.9-2.1-11.5-6.1-11.5h-39.4c-5.3,0-7.6-2.3-7.6-7.6v-25.3c0-5.3,2.3-7.6,7.6-7.6h46.2
		c16.6,0,29.4,6.2,33.7,31.1h26.5c5.3,0,7.6,2.3,7.6,7.6v26.6C413.25,404.1,410.95,406.4,405.65,406.4z"/>
	<path class="st0" d="M413.25,237.5v40.1c0,28.9-11.3,42.1-35.2,42.1h-51.1c-24,0-35.3-13.1-35.3-42.1v-40.1c0-5.3,2.3-7.6,7.6-7.6
		h19.9c5.3,0,7.6,2.3,7.6,7.6v33c0,5.6,2,8.4,6.6,8.4h39.1c4.6,0,6.2-3,6.2-8.4v-33c0-5.3,2.3-7.6,7.6-7.6h19.6
		C410.95,229.9,413.25,232.2,413.25,237.5z"/>
	<path class="st0" d="M405.65,214.6h-106.5c-5.3,0-7.6-2.3-7.6-7.6v-25.5c0-5.3,2.3-7.6,7.6-7.6h79v-40.3c0-5.3,2.3-7.6,7.6-7.6
		h19.9c5.3,0,7.6,2.3,7.6,7.6v73.3C413.25,212.3,410.95,214.6,405.65,214.6z"/>
	<path class="st0" d="M378.05,116.2h-51.1c-20.9,0-35.3-9.5-35.3-42.1V32.4c0-5.3,2.3-7.6,7.6-7.6h19.2c5.3,0,7.6,2.3,7.6,7.6v36.3
		c0,6.9,3,8.4,6.6,8.4h2.8V45.5c0-5.3,2.1-7.6,7.6-7.6h17.6c5.3,0,7.6,2.3,7.6,7.6v31.6h4.6c3.8,0,6.2-1.6,6.2-8.4V32.4
		c0-5.3,2.3-7.6,7.6-7.6h19.2c5.3,0,7.6,2.3,7.6,7.6v41.7C413.25,106.7,398.75,116.2,378.05,116.2z"/>
	<path class="st1" d="M411.75,971.8c0,4.1-1.8,5.9-5.9,5.9h-19.2c-4.1,0-5.9-1.8-5.9-5.9v-44.2c0-2.8-2.1-4.3-4.8-4.3
		c-3.8,0-5.3,1.5-5.6,4.3l-3.5,24.7c-2.3,15.4-8.9,25.5-27.3,25.5h-17.3c-18.7,0-28.9-12.7-28.9-34v-46c0-4.1,1.8-5.9,5.9-5.9h19.6
		c4.1,0,5.9,1.8,5.9,5.9v38.3c0,2.8,2,4.4,4.9,4.4s4.9-1.6,5.3-4.4l3.3-24.5c2.3-15.4,8.9-25.6,27.3-25.6h17.3
		c18.7,0,28.9,12.8,28.9,34L411.75,971.8L411.75,971.8z"/>
	<path class="st1" d="M411.75,862.1c0,4.1-1.8,5.9-5.9,5.9h-106.5c-4.1,0-5.9-1.8-5.9-5.9v-50.3c0-29.9,13-38.8,32-38.8h21
		c19.1,0,32,8.9,32,38.8v18.9h27.3c4.1,0,5.9,1.8,5.9,5.9v25.5L411.75,862.1L411.75,862.1z M349.05,831v-14.8c0-6.4-3.8-7.7-8.1-7.7
		h-8.7c-4.3,0-8.1,1.3-8.1,7.7V831H349.05z"/>
	<path class="st1" d="M411.75,749.8c0,4.1-1.8,5.9-5.9,5.9h-106.5c-4.1,0-5.9-1.8-5.9-5.9v-26.1c0-4.1,1.8-5.9,5.9-5.9h106.5
		c4.1,0,5.9,1.8,5.9,5.9V749.8z"/>
	<path class="st1" d="M291.05,645c0-40.8,13.5-50.8,33.5-50.8h81.3c4.1,0,5.9,1.8,5.9,5.9v25.8c0,4.1-1.8,5.9-5.9,5.9h-74.9
		c-4.4,0-7.7,2-7.7,13.5c0,11.7,3.3,13.6,7.7,13.6h74.9c4.1,0,5.9,1.6,5.9,5.9v25c0,4.1-1.8,5.9-5.9,5.9h-81.3
		C304.45,695.8,291.05,685.7,291.05,645z"/>
	<path class="st1" d="M411.75,496.8c0,27.6-10.7,40.4-33.5,40.4h-51.1c-23,0-33.7-12.8-33.7-40.4v-40.1c0-4.1,1.8-5.9,5.9-5.9h19.9
		c4.1,0,5.9,1.8,5.9,5.9v33c0,6.9,2.6,10,8.2,10h39.1c5.4,0,7.9-3.1,7.9-10v-33c0-4.1,1.8-5.9,5.9-5.9h19.6c4.1,0,5.9,1.8,5.9,5.9
		L411.75,496.8L411.75,496.8z"/>
	<path class="st1" d="M411.75,398.8c0,4.1-1.8,5.9-5.9,5.9h-27.9c-3.9,24.5-15.9,31.1-32.2,31.1h-46.2c-4.1,0-5.9-1.8-5.9-5.9v-25.5
		c0-4.1,1.8-5.9,5.9-5.9h39.4c4.4,0,7.7-2,7.7-13c0-11.2-3.3-13.1-7.7-13.1h-39.4c-4.1,0-5.9-1.8-5.9-5.9v-25.3
		c0-4.1,1.8-5.9,5.9-5.9h46.2c16.3,0,28.3,6.6,32.2,31.1h27.9c4.1,0,5.9,1.8,5.9,5.9V398.8z"/>
	<path class="st1" d="M411.75,277.6c0,27.6-10.7,40.4-33.5,40.4h-51.1c-23,0-33.7-12.8-33.7-40.4v-40.1c0-4.1,1.8-5.9,5.9-5.9h19.9
		c4.1,0,5.9,1.8,5.9,5.9v33c0,6.9,2.6,10,8.2,10h39.1c5.4,0,7.9-3.1,7.9-10v-33c0-4.1,1.8-5.9,5.9-5.9h19.6c4.1,0,5.9,1.8,5.9,5.9
		L411.75,277.6L411.75,277.6z"/>
	<path class="st1" d="M299.35,175.7h80.7v-41.9c0-4.1,1.8-5.9,5.9-5.9h19.9c4.1,0,5.9,1.8,5.9,5.9v73.3c0,4.1-1.8,5.9-5.9,5.9
		h-106.5c-4.1,0-5.9-1.8-5.9-5.9v-25.5C293.45,177.5,295.25,175.7,299.35,175.7z"/>
	<path class="st1" d="M411.75,32.4v41.7c0,31.1-13.6,40.4-33.5,40.4h-51.1c-20,0-33.7-9.4-33.7-40.4V32.4c0-4.1,1.8-5.9,5.9-5.9
		h19.2c4.1,0,5.9,1.8,5.9,5.9v36.3c0,8.5,3.9,10,8.2,10h4.4V45.5c0-4.1,1.6-5.9,5.9-5.9h17.6c4.1,0,5.9,1.8,5.9,5.9v33.2h6.2
		c4.6,0,7.9-1.5,7.9-10V32.4c0-4.1,1.8-5.9,5.9-5.9h19.2C409.95,26.5,411.75,28.3,411.75,32.4z"/>
	<path class="st0" d="M310.15,906.6v36.5c0,9.2,5.6,15.1,13.3,15.1h13.5c7.7,0,10-3.3,11-8.4l7.1-34.7c1.3-6.6,4.6-11.3,16.1-11.3
		h9.5c9.7,0,16.6,7.1,16.6,18.2v40.9h-1.6V922c0-10.2-6.2-16.6-15-16.6h-9.5c-10.4,0-13.1,3.9-14.5,10l-7.1,34.7
		c-1.2,5.8-3.6,9.7-12.7,9.7h-13.5c-8.7,0-15-6.6-15-16.8v-36.5h1.8L310.15,906.6L310.15,906.6z"/>
	<path class="st0" d="M364.85,847.9h32.4v1.6h-88.7V814c0-20.7,9.5-24.7,22.3-24.7h12.2c12.8,0,21.9,3.9,21.9,24.7v33.9H364.85z
		 M363.15,814.1c0-19.4-8.4-23-20.2-23h-12.2c-11.8,0-20.7,3.6-20.7,23V848h53.1L363.15,814.1L363.15,814.1z"/>
	<path class="st0" d="M308.45,735.9h88.7v1.6h-88.7V735.9z"/>
	<path class="st0" d="M397.25,613.9h-68.5c-12.3,0-20.5,6.7-20.5,31.2s8.2,31.4,20.5,31.4h68.5v1.6h-68.5c-13.3,0-22.2-7.2-22.2-33
		s8.9-32.9,22.2-32.9h68.5V613.9z"/>
	<path class="st0" d="M397.25,465.7v27.4c0,21.4-5.9,26.3-21.2,26.3h-46c-15.6,0-21.5-5.3-21.5-26.3v-27.4h1.6v27.4
		c0,19.4,5.3,24.7,19.9,24.7h46c14.3,0,19.6-4.9,19.6-24.7v-27.4L397.25,465.7L397.25,465.7z"/>
	<path class="st0" d="M397.25,386.3h-33.2c-0.2,25.1-9,32-22.2,32h-33.4v-1.6h33.4c12.3,0,20.5-6.7,20.5-31.2s-8.2-31.4-20.5-31.4
		h-33.4v-1.6h33.4c13.3,0,22.2,7.2,22.2,32.2h33.2V386.3z"/>
	<path class="st0" d="M397.25,246.5v27.4c0,21.4-5.9,26.3-21.2,26.3h-46c-15.6,0-21.5-5.3-21.5-26.3v-27.4h1.6v27.4
		c0,19.4,5.3,24.7,19.9,24.7h46c14.3,0,19.6-4.9,19.6-24.7v-27.4H397.25L397.25,246.5z"/>
	<path class="st0" d="M308.45,193.4h87.1v-50.8h1.6V195h-88.7V193.4z"/>
	<path class="st0" d="M397.25,41.2v29.9c0,21.4-5.9,26.3-21.2,26.3h-46c-15.6,0-21.5-5.3-21.5-26.3V41.2h1.6v29.9
		c0,19.4,5.3,24.7,19.9,24.7h21.4v-43h1.6v43.1h23c14.3,0,19.6-4.9,19.6-24.7v-30C395.65,41.2,397.25,41.2,397.25,41.2z"/>
</g>
<path class="st2" d="M262.55,81.7h-4.8c0-15.5-12.7-28.2-28.2-28.2c-4-23-26.4-38.3-86.7-38.3s-82.6,15.3-86.7,38.3
	c-15.5,0-28.2,12.7-28.2,28.2h-4.8c-5,0-7.3,2.2-7.3,7.3v15.7c0,5,2.2,7.3,7.3,7.3h10.9v199.5v16.1V513v16.1v185.4v16.1V916v16.1
	v0.8c0,5,2.2,7.3,7.3,7.3h4.8c0,15.5,12.7,28.2,28.2,28.2v4.8c0,5,2.2,7.3,7.3,7.3h122.5c5,0,7.3-2.2,7.3-7.3v-4.8
	c15.5,0,28.2-12.7,28.2-28.2h4.8c5,0,7.3-2.2,7.3-7.3v-0.8V916V730.6v-16.1V529.1V513V327.6v-16.1V112h10.9c5,0,7.3-2.2,7.3-7.3V89
	C269.85,83.9,267.65,81.7,262.55,81.7z"/>
<path class="st3" d="M204.15,981.5H81.55c-5.6,0-8.3-2.7-8.3-8.3v-3.9c-15.3-0.5-27.7-12.9-28.2-28.2h-3.8c-5.6,0-8.3-2.7-8.3-8.3
	v-820h-9.9c-5.6,0-8.3-2.7-8.3-8.3V89c0-5.6,2.7-8.3,8.3-8.3h3.9c0.5-15.4,13-27.8,28.4-28.2c5.1-26.1,32.9-38.3,87.5-38.3
	c54.5,0,82.4,12.2,87.5,38.3c15.4,0.4,27.8,12.8,28.4,28.2h3.9c5.6,0,8.3,2.7,8.3,8.3v15.7c0,5.6-2.7,8.3-8.3,8.3h-9.9v820
	c0,5.6-2.7,8.3-8.3,8.3h-3.9c-0.5,15.3-12.9,27.7-28.2,28.2v3.9C212.35,978.8,209.65,981.5,204.15,981.5z M23.15,82.7
	c-4.5,0-6.3,1.8-6.3,6.3v15.7c0,4.5,1.8,6.3,6.3,6.3h11.9v822c0,4.5,1.8,6.3,6.3,6.3h5.8v1c0,15,12.2,27.2,27.2,27.2h1v5.8
	c0,4.5,1.8,6.3,6.3,6.3h122.5c4.5,0,6.3-1.8,6.3-6.3v-5.8h1c15,0,27.2-12.2,27.2-27.2v-1h5.8c4.5,0,6.3-1.8,6.3-6.3V111h11.9
	c4.5,0,6.3-1.8,6.3-6.3V89c0-4.5-1.8-6.3-6.3-6.3h-5.8v-1c0-15-12.2-27.2-27.2-27.2h-0.8l-0.1-0.8c-4.5-25.6-31.7-37.5-85.7-37.5
	s-81.4,11.9-85.9,37.5l-0.1,0.8h-0.8c-15,0-27.2,12.2-27.2,27.2v1H23.15z"/>
<g>
	<path class="st4" d="M68.75,241v-23.2c0-3.6,1-5.8,2.8-7.3l19.8-16.7c-14.1-4.4-22.6-13.5-22.6-32.7v-20.8c0-11.9,4-21.2,11.5-27.6
		l25.8-21.6c7.1-5.9,17.8-9.3,31.3-9.3h65.9c6.3,0,9.1,2.8,9.1,9.1v23.6c0,3.6-1,5.8-2.8,7.3l-18.4,15.3
		c16.3,3.8,26.4,12.9,26.4,33.7v20.8c0,11.9-4,21.2-11.7,27.6l-25.6,21.4c-7.3,6.1-18,9.5-31.3,9.5h-71
		C71.55,250.1,68.75,247.3,68.75,241z"/>
	<path class="st4" d="M130.25,424.4c-51,0-62.3-23.4-62.3-48.4v-61.7c0-12.5,3-23,11.9-30.5l25.8-21.4c9.1-7.7,24.4-12.3,50.2-12.3
		c51,0,62.3,17.6,62.3,42.6v67.6c0,12.3-3,22.8-11.9,30.3l-25.8,21.4C171.25,419.8,156.05,424.4,130.25,424.4z M146.25,359.1v-37.7
		c0-2.6-0.8-4.6-3.8-5.8v37.5C142.55,355.8,143.35,357.8,146.25,359.1z"/>
	<path class="st4" d="M112.95,588.8c-1.2,1.2-3.4,2-6.1,2h-29.1c-6.5,0-9.1-2.8-9.1-9.1v-52.3c0-14.1,2-17.1,7.9-32.3l15.1-45
		c0.8-2.4,2-4.4,3.6-5.6l25.8-21.6c2-1.6,4.8-2.4,8.3-2.4h51.4c6.1,0,9.7,2,11.7,7.7l17.3,45c5.9,15.5,7.9,18.4,7.9,32.5V560
		c0,3.6-1,5.8-2.8,7.3l-25.8,21.4c-1.2,1.2-3.4,2-6.1,2h-29.9c-6.3,0-9.7-3-9.7-9.1v-25.8h-1.6v4.2c0,3.6-1,5.8-2.8,7.3
		L112.95,588.8z"/>
	<path class="st4" d="M77.85,761.1c-6.3,0-9.1-2.8-9.1-9.1V623.5c0-3.6,1-5.8,2.8-7.3l25.6-21.6c1.4-1.2,3.6-1.8,6.3-1.8h65.8
		c37.9,0,48.8,16.7,48.8,40.6v25.4c0,12.7-3.2,23.4-11.9,30.7l-25.6,21.4c-7.5,6.3-19.4,10.1-36.9,10.1h-0.4v9.3
		c0,3.6-1,5.8-2.8,7.3l-25.8,21.4c-1.2,1.2-3.4,2-6.1,2h-30.7C77.85,761,77.85,761.1,77.85,761.1z"/>
	<path class="st4" d="M68.75,917.9v-23.2c0-3.6,1-5.8,2.8-7.3l19.8-16.7c-14.1-4.4-22.6-13.5-22.6-32.7v-20.8
		c0-11.9,4-21.2,11.5-27.6l25.8-21.6c7.1-5.9,17.8-9.3,31.3-9.3h65.9c6.3,0,9.1,2.8,9.1,9.1v23.6c0,3.6-1,5.8-2.8,7.3l-18.4,15.3
		c16.3,3.8,26.4,12.9,26.4,33.7v20.8c0,11.9-4,21.2-11.7,27.6l-25.6,21.4c-7.3,6.1-18,9.5-31.3,9.5h-71
		C71.55,927,68.75,924.3,68.75,917.9z"/>
	<path class="st0" d="M103.35,226.5c-5,0-7.1-2.2-7.1-7.1v-23.2c0-5,2.2-7.1,7.1-7.1h61.7c3.4,0,5.2-2.6,5.2-5.8
		c0-4.6-1.8-6.3-5.2-6.7l-38.1-4.2c-18.6-2.8-30.7-10.7-30.7-32.9v-20.8c0-22.6,15.3-34.9,41-34.9h65.8c5,0,7.1,2.2,7.1,7.1v23.6
		c0,5-2.2,7.1-7.1,7.1h-56.5c-3.4,0-5.4,2.4-5.4,5.9c0,3.6,2,5.9,5.4,6.3l37.9,4c18.6,2.8,30.9,10.7,30.9,32.9v20.8
		c0,22.6-15.5,34.9-41,34.9h-71C103.35,226.4,103.35,226.5,103.35,226.5z"/>
	<path class="st0" d="M155.75,400.8c-48.6,0-60.3-16.3-60.3-40.5v-67.6c0-24.2,11.7-40.6,60.3-40.6s60.3,16.5,60.3,40.6v67.6
		C215.95,384.5,204.25,400.8,155.75,400.8z M155.75,362.5c13.3,0,15.5-4,15.5-9.3v-53.3c0-5.2-2.2-9.1-15.5-9.1
		c-13.1,0-15.3,4-15.3,9.1v53.3C140.45,358.5,142.65,362.5,155.75,362.5z"/>
	<path class="st0" d="M132.35,567.1h-29.1c-5.2,0-7.1-2.2-7.1-7.1v-52.3c0-13.7,2-16.7,7.7-31.7l15.3-45c1.8-5,5-6.5,10.1-6.5h51.4
		c5.2,0,8.1,1.6,9.9,6.5l17.3,45c5.8,15.1,7.7,18,7.7,31.7V560c0,5-2.2,7.1-7.1,7.1h-29.9c-5,0-7.7-2.2-7.7-7.1v-27.8h-31.1V560
		C139.45,565,137.25,567.1,132.35,567.1z M141.45,496.2h27.2l-9.3-30.1c-1.2-2.6-1.6-3.4-3.8-3.4h-1c-2.2,0-2.6,0.8-3.8,3.4
		L141.45,496.2z"/>
	<path class="st0" d="M103.35,737.5c-5,0-7.1-2.2-7.1-7.1V601.8c0-5,2.2-7.1,7.1-7.1h65.8c36.1,0,46.8,15.7,46.8,38.7v25.4
		c0,23-10.7,38.7-46.8,38.7h-28v32.9c0,5-2.2,7.1-7.1,7.1L103.35,737.5L103.35,737.5z M140.85,661.7h23c7.7,0,9.3-4.6,9.3-9.7v-10.5
		c0-5.2-1.6-9.7-9.3-9.7h-23V661.7z"/>
	<path class="st0" d="M103.35,903.4c-5,0-7.1-2.2-7.1-7.1v-23.2c0-5,2.2-7.1,7.1-7.1h61.7c3.4,0,5.2-2.6,5.2-5.8
		c0-4.6-1.8-6.3-5.2-6.7l-38.1-4.2c-18.6-2.8-30.7-10.7-30.7-32.9v-20.8c0-22.6,15.3-34.9,41-34.9h65.8c5,0,7.1,2.2,7.1,7.1v23.6
		c0,5-2.2,7.1-7.1,7.1h-56.5c-3.4,0-5.4,2.4-5.4,5.9c0,3.6,2,5.9,5.4,6.3l37.9,4c18.6,2.8,30.9,10.7,30.9,32.9v20.8
		c0,22.6-15.5,34.9-41,34.9h-71C103.35,903.3,103.35,903.4,103.35,903.4z"/>
	<path class="st5" d="M192.25,103.5h-54.3c-11.3,0-18.2,6.1-18.2,16.1v18.2c0,7.9,5.4,13.3,14.1,14.1l42.2,4.2
		c11.9,1.2,17.6,7.3,17.6,18v16.5c0,11.1-8.5,18-22,18h-57.7v-2h57.7c12.3,0,20-6.1,20-16.1V174c0-9.5-5.2-15.1-16.1-16.1l-42.2-4.2
		c-9.7-1-15.7-7.1-15.7-16.1v-18.2c0-11.1,7.7-18,20.2-18h54.4V103.5z"/>
	<path class="st5" d="M155.45,382.5c-30.1,0-38.5-10.7-38.5-26.8v-58.5c0-16.1,8.3-26.8,38.5-26.8c30.1,0,39.1,10.7,39.1,26.8v58.5
		C194.45,371.8,185.55,382.5,155.45,382.5z M155.45,380.6c28.6,0,37.1-9.9,37.1-24.8v-58.5c0-14.9-8.5-24.8-37.1-24.8
		s-36.5,9.9-36.5,24.8v58.5C118.95,370.6,126.85,380.6,155.45,380.6z"/>
	<path class="st5" d="M191.85,515.2h-73.2v34.1h-2v-42.2c0-7.3,1.2-13.5,3.4-19.2l12.7-32.5c3-7.3,5.4-13.1,14.5-13.1h15.3
		c8.7,0,11.1,5.6,14.3,13.3l13.7,32.3c2.2,5.8,3.4,11.9,3.4,19.2v42.2h-2v-34.1L191.85,515.2L191.85,515.2z M118.75,513.2h73.2v-6.1
		c0-7.1-1.2-13.1-3.2-18.4l-13.7-32.3c-3-6.9-5.2-12.1-12.5-12.1h-15.3c-7.9,0-10.1,5.2-12.7,11.9l-12.7,32.5
		c-2,5.4-3.2,11.3-3.2,18.4v6.1H118.75z"/>
	<path class="st5" d="M119.75,680.6v39.1h-2V612.6h48c25,0,29.7,11.5,29.7,27v14.7c0,15.5-4.8,26.4-29.7,26.4h-46V680.6z
		 M165.75,678.6c23.4,0,27.8-10.1,27.8-24.4v-14.7c0-14.3-4.4-25-27.8-25h-46v64h46V678.6z"/>
	<path class="st5" d="M192.25,780.5h-54.3c-11.3,0-18.2,6.1-18.2,16.1v18.2c0,7.9,5.4,13.3,14.1,14.1l42.2,4.2
		c11.9,1.2,17.6,7.3,17.6,18v16.5c0,11.1-8.5,18-22,18h-57.7v-2h57.7c12.3,0,20-6.1,20-16.1V851c0-9.5-5.2-15.1-16.1-16.1l-42.2-4.2
		c-9.7-1-15.7-7.1-15.7-16.1v-18.2c0-11.1,7.7-18,20.2-18h54.4V780.5z"/>
</g>
<g>
	<g>
		<g>
			<path class="st6" d="M515.25,18c34.4,0,58.6,24.2,58.6,58.6s-24.2,58.6-58.6,58.6s-58.6-24.2-58.6-58.6S480.85,18,515.25,18z"/>
			<path class="st7" d="M515.25,139.5c34.4,0,58.6,24.2,58.6,58.6s-24.2,58.6-58.6,58.6s-58.6-24.2-58.6-58.6
				S480.85,139.5,515.25,139.5z"/>
			<path class="st6" d="M515.25,261c34.4,0,58.6,24.2,58.6,58.6s-24.2,58.6-58.6,58.6s-58.6-24.2-58.6-58.6S480.85,261,515.25,261z"
				/>
			<path class="st7" d="M515.25,382.5c34.4,0,58.6,24.2,58.6,58.6s-24.2,58.6-58.6,58.6s-58.6-24.2-58.6-58.6
				S480.85,382.5,515.25,382.5z"/>
			<path class="st6" d="M515.25,504c34.4,0,58.6,24.2,58.6,58.6s-24.2,58.6-58.6,58.6s-58.6-24.2-58.6-58.6S480.85,504,515.25,504z"
				/>
			<path class="st7" d="M515.25,625.5c34.4,0,58.6,24.2,58.6,58.6s-24.2,58.6-58.6,58.6s-58.6-24.2-58.6-58.6
				S480.85,625.5,515.25,625.5z"/>
			<path class="st6" d="M515.25,747c34.4,0,58.6,24.2,58.6,58.6s-24.2,58.6-58.6,58.6s-58.6-24.2-58.6-58.6S480.85,747,515.25,747z"
				/>
			<path class="st7" d="M515.25,868.5c34.4,0,58.6,24.2,58.6,58.6s-24.2,58.6-58.6,58.6s-58.6-24.2-58.6-58.6
				S480.85,868.5,515.25,868.5z"/>
		</g>
	</g>
	<g>
		<path class="st3" d="M491.95,108.6c-2.2,0-3.2-1-3.2-3.2V48.2c0-2.2,1-3.2,3.2-3.2h29.3c16.1,0,20.8,7,20.8,17.2v11.3
			c0,10.2-4.8,17.2-20.8,17.2h-12.5v14.7c0,2.2-1,3.2-3.2,3.2C505.55,108.6,491.95,108.6,491.95,108.6z M533.05,71.5V65
			c0-6.9-2.1-12-13.2-12h-21.4v47.7h0.9V83.3h20.5C530.85,83.3,533.05,78.4,533.05,71.5z M499.25,53.9h20.5
			c10.4,0,12.4,4.8,12.4,11.1v6.5c0,6.4-1.9,10.9-12.4,10.9h-20.5V53.9z M508.65,74.9h10.2c3.4,0,4.2-2,4.2-4.3v-4.7
			c0-2.3-0.7-4.3-4.2-4.3h-10.2L508.65,74.9L508.65,74.9z"/>
		<path class="st3" d="M515.25,229.2c-21.6,0-26.8-7.2-26.8-18v-30.1c0-10.8,5.2-18.1,26.8-18.1s26.8,7.3,26.8,18.1v30.1
			C542.15,221.9,536.85,229.2,515.25,229.2z M532.55,183.1c0-7.2-4-11.9-17.4-11.9s-17.1,4.8-17.1,11.9v26.1
			c0,7.2,3.7,11.9,17.1,11.9c13.4,0,17.4-4.8,17.4-11.9V183.1z M498.95,183.1c0-6.6,3.5-11,16.2-11s16.5,4.4,16.5,11v26.1
			c0,6.6-3.8,11-16.5,11s-16.2-4.4-16.2-11V183.1z M515.25,212.1c5.9,0,6.9-1.8,6.9-4.2v-23.8c0-2.3-1-4.1-6.9-4.1
			c-5.8,0-6.8,1.8-6.8,4.1v23.8C508.45,210.4,509.45,212.1,515.25,212.1z"/>
		<path class="st3" d="M515.25,350.8c-21.6,0-26.8-7.2-26.8-18v-30.1c0-10.8,5.2-18.1,26.8-18.1s26.8,7.3,26.8,18.1v30.1
			C542.15,343.6,536.85,350.8,515.25,350.8z M532.55,304.7c0-7.2-4-11.9-17.4-11.9s-17.1,4.8-17.1,11.9v26.1
			c0,7.2,3.7,11.9,17.1,11.9c13.4,0,17.4-4.8,17.4-11.9V304.7z M498.95,304.7c0-6.6,3.5-11,16.2-11s16.5,4.4,16.5,11v26.1
			c0,6.6-3.8,11-16.5,11s-16.2-4.4-16.2-11V304.7z M515.25,333.8c5.9,0,6.9-1.8,6.9-4.2v-23.8c0-2.3-1-4.1-6.9-4.1
			c-5.8,0-6.8,1.8-6.8,4.1v23.8C508.45,332,509.45,333.8,515.25,333.8z"/>
		<path class="st3" d="M492.05,468.7c-2.2,0-3.2-1-3.2-3.2v-57.2c0-2.2,1-3.2,3.2-3.2h13.7c2.2,0,3.2,1,3.2,3.2V452h13.8v-14.3
			c0-2.2,1-3.2,3.2-3.2h12.8c2.2,0,3.2,1,3.2,3.2v27.8c0,2.2-1,3.2-3.2,3.2H492.05z M532.65,460.8v-18.3h-0.9v17.4h-32.4v-46.8h-0.9
			v47.7L532.65,460.8L532.65,460.8z"/>
		<path class="st3" d="M491.95,591c-2.2,0-3.2-1-3.2-3.2v-10.3c0-2.2,1-3.2,3.2-3.2h27.5c1.5,0,2.3-1.1,2.3-2.6c0-2-0.8-2.8-2.3-3
			l-17-1.9c-8.3-1.2-13.7-4.8-13.7-14.7v-9.3c0-10.1,6.8-15.5,18.3-15.5h29.3c2.2,0,3.2,1,3.2,3.2V541c0,2.2-1,3.2-3.2,3.2h-25.2
			c-1.5,0-2.4,1.1-2.4,2.6c0,1.6,0.9,2.6,2.4,2.8l16.9,1.8c8.3,1.2,13.8,4.8,13.8,14.7v9.3c0,10.1-6.9,15.5-18.3,15.5h-31.6
			L491.95,591L491.95,591z M507.35,535.4c-5.6,0-9,3.1-9,8v8.1c0,4,2.6,6.7,7,7.2l18.8,1.9c4.9,0.4,7.2,2.9,7.2,7.2v7.3
			c0,4.4-3.4,7.2-8.9,7.2h-25.7v0.9h25.7c6,0,9.8-3.1,9.8-8v-7.5c0-4.8-2.6-7.5-7.9-8l-18.8-1.9c-3.9-0.4-6.3-2.7-6.3-6.3v-8.1
			c0-4.4,3.1-7.2,8.1-7.2h24.2v-0.9h-24.2L507.35,535.4L507.35,535.4z"/>
		<path class="st3" d="M489.55,710.2v-10.5c0-2.2,1-3.2,3.2-3.2h11.8v-29.7h-11.8c-2.2,0-3.2-1-3.2-3.2v-10.7c0-2.2,1-3.2,3.2-3.2
			h45c2.2,0,3.2,1,3.2,3.2v10.7c0,2.2-1,3.2-3.2,3.2h-11.8v29.7h11.8c2.2,0,3.2,1,3.2,3.2v10.5c0,2.2-1,3.2-3.2,3.2h-45
			C490.55,713.4,489.55,712.4,489.55,710.2z M533.05,704.5h-17.3v-45.9h17.3v-0.9h-35.5v0.9h17.3v45.9h-17.3v0.9h35.5V704.5z"/>
		<path class="st3" d="M491.95,835.7c-2.2,0-3.2-1-3.2-3.2v-57.2c0-2.2,1-3.2,3.2-3.2h28.5c16.7,0,21.7,7.3,21.7,18v27.6
			c0,10.7-5,18-21.7,18L491.95,835.7L491.95,835.7z M518.55,827.7c12.2,0,14.1-5.2,14.1-12v-23.4c0-6.8-2.1-12.3-14.1-12.3h-20.1
			v47.7H518.55z M531.75,792.3v23.4c0,6.4-1.9,11.1-13.2,11.1h-19.3v-45.9h19.3C529.65,780.9,531.75,785.9,531.75,792.3z
			 M508.85,819h9.3c3.5,0,4.2-1.9,4.2-4.3v-21.5c0-2.3-0.6-4.2-4.2-4.2h-9.3L508.85,819L508.85,819z"/>
		<path class="st3" d="M492.05,958c-2.2,0-3.2-1-3.2-3.2v-57.2c0-2.2,1-3.2,3.2-3.2h45.7c2.2,0,3.2,1,3.2,3.2v10.3
			c0,2.2-1,3.2-3.2,3.2h-29.1v6.8h22c2.2,0,3.2,0.9,3.2,3.2v9.5c0,2.2-1,3.2-3.2,3.2h-22v7.6h29.1c2.2,0,3.2,1,3.2,3.2v10.3
			c0,2.2-1,3.2-3.2,3.2h-45.7V958z M499.15,949.2v-22.9h26.7v-0.9h-26.7v-22.2h33.8v-0.9h-34.7V950h34.7v-0.9h-33.8L499.15,949.2
			L499.15,949.2z"/>
	</g>
</g>
<g>
	<path class="st8" d="M757.25,44.1c-0.9-19.1-15.9-31.7-71.3-31.7c-55.5,0-70.4,12.6-71.3,31.7l0,0v2v8.6v121.6v10.6v121.6v10.6v122
		v10.1v110.2v9.6v110.1v10.1v122v10.5v121.6v8.6v2l0,0c0.9,19.1,15.9,31.7,71.3,31.7c55.5,0,70.4-12.6,71.3-31.7l0,0v-2v-8.6V823.7
		v-10.6v-122V681V570.9v-9.6V451.1V441V319v-10.6V186.8v-10.6V54.7v-8.6V44.1L757.25,44.1z"/>
	<g>
		<path class="st3" d="M721.85,154.3h-44.5c-28.1,0-36.4-12.5-36.4-30.4V79.7c0-18,8.2-30.5,36.4-30.5h44.5c4.5,0,6.5,2,6.5,6.5
			v17.2c0,4.5-2,6.5-6.5,6.5h-38.4c-6,0-7.2,2.6-7.2,5.7v33.8c0,3.3,1.4,5.4,7.2,5.4h38.4c4.5,0,6.5,2,6.5,6.5v16.9
			C728.35,152.3,726.45,154.3,721.85,154.3z"/>
		<path class="st3" d="M730.25,248.8c0,17.9-8.1,30.4-44.6,30.4s-44.6-12.5-44.6-30.4v-48.4c0-17.9,8.1-30.5,44.6-30.5
			s44.6,12.6,44.6,30.5V248.8z M676.15,243.7c0,3.3,2.1,5.3,9.5,5.3c7.5,0,9.7-1.8,9.7-5.3v-38.2c0-3.3-2.3-5.1-9.7-5.1
			s-9.5,1.8-9.5,5.1V243.7z"/>
		<path class="st3" d="M642.85,394.4v-16.9c0-4.5,2-6.5,6.5-6.5h17.6v-44.9h-17.6c-4.5,0-6.5-2-6.5-6.5v-17.2c0-4.5,2-6.5,6.5-6.5
			h72.5c4.5,0,6.5,2,6.5,6.5v17.2c0,4.5-2,6.5-6.5,6.5h-17.6V371h17.6c4.5,0,6.5,2,6.5,6.5v16.9c0,4.5-2,6.5-6.5,6.5h-72.5
			C644.85,400.9,642.85,398.9,642.85,394.4z"/>
		<path class="st3" d="M648.15,524.1c-4.5,0-6.5-2-6.5-6.5v-92.1c0-4.5,2-6.5,6.5-6.5h14.8c4.1,0,6.7,1.1,9.5,4.4l23,28.4v-26.3
			c0-4.5,2-6.5,6.5-6.5h21.3c4.5,0,6.5,2,6.5,6.5v92.1c0,4.5-2,6.5-6.5,6.5h-21.3c-4.5,0-6.5-2-6.5-6.5v-17l-19.5-25.6v42.6
			c0,4.5-2,6.5-6.5,6.5H648.15z"/>
		<path class="st3" d="M669.75,543c0-4.5,1.8-6.5,6.5-6.5h19c4.5,0,6.5,2,6.5,6.5v38.1c0,4.5-1.8,6.5-6.5,6.5h-19
			c-4.7,0-6.5-2-6.5-6.5V543z"/>
		<path class="st3" d="M730.25,677.5c0,17.9-8.1,30.4-44.6,30.4s-44.6-12.5-44.6-30.4v-48.4c0-17.9,8.1-30.5,44.6-30.5
			s44.6,12.6,44.6,30.5V677.5z M676.15,672.4c0,3.3,2.1,5.3,9.5,5.3c7.5,0,9.7-1.8,9.7-5.3v-38.2c0-3.3-2.3-5.1-9.7-5.1
			s-9.5,1.8-9.5,5.1V672.4z"/>
		<path class="st3" d="M641.55,822v-92.1c0-4.5,2-6.5,6.5-6.5h47.2c27.1,0,34.9,11.9,34.9,29.1v18.2c0,17.2-7.8,29.1-34.9,29.1
			h-18.6V822c0,4.5-2,6.5-6.5,6.5h-22C643.55,828.5,641.55,826.5,641.55,822z M676.35,752.8v18.6h15.1c4.4,0,5.3-2.7,5.3-5.5v-7.5
			c0-2.8-0.9-5.5-5.3-5.5h-15.1V752.8z"/>
		<path class="st3" d="M698.95,947.4h-50.9c-4.5,0-6.5-2-6.5-6.5v-16.6c0-4.5,2-6.5,6.5-6.5h44.2c1.6,0,2.3-1.3,2.3-2.7
			c0-2.1-0.7-3.3-2.4-3.4l-27.3-3c-14.2-2.1-23.3-8.2-23.3-25v-15c0-17,11.4-26.4,30.8-26.4h47.2c4.5,0,6.5,2,6.5,6.5v16.9
			c0,4.5-2,6.5-6.5,6.5h-40.5c-1.6,0-2.4,1.3-2.4,2.8c0,1.7,0.9,3,2.6,3.1l27.1,2.8c14.2,2.1,23.4,8.2,23.4,25v14.9
			C729.85,938.1,718.35,947.4,698.95,947.4z"/>
		<path class="st9" d="M677.25,152.9c-26.8,0-34.9-11.8-34.9-29V79.7c0-17.3,8.1-29.1,34.9-29.1h44.5c3.6,0,5.1,1.6,5.1,5.1v17.2
			c0,3.6-1.6,5.1-5.1,5.1h-38.4c-7.4,0-8.7,3.4-8.7,7.1v33.8c0,4,1.3,6.8,8.7,6.8h38.4c3.6,0,5.1,1.6,5.1,5.1v16.9
			c0,3.6-1.6,5.1-5.1,5.1h-44.5V152.9z"/>
		<path class="st9" d="M685.55,277.7c-34.8,0-43.2-11.6-43.2-29v-48.4c0-17.3,8.4-29.1,43.2-29.1s43.2,11.8,43.2,29.1v48.4
			C728.75,266.1,720.35,277.7,685.55,277.7z M685.55,250.3c9.5,0,11.1-2.8,11.1-6.7v-38.2c0-3.7-1.6-6.5-11.1-6.5
			c-9.4,0-10.9,2.8-10.9,6.5v38.3C674.55,247.5,676.15,250.3,685.55,250.3z"/>
		<path class="st9" d="M644.15,394.4v-16.9c0-3.6,1.6-5.1,5.1-5.1h19v-47.7h-19c-3.6,0-5.1-1.6-5.1-5.1v-17.2c0-3.6,1.6-5.1,5.1-5.1
			h72.5c3.6,0,5.1,1.6,5.1,5.1v17.2c0,3.6-1.6,5.1-5.1,5.1h-19v47.7h19c3.6,0,5.1,1.6,5.1,5.1v16.9c0,3.6-1.6,5.1-5.1,5.1h-72.5
			C645.75,399.5,644.15,397.9,644.15,394.4z"/>
		<path class="st9" d="M648.05,522.7c-3.6,0-5.1-1.6-5.1-5.1v-92.1c0-3.6,1.6-5.1,5.1-5.1h14.8c3.7,0,6,1,8.4,3.8l25.6,31.5v-30.3
			c0-3.6,1.6-5.1,5.1-5.1h21.3c3.6,0,5.1,1.6,5.1,5.1v92.1c0,3.6-1.6,5.1-5.1,5.1h-21.3c-3.6,0-5.1-1.6-5.1-5.1V500l-22.3-29.4v46.9
			c0,3.6-1.6,5.1-5.1,5.1h-21.4V522.7z"/>
		<path class="st9" d="M676.15,537.9h19c3.6,0,5.1,1.6,5.1,5.1v38.1c0,3.6-1.4,5.1-5.1,5.1h-19c-3.7,0-5.1-1.6-5.1-5.1V543
			C671.05,539.4,672.45,537.9,676.15,537.9z"/>
		<path class="st9" d="M685.55,706.5c-34.8,0-43.2-11.6-43.2-29v-48.4c0-17.3,8.4-29.1,43.2-29.1s43.2,11.8,43.2,29.1v48.4
			C728.75,694.9,720.35,706.5,685.55,706.5z M685.55,679.1c9.5,0,11.1-2.8,11.1-6.7v-38.2c0-3.7-1.6-6.5-11.1-6.5
			c-9.4,0-10.9,2.8-10.9,6.5v38.2C674.55,676.2,676.15,679.1,685.55,679.1z"/>
		<path class="st9" d="M648.05,827.1c-3.6,0-5.1-1.6-5.1-5.1v-92.1c0-3.6,1.6-5.1,5.1-5.1h47.2c25.9,0,33.5,11.2,33.5,27.7v18.2
			c0,16.5-7.7,27.7-33.5,27.7h-20V822c0,3.6-1.6,5.1-5.1,5.1H648.05L648.05,827.1z M674.85,772.8h16.5c5.5,0,6.7-3.3,6.7-7v-7.5
			c0-3.7-1.1-7-6.7-7h-16.5V772.8z"/>
		<path class="st9" d="M648.05,946c-3.6,0-5.1-1.6-5.1-5.1v-16.6c0-3.6,1.6-5.1,5.1-5.1h44.2c2.4,0,3.7-1.8,3.7-4.1
			c0-3.3-1.3-4.5-3.7-4.8l-27.3-3c-13.4-2-22-7.7-22-23.6v-15c0-16.2,10.9-25,29.4-25h47.2c3.6,0,5.1,1.6,5.1,5.1v16.9
			c0,3.6-1.6,5.1-5.1,5.1h-40.5c-2.4,0-3.8,1.7-3.8,4.3s1.4,4.3,3.8,4.5l27.1,2.8c13.4,2,22.2,7.7,22.2,23.6v14.9
			c0,16.2-11.1,25-29.4,25h-50.9V946z"/>
		<path class="st3" d="M713.95,140.1h-33.5c-18.5,0-22.7-5.1-22.7-18.3V82c0-13.5,4.5-18.6,22.7-18.6h33.5v1.4h-33.5
			c-16.8,0-21.3,4.5-21.3,17.2v39.8c0,12.4,4.3,16.9,21.3,16.9h33.5V140.1z"/>
		<path class="st3" d="M685.35,264.7c-21.6,0-27.6-7.7-27.6-19.2v-41.9c0-11.5,6-19.2,27.6-19.2s28,7.7,28,19.2v41.9
			C713.25,257,706.85,264.7,685.35,264.7z M685.35,263.3c20.5,0,26.6-7.1,26.6-17.8v-41.9c0-10.7-6.1-17.8-26.6-17.8
			s-26.1,7.1-26.1,17.8v41.9C659.15,256.2,664.85,263.3,685.35,263.3z"/>
		<path class="st3" d="M656.85,386.7v-1.4h27.8v-73.9h-27.8V310h57.1v1.4h-27.8v73.9h27.8v1.4L656.85,386.7L656.85,386.7z"/>
		<path class="st3" d="M661.75,434.3l50,58.8v-59.9h1.4v76.7h-1.4v-14.6l-51.4-60.2c-0.3-0.3-0.4-0.4-0.7-0.4s-0.3,0.3-0.3,0.4V510
			h-1.4v-75.3c0-1.1,0.9-1.7,1.7-1.7S660.75,433.3,661.75,434.3z"/>
		<path class="st3" d="M684.85,573.4v-22.7h1.4v22.7H684.85z"/>
		<path class="st3" d="M685.35,693.4c-21.6,0-27.6-7.7-27.6-19.2v-41.9c0-11.5,6-19.2,27.6-19.2s28,7.7,28,19.2v41.9
			C713.25,685.8,706.85,693.4,685.35,693.4z M685.35,692c20.5,0,26.6-7.1,26.6-17.8v-41.9c0-10.7-6.1-17.8-26.6-17.8
			s-26.1,7.1-26.1,17.8v41.9C659.15,684.9,664.85,692,685.35,692z"/>
		<path class="st3" d="M659.75,786.3v28h-1.4v-76.7h34.4c17.9,0,21.3,8.2,21.3,19.3v10.5c0,11.1-3.4,18.9-21.3,18.9H659.75z
			 M692.65,784.9c16.8,0,19.9-7.2,19.9-17.5v-10.5c0-10.2-3.1-17.9-19.9-17.9h-33v45.9H692.65z"/>
		<path class="st3" d="M711.75,857.9h-38.9c-8.1,0-13.1,4.4-13.1,11.5v13.1c0,5.7,3.8,9.5,10.1,10.1l30.3,3
			c8.5,0.9,12.6,5.3,12.6,12.9v11.8c0,8-6.1,12.9-15.8,12.9h-41.3v-1.4h41.3c8.8,0,14.3-4.4,14.3-11.5v-11.8
			c0-6.8-3.7-10.8-11.5-11.5l-30.3-3c-7-0.7-11.2-5.1-11.2-11.5v-13.1c0-8,5.5-12.9,14.5-12.9h38.9v1.4H711.75z"/>
	</g>
</g>
</svg>
