<?xml version="1.0" encoding="utf-8"?>
<!-- Generator: Adobe Illustrator 17.1.0, SVG Export Plug-In . SVG Version: 6.00 Build 0)  -->
<!DOCTYPE svg PUBLIC "-//W3C//DTD SVG 1.1//EN" "http://www.w3.org/Graphics/SVG/1.1/DTD/svg11.dtd">
<svg version="1.1" id="Layer_1" xmlns="http://www.w3.org/2000/svg" xmlns:xlink="http://www.w3.org/1999/xlink" x="0px" y="0px"
	 viewBox="0 0 1186.7 597.4" enable-background="new 0 0 1186.7 597.4" xml:space="preserve">
<path fill="#26839C" d="M417.3,399.9c-3.5-3.6-7-2.6-7,0.9v12h-4.1c-4,0-5.3-2-5.3-6.5v-5.1v-61.9v-7v-80.3v-7v-80.3v-7V97.2V70.4
	V40c0-2.2-1.4-3.8-4.9-2.4l-42.2,16.8l-42.6-16.9c-3.1-1.2-4.5,0.4-4.5,2.6v30.4v26.8v60.5v7v80.3v7v80.3v7v61.9v25.4v0.7
	c0,38.5,21.6,64.1,69.8,64.1h33.9v13.4c0,3.6,3.7,4.4,7,0.9l45-47.9c3.3-3.6,3.8-6.5,0-10.5L417.3,399.9z"/>
<path fill="#26839C" d="M167.1,54.9h-13.4V42.7c0-2.3-1-3.1-3.1-3.1h-88c-2.2,0-3.1,0.9-3.1,3.1v12.2H46c-2.2,0-3.1,0.9-3.1,3.1
	v41.5c0,2.3,1,3.1,3.1,3.1c9.1,0,13.4,4.9,13.4,13.4v3.8v50.4v7v80.3v7v119.1v7v51.2V507v27.2v1.9v3.7c0,13.4,9.3,22.3,47.1,22.3
	c37.9,0,47.1-8.9,47.1-22.3v-3.7v-1.9V507v-65.2v-51.2v-7V264.5v-7v-80.3v-7v-50.4v-3.1c0-8.8,4.3-14,13.4-14c2.2,0,3.1-0.9,3.1-3.1
	V58C170.3,55.7,169.3,54.9,167.1,54.9z"/>
<g>
	<path fill="#FFFFFF" d="M87.8,167.1c-1.8,0-2.5-0.8-2.5-2.5v-45.9c0-1.8,0.8-2.6,2.5-2.6h11c1.8,0,2.5,0.8,2.5,2.6v15.4h10.3v-15.4
		c0-1.8,0.8-2.6,2.5-2.6h11c1.8,0,2.5,0.8,2.5,2.6v45.9c0,1.8-0.8,2.5-2.5,2.5h-11c-1.8,0-2.5-0.8-2.5-2.5v-15.7h-10.3v15.7
		c0,1.8-0.8,2.5-2.5,2.5H87.8z"/>
	<path fill="#FFFFFF" d="M98.2,227.3H87.8c-1.8,0-2.5-0.9-2.5-2.6v-35c0-8.6,3.6-14.4,21.2-14.4c17.6,0,21.3,5.9,21.3,14.4v35
		c0,1.8-0.8,2.6-2.5,2.6h-10.8c-1.8,0-2.5-0.9-2.5-2.6v-10.5h-11.1v10.5C100.8,226.5,100,227.3,98.2,227.3z M100.8,201.2h11.1v-9.1
		c0-1.9-0.6-3.3-5.5-3.3c-5,0-5.6,1.4-5.6,3.3V201.2z"/>
	<path fill="#FFFFFF" d="M106.5,285c-2,2.3-5.3,3.5-10.6,3.5c-10.7,0-14.1-5.8-14.1-14.4v-35c0-1.8,0.8-2.6,2.5-2.6h8.3
		c1.8,0,2.5,0.8,2.5,2.6v32.8c0,1.9,0.5,2.8,2.3,2.8c1.8,0,2.3-0.9,2.3-2.8v-32.8c0-1.8,0.8-2.6,2.5-2.6h8.3c1.8,0,2.5,0.8,2.5,2.6
		v32.8c0,1.9,0.4,2.8,2.3,2.8c1.8,0,2.3-0.9,2.3-2.8v-32.8c0-1.8,0.7-2.6,2.5-2.6h8.3c1.8,0,2.5,0.8,2.5,2.6v35
		c0,8.6-3.4,14.4-14.1,14.4C111.8,288.6,108.4,287.3,106.5,285z"/>
	<path fill="#FFFFFF" d="M98.2,347.7H87.8c-1.8,0-2.5-0.9-2.5-2.6v-35c0-8.6,3.6-14.4,21.2-14.4c17.6,0,21.3,5.9,21.3,14.4v35
		c0,1.8-0.8,2.6-2.5,2.6h-10.8c-1.8,0-2.5-0.9-2.5-2.6v-10.5h-11.1v10.5C100.8,346.8,100,347.7,98.2,347.7z M100.8,321.6h11.1v-9.1
		c0-1.9-0.6-3.3-5.5-3.3c-5,0-5.6,1.4-5.6,3.3V321.6z"/>
	<path fill="#FFFFFF" d="M101.4,405.3c0,1.8-0.8,2.5-2.5,2.5h-11c-1.8,0-2.5-0.8-2.5-2.5v-45.9c0-1.8,0.8-2.6,2.5-2.6h11
		c1.8,0,2.5,0.8,2.5,2.6V405.3z M111.7,359.4c0-1.8,0.8-2.6,2.5-2.6h11c1.8,0,2.5,0.8,2.5,2.6v45.9c0,1.8-0.8,2.5-2.5,2.5h-11
		c-1.8,0-2.5-0.8-2.5-2.5V359.4z"/>
	<path fill="#FFFFFF" d="M98.2,468H87.8c-1.8,0-2.5-0.9-2.5-2.6v-35c0-8.6,3.6-14.4,21.2-14.4c17.6,0,21.3,5.9,21.3,14.4v35
		c0,1.8-0.8,2.6-2.5,2.6h-10.8c-1.8,0-2.5-0.9-2.5-2.6v-10.5h-11.1v10.5C100.8,467.2,100,468,98.2,468z M100.8,441.9h11.1v-9.1
		c0-1.9-0.6-3.3-5.5-3.3c-5,0-5.6,1.4-5.6,3.3V441.9z"/>
	<path fill="#FFFFFF" d="M106.5,476.1c17.6,0,21.2,5.8,21.2,14.4v35c0,1.8-0.8,2.6-2.5,2.6h-11.1c-1.8,0-2.5-0.9-2.5-2.6v-32.3
		c0-1.9-0.8-3.3-5.2-3.3c-4.4,0-5.2,1.4-5.2,3.3v32.3c0,1.8-0.7,2.6-2.5,2.6H87.8c-1.8,0-2.5-0.9-2.5-2.6v-35
		C85.3,481.9,89,476.1,106.5,476.1z"/>
</g>
<g>
	<path fill="#265560" d="M231.5,36.1c24.8,0,42.3,17.4,42.3,42.3c0,24.8-17.4,42.3-42.3,42.3s-42.3-17.4-42.3-42.3
		C189.2,53.5,206.7,36.1,231.5,36.1z"/>
	<path fill="#265560" d="M231.5,123.5c24.8,0,42.3,17.4,42.3,42.3c0,24.8-17.4,42.3-42.3,42.3s-42.3-17.4-42.3-42.3
		C189.2,141,206.7,123.5,231.5,123.5z"/>
	<path fill="#265560" d="M231.5,211c24.8,0,42.3,17.4,42.3,42.3c0,24.8-17.4,42.3-42.3,42.3s-42.3-17.4-42.3-42.3
		C189.2,228.4,206.7,211,231.5,211z"/>
	<path fill="#265560" d="M231.5,298.5c24.8,0,42.3,17.4,42.3,42.3c0,24.8-17.4,42.3-42.3,42.3s-42.3-17.4-42.3-42.3
		C189.2,315.9,206.7,298.5,231.5,298.5z"/>
	<path fill="#265560" d="M231.5,385.9c24.8,0,42.3,17.4,42.3,42.3c0,24.8-17.4,42.3-42.3,42.3s-42.3-17.4-42.3-42.3
		C189.2,403.4,206.7,385.9,231.5,385.9z"/>
</g>
<g>
	<path fill="#FFFFFF" d="M214.2,102.2c-1.6,0-2.4-0.7-2.4-2.4V57.6c0-1.6,0.7-2.4,2.4-2.4h21.1c12.3,0,16.1,5.4,16.1,13.3v20.4
		c0,7.9-3.7,13.3-16.1,13.3H214.2z M226.7,89.9h6.9c2.6,0,3.1-1.4,3.1-3.2V70.8c0-1.7-0.5-3.1-3.1-3.1h-6.9V89.9z"/>
</g>
<g>
	<path fill="#FFFFFF" d="M212.5,186.4v-7.8c0-1.6,0.7-2.4,2.4-2.4h8.7v-21.9h-8.7c-1.6,0-2.4-0.7-2.4-2.3v-7.9
		c0-1.6,0.7-2.4,2.4-2.4h33.3c1.6,0,2.4,0.7,2.4,2.4v7.9c0,1.6-0.7,2.3-2.4,2.3h-8.7v21.9h8.7c1.6,0,2.4,0.7,2.4,2.4v7.8
		c0,1.6-0.7,2.4-2.4,2.4h-33.3C213.2,188.8,212.5,188.1,212.5,186.4z"/>
</g>
<g>
	<path fill="#FFFFFF" d="M214.2,277.2c-1.6,0-2.4-0.7-2.4-2.4v-42.3c0-1.6,0.7-2.4,2.4-2.4h6.8c1.7,0,2.7,0.5,3.9,1.8l11.8,14.5
		v-13.9c0-1.6,0.7-2.4,2.3-2.4h9.8c1.6,0,2.4,0.7,2.4,2.4v42.3c0,1.6-0.7,2.4-2.4,2.4H239c-1.6,0-2.3-0.7-2.3-2.4v-8l-10.3-13.5
		v21.5c0,1.6-0.7,2.4-2.3,2.4H214.2z"/>
</g>
<g>
	<path fill="#FFFFFF" d="M214.2,363.3c-1.6,0-2.4-0.7-2.4-2.4v-42.3c0-1.6,0.7-2.4,2.4-2.4h33.8c1.6,0,2.4,0.7,2.4,2.4v7.6
		c0,1.6-0.7,2.4-2.4,2.4h-21.3v5h16.1c1.6,0,2.3,0.7,2.3,2.3v7c0,1.6-0.7,2.4-2.3,2.4h-16.1v5.6h21.3c1.6,0,2.4,0.7,2.4,2.4v7.6
		c0,1.6-0.7,2.4-2.4,2.4H214.2z"/>
</g>
<g>
	<path fill="#FFFFFF" d="M214.2,451.1c-1.6,0-2.4-0.7-2.4-2.4v-42.3c0-1.6,0.7-2.4,2.4-2.4h21c9.8,0,12.9,4.4,12.9,10.9v3
		c0,3.7-0.9,6.3-3.7,7.4c4,0.5,7.2,4,7.2,9.5v13.8c0,1.6-0.7,2.4-2.4,2.4h-10.1c-1.6,0-2.4-0.7-2.4-2.4v-10.4c0-2-0.7-2.8-2.5-2.8
		h-7.8v13.3c0,1.6-0.7,2.4-2.4,2.4H214.2z M226.7,424.2h4.2c2.3,0,2.9-1.3,2.9-3.1v-2.2c0-1.8-0.6-3.1-2.9-3.1h-4.2V424.2z"/>
</g>
<g>
	<path fill="#265560" d="M1011.6,119.6h-74.7c-1.9,0-2.7-0.8-2.7-2.7V42.2c0-1.9,0.8-2.7,2.7-2.7h74.7c1.9,0,2.7,0.8,2.7,2.7V117
		C1014.3,118.8,1013.4,119.6,1011.6,119.6z"/>
	<path fill="#265560" d="M1011.6,212.3h-74.7c-1.9,0-2.7-0.8-2.7-2.7v-74.7c0-1.8,0.8-2.7,2.7-2.7h74.7c1.9,0,2.7,0.8,2.7,2.7v74.7
		C1014.3,211.5,1013.4,212.3,1011.6,212.3z"/>
	<path fill="#265560" d="M1011.6,304.9h-74.7c-1.9,0-2.7-0.8-2.7-2.7v-74.7c0-1.9,0.8-2.7,2.7-2.7h74.7c1.9,0,2.7,0.8,2.7,2.7v74.7
		C1014.3,304.1,1013.4,304.9,1011.6,304.9z"/>
	<path fill="#265560" d="M1011.6,397.6h-74.7c-1.9,0-2.7-0.8-2.7-2.7v-74.7c0-1.9,0.8-2.7,2.7-2.7h74.7c1.9,0,2.7,0.8,2.7,2.7v74.7
		C1014.3,396.8,1013.4,397.6,1011.6,397.6z"/>
	<path fill="#265560" d="M1011.6,490.2h-74.7c-1.9,0-2.7-0.8-2.7-2.7v-74.7c0-1.8,0.8-2.7,2.7-2.7h74.7c1.9,0,2.7,0.8,2.7,2.7v74.7
		C1014.3,489.4,1013.4,490.2,1011.6,490.2z"/>
</g>
<g>
	<path fill="#FFFFFF" d="M955.5,104.2c-1.6,0-2.3-0.7-2.3-2.4l0.3-42.3c0-1.6,0.7-2.4,2.4-2.4h8.6c1.7,0,3.4,0.5,4.2,2l4.6,11.5h1.6
		l5.1-11.5c0.9-1.4,2-2,3.7-2h9.1c1.7,0,2.4,0.7,2.4,2.4l0.3,42.3c0,1.6-0.7,2.4-2.4,2.4H983c-1.6,0-2.4-0.7-2.4-2.4l-0.3-19.1V80
		l-2.5,7.2c-0.8,1.5-1.8,2.1-3.5,2.1h-1.8c-1.7,0-2.6-0.6-3.5-2.1l-2.5-7.2v2.7l-0.2,19.1c0,1.6-0.7,2.4-2.3,2.4H955.5z"/>
</g>
<g>
	<path fill="#FFFFFF" d="M974.2,195.7c-16,0-19.8-5.4-19.8-13.3v-22.3c0-8,3.8-13.4,19.8-13.4c16,0,19.8,5.4,19.8,13.4v22.3
		C994.1,190.3,990.2,195.7,974.2,195.7z M974.2,183.1c4.4,0,5.1-1.3,5.1-3.1v-17.6c0-1.7-0.7-3-5.1-3c-4.3,0-5,1.3-5,3V180
		C969.2,181.7,969.9,183.1,974.2,183.1z"/>
</g>
<g>
	<path fill="#FFFFFF" d="M968.7,287.9c-1.6,0-2.4-0.7-2.4-2.4v-32.1H957c-1.6,0-2.3-0.7-2.3-2.3v-7.9c0-1.6,0.7-2.4,2.3-2.4h34.5
		c1.6,0,2.4,0.7,2.4,2.4v7.9c0,1.6-0.7,2.3-2.4,2.3H982v32.1c0,1.6-0.7,2.4-2.3,2.4H968.7z"/>
</g>
<g>
	<path fill="#FFFFFF" d="M957,378.9c-1.6,0-2.3-0.7-2.3-2.4v-42.3c0-1.6,0.7-2.4,2.3-2.4h33.8c1.6,0,2.3,0.7,2.3,2.4v7.6
		c0,1.6-0.7,2.4-2.3,2.4h-21.4v5h16.1c1.6,0,2.4,0.7,2.4,2.3v7c0,1.6-0.7,2.4-2.4,2.4h-16.1v5.6h21.4c1.6,0,2.3,0.7,2.3,2.4v7.6
		c0,1.6-0.7,2.4-2.3,2.4H957z"/>
</g>
<g>
	<path fill="#FFFFFF" d="M957,472.5c-1.6,0-2.3-0.7-2.3-2.4v-42.3c0-1.6,0.7-2.4,2.3-2.4h10.1c1.6,0,2.3,0.7,2.3,2.4v32.3h10.2
		v-10.6c0-1.6,0.7-2.4,2.3-2.4h9.5c1.6,0,2.4,0.7,2.4,2.4v20.6c0,1.6-0.7,2.4-2.4,2.4H957z"/>
</g>
<path fill="#26839C" d="M661.7,63.8h-2.1c0-6.7-5.5-12.2-12.2-12.2C645.6,41.6,636,35,609.9,35c-26.1,0-35.8,6.6-37.5,16.6
	c-6.7,0-12.2,5.5-12.2,12.2H558c-2.2,0-3.1,1-3.1,3.1v6.8c0,2.2,1,3.1,3.1,3.1h4.7V163v7v80.3v7v80.3v7v22.1V461v13.6v1.9v5.4
	c0,2.2,1,3.1,3.1,3.1h2.1c0,6.7,5.5,12.2,12.2,12.2v2.1c0,2.2,1,3.1,3.1,3.1h53.1c2.2,0,3.1-1,3.1-3.1v-2.1
	c6.7,0,12.2-5.5,12.2-12.2h2.1c2.2,0,3.1-1,3.1-3.1v-5.4v11.6V461v-94.3v-22.1v-7v-80.3v-7V170v-7V76.9h4.7c2.2,0,3.1-1,3.1-3.1V67
	C664.9,64.8,663.9,63.8,661.7,63.8z"/>
<g>
	<path fill="#FFFFFF" d="M336.3,129.1c-1.8,0-2.5-0.8-2.5-2.5V80.7c0-1.8,0.8-2.6,2.5-2.6h11c1.8,0,2.5,0.8,2.5,2.6v35h11v-11.5
		c0-1.8,0.8-2.5,2.5-2.5h10.3c1.8,0,2.5,0.8,2.5,2.5v22.3c0,1.8-0.8,2.5-2.5,2.5H336.3z"/>
	<path fill="#FFFFFF" d="M334.4,188.9v-8.4c0-1.8,0.8-2.6,2.5-2.6h9.5v-23.8h-9.5c-1.8,0-2.5-0.8-2.5-2.6V143c0-1.8,0.8-2.6,2.5-2.6
		H373c1.8,0,2.5,0.8,2.5,2.6v8.6c0,1.8-0.8,2.6-2.5,2.6h-9.5v23.8h9.5c1.8,0,2.5,0.8,2.5,2.6v8.4c0,1.8-0.8,2.5-2.5,2.5h-36.1
		C335.1,191.4,334.4,190.6,334.4,188.9z"/>
	<path fill="#FFFFFF" d="M349.4,259.5c-1.8,0-2.5-0.8-2.5-2.6v-4c-10.6-1.6-13.5-6.8-13.5-13.9v-23.5c0-8.6,4.2-14.5,21.5-14.5
		c17.3,0,21.5,5.9,21.5,14.5v23.5c0,7.2-2.8,12.3-13.6,13.9v3.9c0,1.8-0.8,2.6-2.5,2.6H349.4z M355,240.9c4.7,0,5.5-1.4,5.5-3.3
		v-19.3c0-1.8-0.8-3.3-5.5-3.3c-4.7,0-5.4,1.4-5.4,3.3v19.3C349.5,239.5,350.3,240.9,355,240.9z"/>
	<path fill="#FFFFFF" d="M355,319.6c-17,0-21.2-5.8-21.2-14.4v-35c0-1.8,0.8-2.6,2.5-2.6h11.1c1.8,0,2.5,0.8,2.5,2.6v32.3
		c0,1.9,0.8,3.3,5.2,3.3c4.4,0,5.2-1.4,5.2-3.3v-32.3c0-1.8,0.7-2.6,2.5-2.6h10.8c1.8,0,2.5,0.8,2.5,2.6v35
		C376.2,313.8,372,319.6,355,319.6z"/>
	<path fill="#FFFFFF" d="M355,380.8c-17.3,0-21.5-5.8-21.5-14.4v-24.1c0-8.6,4.2-14.5,21.5-14.5c17.3,0,21.5,5.9,21.5,14.5v24.1
		C376.5,375,372.3,380.8,355,380.8z M355,367.2c4.7,0,5.5-1.4,5.5-3.3v-19c0-1.8-0.8-3.3-5.5-3.3c-4.7,0-5.4,1.4-5.4,3.3v19
		C349.5,365.7,350.3,367.2,355,367.2z"/>
	<path fill="#FFFFFF" d="M336.3,440.9c-1.8,0-2.5-0.8-2.5-2.5v-45.9c0-1.8,0.8-2.6,2.5-2.6h22.8c10.6,0,13.9,4.8,13.9,11.8v3.3
		c0,4-1,6.8-4,8.1c4.3,0.6,7.9,4.3,7.9,10.3v15c0,1.8-0.8,2.5-2.5,2.5h-11c-1.8,0-2.5-0.8-2.5-2.5v-11.3c0-2.1-0.7-3-2.7-3h-8.4
		v14.4c0,1.8-0.8,2.5-2.5,2.5H336.3z M349.7,411.8h4.5c2.5,0,3.1-1.4,3.1-3.3V406c0-1.9-0.6-3.3-3.1-3.3h-4.5V411.8z"/>
</g>
<g>
	<path fill="#FFFFFF" d="M593.7,122.2c-1.7,0-2.4-0.7-2.4-2.4v-44c0-1.7,0.7-2.4,2.4-2.4h21.1c9.2,0,13,4.4,13,10.4V87
		c0,3.5-1,6-4,7.3c4.9,0.5,8.6,4.1,8.6,10.5v6.3c0,6.9-4.5,11.1-13.2,11.1H593.7z M606.6,92.2h5.2c2.2,0,2.6-1.3,2.6-2.7v-1.9
		c0-1.4-0.4-2.7-2.6-2.7h-5.2V92.2z M606.6,110.7h8.2c2.2,0,2.6-1.3,2.6-2.7v-2.7c0-1.4-0.4-2.6-2.6-2.6h-8.2V110.7z"/>
	<path fill="#FFFFFF" d="M611.7,181.6c-16.3,0-20.4-5.6-20.4-13.9v-33.6c0-1.7,0.7-2.4,2.4-2.4h10.7c1.7,0,2.4,0.7,2.4,2.4v31
		c0,1.8,0.8,3.2,5,3.2c4.2,0,5-1.4,5-3.2v-31c0-1.7,0.7-2.4,2.4-2.4h10.3c1.7,0,2.4,0.7,2.4,2.4v33.6C632,176,628,181.6,611.7,181.6
		z"/>
	<path fill="#FFFFFF" d="M593.7,239.2c-1.7,0-2.4-0.7-2.4-2.4v-44c0-1.7,0.7-2.4,2.4-2.4h21.9c10.2,0,13.4,4.6,13.4,11.3v3.1
		c0,3.8-1,6.5-3.8,7.7c4.1,0.5,7.5,4.1,7.5,9.9v14.4c0,1.7-0.7,2.4-2.4,2.4h-10.5c-1.7,0-2.4-0.7-2.4-2.4v-10.9c0-2-0.7-2.9-2.6-2.9
		h-8.1v13.8c0,1.7-0.7,2.4-2.4,2.4H593.7z M606.6,211.2h4.3c2.4,0,3-1.4,3-3.2v-2.3c0-1.8-0.6-3.2-3-3.2h-4.3V211.2z"/>
	<path fill="#FFFFFF" d="M607.6,297.2c-12.8,0-16.7-5.6-16.7-13.9v-21.2c0-8.2,3.9-13.9,16.7-13.9h17.5c1.7,0,2.4,0.7,2.4,2.4v8.2
		c0,1.7-0.7,2.4-2.4,2.4h-14.7c-3.5,0-4.1,1.6-4.1,3.4V281c0,1.8,0.4,3.3,3.1,3.3h7.1v-10.6c0-1.7,0.7-2.4,2.4-2.4h10.5
		c1.7,0,2.4,0.7,2.4,2.4v21c0,1.7-0.7,2.4-2.4,2.4H607.6z"/>
	<path fill="#FFFFFF" d="M593.7,356.4c-1.7,0-2.4-0.7-2.4-2.4v-44c0-1.7,0.7-2.4,2.4-2.4h35.2c1.7,0,2.4,0.7,2.4,2.4v7.9
		c0,1.7-0.7,2.4-2.4,2.4h-22.2v5.2h16.7c1.7,0,2.4,0.7,2.4,2.4v7.3c0,1.7-0.7,2.4-2.4,2.4h-16.7v5.8h22.2c1.7,0,2.4,0.7,2.4,2.4v7.9
		c0,1.7-0.7,2.4-2.4,2.4H593.7z"/>
	<path fill="#FFFFFF" d="M593.7,415.6c-1.7,0-2.4-0.7-2.4-2.4v-44c0-1.7,0.7-2.4,2.4-2.4h21.9c10.2,0,13.4,4.6,13.4,11.3v3.1
		c0,3.8-1,6.5-3.8,7.7c4.1,0.5,7.5,4.1,7.5,9.9v14.4c0,1.7-0.7,2.4-2.4,2.4h-10.5c-1.7,0-2.4-0.7-2.4-2.4v-10.9c0-2-0.7-2.9-2.6-2.9
		h-8.1v13.8c0,1.7-0.7,2.4-2.4,2.4H593.7z M606.6,387.6h4.3c2.4,0,3-1.4,3-3.2v-2.3c0-1.8-0.6-3.2-3-3.2h-4.3V387.6z"/>
	<path fill="#FFFFFF" d="M593.7,473.9c-1.7,0-2.4-0.7-2.4-2.4v-7.9c0-1.7,0.7-2.4,2.4-2.4h21.1c1.2,0,1.8-0.9,1.8-2
		c0-1.6-0.6-2.2-1.8-2.3l-13-1.4c-6.4-1-10.5-3.7-10.5-11.3V437c0-7.7,5.2-12,14.1-12h22.5c1.7,0,2.4,0.7,2.4,2.4v8.1
		c0,1.7-0.7,2.4-2.4,2.4h-19.4c-1.2,0-1.8,0.8-1.8,2c0,1.2,0.7,2,1.8,2.2l13,1.4c6.4,0.9,10.6,3.7,10.6,11.3v7.1
		c0,7.7-5.3,12-14.1,12H593.7z"/>
</g>
<g>
	<path fill="#FFFFFF" d="M71.1,90.3c-0.8,0-1.1-0.3-1.1-1.1V73.9h-4.6c-0.8,0-1.1-0.3-1.1-1.1V69c0-0.8,0.3-1.1,1.1-1.1h16.4
		c0.8,0,1.1,0.3,1.1,1.1v3.8c0,0.8-0.3,1.1-1.1,1.1h-4.6v15.3c0,0.8-0.3,1.1-1.1,1.1H71.1z"/>
	<path fill="#FFFFFF" d="M96.3,90.3c-0.8,0-1.1-0.3-1.1-1.1V69c0-0.8,0.3-1.1,1.1-1.1h4.8c0.8,0,1.1,0.3,1.1,1.1v6.7h5.2V69
		c0-0.8,0.3-1.1,1.1-1.1h4.8c0.8,0,1.1,0.3,1.1,1.1v20.1c0,0.8-0.3,1.1-1.1,1.1h-4.8c-0.8,0-1.1-0.3-1.1-1.1v-6.9h-5.2v6.9
		c0,0.8-0.3,1.1-1.1,1.1H96.3z"/>
	<path fill="#FFFFFF" d="M129.2,90.3c-0.8,0-1.1-0.3-1.1-1.1V69c0-0.8,0.3-1.1,1.1-1.1h14.4c0.8,0,1.1,0.3,1.1,1.1v3.6
		c0,0.8-0.3,1.1-1.1,1.1h-8.5v2.4h6c0.8,0,1.1,0.3,1.1,1.1v3.3c0,0.8-0.3,1.1-1.1,1.1h-6v2.7h8.5c0.8,0,1.1,0.3,1.1,1.1v3.6
		c0,0.8-0.3,1.1-1.1,1.1H129.2z"/>
</g>
<path fill="#265560" d="M765.1,117.6h-67.3c-1.9,0-2.7-0.8-2.7-2.7V40.2c0-1.9,0.8-2.7,2.7-2.7h82.1c1.9,0,3,0.8,2.7,2.7L767.7,115
	C767.4,116.8,766.9,117.6,765.1,117.6z"/>
<path fill="#26839C" d="M765.1,205.1h-67.3c-1.9,0-2.7-0.8-2.7-2.7v-74.7c0-1.9,0.8-2.7,2.7-2.7h82.1c1.9,0,3,0.8,2.7,2.7
	l-14.8,74.7C767.4,204.3,766.9,205.1,765.1,205.1z"/>
<path fill="#265560" d="M765.1,292.6h-67.3c-1.9,0-2.7-0.8-2.7-2.7v-74.7c0-1.9,0.8-2.7,2.7-2.7h82.1c1.9,0,3,0.8,2.7,2.7
	l-14.8,74.7C767.4,291.7,766.9,292.6,765.1,292.6z"/>
<path fill="#26839C" d="M765.1,380h-67.3c-1.9,0-2.7-0.8-2.7-2.7v-74.7c0-1.9,0.8-2.7,2.7-2.7h82.1c1.9,0,3,0.8,2.7,2.7l-14.8,74.7
	C767.4,379.2,766.9,380,765.1,380z"/>
<path fill="#265560" d="M765.1,467.5h-67.3c-1.9,0-2.7-0.8-2.7-2.7v-74.7c0-1.9,0.8-2.7,2.7-2.7h82.1c1.9,0,3,0.8,2.7,2.7
	l-14.8,74.7C767.4,466.7,766.9,467.5,765.1,467.5z"/>
<path fill="#26839C" d="M765.1,555h-67.3c-1.9,0-2.7-0.8-2.7-2.7v-74.7c0-1.9,0.8-2.7,2.7-2.7h82.1c1.9,0,3,0.8,2.7,2.7l-14.8,74.7
	C767.4,554.1,766.9,555,765.1,555z"/>
<g>
	<path fill="#FFFFFF" d="M755.5,80.1v20.2c0,1.3-0.6,2-2,2h-6.9c-1.4,0-2.2-0.7-2-2v-17c0-2.9-1.4-4-4.4-4H736l2.7,10.4
		c0.1,1.3-2,2.2-3.4,1.2l-21.2-14.2c-1.2-0.7-2-1.5-2-2.8s0.8-2.1,2-2.7l21.2-14.2c1.4-1,3.5-0.1,3.4,1.2L736,68.5h5.4
		C752.3,68.5,755.5,73.1,755.5,80.1z"/>
</g>
<g>
	<path fill="#FFFFFF" d="M735.6,190.1l-19.8-19.8c-1.2-1.2-1.2-2.4-0.1-3.5l3.3-3.3c1.1-1.1,2.4-1.1,3.4-0.1l1.7,1.7l6.9-10
		c0.6-0.9,1.6-1.9,2.6-2.8l13.8-12c1.2-1,2.4-1,3.6,0.2l1.3,1.3c1.2,1.2,1.2,2.4-0.1,3.7l-6.5,6.5c0.3,0.1,0.5,0.3,0.8,0.5l1.6,1.6
		c1,0.9,1.2,2,0.4,3.1c0.5,0.1,0.8,0.3,1.2,0.6l1.7,1.7c1,0.9,1.1,1.9,0.5,2.9c0.5,0.1,0.9,0.3,1.2,0.7l1.8,1.8c1,1,0.9,2.5,0,3.6
		l-9.8,10.6c-1,1-2.2,1.5-2.9,1.8l-1.7,0.5l2.2,2.2c1,1,1,2.2-0.1,3.3l-3.3,3.3C738,191.3,736.8,191.3,735.6,190.1z M741.4,184.4
		l-19.8-19.9c-0.5-0.5-1.1-0.5-1.6,0l-1.4,1.4c-0.5,0.5-0.5,1,0,1.6l19.8,19.8c0.5,0.5,1.2,0.5,1.6,0.1l1.4-1.4
		C741.9,185.5,741.9,184.8,741.4,184.4z M741.6,179.5c0.6-0.1,1.5-0.6,2.3-1.4l9.8-10.7c0.5-0.5,0.5-1.2,0-1.7L752,164
		c-0.4-0.4-0.9-0.7-1.4-0.2v-0.1l-3.2,3.9l-0.9-1l3.7-4.4c0.7-0.7,0.7-1.2,0.1-1.8l-1.6-1.6c-0.6-0.6-1.1-0.7-1.5-0.3l-3.3,3.9
		l-0.9-0.9l4-4.6c0.6-0.7,0.7-1.2,0.1-1.8l-1.4-1.5c-0.5-0.5-1-0.6-1.4,0v-0.1l-3.9,3.8l-0.9-0.9l11.8-11.8c0.7-0.7,0.7-1.3,0.1-1.9
		l-1.3-1.3c-0.7-0.7-1.3-0.5-1.8-0.1l-13.8,12c-0.9,0.8-1.8,1.8-2.3,2.4l-7,10.3l14.1,14.1L741.6,179.5z"/>
</g>
<g>
	<path fill="#FFFFFF" d="M742,269.4l-7.4-8.4l-7.6,7.6c-1,1-2.9,0.1-3.3-1.5l-5-25.5c-0.3-1.4-0.3-2.5,0.7-3.4c1-1,2.1-1,3.5-0.7
		l25.5,5c1.6,0.3,2.5,2.3,1.5,3.3l-7.6,7.6l8.4,7.4c1,0.9,0.9,1.9-0.1,2.8l-5.8,5.9C743.9,270.3,743,270.4,742,269.4z"/>
</g>
<g>
	<path fill="#FFFFFF" d="M725.1,359.1l-2.7-0.7c-1.1-0.3-1.7-1-1.5-2.3l0.9-5.7c0.3-1.8,0.7-3.5,0.5-5.2l-0.3-4.2l-3.4,3.4
		c-0.9,1-2.2,1.1-3.3,0l-3.3-3.3c-1.1-1.1-1.1-2.3,0-3.5l16.1-16.1c1.2-1.2,2.4-1.1,3.5,0l3.3,3.3c1.1,1.1,1.1,2.3,0.1,3.4l-1.9,1.8
		l9.2,3.5c1.9,0.8,3.1,2,4.1,3.3l12.4,16.5c0.9,1.1,0.5,2-0.4,2.8l-1.7,1.8c-0.7,0.7-1.8,0.9-2.6,0.1l-10.4-9.5l-4.5,4.5
		c-1.4,1.4-2.9,2.2-5.1,1.4l-4.4-1.5l-2,4.4C727,358.5,726.2,359.3,725.1,359.1z M717.7,343.3l16.1-16.2c0.5-0.5,0.5-1,0-1.6
		l-1.4-1.4c-0.5-0.5-1-0.5-1.6,0l-16.1,16.1c-0.5,0.5-0.5,1.2-0.1,1.6l1.5,1.5C716.6,343.9,717.2,343.8,717.7,343.3z M726.4,356.7
		l3.4-7.4c0.8-2,1.6-3.1,3.5-3.9l3.5-1.6c1.4-0.7,3-0.6,4.3,0.7l13.2,12.1c0.5,0.5,1.1,0.5,1.6,0.1l1.4-1.4c0.5-0.5,0.5-1,0.2-1.4
		l-12.3-16.5c-0.9-1.2-1.9-2.1-3.4-2.7l-9.8-3.7l-8.8,8.7l0.4,5.2c0.2,1.9-0.2,3.7-0.5,5.7l-0.9,5.6c-0.1,0.5,0.2,0.8,0.5,0.9
		l2.4,0.7C725.6,357.9,726.1,357.6,726.4,356.7z M738,352.2l4.6-4.6l-2.3-2.1c-1-0.8-2-1-3.1-0.5l-2.9,1.2c-0.1,0.4,0.3,0.9,0.9,1.6
		l-0.2,0.2c-0.8-0.7-1.6-1-2.3-1c-0.8,0.7-1.3,1.4-1.8,2.7l-0.9,1.8l4.3,1.5C735.9,353.7,737.1,353.1,738,352.2z"/>
</g>
<g>
	<path fill="#FFFFFF" d="M728.1,439c-0.7,0-1.4-0.5-1.4-1.2v-3.1c0-0.6,0.4-1.2,1-1.1l5.4,0.4v-0.7l-6.2-0.5
		c-0.9-0.1-1.6-0.4-1.6-1.2v-2.9c0-0.8,0.5-1.3,1.2-1.2l5.4,0.4v-0.7l-6.5-0.5c-0.9-0.1-1.6-0.4-1.6-1.2v-2.7c0-0.7,0.5-1,1.2-1h5.9
		v-0.7h-17.2c-0.9,0-1.6-0.4-1.6-1.2v-3.1c0-0.9,0.8-1.3,1.4-1.4l18.7-1.3c1.2-0.1,2.5-0.1,3.4,0.1l12.2,2.3v21.3l-2.2,1.2
		c-0.5,0.3-1.5,0.7-2.6,0.7L728.1,439z M748.5,442.3v-29.4c0-0.8,0.5-1.2,1.1-1.2h5.9c0.7,0,1.1,0.4,1.1,1.2v29.4
		c0,0.7-0.5,1.2-1.1,1.2h-5.9C748.9,443.5,748.5,443,748.5,442.3z"/>
</g>
<g>
	<path fill="#FFFFFF" d="M743.4,537.8c-1.6,0-2.5-0.9-2.5-2.7v-9.1c-0.3,0.1-0.6,0.1-0.9,0.1h-2.2c-1.4,0-2.2-0.6-2.5-1.9
		c-0.3,0.3-0.7,0.4-1.2,0.4h-2.4c-1.3,0-2.1-0.5-2.4-1.7c-0.3,0.3-0.8,0.3-1.2,0.3h-2.5c-1.4,0-2.5-1.1-2.5-2.5l-0.6-14.5
		c0-1.4,0.5-2.6,0.8-3.3l0.9-1.6h-3.1c-1.4,0-2.3-0.8-2.3-2.4v-4.6c0-1.6,0.8-2.4,2.5-2.4h28.1c1.8,0,2.5,0.8,2.5,2.4v4.6
		c0,1.6-0.9,2.4-2.3,2.4h-2.4l2.2,11.9c0.2,1,0.2,2.5,0.1,3.8l-1.3,18.3c-0.1,1.6-1,2.4-2.7,2.4H743.4z M721.1,500.1h28.1
		c0.8,0,1.2-0.5,1.2-1.1v-2c0-0.7-0.4-1.1-1.2-1.1h-28.1c-0.7,0-1.2,0.5-1.2,1.1v2C719.9,499.6,720.4,500.1,721.1,500.1z
		 M745.2,536.5c0.9,0,1.3-0.6,1.4-1.2l1.3-18.3c0.1-1.2,0.1-2.5-0.1-3.4l-2.4-12.2h-20l-1.2,2.2c-0.3,0.5-0.7,1.5-0.7,2.6l0.7,14.4
		c0,0.7,0.5,1.2,1.2,1.2h2.4c0.6,0,1.1-0.2,1.1-0.8l-0.4-4.9h1.3l0.5,5.7c0.1,0.9,0.4,1.4,1.2,1.4h2.2c0.8,0,1.2-0.3,1.2-1l-0.4-5
		h1.3l0.5,6.1c0.1,0.9,0.4,1.4,1.2,1.4h2.1c0.7,0,1.1-0.3,1-1v-5.4h1.3v16.7c0,0.9,0.4,1.4,1.2,1.4H745.2z"/>
</g>
<g>
	<path fill="#26839C" d="M831.8,79.3h51.8c25.1,20.1,24.7,64.4,0,84.5h-51.8C806.9,143.2,806.9,100,831.8,79.3z"/>
	<path fill="#26839C" d="M831.8,156.9h51.8c25.1,20.1,24.7,64.4,0,84.5h-51.8C806.9,220.8,806.9,177.6,831.8,156.9z"/>
	<path fill="#26839C" d="M831.8,234.5h51.8c25.1,20.1,24.7,64.4,0,84.5h-51.8C806.9,298.4,806.9,255.2,831.8,234.5z"/>
	<path fill="#26839C" d="M831.8,312.1h51.8c25.1,20.1,24.7,64.4,0,84.5h-51.8C806.9,376,806.9,332.8,831.8,312.1z"/>
	<path fill="#26839C" d="M831.8,389.7h51.8c25.1,20.1,24.7,64.4,0,84.5h-51.8C806.9,453.6,806.9,410.3,831.8,389.7z"/>
	<path fill="#26839C" d="M831.8,467.3h51.8c25.1,20.1,24.7,64.4,0,84.5h-51.8C806.9,531.1,806.9,487.9,831.8,467.3z"/>
</g>
<g>
	<path fill="#FFFFFF" d="M858.7,224c-16,0-19.8-5.4-19.8-13.3v-22.3c0-8,3.8-13.4,19.8-13.4c16,0,19.8,5.4,19.8,13.4v22.3
		C878.6,218.6,874.7,224,858.7,224z M858.7,211.4c4.4,0,5.1-1.3,5.1-3.1v-17.6c0-1.7-0.7-3-5.1-3c-4.3,0-5,1.3-5,3v17.6
		C853.7,210,854.4,211.4,858.7,211.4z"/>
</g>
<g>
	<path fill="#FFFFFF" d="M858.7,302.7c-15.7,0-19.6-5.4-19.6-13.3V257c0-1.6,0.7-2.4,2.3-2.4h10.3c1.6,0,2.3,0.7,2.3,2.4v29.8
		c0,1.8,0.8,3.1,4.8,3.1c4,0,4.8-1.3,4.8-3.1V257c0-1.6,0.7-2.4,2.4-2.4h9.9c1.6,0,2.4,0.7,2.4,2.4v32.3
		C878.3,297.3,874.4,302.7,858.7,302.7z"/>
</g>
<g>
	<path fill="#FFFFFF" d="M858.7,329.1c16.2,0,20.2,5.4,20.2,13.3v32.3c0,1.6-0.7,2.4-2.4,2.4h-10.2c-1.6,0-2.4-0.7-2.4-2.4V345
		c0-1.8-0.8-3.1-5.4-3.1c-4.6,0-5.4,1.3-5.4,3.1v29.8c0,1.6-0.7,2.4-2.3,2.4h-9.9c-1.6,0-2.4-0.7-2.4-2.4v-32.3
		C838.5,334.5,842.5,329.1,858.7,329.1z"/>
</g>
<g>
	<path fill="#FFFFFF" d="M853.1,455.2c-12.3,0-16.1-5.4-16.1-13.3v-20.4c0-7.9,3.7-13.3,16.1-13.3H870c1.6,0,2.4,0.7,2.4,2.4v7.9
		c0,1.6-0.7,2.3-2.4,2.3h-14.1c-3.4,0-4,1.6-4,3.3v15.6c0,1.8,0.4,3.2,3,3.2h6.9v-10.2c0-1.6,0.7-2.4,2.4-2.4h10.1
		c1.6,0,2.4,0.7,2.4,2.4v20.2c0,1.6-0.7,2.4-2.4,2.4H853.1z"/>
</g>
<g>
	<path fill="#FFFFFF" d="M836.9,499.1c0-8.1,3.8-13.6,16.3-13.6h20.7c1.7,0,2.4,0.7,2.4,2.4v7.7c0,1.7-0.7,2.4-2.4,2.4h-18.1
		c-3.4,0-4,1.6-4,3.3v1.8h16.8c1.7,0,2.4,0.7,2.4,2.4v7.1c0,1.7-0.7,2.4-2.4,2.4h-16.8v2.5c0,1.9,0.6,3.2,4,3.2h18.1
		c1.7,0,2.4,0.7,2.4,2.4v7.7c0,1.7-0.7,2.4-2.4,2.4h-20.7c-12.5,0-16.3-5.5-16.3-13.5V499.1z"/>
</g>
<g>
	<path fill="#FFFFFF" d="M854.2,99.3l0,32.5h21.7c1.7,0,2.4,0.7,2.4,2.4v8c0,1.7-0.7,2.4-2.4,2.4h-34.3c-1.7,0-2.4-0.7-2.4-2.4
		l0-42.9c0-1.7,0.7-2.4,2.4-2.4h10.3C853.4,96.9,854.2,97.7,854.2,99.3z"/>
</g>
<g>
	<path fill="#265560" d="M529.5,346.4v-83.8v-7v-51.2v-36.1v-22.1v-36.1v-44v-4.5c0-1.7,0-2.3,0.3-5.1l1.7-14.8
		c0.2-1.3-1.2-2.3-2.4-1.7l-25.3,10c-0.8,0.4-1.9,0.3-2.6-0.3l-16.5-13.7c-1.3-1.1-3.4-1.1-4.7,0l-16.5,13.7
		c-0.7,0.6-1.8,0.7-2.6,0.3l-25.3-10c-1.2-0.5-2.6,0.4-2.4,1.7l1.7,14.8c0.3,2.8,0.3,3.3,0.3,5.1v4.5v44v36.1v22.1v36.1v51.2v7v83.8
		v3.5v1c0,1.7,0,2.3-0.3,5.1l-1.7,14.8c-0.2,1.3,1.2,2.3,2.4,1.7l25.3-10c0.8-0.4,1.9-0.3,2.6,0.3l16.5,13.7c1.3,1.1,3.4,1.1,4.7,0
		l16.5-13.7c0.7-0.6,1.8-0.7,2.6-0.3l25.3,10c1.2,0.5,2.6-0.4,2.4-1.7l-1.7-14.8c-0.3-2.8-0.3-3.3-0.3-5.1v-1V346.4z"/>
	<path fill="#FFFFFF" d="M462.9,137.5c-1.8,0-2.7-0.8-2.7-2.7V87.1c0-1.8,0.8-2.7,2.7-2.7h22.9c10,0,14.2,4.8,14.2,11.3v3.5
		c0,3.8-1.1,6.6-4.4,8c5.3,0.5,9.3,4.5,9.3,11.4v6.8c0,7.4-4.9,12.1-14.3,12.1H462.9z M476.9,104.9h5.6c2.4,0,2.8-1.4,2.8-2.9v-2.1
		c0-1.5-0.4-2.9-2.8-2.9h-5.6V104.9z M476.9,125h8.9c2.4,0,2.8-1.4,2.8-2.9v-2.9c0-1.6-0.4-2.9-2.8-2.9h-8.9V125z"/>
	<path fill="#FFFFFF" d="M462.9,263.8c-1.8,0-2.7-0.8-2.7-2.7v-47.8c0-1.8,0.8-2.7,2.7-2.7h23.7c11.1,0,14.5,5,14.5,12.3v3.4
		c0,4.1-1,7.1-4.1,8.4c4.5,0.6,8.2,4.5,8.2,10.7v15.6c0,1.8-0.8,2.7-2.7,2.7h-11.4c-1.8,0-2.7-0.8-2.7-2.7v-11.8
		c0-2.2-0.7-3.2-2.8-3.2h-8.8v15c0,1.8-0.8,2.7-2.7,2.7H462.9z M476.9,233.4h4.7c2.6,0,3.2-1.5,3.2-3.5v-2.5c0-2-0.7-3.5-3.2-3.5
		h-4.7V233.4z"/>
	<path fill="#FFFFFF" d="M459.1,313.7l-4.7-4.7c-0.5-0.5-0.5-1.3,0.1-1.8l23.4-23.4c0.6-0.7,1.3-0.6,1.8-0.1l4.7,4.7
		c0.5,0.5,0.6,1.3-0.1,1.8L461,313.7C460.4,314.3,459.6,314.3,459.1,313.7z M467.4,316c-0.9-0.9-1.4-1.9-1.5-2.6l-0.9-2.7l17-17
		l11.6,7.9c0.8,0.5,1.9,1.6,2.8,2.7l13.9,16c0.4,0.5,0.7,1.5,0,2.2l-2.5,2.5c-0.7,0.7-1.5,0.4-2.3-0.3l-13.7-13.7l-0.5,0.5l4.7,4.7
		c0.6,0.5,0.7,1.2,0.1,1.8l-2.1,2.1c-0.7,0.7-1.5,0.4-2.3-0.2l-5.5-4.9l-0.5,0.5l4.6,4c0.6,0.5,0.6,1.3,0,2l-2.3,2.3
		c-0.7,0.7-1.5,0.4-2.3-0.3l-5.3-4.6l-0.5,0.5l4.6,4c0.6,0.4,0.4,1.3,0,1.7l-2.5,2.4c-0.5,0.5-1.5,0.4-2.1-0.1L467.4,316z"/>
	<path fill="#FFFFFF" d="M474.1,199.7h-10.4c-1.8,0-2.5-0.9-2.5-2.6v-35c0-8.6,3.6-14.4,21.2-14.4c17.6,0,21.3,5.9,21.3,14.4v35
		c0,1.8-0.8,2.6-2.5,2.6h-10.8c-1.8,0-2.5-0.9-2.5-2.6v-10.5h-11.1V197C476.7,198.8,475.9,199.7,474.1,199.7z M476.7,173.5h11.1
		v-9.1c0-1.9-0.6-3.3-5.5-3.3c-5,0-5.6,1.4-5.6,3.3V173.5z"/>
</g>
<g>
	<path fill="#26839C" d="M1050.3,44.3c0-3.4,1.7-5,5-5h75c3.4,0,5,1.7,5,5v17.8h-85.1V44.3z"/>
	<path fill="#26839C" d="M1050.3,140.9V55.8h85.1v85.1H1050.3z"/>
	<path fill="#26839C" d="M1050.3,219.7v-85.1h85.1v85.1H1050.3z"/>
	<path fill="#26839C" d="M1050.3,397.1V213.4h85.1v183.7H1050.3z"/>
	<path fill="#26839C" d="M1050.3,499.8v-109h85.1v109H1050.3z"/>
	<path fill="#26839C" d="M1135.5,497.2h11.1c5.5,0,7.3,7.7,0.8,12.6l-45.7,34.4c-5.4,4-12,4-17.3,0l-45.7-34.4
		c-6.5-4.8-4.8-12.6,0.8-12.6h11v-3.7h85.1V497.2z"/>
</g>
<g>
	<path fill="#FFFFFF" d="M1075.2,113.3c-1.7,0-2.4-0.7-2.4-2.4v-7.9c0-1.7,0.7-2.4,2.4-2.4h21.1c1.2,0,1.8-0.9,1.8-2
		c0-1.6-0.6-2.2-1.8-2.3l-13-1.4c-6.4-1-10.5-3.7-10.5-11.3v-7.1c0-7.7,5.2-12,14.1-12h22.5c1.7,0,2.4,0.7,2.4,2.4v8.1
		c0,1.7-0.7,2.4-2.4,2.4H1090c-1.2,0-1.8,0.8-1.8,2c0,1.2,0.7,2,1.8,2.2l13,1.4c6.4,0.9,10.6,3.7,10.6,11.3v7.1
		c0,7.7-5.3,12-14.1,12H1075.2z"/>
	<path fill="#FFFFFF" d="M1075.2,170.8c-1.7,0-2.4-0.7-2.4-2.4v-44c0-1.7,0.7-2.4,2.4-2.4h10.5c1.7,0,2.4,0.7,2.4,2.4V158h10.6v-11
		c0-1.7,0.7-2.4,2.4-2.4h9.9c1.7,0,2.4,0.7,2.4,2.4v21.4c0,1.7-0.7,2.4-2.4,2.4H1075.2z"/>
	<path fill="#FFFFFF" d="M1072.5,224c0-1.7,0.7-2.4,2.4-2.4h18.7c3.3,0,5-1.3,5-4.5v-28.8c0-1.7,0.7-2.4,2.4-2.4h10.5
		c1.7,0,2.4,0.7,2.4,2.4v32.2c0,9-5.5,14.3-14.5,14.3H1075c-1.7,0-2.4-0.7-2.4-2.4V224z M1075,212.2c-1.7,0-2.4-0.7-2.4-2.4v-21.6
		c0-1.7,0.7-2.4,2.4-2.4h10.5c1.7,0,2.4,0.7,2.4,2.4v21.6c0,1.7-0.7,2.4-2.4,2.4H1075z"/>
	<path fill="#FFFFFF" d="M1087.4,298.5c-1.7,0-2.4-0.7-2.4-2.4v-33.3h-9.8c-1.7,0-2.4-0.7-2.4-2.4V252c0-1.7,0.7-2.4,2.4-2.4h35.9
		c1.7,0,2.4,0.7,2.4,2.4v8.2c0,1.7-0.7,2.4-2.4,2.4h-9.8V296c0,1.7-0.7,2.4-2.4,2.4H1087.4z"/>
	<path fill="#FFFFFF" d="M1075.2,356.5c-1.7,0-2.4-0.7-2.4-2.4v-44c0-1.7,0.7-2.4,2.4-2.4h35.2c1.7,0,2.4,0.7,2.4,2.4v7.9
		c0,1.7-0.7,2.4-2.4,2.4h-22.2v5.2h16.7c1.7,0,2.4,0.7,2.4,2.4v7.3c0,1.7-0.7,2.4-2.4,2.4h-16.7v5.8h22.2c1.7,0,2.4,0.7,2.4,2.4v7.9
		c0,1.7-0.7,2.4-2.4,2.4H1075.2z"/>
	<path fill="#FFFFFF" d="M1075.2,415.7c-1.7,0-2.4-0.7-2.4-2.4v-44c0-1.7,0.7-2.4,2.4-2.4h21.9c10.2,0,13.4,4.6,13.4,11.3v3.1
		c0,3.8-0.9,6.5-3.8,7.7c4.1,0.5,7.5,4.1,7.5,9.9v14.4c0,1.7-0.7,2.4-2.4,2.4h-10.5c-1.7,0-2.4-0.7-2.4-2.4v-10.9
		c0-2-0.7-2.9-2.6-2.9h-8.1v13.8c0,1.7-0.7,2.4-2.4,2.4H1075.2z M1088.1,387.7h4.3c2.4,0,3-1.4,3-3.2v-2.3c0-1.8-0.6-3.2-3-3.2h-4.3
		V387.7z"/>
	<path fill="#FFFFFF" d="M1072.5,468c0-1.7,0.7-2.4,2.4-2.4h18.7c3.3,0,5-1.3,5-4.5v-28.8c0-1.7,0.7-2.4,2.4-2.4h10.5
		c1.7,0,2.4,0.7,2.4,2.4v32.2c0,9-5.5,14.3-14.5,14.3H1075c-1.7,0-2.4-0.7-2.4-2.4V468z M1075,456.2c-1.7,0-2.4-0.7-2.4-2.4v-21.6
		c0-1.7,0.7-2.4,2.4-2.4h10.5c1.7,0,2.4,0.7,2.4,2.4v21.6c0,1.7-0.7,2.4-2.4,2.4H1075z"/>
</g>
</svg>
