<?xml version="1.0" encoding="utf-8"?>
<!-- Generator: Adobe Illustrator 19.2.1, SVG Export Plug-In . SVG Version: 6.00 Build 0)  -->
<svg version="1.1" id="Layer_1" xmlns="http://www.w3.org/2000/svg" xmlns:xlink="http://www.w3.org/1999/xlink" x="0px" y="0px"
	 width="1764.706px" height="2000px" viewBox="0 0 1764.706 2000" style="enable-background:new 0 0 1764.706 2000;"
	 xml:space="preserve">
<style type="text/css">
	.st0{fill:#26839C;}
	.st1{fill:#FFFFFF;}
	.st2{fill:#265560;}
</style>
<path class="st0" d="M980,1735.588l-163.529-172.647c-12.647-12.941-25.294-9.412-25.294,3.235v43.529h-15
	c-14.412,0-19.118-7.353-19.118-23.529v-18.529v-225v-25v-291.765v-25.294V708.824v-25.588v-220v-97.353V255.294
	c0-7.941-5-13.824-17.941-8.824l-153.235,61.176l-155-61.471c-11.176-4.412-16.471,1.471-16.471,9.412v110.588v97.353v220v25.294
	v292.059v25.294v291.471v25.294v225.294v92.353v2.647c0,140,78.529,232.941,253.529,232.941h123.235v48.529
	c0,12.941,13.529,15.882,25.294,3.235L980,1773.824C992.059,1761.176,993.823,1750.294,980,1735.588z"/>
<path class="st0" d="M1722.059,97.353h-48.823V52.941c0-8.235-3.529-11.176-11.176-11.176h-320c-7.941,0-11.177,3.235-11.177,11.176
	v44.412h-49.118c-7.941,0-11.176,3.235-11.176,11.176v150.882c0,8.235,3.529,11.176,11.176,11.176
	c32.941,0,48.824,17.941,48.824,48.824v13.824v183.235v25.294v291.765v25.294v432.941v25.294v186.177v237.059v98.823v6.765v13.529
	c0,48.823,33.823,81.176,171.177,81.176c137.647,0,171.176-32.353,171.176-81.176v-13.529v-6.765v-98.823v-237.353v-186.176v-25.294
	V858.824v-25.294V541.765v-25.294V333.235v-11.176c0-32.059,15.588-50.882,48.823-50.882c7.941,0,11.176-3.235,11.176-11.176
	V108.824C1733.53,100.294,1730,97.353,1722.059,97.353z"/>
<path class="st1" d="M522.059,579.118c-6.471,0-9.118-2.941-9.118-9.118V403.235c0-6.471,2.941-9.412,9.118-9.412h40
	c6.471,0,9.118,2.941,9.118,9.412v127.059h40v-41.471c0-6.471,2.941-9.118,9.118-9.118h37.353c6.471,0,9.118,2.941,9.118,9.118V570
	c0,6.471-2.941,9.118-9.118,9.118H522.059L522.059,579.118L522.059,579.118z M515.294,796.471v-30.588
	c0-6.471,2.941-9.412,9.118-9.412h34.412V670h-34.412c-6.471,0-9.118-2.941-9.118-9.412v-30.882c0-6.471,2.941-9.412,9.118-9.412
	h131.176c6.471,0,9.118,2.941,9.118,9.412v31.176c0,6.471-2.941,9.412-9.118,9.412h-34.412v86.471h34.412
	c6.471,0,9.118,2.941,9.118,9.412v30.588c0,6.471-2.941,9.118-9.118,9.118H524.412C517.941,805.588,515.294,802.647,515.294,796.471
	z M570,1053.235c-6.471,0-9.118-2.941-9.118-9.412v-14.412c-38.529-5.882-49.118-24.706-49.118-50.588v-85.294
	c0-31.176,15.294-52.647,78.235-52.647s78.235,21.471,78.235,52.647v85.294c0,26.176-10.294,44.706-49.412,50.588v14.118
	c0,6.471-2.941,9.412-9.118,9.412H570V1053.235z M590,985.588c17.059,0,20-5,20-12.059v-70c0-6.471-2.941-12.059-20-12.059
	s-19.706,5-19.706,12.059v70C570,980.294,572.941,985.588,590,985.588z M590,1271.471c-61.765,0-77.059-21.177-77.059-52.353
	v-127.059c0-6.471,2.941-9.412,9.118-9.412h40.294c6.471,0,9.118,2.941,9.118,9.412v117.353c0,6.765,2.941,12.059,18.823,12.059
	c15.882,0,18.824-5,18.824-12.059v-117.353c0-6.471,2.647-9.412,9.118-9.412h39.118c6.471,0,9.118,2.941,9.118,9.412v127.059
	C667.059,1250.294,651.765,1271.471,590,1271.471z M590,1493.823c-62.941,0-78.235-21.177-78.235-52.353v-87.647
	c0-31.177,15.294-52.647,78.235-52.647s78.235,21.471,78.235,52.647v87.647C668.235,1472.941,652.941,1493.823,590,1493.823z
	 M590,1444.412c17.059,0,20-5,20-12.059v-69.118c0-6.471-2.941-12.059-20-12.059s-19.706,5-19.706,12.059v69.118
	C570,1439.118,572.941,1444.412,590,1444.412z M522.059,1712.353c-6.471,0-9.118-2.941-9.118-9.118v-166.765
	c0-6.471,2.941-9.412,9.118-9.412H605c38.529,0,50.588,17.353,50.588,42.941v12.059c0,14.412-3.529,24.706-14.412,29.412
	c15.588,2.059,28.824,15.588,28.824,37.353v54.412c0,6.471-2.941,9.118-9.118,9.118h-40.294c-6.471,0-9.118-2.941-9.118-9.118
	v-41.177c0-7.647-2.647-10.882-9.706-10.882h-30.588v52.353c0,6.471-2.941,9.118-9.118,9.118L522.059,1712.353L522.059,1712.353
	L522.059,1712.353z M570.882,1606.471h16.471c9.118,0,11.177-5,11.177-12.059v-9.118c0-6.765-2.059-12.059-11.177-12.059h-16.471
	V1606.471z"/>
<path class="st1" d="M1372.941,225.882c-2.941,0-4.118-1.176-4.118-4.118v-55.588h-16.765c-2.941,0-4.118-1.176-4.118-4.118v-13.824
	c0-2.941,1.176-4.118,4.118-4.118h59.706c2.941,0,4.118,1.176,4.118,4.118v13.824c0,2.941-1.176,4.118-4.118,4.118H1395v55.588
	c0,2.941-1.177,4.118-4.118,4.118H1372.941z M1434.118,505c-6.471,0-9.118-2.941-9.118-9.118V329.118
	c0-6.471,2.941-9.412,9.118-9.412h40c6.471,0,9.118,2.941,9.118,9.412V385h37.353v-55.882c0-6.471,2.941-9.412,9.118-9.412h40
	c6.471,0,9.118,2.941,9.118,9.412v166.765c0,6.471-2.941,9.118-9.118,9.118h-40c-6.471,0-9.118-2.941-9.118-9.118v-57.059h-37.353
	v57.059c0,6.471-2.941,9.118-9.118,9.118H1434.118z M1471.765,723.824h-37.941c-6.471,0-9.118-3.235-9.118-9.412V587.353
	c0-31.176,12.941-52.353,77.059-52.353c63.823,0,77.353,21.471,77.353,52.353v127.059c0,6.471-2.941,9.412-9.118,9.412h-39.706
	c-6.471,0-9.118-3.235-9.118-9.412v-38.235h-40.588v38.235C1480.882,720.882,1477.941,723.824,1471.765,723.824z M1480.882,628.824
	h40.294v-32.941c0-6.765-2.059-12.059-20-12.059c-18.235,0-20.294,5-20.294,12.059L1480.882,628.824L1480.882,628.824z
	 M1501.765,933.529c-7.353,8.235-19.118,12.647-38.529,12.647c-38.824,0-51.177-21.176-51.177-52.353V766.765
	c0-6.471,2.941-9.412,9.118-9.412h30.294c6.471,0,9.118,2.941,9.118,9.412v119.118c0,6.765,1.765,10.294,8.235,10.294
	c6.471,0,8.235-3.235,8.235-10.294V766.765c0-6.471,2.941-9.412,9.118-9.412h30.294c6.471,0,9.118,2.941,9.118,9.412v119.118
	c0,6.765,1.471,10.294,8.235,10.294c6.471,0,8.235-3.235,8.235-10.294V766.765c0-6.471,2.647-9.412,9.118-9.412h30.294
	c6.471,0,9.118,2.941,9.118,9.412v127.059c0,31.177-12.353,52.353-51.177,52.353
	C1520.882,946.471,1508.823,941.765,1501.765,933.529z M1471.765,1161.471h-37.941c-6.471,0-9.118-3.235-9.118-9.412V1025
	c0-31.176,12.941-52.353,77.059-52.353c63.823,0,77.353,21.471,77.353,52.353v127.059c0,6.471-2.941,9.412-9.118,9.412h-39.706
	c-6.471,0-9.118-3.235-9.118-9.412v-38.235h-40.588v38.235C1480.882,1157.941,1477.941,1161.471,1471.765,1161.471z
	 M1480.882,1066.471h40.294v-32.941c0-6.765-2.059-12.059-20-12.059c-18.235,0-20.294,5-20.294,12.059L1480.882,1066.471
	L1480.882,1066.471z M1483.235,1370.588c0,6.471-2.941,9.118-9.118,9.118h-40c-6.471,0-9.118-2.941-9.118-9.118v-166.765
	c0-6.471,2.941-9.412,9.118-9.412h40c6.471,0,9.118,2.941,9.118,9.412V1370.588z M1520.588,1203.823
	c0-6.471,2.941-9.412,9.118-9.412h40c6.471,0,9.118,2.941,9.118,9.412v166.765c0,6.471-2.941,9.118-9.118,9.118h-40
	c-6.471,0-9.118-2.941-9.118-9.118V1203.823z M1471.765,1598.529h-37.941c-6.471,0-9.118-3.235-9.118-9.412v-127.059
	c0-31.176,12.941-52.353,77.059-52.353c63.823,0,77.353,21.471,77.353,52.353v127.059c0,6.471-2.941,9.412-9.118,9.412h-39.706
	c-6.471,0-9.118-3.235-9.118-9.412v-38.235h-40.588v38.235C1480.882,1595.588,1477.941,1598.529,1471.765,1598.529z
	 M1480.882,1503.529h40.294v-32.941c0-6.765-2.059-12.059-20-12.059c-18.235,0-20.294,5-20.294,12.059L1480.882,1503.529
	L1480.882,1503.529z M1501.765,1627.941c63.823,0,77.059,21.177,77.059,52.353v127.059c0,6.471-2.941,9.412-9.118,9.412h-40.294
	c-6.471,0-9.118-3.235-9.118-9.412V1690c0-6.765-2.941-12.059-18.823-12.059s-18.823,5-18.823,12.059v117.353
	c0,6.471-2.647,9.412-9.118,9.412h-39.118c-6.471,0-9.118-3.235-9.118-9.412v-127.059
	C1424.706,1649.118,1438.235,1627.941,1501.765,1627.941z M1464.706,225.882c-2.941,0-4.118-1.176-4.118-4.118v-73.529
	c0-2.941,1.176-4.118,4.118-4.118h17.353c2.941,0,4.118,1.176,4.118,4.118v24.412H1505v-24.412c0-2.941,1.176-4.118,4.118-4.118
	h17.353c2.941,0,4.118,1.176,4.118,4.118v73.235c0,2.941-1.177,4.118-4.118,4.118h-17.647c-2.941,0-4.118-1.176-4.118-4.118v-25
	h-18.823v25c0,2.941-1.177,4.118-4.118,4.118L1464.706,225.882L1464.706,225.882z M1584.118,225.882
	c-2.941,0-4.118-1.176-4.118-4.118v-73.529c0-2.941,1.177-4.118,4.118-4.118h52.353c2.941,0,4.118,1.176,4.118,4.118v12.941
	c0,2.941-1.177,4.118-4.118,4.118h-30.882v8.824h21.765c2.941,0,4.118,1.176,4.118,4.118v12.059c0,2.941-1.177,4.118-4.118,4.118
	h-21.765v9.706h30.882c2.941,0,4.118,1.176,4.118,4.118v12.941c0,2.941-1.177,4.118-4.118,4.118h-52.353V225.882L1584.118,225.882z"
	/>
<path class="st2" d="M1205.882,1233.823c-1.176-10.294-1.176-12.059-1.176-18.529v-3.53v-12.353h-0.294V894.706v-25.294V683.235
	V552.059v-80.294V340.588v-160v-16.471c0-6.176,0-8.235,1.177-18.529l6.176-53.529c0.588-4.706-4.412-8.235-8.823-6.176
	l-92.059,36.471c-2.941,1.471-6.765,1.176-9.412-1.176l-60-49.706c-4.706-4.118-12.353-4.118-17.059,0l-59.706,49.706
	c-2.647,2.059-6.471,2.647-9.412,1.176l-92.059-36.471c-4.412-1.765-9.412,1.471-8.824,6.176l6.177,53.824
	c1.176,10.294,1.176,12.059,1.176,18.529v16.471v160v131.176v80.294v130.882v186.177v25.294v304.412v12.647v3.53
	c0,6.177,0,8.235-1.176,18.529l-6.177,53.823c-0.588,4.706,4.412,8.235,8.824,6.177l92.059-36.471
	c2.941-1.471,6.765-1.176,9.412,1.177l60,49.706c4.706,4.118,12.353,4.118,17.059,0l60-49.706c2.647-2.059,6.471-2.647,9.412-1.177
	l92.059,36.471c4.412,1.765,9.412-1.471,8.823-6.177L1205.882,1233.823z"/>
<path class="st1" d="M962.353,440.294c-6.471,0-9.706-2.941-9.706-9.706V257.059c0-6.471,2.941-9.706,9.706-9.706h83.235
	c36.471,0,51.471,17.353,51.471,41.176v12.353c0,13.824-4.118,24.118-15.882,29.118c19.118,1.765,33.823,16.471,33.823,41.471
	v24.706c0,26.765-17.941,44.118-52.059,44.118L962.353,440.294L962.353,440.294z M1012.941,321.765h20.294
	c8.824,0,10.294-5,10.294-10.588v-7.647c0-5.588-1.471-10.588-10.294-10.588h-20.294V321.765z M1012.941,394.706h32.353
	c8.824,0,10.294-5,10.294-10.588v-10.588c0-5.882-1.471-10.588-10.294-10.588h-32.353V394.706z M962.353,899.118
	c-6.471,0-9.706-2.941-9.706-9.706V715.588c0-6.471,2.941-9.706,9.706-9.706h86.176c40.294,0,52.647,18.235,52.647,44.706v12.353
	c0,15-3.53,25.882-15,30.588c16.471,2.059,29.706,16.471,29.706,38.824v56.765c0,6.471-2.941,9.706-9.706,9.706h-41.471
	c-6.471,0-9.706-2.941-9.706-9.706v-42.941c0-7.941-2.647-11.765-10.294-11.765h-32.059v54.706c0,6.471-2.941,9.706-9.706,9.706
	L962.353,899.118L962.353,899.118L962.353,899.118z M1013.235,788.529h17.059c9.412,0,11.765-5.588,11.765-12.647v-9.118
	c0-7.353-2.647-12.647-11.765-12.647h-17.059V788.529z M948.235,1080.588l-17.059-17.059c-1.765-1.765-1.765-4.706,0.294-6.471
	l85-85c2.059-2.647,4.706-2.059,6.471-0.294L1040,988.823c1.765,1.765,2.059,4.706-0.294,6.471l-85,85
	C952.941,1082.647,950,1082.647,948.235,1080.588z M978.823,1088.824c-3.235-3.235-5-6.765-5.588-9.412l-3.235-9.706l61.765-61.765
	l42.059,28.823c2.941,1.765,6.765,5.882,10.294,9.706l50.588,58.235c1.471,1.765,2.647,5.588,0,7.941l-9.118,9.118
	c-2.647,2.647-5.588,1.471-8.235-1.176l-49.706-50.294l-1.765,1.765l17.059,17.059c2.059,1.765,2.647,4.412,0.294,6.471
	l-7.647,7.647c-2.647,2.647-5.588,1.471-8.235-0.588l-20-17.941l-1.765,1.765l16.765,14.412c2.059,1.765,2.059,4.706,0,7.353
	l-8.235,8.235c-2.647,2.647-5.588,1.471-8.235-1.176l-19.118-16.765l-1.765,1.765l16.765,14.412c2.059,1.471,1.471,4.706,0,6.177
	l-9.118,8.823c-1.765,1.765-5.588,1.471-7.647-0.294L978.823,1088.824z M1002.941,666.176H965c-6.471,0-9.118-3.235-9.118-9.412
	V529.706c0-31.176,12.941-52.353,77.059-52.353c63.824,0,77.353,21.471,77.353,52.353v127.059c0,6.471-2.941,9.412-9.118,9.412
	h-39.118c-6.471,0-9.118-3.235-9.118-9.412v-38.235h-40.294v37.941C1012.353,662.941,1009.412,666.176,1002.941,666.176z
	 M1012.353,570.882h40.294v-32.941c0-6.765-2.059-12.059-20-12.059c-18.235,0-20.294,5-20.294,12.059L1012.353,570.882
	L1012.353,570.882z"/>
<path class="st2" d="M0,44.118c0-7.059,3.235-10.294,10.294-10.294h160c86.471,0,136.176,49.706,136.176,136.471V330
	c0,7.059-3.235,10.294-10.294,10.294H8.529c-4.706,0-8.529-3.824-8.529-8.529C0,331.765,0,44.118,0,44.118z M0,368.235
	c0-7.059,3.235-10.294,10.294-10.294h160c86.471,0,136.176,49.706,136.176,136.471v159.706c0,7.059-3.235,10.294-10.294,10.294
	H8.529c-4.706,0-8.529-3.824-8.529-8.529C0,655.882,0,368.235,0,368.235z M0,692.353c0-7.059,3.235-10.294,10.294-10.294h160
	c86.471,0,136.176,49.706,136.176,136.471v159.706c0,7.059-3.235,10.294-10.294,10.294H8.529C3.824,988.529,0,984.706,0,980
	C0,980,0,692.353,0,692.353z M0,1016.176c0-7.059,3.235-10.294,10.294-10.294h160c86.471,0,136.176,49.706,136.176,136.471v159.706
	c0,7.059-3.235,10.294-10.294,10.294H8.529c-4.706,0-8.529-3.823-8.529-8.529V1016.176z M0,1340.294
	C0,1333.235,3.235,1330,10.294,1330h160c86.471,0,136.176,49.706,136.176,136.471v159.706c0,7.059-3.235,10.294-10.294,10.294H8.529
	c-4.706,0-8.529-3.823-8.529-8.53V1340.294z M0,1664.412c0-7.059,3.235-10.294,10.294-10.294h160
	c86.471,0,136.176,49.706,136.176,136.471v159.706c0,7.059-3.235,10.294-10.294,10.294H8.529c-4.706,0-8.529-3.823-8.529-8.53
	V1664.412z"/>
<path class="st1" d="M134.118,280c-48.824,0-63.529-21.471-63.529-52.647v-80.294c0-31.471,14.706-52.941,63.529-52.941H215
	c6.471,0,9.412,2.941,9.412,9.412v31.176c0,6.471-2.941,9.412-9.412,9.412h-69.706c-13.529,0-15.882,6.176-15.882,12.941v61.471
	c0,7.353,2.353,12.353,15.882,12.353H215c6.471,0,9.412,2.941,9.412,9.412v30.588c0,6.471-2.941,9.412-9.412,9.412L134.118,280
	L134.118,280z M128.529,604.118c-6.471,0-9.412-2.941-9.412-9.412V427.647c0-6.471,2.941-9.412,9.412-9.412h41.176
	c6.471,0,9.412,2.941,9.412,9.412V595c0,6.471-2.941,9.412-9.412,9.412L128.529,604.118L128.529,604.118z M149.118,740.294
	c64.118,0,77.353,21.176,77.353,52.647v127.647c0,6.471-2.941,9.412-9.412,9.412h-40.294c-6.471,0-9.412-3.235-9.412-9.412V802.941
	c0-7.059-3.235-12.059-18.824-12.059c-15.882,0-19.118,5.294-19.118,12.059v117.647c0,6.471-2.647,9.412-9.412,9.412H80.882
	c-6.471,0-9.412-3.235-9.412-9.412V792.941C71.471,761.176,85,740.294,149.118,740.294z M70.588,1119.118
	c0-31.471,14.706-52.941,63.529-52.941H215c6.471,0,9.412,2.941,9.412,9.412v30.294c0,6.471-2.941,9.412-9.412,9.412h-70.588
	c-13.529,0-15.882,6.177-15.882,12.941v7.059h65.294c6.471,0,9.412,2.647,9.412,9.412v27.647c0,6.471-2.941,9.412-9.412,9.412
	h-65.294v9.706c0,7.353,2.353,12.353,15.882,12.353H215c6.471,0,9.412,2.941,9.412,9.412v30.294c0,6.471-2.941,9.412-9.412,9.412
	h-80.882c-48.824-0.882-63.529-22.353-63.529-53.53V1119.118z M58.824,1568.824v-127.647c0-31.471,12.353-52.647,51.471-52.647
	c19.412,0,31.471,4.706,38.529,12.941c7.353-8.235,19.412-12.941,38.824-12.941c39.118,0,51.471,21.177,51.471,52.647v127.647
	c0,6.471-2.941,9.412-9.412,9.412h-30.294c-6.765,0-9.412-2.941-9.412-9.412v-119.412c0-7.059-1.765-10.294-8.529-10.294
	c-6.765,0-8.235,3.235-8.235,10.294v119.412c0,6.471-2.941,9.412-9.412,9.412h-30c-6.471,0-9.412-2.941-9.412-9.412v-119.412
	c0-7.059-1.471-10.294-8.235-10.294c-6.765,0-8.529,3.235-8.529,10.294v119.412c0,6.471-2.647,9.412-9.412,9.412h-30
	C61.765,1577.941,58.824,1575.294,58.824,1568.824z M71.471,1764.706c0-31.176,13.235-52.647,77.059-52.647
	c64.412,0,77.647,21.471,77.647,52.647v127.647c0,6.471-2.941,9.412-9.412,9.412h-38.824c-6.471,0-9.412-3.235-9.412-9.412v-38.529
	h-40.294v38.529c0,6.471-2.941,9.412-9.412,9.412H80.882c-6.471,0-9.412-3.235-9.412-9.412V1764.706z M128.235,1806.765h40.588
	v-33.235c0-7.059-2.059-12.059-20-12.059c-18.235,0-20.294,5.294-20.294,12.059v33.235H128.235z"/>
</svg>
