<?xml version="1.0" encoding="utf-8"?>
<!-- Generator: Adobe Illustrator 19.2.1, SVG Export Plug-In . SVG Version: 6.00 Build 0)  -->
<svg version="1.1" id="Layer_1" xmlns="http://www.w3.org/2000/svg" xmlns:xlink="http://www.w3.org/1999/xlink" x="0px" y="0px"
	 width="1550px" height="2000px" viewBox="0 0 1550 2000" style="enable-background:new 0 0 1550 2000;" xml:space="preserve">
<style type="text/css">
	.st0{fill:#144A56;stroke:#144A56;stroke-width:11.25;}
	.st1{fill:#FFFFFF;}
	.st2{fill:#102B33;}
	.st3{fill:#EDE03A;}
	.st4{fill:#DA4226;}
	.st5{fill:#B2A639;}
	.st6{fill:none;}
</style>
<g>
	<path class="st0" d="M583,1787l-152.25-159.5c-11.75-12-23.5-8.75-23.5,3v40.5H393.5c-13.5,0-18-6.75-18-21.75v-17.5v-271.5v-23.5
		V1065.5V1042V770.75v-23.5V476v-23.5V181v-13.5v-10H375c-4.5-88-68.75-149.25-159-149.25S61.75,69.5,57.25,157.5H57v10V181v271.25
		v23.5V747v23.5v271.25v23.5v271.25v23.5v271.25v23.5v64.5c0,130,73.25,216.5,235.75,216.5h114.5V1981c0,12,12.5,14.75,23.5,3
		L583,1822.25C594,1810,595.5,1800,583,1787z"/>
	<path class="st1" d="M416.25,1993L416.25,1993c-6.5,0-10.5-4.75-10.5-12v-43.5h-113c-153,0-237.5-77.5-237.5-217.75V156h0.5
		c2.5-43,19-80.25,47.75-107.25c29.25-27.5,68-42,112.5-42s83.5,14.5,112.5,42c28.75,27,45.25,64.25,47.75,107.25h0.5v1492.75
		c0,15,4.5,20.5,16.5,20.5h12.5v-39c0-7.25,4.25-12,10.5-12c5,0,10.5,2.75,15.5,8L584,1785.75c12.5,13,12.5,24,0,37.5L432,1985
		C427,1990.25,421.5,1993,416.25,1993z M58.5,159v1560.5c0,138.5,83.25,215,234.5,215h115.75v46.5c0,5.5,3,9,7.75,9
		c4.25,0,9-2.5,13.5-7.25L582.25,1821c11.5-12.5,11.5-21.5,0-33.5L430,1628.25c-4.5-4.5-9.25-7.25-13.5-7.25
		c-4.75,0-7.5,3.5-7.5,9.25V1672h-15.5c-13.75,0-19.5-6.75-19.5-23.25v-1490h-0.25v-1.25c-2.25-43-18.5-79.75-47-106.5
		C298,24,260,9.75,216,9.75S134,24,105.5,51C77,77.75,61,114.75,58.75,157.5L58.5,159L58.5,159L58.5,159z"/>
</g>
<g>
	<path class="st2" d="M112.75,364c-9,0-12.75-4-12.75-12.75V169.5c0-5,1.5-8.25,4-10.5l36.25-30.5c2-1.5,5-2.5,9-2.5h93
		c53.5,0,69,23.5,69,57.5v35.75c0,18-4.5,33-16.75,43.5l-36.25,30.5c-10.5,9-27.5,14.25-52.25,14.25h-0.5v13.25c0,5-1.5,8.25-4,10.5
		L165,361c-1.5,1.5-4.75,2.75-8.5,2.75L112.75,364C112.75,363.75,112.75,364,112.75,364z"/>
	<path class="st2" d="M162.5,591.5c-1.5,1.5-4.75,2.75-8.5,2.75h-41.5c-9.25,0-12.75-4-12.75-12.75v-74c0-20,2.75-24.25,11.25-45.5
		l21.5-63.5c1.25-3.5,2.75-6.25,5-7.75l36.5-30.5c2.75-2.25,6.75-3.5,11.75-3.5h72.5c8.5,0,13.75,2.75,16.5,11l24.5,63.5
		c8.5,21.75,11.25,26,11.25,46v74c0,5-1.5,8.25-4,10.5l-36.5,30c-1.5,1.5-4.75,2.75-8.5,2.75H219c-9,0-13.75-4.25-13.75-12.75V545
		H203v5.75c0,5-1.5,8.25-4,10.5L162.5,591.5z"/>
	<path class="st2" d="M164.75,832.5c-1.5,1.5-4.75,2.75-8.5,2.75h-43.5c-9,0-12.75-4-12.75-12.75V641c0-5,1.5-8.25,4-10.5
		l36.25-30.5c2-1.5,5-2.5,9-2.5h90.25c44.5,0,58,20.5,58,49.5v12.75c0,13.75-3,24.25-10.5,30.5l-0.25,0.25
		c14.75,5,26.5,19.5,26.5,41.75v59.5c0,5-1.5,8.25-4,10.5l-36.75,30c-1.5,1.5-4.75,2.75-8.5,2.75h-41.75c-9,0-12.75-4-12.75-12.75
		V779.5c0-3.5-1.5-6.5-4-7.75V792c0,5-1.5,8.25-4,10.5L164.75,832.5z"/>
	<path class="st2" d="M165.5,1071.75c-1.5,1.5-4.75,2.75-8.5,2.75h-43.5c-9,0-12.75-4-12.75-12.75v-181.5c0-5,1.5-8.25,4-10.5
		l36-30.75c2-1.5,5-2.5,9-2.5h43.5c9,0,12.75,4,12.75,12.75v20.25l35-29.75c2.75-2.25,6.5-3.5,11.5-3.5h43.25
		c9.25,0,12.5,4.75,8.5,13.25l-27,61.5c20.25,2.75,33,18,33,40.5v79c0,5-1.5,8.25-4,10.5l-36.5,30.25c-1.5,1.5-4.75,2.75-8.5,2.75
		H217.5c-9,0-12.75-4-12.75-12.75v-25.5c-0.5,2.25-1.5,4-3.5,5.5L165.5,1071.75z"/>
	<path class="st2" d="M267,1314.75c-1.5,1.5-4.75,2.75-8.5,2.75h-143c-9,0-12.75-4-12.75-12.75v-33.5c0-5,1.5-8.25,4-10.5
		l36.25-30.5c1.5-1.5,4.25-2.25,7.5-2.5v-58h-35c-9,0-12.75-4-12.75-12.75v-34c0-5,1.5-8.25,4-10.5L143,1082c2-1.5,5-2.5,9-2.5h143
		c9,0,12.75,4,12.75,12.75v34c0,5-1.5,8.25-4,10.5l-36.5,30.5l0.25-0.25c-1.5,1.5-4.25,2.75-7.5,3v58h34.75c9,0,12.75,4,12.75,12.75
		v33.5c0,5-1.5,8.25-4,10.5L267,1314.75z"/>
	<path class="st2" d="M163.5,1557.75c-1.5,1.5-4.75,2.75-8.5,2.75h-42.25c-9,0-12.75-4-12.75-12.75v-181.5c0-5,1.5-8.25,4-10.5
		l36.25-30.5c2-1.5,5-2.5,9-2.5h29.25c8.25,0,13.25,2.25,18.75,8.5l16.75,21l32.5-27.25c2-1.5,5-2.5,9-2.5h42
		c9,0,12.75,4,12.75,12.75v181.5c0,5-1.5,8.25-4,10.5L270,1557.5c-1.5,1.5-4.75,2.75-8.5,2.75h-42c-9,0-12.75-4-12.75-12.75V1514
		l-2.25-2.75v5.75c0,5-1.5,8.25-4,10.5L163.5,1557.75z"/>
	<path class="st2" d="M170.5,1800c-55.5,0-71.75-33-71.75-68.5v-79c0-18.75,4.5-34.75,17.5-45.5l36.25-30.25
		c11.25-9.5,28.5-14.75,54.5-14.75h72.25c9,0,12.75,4,12.75,12.75v34c0,5-1.5,8.25-4,10.5l-36.5,30.25c-1.5,1.5-4.75,2.75-8.5,2.75
		h-38.5v47.5c0,2,0,4,0.5,5.5v-5c0-5,1.5-8.25,4-10.5l36.25-30.5c2-1.5,5-2.5,9-2.5h43.5c9,0,12.75,4,12.75,12.75v86.5
		c0,5-1.5,8.25-4,10.5l-36.5,30.25c-1.5,1.5-4.75,2.75-8.5,2.75L170.5,1800L170.5,1800L170.5,1800z"/>
	<g>
		<path class="st1" d="M148.75,330.5c-7,0-10-3-10-10V138.75c0-7,3-10,10-10h93c51,0,66.25,22.25,66.25,54.5V219
			c0,32.5-15.25,54.5-66.25,54.5h-39.5V320c0,7-3,10-10,10L148.75,330.5L148.75,330.5z M201.75,223.5h32.5
			c11,0,13.25-6.5,13.25-13.75V195c0-7.25-2.25-13.75-13.25-13.75h-32.5C201.75,181,201.75,223.5,201.75,223.5z"/>
		<path class="st1" d="M189.75,561H148.5c-7.25,0-10-3-10-10v-74c0-19.5,2.75-23.5,11-44.75l21.5-63.5c2.5-7,7-9.25,14.25-9.25h72.5
			c7.25,0,11.5,2.25,14,9.25l24.5,63.5c8.25,21.5,11,25.5,11,44.75v74c0,7-3,10-10,10h-42.5c-7,0-11-3-11-10v-39.25h-44V551
			C199.75,558,196.75,561,189.75,561z M202.5,460.5H241L227.75,418c-1.5-3.5-2.25-4.75-5.5-4.75h-1.5c-3,0-3.5,1.25-5.5,4.75
			L202.5,460.5z"/>
		<path class="st1" d="M148.75,801.75c-7,0-10-3-10-10v-181.5c0-7,3-10,10-10H239c42,0,55.25,19,55.25,46.75v12.75
			c0,15.5-4,27-15.5,32C296,694,310,709,310,732.25v59.5c0,7-3,10-10,10h-43.5c-7,0-10-3-10-10V749c0-8.5-2.75-12-10.5-12h-33.5v55
			c0,7-3,10-10,10L148.75,801.75C148.75,802,148.75,801.75,148.75,801.75z M202,686.25h18c9.75,0,12.5-5.5,12.5-13.25v-9.5
			c0-7.5-2.5-13.25-12.5-13.25h-18V686.25z"/>
		<path class="st1" d="M149,1041.25c-7,0-10-3-10-10v-181.5c0-7,3-10,10-10h43.5c7,0,10,3,10,10v64.5h6.5l28.75-65.5
			c2.75-6.75,6.75-9.25,14-9.25H295c6.5,0,8.5,3.5,6.25,9.25L273,914.25c21,1.25,34.5,15.5,34.5,38.25v79c0,7-3,10-10,10h-43.25
			c-7,0-10-3-10-10V977c0-6.25-3-9.5-9-9.5H203v64.25c0,7-3,10-10,10L149,1041.25L149,1041.25z"/>
		<path class="st1" d="M141.25,1274.25v-33.5c0-7,3-10,10-10h37.5v-94.25h-37.5c-7,0-10-3-10-10v-34c0-7,3-10,10-10h143
			c7,0,10,3,10,10v34c0,7-3,10-10,10h-37.5v94.25h37.5c7,0,10,3,10,10v33.5c0,7-3,10-10,10h-143
			C144.5,1284.25,141.25,1281.25,141.25,1274.25z"/>
		<path class="st1" d="M148.75,1527.25c-7,0-10-3-10-10v-181.5c0-7,3-10,10-10H178c7.25,0,11.75,2,16.5,7.5l50.5,62.25v-59.75
			c0-7,3-10,10-10h42c7,0,10,3,10,10v181.5c0,7-3,10-10,10h-42c-7,0-10-3-10-10v-34.5l-44-58v92.5c0,7-3,10-10,10H148.75
			L148.75,1527.25z"/>
		<path class="st1" d="M206.25,1766.5c-53,0-69-23.25-69-57.25v-87.5c0-34,16-57.25,69-57.25h72.5c7,0,10,3,10,10v34c0,7-3,10-10,10
			h-60.5c-14.5,0-17.25,6.75-17.25,14v67c0,7.5,1.5,13.75,12.75,13.75h29.5v-43.75c0-7,3-10,10-10H297c7,0,10,3,10,10v86.5
			c0,7-3,10-10,10L206.25,1766.5L206.25,1766.5z"/>
	</g>
	<path class="st3" d="M171.75,250v55.25H169V154h67.75c35.5,0,42,16.25,42,38.25V213c0,21.75-6.75,37.25-42,37.25L171.75,250
		C171.75,250.25,171.75,250,171.75,250z M236.75,247.25c33,0,39.25-14.25,39.25-34.5V192c0-20.25-6.25-35.5-39.25-35.5h-65V247
		C171.75,247.25,236.75,247.25,236.75,247.25z"/>
	<path class="st3" d="M273.75,487.5h-103.5v48.25h-2.75V476c0-10.5,1.5-19,4.75-27.25l18-46c4.25-10.5,7.5-18.5,20.5-18.5h21.5
		c12.5,0,15.5,7.75,20.25,18.75l19.5,45.5c3,8.25,4.75,16.75,4.75,27.25v59.75H274L273.75,487.5L273.75,487.5z M170.5,484.75H274
		v-8.5c0-10-1.5-18.5-4.5-26l-19.5-45.5c-4.25-9.75-7.25-17.25-17.5-17.25H211c-11.25,0-14.25,7.25-18,16.75l-18,46
		c-2.75,7.5-4.5,16-4.5,26V484.75z"/>
	<path class="st3" d="M168.75,776.5V625h64c21.75,0,32,13.5,32,32v19.5c0,17.25-3.5,28.5-16.75,32.5h3c23,0,28,10.5,28,30v37.5
		h-2.75v-37.75c0-18.5-4-27.5-25.25-27.5h-79.5v65h-2.75V776.5z M171.5,628v81h61.25C256,709,262,697.5,262,676.75v-19.5
		c0-17.5-9.25-29.25-29.25-29.25L171.5,628L171.5,628z"/>
	<path class="st3" d="M169.25,1016V864.5H172V939h56l32.25-74.5h3L231,939h11.5c23,0,34,7.75,34,27.5v49.5h-2.75v-49.5
		c0-18-10.5-24.5-31.25-24.5H172v74H169.25z"/>
	<path class="st3" d="M166.25,1259v-2.75h55V1110.5h-55v-3h112.5v2.75h-55V1256h55v2.75h-112.5V1259z"/>
	<path class="st3" d="M175.75,1353l98.5,116v-118.25H277v151.5h-2.75v-28.75l-101.5-118.75c-0.5-0.5-0.75-0.75-1.5-0.75
		c-0.5,0-0.5,0.5-0.5,0.75v147.75H168v-148.25c0-2.25,1.5-3.5,3.5-3.5C173.25,1350.5,173.75,1351,175.75,1353z"/>
	<path class="st3" d="M167.5,1705.5V1627c0-26.5,9-36.75,44.75-36.75H263v2.75h-50.5c-33,0-42,9-42,34v78.5
		c0,24.5,9.75,33.5,47.5,33.5h55.5v-53.5h2.75v56.5h-58.5C176.75,1741.5,167.5,1731.5,167.5,1705.5z"/>
</g>
<g>
	<path class="st4" d="M476.5,25c0-4,1.75-5.75,5.75-5.75h104.5c4,0,5.75,1.75,5.75,5.75v49.25c0,29.25-12.75,38-31.5,38h-20.5
		c-18.5,0-31.5-8.5-31.5-38v-18.5h-26.75c-4,0-5.75-1.75-5.75-5.75L476.5,25L476.5,25z M538,55.5V70c0,6.25,3.75,7.5,7.75,7.5h8.5
		c4.25,0,7.75-1.25,7.75-7.5V55.5H538z"/>
	<path class="st4" d="M476.5,135c0-4,1.75-5.75,5.75-5.75h104.5c4,0,5.75,1.75,5.75,5.75v74.5c0,4-1.75,5.75-5.75,5.75H568
		c-4,0-5.75-1.75-5.75-5.75V165h-12.5v31.5c0,4-1.75,5.75-5.75,5.75h-17.25c-4,0-5.75-1.75-5.75-5.75V165h-13.75v44.5
		c0,4-1.75,5.75-5.75,5.75h-19c-4,0-5.75-1.75-5.75-5.75L476.5,135L476.5,135z"/>
	<path class="st4" d="M476.5,240.25c0-4,1.75-5.75,5.75-5.75h104.5c4,0,5.75,1.75,5.75,5.75v53.5c0,24.25-11,31.75-26.75,31.75h-7.5
		c-9,0-15.5-2.25-18.5-9c-1.25,11.75-9.75,19.5-23.5,19.5H482c-4,0-5.75-1.75-5.75-5.75v-25c0-4,1.75-5.75,5.75-5.75h24.5
		c4.75,0,7-1.5,7-6.25v-22.5H482c-4,0-5.75-1.75-5.75-5.75L476.5,240.25L476.5,240.25z M542.75,271v12c0,5.5,3.25,7,7.5,7h5.5
		c4.5,0,7.5-1.5,7.5-7v-12H542.75z"/>
	<path class="st4" d="M476.5,360c0-4,1.75-5.75,5.75-5.75h104.5c4,0,5.75,1.75,5.75,5.75v26c0,3.5-1.25,5.5-4.75,7.5L561.5,408
		c-2,1.25-2.75,1.5-2.75,2.75v1.5c0,1.25,0.75,1.75,2.75,2.75l26.25,14.5c3.5,2,4.75,4,4.75,7.5v25.5c0,4-1.75,5.75-5.75,5.75
		h-104.5c-4,0-5.75-1.75-5.75-5.75v-24.75c0-4.25,1.75-5.75,5.75-5.75h56.5l-17.5-9.5c-3.75-2-5.25-4.5-5.25-8.5v-6.5
		c0-4.25,1.5-6.5,5.25-8.5l17.5-9.5h-56.5c-4,0-5.75-1.75-5.75-5.75V360L476.5,360z"/>
	<path class="st4" d="M476.5,517.75v-23.5c0-4,1.75-5.75,5.75-5.75h42.5c6.5,0,14.5,2,25.75,6.25l36.5,14
		c3.75,1.25,5.5,3.75,5.5,8.25v43c0,4.25-1.5,6.75-5.5,8l-36.5,14c-11.25,4.5-19.5,6.25-25.75,6.25h-42.5c-4,0-5.75-1.75-5.75-5.75
		V558c0-4.5,1.75-6.25,5.75-6.25h22.5v-28.5h-22.5C478,523.5,476.5,521.75,476.5,517.75z M534,525v25.25l24.5-7.5
		c2-0.75,2.75-1.75,2.75-3v-4c0-1.25-0.75-2.25-2.75-3L534,525z"/>
	<path class="st4" d="M476.5,614c0-4,1.75-5.75,5.75-5.75h104.5c4,0,5.75,1.75,5.75,5.75v16.75c0,4.25-1.25,6.75-4.5,9.5
		l-35.75,31.5h34.25c4,0,5.75,1.75,5.75,5.75v24.25c0,4-1.75,5.75-5.75,5.75H482c-4,0-5.75-1.75-5.75-5.75V677.5
		c0-4,1.75-5.75,5.75-5.75h19.75l33.5-27.5H482c-4,0-5.75-1.75-5.75-5.75L476.5,614L476.5,614L476.5,614z"/>
	<path class="st4" d="M476.5,735c0-4,1.75-5.75,5.75-5.75h104.5c4,0,5.75,1.75,5.75,5.75v74.5c0,4-1.75,5.75-5.75,5.75H568
		c-4,0-5.75-1.75-5.75-5.75v-44.25h-12.5v31.5c0,4-1.75,5.75-5.75,5.75h-17.25c-4,0-5.75-1.75-5.75-5.75v-31.5h-13.75V810
		c0,4-1.75,5.75-5.75,5.75h-19c-4,0-5.75-1.75-5.75-5.75L476.5,735L476.5,735z"/>
	<path class="st4" d="M476.5,840.5c0-4,1.75-5.75,5.75-5.75h104.5c4,0,5.75,1.75,5.75,5.75v16.75c0,4.25-1.25,6.75-4.5,9.5
		L552.25,898h34.25c4,0,5.75,1.75,5.75,5.75V928c0,4-1.75,5.75-5.75,5.75H482c-4,0-5.75-1.75-5.75-5.75v-24.25
		c0-4,1.75-5.75,5.75-5.75h19.75l33.5-27.5H482c-4,0-5.75-1.75-5.75-5.75L476.5,840.5L476.5,840.5L476.5,840.5z"/>
	<path class="st4" d="M476.5,984.5c0-4,1.75-5.75,5.75-5.75h79V955c0-4,1.75-5.75,5.75-5.75h19.5c4,0,5.75,1.75,5.75,5.75v85
		c0,4-1.75,5.75-5.75,5.75H567c-4,0-5.75-1.75-5.75-5.75v-23.5h-79c-4,0-5.75-1.75-5.75-5.75V984.5z"/>
	<path class="st4" d="M476.5,1102c0-4,1.75-5.75,5.75-5.75h104.5c4,0,5.75,1.75,5.75,5.75v49.25c0,29.25-12.75,38-31.5,38h-20.5
		c-18.5,0-31.5-8.5-31.5-38v-18.75h-26.75c-4,0-5.75-1.75-5.75-5.75L476.5,1102L476.5,1102z M538,1132.25v14.5
		c0,6.25,3.75,7.5,7.75,7.5h8.5c4.25,0,7.75-1.25,7.75-7.5v-14.5H538z"/>
	<path class="st4" d="M476.5,1211.75c0-4,1.75-5.75,5.75-5.75h104.5c4,0,5.75,1.75,5.75,5.75v53.5c0,24.25-11,31.75-26.75,31.75
		h-7.5c-9,0-15.5-2.25-18.5-9c-1.25,11.75-9.75,19.5-23.5,19.5H482c-4,0-5.75-1.75-5.75-5.75v-25c0-4,1.75-5.75,5.75-5.75h24.5
		c4.75,0,7-1.5,7-6.25v-22.5H482c-4,0-5.75-1.75-5.75-5.75L476.5,1211.75L476.5,1211.75z M542.75,1242.25v12c0,5.5,3.25,7,7.5,7h5.5
		c4.5,0,7.5-1.5,7.5-7v-12H542.75z"/>
	<path class="st4" d="M476.5,1331.25c0-4,1.75-5.75,5.75-5.75h104.5c4,0,5.75,1.75,5.75,5.75v74.5c0,4-1.75,5.75-5.75,5.75H568
		c-4,0-5.75-1.75-5.75-5.75v-44.5h-12.5v31.5c0,4-1.75,5.75-5.75,5.75h-17.25c-4,0-5.75-1.75-5.75-5.75v-31.5h-13.75v44.5
		c0,4-1.75,5.75-5.75,5.75h-19c-4,0-5.75-1.75-5.75-5.75L476.5,1331.25L476.5,1331.25z"/>
	<path class="st4" d="M476.5,1433.75c0-4,1.75-5.75,5.75-5.75H501c4,0,5.75,1.75,5.75,5.75v43.5c0,2.75,2,4.25,4.5,4.25
		c3.75,0,5.25-1.5,5.5-4.25l3.5-24.25c2.25-15.25,8.5-25,26.75-25h17c18.5,0,28.5,12.5,28.5,33.5v45c0,4-1.75,5.75-5.75,5.75h-19.5
		c-4,0-5.75-1.75-5.75-5.75V1469c0-2.75-2-4.5-4.75-4.5c-2.75,0-4.75,1.5-5.25,4.5l-3.25,24c-2.25,15.25-8.5,25.25-26.75,25.25h-17
		c-18.5,0-28.5-12.5-28.5-33.5V1434h0.5V1433.75z"/>
	<path class="st4" d="M476.5,1537.5c0-4,1.75-5.75,5.75-5.75H501c4,0,5.75,1.75,5.75,5.75v43.5c0,2.75,2,4.25,4.5,4.25
		c3.75,0,5.25-1.5,5.5-4.25l3.5-24.25c2.25-15.25,8.5-25,26.75-25h17c18.5,0,28.5,12.5,28.5,33.5v45c0,4-1.75,5.75-5.75,5.75h-19.5
		c-4,0-5.75-1.75-5.75-5.75v-37.5c0-2.75-2-4.5-4.75-4.5c-2.75,0-4.75,1.5-5.25,4.5l-3.25,24C546,1612,539.75,1622,521.5,1622h-17
		c-18.5,0-28.5-12.5-28.5-33.5v-51H476.5z"/>
</g>
<g>
	<path class="st5" d="M1154.25,29c0-5.5,2.5-7.75,7.75-7.75h141.5c5.5,0,7.75,2.5,7.75,7.75v33.75c0,5.5-2.5,7.75-7.75,7.75h-108v30
		h35.5c5.5,0,7.75,2.5,7.75,7.75V140c0,5.5-2.5,7.75-7.75,7.75h-68.75c-5.5,0-7.75-2.5-7.75-7.75V29H1154.25z"/>
	<path class="st5" d="M1162,169.5h26c5.5,0,7.75,2.5,7.75,7.75v21.5h73.5V177.5c0-5.5,2.5-7.75,7.75-7.75h26.5
		c5.5,0,7.75,2.5,7.75,7.75v93c0,5.5-2.5,7.75-7.75,7.75H1277c-5.5,0-7.75-2.5-7.75-7.75v-21.25h-73.5v21.25
		c0,5.5-2.5,7.75-7.75,7.75h-26c-5.5,0-7.75-2.5-7.75-7.75v-93C1154.25,172,1156.75,169.5,1162,169.5z"/>
	<path class="st5" d="M1154.25,356.5c0-36.5,14.25-53.75,44.5-53.75H1267c30.5,0,44.5,17,44.5,53.75V411c0,5.5-2.5,7.75-7.75,7.75
		h-26.25c-5.5,0-7.75-2.5-7.75-7.75v-45.5c0-9.25-3.5-13.5-11-13.5h-52.25c-7.5,0-10.5,3.25-10.5,10v21.25h34
		c5.5,0,7.75,2.5,7.75,7.75v34c0,5.5-2.5,7.75-7.75,7.75h-67.5c-5.5,0-7.75-2.5-7.75-7.75v-68.5H1154.25z"/>
	<path class="st5" d="M1154.25,467.75c0-5.5,2.5-7.75,7.75-7.75h141.5c5.5,0,7.75,2.5,7.75,7.75v33.75c0,5.5-2.5,7.75-7.75,7.75
		H1256v36.5h47.5c5.5,0,7.75,2.5,7.75,7.75v34c0,5.5-2.5,7.75-7.75,7.75H1162c-5.5,0-7.75-2.5-7.75-7.75v-33.75
		c0-5.5,2.5-7.75,7.75-7.75h48.5v-36.5H1162c-5.5,0-7.75-2.5-7.75-7.75V467.75z"/>
	<path class="st5" d="M1154.25,664.25c0-5.5,2.5-7.75,7.75-7.75h107.25v-32c0-5.5,2.5-7.75,7.75-7.75h26.5c5.5,0,7.75,2.5,7.75,7.75
		v115.25c0,5.5-2.5,7.75-7.75,7.75H1277c-5.5,0-7.75-2.5-7.75-7.75v-32H1162c-5.5,0-7.75-2.5-7.75-7.75V664.25z"/>
	<path class="st5" d="M1154.25,772.75c0-5.5,2.5-7.75,7.75-7.75h25.5c5.5,0,7.75,2.5,7.75,7.75v58.75c0,3.75,2.75,5.5,6.5,5.5
		c5,0,7-2,7.5-5.5l4.5-32.75c3-20.5,11.75-33.75,36.25-33.75h23c24.75,0,38.5,16.75,38.5,45.25v61.25c0,5.5-2.5,7.75-7.75,7.75h-26
		c-5.5,0-7.75-2.5-7.75-7.75v-50.75c0-3.75-2.5-5.75-6.5-5.75c-4,0-6.5,2.25-7,5.75l-4.5,32.5c-3,20.5-11.75,34-36.25,34h-23
		c-24.75,0-38.5-17-38.5-45.25V772.75z"/>
	<path class="st5" d="M1195,1040.25c0,6.5,2.75,8.25,8.75,8.25H1234c5.5,0,7.75,2.5,7.75,7.75v42.5c0,5.5-2.25,7.75-7.75,7.75h-23.5
		c-5.5,0-7.75-2.5-7.75-7.75v-5H1193c-23.5,0-38.5-13.75-38.5-39v-60.5c0-26.75,15-41.25,38.5-41.25h17.5
		c20.5,0,32.5,11.75,33.75,27.5c4.25-9.5,12.5-12.75,23.5-12.75h10.5c19.25,0,33.5,12.25,33.5,42v46c0,5.5-2.5,7.75-7.75,7.75
		h-25.25c-5.5,0-7.75-2.5-7.75-7.75v-32.25c0-7-3-8.25-6.5-8.25h-4.5c-3.5,0-6.5,1.5-6.5,8.25v3.25c0,5.5-2.5,7.75-7.75,7.75h-22.5
		c-5.5,0-7.75-2.5-7.75-7.75v-17.5c0-7-2.75-8.25-6.5-8.25h-6.75c-3.5,0-6.5,1.5-6.5,8.25v31H1195z"/>
	<path class="st5" d="M1154.25,1184c0-5.5,2.5-7.75,7.75-7.75h141.5c5.5,0,7.75,2.5,7.75,7.75v73.5c0,36.5-14.25,53.75-44.5,53.75
		h-68.25c-30.5,0-44.5-17-44.5-53.75V1184H1154.25z M1195.5,1225.75v26c0,7,3.25,10.25,10.5,10.25h53.25
		c7.25,0,10.5-3.25,10.5-10.25v-26H1195.5z"/>
	<path class="st5" d="M1154.25,1375.75v-32c0-5.5,2.5-7.75,7.75-7.75h57.5c8.75,0,19.5,2.5,35,8.5l49.5,19
		c5,1.75,7.25,5.25,7.25,11.25v58.75c0,5.5-2.25,9.25-7.25,11l-49.5,19c-15.25,5.75-26.25,8.5-35,8.5H1162
		c-5.5,0-7.75-2.5-7.75-7.75v-33c0-5.75,2.5-8.5,7.75-8.5h30.5v-39.25H1162C1156.75,1383.5,1154.25,1381,1154.25,1375.75z
		 M1232.5,1385.75V1420l33.25-10.25c2.5-1,3.75-2.5,3.75-4.25v-5.5c0-1.75-1-3-3.75-4.25L1232.5,1385.75z"/>
	<path class="st5" d="M1154.25,1506.25c0-5.5,2.5-7.75,7.75-7.75h141.5c5.5,0,7.75,2.5,7.75,7.75V1579c0,32.75-14.75,43-36.5,43h-10
		c-12.25,0-21-3-24.75-12.25c-1.75,16-13.5,26.5-31.5,26.5h-46.25c-5.5,0-7.75-2.5-7.75-7.75v-33.75c0-5.5,2.5-7.75,7.75-7.75h33.5
		c6.5,0,9.5-2.25,9.5-8.25v-30.5h-42.75c-5.5,0-7.75-2.5-7.75-7.75L1154.25,1506.25L1154.25,1506.25z M1244,1547.75v16.5
		c0,7.5,4.5,9.5,10.25,9.5h7.5c5.75,0,10.25-2,10.25-9.5v-16.5H1244z"/>
	<path class="st5" d="M1154.25,1668.5c0-5.5,2.5-7.75,7.75-7.75h141.5c5.5,0,7.75,2.5,7.75,7.75v33.75c0,5.5-2.5,7.75-7.75,7.75
		h-50.25v8.75l50.75,22.5c5.25,2.25,7.25,5.25,7.25,11v33.5c0,5-2.5,6.75-7.25,4.75l-50.75-22.25c-0.75,16.5-12.25,26.75-29.5,26.75
		h-61.5c-5.5,0-7.75-2.5-7.75-7.75v-33.5c0-5.5,2.5-7.75,7.75-7.75h42.5c4.75,0,7.5-2.5,7.5-7v-28.75h-50c-5.5,0-7.75-2.5-7.75-7.75
		L1154.25,1668.5L1154.25,1668.5z"/>
	<path class="st5" d="M1154.25,1827.25c0-5.5,2.5-7.75,7.75-7.75h25.5c5.5,0,7.75,2.5,7.75,7.75V1886c0,3.75,2.75,5.5,6.5,5.5
		c5,0,7-2,7.5-5.5l4.5-32.75c3-20.5,11.75-33.75,36.25-33.75h23c24.75,0,38.5,16.75,38.5,45.25V1926c0,5.5-2.5,7.75-7.75,7.75h-26
		c-5.5,0-7.75-2.5-7.75-7.75v-51c0-3.75-2.5-5.75-6.5-5.75c-4,0-6.5,2.25-7,5.75l-4.5,32.5c-3,20.5-11.75,34-36.25,34h-23
		c-24.75,0-38.5-17-38.5-45.25V1827.25z"/>
</g>
<g>
	<path class="st2" d="M690,36c0-10.5,4.5-15,15-15h185c102,0,160.75,58.75,160.75,161v184.75c0,10.5-4.5,15-15,15h-332.5
		c-7.5,0-13.25-5.5-13.25-13.25V36L690,36z"/>
	<path class="st2" d="M1036,770H705c-10.5,0-15-4.5-15-15V424c0-10.5,4.5-15,15-15h330.5c10.5,0,15,4.5,15,15v330.5
		C1051,765.25,1046.25,770,1036,770z"/>
	<path class="st2" d="M1036,1158H705c-10.5,0-15-4.5-15-15V812.25c0-10.5,4.5-15,15-15h330.5c10.5,0,15,4.5,15,15v330.5
		C1051,1153.25,1046.25,1158,1036,1158z"/>
	<path class="st2" d="M1036,1546H705c-10.5,0-15-4.5-15-15v-330.75c0-10.5,4.5-15,15-15h330.5c10.5,0,15,4.5,15,15v330.5
		C1051,1541.5,1046.25,1546,1036,1546z"/>
	<path class="st2" d="M1036,1934H705c-10.5,0-15-4.5-15-15v-330.75c0-10.5,4.5-15,15-15h330.5c10.5,0,15,4.5,15,15v330.5
		C1051,1929.5,1046.25,1934,1036,1934z"/>
</g>
<g>
	<path class="st1" d="M832.5,298.25V154h-40.25c-9.5,0-13.75-4.25-13.75-13.75V104c0-9.5,4.25-13.75,13.75-13.75h158.5
		c9.5,0,13.75,4.25,13.75,13.75v36c0,9.5-4.25,13.75-13.75,13.75H910.5V298c0,9.5-4.25,13.75-13.75,13.75h-50.5
		C836.75,312,832.5,308,832.5,298.25z M907.5,298.25v-147.5h43.25c7.5,0,10.75-3.25,10.75-10.75v-36c0-7.5-3.25-10.75-10.75-10.75
		h-158.5c-7.5,0-10.75,3.25-10.75,10.75v36c0,7.5,3.5,10.75,10.75,10.75h43.25V298c0,7.5,3.25,10.75,10.75,10.75h50.5
		C904,309,907.5,305.75,907.5,298.25z M870,123h-61.5v-3h126v3H873v159h-3V123L870,123z"/>
	<path class="st1" d="M781,682.25v-35.5c0-9.5,4.25-13.75,13.75-13.75H832v-94.75h-37c-9.5,0-13.75-4.25-13.75-13.75v-36.25
		c0-9.5,4.25-13.75,13.75-13.75h153c9.5,0,13.75,4.25,13.75,13.75v36.25c0,9.5-4.25,13.75-13.75,13.75h-37.25V633H948
		c9.5,0,13.75,4.25,13.75,13.75v35.5c0,9.5-4.25,13.75-13.75,13.75H795C785.25,696,781,692,781,682.25z M948,693
		c7.5,0,10.75-3.25,10.75-10.75v-35.5c0-7.5-3.25-10.75-10.75-10.75h-40.25V535H948c7.5,0,10.75-3.25,10.75-10.75V488
		c0-7.5-3.25-10.75-10.75-10.75H795c-7.5,0-10.75,3.25-10.75,10.75v36.25c0,7.5,3.25,10.75,10.75,10.75h40v100.75h-40
		c-7.5,0-10.75,3.25-10.75,10.75V682c0,7.5,3.25,10.75,10.75,10.75h153V693z M811,666v-3h59V507h-58.75v-3h120.5v3H873v156h58.75v3
		H811z"/>
	<path class="st1" d="M792.25,1085c-9.5,0-13.75-4.25-13.75-13.75v-194.5c0-9.5,4.25-13.75,13.75-13.75h96.5c47.5,0,62,21.75,62,53
		v13.75c0,15-3.25,26.5-12,33c16.25,5.5,28.5,21.25,28.5,44.5v63.5c0,9.5-4.25,13.75-13.75,13.75H907c-9.5,0-13.75-4.25-13.75-13.75
		v-45.5c0-6.5-2-10-8.5-10h-32.5V1071c0,9.5-4.25,13.75-13.75,13.75h-46.25V1085z M849.25,1071.25v-58.75H885c8.5,0,11.5,4,11.5,13
		v45.75c0,7.5,3.25,10.75,10.75,10.75h46.5c7.5,0,10.75-3.25,10.75-10.75v-63.5c0-25.25-15-41-33.25-43.5
		c12.5-5.5,16.75-17.5,16.75-34.25v-13.75c0-29.5-14-50-59-50h-96.5c-7.5,0-10.75,3.25-10.75,10.75v194.5
		c0,7.5,3.5,10.75,10.75,10.75h46.25C846,1082,849.25,1079,849.25,1071.25z M814,1055V893h68.5c23.5,0,34.25,14.5,34.25,34.25v20.5
		c0,18.25-3.5,30.25-18,34.75H902c24.5,0,30,11,30,32v40.5h-3v-40.25c0-19.75-4.25-29.5-27-29.5h-84.75V1055H814L814,1055L814,1055z
		 M817,896v86.5h65.5c24.75,0,31.25-12.25,31.25-34.5v-21c0-18.5-9.75-31.25-31.25-31.25L817,896L817,896z M868.5,920
		c10.5,0,13.25,6,13.25,14v10.25c0,8-2.75,14-13.25,14h-19.25V920H868.5L868.5,920z M852.25,923v32.5h16.25
		c8.5,0,10.25-4.75,10.25-11v-10.25c0-6.25-1.75-11-10.25-11L852.25,923L852.25,923z"/>
	<path class="st1" d="M778.75,1459v-194.5c0-9.5,4.25-13.75,13.75-13.75H948c9.5,0,13.75,4.25,13.75,13.75v35
		c0,9.5-4.25,13.75-13.75,13.75h-96v17h71.5c9.5,0,13.75,3.75,13.75,13.75v32c0,9.5-4.25,13.75-13.75,13.75H852v19.75h96
		c9.5,0,13.75,4.25,13.75,13.75v35c0,9.5-4.25,13.75-13.75,13.75H792.5C783,1472.75,778.75,1468.5,778.75,1459z M958.75,1459v-35
		c0-7.5-3.25-10.75-10.75-10.75h-99v-25.75h74.5c7.5,0,10.75-3.5,10.75-10.75v-32c0-7.75-3.25-10.75-10.75-10.75H849v-23h99
		c7.5,0,10.75-3.25,10.75-10.75v-35c0-7.5-3.25-10.75-10.75-10.75H792.5c-7.5,0-10.75,3.25-10.75,10.75v194.5
		c0,7.5,3.25,10.75,10.75,10.75H948C955.5,1469.75,958.75,1466.5,958.75,1459z M931.75,1442.75H814v-162h117.75v3H817V1359h90.5v3
		H817v77.5h114.75L931.75,1442.75L931.75,1442.75z"/>
	<path class="st1" d="M899.75,1862h-107.5c-9.5,0-13.75-4.25-13.75-13.75v-35c0-9.5,4.25-13.75,13.75-13.75h93.25
		c3.25,0,4.75-2.5,4.75-5.5c0-4.5-1.5-7-5.25-7.25l-57.5-6.25c-30-4.5-49.25-17.5-49.25-52.75v-31.5c0-36,24-55.75,65-55.75h99.5
		c9.5,0,13.75,4.25,13.75,13.75v35.5c0,9.5-4.25,13.75-13.75,13.75H857.5c-3.25,0-5,2.5-5,6s1.75,6.25,5.5,6.5l57.25,6
		c30,4.5,49.5,17.5,49.5,52.75v31.5C964.75,1842,940.5,1862,899.75,1862z M961.75,1806v-31.5c0-33.5-18.5-45.5-46.75-49.75l-57.25-6
		c-5-0.5-8-4.25-8-9.5c0-5.5,3-9,8-9h85.5c7.5,0,10.75-3.5,10.75-10.75V1654c0-7.5-3.25-10.75-10.75-10.75h-99.5
		c-39,0-62,18.5-62,52.75v31.5c0,33.5,18.25,45.5,46.5,49.75l57.5,6.25c5,0.5,7.75,3.5,7.75,10.25c0,4.75-2.5,8.5-7.75,8.5H792.5
		c-7.5,0-10.75,3.25-10.75,10.75v35c0,7.5,3.5,10.75,10.75,10.75H900C938.25,1859,961.75,1840.25,961.75,1806z M927,1673h-82.25
		c-17,0-27.5,9.25-27.5,24.25v27.5c0,12,8,20,21.25,21.25l63.75,6.25c18,1.75,26.5,11,26.5,27.25v25
		c0,16.75-12.75,27.25-33.25,27.25h-87.25v-3h87.25c18.5,0,30.25-9.5,30.25-24.25v-25c0-14.5-7.75-22.75-24.25-24.25l-63.75-6.25
		c-14.5-1.5-23.5-10.75-23.5-24.25v-27.5c0-16.75,11.5-27.25,30.5-27.25H927L927,1673L927,1673z"/>
</g>
<g>
	<path class="st2" d="M1410,141c-4.5,0-6.5-2-6.5-6.5V41c0-2.5,0.75-4.25,2-5.5L1424,20c1-0.75,2.5-1.25,4.5-1.25h22.5
		c4.5,0,6.5,2,6.5,6.5V95h1.5v-6.5c0-2.5,0.75-4.25,2-5.5l18.25-15.5c1-0.75,2.5-1.25,4.5-1.25h20.75c4.5,0,6.5,2,6.5,6.5v45.5
		c0,2.5-0.75,4.25-2,5.5l-18.75,15.5c-0.75,0.75-2.5,1.5-4.5,1.5L1410,141L1410,141L1410,141z M1509.75,118.75v-45.5
		c0-3.5-1.5-5.25-5.25-5.25h-20.75c-3.5,0-5.25,1.5-5.25,5.25v23.5H1456v-71.5c0-3.5-1.5-5.25-5.25-5.25h-22.5
		c-3.5,0-5.25,1.5-5.25,5.25v93.25c0,3.5,1.5,5.25,5.25,5.25h76C1508,123.75,1509.75,122.25,1509.75,118.75z M1439,33h1.5v76.5
		h52.75V81h1.5v29.75h-55.5L1439,33L1439,33z"/>
	<path class="st2" d="M1489,266c-0.75,0.75-2.5,1.5-4.5,1.5H1411c-4.5,0-6.5-2-6.5-6.5v-17.25c0-2.5,0.75-4.25,2-5.5l18.5-15.5
		c0.75-0.75,2.25-1.25,3.75-1.25v-29.75H1411c-4.5,0-6.5-2-6.5-6.5v-17.5c0-2.5,0.75-4.25,2-5.5l18.5-15.5c1-0.75,2.5-1.25,4.5-1.25
		h73.5c4.5,0,6.5,2,6.5,6.5v17.5c0,2.5-0.75,4.25-2,5.5l-18.75,15.5l0.25-0.25c-0.75,0.75-2.25,1.5-3.75,1.5v29.5H1503
		c4.5,0,6.5,2,6.5,6.5V245c0,2.5-0.75,4.25-2,5.5L1489,266z M1503,250.5c3.5,0,5.25-1.5,5.25-5.25V228c0-3.5-1.5-5.25-5.25-5.25
		h-19.25V174.5H1503c3.5,0,5.25-1.5,5.25-5.25v-17.5c0-3.5-1.5-5.25-5.25-5.25h-73.5c-3.5,0-5.25,1.5-5.25,5.25v17.5
		c0,3.5,1.5,5.25,5.25,5.25h19.25V223h-19.25c-3.5,0-5.25,1.5-5.25,5.25v17.25c0,3.5,1.5,5.25,5.25,5.25
		C1429.75,250.5,1503,250.5,1503,250.5z M1437.5,237.5V236h28.25v-74.75h-28.25V160h57.75v1.5H1467v74.75h28.25v1.25H1437.5z"/>
	<path class="st2" d="M1436.75,406c-4.5,0-6.5-2-6.5-6.5v-6.75c-21.75-3.75-27.5-19-27.5-33.75v-43.5c0-9,2.25-16.5,8.5-22.25
		l18.75-15.5c6.5-5.5,17.75-9,36.5-9c37,0,45.25,12.75,45.25,31v47.75c0,9-2.25,16.5-8.5,22l-18.5,15.5l-0.5,0.5
		c-0.25,1.5-0.75,2.75-1.75,3.5l-18.75,15.5c-0.75,0.75-2.5,1.5-4.5,1.5H1436.75z M1482.5,383.75v-8c21.75-3.5,27.5-13.75,27.5-28.5
		V299.5c0-17.5-8.5-29.5-43.75-29.5s-43.75,12-43.75,29.5v48c0,14.5,5.75,24.75,27.5,28.25v8c0,3.5,1.5,5.25,5.25,5.25h22.25
		C1481,389,1482.5,387.25,1482.5,383.75z M1465.5,365c-21.25-0.25-27.25-8-27.25-19.5V303c0-11.5,6-19.5,28-19.5
		c21.75,0,28.5,7.75,28.5,19.5v42.5c0,11.5-6.5,19.25-27.5,19.5v11h-1.5L1465.5,365L1465.5,365z M1466.25,363.5
		c20.75,0,27-7.25,27-18V303c0-10.75-6.25-18-27-18s-26.5,7.25-26.5,18v42.5C1439.75,356.25,1445.5,363.5,1466.25,363.5z
		 M1455.25,305c0-3.75,1.5-6.5,11-6.5c9.5,0,11.25,2.75,11.25,6.5v39.25c0,3.75-1.5,6.75-11.25,6.75c-9.5,0-11-2.75-11-6.75V305z
		 M1459.5,348v-27.5c0-1.75-0.5-3.5-2.75-4.25v27.25C1456.75,345.5,1457.25,347,1459.5,348z"/>
	<path class="st2" d="M1403.25,493v-67c0-2.5,0.75-4.25,2-5.5l18.5-15.5c1-0.75,2.5-1.25,4.5-1.25h22.5c4.5,0,6.5,2,6.5,6.5v13
		c0.25-1.25,0.75-2,1.5-2.5l0.25-0.25l18.75-15.5c1-0.75,2.5-1.25,4.5-1.25H1504c4.5,0,6.5,2,6.5,6.5v71.25c0,9-2.25,16.5-8.75,22
		l-18.5,15.5c-6.5,5.5-17.75,8.75-35.75,8.75C1411.5,528.25,1403.25,511.25,1403.25,493z M1509.5,410.5c0-3.5-1.5-5.25-5.25-5.25
		h-21.75c-3.75,0-5.25,1.5-5.25,5.25V476c0,3.75-1.75,6.75-10.5,6.75s-10.5-2.75-10.5-6.75v-65.5c0-3.5-1.5-5.25-5.25-5.25h-22.5
		c-3.5,0-5.25,1.5-5.25,5.25v71.25c0,17.5,8.5,29.5,43.25,29.5s43.25-11.75,43.25-29.5L1509.5,410.5L1509.5,410.5z M1440.5,418.25
		v60c0,10.75,5.5,18,25.5,18c20.75,0,26.75-7.25,26.75-18v-60h1.5v60c0,11.5-6.25,19.5-28.25,19.5c-21.25,0-27-7.75-27-19.5v-60
		H1440.5z"/>
	<path class="st2" d="M1489,650c-0.75,0.75-2.5,1.5-4.5,1.5H1411c-4.5,0-6.5-2-6.5-6.5v-17.25c0-2.5,0.75-4.25,2-5.5l18.5-15.5
		c0.75-0.75,2.25-1.25,3.75-1.25v-29.75H1411c-4.5,0-6.5-2-6.5-6.5v-17.5c0-2.5,0.75-4.25,2-5.5l18.5-15.5c1-0.75,2.5-1.25,4.5-1.25
		h73.5c4.5,0,6.5,2,6.5,6.5v17.5c0,2.5-0.75,4.25-2,5.5l-18.75,15.5l0.25-0.25c-0.75,0.75-2.25,1.5-3.75,1.5v29.5H1503
		c4.5,0,6.5,2,6.5,6.5V629c0,2.5-0.75,4.25-2,5.5L1489,650z M1503,634.5c3.5,0,5.25-1.5,5.25-5.25V612c0-3.5-1.5-5.25-5.25-5.25
		h-19.25v-48.5H1503c3.5,0,5.25-1.5,5.25-5.25v-17.5c0-3.5-1.5-5.25-5.25-5.25h-73.5c-3.5,0-5.25,1.5-5.25,5.25V553
		c0,3.5,1.5,5.25,5.25,5.25h19.25v48.5h-19.25c-3.5,0-5.25,1.5-5.25,5.25v17.25c0,3.5,1.5,5.25,5.25,5.25H1503z M1437.5,621.5V620
		h28.25v-74.75h-28.25v-1.5h57.75v1.5H1467V620h28.25v1.5H1437.5z"/>
	<path class="st2" d="M1456.25,777H1410c-4.5,0-6.5-2-6.5-6.5v-93.25c0-2.5,0.75-4.25,2-5.5l18.5-15.5c1-0.75,2.5-1.25,4.5-1.25
		h46.5c28.5,0,36.75,12.5,36.75,30.75v45c0,9.5-2.5,17.75-9,23.25l-18.5,15.5C1478.25,774,1469.5,777,1456.25,777z M1510.25,730.5
		v-45c0-17.5-8.25-29.5-35.5-29.5h-46.5c-3.5,0-5.25,1.5-5.25,5.25v93.25c0,3.5,1.5,5.25,5.25,5.25H1475
		C1502,760,1510.25,748,1510.25,730.5z M1439,669.25h32.75c19.5,0,23,9,23,20v38.25c0,11-3.25,19.5-23,19.5H1439V669.25z
		 M1440.25,670.75v74.75h31.5c18.5,0,21.5-7.5,21.5-18.25V689c0-10.5-3.5-18.5-21.5-18.5L1440.25,670.75L1440.25,670.75z
		 M1471,683.75c5.75,0,6.75,3.25,6.75,7v35c0,3.75-1,7-6.75,7h-15.25v-49L1471,683.75L1471,683.75z M1457.25,701.25v30h2.5V706.5
		C1459.75,703.75,1459,702,1457.25,701.25z"/>
	<path class="st2" d="M1456.25,948H1410c-4.5,0-6.5-2-6.5-6.5v-93.25c0-2.5,0.75-4.25,2-5.5l18.5-15.5c1-0.75,2.5-1.25,4.5-1.25
		h46.5c28.5,0,36.75,12.5,36.75,30.75v45c0,9.5-2.5,17.75-9,23.25l-18.5,15.5C1478.25,945.25,1469.5,948,1456.25,948z
		 M1510.25,901.75v-45c0-17.5-8.25-29.5-35.5-29.5h-46.5c-3.5,0-5.25,1.5-5.25,5.25v93.25c0,3.5,1.5,5.25,5.25,5.25H1475
		C1502,931,1510.25,919,1510.25,901.75z M1439,840.25h32.75c19.5,0,23,9,23,20v38.25c0,11-3.25,19.5-23,19.5H1439V840.25z
		 M1440.25,841.75v74.75h31.5c18.5,0,21.5-7.5,21.5-18.25V860c0-10.5-3.5-18.5-21.5-18.5L1440.25,841.75L1440.25,841.75z M1471,855
		c5.75,0,6.75,3.25,6.75,7v35c0,3.75-1,7-6.75,7h-15.25v-49H1471z M1457.25,872.5v30h2.5v-25C1459.75,875,1459,873,1457.25,872.5z"
		/>
	<path class="st2" d="M1410,1073.75c-4.5,0-6.5-2-6.5-6.5V974c0-2.5,0.75-4.25,2-5.5L1424,953c1-0.75,2.5-1.25,4.5-1.25h74.5
		c4.5,0,6.5,2,6.5,6.5V975c0,2.5-0.75,4.25-2,5.5l-12.5,10.25c1.75,1,2.75,2.75,2.75,6v15.5c0,2.5-0.75,4.25-2,5.5L1483,1028.5
		h19.75c4.5,0,6.5,2,6.5,6.5v16.75c0,2.5-0.75,4.25-2,5.5l-18.75,15.5c-0.75,0.75-2.5,1.5-4.5,1.5h-74V1073.75L1410,1073.75z
		 M1508.25,1051.25v-16.75c0-3.5-1.5-5.25-5.25-5.25h-47.5v-12.5h35.75c3.5,0,5.25-1.5,5.25-5.25V996c0-3.75-1.5-5.25-5.25-5.25
		h-35.75V980h47.5c3.5,0,5.25-1.5,5.25-5.25V958c0-3.5-1.5-5.25-5.25-5.25h-74.5c-3.5,0-5.25,1.5-5.25,5.25v93.25
		c0,3.5,1.5,5.25,5.25,5.25h74.5C1506.75,1056.5,1508.25,1055,1508.25,1051.25z M1495.25,1043.5h-56.5v-77.75h56.5v1.5H1440v36.5
		h43.5v1.5H1440v37.25h55.25V1043.5z"/>
	<path class="st2" d="M1435.75,1200.25c-4.5,0-6.5-2-6.5-6.5v-69.25H1410c-4.5,0-6.5-2-6.5-6.5v-17.5c0-2.5,0.75-4.25,2-5.5
		l18.5-15.5c1-0.75,2.5-1.25,4.5-1.25h76c4.5,0,6.5,2,6.5,6.5v17.5c0,2.5-0.75,4.25-2,5.5l-18.75,15.5c-0.75,0.75-2.5,1.5-4.5,1.5
		H1485v53.5c0,2.5-0.75,4.25-2,5.5l-18.75,15.5c-0.75,0.75-2.5,1.5-4.5,1.5h-24.25v-0.5H1435.75z M1483.75,1178v-70.5h20.75
		c3.5,0,5.25-1.5,5.25-5.25v-17.5c0-3.5-1.5-5.25-5.25-5.25h-76c-3.5,0-5.25,1.5-5.25,5.25v17.5c0,3.5,1.5,5.25,5.25,5.25h20.75
		v70.5c0,3.5,1.5,5.25,5.25,5.25h24.25C1482,1183,1483.75,1181.5,1483.75,1178z M1465.75,1094h-29.5v-1.5h60.5v1.5h-29.5v76h-1.5
		L1465.75,1094L1465.75,1094z"/>
	<path class="st2" d="M1410,1323.25c-4.5,0-6.5-2-6.5-6.5v-93.25c0-2.5,0.75-4.25,2-5.5l18.5-15.5c1-0.75,2.5-1.25,4.5-1.25h74.5
		c4.5,0,6.5,2,6.5,6.5v16.75c0,2.5-0.75,4.25-2,5.5l-12.5,10.25c1.75,1,2.75,2.75,2.75,6v15.5c0,2.5-0.75,4.25-2,5.5L1483,1278
		h19.75c4.5,0,6.5,2,6.5,6.5v16.75c0,2.5-0.75,4.25-2,5.5l-18.75,15.5c-0.75,0.75-2.5,1.5-4.5,1.5h-74V1323.25L1410,1323.25z
		 M1508.25,1301v-16.75c0-3.5-1.5-5.25-5.25-5.25h-47.5v-12.5h35.75c3.5,0,5.25-1.5,5.25-5.25v-15.5c0-3.75-1.5-5.25-5.25-5.25
		h-35.75V1230h47.5c3.5,0,5.25-1.5,5.25-5.25V1208c0-3.5-1.5-5.25-5.25-5.25h-74.5c-3.5,0-5.25,1.5-5.25,5.25v93.25
		c0,3.5,1.5,5.25,5.25,5.25h74.5C1506.75,1306.25,1508.25,1304.75,1508.25,1301z M1495.25,1293.25h-56.5v-77.75h56.5v1.5H1440v36.25
		h43.5v1.5H1440V1292h55.25V1293.25z"/>
	<path class="st2" d="M1436.5,1447.25c-0.75,0.75-2.5,1.5-4.5,1.5h-22c-4.5,0-6.5-2-6.5-6.5V1349c0-2.5,0.75-4.25,2-5.5l18.5-15.5
		c1-0.75,2.5-1.25,4.5-1.25h46.5c22.75,0,29.75,10.5,29.75,25.5v6.5c0,7-1.5,12.5-5.5,15.5l-0.25,0.25c7.5,2.5,13.5,10,13.5,21.5
		v30.5c0,2.5-0.75,4.25-2,5.5l-18.75,15.5c-0.75,0.75-2.5,1.5-4.5,1.5h-21.5c-4.5,0-6.5-2-6.5-6.5v-22c0-1.75-0.75-3.5-2-4v10.5
		c0,2.5-0.75,4.25-2,5.5L1436.5,1447.25z M1455.75,1426.5v-28.25H1473c4,0,5.5,1.75,5.5,6.25v22c0,3.5,1.5,5.25,5.25,5.25h22.5
		c3.5,0,5.25-1.5,5.25-5.25V1396c0-12-7.25-19.75-16-20.75c6-2.5,8-8.5,8-16.5v-6.5c0-14.25-6.75-24-28.5-24h-46.5
		c-3.5,0-5.25,1.5-5.25,5.25v93.25c0,3.5,1.5,5.25,5.25,5.25h22.25C1454,1431.75,1455.75,1430,1455.75,1426.5z M1438.75,1418.75
		V1341h32.75c11.25,0,16.5,7,16.5,16.5v10c0,8.75-1.75,14.5-8.5,16.5h1.5c11.75,0,14.5,5.5,14.5,15.5v19.25h-1.5v-19
		c0-9.5-2-14.25-13-14.25h-41v33.5h-1.25V1418.75z M1440.25,1342.5v41.5h31.5c12,0,15-6,15-16.5v-10c0-9-4.75-15-15-15H1440.25z
		 M1465,1354c5,0,6.5,2.75,6.5,6.75v4.75c0,3.75-1.25,6.75-6.5,6.75h-9.25v-18.5L1465,1354L1465,1354z"/>
	<path class="st2" d="M1440.75,1571.75c-28.5,0-38.25-15.5-38.25-33.5v-42c0-9.5,2.5-17.75,9-23.5l18.5-15.5
		c5.75-4.75,14.5-7.5,28-7.5h37.25c4.5,0,6.5,2,6.5,6.5v17.5c0,2.5-0.75,4.25-2,5.5l-18.75,15.5c-0.75,0.75-2.5,1.5-4.5,1.5h-19.75
		v24.5c0,1,0,2,0.25,2.75v-2.5c0-2.5,0.75-4.25,2-5.5l18.5-15.5c1-0.75,2.5-1.25,4.5-1.25h22.5c4.5,0,6.5,2,6.5,6.5v44.5
		c0,2.5-0.75,4.25-2,5.5l-18.75,15.5c-0.75,0.75-2.5,1.5-4.5,1.5L1440.75,1571.75L1440.75,1571.75L1440.75,1571.75z M1509.5,1549.5
		V1505c0-3.5-1.5-5.25-5.25-5.25h-22.5c-3.5,0-5.25,1.5-5.25,5.25v22.5h-15.25c-5.75,0-6.5-3.25-6.5-7V1486
		c0-3.75,1.25-7.25,8.75-7.25h31c3.5,0,5.25-1.5,5.25-5.25V1456c0-3.5-1.5-5.25-5.25-5.25h-36.75c-27.25,0-35.5,12-35.5,29.5v45
		c0,17.5,8.25,29.5,35.5,29.5h46.5C1508,1554.75,1509.5,1553,1509.5,1549.5z M1438.25,1523v-40.25c0-13.5,4.5-18.75,23-18.75h26v1.5
		h-26c-17,0-21.5,4.5-21.5,17.5v40.25c0,12.5,5,17.25,24.5,17.25h28.25V1513h1.5v29h-30C1443,1541.75,1438.25,1536.5,1438.25,1523z"
		/>
	<path class="st2" d="M1410,1697.25c-4.5,0-6.5-2-6.5-6.5v-93.25c0-2.5,0.75-4.25,2-5.5l18.5-15.5c1-0.75,2.5-1.25,4.5-1.25h74.5
		c4.5,0,6.5,2,6.5,6.5v16.75c0,2.5-0.75,4.25-2,5.5l-12.5,10.25c1.75,1,2.75,2.75,2.75,6v15.5c0,2.5-0.75,4.25-2,5.5L1483,1652
		h19.75c4.5,0,6.5,2,6.5,6.5v16.75c0,2.5-0.75,4.25-2,5.5l-18.75,15.5c-0.75,0.75-2.5,1.5-4.5,1.5h-74V1697.25L1410,1697.25z
		 M1508.25,1675v-16.75c0-3.5-1.5-5.25-5.25-5.25h-47.5v-12.5h35.75c3.5,0,5.25-1.5,5.25-5.25V1620c0-3.75-1.5-5.25-5.25-5.25
		h-35.75v-11h47.5c3.5,0,5.25-1.5,5.25-5.25v-16.75c0-3.5-1.5-5.25-5.25-5.25h-74.5c-3.5,0-5.25,1.5-5.25,5.25V1675
		c0,3.5,1.5,5.25,5.25,5.25h74.5C1506.75,1680,1508.25,1678.5,1508.25,1675z M1495.25,1667h-56.5v-77.5h56.5v1.5H1440v36.25h43.5
		v1.5H1440V1666h55.25V1667z"/>
	<path class="st2" d="M1436,1820.5c-0.75,0.75-2.5,1.5-4.5,1.5H1410c-4.5,0-6.5-2-6.5-6.5v-93.25c0-2.5,0.75-4.25,2-5.5l18.5-15.5
		c1-0.75,2.5-1.25,4.5-1.25h15c4.25,0,6.75,1.25,9.5,4.5l8.5,10.75l16.5-14c1-0.75,2.5-1.25,4.5-1.25h21.5c4.5,0,6.5,2,6.5,6.5
		v93.25c0,2.5-0.75,4.25-2,5.5l-18.75,15.5c-0.75,0.75-2.5,1.5-4.5,1.5h-21.5c-4.5,0-6.5-2-6.5-6.5v-17.25l-1.25-1.5v3
		c0,2.5-0.75,4.25-2,5.5L1436,1820.5z M1455,1799.75v-47.5l22.5,29.75v17.75c0,3.5,1.5,5.25,5.25,5.25h21.5
		c3.5,0,5.25-1.5,5.25-5.25v-93.25c0-3.5-1.5-5.25-5.25-5.25h-21.5c-3.5,0-5.25,1.5-5.25,5.25v30.5l-26-32
		c-2.5-2.75-4.75-3.75-8.5-3.75h-15c-3.5,0-5.25,1.5-5.25,5.25v93.5c0,3.5,1.5,5.25,5.25,5.25h21.5
		C1453.75,1805,1455,1803.25,1455,1799.75z M1442.25,1715.25l50.5,59.5V1714h1.5v77.75h-1.5V1777l-52-61
		c-0.25-0.25-0.5-0.5-0.75-0.5c-0.25,0-0.25,0.25-0.25,0.5v75.75h-1.5v-76.25c0-1.25,0.75-1.75,1.75-1.75
		C1441.25,1714,1441.25,1714.25,1442.25,1715.25z"/>
	<path class="st2" d="M1435.75,1946.75c-4.5,0-6.5-2-6.5-6.5V1871H1410c-4.5,0-6.5-2-6.5-6.5V1847c0-2.5,0.75-4.25,2-5.5l18.5-15.5
		c1-0.75,2.5-1.25,4.5-1.25h76c4.5,0,6.5,2,6.5,6.5v17.5c0,2.5-0.75,4.25-2,5.5l-18.75,15.5c-0.75,0.75-2.5,1.5-4.5,1.5H1485v53.5
		c0,2.5-0.75,4.25-2,5.5l-18.75,15.5c-0.75,0.75-2.5,1.5-4.5,1.5h-24.25v-0.5H1435.75z M1483.75,1924.5V1854h20.75
		c3.5,0,5.25-1.5,5.25-5.25v-17.5c0-3.5-1.5-5.25-5.25-5.25h-76c-3.5,0-5.25,1.5-5.25,5.25v17.5c0,3.5,1.5,5.25,5.25,5.25h20.75
		v70.5c0,3.5,1.5,5.25,5.25,5.25h24.25C1482,1929.75,1483.75,1928,1483.75,1924.5z M1465.75,1840.5h-29.5v-1.5h60.5v1.5h-29.5v76.25
		h-1.5L1465.75,1840.5L1465.75,1840.5z"/>
</g>
<rect class="st6" width="1550" height="2000"/>
</svg>
