<?xml version="1.0" encoding="utf-8"?>
<!-- Generator: Adobe Illustrator 17.1.0, SVG Export Plug-In . SVG Version: 6.00 Build 0)  -->
<!DOCTYPE svg PUBLIC "-//W3C//DTD SVG 1.1//EN" "http://www.w3.org/Graphics/SVG/1.1/DTD/svg11.dtd">
<svg version="1.1" id="Layer_1" xmlns="http://www.w3.org/2000/svg" xmlns:xlink="http://www.w3.org/1999/xlink" x="0px" y="0px"
	 width="800px" height="800px" viewBox="0 0 800 800" enable-background="new 0 0 800 800" xml:space="preserve">
<image overflow="visible" width="60" height="104" xlink:href="../../../../Desktop/Screen Shot 2016-04-05 at 4.09.45 PM.png"  transform="matrix(16.7127 0 0 9.6508 -49.0631 -26.0013)">
</image>
<g>
	<g>
		<path fill="#FFFFFF" d="M161.8,476.8c1.8,0,1.9,0.8,2.5,2.5l13.2,33.4c0.5,1.3,0.5,2.7,0,4l-13.2,33.2c-0.6,1.7-0.8,2.5-2.5,2.5
			H91.3c-1.8,0-3-1.1-2.4-2.8l13.8-35l-13.8-35c-0.7-1.7,0.6-2.8,2.4-2.8L161.8,476.8L161.8,476.8z"/>
		<path fill="#FFFFFF" d="M251.4,476.8c1.8,0,1.9,0.8,2.5,2.5l13.2,33.4c0.5,1.3,0.5,2.7,0,4l-13.2,33.2c-0.6,1.7-0.8,2.5-2.5,2.5
			h-70.5c-1.8,0-3-1.1-2.4-2.8l13.8-35l-13.8-35c-0.7-1.7,0.6-2.8,2.4-2.8L251.4,476.8L251.4,476.8z"/>
		<path fill="#FFFFFF" d="M340.9,476.8c1.8,0,1.9,0.8,2.5,2.5l13.2,33.4c0.5,1.3,0.5,2.7,0,4l-13.2,33.2c-0.6,1.7-0.8,2.5-2.5,2.5
			h-70.5c-1.8,0-3-1.1-2.4-2.8l13.8-35l-13.8-35c-0.7-1.7,0.6-2.8,2.4-2.8L340.9,476.8L340.9,476.8z"/>
		<path fill="#FFFFFF" d="M430.4,476.8c1.8,0,1.9,0.8,2.5,2.5l13.2,33.4c0.5,1.3,0.5,2.7,0,4L433,549.8c-0.6,1.7-0.8,2.5-2.5,2.5
			H360c-1.8,0-3-1.1-2.4-2.8l13.8-35l-13.8-35c-0.7-1.7,0.6-2.8,2.4-2.8L430.4,476.8L430.4,476.8z"/>
		<path fill="#FFFFFF" d="M520,476.8c1.8,0,1.9,0.8,2.5,2.5l13.2,33.4c0.5,1.3,0.5,2.7,0,4l-13.2,33.2c-0.6,1.7-0.8,2.5-2.5,2.5
			h-70.5c-1.8,0-3-1.1-2.4-2.8l13.8-35l-13.8-35c-0.7-1.7,0.6-2.8,2.4-2.8L520,476.8L520,476.8z"/>
		<path fill="#FFFFFF" d="M609.6,476.8c1.8,0,1.9,0.8,2.5,2.5l13.2,33.4c0.5,1.3,0.5,2.7,0,4L612,549.8c-0.6,1.7-0.8,2.5-2.5,2.5
			h-70.5c-1.8,0-3-1.1-2.4-2.8l13.8-35l-13.8-35c-0.7-1.7,0.6-2.8,2.4-2.8L609.6,476.8L609.6,476.8z"/>
		<path fill="#FFFFFF" d="M674.9,552.3h-46.2c-1.8,0-3-1.1-2.4-2.8l13.8-35l-13.8-35c-0.7-1.7,0.6-2.8,2.4-2.8h46.2v-9.8
			c0-2.8,3-3.8,5.6-0.7l36.1,44.1c2.6,3.2,2.6,5.2,0,8.4l-36.1,44.1c-2.1,2.5-5.6,1.4-5.6-0.7V552.3z"/>
	</g>
	<path fill="#144A56" d="M116.1,539.9c-1.8,0-2.5-0.8-2.5-2.5V492c0-1.8,0.8-2.5,2.5-2.5h36.2c1.8,0,2.5,0.8,2.5,2.5v8.2
		c0,1.8-0.8,2.5-2.5,2.5h-23v5.4h17.4c1.8,0,2.5,0.7,2.5,2.5v7.5c0,1.8-0.8,2.5-2.5,2.5h-17.4v6h23.1c1.8,0,2.5,0.8,2.5,2.5v8.2
		c0,1.8-0.8,2.5-2.5,2.5h-36.3C116.1,539.6,116.1,539.9,116.1,539.9z"/>
	<path fill="#144A56" d="M215.6,539.9h-10.6c-1.8,0-2.5-0.8-2.5-2.5v-7.5c0-4.3,0.8-5.6,2.6-8.6l4.6-7.6l-4.6-7.6
		c-1.8-3-2.6-4.2-2.6-8.6V492c0-1.8,0.8-2.5,2.5-2.5h10.8c1.8,0,2.5,0.8,2.5,2.5v4.8c0,1,0.1,2,0.6,3l2.5,4.4
		c0.4,0.8,0.9,1.2,1.7,1.2h0.8c0.8,0,1.2-0.3,1.7-1.2l2.5-4.4c0.6-1,0.6-1.9,0.6-3V492c0-1.8,0.8-2.5,2.5-2.5h10.6
		c1.8,0,2.5,0.8,2.5,2.5v5.4c0,4.3-0.8,5.6-2.6,8.6l-4.6,7.7l4.6,7.5c1.8,3,2.6,4.2,2.6,8.6v7.5c0,1.8-0.8,2.5-2.5,2.5h-10.6
		c-1.8,0-2.5-0.8-2.5-2.5v-7c0-1-0.1-1.9-0.6-3l-2.5-4.4c-0.5-0.9-0.9-1.2-1.7-1.2h-1c-0.8,0-1.2,0.3-1.7,1.2l-2.6,4.4
		c-0.6,1-0.6,1.9-0.6,3v7C218,539.1,217.3,539.9,215.6,539.9z"/>
	<path fill="#144A56" d="M293.8,539.9c-1.8,0-2.5-0.8-2.5-2.5V492c0-1.8,0.8-2.5,2.5-2.5H317c12.7,0,16.5,5.5,16.5,13.7v9
		c0,8.1-3.8,13.7-16.5,13.7h-9.8v11.6c0,1.8-0.8,2.5-2.5,2.5L293.8,539.9L293.8,539.9z M307,513.2h8.1c2.7,0,3.3-1.6,3.3-3.4V506
		c0-1.8-0.6-3.4-3.3-3.4H307V513.2z"/>
	<path fill="#144A56" d="M382.6,539.9c-1.8,0-2.5-0.8-2.5-2.5V492c0-1.8,0.8-2.5,2.5-2.5h22.6c10.5,0,13.8,4.7,13.8,11.7v3.2
		c0,3.9-1,6.7-3.9,8c4.2,0.6,7.8,4.2,7.8,10.2v14.8c0,1.8-0.8,2.5-2.5,2.5h-10.9c-1.8,0-2.5-0.8-2.5-2.5v-10.7c0-2.1-0.7-3-2.6-3
		H396v13.7c0,1.8-0.8,2.5-2.5,2.5L382.6,539.9L382.6,539.9L382.6,539.9z M395.9,511.1h4.5c2.5,0,3-1.4,3-3.3v-2.4
		c0-1.9-0.6-3.3-3-3.3h-4.5V511.1z"/>
	<path fill="#144A56" d="M471.6,539.9c-1.8,0-2.5-0.8-2.5-2.5V492c0-1.8,0.8-2.5,2.5-2.5h36.2c1.8,0,2.5,0.8,2.5,2.5v8.2
		c0,1.8-0.8,2.5-2.5,2.5h-23.1v5.4h17.4c1.8,0,2.5,0.7,2.5,2.5v7.5c0,1.8-0.8,2.5-2.5,2.5h-17.4v6h23.1c1.8,0,2.5,0.8,2.5,2.5v8.2
		c0,1.8-0.8,2.5-2.5,2.5h-36.2V539.9z"/>
	<path fill="#144A56" d="M560.4,539.9c-1.8,0-2.5-0.8-2.5-2.5v-8.2c0-1.8,0.8-2.5,2.5-2.5h21.8c1.2,0,1.8-0.9,1.8-2
		c0-1.6-0.6-2.2-1.8-2.4l-13.4-1.4c-6.6-1-10.9-3.8-10.9-11.6V502c0-8,5.4-12.3,14.5-12.3h23.2c1.8,0,2.5,0.8,2.5,2.5v8.3
		c0,1.8-0.8,2.5-2.5,2.5h-19.9c-1.2,0-1.9,0.8-1.9,2.1c0,1.3,0.7,2.1,1.9,2.2l13.4,1.4c6.6,1,10.9,3.8,10.9,11.6v7.4
		c0,8-5.4,12.3-14.5,12.3H560.4z"/>
	<path fill="#144A56" d="M649.2,539.9c-1.8,0-2.5-0.8-2.5-2.5v-8.2c0-1.8,0.8-2.5,2.5-2.5h21.8c1.2,0,1.8-0.9,1.8-2
		c0-1.6-0.6-2.2-1.8-2.4l-13.4-1.4c-6.6-1-10.9-3.8-10.9-11.6V502c0-8,5.4-12.3,14.5-12.3h23.2c1.8,0,2.5,0.8,2.5,2.5v8.3
		c0,1.8-0.8,2.5-2.5,2.5h-19.9c-1.2,0-1.9,0.8-1.9,2.1c0,1.3,0.7,2.1,1.9,2.2l13.4,1.4c6.6,1,10.9,3.8,10.9,11.6v7.4
		c0,8-5.4,12.3-14.5,12.3H649.2z"/>
</g>
<path fill="#DDCE43" d="M83.1,682.1c-3.4,0-5-1.5-5-5v-14.3c0-3.1,0.9-5.1,2.9-7.3l24.6-29.8H85c-3.4,0-5-1.5-5-5v-13
	c0-1.9,0.6-3.1,1.5-4l13.8-11.6c0.7-0.6,1.9-1,3.4-1h49.3c3.4,0,5,1.5,5,5v15.9c0,3.2-0.9,5.3-2.9,7.4l-23.4,28.4h23.4
	c3.4,0,5,1.5,5,5v12.7c0,1.9-0.6,3.1-1.5,4l-13.9,11.6c-0.6,0.6-1.8,1-3.3,1L83.1,682.1C83.1,682.2,83.1,682.1,83.1,682.1z"/>
<path fill="#DDCE43" d="M174.8,681.1c-0.6,0.6-1.8,1-3.3,1h-15.8c-3.4,0-5-1.5-5-5v-53c0-6.7,1.5-12.4,6.3-16.5L171,596
	c4.8-4.1,13-6.6,27.1-6.6c27.9,0,33.8,9.5,33.8,22.9v53.2c0,1.9-0.6,3.1-1.5,4l-13.9,11.6c-0.6,0.6-1.8,1-3.3,1h-16.2
	c-3.4,0-5-1.5-5-5v-14.9h-1.7v3.2c0,1.9-0.6,3.1-1.5,4L174.8,681.1z M190.2,624.8v4.2h1.7v-1C191.9,626.6,191.5,625.5,190.2,624.8z"
	/>
<path fill="#DDCE43" d="M235,682.1c-3.4,0-5-1.5-5-5v-69.4c0-1.9,0.6-3.1,1.5-4l13.8-11.7c0.7-0.6,1.9-1,3.4-1h32.8
	c20.5,0,26.3,9,26.3,21.9v13.7c0,6.9-1.7,12.6-6.4,16.6l-13.9,11.6c-3.5,3-9.1,5-17.3,5.4v5.1c0,1.9-0.6,3.1-1.5,4L254.9,681
	c-0.6,0.6-1.8,1-3.3,1L235,682.1L235,682.1L235,682.1z"/>
<path fill="#DDCE43" d="M326.6,681.1c-0.6,0.6-1.8,1-3.3,1h-15.8c-3.4,0-5-1.5-5-5v-53c0-6.7,1.5-12.4,6.3-16.5l13.9-11.6
	c4.8-4.1,13-6.6,27.1-6.6c27.9,0,33.8,9.5,33.8,22.9v53.2c0,1.9-0.6,3.1-1.5,4l-13.9,11.6c-0.6,0.6-1.8,1-3.3,1h-16.2
	c-3.4,0-5-1.5-5-5v-14.9h-1.7v3.2c0,1.9-0.6,3.1-1.5,4L326.6,681.1z M342,624.8v4.2h1.7v-1C343.7,626.6,343.3,625.5,342,624.8z"/>
<path fill="#DDCE43" d="M401,682.1c-3.4,0-5-1.5-5-5v-51.5h-14.6c-3.4,0-5-1.5-5-5v-13c0-1.9,0.6-3.1,1.5-4l13.8-11.7
	c0.7-0.6,1.9-1,3.4-1h56.6c3.4,0,5,1.5,5,5v13c0,1.9-0.6,3.1-1.5,4l-13.9,11.6c-0.6,0.6-1.8,1-3.3,1h-0.9v39.9c0,1.9-0.6,3.1-1.5,4
	l-13.9,11.6c-0.6,0.6-1.8,1-3.3,1L401,682.1L401,682.1L401,682.1z"/>
<path fill="#DDCE43" d="M476.8,682.1c-21.2,0-27.4-12.6-27.4-26.2v-30.1c0-7.3,1.8-13.4,6.7-17.4l13.8-11.7
	c4.2-3.5,10.8-5.6,20.6-5.6h27.2c3.4,0,5,1.5,5,5v12.6c0,1.9-0.6,3.1-1.5,4l-9.1,7.6c1.4,0.6,2,2,2,4.4v11.4c0,1.9-0.6,3.1-1.5,4
	l-9.5,8h14.6c3.4,0,5,1.5,5,5v12.5c0,1.9-0.6,3.1-1.5,4l-13.8,11.5c-0.6,0.6-1.8,1-3.3,1L476.8,682.1L476.8,682.1z"/>
<path fill="#DDCE43" d="M544.2,681.1c-0.6,0.6-1.8,1-3.4,1h-16.5c-3.4,0-5-1.5-5-5v-69.4c0-1.9,0.6-3.1,1.5-4l13.8-11.7
	c0.7-0.6,1.9-1,3.4-1h35.7c17,0,22.2,7.8,22.2,19v5c0,5.3-1.2,9.2-4.1,11.7h-0.1c6.7,1.9,11.1,7.6,11.1,16.1v22.7
	c0,1.9-0.6,3.1-1.5,4l-13.9,11.6c-0.6,0.6-1.8,1-3.3,1h-16.6c-3.4,0-5-1.5-5-5v-16.4c0-2.3-0.7-3.5-3-3.5h-0.1v8.2
	c0,1.9-0.6,3.1-1.5,4L544.2,681.1z"/>
<path fill="#DDCE43" d="M604.1,682.1c-3.4,0-5-1.5-5-5v-69.4c0-1.9,0.6-3.1,1.5-4l4.3-3.7l-9.3,1.3c-3.2,0.4-4.8-1.3-4.8-4.6v-10.3
	c0-1.9,0.6-3,1.4-3.8l13.8-11.7c0.6-0.6,1.8-1,3.3-1.2l34.2-4.6c3.2-0.4,4.8,1.3,4.8,4.6v10.3c0,1.8-0.6,3.1-1.5,3.8l-9.1,7.7
	c1.4,0.7,2,2.2,2,4.4v69.6c0,1.9-0.6,3.1-1.5,4l-13.9,11.6c-0.6,0.6-1.8,1-3.3,1L604.1,682.1L604.1,682.1L604.1,682.1z"/>
<path fill="#DDCE43" d="M662.2,681.1c-0.6,0.6-1.8,1-3.4,1h-15.8c-3.4,0-5-1.5-5-5v-53c0-6.7,1.5-12.4,6.3-16.5l13.9-11.6
	c4.8-4.1,13-6.6,27.1-6.6c27.9,0,33.8,9.5,33.8,22.9v53.2c0,1.9-0.6,3.1-1.5,4l-13.9,11.6c-0.6,0.6-1.8,1-3.3,1h-16.2
	c-3.4,0-5-1.5-5-5v-14.9h-1.7v3.2c0,1.9-0.6,3.1-1.5,4L662.2,681.1z M677.6,624.8v4.2h1.7v-1C679.4,626.6,678.9,625.5,677.6,624.8z"
	/>
<path fill="#AF9F25" d="M92,665.6v-14.4c0-3.1,0.9-5.1,2.9-7.3l24.6-29.8H98.8c-3.4,0-5-1.5-5-5v-13c0-3.4,1.5-5,5-5h49.3
	c3.4,0,5,1.5,5,5V612c0,3.2-0.9,5.3-2.9,7.4l-23.4,28.4h23.4c3.4,0,5,1.5,5,5v12.8c0,3.4-1.5,5-5,5H96.9C93.5,670.4,92,669,92,665.6
	z"/>
<path fill="#AF9F25" d="M164.6,665.6v-53c0-13.4,5.7-22.9,33.5-22.9c27.9,0,33.8,9.5,33.8,22.9v53c0,3.4-1.5,5-5,5h-16.3
	c-3.4,0-5-1.5-5-5v-14.9h-15.5v14.9c0,3.4-1.5,5-5,5h-15.8C166,670.4,164.6,669,164.6,665.6z M190.2,628.9h15.5v-12.7
	c0-2.6-1.8-4-7.7-4c-6,0-7.8,1.4-7.8,4L190.2,628.9L190.2,628.9z"/>
<path fill="#AF9F25" d="M244,665.6v-69.4c0-3.4,1.5-5,5-5h32.8c20.5,0,26.3,9,26.3,21.9v13.7c0,13-5.9,21.9-26.3,21.9h-11.3v16.8
	c0,3.4-1.5,5-5,5h-16.6C245.4,670.4,244,669,244,665.6z M270.2,613.4v14h8.6c3.3,0,4-2,4-4.2v-5.7c0-2.2-0.6-4.2-4-4.2H270.2z"/>
<path fill="#AF9F25" d="M316.4,665.6v-53c0-13.4,5.7-22.9,33.5-22.9c27.9,0,33.8,9.5,33.8,22.9v53c0,3.4-1.5,5-5,5h-16.2
	c-3.4,0-5-1.5-5-5v-14.9H342v14.9c0,3.4-1.5,5-5,5h-15.8C318,670.4,316.4,669,316.4,665.6z M342,628.9h15.5v-12.7c0-2.6-1.8-4-7.7-4
	c-6,0-7.8,1.4-7.8,4V628.9z"/>
<path fill="#AF9F25" d="M410,665.6V614h-14.6c-3.4,0-5-1.5-5-5v-13c0-3.4,1.5-5,5-5h56.6c3.4,0,5,1.5,5,5v13c0,3.4-1.5,5-5,5h-14.6
	v51.5c0,3.4-1.5,5-5,5h-17.4C411.4,670.4,410,669,410,665.6z"/>
<path fill="#AF9F25" d="M463.2,647.6v-33.3c0-13.6,6.2-23,27.4-23h27.2c3.4,0,5,1.5,5,5v12.6c0,3.4-1.5,5-5,5h-23.7
	c-4.5,0-5.4,1.9-5.4,4.3v1.8h20.6c3.4,0,5,1.4,5,5v11.4c0,3.4-1.5,5-5,5h-20.6v3c0,2.5,1,4.1,5.4,4.1h23.7c3.4,0,5,1.5,5,5v12.3
	c0,3.4-1.5,5-5,5h-27.2C469.5,670.4,463.2,661.1,463.2,647.6z"/>
<path fill="#AF9F25" d="M538.2,670.4c-3.4,0-5-1.5-5-5v-69.4c0-3.4,1.5-5,5-5h35.7c17,0,22.2,7.8,22.2,19v5c0,5.3-1.2,9.2-4.2,11.7
	c6.7,1.9,11.1,7.6,11.1,16.1v22.7c0,3.4-1.5,5-5,5h-16.6c-3.4,0-5-1.5-5-5v-16.4c0-2.3-0.7-3.5-3-3.5h-13.9v19.9c0,3.4-1.5,5-5,5
	L538.2,670.4L538.2,670.4L538.2,670.4z M559.6,612.7v11.6h7c3,0,3.7-1.7,3.7-4v-3.7c0-2.2-0.6-4-3.7-4L559.6,612.7L559.6,612.7z"/>
<path fill="#AF9F25" d="M604.6,585.2v-10.3c0-3.3,1.4-4.5,4.8-5l34.2-4.6c3.2-0.4,4.8,1.3,4.8,4.6v10.3c0,3.3-1.4,4.5-4.8,5
	l-34.2,4.6C606.2,590.3,604.6,588.5,604.6,585.2z M634.9,670.4h-17c-3.4,0-5-1.5-5-5v-69.4c0-3.4,1.5-5,5-5h17c3.4,0,5,1.5,5,5v69.4
	C639.9,669,638.4,670.4,634.9,670.4z"/>
<path fill="#AF9F25" d="M652,665.6v-53c0-13.4,5.7-22.9,33.5-22.9c27.9,0,33.8,9.5,33.8,22.9v53c0,3.4-1.5,5-5,5h-16.2
	c-3.4,0-5-1.5-5-5v-14.9h-15.5v14.9c0,3.4-1.5,5-5,5H657C653.6,670.4,652,669,652,665.6z M677.6,628.9h15.5v-12.7c0-2.6-1.8-4-7.7-4
	c-6,0-7.8,1.4-7.8,4V628.9L677.6,628.9z"/>
<g>
	<path fill="#FFFFFF" d="M96.9,669.6c-2.6,0-3.8-1.2-3.8-3.8v-14.3c0-2.8,0.7-4.6,2.6-6.6l26-31.6H98.8c-2.6,0-3.8-1.2-3.8-3.8v-13
		c0-2.6,1.2-3.8,3.8-3.8h49.3c2.6,0,3.8,1.2,3.8,3.8v15.9c0,2.9-0.7,4.7-2.6,6.7l-24.9,30.1H150c2.6,0,3.8,1.2,3.8,3.8v12.7
		c0,2.6-1.2,3.8-3.8,3.8L96.9,669.6L96.9,669.6z"/>
	<path fill="#FFFFFF" d="M185.2,669.6h-15.8c-2.6,0-3.8-1.2-3.8-3.8v-53c0-13,5.9-21.8,32.5-21.8c26.6,0,32.6,8.9,32.6,21.8v53
		c0,2.6-1.2,3.8-3.8,3.8h-16.3c-2.6,0-3.8-1.2-3.8-3.8v-15.9h-17.7v15.9C189.1,668.4,187.9,669.6,185.2,669.6z M189.1,630.1h17.7
		v-13.8c0-2.9-1.3-5-8.8-5c-7.6,0-8.9,2.2-8.9,5V630.1z"/>
	<path fill="#FFFFFF" d="M248.8,669.6c-2.6,0-3.8-1.2-3.8-3.8v-69.4c0-2.6,1.2-3.8,3.8-3.8h32.8c19.5,0,25.3,8.5,25.3,20.9v13.7
		c0,12.4-5.8,20.9-25.3,20.9h-12.3v17.8c0,2.6-1.2,3.8-3.8,3.8L248.8,669.6L248.8,669.6z M269.1,628.7h9.6c4.2,0,5-2.5,5-5.3v-5.7
		c0-2.8-0.9-5.3-5-5.3h-9.6V628.7z"/>
	<path fill="#FFFFFF" d="M337.1,669.6h-15.8c-2.6,0-3.8-1.2-3.8-3.8v-53c0-13,5.9-21.8,32.5-21.8c26.6,0,32.6,8.9,32.6,21.8v53
		c0,2.6-1.2,3.8-3.8,3.8h-16.2c-2.6,0-3.8-1.2-3.8-3.8v-15.9H341v15.9C340.9,668.4,339.8,669.6,337.1,669.6z M340.9,630.1h17.7
		v-13.8c0-2.9-1.3-5-8.8-5c-7.6,0-8.9,2.2-8.9,5V630.1z"/>
	<path fill="#FFFFFF" d="M414.8,669.6c-2.6,0-3.8-1.2-3.8-3.8v-52.6h-15.8c-2.6,0-3.8-1.2-3.8-3.8v-13c0-2.6,1.2-3.8,3.8-3.8h56.6
		c2.6,0,3.8,1.2,3.8,3.8v13c0,2.6-1.2,3.8-3.8,3.8H436v52.6c0,2.6-1.2,3.8-3.8,3.8H414.8z"/>
	<path fill="#FFFFFF" d="M517.9,669.6h-27.2c-20.2,0-26.3-8.9-26.3-21.8v-33.3c0-13,6.1-21.9,26.3-21.9h27.2c2.6,0,3.8,1.2,3.8,3.8
		v12.6c0,2.6-1.2,3.8-3.8,3.8h-23.7c-5.6,0-6.6,2.6-6.6,5.4v2.9h21.6c2.6,0,3.8,1,3.8,3.8v11.4c0,2.6-1.2,3.8-3.8,3.8h-21.6v4.1
		c0,3,1,5.1,6.6,5.1h23.7c2.6,0,3.8,1.2,3.8,3.8v12.6C521.7,668.4,520.5,669.6,517.9,669.6z"/>
	<path fill="#FFFFFF" d="M538.2,669.6c-2.6,0-3.8-1.2-3.8-3.8v-69.4c0-2.6,1.2-3.8,3.8-3.8h35.7c16.1,0,21.1,7.3,21.1,17.9v5
		c0,6-1.5,10.3-6,12.2c7.8,0.9,13,6.6,13,15.5v22.7c0,2.6-1.2,3.8-3.8,3.8h-16.6c-2.6,0-3.8-1.2-3.8-3.8v-16.4c0-3.2-1-4.6-4.1-4.6
		h-15v21c0,2.6-1.2,3.8-3.8,3.8L538.2,669.6L538.2,669.6L538.2,669.6z M558.6,625.4h8c3.8,0,4.7-2.2,4.7-5v-3.6c0-2.9-1-5-4.7-5h-8
		V625.4z"/>
	<path fill="#FFFFFF" d="M609.3,588.9c-2.5,0.3-3.7-1-3.7-3.5v-10.3c0-2.6,1.2-3.5,3.8-3.8l34.2-4.6c2.5-0.3,3.7,1,3.7,3.5v10.3
		c0,2.6-1.2,3.5-3.8,3.8L609.3,588.9z M617.9,669.6c-2.6,0-3.8-1.2-3.8-3.8v-69.4c0-2.6,1.2-3.8,3.8-3.8h17c2.6,0,3.8,1.2,3.8,3.8
		v69.4c0,2.6-1.2,3.8-3.8,3.8H617.9z"/>
	<path fill="#FFFFFF" d="M672.8,669.6H657c-2.6,0-3.8-1.2-3.8-3.8v-53c0-13,5.9-21.8,32.5-21.8c26.6,0,32.6,8.9,32.6,21.8v53
		c0,2.6-1.2,3.8-3.8,3.8h-16.2c-2.6,0-3.8-1.2-3.8-3.8v-15.9h-17.7v15.9C676.6,668.4,675.4,669.6,672.8,669.6z M676.6,630.1h17.7
		v-13.8c0-2.9-1.3-5-8.8-5c-7.6,0-8.9,2.2-8.9,5V630.1z"/>
</g>
<g>
	<path fill="#EEE254" d="M107.4,651.6c-1,1.3-1.5,1.9-1.5,3.3v1.5c0,2,1,2.5,2.2,2.5h36.1v1h-36.1c-2.3,0-3.3-1-3.3-3.5v-1.7
		c0-1.6,0.7-2.6,1.8-4l31.4-40.2c1-1.3,1.5-1.9,1.5-3.4v-1.5c0-2-1-2.5-2.2-2.5h-32.7v-1h32.6c2.3,0,3.3,1,3.3,3.5v1.7
		c0,1.6-0.7,2.6-1.8,4L107.4,651.6z"/>
	<path fill="#EEE254" d="M218.2,640.6h-39.8V660h-1v-44.6c0-8.6,4-14.5,20.8-14.5s21.1,5.8,21.1,14.5V660h-1L218.2,640.6
		L218.2,640.6z M178.5,639.6h39.8v-24.2c0-8-4.1-13.4-20-13.4s-19.7,5.4-19.7,13.4L178.5,639.6L178.5,639.6z"/>
	<path fill="#EEE254" d="M258,638.9V660h-1v-57.8h23.1c13.5,0,16.1,6.2,16.1,14.6v7.9c0,8.3-2.6,14.2-16.1,14.2L258,638.9L258,638.9
		z M280.1,637.8c12.6,0,15-5.4,15-13.2v-7.8c0-7.7-2.3-13.5-15-13.5H258v34.6H280.1z"/>
	<path fill="#EEE254" d="M370.1,640.6h-39.8V660h-1v-44.6c0-8.6,4-14.5,20.8-14.5s21.1,5.8,21.1,14.5V660h-1L370.1,640.6
		L370.1,640.6z M330.4,639.6h39.8v-24.2c0-8-4.1-13.4-20-13.4c-15.9,0-19.7,5.4-19.7,13.4L330.4,639.6L330.4,639.6z"/>
	<path fill="#EEE254" d="M423,603.2h-22v-1h45v1H424V660h-1L423,603.2L423,603.2z"/>
	<path fill="#EEE254" d="M512.1,660h-19.5c-13.9,0-17.1-3.8-17.1-13.8v-30c0-10.2,3.4-14,17.1-14h19.5v1h-19.5
		c-12.6,0-16.1,3.4-16.1,13v13.9h28.1v1h-28.1v15c0,9.3,3.2,12.7,16.1,12.7h19.5V660z"/>
	<path fill="#EEE254" d="M546,660v-57.8h24.4c8.3,0,12.2,5.1,12.2,12.2v7.4c0,6.6-1.3,10.8-6.4,12.4h1.2c8.8,0,13,4,13,11.4V660h-1
		v-14.3c0-7-3.8-10.5-11.9-10.5h-30.3V660H546z M547,603.2v31h23.4c8.9,0,11.1-4.4,11.1-12.3v-7.5c0-6.6-3.5-11.1-11.1-11.1
		L547,603.2L547,603.2z"/>
	<path fill="#EEE254" d="M637.5,576v1l-22.4,2.8v-1L637.5,576z M627,602.2V660h-1v-57.8H627z"/>
	<path fill="#EEE254" d="M705.7,640.6H666V660h-1v-44.6c0-8.6,4-14.5,20.8-14.5s21.1,5.8,21.1,14.5V660h-1L705.7,640.6L705.7,640.6z
		 M666,639.6h39.8v-24.2c0-8-4.1-13.4-20-13.4c-15.9,0-19.7,5.4-19.7,13.4L666,639.6L666,639.6z"/>
</g>
<g>
	<g>
		<g>
			<path fill="#432D2C" d="M122.8,15.4h11.5v123h-11.5c-3.4,0-5-1.3-5-4.1v-2.7c-10.6,0-19.2-7.2-19.2-15.9h-3.2c-3.4,0-5-1.3-5-4.1
				V42.2c0-2.9,1.5-4.1,5-4.1h3.3c0-8.8,8.6-15.9,19.2-15.9v-2.7C117.8,16.6,119.3,15.4,122.8,15.4z"/>
			<path fill="#432D2C" d="M271.3,138.3h-148V15.4h148V138.3z"/>
			<path fill="#432D2C" d="M408.4,138.3h-148V15.4h148V138.3z"/>
			<path fill="#432D2C" d="M545.4,138.3h-148V15.4h148V138.3z"/>
			<path fill="#432D2C" d="M682.4,138.3h-148V15.4h148V138.3z"/>
			<path fill="#432D2C" d="M688,19.5v2.7c10.6,0,19.2,7.2,19.2,15.9h3.3c3.4,0,5,1.3,5,4.1v69.2c0,2.9-1.5,4.1-5,4.1h-3.3
				c0,8.8-8.6,15.9-19.2,15.9v2.7c0,2.9-1.5,4.1-5,4.1h-11.5V15.4H683C686.4,15.4,688,16.6,688,19.5z"/>
		</g>
		<g>
			<path fill="#ECDFC1" d="M122.8,18.8c-0.6,0-0.8,0.2-0.8,0.7v6.2h-4.2c-8.2,0-15,5.7-15,12.6v3.4h-7.4c-0.6,0-0.8,0.2-0.8,0.7
				v69.2c0,0.5,0.2,0.7,0.8,0.7h7.4v3.4c0,6.8,6.9,12.6,15,12.6h4.1v6.2c0,0.5,0.2,0.7,0.8,0.7h11.5v1.1h-11.5
				c-1.7,0-2.2-0.5-2.2-1.8v-5h-2.8c-9,0-16.5-6.2-16.5-13.7v-2.2h-5.9c-1.7,0-2.2-0.5-2.2-1.8V42.2c0-1.4,0.6-1.8,2.2-1.8h6v-2.2
				c0-7.5,7.4-13.7,16.5-13.7h2.7v-5c0-1.4,0.6-1.8,2.2-1.8h11.5v1.1L122.8,18.8L122.8,18.8z"/>
			<path fill="#ECDFC1" d="M268.6,136H126V17.6h142.6V136z M267.2,18.8H127.4v116.1h139.8L267.2,18.8
				C267.2,18.8,267.2,18.8,267.2,18.8z"/>
			<path fill="#ECDFC1" d="M405.6,136H263.1V17.6h142.6V136z M404.3,18.8H264.4v116.1h139.8L404.3,18.8
				C404.2,18.8,404.3,18.8,404.3,18.8z"/>
			<path fill="#ECDFC1" d="M542.7,136H400.1V17.6h142.6V136z M541.3,18.8H401.5v116.1h139.8L541.3,18.8
				C541.2,18.8,541.3,18.8,541.3,18.8z"/>
			<path fill="#ECDFC1" d="M679.7,136H537.2V17.6h142.6V136z M678.4,18.8H538.5v116.1h139.8L678.4,18.8
				C678.3,18.8,678.4,18.8,678.4,18.8z"/>
			<path fill="#ECDFC1" d="M671.5,17.6H683c1.7,0,2.2,0.5,2.2,1.8v5h2.7c9,0,16.5,6.2,16.5,13.7v2.2h6c1.7,0,2.2,0.5,2.2,1.8v69.2
				c0,1.4-0.6,1.8-2.2,1.8h-6v2.2c0,7.5-7.4,13.7-16.5,13.7h-2.7v5c0,1.4-0.6,1.8-2.2,1.8h-11.5V135H683c0.6,0,0.8-0.2,0.8-0.7v-6.2
				h4.1c8.2,0,15-5.7,15-12.6v-3.4h7.4c0.6,0,0.8-0.2,0.8-0.7V42.2c0-0.5-0.2-0.7-0.8-0.7h-7.4V38c0-6.8-6.9-12.6-15-12.6h-4.1v-6.2
				c0-0.5-0.2-0.7-0.8-0.7h-11.5V17.6z"/>
		</g>
		<rect x="124.4" y="18.8" fill="#432D2C" width="557.6" height="116.1"/>
	</g>
	<g>
		<path fill="#F6ECCC" d="M148.6,110c-2.2,0-3.1-1-3.1-3.1V50.8c0-2.2,1-3.1,3.1-3.1h26.5c15.8,0,20.4,6.9,20.4,16.9v11.1
			c0,10.1-4.6,16.9-20.4,16.9h-9.9v14.4c0,2.2-1,3.1-3.1,3.1L148.6,110L148.6,110z M186.8,73.6v-6.4c0-6.7-2.1-11.8-13-11.8h-18.7
			v46.8h0.9v-17h17.8C184.8,85.2,186.8,80.4,186.8,73.6z M156,56.3h17.8c10.2,0,12.2,4.6,12.2,10.9v6.4c0,6.2-1.9,10.6-12.2,10.6
			H156V56.3z M164.9,76.9h7.8c3.4,0,4.1-2,4.1-4.2v-4.6c0-2.2-0.7-4.2-4.1-4.2h-7.8C164.9,63.9,164.9,76.9,164.9,76.9z"/>
		<path fill="#F6ECCC" d="M207.6,110c-2.2,0-3.1-1-3.1-3.1V50.8c0-2.2,1-3.1,3.1-3.1h13.4c2.2,0,3.1,1,3.1,3.1v18.8h14.5V50.8
			c0-2.2,1-3.1,3.1-3.1h13.4c2.2,0,3.1,1,3.1,3.1v56.2c0,2.2-1,3.1-3.1,3.1h-13.4c-2.2,0-3.1-1-3.1-3.1V87.7h-14.5v19.2
			c0,2.2-1,3.1-3.1,3.1L207.6,110L207.6,110z M214.8,102.2v-23H248v23h0.9V55.4H248v23h-33.3v-23h-0.9v46.8H214.8z"/>
		<path fill="#F6ECCC" d="M269.3,93.6V64.1c0-10.6,5.3-17.8,26.9-17.8c5.4,0,9.8,0.4,13.4,1.3c2.6-0.1,3.2-1,3.2-2.5v-1.8
			c0-2.1,0.6-2.7,2.6-2.7h9.6c2.2,0,3.1,1,3.1,3.1v3.8c0,4.5-1.4,8.2-5.9,10.2c0.6,2,0.9,4.1,0.9,6.3v29.5
			c0,10.6-5.2,17.7-26.9,17.7C274.6,111.3,269.3,104.2,269.3,93.6z M313.6,91.6V66.1c0-3.8-1.1-6.7-4.2-8.8
			c8.4-0.5,11.1-5.4,11.1-9.9v-0.8h-0.9v0.8c0,4.6-3.5,9.2-11.6,9.2c-2.8-1.3-6.6-2.1-12-2.1c-13.6,0-17.4,4.6-17.4,11.7v25.5
			c0,7,3.8,11.7,17.4,11.7S313.6,98.7,313.6,91.6z M296,55.2c12.9,0,16.7,4.3,16.7,10.8v25.5c0,6.5-3.8,10.8-16.7,10.8
			s-16.6-4.3-16.6-10.8V66.1C279.5,59.6,283.2,55.2,296,55.2z M290.1,45.2c-1.1,0.2-1.5-0.2-1.8-1.4l-1-6.9
			c-0.2-1.1,0.3-1.7,1.4-1.8l7.7-1.2c1.1-0.2,1.7-0.4,1.7-1.4c0-0.9-0.7-1.2-1.7-1.2h-11.2c-1.1,0-1.7-0.5-1.7-1.7v-6.3
			c0-1.1,0.5-1.7,1.7-1.7h14.6c5.9,0,9.4,3,9.4,8.8V36c0,5.1-2.7,7-7,7.5L290.1,45.2z M300.7,39c1.8-0.2,3.5-1.1,3.5-4.4v-4.3
			c0-3.4-2.2-4.2-4.3-4.2h-11.8v0.9h11.8c1.8,0,3.4,0.7,3.4,3.4v4.3c0,2.4-1.1,3.4-2.9,3.6l-8.2,1.2l0.1,0.9L300.7,39z M296.2,94.6
			c6.3,0,7.3-1.8,7.3-4.1V67.2c0-2.2-1-4-7.3-4c-6.2,0-7.3,1.8-7.3,4v23.3C289,92.8,290,94.6,296.2,94.6z"/>
		<path fill="#F6ECCC" d="M358.4,110c-2.2,0-3.1-1-3.1-3.1V87h-2c-2.2,0-3.1-0.9-3.1-3.1v-9.3c0-2.2,1-3.1,3.1-3.1h2V50.7
			c0-2.2,1-3.1,3.1-3.1h29.2c16.4,0,21.3,7.2,21.3,17.7v27c0,10.5-5,17.7-21.3,17.7H358.4z M385.7,102.2c11.9,0,13.8-5.1,13.8-11.8
			v-23c0-6.6-2.1-12-13.8-12h-21.1v23.4H358v0.9h6.6v22.4H385.7L385.7,102.2z M373.6,78.9h-8.2V56.3h20.2c10.9,0,13,4.9,13,11.2v23
			c0,6.3-1.9,10.9-13,10.9h-20.2V79.7h8.2V78.9z M385.2,93.6c3.4,0,4.1-1.9,4.1-4.2v-21c0-2.2-0.6-4.2-4.1-4.2h-10.6v7.4h3.5
			c2.2,0,3.1,0.9,3.1,3.1V84c0,2.2-1,3.1-3.1,3.1h-3.5v6.6C374.7,93.6,385.2,93.6,385.2,93.6z"/>
		<path fill="#F6ECCC" d="M434.4,110h-12.7c-2.2,0-3.1-1-3.1-3.1V84c0-3.4,1-7.8,3.4-13.8l7.5-19.7c0.7-2,2.1-2.9,4.4-2.9h23.3
			c2.2,0,3.6,0.9,4.3,2.9l7.5,19.7c2.3,6.1,3.4,10.4,3.4,13.8v22.9c0,2.2-1,3.1-3.1,3.1h-13c-2.3,0-3.4-1-3.4-3.1V94.7h-15.4v12.2
			C437.6,109.1,436.6,110,434.4,110z M430.4,41.1c-2.2-0.2-3.1-1-3.1-3.1v-8.3c0-2,1-3.1,3-2.9l30.2,3.8c2.2,0.2,3.1,1,3.1,3.1V42
			c0,2-1,3.1-3,2.9L430.4,41.1z M463.3,102.2V83.7c0-3.2-0.5-5.9-1.4-8.4l-6-14.1c-1.4-3.4-2.4-5.8-6.2-5.8h-8.5c-4,0-5,2.5-6.3,5.7
			l-5.5,14.2c-1,2.5-1.4,5.2-1.4,8.4v18.5h0.9V87.3h33.8v14.9C462.5,102.2,463.3,102.2,463.3,102.2z M430,75.7l5.5-14.2
			c1.1-3,2.1-5.2,5.5-5.2h8.5c3.2,0,4.2,2.2,5.4,5.3l6,14.1c0.9,2.3,1.4,5,1.4,8.1v2.7h-33.8v-2.7C428.7,80.6,429.2,78,430,75.7z
			 M455.9,37.5v-0.9L435.2,34v0.9L455.9,37.5z M438.4,79H452L448,65.8c-0.4-1-1-1.4-1.7-1.4h-2.2c-0.7,0-1.2,0.4-1.7,1.4L438.4,79z"
			/>
		<path fill="#F6ECCC" d="M521.9,50.8v42.6H544c2.2,0,3.1,1,3.1,3.1v10.5c0,2.2-1,3.1-3.1,3.1h-38.6c-2.2,0-3.1-1-3.1-3.1V50.8
			c0-2.2,1-3.1,3.1-3.1h13.4C520.9,47.6,521.9,48.6,521.9,50.8z M511.6,102.2h27.6v-0.9h-26.8V55.4h-0.9L511.6,102.2L511.6,102.2z"
			/>
		<path fill="#F6ECCC" d="M570,110h-12.7c-2.2,0-3.1-1-3.1-3.1V84c0-3.4,1-7.8,3.4-13.8l7.5-19.7c0.7-2,2.1-2.9,4.4-2.9h23.3
			c2.2,0,3.6,0.9,4.3,2.9l7.5,19.7c2.3,6.1,3.4,10.4,3.4,13.8v22.9c0,2.2-1,3.1-3.1,3.1h-13c-2.3,0-3.4-1-3.4-3.1V94.7H573v12.2
			C573.1,109.1,572.1,110,570,110z M598.8,102.2V83.7c0-3.2-0.5-5.9-1.4-8.4l-6-14.1c-1.4-3.4-2.4-5.8-6.2-5.8h-8.5
			c-4,0-5,2.5-6.3,5.7l-5.5,14.2c-1,2.5-1.4,5.2-1.4,8.4v18.5h0.9V87.3H598v14.9C598,102.2,598.8,102.2,598.8,102.2z M565.6,75.7
			l5.5-14.2c1.1-3,2.1-5.2,5.5-5.2h8.5c3.2,0,4.2,2.2,5.4,5.3l6,14.1c0.9,2.3,1.4,5,1.4,8.1v2.7h-33.7v-2.7
			C564.2,80.6,564.7,78,565.6,75.7z M574.2,130.8c-2.2,0-3.1-1-3.1-3.1v-11c0-2.2,1-3.1,3.1-3.1h13.7c2.2,0,3.1,1,3.1,3.1v11
			c0,2.2-1,3.1-3.1,3.1H574.2z M574,79h13.6l-4.1-13.2c-0.4-1-1-1.4-1.7-1.4h-2.2c-0.7,0-1.2,0.4-1.7,1.4L574,79z M581.5,119.6h-0.9
			v5.1h0.9V119.6z"/>
		<path fill="#F6ECCC" d="M630.6,110c-2.2,0-3.1-1-3.1-3.1V64.4h-12.7c-2.2,0-3.1-1-3.1-3.1V50.8c0-2.2,1-3.1,3.1-3.1h45.8
			c2.2,0,3.1,1,3.1,3.1v10.5c0,2.2-1,3.1-3.1,3.1h-12.7v42.6c0,2.2-1,3.1-3.1,3.1L630.6,110L630.6,110L630.6,110z M638,102.2V56.3
			h17.8v-0.9h-36.4v0.9h17.8v45.9H638z"/>
	</g>
</g>
<g>
	<path fill="#1A4249" stroke="#EF9D92" stroke-width="0.5" d="M207.5,265.3v71.3c-13.8,17.2-35.8,25.8-57.8,25.8
		c-22.3,0-44.6-8.7-58.5-25.8v-71.3c14.2-17.1,36.2-25.8,58.2-25.8S193.2,248.2,207.5,265.3z"/>
	<path fill="#1A4249" stroke="#EF9D92" stroke-width="0.5" d="M334.5,265.3v71.3c-13.8,17.2-35.8,25.8-57.8,25.8
		c-22.3,0-44.6-8.7-58.5-25.8v-71.3c14.2-17.1,36.2-25.8,58.2-25.8S320.3,248.2,334.5,265.3z"/>
	<path fill="#1A4249" stroke="#EF9D92" stroke-width="0.5" d="M461.6,265.3v71.3c-13.8,17.2-35.8,25.8-57.8,25.8
		c-22.3,0-44.6-8.7-58.5-25.8v-71.3c14.2-17.1,36.2-25.8,58.2-25.8S447.3,248.2,461.6,265.3z"/>
	<path fill="#1A4249" stroke="#EF9D92" stroke-width="0.5" d="M588.5,265.3v71.3c-13.8,17.2-35.8,25.8-57.8,25.8
		c-22.3,0-44.6-8.7-58.5-25.8v-71.3c14.2-17.1,36.2-25.8,58.2-25.8C552.4,239.6,574.4,248.2,588.5,265.3z"/>
	<path fill="#1A4249" stroke="#EF9D92" stroke-width="0.5" d="M715.6,265.3v71.3c-13.8,17.2-35.7,25.8-57.8,25.8
		c-22.3,0-44.6-8.7-58.5-25.8v-71.3c14.2-17.1,36.2-25.8,58.2-25.8S701.4,248.2,715.6,265.3z"/>
</g>
<g>
	<path fill="#102B33" d="M116.6,333.5v-9.8c0-1.5,0.4-2.4,1.2-3.1l8.4-7c-5.9-1.8-9.5-5.7-9.5-13.8v-8.8c0-5,1.7-9,4.9-11.7
		l10.9-9.1c3-2.5,7.5-3.9,13.3-3.9h27.8c2.7,0,3.8,1.2,3.8,3.8v10c0,1.5-0.4,2.4-1.2,3.1l-7.8,6.5c6.9,1.6,11.1,5.4,11.1,14.2v8.8
		c0,5-1.7,9-5,11.7l-10.8,9c-3.1,2.6-7.6,4-13.3,4h-30C117.8,337.3,116.6,336.2,116.6,333.5z"/>
	<path fill="#102B33" d="M243.2,318.1v-39c0-1.5,0.4-2.4,1.2-3.1l10.8-9.1c0.6-0.5,1.5-0.7,2.7-0.7h13.1c2.7,0,3.8,1.2,3.8,3.8v7.6
		c0.2-0.6,0.4-1.2,0.8-1.5l0.1-0.1l10.9-9.1c0.6-0.5,1.4-0.7,2.7-0.7h12.7c2.7,0,3.8,1.2,3.8,3.8v41.5c0,5.2-1.3,9.6-5.1,12.8
		l-10.8,9.1c-3.8,3.2-10.3,5.1-20.9,5.1C248.1,338.6,243.2,328.7,243.2,318.1z"/>
	<path fill="#102B33" d="M419.9,336.5c-0.5,0.5-1.4,0.8-2.6,0.8h-42.7c-2.7,0-3.8-1.2-3.8-3.8v-10c0-1.5,0.4-2.4,1.2-3.1l10.8-9.1
		c0.5-0.4,1.3-0.6,2.2-0.7v-17.4h-10.4c-2.7,0-3.8-1.2-3.8-3.8v-10.2c0-1.5,0.4-2.4,1.2-3.1l10.8-9.1c0.6-0.5,1.5-0.7,2.7-0.7h42.7
		c2.7,0,3.8,1.2,3.8,3.8v10.2c0,1.5-0.4,2.4-1.2,3.1l-10.9,9l0.1-0.1c-0.5,0.5-1.3,0.8-2.2,1v17.4h10.4c2.7,0,3.8,1.2,3.8,3.8v10
		c0,1.5-0.4,2.4-1.2,3.1L419.9,336.5z"/>
	<path fill="#102B33" d="M515.5,337.3c-2.7,0-3.8-1.2-3.8-3.8v-40.3h-11.2c-2.7,0-3.8-1.2-3.8-3.8v-10.2c0-1.5,0.4-2.4,1.2-3.1
		l10.8-9.1c0.6-0.5,1.5-0.7,2.7-0.7h44.2c2.7,0,3.8,1.2,3.8,3.8v10.2c0,1.5-0.4,2.4-1.2,3.1l-10.9,9c-0.5,0.5-1.4,0.8-2.6,0.8h-0.4
		v31.2c0,1.5-0.4,2.4-1.2,3.1l-11,9c-0.5,0.5-1.4,0.8-2.6,0.8H515.5z"/>
	<path fill="#102B33" d="M623.2,333.5v-9.8c0-1.5,0.4-2.4,1.2-3.1l8.4-7c-5.9-1.8-9.5-5.7-9.5-13.8v-8.8c0-5,1.7-9,4.9-11.7L639,270
		c3-2.5,7.5-3.9,13.3-3.9h27.8c2.7,0,3.8,1.2,3.8,3.8v10c0,1.5-0.4,2.4-1.2,3.1l-7.8,6.5c6.9,1.6,11.1,5.4,11.1,14.2v8.8
		c0,5-1.7,9-5,11.7l-10.8,9c-3.1,2.6-7.6,4-13.3,4h-30C624.4,337.3,623.2,336.2,623.2,333.5z"/>
</g>
<g>
	<path fill="#DA4226" d="M131.3,327.4c-2.1,0-3-1-3-3v-9.8c0-2.1,1-3,3-3h26.1c1.4,0,2.2-1.1,2.2-2.4c0-1.9-0.7-2.7-2.2-2.9
		l-16.1-1.8c-7.8-1.2-13-4.6-13-13.9v-8.8c0-9.5,6.5-14.7,17.4-14.7h27.8c2.1,0,3,1,3,3v10c0,2.1-1,3-3,3h-23.9
		c-1.4,0-2.2,1-2.2,2.5c0,1.4,0.8,2.5,2.2,2.7l16,1.7c7.8,1.2,13,4.6,13,13.9v8.8c0,9.5-6.6,14.7-17.4,14.7H131.3z"/>
	<path fill="#DA4226" d="M280,328.6c-20.1,0-25.1-6.9-25.1-17.1V270c0-2.1,1-3,3-3h13.1c2.1,0,3,1,3,3v38.2c0,2.2,1,3.9,6.1,3.9
		c5.2,0,6.2-1.7,6.2-3.9V270c0-2.1,0.8-3,3-3h12.7c2.1,0,3,1,3,3v41.5C305.2,321.7,300.2,328.6,280,328.6z"/>
	<path fill="#DA4226" d="M382.3,324.4v-10c0-2.1,1-3,3-3h11.2v-28.2h-11.2c-2.1,0-3-1-3-3V270c0-2.1,1-3,3-3H428c2.1,0,3,1,3,3v10.2
		c0,2.1-1,3-3,3h-11.2v28.2H428c2.1,0,3,1,3,3v10c0,2.1-1,3-3,3h-42.7C383.2,327.4,382.3,326.4,382.3,324.4z"/>
	<path fill="#DA4226" d="M526.3,327.4c-2.1,0-3-1-3-3v-41.2h-12.1c-2.1,0-3-1-3-3V270c0-2.1,1-3,3-3h44.2c2.1,0,3,1,3,3v10.2
		c0,2.1-1,3-3,3h-12v41.1c0,2.1-1,3-3,3L526.3,327.4L526.3,327.4L526.3,327.4z"/>
	<path fill="#DA4226" d="M637.9,327.4c-2.1,0-3-1-3-3v-9.8c0-2.1,1-3,3-3H664c1.4,0,2.2-1.1,2.2-2.4c0-1.9-0.7-2.7-2.2-2.9
		l-16.1-1.8c-7.8-1.2-13-4.6-13-13.9v-8.8c0-9.5,6.5-14.7,17.4-14.7h27.8c2.1,0,3,1,3,3v10c0,2.1-1,3-3,3h-23.9
		c-1.4,0-2.2,1-2.2,2.5c0,1.4,0.8,2.5,2.2,2.7l16,1.7c7.8,1.2,13,4.6,13,13.9v8.8c0,9.5-6.6,14.7-17.4,14.7H637.9z"/>
</g>
<g>
	<path fill="#EF9D92" d="M168.9,275.4h-23c-4.8,0-7.7,2.6-7.7,6.8v7.7c0,3.4,2.2,5.6,5.9,5.9l17.8,1.8c5,0.5,7.4,3.1,7.4,7.6v7
		c0,4.7-3.6,7.6-9.3,7.6h-24.4v-0.8h24.4c5.2,0,8.5-2.6,8.5-6.8v-7c0-4-2.2-6.4-6.8-6.8l-17.8-1.8c-4.1-0.4-6.6-3-6.6-6.8v-7.7
		c0-4.7,3.3-7.6,8.6-7.6h23V275.4z"/>
	<path fill="#EF9D92" d="M265,274.6v35c0,6.3,3.2,10.5,14.8,10.5c12.2,0,15.6-4.2,15.6-10.5v-35h0.8v35c0,6.8-3.6,11.3-16.4,11.3
		c-12.3,0-15.7-4.6-15.7-11.3v-35H265z"/>
	<path fill="#EF9D92" d="M389.9,319.8V319h16.4v-43.6h-16.4v-0.8h33.7v0.8h-16.4V319h16.4v0.8H389.9z"/>
	<path fill="#EF9D92" d="M532.9,275.4h-17.2v-0.8h35.2v0.8h-17.1v44.4H533L532.9,275.4L532.9,275.4z"/>
	<path fill="#EF9D92" d="M675.5,275.4h-23c-4.8,0-7.7,2.6-7.7,6.8v7.7c0,3.4,2.2,5.6,5.9,5.9l17.8,1.8c5,0.5,7.4,3.1,7.4,7.6v7
		c0,4.7-3.6,7.6-9.3,7.6h-24.4v-0.8h24.4c5.2,0,8.5-2.6,8.5-6.8v-7c0-4-2.2-6.4-6.8-6.8l-17.8-1.8c-4.1-0.4-6.6-3-6.6-6.8v-7.7
		c0-4.7,3.3-7.6,8.6-7.6h23L675.5,275.4L675.5,275.4z"/>
</g>
<g>
	<path fill="#93851F" d="M95.8,443.6c-1.8,0-2.6-0.8-2.6-2.6v-47.7c0-1.8,0.8-2.6,2.6-2.6h23.4c9.7,0,14.2,3.5,14.2,11.3v3.5
		c0,4.2-1.4,6.7-4.3,7.9c6.3,0.6,9.3,4.2,9.3,11.4v6.8c0,8.2-4.5,12.1-14.2,12.1L95.8,443.6C95.8,443.7,95.8,443.6,95.8,443.6z
		 M109.7,411.2h6.2c1.9,0,2.8-1,2.8-3v-2.1c0-2-0.9-3-2.8-3h-6.2C109.7,403.2,109.7,411.2,109.7,411.2z M109.7,431.2h9.6
		c1.9,0,2.8-1,2.8-3v-2.9c0-2-0.9-2.9-2.8-2.9h-9.6V431.2z"/>
	<path fill="#93851F" d="M176.4,444.8c-18.4,0-22.9-6-22.9-15v-25.1c0-9,4.5-15.1,22.9-15.1s22.8,6.1,22.8,15.1v25.1
		C199.2,438.7,194.8,444.8,176.4,444.8z M176.4,430.5c5.4,0,6.2-1.4,6.2-3.4v-19.8c0-1.9-0.8-3.4-6.2-3.4c-5.3,0-6.2,1.4-6.2,3.4
		v19.8C170.2,429.1,171.1,430.5,176.4,430.5z"/>
	<path fill="#93851F" d="M238.6,444.8c-18.2,0-22.7-6-22.7-15v-36.4c0-1.8,0.8-2.6,2.6-2.6H230c1.8,0,2.6,0.8,2.6,2.6v33.5
		c0,2,0.9,3.4,6,3.4c5.2,0,6.1-1.4,6.1-3.4v-33.5c0-1.8,0.7-2.6,2.6-2.6h11.2c1.8,0,2.6,0.8,2.6,2.6v36.4
		C261.3,438.7,256.8,444.8,238.6,444.8z"/>
	<path fill="#93851F" d="M281.6,443.6c-1.8,0-2.6-0.8-2.6-2.6v-47.7c0-1.8,0.8-2.6,2.6-2.6H293c1.8,0,2.6,0.8,2.6,2.6v36.4h10.1
		v-11.9c0-1.8,0.8-2.6,2.6-2.6H319c1.8,0,2.6,0.8,2.6,2.6V441c0,1.8-0.8,2.6-2.6,2.6L281.6,443.6L281.6,443.6z"/>
	<path fill="#93851F" d="M350.8,443.6H340c-1.8,0-2.6-0.8-2.6-2.6v-36.4c0-8.9,4.1-15,22.3-15c18.3,0,22.5,6.1,22.5,15V441
		c0,1.8-0.8,2.6-2.6,2.6h-11.2c-1.8,0-2.6-0.8-2.6-2.6v-11h-12.2v11C353.5,442.8,352.7,443.6,350.8,443.6z M353.5,416.6h12.2v-9.5
		c0-2-0.9-3.4-6-3.4c-5.2,0-6.1,1.4-6.1,3.4L353.5,416.6L353.5,416.6z"/>
	<path fill="#93851F" d="M422,389.6c18.2,0,22.7,6,22.7,15V441c0,1.8-0.8,2.6-2.6,2.6h-11.5c-1.8,0-2.6-0.8-2.6-2.6v-33.5
		c0-2-0.9-3.4-6-3.4c-5.2,0-6.1,1.4-6.1,3.4V441c0,1.8-0.7,2.6-2.6,2.6H402c-1.8,0-2.6-0.8-2.6-2.6v-36.4
		C399.3,395.6,403.8,389.6,422,389.6z"/>
	<path fill="#93851F" d="M479.6,443.6c-12.4,0-18.1-4.8-18.1-15v-23c0-10.2,5.8-15,18.1-15H498c1.8,0,2.6,0.8,2.6,2.6v8.9
		c0,1.8-0.8,2.6-2.6,2.6h-15.3c-3.1,0-4.5,1.2-4.5,3.7V426c0,2.5,1.1,3.6,3.4,3.6h7.1v-11.5c0-1.8,0.8-2.6,2.6-2.6h11.4
		c1.8,0,2.6,0.8,2.6,2.6v22.7c0,1.8-0.8,2.6-2.6,2.6h-23.2L479.6,443.6L479.6,443.6z"/>
	<path fill="#93851F" d="M558.1,443.6h-18.7c-13.9,0-18.1-6.1-18.1-15v-22.9c0-9,4.2-15.1,18.1-15.1h18.7c1.8,0,2.6,0.8,2.6,2.6v8.6
		c0,1.8-0.8,2.6-2.6,2.6h-16.2c-3.8,0-4.5,1.8-4.5,3.7v2h14.8c1.8,0,2.6,0.7,2.6,2.6v7.8c0,1.8-0.8,2.6-2.6,2.6h-14.9v2.8
		c0,2.1,0.6,3.5,4.5,3.5H558c1.8,0,2.6,0.8,2.6,2.6v8.6C560.8,442.8,560,443.6,558.1,443.6z"/>
	<path fill="#93851F" d="M579.8,443.6c-1.8,0-2.6-0.8-2.6-2.6v-47.7c0-1.8,0.8-2.6,2.6-2.6h24.5c11,0,14.5,5,14.5,12.3v3.4
		c0,4.2-1,7-4.2,8.4c5.4,0.6,8.9,4.5,8.9,10.6V441c0,1.8-0.8,2.6-2.6,2.6h-11.4c-1.8,0-2.6-0.8-2.6-2.6v-11.3c0-2.2-0.7-3.2-2.8-3.2
		h-10.2v14.4c0,1.8-0.8,2.6-2.6,2.6L579.8,443.6L579.8,443.6L579.8,443.6z M593.8,413.3h5.5c2.6,0,3.2-1.4,3.2-3.4v-2.5
		c0-2-0.6-3.4-3.2-3.4h-5.5V413.3z"/>
	<path fill="#93851F" d="M642.3,443.6c-1.8,0-2.6-0.8-2.6-2.6v-47.7c0-1.8,0.8-2.6,2.6-2.6H654c1.8,0,2.6,0.8,2.6,2.6V441
		c0,1.8-0.8,2.6-2.6,2.6H642.3z"/>
	<path fill="#93851F" d="M710.6,443.6h-18.7c-13.9,0-18.1-6.1-18.1-15v-22.9c0-9,4.2-15.1,18.1-15.1h18.7c1.8,0,2.6,0.8,2.6,2.6v8.6
		c0,1.8-0.8,2.6-2.6,2.6h-16.2c-3.8,0-4.5,1.8-4.5,3.7v2h14.9c1.8,0,2.6,0.7,2.6,2.6v7.8c0,1.8-0.8,2.6-2.6,2.6h-14.9v2.8
		c0,2.1,0.6,3.5,4.5,3.5h16.2c1.8,0,2.6,0.8,2.6,2.6v8.6C713.2,442.8,712.4,443.6,710.6,443.6z"/>
</g>
<g>
	<path fill="#1A4249" d="M103.9,214.4c-0.4,0.4-1,0.6-1.9,0.6h-9.6c-2,0-2.9-0.9-2.9-2.9v-40.4c0-1.1,0.3-1.8,0.9-2.3l8-6.8
		c0.4-0.4,1.1-0.6,2-0.6h20.7c9.9,0,12.9,4.6,12.9,11v2.9c0,3-0.7,5.4-2.4,6.8h-0.1c3.9,1.1,6.5,4.4,6.5,9.4v13.2
		c0,1.1-0.3,1.8-0.9,2.3l-8,6.7c-0.4,0.4-1,0.6-1.9,0.6h-9.7c-2,0-2.9-0.9-2.9-2.9v-9.5c0-1.4-0.4-2.1-1.8-2.1h-0.1v4.8
		c0,1.1-0.3,1.8-0.9,2.3L103.9,214.4z M112.2,205.3v-12.2h8.7c1.8,0,2.4,0.8,2.4,2.6v9.5c0,1.5,0.7,2.2,2.2,2.2h9.7
		c1.5,0,2.2-0.7,2.2-2.2V192c0-5.2-3-8.6-7.5-9c2.6-1.1,3.5-3.6,3.5-7.1V173c0-6.2-3-10.4-12.2-10.4h-20.9c-1.5,0-2.2,0.7-2.2,2.2
		v40.4c0,1.5,0.7,2.2,2.2,2.2h9.6C111.5,207.6,112.2,206.9,112.2,205.3z M104.8,202v-33.7h14.2c4.9,0,7.1,3,7.1,7.1v4.3
		c0,3.8-0.7,6.3-3.8,7.2h0.7c5.1,0,7.5,2.3,7.5,6.6v8.3H130v-8.3c0-4.1-2.2-6.1-6.9-6.1h-17.6V202H104.8z M105.5,168.9v18h13.6
		c5.2,0,6.5-2.6,6.5-7.2v-4.4c0-3.8-2.1-6.5-6.5-6.5L105.5,168.9L105.5,168.9z M116.8,174c2.2,0,2.7,1.3,2.7,3v2.1
		c0,1.7-0.6,3-2.7,3h-4.6v-8H116.8z"/>
	<path fill="#1A4249" d="M161,216c-16.3,0-20-7.4-20-15.2v-19.4c0-3.8,1-7.2,3.8-9.5l8.1-6.7c3-2.5,7.8-3.9,16.2-3.9
		c16.3,0,19.9,5.5,19.9,13.4v21.3c0,3.8-1,7.1-3.8,9.4l-8,6.7C174.3,214.5,169.2,216,161,216z M188.4,174.5
		c0-7.6-3.8-12.8-19.3-12.8s-19.4,5.2-19.4,12.8v21.3c0,7.6,3.8,12.7,19.4,12.7s19.3-5.1,19.3-12.7V174.5z M168.9,202.8
		c-9.8,0-12.6-3.4-12.6-8.4V176c0-5,2.7-8.4,12.6-8.4c9.8,0,12.6,3.4,12.6,8.4v18.4C181.6,199.4,178.7,202.8,168.9,202.8z
		 M168.9,202.1c9.3,0,12-3.1,12-7.8V176c0-4.6-2.7-7.8-12-7.8c-9.3,0-11.9,3.1-11.9,7.8v18.4C157,199.1,159.6,202.1,168.9,202.1z
		 M163.8,176.8c0-1.6,0.7-2.9,5.2-2.9c4.6,0,5.2,1.3,5.2,2.9v16.8c0,1.7-0.7,3-5.2,3c-4.5,0-5.2-1.3-5.2-3V176.8z M165.6,195.4
		v-11.8c0-0.8-0.2-1.4-1.2-1.8v11.8C164.4,194.4,164.7,195,165.6,195.4z"/>
	<path fill="#1A4249" d="M192.7,212.1v-7.3c0-1.1,0.3-1.8,0.9-2.3l6.2-5.2c-4.4-1.4-7.1-4.2-7.1-10.3v-6.6c0-3.8,1.3-6.6,3.6-8.6
		l8.1-6.8c2.2-1.8,5.6-3,9.8-3h17.4c2,0,2.9,0.9,2.9,2.9v7.4c0,1.1-0.3,1.8-0.9,2.3l-5.6,4.6c5.3,1.2,8.7,4,8.7,10.7v6.6
		c0,3.8-1.3,6.6-3.7,8.6l-8,6.7c-2.3,1.9-5.7,3-9.8,3h-19.7C193.6,215,192.7,214.1,192.7,212.1z M236.2,196.6V190
		c0-7-3.8-9.4-9.7-10.3l-9.3-1.3c-1-0.2-1.7-0.9-1.7-2s0.6-1.8,1.7-1.8h14.5c1.5,0,2.2-0.7,2.2-2.2v-7.4c0-1.5-0.7-2.2-2.2-2.2
		h-17.4c-8.1,0-12.9,3.8-12.9,11v6.6c0,7,3.8,9.4,9.7,10.3l9.4,1.3c1,0.2,1.6,0.7,1.6,2.1c0,1-0.6,1.8-1.6,1.8h-16.8
		c-1.5,0-2.2,0.7-2.2,2.2v7.3c0,1.5,0.7,2.2,2.2,2.2h19.7C231.3,207.6,236.2,203.7,236.2,196.6z M228.3,168.9h-13.8
		c-3.5,0-5.8,2.1-5.8,5v5.1c0,3,1.3,3.8,3.2,4.2l13.1,2.6c2.5,0.5,4.3,1.8,4.3,6.1v3.6c0,3.7-2.6,6.3-6.9,6.3h-15.5v-0.6h15.5
		c3.8,0,6.3-2.4,6.3-5.7V192c0-3.9-1.5-5-3.8-5.5l-13.1-2.6c-2.2-0.4-3.7-1.4-3.7-4.8v-5.1c0-3.3,2.5-5.7,6.3-5.7h13.8L228.3,168.9
		L228.3,168.9z"/>
	<path fill="#1A4249" d="M254.2,214.4c-0.4,0.4-1,0.6-1.9,0.6h-9.1c-2,0-2.9-0.9-2.9-2.9v-30.9c0-3.9,0.9-7.2,3.7-9.6l8.1-6.7
		c2.8-2.4,7.6-3.8,15.8-3.8c16.2,0,19.6,5.5,19.6,13.4v30.9c0,1.1-0.3,1.8-0.9,2.3l-8.1,6.7c-0.4,0.4-1,0.6-1.9,0.6h-9.4
		c-2,0-2.9-0.9-2.9-2.9v-8.6h-1v1.8c0,1.1-0.3,1.8-0.9,2.3L254.2,214.4z M262.5,196h10.3v9.3c0,1.5,0.7,2.2,2.2,2.2h9.4
		c1.5,0,2.2-0.7,2.2-2.2v-30.9c0-7.5-3.5-12.7-19-12.7c-15.4,0-18.9,5.2-18.9,12.7v30.9c0,1.5,0.7,2.2,2.2,2.2h9.1
		c1.5,0,2.2-0.7,2.2-2.2L262.5,196L262.5,196L262.5,196z M279.5,190.7h-23.1V202h-0.6v-26c0-5,2.3-8.4,12.1-8.4
		c9.8,0,12.2,3.4,12.2,8.4v26h-0.6L279.5,190.7L279.5,190.7z M256.4,190h23.1V176c0-4.6-2.4-7.8-11.7-7.8c-9.3,0-11.4,3.1-11.4,7.8
		V190z M267.7,173.7c4.4,0,5.1,1.3,5.1,3v8h-10.3v-8C262.5,174.9,263.2,173.7,267.7,173.7z M263.2,181.6v2.4h1v-0.6
		C264.1,182.7,263.9,182,263.2,181.6z"/>
	<path fill="#1A4249" d="M292.4,184.7v-1.8c0-0.9,0.2-1.4,0.7-1.8l1.3-1.1H294c-1.5,0-2.2-0.7-2.2-2.2v-6.5c0-0.9,0.2-1.4,0.7-1.8
		l8-6.8c0.4-0.4,1-0.4,1.5-0.4h9.1c1.5,0,2.2,0.7,2.2,2.2v8.4c0,2.6-0.9,4.6-2.4,5.8l-8,6.8c-1.2,1-3,1.5-5,1.5h-3.4
		C293.1,186.9,292.4,186.3,292.4,184.7z M312.7,172.8v-8.4c0-1.1-0.5-1.6-1.6-1.6H302c-1.1,0-1.5,0.5-1.5,1.6v6.6
		c0,1.1,0.4,1.6,1.5,1.6h5v0.7c0,0.8-0.4,1.3-1.3,1.3h-3c-1.1,0-1.6,0.5-1.6,1.6v1.8c0,1.2,0.5,1.6,1.6,1.6h3.4
		C310,179.6,312.7,177.4,312.7,172.8z M309.6,167.3v5.4c0,2.4-1,4.6-3.5,4.6h-2.6v-0.6h2.6c2.1,0,2.9-1.9,2.9-4V168h-5.5v-0.6H309.6
		z"/>
	<path fill="#1A4249" d="M316.2,212.1v-7.3c0-1.1,0.3-1.8,0.9-2.3l6.2-5.2c-4.4-1.4-7.1-4.2-7.1-10.3v-6.6c0-3.8,1.3-6.6,3.6-8.6
		l8.1-6.8c2.2-1.8,5.6-3,9.8-3h17.4c2,0,2.9,0.9,2.9,2.9v7.4c0,1.1-0.3,1.8-0.9,2.3l-5.6,4.6c5.3,1.2,8.7,4,8.7,10.7v6.6
		c0,3.8-1.3,6.6-3.7,8.6l-8,6.7c-2.3,1.9-5.7,3-9.8,3h-19.7C317.1,215,316.2,214.1,316.2,212.1z M359.7,196.6V190
		c0-7-3.8-9.4-9.7-10.3l-9.3-1.3c-1-0.2-1.7-0.9-1.7-2s0.6-1.8,1.7-1.8h14.5c1.5,0,2.2-0.7,2.2-2.2v-7.4c0-1.5-0.7-2.2-2.2-2.2
		h-17.4c-8.1,0-12.9,3.8-12.9,11v6.6c0,7,3.8,9.4,9.7,10.3l9.4,1.3c1,0.2,1.6,0.7,1.6,2.1c0,1-0.6,1.8-1.6,1.8h-16.8
		c-1.5,0-2.2,0.7-2.2,2.2v7.3c0,1.5,0.7,2.2,2.2,2.2h19.7C354.8,207.6,359.7,203.7,359.7,196.6z M351.9,168.9H338
		c-3.5,0-5.8,2.1-5.8,5v5.1c0,3,1.3,3.8,3.2,4.2l13.1,2.6c2.5,0.5,4.3,1.8,4.3,6.1v3.6c0,3.7-2.6,6.3-6.9,6.3h-15.5v-0.6H346
		c3.8,0,6.3-2.4,6.3-5.7V192c0-3.9-1.5-5-3.8-5.5l-13.1-2.6c-2.2-0.4-3.7-1.4-3.7-4.8v-5.1c0-3.3,2.5-5.7,6.3-5.7h13.8L351.9,168.9
		L351.9,168.9z"/>
	<path fill="#1A4249" d="M387.2,215c-2,0-2.9-0.9-2.9-2.9v-40.4c0-1.1,0.3-1.8,0.9-2.3l8-6.8c0.4-0.4,1.1-0.6,2-0.6h9.7
		c2,0,2.9,0.9,2.9,2.9v25.4l0.2-0.2l8-6.8c0.4-0.4,1.1-0.6,2-0.6h9c2,0,2.9,0.9,2.9,2.9v19.6c0,1.1-0.3,1.8-0.9,2.3l-8.1,6.7
		c-0.4,0.4-1,0.6-1.9,0.6L387.2,215L387.2,215z M429.2,205.3v-19.6c0-1.5-0.7-2.2-2.2-2.2h-9c-1.5,0-2.2,0.7-2.2,2.2v10.1h-8.6
		v-30.9c0-1.5-0.7-2.2-2.2-2.2h-9.7c-1.5,0-2.2,0.7-2.2,2.2v40.4c0,1.5,0.7,2.2,2.2,2.2h31.7C428.5,207.6,429.2,206.9,429.2,205.3z
		 M399.8,168.4h0.6v33h21.7v-12.2h0.6V202h-23V168.4L399.8,168.4z"/>
	<path fill="#1A4249" d="M436.8,215c-2,0-2.9-0.9-2.9-2.9v-40.4c0-1.1,0.3-1.8,0.9-2.3l8-6.8c0.4-0.4,1.1-0.6,2-0.6h9.9
		c2,0,2.9,0.9,2.9,2.9v40.4c0,1.1-0.3,1.8-0.9,2.3l-8.1,6.7c-0.4,0.4-1,0.6-1.9,0.6L436.8,215L436.8,215z M456.9,205.3v-40.4
		c0-1.5-0.7-2.2-2.2-2.2h-9.9c-1.5,0-2.2,0.7-2.2,2.2v40.4c0,1.5,0.7,2.2,2.2,2.2h9.9C456.3,207.6,456.9,206.9,456.9,205.3z
		 M450.1,168.4V202h-0.6v-33.7L450.1,168.4L450.1,168.4z"/>
	<path fill="#1A4249" d="M477.6,220.6c-2,0-2.9-0.9-2.9-2.9v-2.9c-9.7-1.6-12.2-8.2-12.2-14.7v-18.8c0-3.8,1-7.2,3.8-9.5l8.1-6.7
		c3-2.5,7.8-3.9,16.2-3.9c16.3,0,19.9,5.5,19.9,13.4v20.7c0,3.8-1,7.1-3.8,9.4l-8,6.7c-0.2,0.2-0.4,0.4-0.7,0.5
		c-0.2,0.6-0.4,1-0.7,1.3l-8.1,6.7c-0.4,0.4-1,0.6-1.9,0.6L477.6,220.6L477.6,220.6z M497.5,210.9v-3.4c9.8-1.4,12.3-6,12.3-12.2
		v-20.7c0-7.6-3.8-12.8-19.3-12.8c-15.6,0-19.4,5.2-19.4,12.8v20.7c0,6.3,2.6,10.9,12.2,12.2v3.4c0,1.5,0.7,2.2,2.2,2.2h9.6
		C496.8,213.2,497.5,212.5,497.5,210.9z M490.1,202.8c-9.5-0.1-12.2-3.4-12.2-8.4V176c0-5,2.7-8.4,12.6-8.4s12.6,3.4,12.6,8.4v18.4
		c0,5-2.8,8.3-12.3,8.4v4.8h-0.6V202.8z M490.4,202.1c9.3,0,12-3.1,12-7.8V176c0-4.6-2.7-7.8-12-7.8c-9.3,0-11.9,3.1-11.9,7.8v18.4
		C478.5,199.1,481.2,202.1,490.4,202.1z M485.3,176.8c0-1.6,0.7-2.9,5.2-2.9c4.6,0,5.2,1.3,5.2,2.9v17c0,1.7-0.7,3-5.2,3
		s-5.2-1.3-5.2-3V176.8z M487.1,195.7v-12.1c0-0.8-0.2-1.4-1.2-1.8v12C486,194.7,486.2,195.3,487.1,195.7z"/>
	<path fill="#1A4249" d="M515,200.8v-29c0-1.1,0.3-1.8,0.9-2.3l8-6.8c0.4-0.4,1.1-0.6,2-0.6h9.8c2,0,2.9,0.9,2.9,2.9v28.4
		c0,0.7,0.2,1.4,1,1.8v-23.4c0-1.1,0.2-1.8,0.7-2.2l0.1-0.1l8.1-6.8c0.4-0.4,1-0.6,2-0.6h9.4c2,0,2.9,0.9,2.9,2.9v30.9
		c0,3.8-1,7.1-3.8,9.4l-8.1,6.7c-3,2.5-7.8,3.9-16.1,3.9C518.7,216,515,208.6,515,200.8z M562.2,165c0-1.5-0.7-2.2-2.2-2.2h-9.4
		c-1.6,0-2.2,0.7-2.2,2.2v28.4c0,1.7-0.7,3-5.2,3c-4.4,0-5.1-1.3-5.1-3V165c0-1.5-0.7-2.2-2.2-2.2H526c-1.5,0-2.2,0.7-2.2,2.2v30.9
		c0,7.6,3.8,12.7,19.3,12.7s19.3-5.1,19.3-12.7L562.2,165L562.2,165z M531.2,168.4v26c0,4.6,2.6,7.8,11.8,7.8s11.9-3.1,11.9-7.8v-26
		h0.6v26c0,5-2.7,8.4-12.6,8.4s-12.5-3.4-12.5-8.4v-26H531.2z"/>
	<path fill="#1A4249" d="M587.3,216c-16.3,0-20-7.4-20-15.2v-19.4c0-3.8,1-7.2,3.8-9.5l8.1-6.7c3-2.5,7.8-3.9,16.2-3.9
		c16.3,0,19.9,5.5,19.9,13.4v21.3c0,3.8-1,7.1-3.8,9.4l-8,6.7C600.6,214.5,595.6,216,587.3,216z M614.7,174.5
		c0-7.6-3.8-12.8-19.3-12.8c-15.5,0-19.4,5.2-19.4,12.8v21.3c0,7.6,3.8,12.7,19.4,12.7s19.3-5.1,19.3-12.7V174.5z M595.2,202.8
		c-9.8,0-12.6-3.4-12.6-8.4V176c0-5,2.7-8.4,12.6-8.4c9.8,0,12.6,3.4,12.6,8.4v18.4C607.9,199.4,605.1,202.8,595.2,202.8z
		 M595.2,202.1c9.3,0,12-3.1,12-7.8V176c0-4.6-2.7-7.8-12-7.8s-11.9,3.1-11.9,7.8v18.4C583.4,199.1,586,202.1,595.2,202.1z
		 M590.1,176.8c0-1.6,0.7-2.9,5.2-2.9c4.6,0,5.2,1.3,5.2,2.9v16.8c0,1.7-0.7,3-5.2,3s-5.2-1.3-5.2-3V176.8z M592,195.4v-11.8
		c0-0.8-0.2-1.4-1.2-1.8v11.8C590.8,194.4,591,195,592,195.4z"/>
	<path fill="#1A4249" d="M634.6,214.4c-0.4,0.4-1,0.6-1.9,0.6h-9.6c-2,0-2.9-0.9-2.9-2.9v-40.4c0-1.1,0.3-1.8,0.9-2.3l8-6.8
		c0.4-0.4,1.1-0.6,2-0.6h20.7c9.9,0,12.9,4.6,12.9,11v2.9c0,3-0.7,5.4-2.4,6.8h-0.1c3.9,1.1,6.5,4.4,6.5,9.4v13.2
		c0,1.1-0.3,1.8-0.9,2.3l-8.1,6.7c-0.4,0.4-1,0.6-1.9,0.6h-9.6c-2,0-2.9-0.9-2.9-2.9v-9.5c0-1.4-0.4-2.1-1.8-2.1h-0.1v4.8
		c0,1.1-0.3,1.8-0.9,2.3L634.6,214.4z M642.9,205.3v-12.2h8.7c1.8,0,2.4,0.8,2.4,2.6v9.5c0,1.5,0.7,2.2,2.2,2.2h9.7
		c1.5,0,2.2-0.7,2.2-2.2V192c0-5.2-3-8.6-7.5-9c2.6-1.1,3.5-3.6,3.5-7.1V173c0-6.2-3-10.4-12.2-10.4h-20.7c-1.5,0-2.2,0.7-2.2,2.2
		v40.4c0,1.5,0.7,2.2,2.2,2.2h9.6C642.2,207.6,642.9,206.9,642.9,205.3z M635.6,202v-33.7h14.2c4.9,0,7.1,3,7.1,7.1v4.3
		c0,3.8-0.7,6.3-3.8,7.2h0.7c5.1,0,7.5,2.3,7.5,6.6v8.3h-0.6v-8.3c0-4.1-2.2-6.1-6.9-6.1h-17.6V202H635.6z M636.2,168.9v18h13.6
		c5.2,0,6.5-2.6,6.5-7.2v-4.4c0-3.8-2.1-6.5-6.5-6.5L636.2,168.9L636.2,168.9z M647.6,174c2.2,0,2.7,1.3,2.7,3v2.1
		c0,1.7-0.6,3-2.7,3h-4.6v-8H647.6z"/>
	<path fill="#1A4249" d="M671.6,212.1v-7.3c0-1.1,0.3-1.8,0.9-2.3l6.2-5.2c-4.4-1.4-7.1-4.2-7.1-10.3v-6.6c0-3.8,1.3-6.6,3.6-8.6
		l8.1-6.8c2.2-1.8,5.6-3,9.8-3h17.5c2,0,2.9,0.9,2.9,2.9v7.4c0,1.1-0.3,1.8-0.9,2.3l-5.6,4.6c5.3,1.2,8.7,4,8.7,10.7v6.6
		c0,3.8-1.3,6.6-3.7,8.6l-8,6.7c-2.3,1.9-5.7,3-9.8,3h-19.7C672.4,215,671.6,214.1,671.6,212.1z M715.1,196.6V190
		c0-7-3.8-9.4-9.7-10.3l-9.3-1.3c-1-0.2-1.7-0.9-1.7-2s0.6-1.8,1.7-1.8h14.5c1.5,0,2.2-0.7,2.2-2.2v-7.4c0-1.5-0.7-2.2-2.2-2.2
		h-17.4c-8.1,0-12.9,3.8-12.9,11v6.6c0,7,3.8,9.4,9.7,10.3l9.4,1.3c1,0.2,1.6,0.7,1.6,2.1c0,1-0.6,1.8-1.6,1.8h-16.7
		c-1.5,0-2.2,0.7-2.2,2.2v7.3c0,1.5,0.7,2.2,2.2,2.2h19.7C710.2,207.6,715.1,203.7,715.1,196.6z M707.2,168.9h-13.8
		c-3.5,0-5.8,2.1-5.8,5v5.1c0,3,1.3,3.8,3.2,4.2l13.1,2.6c2.5,0.5,4.3,1.8,4.3,6.1v3.6c0,3.7-2.6,6.3-6.9,6.3h-15.5v-0.6h15.5
		c3.8,0,6.3-2.4,6.3-5.7V192c0-3.9-1.5-5-3.8-5.5l-13.1-2.6c-2.2-0.4-3.7-1.4-3.7-4.8v-5.1c0-3.3,2.5-5.7,6.3-5.7h13.8L707.2,168.9
		L707.2,168.9z"/>
</g>
<path fill="#DC4227" stroke="#FFFFFF" d="M721.2,744.9c1-1.1,1-2.9,0-4L709.6,727c-0.5-0.6-0.6-1.5-0.3-2.2l8.4-21.4
	c0.5-1-0.4-2.2-1.4-2.1l-12.6,1.4c-2.4,0.3-2.8,0.3-4.3,0.3h-3.8h-67.9h-5.9h-67.8h-5.9H480H474h-67.9h-5.9h-67.9h-5.9h-67.8h-5.9
	h-67.9h-5.9H111h-3.8c-1.4,0-1.9,0-4.3-0.3l-12.6-1.4c-1.1-0.2-1.9,1-1.4,2.1l8.4,21.4c0.3,0.6,0.2,1.6-0.3,2.2l-11.6,13.9
	c-1,1.1-1,2.9,0,4l11.6,13.9c0.5,0.6,0.6,1.5,0.3,2.2l-8.4,21.4c-0.5,1,0.4,2.2,1.4,2.1l12.6-1.4c2.4-0.3,2.8-0.3,4.3-0.3h3.8h67.9
	h5.9h67.9h5.9h67.9h5.9h67.9h5.9h67.9h5.9h67.9h5.9H622h5.9h67.9h3.8c1.4,0,1.9,0,4.3,0.3l12.6,1.4c1.1,0.2,1.9-1,1.4-2.1l-8.4-21.4
	c-0.4-0.6-0.2-1.6,0.3-2.2L721.2,744.9z"/>
<g>
	<path fill="#FFFFFF" d="M131.4,768.4v-49.8h21c7.2,0,10.5,4.4,10.5,10.5v6.4c0,5.6-1.1,9.3-5.5,10.7h1c7.5,0,11.1,3.4,11.1,9.8
		v12.3h-1V756c0-6.1-3.2-9-10.2-9h-26v21.4L131.4,768.4L131.4,768.4z M132.4,719.5v26.6h20.1c7.7,0,9.6-3.8,9.6-10.6V729
		c0-5.7-3-9.6-9.6-9.6L132.4,719.5L132.4,719.5z"/>
	<path fill="#FFFFFF" d="M230.2,751.6H196v16.7h-1v-38.5c0-7.4,3.4-12.5,17.9-12.5c14.5,0,18.2,5,18.2,12.5v38.5h-1L230.2,751.6
		L230.2,751.6z M196,750.7h34.2v-20.8c0-6.9-3.5-11.5-17.2-11.5s-17,4.6-17,11.5L196,750.7L196,750.7z"/>
	<path fill="#FFFFFF" d="M274.4,768.4v-18.6c-14.1-0.1-18-5-18-12.5v-18.7h1v18.7c0,6.9,3.8,11.5,17.5,11.5
		c13.8,0,17.6-4.6,17.6-11.5v-18.7h1v18.7c0,7.4-4.1,12.5-18.1,12.5v18.6H274.4z"/>
	<path fill="#FFFFFF" d="M312.4,717.1h9v7.9c0,3.6-1.6,6.8-5.2,6.8h-3.8v-1h3.8c3,0,4.2-2.9,4.2-5.9v-7h-8.1L312.4,717.1
		L312.4,717.1z"/>
	<path fill="#FFFFFF" d="M370.1,719.5h-20.5c-5.2,0-8.5,3.1-8.5,7.4v7.5c0,4.3,1.8,5.6,4.7,6.2l19.4,4c3.7,0.7,6.4,2.6,6.4,9v5.4
		c0,5.4-4,9.3-10.2,9.3h-23v-1h23c5.7,0,9.3-3.5,9.3-8.4v-5.4c0-5.8-2.2-7.4-5.6-8.1l-19.4-4c-3.2-0.6-5.4-2-5.4-7.1v-7.5
		c0-4.9,3.7-8.4,9.4-8.4h20.5L370.1,719.5L370.1,719.5L370.1,719.5z"/>
	<path fill="#FFFFFF" d="M418,718.5h22.3c12.6,0,14.7,5.7,14.7,12.8v24.4c0,7.1-2,12.6-14.7,12.6H418V718.5z M418.9,719.5v47.9h21.4
		c11.8,0,13.8-4.9,13.8-11.6v-24.4c0-6.7-2.2-11.9-13.8-11.9H418.9z"/>
	<path fill="#FFFFFF" d="M483.3,718.5v49.8h-1v-49.8H483.3z"/>
	<path fill="#FFFFFF" d="M547.2,768.4v-38.5c0-6.9-3.8-11.5-17.5-11.5S512,723,512,729.9v38.5h-1v-38.5c0-7.4,4.1-12.5,18.6-12.5
		c14.5,0,18.4,5,18.4,12.5v38.5H547.2z"/>
	<path fill="#FFFFFF" d="M606,768.4h-16.8c-12,0-14.7-3.3-14.7-11.9v-25.8c0-8.7,3-12.1,14.7-12.1H606v1h-16.8
		c-10.9,0-13.8,3-13.8,11.1v12h24.2v1h-24.2v12.9c0,8,2.8,11,13.8,11H606V768.4z"/>
	<path fill="#FFFFFF" d="M630.4,768.4v-49.8h21c7.2,0,10.5,4.4,10.5,10.5v6.4c0,5.6-1.1,9.3-5.5,10.7h1c7.5,0,11.1,3.4,11.1,9.8
		v12.3h-1V756c0-6.1-3.2-9-10.2-9h-26v21.4L630.4,768.4L630.4,768.4L630.4,768.4z M631.4,719.5v26.6h20.1c7.7,0,9.6-3.8,9.6-10.6
		V729c0-5.7-3-9.6-9.6-9.6L631.4,719.5L631.4,719.5z"/>
</g>
</svg>
