<?xml version="1.0" encoding="utf-8"?>
<!-- Generator: Adobe Illustrator 17.1.0, SVG Export Plug-In . SVG Version: 6.00 Build 0)  -->
<!DOCTYPE svg PUBLIC "-//W3C//DTD SVG 1.1//EN" "http://www.w3.org/Graphics/SVG/1.1/DTD/svg11.dtd">
<svg version="1.1" id="Layer_1" xmlns="http://www.w3.org/2000/svg" xmlns:xlink="http://www.w3.org/1999/xlink" x="0px" y="0px"
	 width="660px" height="800px" viewBox="70 0 660 800" enable-background="new 70 0 660 800" xml:space="preserve">
<image overflow="visible" width="60" height="104" xlink:href="../../../../Desktop/Screen Shot 2016-04-05 at 4.09.45 PM.png"  transform="matrix(16.7127 0 0 9.6508 -49.0631 -26.0013)">
</image>
<path fill="#432D2C" d="M109.1,314.4l-12.4-31c-3.2-7.8-4.2-10.2-4.2-18.5v-33.4c0-2.2,0.6-3.7,1.8-4.7l16.3-13.8
	c0.9-0.7,2.2-1.1,4.1-1.1h20.1c4.1,0,6.2,1.9,6.2,5.8v34.8c0,1.7,0.4,3,0.9,4.8l0.4,0.9v-26.8c0-2.2,0.6-3.7,1.8-4.7l16.3-13.8
	c0.9-0.7,2.2-1.1,4.1-1.1h19.8c4.2,0,5.8,1.8,5.8,5.8v33.4c0,8.2-1,10.6-4.2,18.5l-12.4,31c-0.5,1.5-1.4,2.6-2.2,3.4l-16.4,13.5
	c-1.4,1.3-3,1.8-5.3,1.8h-32.9C112.8,319.4,110.6,318.1,109.1,314.4z"/>
<path fill="#432D2C" d="M208,319.4h-18.6c-4.1,0-5.8-1.8-5.8-5.8v-33.4c0-5.2,1.5-11.6,5-20.7l10.9-28.6c0.5-1.5,1.3-2.6,2.2-3.4
	l0.2-0.2l16.2-13.5c1.4-1.3,3.2-1.8,5.6-1.8h34c3.9,0,6.3,1.5,7.4,5l11,28.7c3.5,9.1,5,15.5,5,20.7v33.4c0,2.2-0.6,3.7-1.8,4.7
	l-16.5,13.7c-0.7,0.7-2.2,1.3-3.9,1.3h-19.1c-4.3,0-6.2-1.9-6.2-5.8v-16.5h-3.5v2.6c0,2.2-0.6,3.7-1.8,4.7l-16.5,13.7
	C211.2,318.8,209.7,319.4,208,319.4z"/>
<path fill="#432D2C" d="M308.8,319.4c-22.2,0-32.4-12.6-32.4-30.9V253c0-9.4,2.6-16.1,8-20.6l16.5-13.8c5.2-4.4,13.3-6.6,24.3-6.6
	H356c4.1,0,5.8,1.8,5.8,5.8v15.3c0,2.2-0.6,3.7-1.8,4.6l-16.5,13.7c-0.7,0.7-2.2,1.3-3.9,1.3h-15.5v21.4c0,3.5,2.2,4.8,6.5,4.8h25.4
	c4.1,0,5.8,1.8,5.8,5.8v15c0,2.2-0.6,3.7-1.8,4.7l-16.5,13.7c-0.7,0.7-2.2,1.3-3.9,1.3L308.8,319.4L308.8,319.4L308.8,319.4z"/>
<path fill="#432D2C" d="M379.7,319.4h-18.6c-4.1,0-5.8-1.8-5.8-5.8v-33.4c0-5.2,1.5-11.6,5-20.7l10.9-28.6c0.5-1.5,1.3-2.6,2.2-3.4
	l0.2-0.2l16.2-13.5c1.4-1.3,3.2-1.8,5.6-1.8h34c3.9,0,6.3,1.5,7.4,5l11,28.7c3.5,9.1,5,15.5,5,20.7v33.4c0,2.2-0.6,3.7-1.8,4.7
	l-16.5,13.7c-0.7,0.7-2.2,1.3-3.9,1.3h-19c-4.3,0-6.2-1.9-6.2-5.8v-16.5H402v2.6c0,2.2-0.6,3.7-1.8,4.7l-16.5,13.7
	C382.9,318.8,381.5,319.4,379.7,319.4z"/>
<path fill="#432D2C" d="M478.3,318.1c-0.7,0.7-2.2,1.3-3.9,1.3h-19c-4.1,0-5.8-1.8-5.8-5.8v-82c0-2.2,0.6-3.7,1.8-4.7l16.3-13.8
	c0.9-0.7,2.2-1.1,4.1-1.1h13.1c3.7,0,5.9,1,8.5,3.8l8.7,10.1l15.3-12.8c0.9-0.7,2.2-1.1,4.1-1.1h19c4.1,0,5.8,1.8,5.8,5.8v82
	c0,2.2-0.6,3.7-1.8,4.7L528,318.1c-0.7,0.7-2.2,1.3-3.9,1.3h-19c-4.1,0-5.8-1.8-5.8-5.8v-15l-2.8-3.4v4.6c0,2.2-0.6,3.7-1.8,4.7
	L478.3,318.1z"/>
<path fill="#432D2C" d="M575.8,319.4c-22.2,0-32.4-12.6-32.4-30.9V253c0-9.4,2.6-16.1,8-20.6l16.5-13.8c5.2-4.4,13.3-6.6,24.3-6.6
	h30.9c4.1,0,5.8,1.8,5.8,5.8v15.3c0,2.2-0.6,3.7-1.8,4.6l-16.5,13.7c-0.7,0.7-2.2,1.3-3.9,1.3h-15.5v21.4c0,3.5,2.2,4.8,6.5,4.8
	h25.4c4.1,0,5.8,1.8,5.8,5.8v15c0,2.2-0.6,3.7-1.8,4.7l-16.5,13.7c-0.7,0.7-2.2,1.3-3.9,1.3L575.8,319.4L575.8,319.4L575.8,319.4z"
	/>
<path fill="#432D2C" d="M651.2,319.4c-4.2,0-5.8-1.8-5.8-5.8v-15.8l-19.1-25.5c-4.1-5.4-5-8.1-5-16.3v-24.3c0-2.2,0.6-3.7,1.8-4.7
	l16.3-13.8c0.9-0.7,2.2-1.1,4.1-1.1h19.4c4.1,0,5.8,1.8,5.8,5.8v20.7c0,1.5,0,3,0.9,4.6l1.5,2.2v-13.8c0-2.2,0.6-3.7,1.8-4.7
	l16.3-13.8c0.9-0.7,2.2-1.1,4.1-1.1H712c4.1,0,5.8,1.8,5.8,5.8v24.3c0,8.2-1,10.9-5,16.3l-19,25.7v15.7c0,2.2-0.6,3.7-1.8,4.7
	l-16.5,13.7c-0.7,0.7-2.2,1.3-3.9,1.3L651.2,319.4L651.2,319.4L651.2,319.4z"/>
<path fill="#FFF27B" d="M125.6,224.6v27.4c0,4.4,0.6,8.3,2,11.8l8.3,20.2c1.8,4.4,3.2,7.7,8,7.7h11.1c4.8,0,6.2-3.3,8-7.7l8.3-20.2
	c1.4-3.4,2-7.4,2-11.8v-27.4h1.3v27.4c0,4.6-0.5,8.6-2,12.2l-8.3,20.2c-2,5-3.9,8.5-9.2,8.5H144c-5.3,0-7.2-3.5-9.2-8.5l-8.3-20.2
	c-1.5-3.7-2-7.6-2-12.2v-27.4H125.6z"/>
<path fill="#FFF27B" d="M265.2,271.1h-49.4v21.8h-1.3v-27c0-4.6,0.7-8.6,2.2-12.2l8.1-20.7c1.9-4.7,3.4-8.3,9.2-8.3h12.4
	c5.6,0,7.1,3.5,9.1,8.5l8.7,20.6c1.4,3.7,2.2,7.6,2.2,12.2v27h-1.3L265.2,271.1L265.2,271.1L265.2,271.1z M215.8,269.9h49.4V266
	c0-4.6-0.7-8.3-2-11.8l-8.7-20.6c-1.9-4.4-3.3-7.7-8-7.7H234c-5,0-6.5,3.3-8.1,7.6l-8.1,20.7c-1.3,3.4-2,7.2-2,11.8L215.8,269.9
	L215.8,269.9z"/>
<path fill="#FFF27B" d="M349,292.9h-21.1c-16.5,0-20.2-4.6-20.2-16.3v-35.4c0-12,4.1-16.6,20.2-16.6H349v1.3h-21.1
	c-15,0-19,4.1-19,15.3v35.4c0,11,3.8,15,19,15H349V292.9z"/>
<path fill="#FFF27B" d="M436.9,271.1h-49.4v21.8h-1.3v-27c0-4.6,0.7-8.6,2.2-12.2l8.1-20.7c1.9-4.7,3.4-8.3,9.2-8.3h12.4
	c5.6,0,7.1,3.5,9.1,8.5l8.7,20.6c1.4,3.7,2.2,7.6,2.2,12.2v27h-1.3L436.9,271.1L436.9,271.1L436.9,271.1z M387.6,269.9h49.4V266
	c0-4.6-0.7-8.3-2-11.8l-8.7-20.6c-1.9-4.4-3.3-7.7-8-7.7h-12.4c-5,0-6.5,3.3-8.1,7.6l-8.1,20.7c-1.3,3.4-2,7.2-2,11.8L387.6,269.9
	L387.6,269.9z"/>
<path fill="#FFF27B" d="M530.4,278v-53.4h1.3V293h-1.3v-13.1l-47.8-53.6c-0.2-0.2-0.4-0.4-0.6-0.4s-0.2,0.2-0.2,0.4v66.6h-1.3V226
	c0-1,0.7-1.5,1.5-1.5c0.7,0,1,0.2,1.9,1.1L530.4,278z"/>
<path fill="#FFF27B" d="M616,292.9h-21.1c-16.5,0-20.2-4.6-20.2-16.3v-35.4c0-12,4.1-16.6,20.2-16.6H616v1.3h-21.1
	c-15,0-19,4.1-19,15.3v35.4c0,11,3.8,15,19,15H616V292.9z"/>
<path fill="#FFF27B" d="M678.4,271.3v21.6h-1.3v-21.6h-1.3c-3.7,0-6.5-1.5-9.2-5.3l-12.2-17c-1.9-2.6-1.9-6.1-1.9-9.8v-14.6h1.3
	v14.6c0,3.5,0.2,6.7,1.8,9.2l12.2,17c2.2,3.4,5.2,4.6,8.1,4.6h3.4c3.2,0,5.7-1.3,8.2-4.6l12.6-17c1.8-2.2,1.8-5.7,1.8-9.2v-14.6h1.3
	v14.6c0,3.7,0.2,7.1-1.9,9.8l-12.6,17c-2.8,3.7-5.4,5.3-9.4,5.3H678.4z"/>
<path fill="#EADA4E" d="M76.5,549.4v-95c0-2.6,0.7-4.2,2.1-5.4l18.9-16c1-0.9,2.6-1.3,4.7-1.3H149c20.6,0,29.6,7.8,29.6,23.9v7
	c0,6.9-1.9,11.8-5.6,14.6l-0.4,0.3c10.7,2.3,15.8,9.8,15.8,23.6v13.5c0,8.8-2.5,15.1-7.6,19.4L162,550c-4.8,4.1-12.2,6.2-22.3,6.2
	H83.3C78.6,556.1,76.5,554.1,76.5,549.4z"/>
<path fill="#EADA4E" d="M215,554.6c-0.9,0.9-2.5,1.4-4.6,1.4h-21.5c-4.7,0-6.7-2.1-6.7-6.7v-72.6c0-9.2,2.1-17,8.6-22.6l19-15.8
	c6.6-5.6,17.9-9,37.1-9c38.2,0,46.2,13,46.2,31.4v72.6c0,2.6-0.7,4.2-2.1,5.4l-19,15.8c-0.9,0.9-2.5,1.4-4.6,1.4h-22.3
	c-4.7,0-6.7-2.1-6.7-6.7V529h-2.3v4.4c0,2.6-0.7,4.2-2.1,5.4L215,554.6z M236.1,477.5v5.7h2.3v-1.4
	C238.4,480,237.9,478.6,236.1,477.5z"/>
<path fill="#EADA4E" d="M324.7,554.6c-0.9,0.9-2.5,1.4-4.6,1.4h-22.6c-4.7,0-6.7-2.1-6.7-6.7v-95c0-2.6,0.7-4.2,2.1-5.4l18.9-16
	c1-0.9,2.6-1.3,4.7-1.3h48.8c23.3,0,30.3,10.7,30.3,25.9v6.7c0,7.2-1.6,12.6-5.6,16h-0.2c9.2,2.6,15.3,10.4,15.3,22v31.1
	c0,2.6-0.7,4.2-2.1,5.4l-19,15.8c-0.9,0.9-2.5,1.4-4.6,1.4h-22.7c-4.7,0-6.7-2.1-6.7-6.7V527c0-3.2-1-4.8-4.1-4.8h-0.2v11.3
	c0,2.6-0.7,4.2-2.1,5.4L324.7,554.6z"/>
<path fill="#EADA4E" d="M399.7,549.4v-95c0-2.6,0.7-4.2,2.1-5.4l18.9-16c1-0.9,2.6-1.3,4.7-1.3h46.8c20.6,0,29.6,7.8,29.6,23.9v7
	c0,6.9-1.9,11.8-5.6,14.6l-0.4,0.3c10.7,2.3,15.8,9.8,15.8,23.6v13.5c0,8.8-2.5,15.1-7.6,19.4l-18.9,16c-4.8,4.1-12.2,6.2-22.3,6.2
	h-56.3C401.8,556.1,399.7,554.1,399.7,549.4z"/>
<path fill="#EADA4E" d="M512.8,556.1c-4.7,0-6.7-2.1-6.7-6.7v-95c0-2.6,0.7-4.2,2.1-5.4l18.9-16c1-0.9,2.6-1.3,4.7-1.3h68
	c4.7,0,6.7,2.1,6.7,6.7v17.1c0,2.6-0.7,4.2-2.1,5.4l-12.6,10.4c1.9,1,2.8,3,2.8,6V493c0,2.6-0.7,4.2-2.1,5.4l-13,11h20.2
	c4.7,0,6.7,2.1,6.7,6.7v17.1c0,2.6-0.7,4.2-2.1,5.4l-19,15.8c-0.9,0.9-2.5,1.4-4.6,1.4h-67.9L512.8,556.1L512.8,556.1z"/>
<path fill="#EADA4E" d="M635.8,554.6c-0.9,0.9-2.5,1.4-4.6,1.4h-22.6c-4.7,0-6.7-2.1-6.7-6.7v-95c0-2.6,0.7-4.2,2.1-5.4l18.9-16
	c1-0.9,2.6-1.3,4.7-1.3h48.8c23.3,0,30.3,10.7,30.3,25.9v6.7c0,7.2-1.6,12.6-5.6,16H701c9.2,2.6,15.3,10.4,15.3,22v31.1
	c0,2.6-0.7,4.2-2.1,5.4l-19,15.8c-0.9,0.9-2.5,1.4-4.6,1.4h-22.7c-4.7,0-6.7-2.1-6.7-6.7V527c0-3.2-1-4.8-4.1-4.8h-0.2v11.3
	c0,2.6-0.7,4.2-2.1,5.4L635.8,554.6z"/>
<path fill="#EF9D92" d="M95.5,533.4v-95c0-4.7,2.1-6.7,6.7-6.7H149c20.6,0,29.6,7.8,29.6,23.9v7c0,7-1.9,11.8-5.8,15
	c10.6,2.5,15.7,9.8,15.7,23.6v13.5c0,17.3-9.2,25.5-29.9,25.5h-56.3C97.5,540.2,95.5,538.2,95.5,533.4z M131.4,459.6v12.9h11
	c3,0,4.1-1.4,4.1-4.4V464c0-3-1.2-4.4-4.1-4.4H131.4z M131.4,498v14.4H149c3,0,4.1-1.4,4.1-4.4v-5.8c0-3-1.3-4.2-4.1-4.2H131.4z"/>
<path fill="#92CAD3" d="M201.1,533.4v-72.6c0-18.3,7.8-31.4,45.9-31.4c38.2,0,46.2,13,46.2,31.4v72.6c0,4.7-2.1,6.7-6.7,6.7h-22.3
	c-4.7,0-6.7-2.1-6.7-6.7V513h-21.3v20.4c0,4.7-2.1,6.7-6.7,6.7h-21.5C203.1,540.2,201.1,538.2,201.1,533.4z M236.1,483.3h21.3v-17.4
	c0-3.5-2.5-5.4-10.6-5.4c-8.2,0-10.7,1.9-10.7,5.4L236.1,483.3L236.1,483.3z"/>
<path fill="#EF9D92" d="M316.4,540.2c-4.7,0-6.7-2.1-6.7-6.7v-95c0-4.7,2.1-6.7,6.7-6.7h48.8c23.3,0,30.3,10.7,30.3,25.9v6.7
	c0,7.2-1.6,12.6-5.7,16c9.2,2.6,15.3,10.4,15.3,22v31c0,4.7-2.1,6.7-6.7,6.7h-22.7c-4.7,0-6.7-2.1-6.7-6.7V511c0-3.2-1-4.8-4.1-4.8
	h-19v27.2c0,4.7-2.1,6.7-6.7,6.7L316.4,540.2L316.4,540.2L316.4,540.2z M345.8,461v15.8h9.5c4.1,0,5-2.3,5-5.4v-5c0-3-0.9-5.4-5-5.4
	H345.8z"/>
<path fill="#92CAD3" d="M418.7,533.4v-95c0-4.7,2.1-6.7,6.7-6.7h46.8c20.6,0,29.6,7.8,29.6,23.9v7c0,7-1.9,11.8-5.8,15
	c10.6,2.5,15.7,9.8,15.7,23.6v13.5c0,17.3-9.2,25.5-29.9,25.5h-56.3C420.7,540.2,418.7,538.2,418.7,533.4z M454.6,459.6v12.9h11
	c3,0,4.1-1.4,4.1-4.4V464c0-3-1.2-4.4-4.1-4.4H454.6z M454.6,498v14.4h17.6c3,0,4.1-1.4,4.1-4.4v-5.8c0-3-1.3-4.2-4.1-4.2H454.6z"/>
<path fill="#EF9D92" d="M524.9,533.4v-95c0-4.7,2.1-6.7,6.7-6.7h68c4.7,0,6.7,2.1,6.7,6.7v17.1c0,4.7-2.1,6.7-6.7,6.7h-39v8.3h27.1
	c4.7,0,6.7,2.1,6.7,6.7V493c0,4.7-2.1,6.7-6.7,6.7h-27.1v9.7h39c4.7,0,6.7,2.1,6.7,6.7v17.3c0,4.7-2.1,6.7-6.7,6.7h-68
	C527,540.2,524.9,538.2,524.9,533.4z"/>
<path fill="#92CAD3" d="M627.6,540.2c-4.7,0-6.7-2.1-6.7-6.7v-95c0-4.7,2.1-6.7,6.7-6.7h48.8c23.3,0,30.3,10.7,30.3,25.9v6.7
	c0,7.2-1.6,12.6-5.7,16c9.2,2.6,15.3,10.4,15.3,22v31c0,4.7-2.1,6.7-6.7,6.7h-22.8c-4.7,0-6.7-2.1-6.7-6.7V511c0-3.2-1-4.8-4.1-4.8
	h-19v27.2c0,4.7-2.1,6.7-6.7,6.7L627.6,540.2L627.6,540.2z M656.9,461v15.8h9.5c4.1,0,5-2.3,5-5.4v-5c0-3-0.9-5.4-5-5.4H656.9z"/>
<path fill="#DA4226" d="M102.2,538.8c-3.7,0-5.3-1.6-5.3-5.3v-95c0-3.7,1.6-5.3,5.3-5.3H149c19.2,0,28.2,7,28.2,22.4v7
	c0,8.2-2.8,13.4-8.6,15.8c12.6,1.2,18.5,8.3,18.5,22.7v13.5c0,16.4-9,24.1-28.5,24.1L102.2,538.8L102.2,538.8z M130,474h12.5
	c3.8,0,5.6-1.9,5.6-5.8v-4.1c0-3.9-1.8-5.8-5.6-5.8H130V474z M130,513.9h19c3.8,0,5.6-1.9,5.6-5.8v-5.7c0-3.9-1.8-5.7-5.6-5.7h-19
	V513.9z"/>
<path fill="#27839E" d="M229.3,538.8h-21.5c-3.7,0-5.3-1.6-5.3-5.3V461c0-17.8,8.1-29.9,44.4-29.9c36.5,0,44.7,12.2,44.7,29.9v72.6
	c0,3.7-1.6,5.3-5.3,5.3H264c-3.7,0-5.3-1.6-5.3-5.3v-21.8h-24.2v21.8C234.6,537.2,233,538.8,229.3,538.8z M234.6,484.9h24.2V466
	c0-3.9-1.8-6.9-12-6.9c-10.4,0-12.2,3-12.2,6.9V484.9z"/>
<path fill="#DA4226" d="M316.4,538.8c-3.7,0-5.3-1.6-5.3-5.3v-95c0-3.7,1.6-5.3,5.3-5.3h48.8c22,0,28.9,10,28.9,24.5v6.7
	c0,8.2-2.1,14.1-8.2,16.7c10.7,1.2,17.8,9,17.8,21.3v31.1c0,3.7-1.6,5.3-5.3,5.3h-22.7c-3.7,0-5.3-1.6-5.3-5.3v-22.4
	c0-4.4-1.4-6.3-5.6-6.3h-20.6v28.7c0,3.7-1.6,5.3-5.3,5.3L316.4,538.8L316.4,538.8z M344.3,478.4h11c5.1,0,6.5-3,6.5-6.9v-5
	c0-3.9-1.4-6.9-6.5-6.9h-11V478.4z"/>
<path fill="#27839E" d="M425.4,538.8c-3.7,0-5.3-1.6-5.3-5.3v-95c0-3.7,1.6-5.3,5.3-5.3h46.8c19.2,0,28.2,7,28.2,22.4v7
	c0,8.2-2.8,13.4-8.6,15.8c12.6,1.2,18.5,8.3,18.5,22.7v13.5c0,16.4-9,24.1-28.5,24.1L425.4,538.8L425.4,538.8L425.4,538.8z
	 M453.1,474h12.5c3.8,0,5.6-1.9,5.6-5.8v-4.1c0-3.9-1.8-5.8-5.6-5.8h-12.5V474z M453.1,513.9h19c3.8,0,5.6-1.9,5.6-5.8v-5.7
	c0-3.9-1.8-5.7-5.6-5.7h-19V513.9L453.1,513.9z"/>
<path fill="#DA4226" d="M531.7,538.8c-3.7,0-5.3-1.6-5.3-5.3v-95c0-3.7,1.6-5.3,5.3-5.3h68c3.7,0,5.3,1.6,5.3,5.3v17.1
	c0,3.7-1.6,5.3-5.3,5.3h-40.5v11.3h28.6c3.7,0,5.3,1.6,5.3,5.3v15.7c0,3.7-1.6,5.3-5.3,5.3h-28.6v12.6h40.5c3.7,0,5.3,1.6,5.3,5.3
	v17.1c0,3.7-1.6,5.3-5.3,5.3L531.7,538.8L531.7,538.8z"/>
<path fill="#27839E" d="M627.6,538.8c-3.7,0-5.3-1.6-5.3-5.3v-95c0-3.7,1.6-5.3,5.3-5.3h48.8c22,0,28.9,10,28.9,24.5v6.7
	c0,8.2-2.1,14.1-8.2,16.7c10.7,1.2,17.8,9,17.8,21.3v31.1c0,3.7-1.6,5.3-5.3,5.3h-22.7c-3.7,0-5.3-1.6-5.3-5.3v-22.4
	c0-4.4-1.4-6.3-5.6-6.3h-20.6v28.7c0,3.7-1.6,5.3-5.3,5.3L627.6,538.8L627.6,538.8L627.6,538.8z M655.5,478.4h11
	c5.1,0,6.5-3,6.5-6.9v-5c0-3.9-1.4-6.9-6.5-6.9h-11V478.4z"/>
<path fill="#EF9D92" d="M113.2,525.7v-79.2H143c16.2,0,19.2,7,19.2,15.5v9.4c0,5.8-1,11.1-9.4,13.4c16.2,0,19,7.2,19,16.9v9.4
	c0,8.6-2.8,14.6-19.2,14.6H113.2z M114.7,448v36.8H143c16.2,0,17.8-6.3,17.8-13.4v-9.4c0-7.9-3-14.1-17.8-14.1H114.7z M114.7,486.2
	v38h38c14.6,0,17.8-5.1,17.8-13.2v-9.4c0-8.8-2.8-15.4-17.6-15.4L114.7,486.2C114.7,486.3,114.7,486.2,114.7,486.2z"/>
<path fill="#92CAD3" d="M274.5,499.2h-54.4v26.6h-1.4v-61.1c0-11.8,5.4-19.8,28.5-19.8s28.9,7.9,28.9,19.8v61.1h-1.4L274.5,499.2
	L274.5,499.2z M220.1,497.7h54.4v-33.1c0-11-5.6-18.3-27.4-18.3s-27,7.4-27,18.3V497.7L220.1,497.7z"/>
<path fill="#EF9D92" d="M327,525.7v-79.2h33.4c11.4,0,16.7,7,16.7,16.7v10.1c0,9-1.8,14.8-8.8,17h1.6c12,0,17.8,5.4,17.8,15.7v19.7
	h-1.4V506c0-9.7-5.1-14.4-16.2-14.4h-41.6v34L327,525.7L327,525.7L327,525.7z M328.4,448v42.4h32c12.2,0,15.3-6,15.3-16.9v-10.2
	c0-9.1-4.8-15.3-15.3-15.3L328.4,448L328.4,448z"/>
<path fill="#92CAD3" d="M436.4,525.7v-79.2h29.8c16.2,0,19.2,7,19.2,15.5v9.4c0,5.8-1,11.1-9.4,13.4c16.2,0,19,7.2,19,16.9v9.4
	c0,8.6-2.8,14.6-19.2,14.6H436.4z M437.9,448v36.8h28.3c16.2,0,17.8-6.3,17.8-13.4v-9.4c0-7.9-3-14.1-17.8-14.1H437.9z M437.9,486.2
	v38h38c14.6,0,17.8-5.1,17.8-13.2v-9.4c0-8.8-2.8-15.4-17.6-15.4L437.9,486.2L437.9,486.2L437.9,486.2z"/>
<path fill="#EF9D92" d="M591.8,525.7h-49.4v-79.2h49.4v1.4h-47.9v36.8H580v1.4h-36.1v38h47.9V525.7z"/>
<path fill="#92CAD3" d="M638.2,525.7v-79.2h33.4c11.4,0,16.7,7,16.7,16.7v10.1c0,9-1.8,14.8-8.8,17h1.6c12,0,17.8,5.4,17.8,15.7
	v19.7h-1.4V506c0-9.7-5.1-14.4-16.2-14.4h-41.6v34L638.2,525.7L638.2,525.7L638.2,525.7z M639.6,448v42.4h32
	c12.2,0,15.3-6,15.3-16.9v-10.2c0-9.1-4.8-15.3-15.3-15.3L639.6,448L639.6,448z"/>
<g>
	<g>
		<path fill="#DA4226" d="M93.6,354.5c0-1.1,0.5-1.6,1.6-1.6h24.6c13.3,0,21,7.6,21,21v24.6c0,1.1-0.5,1.6-1.6,1.6H94.8
			c-0.7,0-1.3-0.6-1.3-1.3C93.6,398.7,93.6,354.5,93.6,354.5z"/>
		<path fill="#DA4226" d="M145.9,354.5c0-1.1,0.5-1.6,1.6-1.6H172c13.3,0,21,7.6,21,21v24.6c0,1.1-0.5,1.6-1.6,1.6h-44.2
			c-0.7,0-1.3-0.6-1.3-1.3V354.5L145.9,354.5z"/>
		<path fill="#DA4226" d="M198.2,354.5c0-1.1,0.5-1.6,1.6-1.6h24.6c13.3,0,21,7.6,21,21v24.6c0,1.1-0.5,1.6-1.6,1.6h-44.2
			c-0.7,0-1.3-0.6-1.3-1.3L198.2,354.5L198.2,354.5z"/>
		<path fill="#DA4226" d="M250.5,354.5c0-1.1,0.5-1.6,1.6-1.6h24.6c13.3,0,21,7.6,21,21v24.6c0,1.1-0.5,1.6-1.6,1.6h-44.2
			c-0.7,0-1.3-0.6-1.3-1.3L250.5,354.5L250.5,354.5z"/>
		<path fill="#DA4226" d="M302.8,354.5c0-1.1,0.5-1.6,1.6-1.6H329c13.3,0,21,7.6,21,21v24.6c0,1.1-0.5,1.6-1.6,1.6h-44.2
			c-0.7,0-1.3-0.6-1.3-1.3L302.8,354.5L302.8,354.5z"/>
		<path fill="#DA4226" d="M355.2,354.5c0-1.1,0.5-1.6,1.6-1.6h24.6c13.3,0,21,7.6,21,21v24.6c0,1.1-0.5,1.6-1.6,1.6h-44.2
			c-0.7,0-1.3-0.6-1.3-1.3L355.2,354.5L355.2,354.5z"/>
		<path fill="#DA4226" d="M407.5,354.5c0-1.1,0.5-1.6,1.6-1.6h24.6c13.3,0,21,7.6,21,21v24.6c0,1.1-0.5,1.6-1.6,1.6h-44.2
			c-0.7,0-1.3-0.6-1.3-1.3L407.5,354.5L407.5,354.5z"/>
		<path fill="#DA4226" d="M459.8,354.5c0-1.1,0.5-1.6,1.6-1.6H486c13.3,0,21,7.6,21,21v24.6c0,1.1-0.5,1.6-1.6,1.6h-44.2
			c-0.7,0-1.3-0.6-1.3-1.3L459.8,354.5L459.8,354.5z"/>
		<path fill="#DA4226" d="M512.1,354.5c0-1.1,0.5-1.6,1.6-1.6h24.6c13.3,0,21,7.6,21,21v24.6c0,1.1-0.5,1.6-1.6,1.6h-44.2
			c-0.7,0-1.3-0.6-1.3-1.3L512.1,354.5L512.1,354.5z"/>
		<path fill="#DA4226" d="M564.4,354.5c0-1.1,0.5-1.6,1.6-1.6h24.6c13.3,0,21,7.6,21,21v24.6c0,1.1-0.5,1.6-1.6,1.6h-44.2
			c-0.7,0-1.3-0.6-1.3-1.3L564.4,354.5L564.4,354.5z"/>
		<path fill="#DA4226" d="M616.8,354.5c0-1.1,0.5-1.6,1.6-1.6h24.6c13.3,0,21,7.6,21,21v24.6c0,1.1-0.5,1.6-1.6,1.6H618
			c-0.7,0-1.3-0.6-1.3-1.3L616.8,354.5L616.8,354.5z"/>
		<path fill="#DA4226" d="M669.1,354.5c0-1.1,0.5-1.6,1.6-1.6h24.6c13.3,0,21,7.6,21,21v24.6c0,1.1-0.5,1.6-1.6,1.6h-44.2
			c-0.7,0-1.3-0.6-1.3-1.3L669.1,354.5L669.1,354.5z"/>
	</g>
	<g>
		<path fill="#EF9D92" d="M107,392.2c-1,0-1.4-0.4-1.4-1.4v-24.9c0-1,0.4-1.4,1.4-1.4h5.9c1,0,1.4,0.4,1.4,1.4v19h6v-6.2
			c0-1,0.4-1.4,1.4-1.4h5.6c1,0,1.4,0.4,1.4,1.4v12.1c0,1-0.4,1.4-1.4,1.4H107z"/>
		<path fill="#EF9D92" d="M169.4,392.7c-9.2,0-11.5-3.1-11.5-7.8v-19c0-1,0.4-1.4,1.4-1.4h6c1,0,1.4,0.4,1.4,1.4v17.5
			c0,1,0.5,1.8,2.8,1.8c2.4,0,2.9-0.8,2.9-1.8v-17.5c0-1,0.4-1.4,1.4-1.4h5.8c1,0,1.4,0.4,1.4,1.4v19
			C180.9,389.5,178.6,392.7,169.4,392.7z"/>
		<path fill="#EF9D92" d="M211.6,392.2c-1,0-1.4-0.4-1.4-1.4v-24.9c0-1,0.4-1.4,1.4-1.4h4c1,0,1.6,0.2,2.2,1l6.9,8.6V366
			c0-1,0.4-1.4,1.4-1.4h5.8c1,0,1.4,0.4,1.4,1.4v24.9c0,1-0.4,1.4-1.4,1.4H226c-1,0-1.4-0.4-1.4-1.4v-4.7l-6-7.9v12.6
			c0,1-0.4,1.4-1.4,1.4L211.6,392.2L211.6,392.2L211.6,392.2z"/>
		<path fill="#EF9D92" d="M271.8,392.2c-7.3,0-9.4-3.2-9.4-7.8v-11.9c0-4.7,2.2-7.8,9.4-7.8h12c1,0,1.4,0.4,1.4,1.4v4.6
			c0,1-0.4,1.4-1.4,1.4h-10.4c-2,0-2.3,1-2.3,1.9v9.1c0,1,0.3,1.8,2.3,1.8h10.4c1,0,1.4,0.4,1.4,1.4v4.6c0,1-0.4,1.4-1.4,1.4
			L271.8,392.2L271.8,392.2z"/>
		<path fill="#EF9D92" d="M316.2,392.2c-1,0-1.4-0.4-1.4-1.4v-24.9c0-1,0.4-1.4,1.4-1.4h5.9c1,0,1.4,0.4,1.4,1.4v8.3h5.6v-8.3
			c0-1,0.4-1.4,1.4-1.4h5.9c1,0,1.4,0.4,1.4,1.4v24.9c0,1-0.4,1.4-1.4,1.4h-5.9c-1,0-1.4-0.4-1.4-1.4v-8.6h-5.6v8.6
			c0,1-0.4,1.4-1.4,1.4H316.2L316.2,392.2z"/>
		<path fill="#EF9D92" d="M368.5,392.2c-1,0-1.4-0.4-1.4-1.4v-24.9c0-1,0.4-1.4,1.4-1.4h19.9c1,0,1.4,0.4,1.4,1.4v4.5
			c0,1-0.4,1.4-1.4,1.4h-12.6v3h9.6c1,0,1.4,0.4,1.4,1.4v4.1c0,1-0.4,1.4-1.4,1.4h-9.6v3.3h12.6c1,0,1.4,0.4,1.4,1.4v4.5
			c0,1-0.4,1.4-1.4,1.4h-19.9V392.2z"/>
		<path fill="#EF9D92" d="M430.9,392.7c-9.4,0-11.7-3.1-11.7-7.8v-13.1c0-4.7,2.2-7.8,11.7-7.8c9.4,0,11.7,3.2,11.7,7.8v13.1
			C442.6,389.5,440.4,392.7,430.9,392.7z M430.9,385.3c2.6,0,3-0.8,3-1.8v-10.3c0-1-0.4-1.8-3-1.8c-2.6,0-3,0.8-3,1.8v10.3
			C428,384.6,428.4,385.3,430.9,385.3z"/>
		<path fill="#EF9D92" d="M473.1,392.2c-1,0-1.4-0.4-1.4-1.4v-24.9c0-1,0.4-1.4,1.4-1.4h4c1,0,1.6,0.2,2.2,1l6.9,8.6V366
			c0-1,0.4-1.4,1.4-1.4h5.8c1,0,1.4,0.4,1.4,1.4v24.9c0,1-0.4,1.4-1.4,1.4h-5.8c-1,0-1.4-0.4-1.4-1.4v-4.7l-6-7.9v12.6
			c0,1-0.4,1.4-1.4,1.4L473.1,392.2L473.1,392.2L473.1,392.2z"/>
		<path fill="#EF9D92" d="M525.4,392.2c-1,0-1.4-0.4-1.4-1.4v-24.9c0-1,0.4-1.4,1.4-1.4h19.9c1,0,1.4,0.4,1.4,1.4v4.5
			c0,1-0.4,1.4-1.4,1.4h-12.6v3h9.6c1,0,1.4,0.4,1.4,1.4v4.1c0,1-0.4,1.4-1.4,1.4h-9.6v3.3h12.6c1,0,1.4,0.4,1.4,1.4v4.5
			c0,1-0.4,1.4-1.4,1.4h-19.9V392.2z"/>
		<path fill="#EF9D92" d="M584.6,392.2c-1,0-1.4-0.4-1.4-1.4v-18.9h-5.5c-1,0-1.4-0.4-1.4-1.4v-4.6c0-1,0.4-1.4,1.4-1.4H598
			c1,0,1.4,0.4,1.4,1.4v4.6c0,1-0.4,1.4-1.4,1.4h-5.5v18.9c0,1-0.4,1.4-1.4,1.4H584.6z"/>
		<path fill="#EF9D92" d="M636.9,392.2c-1,0-1.4-0.4-1.4-1.4v-18.9H630c-1,0-1.4-0.4-1.4-1.4v-4.6c0-1,0.4-1.4,1.4-1.4h20.2
			c1,0,1.4,0.4,1.4,1.4v4.6c0,1-0.4,1.4-1.4,1.4h-5.5v18.9c0,1-0.4,1.4-1.4,1.4H636.9z"/>
		<path fill="#EF9D92" d="M682.4,392.2c-1,0-1.4-0.4-1.4-1.4v-24.9c0-1,0.4-1.4,1.4-1.4h19.9c1,0,1.4,0.4,1.4,1.4v4.5
			c0,1-0.4,1.4-1.4,1.4h-12.6v3h9.6c1,0,1.4,0.4,1.4,1.4v4.1c0,1-0.4,1.4-1.4,1.4h-9.6v3.3h12.6c1,0,1.4,0.4,1.4,1.4v4.5
			c0,1-0.4,1.4-1.4,1.4h-19.9V392.2z"/>
	</g>
</g>
<g>
	<path d="M148.7,176.2h-26.6c-19.1,0-27.8-7.5-27.8-23.3v-33.8c0-15.8,8.7-23.4,27.8-23.4h26.6c3.4,0,5,1.5,5,5v13.1
		c0,3.4-1.5,5-5,5h-21.8c-3.7,0-5.5,1.3-5.5,4.3v25.8c0,3,1.9,4.2,5.5,4.2h21.8c3.4,0,5,1.5,5,5v13
		C153.7,174.7,152.2,176.2,148.7,176.2z"/>
	<path d="M231.7,154.6c0,13.7-6.3,23.3-34.8,23.3s-34.9-9.6-34.9-23.3v-37c0-13.7,6.4-23.4,34.9-23.4s34.8,9.7,34.8,23.4V154.6z
		 M188.9,150.7c0,2.6,1.8,4,8.1,4s8.1-1.4,8.1-4v-29.3c0-2.5-1.8-3.9-8.1-3.9c-6.1,0-8.1,1.4-8.1,3.9V150.7z"/>
	<path d="M296.5,176.2H270c-19.1,0-27.8-7.5-27.8-23.3v-33.8c0-15.8,8.7-23.4,27.8-23.4h26.6c3.4,0,5,1.5,5,5v13.1c0,3.4-1.5,5-5,5
		h-21.8c-3.7,0-5.5,1.3-5.5,4.3v25.8c0,3,1.9,4.2,5.5,4.2h21.8c3.4,0,5,1.5,5,5v13C301.6,174.7,300,176.2,296.5,176.2z"/>
	<path d="M316.7,176.2c-3.4,0-5-1.5-5-5v-70.5c0-3.4,1.5-5,5-5h16.9c3.4,0,5,1.5,5,5v23.9h2.6l10.9-24.6c1.3-3,3-4.2,6.4-4.2h16.7
		c3.6,0,4.8,1.8,3.4,5.1l-10.4,23.9c7.8,1.1,12.8,7,12.8,15.8v30.6c0,3.4-1.5,5-5,5h-16.7c-3.4,0-5-1.5-5-5V150
		c0-1.6-0.8-2.6-2.4-2.6h-13.3v23.8c0,3.4-1.5,5-5,5H316.7L316.7,176.2z"/>
	<path d="M405.5,171.3V119h-14.9c-3.4,0-5-1.5-5-5v-13.1c0-3.4,1.5-5,5-5H448c3.4,0,5,1.5,5,5v13.1c0,3.4-1.5,5-5,5h-14.9v52.3
		c0,3.4-1.5,5-5,5h-17.6C407,176.2,405.5,174.7,405.5,171.3z"/>
	<path d="M459.7,171.3v-53.8c0-13.6,5.8-23.3,34-23.3c28.4,0,34.2,9.7,34.2,23.3v53.8c0,3.4-1.5,5-5,5h-16.6c-3.4,0-5-1.5-5-5v-15.1
		h-15.8v15.1c0,3.4-1.5,5-5,5h-16C461.2,176.2,459.7,174.7,459.7,171.3z M485.7,134.1h15.8v-13c0-2.6-1.8-4-7.8-4
		c-6.1,0-7.9,1.4-7.9,4V134.1L485.7,134.1z"/>
	<path d="M562.7,176.2h-17.3c-3.4,0-5-1.5-5-5v-70.5c0-3.4,1.5-5,5-5h17.3c3.4,0,5,1.5,5,5v70.5
		C567.6,174.7,566.1,176.2,562.7,176.2z"/>
	<path d="M580.6,171.3v-70.5c0-3.4,1.5-5,5-5h16.9c3.4,0,5,1.5,5,5v52.3h26.6c3.4,0,5,1.5,5,5v13.1c0,3.4-1.5,5-5,5h-48.5
		C582.1,176.2,580.6,174.7,580.6,171.3z"/>
	<path d="M684.4,176.2H650c-3.4,0-5-1.5-5-5v-12.7c0-3.4,1.5-5,5-5h29.3c1.2,0,1.8-1,1.8-2.1c0-1.6-0.6-2.5-1.8-2.6l-16.3-2.3
		c-10.9-1.6-17.8-6.3-17.8-19.1v-11.4c0-13,8.7-20.2,23.6-20.2h30.5c3.4,0,5,1.5,5,5v13c0,3.4-1.5,5-5,5h-25.4c-1.2,0-1.8,1-1.8,2.2
		c0,1.3,0.6,2.3,1.9,2.4l16.2,2.2c10.9,1.6,17.9,6.3,17.9,19.1v11.4C707.9,169,699.1,176.2,684.4,176.2z"/>
</g>
<path fill="#FFFFFF" d="M122.2,175.3c-18.2,0-26.7-7-26.7-22.2v-33.8c0-15.2,8.5-22.3,26.7-22.3h26.6c2.7,0,3.9,1.2,3.9,3.9V114
	c0,2.7-1.2,3.9-3.9,3.9h-21.9c-4.6,0-6.6,1.8-6.6,5.4v25.8c0,3.6,2.1,5.2,6.6,5.2h21.8c2.7,0,3.9,1.2,3.9,3.9v13
	c0,2.7-1.2,3.9-3.9,3.9L122.2,175.3C122.2,175.2,122.2,175.3,122.2,175.3z"/>
<path fill="#FFFFFF" d="M196.9,176.9c-27.2,0-33.8-8.9-33.8-22.2v-37c0-13.3,6.6-22.3,33.8-22.3s33.7,9,33.7,22.3v37
	C230.7,167.9,224.1,176.9,196.9,176.9z M196.9,155.9c7.9,0,9.1-2.2,9.1-5.1v-29.3c0-2.8-1.2-5-9.1-5c-7.8,0-9.1,2.2-9.1,5v29.3
	C187.8,153.7,189.2,155.9,196.9,155.9z"/>
<path fill="#FFFFFF" d="M270,175.3c-18.2,0-26.7-7-26.7-22.2v-33.8c0-15.2,8.5-22.3,26.7-22.3h26.6c2.7,0,3.9,1.2,3.9,3.9V114
	c0,2.7-1.2,3.9-3.9,3.9h-21.8c-4.6,0-6.6,1.8-6.6,5.4v25.8c0,3.6,2.1,5.2,6.6,5.2h21.8c2.7,0,3.9,1.2,3.9,3.9v13
	c0,2.7-1.2,3.9-3.9,3.9L270,175.3L270,175.3z"/>
<path fill="#FFFFFF" d="M316.7,175.3c-2.7,0-3.9-1.2-3.9-3.9v-70.5c0-2.7,1.2-3.9,3.9-3.9h16.9c2.7,0,3.9,1.2,3.9,3.9v25h4.3
	l11.2-25.4c1.1-2.6,2.6-3.6,5.4-3.6h16.7c2.5,0,3.4,1.3,2.4,3.6l-11.1,25.4c8.2,0.4,13.4,6.1,13.4,14.8v30.6c0,2.7-1.2,3.9-3.9,3.9
	h-16.7c-2.7,0-3.9-1.2-3.9-3.9v-21.2c0-2.4-1.2-3.7-3.4-3.7h-14.3v24.9c0,2.7-1.2,3.9-3.9,3.9H316.7L316.7,175.3z"/>
<path fill="#FFFFFF" d="M410.4,175.3c-2.7,0-3.9-1.2-3.9-3.9V118h-16c-2.7,0-3.9-1.2-3.9-3.9V101c0-2.7,1.2-3.9,3.9-3.9H448
	c2.7,0,3.9,1.2,3.9,3.9v13.1c0,2.7-1.2,3.9-3.9,3.9h-16v53.4c0,2.7-1.2,3.9-3.9,3.9H410.4z"/>
<path fill="#FFFFFF" d="M480.7,175.3h-16c-2.7,0-3.9-1.2-3.9-3.9v-53.8c0-13.1,6-22.2,33-22.2c27,0,33.1,9,33.1,22.2v53.8
	c0,2.7-1.2,3.9-3.9,3.9h-16.6c-2.7,0-3.9-1.2-3.9-3.9v-16.2h-17.9v16.2C484.6,174.1,483.4,175.3,480.7,175.3z M484.6,135.2h17.9v-14
	c0-3-1.3-5.1-8.9-5.1c-7.7,0-9,2.2-9,5.1L484.6,135.2L484.6,135.2z"/>
<path fill="#FFFFFF" d="M545.4,175.3c-2.7,0-3.9-1.2-3.9-3.9v-70.5c0-2.7,1.2-3.9,3.9-3.9h17.3c2.7,0,3.9,1.2,3.9,3.9v70.5
	c0,2.7-1.2,3.9-3.9,3.9H545.4L545.4,175.3z"/>
<path fill="#FFFFFF" d="M606.4,100.9v53.4h27.8c2.7,0,3.9,1.2,3.9,3.9v13.1c0,2.7-1.2,3.9-3.9,3.9h-48.5c-2.7,0-3.9-1.2-3.9-3.9
	v-70.5c0-2.7,1.2-3.9,3.9-3.9h16.9C605.2,97,606.4,98.2,606.4,100.9z"/>
<path fill="#FFFFFF" d="M650,175.3c-2.7,0-3.9-1.2-3.9-3.9v-12.7c0-2.7,1.2-3.9,3.9-3.9h29.3c1.8,0,2.8-1.4,2.8-3.1
	c0-2.5-1-3.4-2.8-3.7l-16.3-2.3c-10.2-1.5-16.9-5.8-16.9-18.1v-11.4c0-12.4,8.4-19.1,22.5-19.1H699c2.7,0,3.9,1.2,3.9,3.9v13
	c0,2.7-1.2,3.9-3.9,3.9h-25.4c-1.8,0-3,1.3-3,3.3s1.1,3.3,3,3.4l16.2,2.2c10.2,1.5,17,5.8,17,18.1v11.4c0,12.4-8.5,19.1-22.5,19.1
	H650L650,175.3z"/>
<g>
	<path fill="#DDDDDD" d="M142.7,165.5h-18.2c-14.2,0-17.4-3.9-17.4-14V121c0-10.3,3.4-14.2,17.4-14.2h18.2v1.1h-18.2
		c-12.8,0-16.3,3.4-16.3,13.1v30.5c0,9.4,3.3,13,16.3,13h18.2C142.7,164.5,142.7,165.5,142.7,165.5z"/>
	<path fill="#DDDDDD" d="M196.8,167c-17,0-21.8-5.8-21.8-14.6v-32.1c0-8.8,4.8-14.6,21.8-14.6s22.1,5.8,22.1,14.6v32.1
		C218.8,161.1,213.8,167,196.8,167z M196.8,165.8c16.2,0,21-5.4,21-13.6v-32.1c0-8.2-4.8-13.6-21-13.6S176,112,176,120.2v32.1
		C176,160.4,180.5,165.8,196.8,165.8z"/>
	<path fill="#DDDDDD" d="M290.6,165.5h-18.2c-14.2,0-17.4-3.9-17.4-14V121c0-10.3,3.4-14.2,17.4-14.2h18.2v1.1h-18.2
		c-12.8,0-16.3,3.4-16.3,13.1v30.5c0,9.4,3.3,13,16.3,13h18.2V165.5z"/>
	<path fill="#DDDDDD" d="M324.6,165.5v-58.7h1.1v28.9h23.6l12.5-28.9h1.2l-12.5,28.9h4.5c8.9,0,13.1,3,13.1,10.6v19.1H367v-19.1
		c0-7-4-9.6-12.1-9.6h-29.3v28.7L324.6,165.5L324.6,165.5z"/>
	<path fill="#DDDDDD" d="M418.8,107.9h-22.3v-1.1h45.7v1.1h-22.3v57.6h-1.1L418.8,107.9L418.8,107.9z"/>
	<path fill="#DDDDDD" d="M514.2,145.8h-40.3v19.7h-1.1v-45.4c0-8.8,4-14.6,21.1-14.6c17,0,21.4,5.8,21.4,14.6v45.4h-1.1V145.8z
		 M473.9,144.8h40.3v-24.6c0-8.2-4.2-13.6-20.3-13.6s-20,5.4-20,13.6L473.9,144.8L473.9,144.8z"/>
	<path fill="#DDDDDD" d="M554.6,106.8v58.7h-1.1v-58.7H554.6L554.6,106.8z"/>
	<path fill="#DDDDDD" d="M594.6,106.8v57.6h33.6v1.1h-34.7v-58.7H594.6L594.6,106.8z"/>
	<path fill="#DDDDDD" d="M693.2,107.9H669c-6.1,0-10,3.7-10,8.8v8.9c0,5.1,2.2,6.6,5.5,7.3l23,4.6c4.3,0.9,7.5,3,7.5,10.6v6.3
		c0,6.4-4.6,11-12.1,11h-27v-1.1h27c6.7,0,11-4.2,11-9.9v-6.3c0-6.9-2.6-8.7-6.6-9.6l-23-4.6c-3.8-0.8-6.4-2.4-6.4-8.4v-8.9
		c0-5.8,4.3-9.9,11.1-9.9h24.2L693.2,107.9L693.2,107.9z"/>
</g>
<g>
	<path fill="#DA4226" d="M93.3,63.5V19.8c0-2.2,1-3.1,3.1-3.1h10.4c2.2,0,3.1,1,3.1,3.1v13.9h9.9V19.8c0-2.2,1-3.1,3.1-3.1h10.5
		c2.2,0,3.1,1,3.1,3.1v43.7c0,2.2-1,3.1-3.1,3.1H123c-2.2,0-3.1-1-3.1-3.1V49.2H110v14.3c0,2.2-1,3.1-3.1,3.1H96.4
		C94.3,66.6,93.3,65.7,93.3,63.5z M109.3,63.5v-15h11.3v15c0,1.7,0.7,2.4,2.4,2.4h10.5c1.7,0,2.4-0.7,2.4-2.4V19.8
		c0-1.7-0.7-2.4-2.4-2.4H123c-1.7,0-2.4,0.7-2.4,2.4v14.6h-11.3V19.8c0-1.7-0.7-2.4-2.4-2.4H96.4c-1.7,0-2.4,0.7-2.4,2.4v43.7
		c0,1.7,0.7,2.4,2.4,2.4h10.4C108.5,65.9,109.3,65.2,109.3,63.5z M101.2,23.5h0.6v17.8h25.8V23.5h0.6v36.3h-0.6V42h-25.8v17.8h-0.6
		C101.2,59.8,101.2,23.5,101.2,23.5z"/>
	<path fill="#DA4226" d="M186.9,53.2c0,8.5-3.9,14.4-21.6,14.4s-21.6-5.9-21.6-14.4v-23c0-8.5,4-14.5,21.6-14.5s21.6,6,21.6,14.5
		V53.2z M186.3,30.2c0-8.2-4.1-13.8-20.9-13.8s-21,5.6-21,13.8v23c0,8.2,4.1,13.8,21,13.8s20.9-5.5,20.9-13.8V30.2z M165.2,60.7
		c-10.6,0-13.5-3.6-13.5-9.1V31.8c0-5.4,3-9.1,13.5-9.1c10.6,0,13.7,3.6,13.7,9.1v19.9C178.9,57.1,175.8,60.7,165.2,60.7z
		 M165.2,60.1c10.1,0,13-3.4,13-8.4V31.8c0-5-3-8.4-13-8.4c-10.1,0-12.9,3.4-12.9,8.4v19.9C152.4,56.7,155.2,60.1,165.2,60.1z
		 M159.7,32.6c0-1.8,0.8-3.1,5.7-3.1s5.7,1.4,5.7,3.1v18.2c0,1.8-0.7,3.2-5.7,3.2c-4.9,0-5.7-1.4-5.7-3.2
		C159.7,50.8,159.7,32.6,159.7,32.6z M160.4,50.8c0,1.6,1.1,2.5,5,2.5s5-0.9,5-2.5V32.6c0-1.5-1.1-2.4-5-2.4c-3.8,0-5,0.9-5,2.4
		V50.8z"/>
	<path fill="#DA4226" d="M203.4,63.5V31.1h-9.2c-2.2,0-3.1-1-3.1-3.1v-8.2c0-2.2,1-3.1,3.1-3.1h35.6c2.2,0,3.1,1,3.1,3.1V28
		c0,2.2-1,3.1-3.1,3.1h-9.2v32.4c0,2.2-1,3.1-3.1,3.1h-10.9C204.4,66.6,203.4,65.7,203.4,63.5z M219.8,63.5V30.4h9.9
		c1.7,0,2.4-0.7,2.4-2.4v-8.2c0-1.7-0.7-2.4-2.4-2.4h-35.6c-1.7,0-2.4,0.7-2.4,2.4V28c0,1.7,0.7,2.4,2.4,2.4h9.9v33.1
		c0,1.7,0.7,2.4,2.4,2.4h10.9C219.1,65.9,219.8,65.2,219.8,63.5z M211.6,24.2h-13.8v-0.6h28.3v0.6h-13.8v35.7h-0.6L211.6,24.2
		L211.6,24.2z"/>
	<path fill="#DA4226" d="M252.5,63.5V19.8c0-2.2,1-3.1,3.1-3.1h30.1c2.2,0,3.1,1,3.1,3.1v8c0,2.2-1,3.1-3.1,3.1h-16.5v5.7h11
		c2.2,0,3.1,1,3.1,3.1v8.1c0,2.2-1,3.1-3.1,3.1h-11v12.6c0,2.2-1,3.1-3.1,3.1h-10.5C253.5,66.6,252.5,65.7,252.5,63.5z M268.5,63.5
		V50.2h11.8c1.7,0,2.4-0.7,2.4-2.4v-8.1c0-1.7-0.7-2.4-2.4-2.4h-11.8v-7h17.2c1.7,0,2.4-0.7,2.4-2.4v-8.1c0-1.7-0.7-2.4-2.4-2.4
		h-30.1c-1.7,0-2.4,0.7-2.4,2.4v43.7c0,1.7,0.7,2.4,2.4,2.4h10.5C267.7,65.9,268.5,65.2,268.5,63.5z M260.5,23.5H282v0.6h-20.8v19.3
		h15.4v0.6h-15.4v15.8h-0.6L260.5,23.5L260.5,23.5z"/>
	<path fill="#DA4226" d="M297.2,66.6c-2.2,0-3.1-1-3.1-3.1V19.8c0-2.2,1-3.1,3.1-3.1h22.5c10.7,0,13.9,4.9,13.9,11.9v3.1
		c0,3.3-0.7,5.8-2.6,7.4c4.2,1.2,7,4.8,7,10.1v14.3c0,2.2-1,3.1-3.1,3.1h-10.5c-2.2,0-3.1-1-3.1-3.1V53.2c0-1.5-0.5-2.2-1.9-2.2
		h-8.8v12.6c0,2.2-1,3.1-3.1,3.1H297.2z M310,63.5V50.3h9.4c1.9,0,2.6,0.9,2.6,2.9v10.3c0,1.7,0.7,2.4,2.4,2.4h10.5
		c1.7,0,2.4-0.7,2.4-2.4V49.2c0-5.7-3.2-9.2-8.2-9.8c2.8-1.2,3.8-3.9,3.8-7.7v-3.1c0-6.6-3.2-11.3-13.3-11.3h-22.4
		c-1.7,0-2.4,0.7-2.4,2.4v43.7c0,1.7,0.7,2.4,2.4,2.4h10.4C309.3,65.9,310,65.2,310,63.5z M302.1,59.8V23.5h15.4
		c5.3,0,7.7,3.2,7.7,7.7v4.6c0,4.1-0.8,6.8-4.1,7.8h0.7c5.5,0,8.2,2.5,8.2,7.2v9h-0.6v-9c0-4.5-2.3-6.6-7.5-6.6h-19v15.6H302.1z
		 M302.8,24.2v19.4h14.7c5.6,0,7-2.8,7-7.8v-4.7c0-4.2-2.2-7-7-7L302.8,24.2L302.8,24.2z M315.2,29.5c2.3,0,3,1.4,3,3.2V35
		c0,1.8-0.6,3.2-3,3.2h-5v-8.7H315.2z M310.8,30.2v7.3h4.4c1.9,0,2.3-1,2.3-2.5v-2.3c0-1.4-0.4-2.5-2.3-2.5
		C315.2,30.2,310.8,30.2,310.8,30.2z"/>
	<path fill="#DA4226" d="M344.3,63.5V19.8c0-2.2,1-3.1,3.1-3.1h31.3c2.2,0,3.1,1,3.1,3.1v7.9c0,2.2-1,3.1-3.1,3.1h-17.9v3.8h12.5
		c2.2,0,3.1,1,3.1,3.1V45c0,2.2-1,3.1-3.1,3.1h-12.5v4.5h17.9c2.2,0,3.1,1,3.1,3.1v7.9c0,2.2-1,3.1-3.1,3.1h-31.3
		C345.2,66.6,344.3,65.7,344.3,63.5z M381.1,63.5v-7.9c0-1.7-0.7-2.4-2.4-2.4H360v-5.8h13.1c1.7,0,2.4-0.7,2.4-2.4v-7.2
		c0-1.7-0.7-2.4-2.4-2.4H360v-5.2h18.6c1.7,0,2.4-0.7,2.4-2.4v-8c0-1.7-0.7-2.4-2.4-2.4h-31.3c-1.7,0-2.4,0.7-2.4,2.4v43.7
		c0,1.7,0.7,2.4,2.4,2.4h31.3C380.3,65.9,381.1,65.2,381.1,63.5z M375,59.8h-22.7V23.5H375v0.6h-22V41h16.6v0.6H353v17.4h22V59.8z"
		/>
	<path fill="#DA4226" d="M411.5,66.6h-21.3c-2.2,0-3.1-1-3.1-3.1v-7.9c0-2.2,1-3.1,3.1-3.1h18.2c0.7,0,1-0.6,1-1.3
		c0-1-0.3-1.5-1.1-1.6l-10.1-1.4c-6.7-1-11-3.9-11-11.8v-7c0-8.1,5.4-12.6,14.6-12.6h18.9c2.2,0,3.1,1,3.1,3.1v8
		c0,2.2-1,3.1-3.1,3.1H405c-0.7,0-1.1,0.6-1.1,1.4c0,0.8,0.4,1.4,1.2,1.5l10.1,1.4c6.7,1,11.1,3.9,11.1,11.8v7
		C426.1,62.2,420.7,66.6,411.5,66.6z M425.5,54.1v-7c0-7.5-4.2-10.2-10.5-11.2l-10.1-1.4c-1.1-0.2-1.8-1-1.8-2.2s0.6-2,1.8-2h15.7
		c1.7,0,2.4-0.7,2.4-2.4v-8.1c0-1.7-0.7-2.4-2.4-2.4h-18.9c-8.8,0-13.9,4.2-13.9,11.8v7c0,7.5,4.1,10.2,10.5,11.2l10.1,1.4
		c1.1,0.2,1.8,0.7,1.8,2.3c0,1-0.6,1.9-1.8,1.9h-18.2c-1.7,0-2.4,0.7-2.4,2.4v7.9c0,1.7,0.7,2.4,2.4,2.4h21.3
		C420.2,65.9,425.5,61.8,425.5,54.1z M417,24.2h-15c-3.8,0-6.2,2.3-6.2,5.4v5.5c0,3.2,1.4,4.1,3.4,4.5l14.2,2.9
		c2.7,0.6,4.6,1.9,4.6,6.6V53c0,4-2.9,6.8-7.5,6.8h-16.8v-0.6h16.8c4.2,0,6.8-2.6,6.8-6.2v-3.9c0-4.2-1.6-5.4-4.1-5.9l-14.2-2.9
		c-2.3-0.5-4-1.5-4-5.2v-5.5c0-3.6,2.7-6.2,6.9-6.2h15L417,24.2C416.9,24.2,417,24.2,417,24.2z"/>
	<path fill="#DA4226" d="M432.1,63.5V19.8c0-2.2,1-3.1,3.1-3.1h10.5c2.2,0,3.1,1,3.1,3.1v13.9h9.9V19.8c0-2.2,1-3.1,3.1-3.1h10.5
		c2.2,0,3.1,1,3.1,3.1v43.7c0,2.2-1,3.1-3.1,3.1h-10.5c-2.2,0-3.1-1-3.1-3.1V49.2h-9.9v14.3c0,2.2-1,3.1-3.1,3.1h-10.5
		C433.1,66.6,432.1,65.7,432.1,63.5z M448.1,63.5v-15h11.3v15c0,1.7,0.7,2.4,2.4,2.4h10.5c1.7,0,2.4-0.7,2.4-2.4V19.8
		c0-1.7-0.7-2.4-2.4-2.4h-10.5c-1.7,0-2.4,0.7-2.4,2.4v14.6h-11.3V19.8c0-1.7-0.7-2.4-2.4-2.4h-10.5c-1.7,0-2.4,0.7-2.4,2.4v43.7
		c0,1.7,0.7,2.4,2.4,2.4h10.5C447.4,65.9,448.1,65.2,448.1,63.5z M440.1,23.5h0.6v17.8h25.8V23.5h0.6v36.3h-0.6V42h-25.8v17.8h-0.6
		V23.5z"/>
	<path fill="#DA4226" d="M498.4,63.5V19.8c0-2.2,1-3.1,3.1-3.1h20.6c12.9,0,16.6,5.7,16.6,13.8v8.6c0,8.2-3.7,13.8-16.6,13.8h-7
		v10.5c0,2.2-1,3.1-3.1,3.1h-10.5C499.4,66.6,498.4,65.7,498.4,63.5z M514.4,63.5V52.3h7.8c12.2,0,15.9-5.4,15.9-13.1v-8.6
		c0-7.8-3.6-13.1-15.9-13.1h-20.6c-1.7,0-2.4,0.7-2.4,2.4v43.7c0,1.7,0.7,2.4,2.4,2.4H512C513.7,65.9,514.4,65.2,514.4,63.5z
		 M507.3,46.6v13.3h-0.6V23.5h14.6c8.5,0,10.1,3.9,10.1,9.2v5c0,5.3-1.6,9-10.1,9L507.3,46.6L507.3,46.6z M521.2,45.9
		c7.9,0,9.4-3.4,9.4-8.3v-5c0-4.9-1.5-8.5-9.4-8.5h-13.9v21.8C507.3,45.9,521.2,45.9,521.2,45.9z M520.4,30c2.6,0,3.2,1.5,3.2,3.3
		v3.6c0,1.8-0.6,3.3-3.2,3.3h-6.1V30H520.4z M515,30.7v8.8h5.4c2.1,0,2.5-1.3,2.5-2.6v-3.6c0-1.4-0.4-2.6-2.5-2.6L515,30.7L515,30.7
		z"/>
	<path fill="#DA4226" d="M543.3,63.5v-8c0-2.2,1-3.1,3.1-3.1h6V31.1h-6c-2.2,0-3.1-1-3.1-3.1v-8.2c0-2.2,1-3.1,3.1-3.1h28.7
		c2.2,0,3.1,1,3.1,3.1V28c0,2.2-1,3.1-3.1,3.1h-5.8v21.3h5.8c2.2,0,3.1,1,3.1,3.1v8c0,2.2-1,3.1-3.1,3.1h-28.7
		C544.3,66.6,543.3,65.7,543.3,63.5z M575.2,65.9c1.7,0,2.4-0.7,2.4-2.4v-8c0-1.7-0.7-2.4-2.4-2.4h-6.6V30.4h6.6
		c1.7,0,2.4-0.7,2.4-2.4v-8.2c0-1.7-0.7-2.4-2.4-2.4h-28.7c-1.7,0-2.4,0.7-2.4,2.4V28c0,1.7,0.7,2.4,2.4,2.4h6.6V53h-6.6
		c-1.7,0-2.4,0.7-2.4,2.4v8c0,1.7,0.7,2.4,2.4,2.4L575.2,65.9L575.2,65.9z M550.1,59.8v-0.6h10.5v-35h-10.5v-0.6h21.4v0.6h-10.3v35
		h10.3v0.6H550.1z"/>
	<path fill="#DA4226" d="M583.6,63.5v-9c0-1.9,0.6-3.2,1.8-4.6L601,31.1h-13c-2.2,0-3.1-1-3.1-3.1v-8.2c0-2.2,1-3.1,3.1-3.1h31
		c2.2,0,3.1,1,3.1,3.1v10.1c0,2-0.6,3.3-1.8,4.6l-14.7,17.8h14.7c2.2,0,3.1,1,3.1,3.1v8c0,2.2-1,3.1-3.1,3.1h-33.4
		C584.6,66.6,583.6,65.7,583.6,63.5z M622.6,63.5v-8c0-1.7-0.7-2.4-2.4-2.4h-16.1l15.6-19c1.2-1.3,1.7-2.4,1.7-4.2V19.8
		c0-1.7-0.7-2.4-2.4-2.4h-31c-1.7,0-2.4,0.7-2.4,2.4V28c0,1.7,0.7,2.4,2.4,2.4h14.4L586,50.3c-1.2,1.3-1.7,2.4-1.7,4.2v9
		c0,1.7,0.7,2.4,2.4,2.4h33.4C621.9,65.9,622.6,65.2,622.6,63.5z M593.3,54.6c-0.6,0.8-1,1.2-1,2.1v1c0,1.3,0.6,1.5,1.4,1.5h22.7
		v0.6h-22.7c-1.5,0-2.1-0.6-2.1-2.2v-1c0-1,0.5-1.7,1.1-2.5l19.8-25.4c0.6-0.8,1-1.2,1-2.1v-1c0-1.3-0.6-1.5-1.4-1.5h-20.5v-0.6
		h20.6c1.5,0,2.1,0.6,2.1,2.2v1c0,1-0.5,1.7-1.1,2.5L593.3,54.6z"/>
	<path fill="#DA4226" d="M627.8,63.5v-9c0-1.9,0.6-3.2,1.8-4.6l15.5-18.8h-13c-2.2,0-3.1-1-3.1-3.1v-8.2c0-2.2,1-3.1,3.1-3.1h31
		c2.2,0,3.1,1,3.1,3.1v10.1c0,2-0.6,3.3-1.8,4.6l-14.7,17.8h14.7c2.2,0,3.1,1,3.1,3.1v8c0,2.2-1,3.1-3.1,3.1H631
		C628.8,66.6,627.8,65.7,627.8,63.5z M666.8,63.5v-8c0-1.7-0.7-2.4-2.4-2.4h-16.1l15.6-19c1.2-1.3,1.7-2.4,1.7-4.2V19.8
		c0-1.7-0.7-2.4-2.4-2.4h-31c-1.7,0-2.4,0.7-2.4,2.4V28c0,1.7,0.7,2.4,2.4,2.4h14.4l-16.4,19.9c-1.2,1.3-1.7,2.4-1.7,4.2v9
		c0,1.7,0.7,2.4,2.4,2.4h33.4C666,65.9,666.8,65.2,666.8,63.5z M637.5,54.6c-0.6,0.8-1,1.2-1,2.1v1c0,1.3,0.6,1.5,1.4,1.5h22.7v0.6
		H638c-1.5,0-2.1-0.6-2.1-2.2v-1c0-1,0.5-1.7,1.1-2.5l19.8-25.4c0.6-0.8,1-1.2,1-2.1v-1c0-1.3-0.6-1.5-1.4-1.5h-20.6v-0.6h20.6
		c1.5,0,2.1,0.6,2.1,2.2v1c0,1-0.5,1.7-1.1,2.5L637.5,54.6z"/>
	<path fill="#DA4226" d="M672.8,63.5V45.8c0-2.8,0.8-6.2,2.7-11l5.8-15.2c0.6-1.9,1.9-2.7,4.1-2.7h18.2c2.1,0,3.4,0.8,4,2.6
		l5.8,15.3c1.9,4.9,2.7,8.3,2.7,11v17.8c0,2.2-1,3.1-3.1,3.1h-10.2c-2.3,0-3.3-1-3.3-3.1v-8.8H689v8.8c0,2.2-1,3.1-3.1,3.1H676
		C673.8,66.6,672.8,65.7,672.8,63.5z M688.3,54.1h11.9v9.4c0,1.7,0.8,2.4,2.6,2.4H713c1.7,0,2.4-0.7,2.4-2.4V45.8
		c0-2.7-0.8-6.1-2.6-10.8l-5.8-15.3c-0.6-1.5-1.6-2.2-3.4-2.2h-18.2c-1.8,0-2.9,0.6-3.4,2.2L676.1,35c-1.8,4.7-2.6,8.1-2.6,10.8
		v17.8c0,1.7,0.7,2.4,2.4,2.4h9.9c1.7,0,2.4-0.7,2.4-2.4L688.3,54.1L688.3,54.1z M707.6,48.3h-26.3v11.5h-0.6V45.5
		c0-2.5,0.4-4.6,1.1-6.6l4.3-11c1-2.5,1.8-4.5,4.9-4.5h6.6c3,0,3.8,1.9,4.9,4.5l4.6,11c0.7,1.9,1.1,4.1,1.1,6.6v14.4h-0.6V48.3z
		 M681.3,47.6h26.3v-2.1c0-2.4-0.4-4.5-1-6.2l-4.6-11c-1-2.3-1.8-4.1-4.2-4.1h-6.6c-2.7,0-3.4,1.8-4.3,4.1l-4.3,11
		c-0.6,1.8-1,3.8-1,6.2L681.3,47.6L681.3,47.6z M693.4,30.4h1.7c0.6,0,1,0.3,1.3,1.1l3.2,10.2H689l3.2-10.2
		C692.4,30.7,692.8,30.4,693.4,30.4z M695.7,31.8c-0.2-0.4-0.3-0.7-0.6-0.7h-1.7c-0.3,0-0.5,0.3-0.6,0.7l0.1-0.1l-2.9,9.4h8.7
		L695.7,31.8L695.7,31.8z"/>
</g>
<path fill="#FFFFFF" d="M199.2,784.2H98c-3.2,0-4.6-1.4-4.6-4.6V678.5c0-3.2,1.4-4.6,4.6-4.6h101.2c3.2,0,4.6,1.4,4.6,4.6v101.2
	C203.9,782.9,202.4,784.2,199.2,784.2z"/>
<path fill="#FFFFFF" d="M327.7,784.2H226.5c-3.2,0-4.6-1.4-4.6-4.6V678.5c0-3.2,1.4-4.6,4.6-4.6h101.2c3.2,0,4.6,1.4,4.6,4.6v101.2
	C332.4,782.9,330.9,784.2,327.7,784.2z"/>
<path fill="#FFFFFF" d="M456.2,784.2H355c-3.2,0-4.6-1.4-4.6-4.6V678.5c0-3.2,1.4-4.6,4.6-4.6h101.2c3.2,0,4.6,1.4,4.6,4.6v101.2
	C460.8,782.9,459.4,784.2,456.2,784.2z"/>
<path fill="#FFFFFF" d="M584.7,784.2H483.5c-3.2,0-4.6-1.4-4.6-4.6V678.5c0-3.2,1.4-4.6,4.6-4.6h101.2c3.2,0,4.6,1.4,4.6,4.6v101.2
	C589.2,782.9,587.9,784.2,584.7,784.2z"/>
<path fill="#FFFFFF" d="M713.2,784.2H612c-3.2,0-4.6-1.4-4.6-4.6V678.5c0-3.2,1.4-4.6,4.6-4.6h101.2c3.2,0,4.6,1.4,4.6,4.6v101.2
	C717.7,782.9,716.4,784.2,713.2,784.2z"/>
<path fill="#7A6521" d="M199.2,783.4H98c-2.5,0-3.6-1.1-3.6-3.6V678.6c0-2.5,1.1-3.6,3.6-3.6h101.2c2.5,0,3.6,1.1,3.6,3.6v101.2
	C202.8,782.2,201.7,783.4,199.2,783.4z"/>
<path fill="#7A6521" d="M327.7,783.4H226.5c-2.5,0-3.6-1.1-3.6-3.6V678.6c0-2.5,1.1-3.6,3.6-3.6h101.2c2.5,0,3.6,1.1,3.6,3.6v101.2
	C331.3,782.2,330.2,783.4,327.7,783.4z"/>
<path fill="#7A6521" d="M456.2,783.4H355c-2.5,0-3.6-1.1-3.6-3.6V678.6c0-2.5,1.1-3.6,3.6-3.6h101.2c2.5,0,3.6,1.1,3.6,3.6v101.2
	C459.8,782.2,458.7,783.4,456.2,783.4z"/>
<path fill="#7A6521" d="M584.7,783.4H483.5c-2.5,0-3.6-1.1-3.6-3.6V678.6c0-2.5,1.1-3.6,3.6-3.6h101.2c2.5,0,3.6,1.1,3.6,3.6v101.2
	C588.3,782.2,587.2,783.4,584.7,783.4z"/>
<path fill="#7A6521" d="M713.2,783.4H612c-2.5,0-3.6-1.1-3.6-3.6V678.6c0-2.5,1.1-3.6,3.6-3.6h101.2c2.5,0,3.6,1.1,3.6,3.6v101.2
	C716.8,782.2,715.6,783.4,713.2,783.4z"/>
<path fill="#E0C74B" d="M96.4,677h104.4v104.4H96.4V677z M199.8,678H97.4v102.4h102.4V678z"/>
<path fill="#E0C74B" d="M224.9,677h104.4v104.4H224.9V677z M328.3,678H225.9v102.4h102.4V678z"/>
<path fill="#E0C74B" d="M353.4,677h104.4v104.4H353.4V677z M456.8,678H354.4v102.4h102.4V678z"/>
<path fill="#E0C74B" d="M481.9,677h104.4v104.4H481.9V677z M585.2,678H482.8v102.4h102.4V678z"/>
<path fill="#E0C74B" d="M610.4,677h104.4v104.4H610.4V677z M713.7,678H611.3v102.4h102.4V678z"/>
<path fill="#FFFFFF" d="M128,765.4h-11.8c-2.5,0-3.6-1.1-3.6-3.6v-49.7c0-12.2,4.8-20.5,20-20.5c7.5,0,12.2,1.8,15,5
	c2.8-3.2,7.5-5,15-5c15.1,0,20,8.2,20,20.5v49.7c0,2.5-1.1,3.6-3.6,3.6h-11.8c-2.6,0-3.6-1.1-3.6-3.6v-46.5c0-2.7-0.7-4-3.3-4
	c-2.6,0-3.2,1.3-3.2,4v46.5c0,2.5-1.1,3.6-3.6,3.6h-11.8c-2.5,0-3.6-1.1-3.6-3.6v-46.5c0-2.7-0.6-4-3.2-4s-3.3,1.3-3.3,4v46.5
	C131.6,764.3,130.6,765.4,128,765.4z M135,702c9.4,0,12.2,5,12.2,12.6v41.8h1v-41.8c0-7.5,2.7-12.6,12.2-12.6
	c9.4,0,12.2,5,12.2,12.6v41.8h1v-41.8c0-8.2-2.9-13.5-13.1-13.5c-8.2,0-11.7,3.4-12.7,9c-1.1-5.5-4.5-9-12.6-9
	c-10.2,0-13.4,5.4-13.4,13.5v41.8h1v-41.8C122.7,707,125.6,702,135,702z"/>
<path fill="#FFFFFF" d="M276.1,767c-24.6,0-30.5-8.2-30.5-20.5v-34.2c0-12.2,5.9-20.6,30.5-20.6s30.5,8.3,30.5,20.6v34.2
	C306.6,758.7,300.7,767,276.1,767z M295.8,714.6c0-8.2-4.5-13.5-19.8-13.5c-15.3,0-19.4,5.4-19.4,13.5v29.6
	c0,8.2,4.2,13.5,19.4,13.5c15.2,0,19.8-5.4,19.8-13.5V714.6z M257.6,714.6c0-7.5,4-12.6,18.5-12.6s18.8,5,18.8,12.6v29.6
	c0,7.5-4.3,12.6-18.8,12.6s-18.5-5-18.5-12.6L257.6,714.6L257.6,714.6z M276.1,747.5c6.7,0,7.8-2,7.8-4.7v-27c0-2.6-1.1-4.6-7.8-4.6
	c-6.6,0-7.8,2-7.8,4.6v27C268.4,745.5,269.5,747.5,276.1,747.5z"/>
<path fill="#FFFFFF" d="M396.2,765.4c-2.5,0-3.6-1.1-3.6-3.6v-49.3h-14.5c-2.5,0-3.6-1.1-3.6-3.6v-12.2c0-2.5,1.1-3.6,3.6-3.6h53
	c2.5,0,3.6,1.1,3.6,3.6V709c0,2.5-1.1,3.6-3.6,3.6h-14.5v49.3c0,2.5-1.1,3.6-3.6,3.6H396.2z M405.1,756.4v-53.2h20.6v-1h-42.2v1H404
	v53.2H405.1z"/>
<path fill="#FFFFFF" d="M506.7,765.4c-2.5,0-3.6-1.1-3.6-3.6v-65c0-2.5,1.1-3.6,3.6-3.6h52c2.5,0,3.6,1.1,3.6,3.6v11.8
	c0,2.5-1.1,3.6-3.6,3.6h-33.1v7.8h25c2.5,0,3.6,1,3.6,3.6v10.7c0,2.5-1.1,3.6-3.6,3.6h-25v8.6h33.1c2.5,0,3.6,1.1,3.6,3.6v11.8
	c0,2.5-1.1,3.6-3.6,3.6L506.7,765.4L506.7,765.4z M514.8,755.4v-26h30.3v-1h-30.3v-25.2h38.5v-1h-39.4v54.2h39.4v-1h-38.5V755.4z"/>
<path fill="#FFFFFF" d="M654.3,696.8v49.3h32.8c2.5,0,3.6,1.1,3.6,3.6v12.2c0,2.5-1.1,3.6-3.6,3.6h-52c-2.5,0-3.6-1.1-3.6-3.6v-65
	c0-2.5,1.1-3.6,3.6-3.6h15.5C653.2,693.1,654.3,694.2,654.3,696.8z M681.7,756.4v-1h-38.2v-53.2h-1v54.2L681.7,756.4L681.7,756.4z"
	/>
<g>
	<path fill="#102B33" d="M116.1,641.2c-19.1,0-23.8-6.3-23.8-15.6v-26.2c0-9.4,4.6-15.7,23.8-15.7c19.1,0,23.8,6.3,23.8,15.7v26.2
		C139.9,634.9,135.2,641.2,116.1,641.2z M116.1,626.4c5.6,0,6.4-1.5,6.4-3.6v-20.6c0-2-0.9-3.5-6.4-3.5s-6.4,1.5-6.4,3.5v20.6
		C109.6,624.9,110.6,626.4,116.1,626.4z"/>
	<path fill="#102B33" d="M152.4,640.1c-1.9,0-2.7-0.9-2.7-2.7v-49.6c0-1.9,0.9-2.7,2.7-2.7h23.4c13.9,0,18.1,6.1,18.1,15v9.8
		c0,8.9-4.2,15-18.1,15H167v12.7c0,1.9-0.9,2.7-2.7,2.7h-11.9V640.1z M166.8,610.8h6.9c3,0,3.6-1.8,3.6-3.8V603c0-2-0.6-3.8-3.6-3.8
		h-6.9V610.8z"/>
	<path fill="#102B33" d="M204.6,640.1c-1.9,0-2.7-0.9-2.7-2.7v-49.6c0-1.9,0.9-2.7,2.7-2.7h35.5c1.9,0,2.7,0.9,2.7,2.7v8.9
		c0,1.9-0.9,2.7-2.7,2.7H219v5.9h15c1.9,0,2.7,0.9,2.7,2.7v8.2c0,1.9-0.9,2.7-2.7,2.7h-15v6.6h21.1c1.9,0,2.7,0.9,2.7,2.7v9
		c0,1.9-0.9,2.7-2.7,2.7h-35.5V640.1z"/>
	<path fill="#102B33" d="M254.7,640.1c-1.9,0-2.7-0.9-2.7-2.7v-49.6c0-1.9,0.9-2.7,2.7-2.7h8c2,0,3.2,0.6,4.5,2.1l14.9,17v-16.3
		c0-1.9,0.9-2.7,2.7-2.7h11.5c1.9,0,2.7,0.9,2.7,2.7v49.6c0,1.9-0.9,2.7-2.7,2.7h-11.5c-1.9,0-2.7-0.9-2.7-2.7v-9.6L268.9,612v25.3
		c0,1.9-0.9,2.7-2.7,2.7L254.7,640.1L254.7,640.1L254.7,640.1z"/>
	<path fill="#102B33" d="M327.4,640.1c-1.9,0-2.7-0.9-2.7-2.7v-13.2c0-11.8,5-14.6,12-16.8l10.2-3.2c1.6-0.5,2.1-1,2.1-2.7
		c0-1.5-0.6-2-2.1-2h-16.6c-1.9,0-2.7-0.9-2.7-2.7v-9c0-1.9,0.9-2.7,2.7-2.7h22.6c8.7,0,13.5,4.5,13.5,12.7v7.2
		c0,7.8-4.5,11.3-11.9,13.5l-10.4,3.3c-1.5,0.5-2,0.6-2,2.3v1.6h21.8c1.9,0,2.7,0.9,2.7,2.7v9c0,1.9-0.9,2.7-2.7,2.7H327.4z"/>
	<path fill="#102B33" d="M388.8,627.3c-9.9,0-13.9-4-13.9-12.7v-26.9c0-1.9,0.9-2.7,2.7-2.7h11.8c1.9,0,2.7,0.9,2.7,2.7v21
		c0,1.6,0.9,2.6,2.4,2.6h7.1v-23.6c0-1.9,0.9-2.7,2.7-2.7h11.8c1.9,0,2.7,0.9,2.7,2.7v49.6c0,1.9-0.9,2.7-2.7,2.7h-11.8
		c-1.9,0-2.7-0.9-2.7-2.7v-10H388.8z"/>
	<path fill="#102B33" d="M449.7,640.1c-1.9,0-2.7-0.9-2.7-2.7v-49.6c0-1.9,0.9-2.7,2.7-2.7h11.8c1.9,0,2.7,0.9,2.7,2.7v16.6h12.8
		v-16.6c0-1.9,0.9-2.7,2.7-2.7h11.8c1.9,0,2.7,0.9,2.7,2.7v49.6c0,1.9-0.9,2.7-2.7,2.7h-11.8c-1.9,0-2.7-0.9-2.7-2.7v-17h-12.8v17
		c0,1.9-0.9,2.7-2.7,2.7H449.7z"/>
	<path fill="#102B33" d="M528,641.2c-19.1,0-23.8-6.3-23.8-15.6v-26.2c0-9.4,4.6-15.7,23.8-15.7c19.1,0,23.8,6.3,23.8,15.7v26.2
		C551.8,634.9,547.2,641.2,528,641.2z M528,626.4c5.6,0,6.4-1.5,6.4-3.6v-20.6c0-2-0.9-3.5-6.4-3.5s-6.4,1.5-6.4,3.5v20.6
		C521.6,624.9,522.5,626.4,528,626.4z"/>
	<path fill="#102B33" d="M584.8,641.2c-19,0-23.7-6.3-23.7-15.6v-37.9c0-1.9,0.9-2.7,2.7-2.7h12c1.9,0,2.7,0.9,2.7,2.7v35
		c0,2.1,0.9,3.6,6.3,3.6c5.4,0,6.3-1.5,6.3-3.6v-35c0-1.9,0.8-2.7,2.7-2.7h11.7c1.9,0,2.7,0.9,2.7,2.7v37.9
		C608.4,634.9,603.8,641.2,584.8,641.2z"/>
	<path fill="#102B33" d="M621.4,640.1c-1.9,0-2.7-0.9-2.7-2.7v-49.6c0-1.9,0.9-2.7,2.7-2.7h25.5c11.5,0,15.1,5.2,15.1,12.8v3.5
		c0,4.3-1,7.4-4.3,8.7c5.6,0.6,9.3,4.6,9.3,11.1v16.2c0,1.9-0.9,2.7-2.7,2.7h-11.8c-1.9,0-2.7-0.9-2.7-2.7v-11.8
		c0-2.3-0.8-3.3-2.9-3.3h-10.7v15c0,1.9-0.9,2.7-2.7,2.7L621.4,640.1L621.4,640.1L621.4,640.1z M636,608.5h5.8
		c2.7,0,3.4-1.5,3.4-3.6v-2.6c0-2.1-0.7-3.6-3.4-3.6H636V608.5z"/>
	<path fill="#102B33" d="M676.9,640.1c-1.9,0-2.7-0.9-2.7-2.7v-9c0-1.9,0.9-2.7,2.7-2.7h20.6c1.3,0,2-1,2-2.2c0-1.8-0.7-2.5-2-2.6
		l-11.5-1.6c-7.2-1-11.8-4.2-11.8-12.7v-8.1c0-8.7,5.9-13.5,15.8-13.5h21.4c1.9,0,2.7,0.9,2.7,2.7v9.1c0,1.9-0.9,2.7-2.7,2.7h-17.8
		c-1.3,0-2.1,1-2.1,2.3s0.8,2.3,2.1,2.5l11.4,1.5c7.2,1,11.9,4.2,11.9,12.7v8.1c0,8.7-6,13.5-15.8,13.5L676.9,640.1L676.9,640.1z"/>
	<path fill="#28515B" d="M116,634.2c-12,0-15.4-4.2-15.4-10.3v-22.6c0-6.2,3.4-10.3,15.4-10.3s15.5,4.2,15.5,10.3v22.6
		C131.5,630,128,634.2,116,634.2z M116,633.4c11.4,0,14.8-3.8,14.8-9.6v-22.6c0-5.8-3.4-9.6-14.8-9.6s-14.6,3.8-14.6,9.6v22.6
		C101.3,629.5,104.5,633.4,116,633.4z"/>
	<path fill="#28515B" d="M158.9,618.1v15.1h-0.8v-41.4h16.6c9.7,0,11.5,4.5,11.5,10.4v5.7c0,6-1.8,10.2-11.5,10.2H158.9z
		 M174.7,617.3c9,0,10.7-3.9,10.7-9.4v-5.6c0-5.5-1.7-9.7-10.7-9.7h-15.8v24.7L174.7,617.3L174.7,617.3z"/>
	<path fill="#28515B" d="M236,633.1h-25.8v-41.4H236v0.8h-25v19.2h18.9v0.8h-18.9v19.8h25V633.1L236,633.1z"/>
	<path fill="#28515B" d="M290.2,624.1v-32.3h0.8v41.4h-0.8v-7.9l-29-32.5c-0.2-0.2-0.2-0.2-0.4-0.2s-0.2,0.2-0.2,0.2v40.4h-0.8
		v-40.5c0-0.6,0.5-0.9,0.9-0.9c0.5,0,0.6,0.2,1.1,0.7L290.2,624.1z"/>
	<path fill="#28515B" d="M355,609c1.3-0.6,2.2-1.7,2.2-3.6v-7c0-4.6-2.8-5.9-7.4-5.9h-15.4v-0.8h15.4c5.2,0,8.2,1.5,8.2,6.6v7
		c0,2.4-1,3.6-2.7,4.3l-17.8,5.9c-2.9,1-3.8,2.2-3.8,5.6v11.2h26.1v0.8h-26.7v-11.9c0-3.8,1-5.2,4.2-6.3L355,609z"/>
	<path fill="#28515B" d="M410.1,619.6h-18.3c-5.9,0-8.5-2.7-8.5-8.1v-19.8h0.8v19.8c0,4.9,2.5,7.3,7.8,7.3h18.3v-27h0.8v41.4h-0.8
		L410.1,619.6L410.1,619.6z"/>
	<path fill="#28515B" d="M455.2,591.8h0.8v20.3h29.4v-20.3h0.8v41.4h-0.8v-20.3H456v20.3h-0.8V591.8z"/>
	<path fill="#28515B" d="M527.9,634.2c-12,0-15.4-4.2-15.4-10.3v-22.6c0-6.2,3.4-10.3,15.4-10.3s15.5,4.2,15.5,10.3v22.6
		C543.4,630,539.9,634.2,527.9,634.2z M527.9,633.4c11.4,0,14.8-3.8,14.8-9.6v-22.6c0-5.8-3.4-9.6-14.8-9.6
		c-11.4,0-14.6,3.8-14.6,9.6v22.6C513.2,629.5,516.4,633.4,527.9,633.4z"/>
	<path fill="#28515B" d="M570.4,591.8v31.9c0,5.8,3.1,9.6,14.6,9.6c11.4,0,14.6-3.8,14.6-9.6v-31.9h0.8v31.9
		c0,6.2-3.4,10.3-15.4,10.3s-15.4-4.2-15.4-10.3v-31.9H570.4z"/>
	<path fill="#28515B" d="M626.9,633.1v-41.4h17.4c6,0,8.7,3.7,8.7,8.7v5.3c0,4.6-0.9,7.8-4.6,8.9h0.9c6.3,0,9.3,2.8,9.3,8.2V633
		h-0.8v-10.2c0-5-2.7-7.5-8.5-7.5h-21.7V633L626.9,633.1L626.9,633.1z M627.7,592.6v22.2h16.7c6.3,0,8-3.1,8-8.8v-5.4
		c0-4.7-2.6-8-8-8H627.7z"/>
	<path fill="#28515B" d="M707.3,592.6h-17c-4.3,0-7,2.6-7,6.2v6.3c0,3.6,1.5,4.6,3.9,5.1l16.2,3.3c3,0.6,5.3,2.2,5.3,7.5v4.5
		c0,4.6-3.3,7.8-8.5,7.8h-19v-0.8h19c4.7,0,7.8-2.9,7.8-7V621c0-4.8-1.8-6.2-4.6-6.7l-16.2-3.3c-2.7-0.6-4.5-1.7-4.5-5.9v-6.3
		c0-4.1,3-7,7.8-7h17v0.7H707.3z"/>
</g>
</svg>
