<?xml version="1.0" encoding="utf-8"?>
<!-- Generator: Adobe Illustrator 19.2.0, SVG Export Plug-In . SVG Version: 6.00 Build 0)  -->
<!DOCTYPE svg PUBLIC "-//W3C//DTD SVG 1.1//EN" "http://www.w3.org/Graphics/SVG/1.1/DTD/svg11.dtd">
<svg version="1.1" id="Layer_1" xmlns="http://www.w3.org/2000/svg" xmlns:xlink="http://www.w3.org/1999/xlink" x="0px" y="0px"
	 viewBox="0 0 940 235" enable-background="new 0 0 940 235" xml:space="preserve">
<path fill="#B1D9DB" d="M111,138.8H55.6v6.3h1.1v-5.3h54.7l0.7-0.7v-21.6l-0.9-0.9H111V138.8z M113.4,188.1H30.1v0.2l1.1,0.9h82.6
	l0.7-0.7v-20.6l-0.9-0.9h-0.2V188.1z M114.5,90.3H55.6v4.7h1.1v-3.7h58.2l0.7-0.7V69l-0.9-0.9h-0.2V90.3z"/>
<path fill="#B1D9DB" d="M168.5,71.1l-1.2-1.4h-0.2l10.5,34.6l0.5-1.8L168.5,71.1z M242,66.4l-0.7-0.7h-0.2l-41.5,122.4h-22.3v0.2
	l1.1,0.9h22.2L242,66.4z"/>
<path fill="#B1D9DB" d="M354.6,138.8h-55.4v6.3h1.1v-5.3H355l0.7-0.7v-21.6l-0.9-0.9h-0.2V138.8z M357.1,188.1h-83.3v0.2l1.1,0.9
	h82.6l0.7-0.7v-20.6l-0.9-0.9h-0.2V188.1z M358.2,90.3h-58.9v4.7h1.1v-3.7h58.2l0.7-0.7V69l-0.9-0.9h-0.2V90.3z"/>
<path fill="#B1D9DB" d="M436,73.3l-1.6-1.2h-0.4l7.6,13.2v-2.3L436,73.3z M488.1,188.1h-25.5v0.2l0.9,0.9h25l0.7-0.7V69l-0.9-0.9
	h-0.2V188.1z M422.7,133.7v54.3h-25.3v0.2l0.9,0.9H423l0.7-0.7v-52.7L422.7,133.7z"/>
<path fill="#B1D9DB" d="M529.8,90.3H518v0.2l0.9,0.9h10.9V90.3z M577.4,91.4h32.7l0.7-0.7V69l-0.9-0.9h-0.2v22.2h-33.4v97.7h-25.5
	v0.2l1.1,0.9h24.8l0.7-0.7V91.4z"/>
<polygon fill="#B1D9DB" points="669.5,188.1 644,188.1 644,188.2 644.9,189.1 669.9,189.1 670.6,188.4 670.6,69 669.7,68.2 
	669.5,68.2 "/>
<path fill="#B1D9DB" d="M803.5,165.6L781,188.1h-68.9v0.2l1.1,0.9h68.4l23-23.2V87l-0.9-0.9h-0.2V165.6z M738.6,145.2V91.4h18.3
	v-1.1h-19.3v54.9H738.6z"/>
<path fill="#B1D9DB" d="M924.4,138.8h-55.4v6.3h1.1v-5.3h54.7l0.7-0.7v-21.6l-0.9-0.9h-0.2V138.8z M926.9,188.1h-83.3v0.2l1.1,0.9
	h82.6l0.7-0.7v-20.6l-0.9-0.9h-0.2V188.1z M928,90.3h-58.9v4.7h1.1v-3.7h58.2l0.7-0.7V69l-0.9-0.9H928V90.3z"/>
<polygon fill="#196E86" points="223.5,47.9 182.2,169.6 195.4,182.8 236.7,61.1 "/>
<polygon fill="#196E86" points="778.2,182.8 798,162.9 783.1,150.6 764.1,169.6 "/>
<path fill="#29B7B9" d="M50.2,145.2v-11.6l-14.9-13.2v24.8H50.2z M107.3,182.8l0.7-0.7v-20.7L93,146.4v23.2L107.3,182.8z M50.2,95.1
	V85L35.2,71.8v23.2H50.2z M108.3,85l0.7-0.7V62.5L94.1,47.6v24.3L108.3,85z M104.8,133.6l0.7-0.7v-21.8L90.6,96.1v24.3L104.8,133.6z
	"/>
<polygon fill="#29B7B9" points="174.6,114 158.4,60.9 144,46.5 169.5,129 169.9,129 "/>
<path fill="#29B7B9" d="M293.8,145.2v-11.6l-14.9-13.2v24.8H293.8z M351,182.8l0.7-0.7v-20.7l-14.9-14.9v23.2L351,182.8z
	 M293.8,95.1V85l-14.9-13.2v23.2H293.8z M352,85l0.7-0.7V62.5l-14.9-14.9v24.3L352,85z M348.5,133.6l0.7-0.7v-21.8l-14.9-14.9v24.3
	L348.5,133.6z"/>
<path fill="#29B7B9" d="M402.5,169.6l14.1,13.2l0.7-0.7v-58.2l-14.4-25.7h-0.4V169.6z M441.7,96.6L422,62.2l-19.7-15.6l39,69.3h0.4
	V96.6z M481.9,182.8l0.7-0.7V62.5l-14.8-14.9v122L481.9,182.8z"/>
<path fill="#29B7B9" d="M555.9,169.6l14.2,13.2l0.7-0.7V85l-14.9-13.2V169.6z M603.6,85l0.7-0.7V62.5l-14.9-14.9v24.3L603.6,85z"/>
<polygon fill="#29B7B9" points="663.4,182.8 664.1,182.1 664.1,62.5 649.1,47.6 649.1,169.6 "/>
<path fill="#29B7B9" d="M717.2,71.8v73.3h14.9V85L717.2,71.8z M798,162.9V80.5l-14.9-14.9v85.1L798,162.9z"/>
<path fill="#29B7B9" d="M863.6,145.2v-11.6l-14.9-13.2v24.8H863.6z M920.7,182.8l0.7-0.7v-20.7l-14.9-14.9v23.2L920.7,182.8z
	 M863.6,95.1V85l-14.9-13.2v23.2H863.6z M921.8,85l0.7-0.7V62.5l-14.9-14.9v24.3L921.8,85z M918.3,133.6l0.7-0.7v-21.8L904,96.1
	v24.3L918.3,133.6z"/>
<path fill="#3A5277" d="M10.1,169.6l14.2,13.2h83L93,169.6H10.1z M50.2,85h58.2L94.1,71.8H35.2L50.2,85z M50.2,133.6h54.7
	l-14.2-13.2H35.2L50.2,133.6z"/>
<polygon fill="#3A5277" points="182.2,169.6 157.2,169.6 171.5,182.8 195.4,182.8 "/>
<path fill="#3A5277" d="M253.7,169.6l14.2,13.2h83l-14.2-13.2H253.7z M293.8,85H352l-14.2-13.2h-58.9L293.8,85z M293.8,133.6h54.7
	l-14.2-13.2h-55.4L293.8,133.6z"/>
<path fill="#3A5277" d="M402.5,169.6h-25.1l14.2,13.2h25L402.5,169.6z M467.9,169.6h-25.3l14.2,13.2h25.1L467.9,169.6z"/>
<path fill="#3A5277" d="M555.9,169.6h-25.1l14.2,13.2h25.1L555.9,169.6z M512.5,85h17.2V71.8h-32.3L512.5,85z M570.9,85h32.7
	l-14.2-13.2h-33.4L570.9,85z"/>
<polygon fill="#3A5277" points="649.1,169.6 624,169.6 638.1,182.8 663.4,182.8 "/>
<path fill="#3A5277" d="M706.3,182.8h71.9l-14.1-13.2H692L706.3,182.8z M717.2,71.8L732.1,85h24.8V71.8H717.2z"/>
<path fill="#3A5277" d="M823.5,169.6l14.2,13.2h83l-14.2-13.2H823.5z M863.6,85h58.2l-14.2-13.2h-58.9L863.6,85z M863.6,133.6h54.7
	L904,120.4h-55.4L863.6,133.6z"/>
<polygon fill="#ACD6D8" points="34.2,119.3 89.5,119.3 89.5,96.6 89,96.1 34.2,96.1 34.2,70.8 93,70.8 93,48.1 92.5,47.6 10.1,47.6 
	10.1,168 10.6,168.5 92,168.5 92,146.7 91.5,146.2 34.2,146.2 "/>
<polygon fill="#ACD6D8" points="170.1,131.8 169.3,131.8 143.3,47.6 117,47.6 158.1,168.5 181.3,168.5 222.3,48.1 221.7,47.6 
	196.4,47.6 "/>
<polygon fill="#ACD6D8" points="277.8,119.3 333.2,119.3 333.2,96.6 332.7,96.1 277.8,96.1 277.8,70.8 336.7,70.8 336.7,48.1 
	336.2,47.6 253.7,47.6 253.7,168 254.3,168.5 335.7,168.5 335.7,146.7 335.1,146.2 277.8,146.2 "/>
<polygon fill="#ACD6D8" points="402.1,95.1 443.3,168.5 466.8,168.5 466.8,48.1 466.3,47.6 442.7,47.6 442.7,119.3 442,119.3 
	401.4,47.6 377.3,47.6 377.3,168 377.9,168.5 401.4,168.5 401.4,95.1 "/>
<polygon fill="#ACD6D8" points="530.8,167.8 531.5,168.5 554.9,168.5 554.9,70.8 588.3,70.8 588.3,48.1 587.8,47.6 497.4,47.6 
	497.4,70.1 498.1,70.8 530.8,70.8 "/>
<polygon fill="#ACD6D8" points="624,168 624.5,168.5 648.1,168.5 648.1,48.1 647.5,47.6 624,47.6 "/>
<path fill="#ACD6D8" d="M782,150.3V65.9l-18.3-18.3H692V168l0.5,0.5h71.2L782,150.3z M758,70.8v75.4h-41.8V70.8H758z"/>
<polygon fill="#ACD6D8" points="847.6,119.3 903,119.3 903,96.6 902.5,96.1 847.6,96.1 847.6,70.8 906.5,70.8 906.5,48.1 906,47.6 
	823.5,47.6 823.5,168 824.1,168.5 905.5,168.5 905.5,146.7 904.9,146.2 847.6,146.2 "/>
<path fill="#196E86" d="M35.2,145.2v-24.8h55.4V96.1l-1.1-1.1H35.2V71.8h58.9V47.6L93,46.5H9.7L9,47.2v121.3l1.1,1.1h83v-23.2
	l-1.4-1.2H35.2z M34.2,146.2h57.3l0.5,0.5v21.8H10.6l-0.5-0.5V47.6h82.5l0.5,0.5v22.7H34.2v25.3H89l0.5,0.5v22.7H34.2V146.2z"/>
<path fill="#196E86" d="M196.4,47.6h25.3l0.5,0.5l-41,120.4h-23.2L117,47.6h26.4l26,84.2h0.7L196.4,47.6z M144,46.5h-27.6l-0.7,0.9
	l41.5,122.2h25l41.3-121.7l-1.4-1.4h-26.5L169.9,129h-0.4L144,46.5z"/>
<path fill="#196E86" d="M278.9,145.2v-24.8h55.4V96.1l-1.1-1.1h-54.3V71.8h58.9V47.6l-1.1-1.1h-83.3l-0.7,0.7v121.3l1.1,1.1h83
	v-23.2l-1.4-1.2H278.9z M277.8,146.2h57.3l0.5,0.5v21.8h-81.4l-0.5-0.5V47.6h82.5l0.5,0.5v22.7h-58.9v25.3h54.9l0.5,0.5v22.7h-55.4
	V146.2z"/>
<path fill="#196E86" d="M402.5,98.2h0.4l39.7,71.4h25.3v-122l-1.1-1.1h-24.4l-0.7,0.7v68.6h-0.4l-39-69.3H377l-0.7,0.7v121.3
	l1.1,1.1h25.1V98.2z M401.4,95.1v73.5h-23.6l-0.5-0.5V47.6h24.1l40.6,71.7h0.7V47.6h23.6l0.5,0.5v120.4h-23.6l-41.1-73.5H401.4z"/>
<path fill="#196E86" d="M529.8,168.5l1.1,1.1h25.1V71.8h33.4V47.6l-1.1-1.1h-91.2l-0.7,0.7v23.6l1.1,1.1h32.3V168.5z M530.8,70.8
	h-32.7l-0.7-0.7V47.6h90.4l0.5,0.5v22.7h-33.4v97.7h-23.4l-0.7-0.7V70.8z"/>
<path fill="#196E86" d="M622.9,168.5l1.1,1.1h25.1v-122l-1.1-1.1h-24.4l-0.7,0.7V168.5z M624,47.6h23.6l0.5,0.5v120.4h-23.6L624,168
	V47.6z"/>
<path fill="#196E86" d="M763.8,168.5h-71.2L692,168V47.6h71.7L782,65.9v84.4L763.8,168.5z M716.1,70.8v75.4H758V70.8H716.1z
	 M756.9,71.8v73.3h-39.7V71.8H756.9z M764.1,169.6l19-19V65.5l-19-19h-72.4l-0.7,0.7v121.3l1.1,1.1H764.1z"/>
<path fill="#196E86" d="M848.7,145.2v-24.8H904V96.1l-1.1-1.1h-54.3V71.8h58.9V47.6l-1.1-1.1h-83.3l-0.7,0.7v121.3l1.1,1.1h83v-23.2
	l-1.4-1.2H848.7z M847.6,146.2h57.3l0.5,0.5v21.8h-81.4l-0.5-0.5V47.6H906l0.5,0.5v22.7h-58.9v25.3h54.9l0.5,0.5v22.7h-55.4V146.2z"
	/>
<path fill="#FFFFFF" d="M22.4,139.2c1.1-2.1,3.2-4.7,5.5-7.2l-0.2-0.4c-2.1,1.1-4.6,3-5.5,3.9h-0.4c-1.6-1.6-3.5-3.2-5.6-4l-0.2,0.4
	c1.4,1.2,4.7,5.6,6,7.4H22.4z M22.4,147.4c0.9-1.6,4-6,5.6-7.4l-0.2-0.4c-2.1,0.9-4.2,2.6-5.6,4h-0.4c-0.9-0.7-3.3-2.8-5.5-4
	l-0.2,0.4c2.3,2.8,4.4,5.5,5.8,7.4H22.4z M84.3,114.9l0.7-0.7v-13l-0.7-0.7H29.6V66.4h58.2l0.7-0.7v-13L87.8,52H15.3l-0.7,0.7v68.6
	h0.7l6.5-6.3h0.5l6.5,6.3h0.7v-6.3H84.3z"/>
<path fill="#FFFFFF" d="M180.6,138.1c1.6-1.8,4.4-3.7,7.2-5.5v-0.4c-2.3,0.5-5.3,1.8-6.3,2.5l-0.4-0.2c-1.1-1.9-2.5-4-4.2-5.6
	l-0.4,0.4c1.1,1.6,3,6.7,3.7,8.8H180.6z M159.2,138.3c0.7-2.1,2.6-7.2,3.7-8.8l-0.4-0.4c-1.8,1.6-3.2,3.5-4.2,5.4l-0.4,0.2
	c-1.1-0.7-4-1.8-6.3-2.3v0.4c2.8,1.8,5.6,3.7,7.2,5.5H159.2z M178.3,146.2c1.4-1.4,5.6-4.7,7.6-5.6l-0.2-0.4
	c-2.3,0.2-4.7,1.6-6.5,2.5l-0.4-0.2c-0.5-0.9-2.5-3.7-4-5.5l-0.4,0.4c1.4,3.2,2.8,6.3,3.5,8.6L178.3,146.2z M161.4,146.2
	c0.7-2.3,2.1-5.5,3.5-8.6l-0.4-0.4c-1.6,1.8-3.5,4.4-4,5.3l-0.4,0.2c-1.8-0.9-4.2-2.1-6.5-2.3l-0.2,0.4c1.9,0.9,6.2,4.2,7.6,5.6
	L161.4,146.2z M199.9,52l-21.6,67.3l0.7,0.4l7.4-4.7h0.5l4.6,7h0.7l23.6-69.4l-0.5-0.5H199.9z M123.8,52l-0.4,0.7l23.4,69.4h0.5
	l4.7-7h0.5l7.4,4.7l0.7-0.4L139.8,52H123.8z"/>
<path fill="#FFFFFF" d="M266,139.2c1.1-2.1,3.2-4.7,5.5-7.2l-0.2-0.4c-2.1,1.1-4.6,3-5.4,3.9h-0.4c-1.6-1.6-3.5-3.2-5.6-4l-0.2,0.4
	c1.4,1.2,4.7,5.6,6,7.4H266z M266,147.4c0.9-1.6,4-6,5.6-7.4l-0.2-0.4c-2.1,0.9-4.2,2.6-5.6,4h-0.4c-0.9-0.7-3.3-2.8-5.5-4l-0.2,0.4
	c2.3,2.8,4.4,5.5,5.8,7.4H266z M327.9,114.9l0.7-0.7v-13l-0.7-0.7h-54.7V66.4h58.2l0.7-0.7v-13l-0.7-0.7H259l-0.7,0.7v68.6h0.7
	l6.5-6.3h0.5l6.5,6.3h0.7v-6.3H327.9z"/>
<path fill="#FFFFFF" d="M443.1,147.6c0-1.8,1.1-7.2,1.8-9.1l-0.2-0.2c-1.6,1.8-2.6,4.4-3.2,6.2l-0.4,0.2c-1.1-0.2-4.4-1.2-6.9-1.4
	v0.4c3.3,1.6,6.3,3,8.4,4.2L443.1,147.6z M389.6,139.2c1.1-2.1,3.2-4.7,5.5-7.2l-0.2-0.4c-2.1,1.1-4.6,3-5.4,3.9h-0.4
	c-1.6-1.6-3.5-3.2-5.6-4l-0.2,0.4c1.4,1.2,4.7,5.6,6,7.4H389.6z M455,139.2c1.1-2.1,3.2-4.7,5.5-7.2l-0.2-0.4
	c-2.1,1.1-4.6,3-5.4,3.9h-0.4c-1.6-1.6-3.5-3.2-5.6-4l-0.2,0.4c1.4,1.2,4.7,5.6,6,7.4H455z M439.2,139.9c0.2-2.5,0.9-5.8,1.9-9
	l-0.4-0.2c-1.4,1.8-2.8,4.6-3.3,5.8l-0.2,0.2c-2.1-0.7-4.6-1.4-6.9-1.2v0.4c1.8,0.5,6.5,2.8,8.4,4.2L439.2,139.9z M389.6,147.4
	c0.9-1.6,4-6,5.6-7.4l-0.2-0.4c-2.1,0.9-4.2,2.6-5.6,4h-0.4c-0.9-0.7-3.3-2.8-5.4-4l-0.2,0.4c2.3,2.8,4.4,5.5,5.8,7.4H389.6z
	 M455,147.4c0.9-1.6,4-6,5.6-7.4l-0.2-0.4c-2.1,0.9-4.2,2.6-5.6,4h-0.4c-0.9-0.7-3.3-2.8-5.5-4l-0.2,0.4c2.3,2.8,4.4,5.5,5.8,7.4
	H455z M447.3,121.3h0.7l6.3-6.3h0.5l6.7,6.3h0.7V52.7l-0.7-0.7H448l-0.7,0.7V121.3z M397.5,78.4l26.9,47.1l0.7-0.4l2.3-6.9l0.5-0.4
	l8.4,2.5l0.5-0.4l-38.5-68h-15.8l-0.7,0.7v68.6h0.7l6.3-6.3h0.5l6.7,6.3h0.7V78.4H397.5z"/>
<path fill="#FFFFFF" d="M543.1,139.2c1.1-2.1,3.2-4.7,5.5-7.2l-0.2-0.4c-2.1,1.1-4.6,3-5.5,3.9h-0.4c-1.6-1.6-3.5-3.2-5.6-4
	l-0.2,0.4c1.4,1.2,4.7,5.6,6,7.4H543.1z M543.1,147.4c0.9-1.6,4-6,5.6-7.4l-0.2-0.4c-2.1,0.9-4.2,2.6-5.6,4h-0.4
	c-0.9-0.7-3.3-2.8-5.4-4l-0.2,0.4c2.3,2.8,4.4,5.5,5.8,7.4H543.1z M535.4,121.3h0.7l6.7-6.3h0.2l6.7,6.3h0.7V66.4H583l0.7-0.7v-13
	L583,52h-80.3l-0.7,0.7v13l0.7,0.7h32.7V121.3z"/>
<path fill="#FFFFFF" d="M636.3,139.2c1.1-2.1,3.2-4.7,5.5-7.2l-0.2-0.4c-2.1,1.1-4.6,3-5.4,3.9h-0.4c-1.6-1.6-3.5-3.2-5.6-4
	l-0.2,0.4c1.4,1.2,4.7,5.6,6,7.4H636.3z M636.3,147.4c0.9-1.6,4-6,5.6-7.4l-0.2-0.4c-2.1,0.9-4.2,2.6-5.6,4h-0.4
	c-0.9-0.7-3.3-2.8-5.5-4l-0.2,0.4c2.3,2.8,4.4,5.5,5.8,7.4H636.3z M628.6,121.3h0.7l6.5-6.3h0.5l6.5,6.3h0.7V52.7l-0.7-0.7h-13.5
	l-0.7,0.7V121.3z"/>
<path fill="#FFFFFF" d="M770.1,138.7c1.1-2.1,3-4.6,5.3-7l-0.2-0.4c-2.1,1.1-4.4,3-5.3,3.9h-0.4c-1.6-1.6-3.3-3.2-5.5-4l-0.2,0.4
	c1.4,1.2,4.6,5.5,5.8,7.2H770.1z M770.1,146.6c0.9-1.6,4-5.8,5.5-7.2l-0.2-0.2c-2.1,0.7-4,2.5-5.5,3.9h-0.4
	c-0.9-0.7-3.2-2.8-5.3-3.9l-0.2,0.4c2.3,2.6,4.2,5.1,5.6,7H770.1z M704.3,139.2c1.1-2.1,3.2-4.7,5.5-7.2l-0.2-0.4
	c-2.1,1.1-4.6,3-5.5,3.9h-0.4c-1.6-1.6-3.5-3.2-5.6-4l-0.2,0.4c1.4,1.2,4.7,5.6,6,7.4H704.3z M704.3,147.4c0.9-1.6,4-6,5.6-7.4
	l-0.2-0.4c-2.1,0.9-4.2,2.6-5.6,4h-0.4c-0.9-0.7-3.3-2.8-5.5-4l-0.2,0.4c2.3,2.8,4.4,5.5,5.8,7.4H704.3z M711.5,66.4h51v54.9h0.7
	l6.3-6.3h0.5l6.7,6.3h0.7V67.6L761.8,52h-64.5l-0.7,0.7v68.6h0.7l6.3-6.3h0.5l6.7,6.3h0.7V66.4z"/>
<path fill="#FFFFFF" d="M835.8,139.2c1.1-2.1,3.2-4.7,5.5-7.2l-0.2-0.4c-2.1,1.1-4.6,3-5.5,3.9h-0.4c-1.6-1.6-3.5-3.2-5.6-4
	l-0.2,0.4c1.4,1.2,4.7,5.6,6,7.4H835.8z M835.8,147.4c0.9-1.6,4-6,5.6-7.4l-0.2-0.4c-2.1,0.9-4.2,2.6-5.6,4h-0.4
	c-0.9-0.7-3.3-2.8-5.5-4l-0.2,0.4c2.3,2.8,4.4,5.5,5.8,7.4H835.8z M897.7,114.9l0.7-0.7v-13l-0.7-0.7H843V66.4h58.2l0.7-0.7v-13
	l-0.7-0.7h-72.4l-0.7,0.7v68.6h0.7l6.5-6.3h0.5l6.5,6.3h0.7v-6.3H897.7z"/>
<path fill="#29B7B9" d="M20.4,152c0,0.9,0.7,1.6,1.6,1.6c0.9,0,1.6-0.7,1.6-1.6c0-0.9-0.7-1.6-1.6-1.6
	C21.1,150.4,20.4,151.1,20.4,152z M19,125.5c0,1.6,1.4,3,3,3c1.6,0,3-1.4,3-3c0-1.6-1.4-3-3-3C20.4,122.5,19,123.9,19,125.5z"/>
<path fill="#29B7B9" d="M164.6,151c0-0.9-0.7-1.6-1.6-1.6c-0.9,0-1.6,0.7-1.6,1.6c0,0.9,0.7,1.6,1.6,1.6
	C163.9,152.5,164.6,151.8,164.6,151z M158.3,125.5c0-1.8-1.4-3-3-3c-1.6,0-3,1.2-3,3c0,1.6,1.4,3,3,3
	C156.9,128.5,158.3,127.1,158.3,125.5z M174.8,150.8c0,0.9,0.7,1.6,1.6,1.6c0.9,0,1.6-0.7,1.6-1.6c0-0.9-0.7-1.6-1.6-1.6
	C175.5,149.2,174.8,149.9,174.8,150.8z M181.1,125.3c0,1.6,1.4,3,3,3c1.6,0,3-1.4,3-3c0-1.8-1.4-3-3-3
	C182.5,122.3,181.1,123.5,181.1,125.3z"/>
<path fill="#29B7B9" d="M264.1,152c0,0.9,0.7,1.6,1.6,1.6c0.9,0,1.6-0.7,1.6-1.6c0-0.9-0.7-1.6-1.6-1.6
	C264.8,150.4,264.1,151.1,264.1,152z M262.7,125.5c0,1.6,1.4,3,3,3c1.6,0,3-1.4,3-3c0-1.6-1.4-3-3-3
	C264.1,122.5,262.7,123.9,262.7,125.5z"/>
<path fill="#29B7B9" d="M453.1,152c0,0.9,0.7,1.6,1.6,1.6s1.6-0.7,1.6-1.6c0-0.9-0.7-1.6-1.6-1.6S453.1,151.1,453.1,152z
	 M451.7,125.5c0,1.6,1.4,3,3,3s3-1.4,3-3c0-1.8-1.4-3-3-3S451.7,123.7,451.7,125.5z M387.7,152c0,0.9,0.7,1.6,1.6,1.6
	c0.9,0,1.6-0.7,1.6-1.6c0-0.9-0.7-1.6-1.6-1.6C388.4,150.4,387.7,151.1,387.7,152z M386.3,125.5c0,1.6,1.4,3,3,3c1.6,0,3-1.4,3-3
	c0-1.8-1.4-3-3-3C387.7,122.5,386.3,123.7,386.3,125.5z M443.3,152c0,0.9,0.7,1.6,1.6,1.6c0.9,0,1.6-0.7,1.6-1.6
	c0-0.9-0.7-1.6-1.6-1.6C444,150.4,443.3,151.1,443.3,152z M429.7,127.1c0,1.6,1.4,3,3,3c1.6,0,3-1.4,3-3c0-1.8-1.4-3-3-3
	C431.1,124.1,429.7,125.3,429.7,127.1z"/>
<path fill="#29B7B9" d="M541.2,152c0,0.9,0.7,1.6,1.6,1.6c0.9,0,1.6-0.7,1.6-1.6c0-0.9-0.7-1.6-1.6-1.6
	C541.9,150.4,541.2,151.1,541.2,152z M539.8,125.5c0,1.6,1.4,3,3,3c1.6,0,3-1.4,3-3c0-1.8-1.4-3-3-3
	C541.2,122.5,539.8,123.7,539.8,125.5z"/>
<path fill="#29B7B9" d="M634.4,152c0,0.9,0.7,1.6,1.6,1.6c0.9,0,1.6-0.7,1.6-1.6c0-0.9-0.7-1.6-1.6-1.6
	C635.1,150.4,634.4,151.1,634.4,152z M633,125.5c0,1.6,1.4,3,3,3c1.6,0,3-1.4,3-3c0-1.8-1.4-3-3-3C634.4,122.5,633,123.7,633,125.5z
	"/>
<path fill="#29B7B9" d="M766.7,125.5c0,1.6,1.4,3,3,3c1.6,0,3-1.4,3-3c0-1.8-1.4-3-3-3C768.1,122.5,766.7,123.7,766.7,125.5z
	 M768.1,151c0,0.9,0.7,1.6,1.6,1.6c0.9,0,1.6-0.7,1.6-1.6c0-0.9-0.7-1.6-1.6-1.6C768.9,149.4,768.1,150.1,768.1,151z M702.4,152
	c0,0.9,0.7,1.6,1.6,1.6c0.9,0,1.6-0.7,1.6-1.6c0-0.9-0.7-1.6-1.6-1.6C703.1,150.4,702.4,151.1,702.4,152z M701,125.5
	c0,1.6,1.4,3,3,3c1.6,0,3-1.4,3-3c0-1.8-1.4-3-3-3C702.4,122.5,701,123.7,701,125.5z"/>
<path fill="#29B7B9" d="M833.9,152c0,0.9,0.7,1.6,1.6,1.6c0.9,0,1.6-0.7,1.6-1.6c0-0.9-0.7-1.6-1.6-1.6
	C834.6,150.4,833.9,151.1,833.9,152z M832.5,125.5c0,1.6,1.4,3,3,3c1.6,0,3-1.4,3-3c0-1.6-1.4-3-3-3
	C833.9,122.5,832.5,123.9,832.5,125.5z"/>
</svg>
