<?xml version="1.0" encoding="utf-8"?>
<!-- Generator: Adobe Illustrator 19.2.0, SVG Export Plug-In . SVG Version: 6.00 Build 0)  -->
<!DOCTYPE svg PUBLIC "-//W3C//DTD SVG 1.1//EN" "http://www.w3.org/Graphics/SVG/1.1/DTD/svg11.dtd">
<svg version="1.1" id="Layer_1" xmlns="http://www.w3.org/2000/svg" xmlns:xlink="http://www.w3.org/1999/xlink" x="0px" y="0px"
	 viewBox="0 0 940 235" enable-background="new 0 0 940 235" xml:space="preserve">
<path fill="#B1D9DB" d="M125.9,141.9H63v7.2h1.2v-6h62.1l0.8-0.8v-24.6l-1-1h-0.2V141.9z M128.7,197.8H34v0.2l1.2,1h93.9l0.8-0.8
	v-23.4l-1-1h-0.2V197.8z M129.9,86.7H63v5.4h1.2v-4.2h66.1l0.8-0.8V62.5l-1-1h-0.2V86.7z"/>
<polygon fill="#B1D9DB" points="252,99.5 251.2,98.7 251,98.7 212.8,197.8 190.8,197.8 190.8,198 191.8,199 213.6,199 "/>
<path fill="#B1D9DB" d="M376.7,155.5h-12l1.4,1.2h11l0.8-0.8v-35.4l-1-1h-0.2V155.5z M377.9,166.5l-1-0.8h-0.2v9.4l-22.8,22.8h-52
	v0.2l1,1h51.6l23.4-23.6V166.5z"/>
<path fill="#B1D9DB" d="M508.2,197.8h-27.8v0.2l1,1h27.2l0.8-0.8v-77.5l-1-1h-0.2V197.8z M415.8,197.8v0.2l1,1h27.4l0.8-0.8v-71.3
	h11v-1.2h-12.2v72.1H415.8z"/>
<path fill="#B1D9DB" d="M600.5,199l0.8-0.8v-25.4l-1-1h-0.2v26h-34.4v0.2l1,1H600.5z M576.9,150.3v-23.4h23.6l0.8-0.8v-24l-1-1h-0.2
	v24.6h-24.4v23.4L576.9,150.3z"/>
<path fill="#B1D9DB" d="M666,87.7h-13.6v0.2l1,1h13l0.8-0.8V62.5l-1-1H666V87.7z M666,197.8h-28v0.2l1,1h27.4l0.8-0.8v-95.7l-1-1
	H666V197.8z"/>
<path fill="#B1D9DB" d="M759.1,189.4l-8.6,8.4h-28v0.2l1.2,1h27.4l9-8.8L759.1,189.4z M797.3,197.8h-29.8v0.2l1,1h29.2l0.8-0.8V62.5
	l-1-1h-0.2V197.8z M734.2,149.7v-22.8h11v-1.2H733v24H734.2z"/>
<path fill="#B1D9DB" d="M928.8,155.5h-12l1.4,1.2h11l0.8-0.8v-35.4l-1-1h-0.2V155.5z M930,166.5l-1-0.8h-0.2v9.4L906,197.8h-52v0.2
	l1,1h51.6l23.4-23.6V166.5z"/>
<polygon fill="#196E86" points="231,78.5 193.2,176.8 208.2,191.8 246,93.7 "/>
<polygon fill="#196E86" points="350.7,191.8 370.5,172.1 353.5,158.7 335.3,176.8 "/>
<polygon fill="#196E86" points="745.2,175.6 745.2,165.7 734.2,176.8 747.4,191.8 754.6,184.8 "/>
<polygon fill="#196E86" points="902.8,191.8 922.6,172.1 905.6,158.7 887.4,176.8 "/>
<path fill="#29B7B9" d="M56.8,149.1v-13.2l-17-15v28.2H56.8z M121.7,191.8l0.8-0.8v-23.6l-17-17v26.4L121.7,191.8z M56.8,92.1V80.7
	l-17-15v26.4H56.8z M122.9,80.7l0.8-0.8V55.2l-17-17v27.6L122.9,80.7z M118.9,135.9l0.8-0.8v-24.8l-17-17v27.6L118.9,135.9z"/>
<polygon fill="#29B7B9" points="187.4,117.7 179.7,95.9 159.9,77.1 180.7,134.9 181.1,134.9 "/>
<path fill="#29B7B9" d="M370.5,172.1v-11.8l-17-14.2v12.6L370.5,172.1z M289.2,153.3h17v-4l-17-10.4V153.3z M369.7,149.5l0.8-0.8
	v-35.4l-17-17v42.6L369.7,149.5z M289.2,103.7v13.2h17v-4L289.2,103.7z"/>
<path fill="#29B7B9" d="M420.2,78.3v6.6l3.6-2.8L420.2,78.3z M420.6,104.9v71.9l16.2,15l0.8-0.8v-71.3L420.6,104.9z M485,96.3v80.5
	l16.2,15l0.8-0.8v-77.7L485,96.3z"/>
<path fill="#29B7B9" d="M593.1,191.8l0.8-0.8v-24.6l-17-16.2v26.6L593.1,191.8z M593.9,118.9v-24l-17-16.6v26.4L593.9,118.9z
	 M569.5,119.7l-17-15v44.4h17V119.7z M552.5,53.2v24h17v-7.2L552.5,53.2z"/>
<path fill="#29B7B9" d="M659.8,55l-17-16.8v28.6l16.2,15l0.8-0.8V55z M659.8,95.1l-17-16.8v98.5l16.2,15l0.8-0.8V95.1z"/>
<path fill="#29B7B9" d="M726.8,149.7v-30l-17-14.8v44.8H726.8z M790.3,191.8l0.8-0.8V55.2l-17-17v138.7L790.3,191.8z"/>
<path fill="#29B7B9" d="M922.6,172.1v-11.8l-17-14.2v12.6L922.6,172.1z M841.3,153.3h17v-4l-17-10.4V153.3z M921.8,149.5l0.8-0.8
	v-35.4l-17-17v42.6L921.8,149.5z M841.3,103.7v13.2h17v-4L841.3,103.7z"/>
<path fill="#3A5277" d="M11.2,176.8l16.2,15h94.3l-16.2-15H11.2z M56.8,80.7h66.1l-16.2-15H39.8L56.8,80.7z M56.8,135.9h62.1
	l-16.2-15H39.8L56.8,135.9z"/>
<polygon fill="#3A5277" points="193.2,176.8 168.1,176.8 184.2,191.8 208.2,191.8 "/>
<path fill="#3A5277" d="M306.1,149.3h18.4v-3.6l0.8-0.8h27l1.2,1.2l4,3.4h12.2l-16.2-10.6h-64.3L306.1,149.3z M289.2,103.7l17,9.2
	h18.4v-9.2H289.2z M295.6,191.8h55.2l-15.4-15h-56L295.6,191.8z"/>
<path fill="#3A5277" d="M485,176.8h-27.6l16.2,15h27.6L485,176.8z M420.6,176.8h-27.8l16.2,15h27.8L420.6,176.8z M456,104.9h-35.4
	l17,14.8H456V104.9z"/>
<path fill="#3A5277" d="M523.6,104.7h-15.2l15.2,13.4V104.7z M593.1,119.7l0.8-0.8l-17-14.2h-24.4l17,15H593.1z M576.9,176.8h-34.2
	l16.2,15h34.2L576.9,176.8z"/>
<path fill="#3A5277" d="M642.8,66.7h-27.8l11.2,10.4h15.4l4.6,4.6H659L642.8,66.7z M642.8,176.8h-27.8l16.2,15H659L642.8,176.8z"/>
<path fill="#3A5277" d="M761.3,191.8h29l-16.2-15h-27.8L761.3,191.8z M726.8,119.7h18.4v-14.8h-35.4L726.8,119.7z M734.2,176.8H700
	l16,15h31.4L734.2,176.8z"/>
<path fill="#3A5277" d="M858.3,149.3h18.4v-3.6l0.8-0.8h27l1.2,1.2l4,3.4h12.2l-16.2-10.6h-64.3L858.3,149.3z M841.3,103.7l17,9.2
	h18.4v-9.2H841.3z M847.7,191.8h55.2l-15.4-15h-56L847.7,191.8z"/>
<polygon fill="#ACD6D8" points="38.6,119.7 101.5,119.7 101.5,93.9 100.9,93.3 38.6,93.3 38.6,64.5 105.5,64.5 105.5,38.8 
	104.9,38.2 11.2,38.2 11.2,175.1 11.8,175.6 104.3,175.6 104.3,150.9 103.7,150.3 38.6,150.3 "/>
<polygon fill="#ACD6D8" points="181.3,137.9 180.5,137.9 159.1,78.3 131.3,78.3 169.1,175.6 192.2,175.6 229.6,79.1 229,78.3 
	202.8,78.3 "/>
<path fill="#ACD6D8" d="M288,118.1v-15.6h37.8v15.6H288z M352.3,96.7l-18.4-18.4h-54.2l-18.4,18.4v60.1l18.4,18.8h55.2l17.4-17.4
	v-11.4l-0.8-0.8h-25.8v8.4H288v-16.8h64.3V96.7z"/>
<polygon fill="#ACD6D8" points="419,79.1 418.2,78.3 392.9,78.3 392.9,175.1 393.5,175.6 419.4,175.6 419.4,103.7 457.2,103.7 
	457.2,175.1 457.8,175.6 483.8,175.6 483.8,96.7 465.4,78.3 430,78.3 419.8,86.7 419,86.7 "/>
<polygon fill="#ACD6D8" points="524.8,78.3 508.4,78.3 508.4,102.9 509,103.5 524.8,103.5 524.8,156.9 543.1,175.6 575.7,175.6 
	575.7,151.1 574.9,150.3 551.3,150.3 551.3,103.5 575.7,103.5 575.7,78.9 575.1,78.3 551.3,78.3 551.3,54 550.5,53.2 524.8,53.2 "/>
<path fill="#ACD6D8" d="M641.7,39l-0.8-0.8h-25.8v26.8l0.6,0.6h26V39z M641.7,79.1l-0.8-0.8h-25.8v96.7l0.6,0.6h26V79.1z"/>
<path fill="#ACD6D8" d="M746.4,103.7v47.2h-37.8v-47.2H746.4z M746.4,174.9l0.8,0.8h25.8V39l-0.8-0.8h-25.8v48.2h-0.8l-9.8-8h-35.4
	L682,96.7v60.1l18.4,18.8h33.2l12-12h0.8V174.9z"/>
<path fill="#ACD6D8" d="M840.1,118.1v-15.6h37.8v15.6H840.1z M904.4,96.7L886,78.3h-54.2l-18.4,18.4v60.1l18.4,18.8H887l17.4-17.4
	v-11.4l-0.8-0.8h-25.8v8.4h-37.8v-16.8h64.3V96.7z"/>
<path fill="#196E86" d="M39.8,149.1v-28.2h62.9V93.3l-1.2-1.2H39.8V65.7h66.9V38.2l-1.2-1.2H10.8L10,37.8v137.9l1.2,1.2h94.3v-26.4
	l-1.6-1.4H39.8z M38.6,150.3h65.1l0.6,0.6v24.8H11.8l-0.6-0.6V38.2h93.7l0.6,0.6v25.8H38.6v28.8h62.3l0.6,0.6v25.8H38.6V150.3z"/>
<path fill="#196E86" d="M202.8,78.3H229l0.6,0.8l-37.4,96.5h-23.2l-37.8-97.3h27.8l21.4,59.5h0.8L202.8,78.3z M159.9,77.1h-29.4
	l-0.6,1l38.2,98.7h25.2L231,78.5l-1.2-1.4H202l-21,57.7h-0.4L159.9,77.1z"/>
<path fill="#196E86" d="M325.7,118.1v-15.6H288v15.6H325.7z M352.3,137.7H288v16.8h37.8v-8.4h25.8l0.8,0.8v11.4l-17.4,17.4h-55.2
	l-18.4-18.8V96.7l18.4-18.4h54.2l18.4,18.4V137.7z M324.5,116.9h-35.4v-13.2h35.4V116.9z M335.3,176.8l18.2-18.2v-12.6l-1.2-1.2h-27
	l-0.8,0.8v7.6h-35.4v-14.4h64.3V96.3l-19.2-19.2h-55l-19.2,19.2v60.9l19.2,19.6H335.3z"/>
<path fill="#196E86" d="M419,86.7h0.8l10.2-8.4h35.4l18.4,18.4v78.9h-26l-0.6-0.6v-71.3h-37.8v71.9h-26l-0.6-0.6V78.3h25.4l0.8,0.8
	V86.7z M420.2,78.3l-1.2-1.2h-26.6l-0.8,0.8v97.7l1.2,1.2h27.8v-71.9H456v70.7l1.4,1.2H485V96.3l-19.2-19.2h-36.2l-9.4,7.8V78.3z"/>
<path fill="#196E86" d="M524.8,53.2h25.8l0.8,0.8v24.4h23.8l0.6,0.6v24.6h-24.4v46.8h23.6l0.8,0.8v24.6h-32.6l-18.4-18.8v-53.4H509
	l-0.6-0.6V78.3h16.4V53.2z M523.6,157.3l19.2,19.6h34.2v-26.6l-1.2-1.2h-23.2v-44.4h24.4V78.3l-1.2-1.2h-23.2v-24l-1.2-1.2h-26.8
	l-1,1v24.2h-15.4l-1,1v25.4l1.2,1.2h15.2V157.3z"/>
<path fill="#196E86" d="M641.7,65.5h-26l-0.6-0.6V38.2h25.8l0.8,0.8V65.5z M642.8,38.2l-1.2-1.2h-27l-0.8,0.8v27.8l1.2,1.2h27.8
	V38.2z M641.7,175.6h-26l-0.6-0.6V78.3h25.8l0.8,0.8V175.6z M642.8,78.3l-1.2-1.2h-27l-0.8,0.8v97.7l1.2,1.2h27.8V78.3z"/>
<path fill="#196E86" d="M708.6,103.7v47.2h37.8v-47.2H708.6z M745.2,104.9v44.8h-35.4v-44.8H745.2z M745.2,165.7v10l1.2,1.2h27.8
	V38.2l-1.2-1.2h-27l-0.8,0.8v46.8l-9-7.4H700l-19.2,19.2v60.9l19.2,19.6h34.2L745.2,165.7z M746.4,163.7h-0.8l-12,12h-33.2
	L682,156.9V96.7l18.4-18.4h35.4l9.8,8h0.8V38.2h25.8l0.8,0.8v136.7h-25.8l-0.8-0.8V163.7z"/>
<path fill="#196E86" d="M877.8,118.1v-15.6h-37.8v15.6H877.8z M904.4,137.7h-64.3v16.8h37.8v-8.4h25.8l0.8,0.8v11.4L887,175.6h-55.2
	l-18.4-18.8V96.7l18.4-18.4H886l18.4,18.4V137.7z M876.6,116.9h-35.4v-13.2h35.4V116.9z M887.4,176.8l18.2-18.2v-12.6l-1.2-1.2h-27
	l-0.8,0.8v7.6h-35.4v-14.4h64.3V96.3l-19.2-19.2h-55l-19.2,19.2v60.9l19.2,19.6H887.4z"/>
<path fill="#FFFFFF" d="M25.2,142.3c1.2-2.4,3.6-5.4,6.2-8.2l-0.2-0.4c-2.4,1.2-5.2,3.4-6.2,4.4h-0.4c-1.8-1.8-4-3.6-6.4-4.6
	l-0.2,0.4c1.6,1.4,5.4,6.4,6.8,8.4H25.2z M25.2,151.7c1-1.8,4.6-6.8,6.4-8.4l-0.2-0.4c-2.4,1-4.8,3-6.4,4.6h-0.4
	c-1-0.8-3.8-3.2-6.2-4.6l-0.2,0.4c2.6,3.2,5,6.2,6.6,8.4H25.2z M95.5,114.7l0.8-0.8V99.1l-0.8-0.8H33.4V59.6h66.1l0.8-0.8V44
	l-0.8-0.8H17.2L16.4,44v77.9h0.8l7.4-7.2h0.6l7.4,7.2h0.8v-7.2H95.5z"/>
<path fill="#FFFFFF" d="M189.6,150.1c2.2-1.4,5.4-3.2,8.6-5v-0.4c-2.6,0.2-5.8,1.6-7,2l-0.4-0.2c-0.6-1.2-2.6-5.2-3.8-6h-0.4
	c0.8,2.2,2.4,7.4,2.6,9.4L189.6,150.1z M171.9,149.5c0.2-2,1.8-7.2,2.6-9.4h-0.4c-1.2,0.8-3.2,4.8-3.8,6l-0.4,0.2
	c-1.2-0.4-4.4-1.8-7-2v0.4c3.2,1.8,6.4,3.6,8.6,5L171.9,149.5z M169.1,141.3c0.2-2.6,1.4-6,2.6-9.2l-0.4-0.4c-1.6,2-3.2,4.8-3.8,6
	l-0.4,0.2c-2.2-0.8-4.8-1.8-7.2-2v0.4c2,0.8,6.8,3.8,8.8,5.2L169.1,141.3z M192.4,141.9c2-1.4,6.8-4.4,8.8-5.2v-0.4
	c-2.4,0.2-5,1.2-7.2,2l-0.4-0.2c-0.6-1.2-2.2-4-3.8-6l-0.4,0.4c1.2,3.2,2.4,6.6,2.6,9.2L192.4,141.9z M206.4,83.3l-14.2,38.4
	l0.8,0.4l8-5.4h0.6l4.4,7.4h0.6l15.2-40l-0.4-0.8H206.4z M139.3,83.3l-0.4,0.8l15.4,40h0.6l4.4-7.4h0.6l8.4,5.4l0.8-0.4l-14-38.4
	H139.3z"/>
<path fill="#FFFFFF" d="M274.8,142.7c1.2-2.4,3.4-5,5.6-7.6l-0.2-0.4c-2,1.2-4.6,3-5.6,4h-0.4c-1.8-1.4-3.8-3.2-5.8-4.2l-0.2,0.4
	c1.6,1.4,4.8,5.8,6.2,7.8H274.8z M274.8,151.3c1-1.8,4.2-6.2,5.8-7.8l-0.2-0.2c-2,0.8-4.2,2.4-5.8,4h-0.4c-1-0.8-3.6-2.8-5.6-4
	l-0.2,0.4c2.2,2.6,4.4,5.4,6,7.6H274.8z M347.1,123.9V98.7l-15.4-15.4H282l-15.4,15.4v25.2h0.8l6.8-7h0.6l7.2,7h0.8V97.5h48.2v26.4
	h0.8l6.8-7h0.6l7.2,7H347.1z"/>
<path fill="#FFFFFF" d="M406.3,143.1c1.2-2.4,3.4-5.2,5.8-7.8l-0.2-0.4c-2.2,1.2-4.8,3.2-5.8,4.2h-0.4c-1.8-1.6-3.8-3.4-6-4.4
	l-0.2,0.4c1.6,1.4,5,6,6.4,8H406.3z M470.8,143.1c1.2-2.4,3.4-5.2,5.8-7.8l-0.2-0.4c-2.2,1.2-4.8,3.2-5.8,4.2h-0.4
	c-1.8-1.6-3.8-3.4-6-4.4l-0.2,0.4c1.6,1.4,5,6,6.4,8H470.8z M406.3,151.9c1-1.8,4.4-6.4,6-8l-0.2-0.2c-2.2,0.8-4.4,2.6-6,4.2h-0.4
	c-1-0.8-3.6-3-5.8-4.2l-0.2,0.4c2.4,2.8,4.6,5.6,6.2,7.8H406.3z M470.8,151.9c1-1.8,4.4-6.4,6-8l-0.2-0.2c-2.2,0.8-4.4,2.6-6,4.2
	h-0.4c-1-0.8-3.6-3-5.8-4.2l-0.2,0.4c2.4,2.8,4.6,5.6,6.2,7.8H470.8z M414.2,123.9V98.7h48.2v25.2h0.8l7.2-7h0.6l6.8,7h0.8V98.7
	l-15.4-15.4H432l-16.8,13h-1V84.1l-0.8-0.8h-14.6l-0.8,0.8v39.8h0.8l6.8-7h0.6l7.2,7H414.2z"/>
<path fill="#FFFFFF" d="M538.1,142.7c1.2-2.4,3.4-5,5.6-7.6l-0.2-0.4c-2,1.2-4.6,3-5.6,4h-0.4c-1.8-1.4-3.8-3.2-5.8-4.2l-0.2,0.4
	c1.6,1.4,4.8,5.8,6.2,7.8H538.1z M538.1,151.3c1-1.8,4.2-6.2,5.8-7.8l-0.2-0.2c-2,0.8-4.2,2.4-5.8,4h-0.4c-1-0.8-3.6-2.8-5.6-4
	l-0.2,0.4c2.2,2.6,4.4,5.4,6,7.6H538.1z M546.1,59l-0.8-0.8h-14.6l-0.8,0.8v24.4h-15.6l-0.8,0.8v13.6l0.8,0.8h15.6v25.4h0.8l6.8-7
	h0.6l7.2,7h0.8V98.5h23.6l0.8-0.8V84.1l-0.8-0.8h-23.6V59z"/>
<path fill="#FFFFFF" d="M628.5,143.1c1.2-2.4,3.4-5.2,5.8-7.8l-0.2-0.4c-2.2,1.2-4.8,3.2-5.8,4.2h-0.4c-1.8-1.6-3.8-3.4-6-4.4
	l-0.2,0.4c1.6,1.4,5,6,6.4,8H628.5z M628.5,151.9c1-1.8,4.4-6.4,6-8l-0.2-0.2c-2.2,0.8-4.4,2.6-6,4.2h-0.4c-1-0.8-3.6-3-5.8-4.2
	l-0.2,0.4c2.4,2.8,4.6,5.6,6.2,7.8H628.5z M635.7,60.6l0.8-0.8V44l-0.8-0.8h-14.6l-0.8,0.8v15.8l0.8,0.8H635.7z M636.5,84.1
	l-0.8-0.8h-14.6l-0.8,0.8v39.8h0.8l6.8-7h0.6l7.2,7h0.8V84.1z"/>
<path fill="#FFFFFF" d="M695.4,142.7c1.2-2.4,3.4-5,5.6-7.6l-0.2-0.4c-2,1.2-4.6,3-5.6,4h-0.4c-1.8-1.4-3.8-3.2-5.8-4.2l-0.2,0.4
	c1.6,1.4,4.8,5.8,6.2,7.8H695.4z M695.4,151.3c1-1.8,4.2-6.2,5.8-7.8l-0.2-0.2c-2,0.8-4.2,2.4-5.8,4h-0.4c-1-0.8-3.6-2.8-5.6-4
	l-0.2,0.4c2.2,2.6,4.4,5.4,6,7.6H695.4z M759.9,143.1c1.2-2.4,3.4-5.2,5.8-7.8l-0.2-0.4c-2.2,1.2-4.8,3.2-5.8,4.2h-0.4
	c-1.8-1.6-3.8-3.4-6-4.4l-0.2,0.4c1.6,1.4,5,6,6.4,8H759.9z M759.9,151.9c1-1.8,4.4-6.4,6-8l-0.2-0.2c-2.2,0.8-4.4,2.6-6,4.2h-0.4
	c-1-0.8-3.6-3-5.8-4.2l-0.2,0.4c2.4,2.8,4.6,5.6,6.2,7.8H759.9z M767.7,123.9V44l-0.8-0.8h-14.6l-0.8,0.8v52.4h-1l-16.8-13h-31.2
	l-15.4,15.4v25.2h0.8l6.8-7h0.6l7.2,7h0.8V98.7h48.2v25.2h0.8l6.8-7h0.6l7.2,7H767.7z"/>
<path fill="#FFFFFF" d="M826.9,142.7c1.2-2.4,3.4-5,5.6-7.6l-0.2-0.4c-2,1.2-4.6,3-5.6,4h-0.4c-1.8-1.4-3.8-3.2-5.8-4.2l-0.2,0.4
	c1.6,1.4,4.8,5.8,6.2,7.8H826.9z M826.9,151.3c1-1.8,4.2-6.2,5.8-7.8l-0.2-0.2c-2,0.8-4.2,2.4-5.8,4h-0.4c-1-0.8-3.6-2.8-5.6-4
	l-0.2,0.4c2.2,2.6,4.4,5.4,6,7.6H826.9z M899.2,123.9V98.7l-15.4-15.4h-49.8l-15.4,15.4v25.2h0.8l6.8-7h0.6l7.2,7h0.8V97.5H883v26.4
	h0.8l6.8-7h0.6l7.2,7H899.2z"/>
<path fill="#29B7B9" d="M23,156.9c0,1,0.8,1.8,1.8,1.8s1.8-0.8,1.8-1.8c0-1-0.8-1.8-1.8-1.8S23,155.9,23,156.9z M21.4,126.7
	c0,1.8,1.6,3.4,3.4,3.4c1.8,0,3.4-1.6,3.4-3.4c0-1.8-1.6-3.4-3.4-3.4C23,123.3,21.4,124.9,21.4,126.7z"/>
<path fill="#29B7B9" d="M171.5,154.9c0,1,0.8,1.8,1.8,1.8c1,0,1.8-0.8,1.8-1.8c0-1-0.8-1.8-1.8-1.8
	C172.3,153.1,171.5,153.9,171.5,154.9z M160.5,128.3c0,1.4,1.4,3,3.2,3c1.8,0,3.2-1.6,3.2-3c0-1.8-1.4-3.2-3.2-3.2
	C161.9,125.1,160.5,126.5,160.5,128.3z M189.6,154.9c0-1-0.8-1.8-1.8-1.8c-1,0-1.8,0.8-1.8,1.8c0,1,0.8,1.8,1.8,1.8
	C188.8,156.7,189.6,155.9,189.6,154.9z M200.8,128.3c0-1.8-1.4-3.2-3.2-3.2c-1.8,0-3.2,1.4-3.2,3.2c0,1.4,1.4,3,3.2,3
	C199.4,131.3,200.8,129.7,200.8,128.3z"/>
<path fill="#29B7B9" d="M335.9,128.5c0,1.4,1.4,3,3.2,3c1.8,0,3.2-1.6,3.2-3c0-1.8-1.4-3.2-3.2-3.2
	C337.3,125.3,335.9,126.7,335.9,128.5z M272.6,156.1c0,1,0.8,1.8,1.8,1.8c1,0,1.8-0.8,1.8-1.8c0-1-0.8-1.8-1.8-1.8
	C273.4,154.3,272.6,155.1,272.6,156.1z M271.2,128.5c0,1.4,1.4,3,3.2,3s3.2-1.6,3.2-3c0-1.8-1.4-3.2-3.2-3.2
	S271.2,126.7,271.2,128.5z"/>
<path fill="#29B7B9" d="M468.6,156.9c0,1,0.8,1.8,1.8,1.8c1,0,1.8-0.8,1.8-1.8c0-1-0.8-1.8-1.8-1.8
	C469.4,155.1,468.6,155.9,468.6,156.9z M467.2,128.5c0,1.6,1.4,3.2,3.2,3.2c1.8,0,3.2-1.6,3.2-3.2c0-1.8-1.4-3.2-3.2-3.2
	C468.6,125.3,467.2,126.7,467.2,128.5z M404.1,156.9c0,1,0.8,1.8,1.8,1.8c1,0,1.8-0.8,1.8-1.8c0-1-0.8-1.8-1.8-1.8
	C404.9,155.1,404.1,155.9,404.1,156.9z M402.7,128.5c0,1.6,1.4,3.2,3.2,3.2c1.8,0,3.2-1.6,3.2-3.2c0-1.8-1.4-3.2-3.2-3.2
	C404.1,125.3,402.7,126.7,402.7,128.5z"/>
<path fill="#29B7B9" d="M535.9,156.1c0,1,0.8,1.8,1.8,1.8s1.8-0.8,1.8-1.8c0-1-0.8-1.8-1.8-1.8S535.9,155.1,535.9,156.1z
	 M534.5,128.5c0,1.4,1.4,3,3.2,3s3.2-1.6,3.2-3c0-1.8-1.4-3.2-3.2-3.2S534.5,126.7,534.5,128.5z"/>
<path fill="#29B7B9" d="M626.3,156.9c0,1,0.8,1.8,1.8,1.8c1,0,1.8-0.8,1.8-1.8c0-1-0.8-1.8-1.8-1.8
	C627.1,155.1,626.3,155.9,626.3,156.9z M624.9,128.5c0,1.6,1.4,3.2,3.2,3.2c1.8,0,3.2-1.6,3.2-3.2c0-1.8-1.4-3.2-3.2-3.2
	C626.3,125.3,624.9,126.7,624.9,128.5z"/>
<path fill="#29B7B9" d="M693.2,156.1c0,1,0.8,1.8,1.8,1.8c1,0,1.8-0.8,1.8-1.8c0-1-0.8-1.8-1.8-1.8
	C694,154.3,693.2,155.1,693.2,156.1z M691.8,128.5c0,1.4,1.4,3,3.2,3c1.8,0,3.2-1.6,3.2-3c0-1.8-1.4-3.2-3.2-3.2
	C693.2,125.3,691.8,126.7,691.8,128.5z M757.7,156.9c0,1,0.8,1.8,1.8,1.8c1,0,1.8-0.8,1.8-1.8c0-1-0.8-1.8-1.8-1.8
	C758.5,155.1,757.7,155.9,757.7,156.9z M756.4,128.5c0,1.6,1.4,3.2,3.2,3.2c1.8,0,3.2-1.6,3.2-3.2c0-1.8-1.4-3.2-3.2-3.2
	C757.7,125.3,756.4,126.7,756.4,128.5z"/>
<path fill="#29B7B9" d="M888,128.5c0,1.4,1.4,3,3.2,3s3.2-1.6,3.2-3c0-1.8-1.4-3.2-3.2-3.2S888,126.7,888,128.5z M824.7,156.1
	c0,1,0.8,1.8,1.8,1.8s1.8-0.8,1.8-1.8c0-1-0.8-1.8-1.8-1.8S824.7,155.1,824.7,156.1z M823.3,128.5c0,1.4,1.4,3,3.2,3s3.2-1.6,3.2-3
	c0-1.8-1.4-3.2-3.2-3.2S823.3,126.7,823.3,128.5z"/>
</svg>
