<?xml version="1.0" encoding="utf-8"?>
<!-- Generator: Adobe Illustrator 19.2.0, SVG Export Plug-In . SVG Version: 6.00 Build 0)  -->
<svg version="1.1" id="Layer_1" xmlns="http://www.w3.org/2000/svg" xmlns:xlink="http://www.w3.org/1999/xlink" x="0px" y="0px"
	 viewBox="0 0 940 180" style="enable-background:new 0 0 940 180;" xml:space="preserve">
<style type="text/css">
	.st0{fill:#B1D9DB;}
	.st1{fill:#196E86;}
	.st2{fill:#29B7B9;}
	.st3{fill:#3A5277;}
	.st4{fill:#ACD6D8;}
	.st5{fill:#FFFFFF;}
</style>
<path class="st0" d="M125.9,115.9H63v7.2h1.2v-6h62.1l0.8-0.8V91.7l-1-1h-0.2V115.9z M128.7,171.8H34v0.2l1.2,1h93.9l0.8-0.8v-23.4
	l-1-1h-0.2L128.7,171.8L128.7,171.8z M129.9,60.7H63v5.4h1.2v-4.2h66.1l0.8-0.8V36.5l-1-1h-0.2V60.7z"/>
<polygon class="st0" points="252,73.5 251.2,72.7 251,72.7 212.8,171.8 190.8,171.8 190.8,172 191.8,173 213.6,173 "/>
<path class="st0" d="M376.7,129.5h-12l1.4,1.2h11l0.8-0.8V94.5l-1-1h-0.2L376.7,129.5L376.7,129.5z M377.9,140.5l-1-0.8h-0.2v9.4
	l-22.8,22.8h-52v0.2l1,1h51.6l23.4-23.6V140.5z"/>
<path class="st0" d="M508.2,171.8h-27.8v0.2l1,1h27.2l0.8-0.8V94.7l-1-1h-0.2V171.8z M415.8,171.8v0.2l1,1h27.4l0.8-0.8v-71.3h11
	v-1.2h-12.2v72.1L415.8,171.8L415.8,171.8z"/>
<path class="st0" d="M600.5,173l0.8-0.8v-25.4l-1-1h-0.2v26h-34.4v0.2l1,1H600.5z M576.9,124.3v-23.4h23.6l0.8-0.8v-24l-1-1h-0.2
	v24.6h-24.4v23.4L576.9,124.3z"/>
<path class="st0" d="M666,61.7h-13.6v0.2l1,1h13l0.8-0.8V36.5l-1-1H666V61.7z M666,171.8h-28v0.2l1,1h27.4l0.8-0.8V76.5l-1-1H666
	V171.8z"/>
<path class="st0" d="M759.1,163.4l-8.6,8.4h-28v0.2l1.2,1h27.4l9-8.8L759.1,163.4z M797.3,171.8h-29.8v0.2l1,1h29.2l0.8-0.8V36.5
	l-1-1h-0.2V171.8z M734.2,123.7v-22.8h11v-1.2H733v24H734.2z"/>
<path class="st0" d="M928.8,129.5h-12l1.4,1.2h11l0.8-0.8V94.5l-1-1h-0.2V129.5z M930,140.5l-1-0.8h-0.2v9.4L906,171.8h-52v0.2l1,1
	h51.6l23.4-23.6V140.5z"/>
<polygon class="st1" points="231,52.5 193.2,150.8 208.2,165.8 246,67.7 "/>
<polygon class="st1" points="350.7,165.8 370.5,146.1 353.5,132.7 335.3,150.8 "/>
<polygon class="st1" points="745.2,149.6 745.2,139.7 734.2,150.8 747.4,165.8 754.6,158.8 "/>
<polygon class="st1" points="902.8,165.8 922.6,146.1 905.6,132.7 887.4,150.8 "/>
<path class="st2" d="M56.8,123.1v-13.2l-17-15v28.2H56.8z M121.7,165.8l0.8-0.8v-23.6l-17-17v26.4L121.7,165.8z M56.8,66.1V54.7
	l-17-15v26.4H56.8z M122.9,54.7l0.8-0.8V29.2l-17-17v27.6L122.9,54.7z M118.9,109.9l0.8-0.8V84.3l-17-17v27.6L118.9,109.9z"/>
<polygon class="st2" points="187.4,91.7 179.7,69.9 159.9,51.1 180.7,108.9 181.1,108.9 "/>
<path class="st2" d="M370.5,146.1v-11.8l-17-14.2v12.6L370.5,146.1z M289.2,127.3h17v-4l-17-10.4V127.3z M369.7,123.5l0.8-0.8V87.3
	l-17-17v42.6L369.7,123.5z M289.2,77.7v13.2h17v-4L289.2,77.7z"/>
<path class="st2" d="M420.2,52.3v6.6l3.6-2.8L420.2,52.3z M420.6,78.9v71.9l16.2,15l0.8-0.8V93.7L420.6,78.9z M485,70.3v80.5
	l16.2,15l0.8-0.8V87.3L485,70.3z"/>
<path class="st2" d="M593.1,165.8l0.8-0.8v-24.6l-17-16.2v26.6L593.1,165.8z M593.9,92.9v-24l-17-16.6v26.4L593.9,92.9z M569.5,93.7
	l-17-15v44.4h17V93.7z M552.5,27.2v24h17V44L552.5,27.2z"/>
<path class="st2" d="M659.8,29l-17-16.8v28.6l16.2,15l0.8-0.8V29z M659.8,69.1l-17-16.8v98.5l16.2,15l0.8-0.8V69.1z"/>
<path class="st2" d="M726.8,123.7v-30l-17-14.8v44.8H726.8z M790.3,165.8l0.8-0.8V29.2l-17-17v138.7L790.3,165.8z"/>
<path class="st2" d="M922.6,146.1v-11.8l-17-14.2v12.6L922.6,146.1z M841.3,127.3h17v-4l-17-10.4V127.3z M921.8,123.5l0.8-0.8V87.3
	l-17-17v42.6L921.8,123.5z M841.3,77.7v13.2h17v-4L841.3,77.7z"/>
<path class="st3" d="M11.2,150.8l16.2,15h94.3l-16.2-15H11.2z M56.8,54.7h66.1l-16.2-15H39.8L56.8,54.7z M56.8,109.9h62.1l-16.2-15
	H39.8L56.8,109.9z"/>
<polygon class="st3" points="193.2,150.8 168.1,150.8 184.2,165.8 208.2,165.8 "/>
<path class="st3" d="M306.1,123.3h18.4v-3.6l0.8-0.8h27l1.2,1.2l4,3.4h12.2l-16.2-10.6h-64.3L306.1,123.3z M289.2,77.7l17,9.2h18.4
	v-9.2H289.2z M295.6,165.8h55.2l-15.4-15h-56L295.6,165.8z"/>
<path class="st3" d="M485,150.8h-27.6l16.2,15h27.6L485,150.8z M420.6,150.8h-27.8l16.2,15h27.8L420.6,150.8z M456,78.9h-35.4
	l17,14.8H456V78.9z"/>
<path class="st3" d="M523.6,78.7h-15.2l15.2,13.4V78.7z M593.1,93.7l0.8-0.8l-17-14.2h-24.4l17,15H593.1z M576.9,150.8h-34.2
	l16.2,15h34.2L576.9,150.8z"/>
<path class="st3" d="M642.8,40.7H615l11.2,10.4h15.4l4.6,4.6H659L642.8,40.7z M642.8,150.8H615l16.2,15H659L642.8,150.8z"/>
<path class="st3" d="M761.3,165.8h29l-16.2-15h-27.8L761.3,165.8z M726.8,93.7h18.4V78.9h-35.4L726.8,93.7z M734.2,150.8H700l16,15
	h31.4L734.2,150.8z"/>
<path class="st3" d="M858.3,123.3h18.4v-3.6l0.8-0.8h27l1.2,1.2l4,3.4h12.2l-16.2-10.6h-64.3L858.3,123.3z M841.3,77.7l17,9.2h18.4
	v-9.2H841.3z M847.7,165.8h55.2l-15.4-15h-56L847.7,165.8z"/>
<polygon class="st4" points="38.6,93.7 101.5,93.7 101.5,67.9 100.9,67.3 38.6,67.3 38.6,38.5 105.5,38.5 105.5,12.8 104.9,12.2 
	11.2,12.2 11.2,149.1 11.8,149.6 104.3,149.6 104.3,124.9 103.7,124.3 38.6,124.3 "/>
<polygon class="st4" points="181.3,111.9 180.5,111.9 159.1,52.3 131.3,52.3 169.1,149.6 192.2,149.6 229.6,53.1 229,52.3 
	202.8,52.3 "/>
<path class="st4" d="M288,92.1V76.5h37.8v15.6H288z M352.3,70.7l-18.4-18.4h-54.2l-18.4,18.4v60.1l18.4,18.8h55.2l17.4-17.4v-11.4
	l-0.8-0.8h-25.8v8.4H288v-16.8h64.3V70.7z"/>
<polygon class="st4" points="419,53.1 418.2,52.3 392.9,52.3 392.9,149.1 393.5,149.6 419.4,149.6 419.4,77.7 457.2,77.7 
	457.2,149.1 457.8,149.6 483.8,149.6 483.8,70.7 465.4,52.3 430,52.3 419.8,60.7 419,60.7 "/>
<polygon class="st4" points="524.8,52.3 508.4,52.3 508.4,76.9 509,77.5 524.8,77.5 524.8,130.9 543.1,149.6 575.7,149.6 
	575.7,125.1 574.9,124.3 551.3,124.3 551.3,77.5 575.7,77.5 575.7,52.9 575.1,52.3 551.3,52.3 551.3,28 550.5,27.2 524.8,27.2 "/>
<path class="st4" d="M641.7,13l-0.8-0.8h-25.8V39l0.6,0.6h26V13z M641.7,53.1l-0.8-0.8h-25.8V149l0.6,0.6h26V53.1z"/>
<path class="st4" d="M746.4,77.7v47.2h-37.8V77.7H746.4z M746.4,148.9l0.8,0.8H773V13l-0.8-0.8h-25.8v48.2h-0.8l-9.8-8h-35.4
	L682,70.7v60.1l18.4,18.8h33.2l12-12h0.8V148.9z"/>
<path class="st4" d="M840.1,92.1V76.5h37.8v15.6H840.1z M904.4,70.7L886,52.3h-54.2l-18.4,18.4v60.1l18.4,18.8H887l17.4-17.4v-11.4
	l-0.8-0.8h-25.8v8.4H840v-16.8h64.3L904.4,70.7L904.4,70.7z"/>
<path class="st1" d="M39.8,123.1V94.9h62.9V67.3l-1.2-1.2H39.8V39.7h66.9V12.2l-1.2-1.2H10.8L10,11.8v137.9l1.2,1.2h94.3v-26.4
	l-1.6-1.4H39.8z M38.6,124.3h65.1l0.6,0.6v24.8H11.8l-0.6-0.6V12.2h93.7l0.6,0.6v25.8H38.6v28.8h62.3l0.6,0.6v25.8H38.6V124.3z"/>
<path class="st1" d="M202.8,52.3H229l0.6,0.8l-37.4,96.5H169l-37.8-97.3H159l21.4,59.5h0.8L202.8,52.3z M159.9,51.1h-29.4l-0.6,1
	l38.2,98.7h25.2L231,52.5l-1.2-1.4H202l-21,57.7h-0.4L159.9,51.1z"/>
<path class="st1" d="M325.7,92.1V76.5H288v15.6H325.7z M352.3,111.7H288v16.8h37.8v-8.4h25.8l0.8,0.8v11.4L335,149.7h-55.2
	l-18.4-18.8V70.7l18.4-18.4H334l18.4,18.4L352.3,111.7L352.3,111.7z M324.5,90.9h-35.4V77.7h35.4V90.9z M335.3,150.8l18.2-18.2V120
	l-1.2-1.2h-27l-0.8,0.8v7.6h-35.4v-14.4h64.3V70.3l-19.2-19.2h-55L260,70.3v60.9l19.2,19.6L335.3,150.8L335.3,150.8z"/>
<path class="st1" d="M419,60.7h0.8l10.2-8.4h35.4l18.4,18.4v78.9h-26l-0.6-0.6V77.7h-37.8v71.9h-26l-0.6-0.6V52.3h25.4l0.8,0.8
	L419,60.7L419,60.7z M420.2,52.3l-1.2-1.2h-26.6l-0.8,0.8v97.7l1.2,1.2h27.8V78.9H456v70.7l1.4,1.2H485V70.3l-19.2-19.2h-36.2
	l-9.4,7.8L420.2,52.3L420.2,52.3z"/>
<path class="st1" d="M524.8,27.2h25.8l0.8,0.8v24.4h23.8l0.6,0.6v24.6h-24.4v46.8H575l0.8,0.8v24.6h-32.6L524.8,131V77.6H509
	l-0.6-0.6V52.3h16.4V27.2z M523.6,131.3l19.2,19.6H577v-26.6l-1.2-1.2h-23.2V78.7H577V52.3l-1.2-1.2h-23.2v-24l-1.2-1.2h-26.8l-1,1
	v24.2h-15.4l-1,1v25.4l1.2,1.2h15.2V131.3z"/>
<path class="st1" d="M641.7,39.5h-26l-0.6-0.6V12.2h25.8l0.8,0.8V39.5z M642.8,12.2l-1.2-1.2h-27l-0.8,0.8v27.8l1.2,1.2h27.8V12.2z
	 M641.7,149.6h-26l-0.6-0.6V52.3h25.8l0.8,0.8V149.6z M642.8,52.3l-1.2-1.2h-27l-0.8,0.8v97.7l1.2,1.2h27.8V52.3z"/>
<path class="st1" d="M708.6,77.7v47.2h37.8V77.7H708.6z M745.2,78.9v44.8h-35.4V78.9C709.8,78.9,745.2,78.9,745.2,78.9z
	 M745.2,139.7v10l1.2,1.2h27.8V12.2L773,11h-27l-0.8,0.8v46.8l-9-7.4H700l-19.2,19.2v60.9l19.2,19.6h34.2L745.2,139.7z M746.4,137.7
	h-0.8l-12,12h-33.2L682,130.9V70.7l18.4-18.4h35.4l9.8,8h0.8V12.2h25.8L773,13v136.7h-25.8l-0.8-0.8V137.7z"/>
<path class="st1" d="M877.8,92.1V76.5H840v15.6H877.8z M904.4,111.7h-64.3v16.8h37.8v-8.4h25.8l0.8,0.8v11.4L887,149.6h-55.2
	l-18.4-18.8V70.7l18.4-18.4H886l18.4,18.4V111.7z M876.6,90.9h-35.4V77.7h35.4V90.9z M887.4,150.8l18.2-18.2V120l-1.2-1.2h-27
	l-0.8,0.8v7.6h-35.4v-14.4h64.3V70.3l-19.2-19.2h-55l-19.2,19.2v60.9l19.2,19.6L887.4,150.8L887.4,150.8z"/>
<path class="st5" d="M25.2,116.3c1.2-2.4,3.6-5.4,6.2-8.2l-0.2-0.4c-2.4,1.2-5.2,3.4-6.2,4.4h-0.4c-1.8-1.8-4-3.6-6.4-4.6l-0.2,0.4
	c1.6,1.4,5.4,6.4,6.8,8.4L25.2,116.3L25.2,116.3z M25.2,125.7c1-1.8,4.6-6.8,6.4-8.4l-0.2-0.4c-2.4,1-4.8,3-6.4,4.6h-0.4
	c-1-0.8-3.8-3.2-6.2-4.6l-0.2,0.4c2.6,3.2,5,6.2,6.6,8.4H25.2z M95.5,88.7l0.8-0.8V73.1l-0.8-0.8H33.4V33.6h66.1l0.8-0.8V18
	l-0.8-0.8H17.2L16.4,18v77.9h0.8l7.4-7.2h0.6l7.4,7.2h0.8v-7.2C33.4,88.7,95.5,88.7,95.5,88.7z"/>
<path class="st5" d="M189.6,124.1c2.2-1.4,5.4-3.2,8.6-5v-0.4c-2.6,0.2-5.8,1.6-7,2l-0.4-0.2c-0.6-1.2-2.6-5.2-3.8-6h-0.4
	c0.8,2.2,2.4,7.4,2.6,9.4L189.6,124.1z M171.9,123.5c0.2-2,1.8-7.2,2.6-9.4h-0.4c-1.2,0.8-3.2,4.8-3.8,6l-0.4,0.2
	c-1.2-0.4-4.4-1.8-7-2v0.4c3.2,1.8,6.4,3.6,8.6,5L171.9,123.5z M169.1,115.3c0.2-2.6,1.4-6,2.6-9.2l-0.4-0.4c-1.6,2-3.2,4.8-3.8,6
	l-0.4,0.2c-2.2-0.8-4.8-1.8-7.2-2v0.4c2,0.8,6.8,3.8,8.8,5.2L169.1,115.3z M192.4,115.9c2-1.4,6.8-4.4,8.8-5.2v-0.4
	c-2.4,0.2-5,1.2-7.2,2l-0.4-0.2c-0.6-1.2-2.2-4-3.8-6l-0.4,0.4c1.2,3.2,2.4,6.6,2.6,9.2L192.4,115.9z M206.4,57.3l-14.2,38.4
	l0.8,0.4l8-5.4h0.6l4.4,7.4h0.6l15.2-40l-0.4-0.8H206.4z M139.3,57.3l-0.4,0.8l15.4,40h0.6l4.4-7.4h0.6l8.4,5.4l0.8-0.4l-14-38.4
	H139.3z"/>
<path class="st5" d="M274.8,116.7c1.2-2.4,3.4-5,5.6-7.6l-0.2-0.4c-2,1.2-4.6,3-5.6,4h-0.4c-1.8-1.4-3.8-3.2-5.8-4.2l-0.2,0.4
	c1.6,1.4,4.8,5.8,6.2,7.8H274.8z M274.8,125.3c1-1.8,4.2-6.2,5.8-7.8l-0.2-0.2c-2,0.8-4.2,2.4-5.8,4h-0.4c-1-0.8-3.6-2.8-5.6-4
	l-0.2,0.4c2.2,2.6,4.4,5.4,6,7.6H274.8z M347.1,97.9V72.7l-15.4-15.4H282l-15.4,15.4v25.2h0.8l6.8-7h0.6l7.2,7h0.8V71.5H331v26.4
	h0.8l6.8-7h0.6l7.2,7H347.1z"/>
<path class="st5" d="M406.3,117.1c1.2-2.4,3.4-5.2,5.8-7.8l-0.2-0.4c-2.2,1.2-4.8,3.2-5.8,4.2h-0.4c-1.8-1.6-3.8-3.4-6-4.4l-0.2,0.4
	c1.6,1.4,5,6,6.4,8H406.3z M470.8,117.1c1.2-2.4,3.4-5.2,5.8-7.8l-0.2-0.4c-2.2,1.2-4.8,3.2-5.8,4.2h-0.4c-1.8-1.6-3.8-3.4-6-4.4
	l-0.2,0.4c1.6,1.4,5,6,6.4,8H470.8z M406.3,125.9c1-1.8,4.4-6.4,6-8l-0.2-0.2c-2.2,0.8-4.4,2.6-6,4.2h-0.4c-1-0.8-3.6-3-5.8-4.2
	l-0.2,0.4c2.4,2.8,4.6,5.6,6.2,7.8H406.3z M470.8,125.9c1-1.8,4.4-6.4,6-8l-0.2-0.2c-2.2,0.8-4.4,2.6-6,4.2h-0.4
	c-1-0.8-3.6-3-5.8-4.2l-0.2,0.4c2.4,2.8,4.6,5.6,6.2,7.8H470.8z M414.2,97.9V72.7h48.2v25.2h0.8l7.2-7h0.6l6.8,7h0.8V72.7
	l-15.4-15.4H432l-16.8,13h-1V58.1l-0.8-0.8h-14.6l-0.8,0.8v39.8h0.8l6.8-7h0.6l7.2,7C413.4,97.9,414.2,97.9,414.2,97.9z"/>
<path class="st5" d="M538.1,116.7c1.2-2.4,3.4-5,5.6-7.6l-0.2-0.4c-2,1.2-4.6,3-5.6,4h-0.4c-1.8-1.4-3.8-3.2-5.8-4.2l-0.2,0.4
	c1.6,1.4,4.8,5.8,6.2,7.8H538.1z M538.1,125.3c1-1.8,4.2-6.2,5.8-7.8l-0.2-0.2c-2,0.8-4.2,2.4-5.8,4h-0.4c-1-0.8-3.6-2.8-5.6-4
	l-0.2,0.4c2.2,2.6,4.4,5.4,6,7.6H538.1z M546.1,33l-0.8-0.8h-14.6l-0.8,0.8v24.4h-15.6l-0.8,0.8v13.6l0.8,0.8h15.6V98h0.8l6.8-7h0.6
	l7.2,7h0.8V72.5h23.6l0.8-0.8V58.1l-0.8-0.8h-23.6V33z"/>
<path class="st5" d="M628.5,117.1c1.2-2.4,3.4-5.2,5.8-7.8l-0.2-0.4c-2.2,1.2-4.8,3.2-5.8,4.2h-0.4c-1.8-1.6-3.8-3.4-6-4.4l-0.2,0.4
	c1.6,1.4,5,6,6.4,8H628.5z M628.5,125.9c1-1.8,4.4-6.4,6-8l-0.2-0.2c-2.2,0.8-4.4,2.6-6,4.2h-0.4c-1-0.8-3.6-3-5.8-4.2l-0.2,0.4
	c2.4,2.8,4.6,5.6,6.2,7.8H628.5z M635.7,34.6l0.8-0.8V18l-0.8-0.8h-14.6l-0.8,0.8v15.8l0.8,0.8H635.7z M636.5,58.1l-0.8-0.8h-14.6
	l-0.8,0.8v39.8h0.8l6.8-7h0.6l7.2,7h0.8V58.1z"/>
<path class="st5" d="M695.4,116.7c1.2-2.4,3.4-5,5.6-7.6l-0.2-0.4c-2,1.2-4.6,3-5.6,4h-0.4c-1.8-1.4-3.8-3.2-5.8-4.2l-0.2,0.4
	c1.6,1.4,4.8,5.8,6.2,7.8H695.4z M695.4,125.3c1-1.8,4.2-6.2,5.8-7.8l-0.2-0.2c-2,0.8-4.2,2.4-5.8,4h-0.4c-1-0.8-3.6-2.8-5.6-4
	l-0.2,0.4c2.2,2.6,4.4,5.4,6,7.6H695.4z M759.9,117.1c1.2-2.4,3.4-5.2,5.8-7.8l-0.2-0.4c-2.2,1.2-4.8,3.2-5.8,4.2h-0.4
	c-1.8-1.6-3.8-3.4-6-4.4l-0.2,0.4c1.6,1.4,5,6,6.4,8H759.9z M759.9,125.9c1-1.8,4.4-6.4,6-8l-0.2-0.2c-2.2,0.8-4.4,2.6-6,4.2h-0.4
	c-1-0.8-3.6-3-5.8-4.2l-0.2,0.4c2.4,2.8,4.6,5.6,6.2,7.8H759.9z M767.7,97.9V18l-0.8-0.8h-14.6l-0.8,0.8v52.4h-1l-16.8-13h-31.2
	l-15.4,15.4V98h0.8l6.8-7h0.6l7.2,7h0.8V72.7h48.2v25.2h0.8l6.8-7h0.6l7.2,7C766.9,97.9,767.7,97.9,767.7,97.9z"/>
<path class="st5" d="M826.9,116.7c1.2-2.4,3.4-5,5.6-7.6l-0.2-0.4c-2,1.2-4.6,3-5.6,4h-0.4c-1.8-1.4-3.8-3.2-5.8-4.2l-0.2,0.4
	c1.6,1.4,4.8,5.8,6.2,7.8H826.9z M826.9,125.3c1-1.8,4.2-6.2,5.8-7.8l-0.2-0.2c-2,0.8-4.2,2.4-5.8,4h-0.4c-1-0.8-3.6-2.8-5.6-4
	l-0.2,0.4c2.2,2.6,4.4,5.4,6,7.6H826.9z M899.2,97.9V72.7l-15.4-15.4H834l-15.4,15.4v25.2h0.8l6.8-7h0.6l7.2,7h0.8V71.5H883v26.4
	h0.8l6.8-7h0.6l7.2,7H899.2z"/>
<path class="st2" d="M23,130.9c0,1,0.8,1.8,1.8,1.8s1.8-0.8,1.8-1.8s-0.8-1.8-1.8-1.8S23,129.9,23,130.9z M21.4,100.7
	c0,1.8,1.6,3.4,3.4,3.4s3.4-1.6,3.4-3.4c0-1.8-1.6-3.4-3.4-3.4C23,97.3,21.4,98.9,21.4,100.7z"/>
<path class="st2" d="M171.5,128.9c0,1,0.8,1.8,1.8,1.8s1.8-0.8,1.8-1.8s-0.8-1.8-1.8-1.8C172.3,127.1,171.5,127.9,171.5,128.9z
	 M160.5,102.3c0,1.4,1.4,3,3.2,3s3.2-1.6,3.2-3c0-1.8-1.4-3.2-3.2-3.2C161.9,99.1,160.5,100.5,160.5,102.3z M189.6,128.9
	c0-1-0.8-1.8-1.8-1.8s-1.8,0.8-1.8,1.8s0.8,1.8,1.8,1.8S189.6,129.9,189.6,128.9z M200.8,102.3c0-1.8-1.4-3.2-3.2-3.2
	s-3.2,1.4-3.2,3.2c0,1.4,1.4,3,3.2,3C199.4,105.3,200.8,103.7,200.8,102.3z"/>
<path class="st2" d="M335.9,102.5c0,1.4,1.4,3,3.2,3c1.8,0,3.2-1.6,3.2-3c0-1.8-1.4-3.2-3.2-3.2S335.9,100.7,335.9,102.5z
	 M272.6,130.1c0,1,0.8,1.8,1.8,1.8s1.8-0.8,1.8-1.8s-0.8-1.8-1.8-1.8S272.6,129.1,272.6,130.1z M271.2,102.5c0,1.4,1.4,3,3.2,3
	s3.2-1.6,3.2-3c0-1.8-1.4-3.2-3.2-3.2S271.2,100.7,271.2,102.5z"/>
<path class="st2" d="M468.6,130.9c0,1,0.8,1.8,1.8,1.8s1.8-0.8,1.8-1.8s-0.8-1.8-1.8-1.8C469.4,129.1,468.6,129.9,468.6,130.9z
	 M467.2,102.5c0,1.6,1.4,3.2,3.2,3.2c1.8,0,3.2-1.6,3.2-3.2c0-1.8-1.4-3.2-3.2-3.2S467.2,100.7,467.2,102.5z M404.1,130.9
	c0,1,0.8,1.8,1.8,1.8s1.8-0.8,1.8-1.8s-0.8-1.8-1.8-1.8C404.9,129.1,404.1,129.9,404.1,130.9z M402.7,102.5c0,1.6,1.4,3.2,3.2,3.2
	c1.8,0,3.2-1.6,3.2-3.2c0-1.8-1.4-3.2-3.2-3.2S402.7,100.7,402.7,102.5z"/>
<path class="st2" d="M535.9,130.1c0,1,0.8,1.8,1.8,1.8s1.8-0.8,1.8-1.8s-0.8-1.8-1.8-1.8S535.9,129.1,535.9,130.1z M534.5,102.5
	c0,1.4,1.4,3,3.2,3s3.2-1.6,3.2-3c0-1.8-1.4-3.2-3.2-3.2S534.5,100.7,534.5,102.5z"/>
<path class="st2" d="M626.3,130.9c0,1,0.8,1.8,1.8,1.8s1.8-0.8,1.8-1.8s-0.8-1.8-1.8-1.8C627.1,129.1,626.3,129.9,626.3,130.9z
	 M624.9,102.5c0,1.6,1.4,3.2,3.2,3.2s3.2-1.6,3.2-3.2c0-1.8-1.4-3.2-3.2-3.2C626.3,99.3,624.9,100.7,624.9,102.5z"/>
<path class="st2" d="M693.2,130.1c0,1,0.8,1.8,1.8,1.8s1.8-0.8,1.8-1.8s-0.8-1.8-1.8-1.8S693.2,129.1,693.2,130.1z M691.8,102.5
	c0,1.4,1.4,3,3.2,3s3.2-1.6,3.2-3c0-1.8-1.4-3.2-3.2-3.2S691.8,100.7,691.8,102.5z M757.7,130.9c0,1,0.8,1.8,1.8,1.8
	s1.8-0.8,1.8-1.8s-0.8-1.8-1.8-1.8C758.5,129.1,757.7,129.9,757.7,130.9z M756.4,102.5c0,1.6,1.4,3.2,3.2,3.2s3.2-1.6,3.2-3.2
	c0-1.8-1.4-3.2-3.2-3.2C757.7,99.3,756.4,100.7,756.4,102.5z"/>
<path class="st2" d="M888,102.5c0,1.4,1.4,3,3.2,3s3.2-1.6,3.2-3c0-1.8-1.4-3.2-3.2-3.2S888,100.7,888,102.5z M824.7,130.1
	c0,1,0.8,1.8,1.8,1.8s1.8-0.8,1.8-1.8s-0.8-1.8-1.8-1.8S824.7,129.1,824.7,130.1z M823.3,102.5c0,1.4,1.4,3,3.2,3s3.2-1.6,3.2-3
	c0-1.8-1.4-3.2-3.2-3.2S823.3,100.7,823.3,102.5z"/>
</svg>
