<?xml version="1.0" encoding="utf-8"?>
<!-- Generator: Adobe Illustrator 17.1.0, SVG Export Plug-In . SVG Version: 6.00 Build 0)  -->
<!DOCTYPE svg PUBLIC "-//W3C//DTD SVG 1.1//EN" "http://www.w3.org/Graphics/SVG/1.1/DTD/svg11.dtd">
<svg version="1.1" id="Layer_1" xmlns="http://www.w3.org/2000/svg" xmlns:xlink="http://www.w3.org/1999/xlink" x="0px" y="0px"
	 width="940px" height="235px" viewBox="0 0 940 235" enable-background="new 0 0 940 235" xml:space="preserve">
<path opacity="0.25" d="M131.7,168.1l0.4,0.8l3.1-0.7l4.9-1.9l3.9-3.1l-0.3-0.4l-4.8,0.9l-4.7,2.5L131.7,168.1z M120.3,168l0.3,0.7
	l2.7-0.3l4.2-2.2l4.6-1.4l4.5-2.1l5.4-3.8l-0.4-0.8l-6.4,1.7l-4.6,2.1l-4,2.5l-4.4,1.9L120.3,168z M108.8,168l0.2,0.4l3.8-1.1
	l3.9-1.1l3.7-1.8l5.3-2.4l2.6-1.7l4.7-2.3l5.1-3l-0.3-0.8l-5.7,1.9l-4.7,2.1l-3,0.9l-5.3,2.5l-3.7,1.6l-3.3,2.4L108.8,168z
	 M97.1,167.7l0.4,0.8l3.9-1.4l2.8-0.8l4.4-1.9l4.1-1.9l4.1-2.1l4.1-1.9l5.6-2.9l3.3-0.5l4.8-4l-0.3-0.5l-6.2,1.2l-2.5,2.1l-5.8,2.5
	l-4.1,1.9l-4.2,1.8l-4.1,1.9l-4.4,2.1l-2.3,1.6L97.1,167.7z M128.1,148.1l0.2,0.4l4.4-0.3l2.5-2l4.8-3l-0.3-0.8l-5.4,1.9l-3.1,0.5
	L128.1,148.1z M85.4,167.9l0.2,0.4l4.2-1.4l2.9-0.8l4.9-2.8l4.7-2.2l4.1-1.4l3-1.4l4.6-3.2l5-2.3l-0.3-0.4l-5.1,1.9l-5.4,1.5
	l-2.9,1.4l-3.8,2.3l-4.7,2.2l-5.3,1.9l-2.5,1.8L85.4,167.9z M126.6,143.1l0.2,0.4l3.6,0.1l5.3-3l4-3l-0.2-0.5l-4.9,1.1l-5.7,2.3
	L126.6,143.1z M73.4,168l0.2,0.4l4-0.9l3.1-1.7l4.5-2.2l4.7-1.3l3.1-1.9l6.4-2.2l3.4-1.9l4.4-3.5l-0.2-0.3l-5.5,1l-3.6,1.4l-5.8,3.5
	l-3.5,1.1l-4.1,2.9l-4.5,2l-3.4,1.3L73.4,168z M153.4,125.1l0.3,0.7l1.4,0.3l1.3-0.3l1.4-1.9l-0.3-0.5l-2.5-0.1l-1,0.8L153.4,125.1z
	 M122.8,139.3l0.3,0.3l3.8-0.5l4-1.6l2.7-2.1l6-3.1l-0.3-0.6l-6.3,2.5l-3.5,0.8l-3.8,1.9L122.8,139.3z M61.2,168.1l0.3,0.6l3.2-0.3
	l4.2-2.5l5.4-1.7l3.1-1.9l5.3-2.8l2.8-0.7l5.8-3l4.3-3.2l-0.2-0.3l-5.3,1.3l-5.9,2.5l-2.4,1.7l-5.4,2.2L73,161l-4.7,3l-4.7,1.6
	L61.2,168.1z M147.8,122.2l0.3,0.6l3-0.1l4-2l3-2.6l-0.2-0.5l-4,0.7l-4.1,1.8L147.8,122.2z M124,133.7l0.2,0.3l3-0.7l6.4-2.9
	l6.1-3.6l-0.3-0.8l-6.7,2.4l-6.3,3L124,133.7z M119.1,135.4l0.3,0.6l1.4,0.8l1.9-0.5l0.9-2l-0.1-0.3l-2.4-0.8l-1.6,1.1L119.1,135.4z
	 M49.2,168.1l0.3,0.6l3.4-1.2l4.4-1.2l5.3-2.3l4.6-2.1l2.5-1.7l5.4-1.8l3.8-2.1l5.3-3.7l-0.3-0.4l-6.4,1.4l-4.1,1.5l-4.7,3l-3,0.8
	l-4.5,2.1l-5.3,2.6l-3.7,2.6L49.2,168.1z M142.2,119.3l0.4,0.8l4.3-0.8l3.4-1.5l3.6-2.6l4.6-2.5l-0.3-0.7l-4.9,1.9l-4.3,1.1
	l-3.5,1.6L142.2,119.3z M123.9,128.1l0.2,0.5l4.1-0.5l4.2-2.3l7.4-4.6l-0.3-0.6l-8.2,2.7l-4.5,1.9L123.9,128.1z M39.2,167.2l0.3,0.8
	l2.9-0.4l5.6-2.3l4.2-1.7l2.8-2.5l5.1-1.4l4.1-2.9l4.1-1.2l4.1-3l-0.2-0.3l-5.1,0.9l-3.6,2.4l-4.8,1.3l-4.2,3l-3.8,0.5l-4,2.1
	l-5.3,2.8L39.2,167.2z M123.7,122.7l0.2,0.4l3.7-1.4l4.2-1.3l5.2-2.7l3-1l4.3-1.8l5.3-3l5.3-2.6l4.1-2.5l-0.3-0.8l-4.7,1.4l-5.3,2.3
	l-5.8,2.3l-4.1,2.1l-2.7,1.6l-5.3,2.2l-3.7,2.5L123.7,122.7z M35.4,163.5l0.4,0.8l2.4-0.6l6.2-2.5l3.1-1.7l4.1-1.5l4.1-2.3l4.7-3
	l-0.3-0.4l-5.4,1.4l-4.4,1.8l-3.9,2.2l-3.2,1.3l-5.9,3L35.4,163.5z M141.7,108.8l0.2,0.4l4.8-1.1l2.9-1l4.2-2.5l5.5-3.5l-0.2-0.5
	l-6.3,2l-4.7,1.6l-2.6,1.6L141.7,108.8z M123.6,117.2l0.2,0.5l3.5-0.4l6.4-3l5.4-3.6l-0.2-0.4l-6.4,1.6l-6.4,2.9L123.6,117.2z
	 M31.8,159.8l0.2,0.5l4.6-1l2.6-0.8l5.2-2.5l4.1-3.1l-0.3-0.5l-5.2,0.9l-5.3,2.4l-2.4,1.4L31.8,159.8z M142.1,103.2l0.2,0.4l2.6-0.5
	l4.7-1.9l4.8-2.1l4.5-3.4l-0.3-0.4l-5.5,1.3l-4.7,2.4l-4.4,2.3L142.1,103.2z M123.6,111.8l0.3,0.5l2.8-0.8l3.3-0.8l3.6-3.1l-0.2-0.4
	l-4.7,0.6l-2.7,2L123.6,111.8z M28,156l0.3,0.7l3,0.2l1.4-1.4l3.6-2.5l-0.3-0.4l-4.3,1l-1.9,0.2L28,156z M142.5,97.5l0.2,0.4l3.6-1
	l4.4-1.8l4.5-3l-0.3-0.8l-5.2,1.6l-4.1,2.2L142.5,97.5z M123.7,106.3l0.2,0.4l1.4,0.2l1.4,0.1l1.2-2.2l-0.2-0.4l-2.6-0.8l-0.8,1.2
	L123.7,106.3z M142.9,91.8l0.2,0.4l2.4-0.1l3.1-1l2.8-2.9l-0.3-0.4l-4,0.3l-2.8,1.8L142.9,91.8z M143.2,86.2l0.2,0.3l1.5,0.6l1.5-1
	l1.2-1.5l-0.3-0.5l-1.9-0.1l-1.7,0.5L143.2,86.2z M26.9,90.6l0.3,0.8l1.4,0.9l0.4-0.9l0.9-1.7l-0.2-0.4l-1.8-0.1l-1-0.3L26.9,90.6z"
	/>
<path opacity="0.25" d="M272.6,168.3l0.3,0.8l1.2,0.3l2-0.7l1.1-1.9l-0.2-0.4l-2.1-0.3l-1.9,1.1L272.6,168.3z M260.9,168.5l0.3,0.4
	l4.4-0.9l5.8-2.8l5.7-3.6l-0.3-0.6l-6.4,2l-5.8,2.6L260.9,168.5z M249.4,168.3l0.3,0.5l2.9-0.7l6-1.9l4.2-2.7l3.8-1.6l4.8-2.2
	l5.3-3.6l-0.2-0.5l-6.2,1.8l-4.7,2.2l-3.7,1.9l-4.8,1.4l-5.3,3.5L249.4,168.3z M237.8,168.1l0.3,0.8l3.4-1.3l5.5-1.8l3.3-1.4
	l3.6-2.2l4.2-1.6l5.1-2.6l4-1.4l5.2-3.2l4.1-2.5l-0.3-0.4l-4.5,1.4l-5.8,1.9l-3.7,2.1l-5.3,2.2l-4,2.2l-4,1.4l-3.1,1.6l-4.8,3
	L237.8,168.1z M261.4,152l0.3,0.4l4.7-1.4l4.7-2.5l5.3-2.9l-0.3-0.8l-5.6,2.1l-5,1.9L261.4,152z M226.3,168.1l0.2,0.4l4.4-1.4
	l2.2-0.9l4-2.1l5.3-1.6l3.6-2.1l5.6-2.9l3-1.4l5.2-3l-0.1-0.3l-5.8,1.9l-2.9,1.4l-5.8,2.5l-3.9,1.4l-4.6,3l-4.1,1.7l-2.2,1.1
	L226.3,168.1z M261,146.5l0.3,0.4l3.9-0.8l5.3-1.9l5.3-4l-0.3-0.8L269,141l-4.8,2.9L261,146.5z M214.4,168.1l0.3,0.6l4.3-1.4
	l2.8-0.5l3.8-1.7l5.2-2.7l3.6-1.7l4.3-1.9l4.3-2.5l4.9-3.1l-0.2-0.3l-5.7,1.5l-4.7,1.7l-4.2,2.1l-3.6,1.7l-5.4,2.1l-3.7,1.9
	l-2.1,1.9L214.4,168.1z M260.8,141.2l0.2,0.3l3-0.8l6.5-2.3l5.1-3.6l-0.3-0.8l-6,1.5l-5.9,3.6L260.8,141.2z M202.7,168.1l0.3,0.6
	l3.2-0.9l4.1-1.5l4.9-1.8l4.6-2.4l3-1.6l3.6-2.1l5.3-2.5l4.9-2.7l-0.2-0.5l-5.5,1.7l-5.3,2.5l-3.9,1.4l-3.1,1.3l-4.7,1.9l-4.5,2.6
	l-3.9,2.1L202.7,168.1z M260.5,135.9l0.2,0.3l2.4,0.2l4.7-2.5l4.2-2.9l-0.3-0.6l-4.9,1.4l-5,1.9L260.5,135.9z M190.6,168.3l0.2,0.4
	l2.8-0.8l5.1-1.7l5.1-2.4l3.2-1.4l3.9-1.8l4.3-1.8l4.2-2.2l5.5-3.6l-0.3-0.5l-6.4,1.7l-4.5,1.8l-4.1,2.2l-3.9,1.8l-3.1,1.6l-5.2,2.4
	l-4.6,2.8L190.6,168.3z M272,124.8l0.3,0.7l1.1,0.3l1.1-0.2l1.3-1.7l-0.3-0.8l-2.1-0.1l-0.8,0.8L272,124.8z M260.2,130.5l0.2,0.4
	l2,0.4l3.5-2.2l2.7-1.9l-0.3-0.8l-3.3,0.8l-3.8,1.3L260.2,130.5z M178.5,168.3l0.3,0.6l2.8-0.7l6.1-2.3l3.3-1.9l4.2-1.5l5.1-2.8
	l4.6-1.9l2.6-1.4l5.8-3.6l-0.2-0.4l-6.6,1.9l-2.7,1.3l-4.4,2.2l-5.5,2.1l-3.8,2.2l-3.6,1.4l-5.6,3.1L178.5,168.3z M259.8,125.2
	l0.3,0.4l2.9-0.8l4.4-1.3l4.9-2.7l3.8-2.7l-0.3-0.7l-4.6,1.2l-5.3,2l-3.7,2.5L259.8,125.2z M166.6,168.5l0.3,0.4l4.6-1.3l3-0.9
	l3.7-1.9l6.4-3.3l3.3-1.7l5.1-1.4l4.2-2.6l4.5-2.9l-0.2-0.4l-5.3,1.3l-4.7,1.5l-4.2,3l-3.6,1.4l-6.5,2.7l-3.9,1.6l-2.6,1.7
	L166.6,168.5z M259.6,119.8l0.2,0.4l3.6-0.8l4-1.1l4.8-2.2l4.3-3.6l-0.2-0.5l-5.7,0.9l-4.7,2.4l-3.5,2.3L259.6,119.8z M156.9,167.5
	l0.3,0.4l3.1-1.1l4.8-2l3-1.4l5.4-2.3l3.4-0.7l5.2-2.5l3.5-2.5l4.2-2.5l-0.3-0.5l-4.7,1.4l-4.2,1l-5.2,2.3l-2.7,2.2l-5.2,2.7
	l-3.1,1.4l-4.7,2.4L156.9,167.5z M256.7,115.5l0.2,0.4l2.7-0.7l5.5-1.9l7.1-3.5l4.7-3.1l-0.3-0.5l-5.3,1.5l-7.2,3.2l-5.1,3
	L256.7,115.5z M153.2,163.6l0.3,0.6l3.6-1l3.6-0.8l4.9-2.5l3.3-1.5l4.9-2.5l3.9-3l-0.2-0.5l-4.9,0.9l-5.1,2.2l-3.3,1.5l-5.1,2.1
	l-3,2.3L153.2,163.6z M259.7,108.9l0.1,0.3l3-0.4l5.7-2.3l2.7-1.4l6-4.1l-0.3-0.5l-6.9,1.9l-2.8,1.3l-5.3,2.9L259.7,108.9z
	 M252.9,111.6l0.3,0.5l1.5,0.4l1.1-0.6l1.9-1.7l-0.3-0.5l-2.6,0.2l-1.2,0.5L252.9,111.6z M149.4,159.9l0.3,0.6l4.9-1.8l5.4-2.8
	l5.7-2.8l-0.3-0.5l-5.9,2.3l-5.6,2.3L149.4,159.9z M260,103.1l0.2,0.4l4.2-0.7l2.5-1.6l5.4-1.7l4.7-3.9l-0.3-0.4l-5.9,1.1l-4.7,3
	l-2.8,0.8L260,103.1z M145.7,156.1l0.3,0.7l2.3-0.5l2.7-0.9l2.7-2.1l-0.3-0.5l-3.5,0.4l-2.5,1.4L145.7,156.1z M260.3,97.5l0.3,0.5
	l3.8-0.9l3.8-1.1l5-4l-0.3-0.6l-6.3,1.3l-3.2,2.2L260.3,97.5z M260.8,91.8l0.2,0.4l2.4-0.1l3.2-1.1l2.9-2.9l-0.3-0.4l-4.1,0.3
	l-2.8,1.8L260.8,91.8z M261.1,86.2l0.2,0.3l1.5,0.6l1.6-1l1.3-1.6l-0.3-0.5l-2-0.1l-1.8,0.6L261.1,86.2z M144.8,90.6l0.3,0.8
	l1.4,0.9l0.4-0.9l0.9-1.7l-0.2-0.4l-1.8-0.1l-1-0.3L144.8,90.6z"/>
<path opacity="0.25" d="M374.5,166.5l0.3,0.8l3-0.3l4-2.7l5.5-2.4l4.7-1.4l3.8-2.5l6.4-3.5l-0.3-0.8l-6.9,2.7l-4.4,1.4l-4.1,2.7
	l-5.3,2.7l-4.7,1.3L374.5,166.5z M358.8,168.2l0.4,0.8l3-1.2l4.4-1.3l4.9-2.3l4.1-1.9l4.1-2.4l2.5-0.8l4.7-2.4l4.4-2.4l4.7-2
	l4.2-1.9l3.2-1.8l5-2.9l-0.2-0.5l-5.5,2l-3.4,1.3l-4.1,2l-4.6,2.3l-4.7,1.9l-4.8,2l-2.2,1.4l-4.5,1.6l-4.1,1.9l-4.9,2.4l-3.8,2.5
	L358.8,168.2z M346.6,168.5l0.3,0.4l2.7-0.3l4.9-2.2l3.7-1.5l5.1-2.6l3.6-1.8l3-1.4l5-1.4l4.1-2.7l2.4-1.6l5.6-1.7l3.4-1.9l3.7-1.3
	l5.1-2.5l2.4-1.8l4.5-2.5l5.2-2.6l-0.3-0.6l-5.3,2.3l-4.7,1.9l-3,0.7l-5.2,2.2l-3.4,2.1l-3.6,1.3l-4.9,3.2l-2.7,0.8l-4.7,1.4
	l-4.3,2.9l-3,1.4l-3.7,1.6l-5.3,2.2l-3.6,1.9l-4.7,2.4L346.6,168.5z M334.8,168.2l0.3,0.6l3-0.5l3.6-1.8l5.6-2.6l2.9-1.5l5.4-1.8
	l2.5-1.6l3.4-2l5.3-1.5l4.9-2.5l2.7-0.8l4.5-3.1l4.7-1.7l4.1-1.3l2.5-1.9l4.7-2.7l3.6-1.3l3.3-1.9l5.2-2.5l4.7-2.5l-0.3-0.8l-5,1.9
	l-5.2,2.3l-3.6,1.4l-3.3,1.9l-5.2,1.8l-3,0.8l-3.6,2.3l-4.3,2.6l-5.3,1.4l-2.5,1.5l-5,2.1l-4.6,3l-3.8,1.4l-2.8,0.8l-4.9,3l-3,1.2
	l-5.6,2.6l-3.7,1.7L334.8,168.2z M384.4,139.7l0.2,0.4l3.2-0.7l5.9-2.2l4.9-2.5l4.1-1.4l2.9-1.9l6.4-4.1l-0.3-0.5l-7.3,2.3l-3.3,1
	l-3.6,2.1l-5.2,2.2l-5.3,3.6L384.4,139.7z M323,168.1l0.3,0.6l3.6-0.8l4.2-1.9l4.7-2.2l3.2-1.1l3.4-2.5l5.5-2.1l4-2l4.4-2.1l4.7-3
	l-0.1-0.3l-5.4,1.5l-4.4,2l-4.1,1.7l-5.2,2.9l-4.1,1l-2.9,1.7l-4.7,2.2l-4.1,2L323,168.1z M392,130.4l0.3,0.5l2.8-0.5l6.4-2.6
	l4.4-1.9l5.3-3.7l-0.3-0.8l-6.3,1.7l-4.3,2.1l-6.2,3.3L392,130.4z M311,168.1l0.2,0.4l2.3-0.7l6.7-1.9l2.4-1.6l4.8-2.1l4.8-2.8
	l3.5-0.7l3.6-2.2l5.5-3.5l-0.3-0.5l-6.3,1.7l-4.1,1.4l-2.7,2.2l-5.3,1.9l-4.7,2.4l-2.7,0.8l-5.8,3.9L311,168.1z M394.9,123.6
	l0.2,0.3l5.1-0.8l3.5-2.3l6.1-3.6l-0.3-0.5l-6.7,2.3l-4,1.2L394.9,123.6z M298.5,168.2l0.2,0.5l2.6-0.8l5.3-1.4l3.7-2l4.7-2.6
	l4.7-1.4l4.1-2.1l3.6-1.4l4.7-3.8l-0.2-0.4l-6.2,0.8l-3.3,1.9l-4.3,1.7l-4.1,2.8l-5.1,1.9l-4,1.6l-4.5,3.2L298.5,168.2z
	 M395.8,117.6l0.2,0.4l3.6-1.2l3.6-0.6l4.5-3.7l-0.3-0.8l-5.7,1.1l-2.8,2.4L395.8,117.6z M285.9,168.4l0.3,0.6l3.1,0.2l5.1-3
	l3.6-2.1l5.3-1.4l2.9-1.6l4.4-2.3l4-1.9l6-3.7l-0.3-0.5l-6.9,1.9l-4.1,1.8l-4.6,1.9l-3,1.2l-4.5,3.1l-3.9,1.4l-5.5,2L285.9,168.4z
	 M396,111.7l0.3,0.5h2.3l2.8-0.9l3.8-3.2l-0.3-0.8l-5,0.8l-2.5,1.5L396,111.7z M275.1,167.7l0.3,0.8l3.3-0.9l3.1-1.6l5.5-2.4l5-1.5
	l3.5-1.9l3.9-2.5l4.3-1.7l4.8-3l-0.3-0.5l-5.6,1.4l-4,2.3l-4.5,1.3l-3.7,1.4l-4.3,2.9l-5.3,2.7l-3.2,1.4L275.1,167.7z M395.3,106.4
	l0.3,0.5l2.4-0.4l1.9-0.3l2.4-2.3l-0.3-0.8l-3.3,0.3l-1.4,1.2L395.3,106.4z M271.2,164l0.3,0.6l3.8-0.3l2.8-2l4.4-2.1l6.1-2.7
	l3.4-1.1l4.7-3.6l-0.2-0.3l-5.8,1.1l-3,1.9l-6,3l-4.5,2l-3.3,0.8L271.2,164z M394,101.4l0.1,0.2l1.7,0.8l1-1.1l1.9-1.4l-0.3-0.8
	l-2.4,0.5l-1.5,0.1L394,101.4z M267.4,160.2l0.3,0.4l3.6-1l4.2-1.1l4.7-2.4l4.1-3.1l-0.2-0.4l-5.2,0.8l-4.8,2.1l-3.6,2.5
	L267.4,160.2z M392,96.7v0.2l1.1,0.3l0.9-0.1l0.7-1.4l-0.3-0.4L393,95l-0.6,0.7L392,96.7z M263.5,156.3l0.3,0.6l2,0.4l2.9-1.4l3-2.6
	l-0.2-0.5l-4.2,0.4l-2.9,1.3L263.5,156.3z M325.6,122l0.3,0.5h1.1l1.1-0.5l1.2-1.4l-0.3-0.5l-2-0.5l-0.8,1.2L325.6,122z
	 M325.6,116.4l0.2,0.3l2.6,0.5l1-1.4l2.9-2.4l-0.3-0.4l-3.6,0.8l-1.7-0.1L325.6,116.4z M325.6,110.7l0.2,0.4l2.4-0.4l2.7-1l2.5-2.3
	l-0.3-0.6l-3.3,0.8l-2.5,1.4L325.6,110.7z M325.6,105l0.3,0.5l2.5-0.3l2.6-0.3l2.8-3.4l-0.2-0.4l-4.3,0.3l-1.9,1.7L325.6,105z
	 M325.6,99.5l0.2,0.3l2.3,0.1l3-0.9l2.5-3l-0.2-0.4l-3.9,0.2l-2.6,1.7L325.6,99.5z M325.6,93.8l0.2,0.3l2.3,0.3l2.6-1.5l2.2-2.3
	l-0.2-0.3l-3.1,0.3l-2.8,1.1L325.6,93.8z M261.4,89.5l0.3,0.8l1.4,1l0.3-0.9l1-1.4l-0.3-0.5l-1.5,0.2l-0.9-0.3L261.4,89.5z"/>
<path opacity="0.25" d="M523.8,168.3l0.3,0.8l1.2,0.3l2-0.7l1.1-1.9l-0.2-0.4l-2.1-0.3l-1.9,1.1L523.8,168.3z M512.1,168.5l0.3,0.4
	l4.4-0.9l5.8-2.8l5.7-3.6L528,161l-6.4,2l-5.8,2.6L512.1,168.5z M500.6,168.3l0.3,0.5l2.9-0.7l6-1.9l4.2-2.7l3.8-1.6l4.8-2.2
	l5.3-3.6l-0.2-0.5l-6.2,1.8l-4.7,2.2l-3.7,1.9l-4.8,1.4l-5.3,3.5L500.6,168.3z M489,168.1l0.3,0.8l3.4-1.3l5.5-1.8l3.3-1.4l3.6-2.2
	l4.2-1.6l5.1-2.6l4-1.4l5.2-3.2l4.1-2.5l-0.3-0.4l-4.5,1.4l-5.8,1.9l-3.7,2.1l-5.3,2.2l-4,2.2l-4,1.4l-3.1,1.6l-4.8,3L489,168.1z
	 M512.6,152l0.3,0.4l4.7-1.4l4.7-2.5l5.3-2.9l-0.3-0.8l-5.6,2.1l-5,1.9L512.6,152z M477.5,168.1l0.2,0.4l4.4-1.4l2.2-0.9l4-2.1
	l5.3-1.6l3.6-2.1l5.6-2.9l3-1.4l5.2-3l-0.1-0.3l-5.8,1.9l-2.9,1.4l-5.8,2.5l-3.9,1.4l-4.6,3l-4.1,1.7l-2.2,1.1L477.5,168.1z
	 M512.2,146.5l0.3,0.4l3.9-0.8l5.3-1.9l5.3-4l-0.3-0.8l-6.5,1.5l-4.8,2.9L512.2,146.5z M465.6,168.1l0.3,0.6l4.3-1.4l2.8-0.5
	l3.8-1.7l5.2-2.7l3.6-1.7l4.3-1.9l4.3-2.5l4.9-3.1l-0.2-0.3l-5.7,1.5l-4.7,1.7l-4.2,2.1l-3.6,1.7l-5.4,2.1l-3.7,1.9l-2.1,1.9
	L465.6,168.1z M512,141.2l0.2,0.3l3-0.8l6.5-2.3l5.1-3.6l-0.3-0.8l-6,1.5l-5.9,3.6L512,141.2z M453.9,168.1l0.3,0.6l3.2-0.9l4.1-1.5
	l4.9-1.8l4.6-2.4l3-1.6l3.6-2.1l5.3-2.5l4.9-2.7l-0.2-0.5l-5.5,1.7l-5.3,2.5l-3.9,1.4l-3.1,1.3l-4.7,1.9l-4.5,2.6l-3.9,2.1
	L453.9,168.1z M511.7,135.9l0.2,0.3l2.4,0.2l4.7-2.5l4.2-2.9l-0.3-0.6l-4.9,1.4l-5,1.9L511.7,135.9z M441.8,168.3l0.2,0.4l2.8-0.8
	l5.1-1.7l5.1-2.4l3.2-1.4l3.9-1.8l4.3-1.8l4.2-2.2l5.5-3.6l-0.3-0.5l-6.4,1.7l-4.5,1.8l-4.1,2.2l-3.9,1.8l-3.1,1.6l-5.2,2.4
	l-4.6,2.8L441.8,168.3z M523.2,124.8l0.3,0.7l1.1,0.3l1.1-0.2l1.3-1.7l-0.3-0.8l-2.1-0.1l-0.8,0.8L523.2,124.8z M511.4,130.5
	l0.2,0.4l2,0.4l3.5-2.2l2.7-1.9l-0.3-0.8l-3.3,0.8l-3.8,1.3L511.4,130.5z M429.7,168.3l0.3,0.6l2.8-0.7l6.1-2.3l3.3-1.9l4.2-1.5
	l5.1-2.8l4.6-1.9l2.6-1.4l5.8-3.6l-0.2-0.4l-6.6,1.9l-2.7,1.3l-4.4,2.2l-5.5,2.1l-3.8,2.2l-3.6,1.4l-5.6,3.1L429.7,168.3z
	 M511,125.2l0.3,0.4l2.9-0.8l4.4-1.3l4.9-2.7l3.8-2.7l-0.3-0.7l-4.6,1.2l-5.3,2l-3.7,2.5L511,125.2z M417.8,168.5l0.3,0.4l4.6-1.3
	l3-0.9l3.7-1.9l6.4-3.3l3.3-1.7l5.1-1.4l4.2-2.6l4.5-2.9l-0.2-0.4l-5.3,1.3l-4.7,1.5l-4.2,3l-3.6,1.4l-6.5,2.7l-3.9,1.6l-2.6,1.7
	L417.8,168.5z M510.8,119.8l0.2,0.4l3.6-0.8l4-1.1l4.8-2.2l4.3-3.6l-0.2-0.5l-5.7,0.9l-4.7,2.4l-3.5,2.3L510.8,119.8z M408.1,167.5
	l0.3,0.4l3.1-1.1l4.8-2l3-1.4l5.4-2.3l3.4-0.7l5.2-2.5l3.5-2.5l4.2-2.5l-0.3-0.5l-4.7,1.4l-4.2,1l-5.2,2.3l-2.7,2.2l-5.2,2.7
	l-3.1,1.4l-4.7,2.4L408.1,167.5z M507.9,115.5l0.2,0.4l2.7-0.7l5.5-1.9l7.1-3.5l4.7-3.1l-0.3-0.5l-5.3,1.5l-7.2,3.2l-5.1,3
	L507.9,115.5z M404.4,163.6l0.3,0.6l3.6-1l3.6-0.8l4.9-2.5l3.3-1.5l4.9-2.5l3.9-3l-0.2-0.5l-4.9,0.9l-5.1,2.2l-3.3,1.5l-5.1,2.1
	l-3,2.3L404.4,163.6z M510.9,108.9l0.1,0.3l3-0.4l5.7-2.3l2.7-1.4l6-4.1l-0.3-0.5l-6.9,1.9l-2.8,1.3l-5.3,2.9L510.9,108.9z
	 M504.1,111.6l0.3,0.5l1.5,0.4l1.1-0.6l1.9-1.7l-0.3-0.5L506,110l-1.2,0.5L504.1,111.6z M400.6,159.9l0.3,0.6l4.9-1.8l5.4-2.8
	l5.7-2.8l-0.3-0.5l-5.9,2.3l-5.6,2.3L400.6,159.9z M511.2,103.1l0.2,0.4l4.2-0.7l2.5-1.6l5.4-1.7l4.7-3.9l-0.3-0.4l-5.9,1.1l-4.7,3
	l-2.8,0.8L511.2,103.1z M396.9,156.1l0.3,0.7l2.3-0.5l2.7-0.9l2.7-2.1l-0.3-0.5l-3.5,0.4l-2.5,1.4L396.9,156.1z M511.5,97.5l0.3,0.5
	l3.8-0.9l3.8-1.1l5-4l-0.3-0.6l-6.3,1.3l-3.2,2.2L511.5,97.5z M512,91.8l0.2,0.4l2.4-0.1l3.2-1.1l2.9-2.9l-0.3-0.4l-4.1,0.3
	l-2.8,1.8L512,91.8z M512.3,86.2l0.2,0.3l1.5,0.6l1.6-1l1.3-1.6l-0.3-0.5l-2-0.1l-1.8,0.6L512.3,86.2z M396,90.6l0.3,0.8l1.4,0.9
	l0.4-0.9l0.9-1.7l-0.2-0.4l-1.8-0.1l-1-0.3L396,90.6z"/>
<path opacity="0.25" d="M670.5,168.7l0.3,0.8l2.5-0.8h2.6l1.9-2.7l-0.3-0.5l-3.3-0.3l-1.7,1.9L670.5,168.7z M656.4,169.7l0.3,0.6
	l3-0.8l4.8-1.9l4.6-2.5l4.5-1.5l4.1-3.2l-0.3-0.4l-5,1l-4.1,2.5l-4.9,1.9l-4.5,2.5L656.4,169.7z M644,169.9l0.2,0.4l2.9-1l5-1.2
	l3.6-1.9l4.8-2.2l4.3-1.5l4.5-2.7l4.4-3.1l-0.2-0.5l-5.3,1.4l-4.9,1.7l-4,2.4l-4.7,2.2l-3.8,1.6l-4.2,3L644,169.9z M633.3,169.2
	l0.3,0.6l3.5-1.3l4.6-1.6l2.5-1.4l5.6-1.9l3.6-1.6l3.4-2l5.3-1.9l2.6-1.4l5.3-3.9l-0.3-0.4l-6.4,1.5l-2.8,1.1l-4.9,2.9l-3.7,1.3
	l-3.5,1.7l-5,3.1l-2.7,0.9l-4.2,2.5L633.3,169.2z M662,150.3l0.2,0.5l1.4,0.8l1.4-0.9l1.1-1.9l-0.3-0.4l-2-0.3l-1.6,0.4L662,150.3z
	 M624.8,167.5l0.2,0.4l3.2-0.8l5.3-1.6l4-2.2l5.5-2l3.5-2.1l5.7-2.5l4.3-3.4l-0.2-0.3l-5.4,1l-5.6,2.7l-3.9,1.3l-5,3l-4.3,1.6
	l-4.7,3L624.8,167.5z M617.7,165l0.3,0.7l3.6-1.3l4.7-1.5l4.5-2.3l6.4-3.6l4.8-2.5l-0.3-0.4l-5.2,1.8l-6.9,2.6l-4.6,1.9l-4.2,2.6
	L617.7,165z M610.4,168.4l0.3,0.8l0.8,0.7l0.3-0.5l0.3-1l-0.3-0.4l-0.9-0.5h-0.6V168.4z M612.2,161.9l0.3,0.8l4.1-0.8l3.4-1.7l3.8-2
	l5.7-3.4l-0.2-0.5l-6.4,2l-4.1,1.6l-3.4,1.5L612.2,161.9z M598.5,168.3l0.3,0.7l4.4-0.9l3.3-1.8l5.7-3.5l-0.4-0.8l-6.3,2.1l-3.5,1.4
	L598.5,168.3z M654.1,136.6l0.3,0.5l0.4,0.3l0.8,0.4l0.3-1.2l-0.3-0.5l-1-0.6l-0.5,0.3L654.1,136.6z M586.7,168.1l0.3,0.7l4.2-1.8
	l3-0.8l5.3-2.4l4.4-1.7l5-2.7l4-1.8l5.7-3.6l-0.3-0.4l-6.4,1.8l-4,1.9l-5.3,2.1l-4.1,2.3l-5.3,2.5l-2.6,1.8L586.7,168.1z
	 M650.3,132.9l0.3,0.5l0.6,0.3l0.9,0.5l0.1-1.4l-0.3-0.8l-1.1-0.8l-0.3,1L650.3,132.9z M574.7,168l0.4,0.8l3.2-0.8l4.2-1.5l4.1-2.3
	l4.8-1.4l3.9-1.9l4.7-3.4l5.1-2.5l4.7-2.5l-0.3-0.5l-5,1.8l-5.3,2.4l-5.6,1.4l-3.9,1.8l-4.1,2.8l-4.4,1.7l-3.9,2.2L574.7,168z
	 M646.2,129.3l0.3,0.3l4.5-0.3l4.2-2.3l6.4-4.2l-0.4-0.8l-7.3,2.1l-4.4,1.8L646.2,129.3z M596.1,152.6l0.2,0.3l1.8,0.3l2.6-1.2l2-2
	l-0.3-0.5l-2.9,0.1l-2.6,1.3L596.1,152.6z M562.6,168l0.3,0.8l2.4-0.9l6-2l2.5-1.4l4.9-2.2l3.7-1.8l4.7-2.4l4.3-2.2l4.4-2.6
	l-0.3-0.4l-4.8,1.5l-4.5,1.9l-4.9,2.1l-3.7,1.7l-4.8,2.4l-2.6,1.1l-5.5,3.2L562.6,168z M643,125.2l0.1,0.3l5.2-1.4l3.9-1.3l4.1-2
	l6.4-4.2l-0.3-0.6l-7.3,2.1l-4.2,1.9l-3.5,2.2L643,125.2z M550.2,168.3l0.3,0.4l3.8-1.2l4.4-1.9l3-1.7l5.2-1l4.3-2.8l3.5-2l5.1-1.5
	l4.4-3.5l-0.2-0.4l-5.6,0.9l-4.5,3l-3.7,1.3l-4.9,1.5l-4.1,3.3l-3.2,1.2l-4.2,2.2L550.2,168.3z M639.9,120.6l0.2,0.5l4.5-1.1l3-0.9
	l5.8-2.3l4.1-1.9l4.4-3.6l-0.3-0.6l-5.7,1l-4.1,1.9l-5.4,3l-2.7,1.7L639.9,120.6z M537.5,168.3l0.3,0.8l3.1-1l4.9-2l4.1-1.4l5-2.8
	l2.9-1l4.2-1.7l5.3-3l4.8-3.1l-0.2-0.4l-5.7,1.4l-5.7,2.1l-4,2.1l-2.7,1.5l-5.3,2l-3.7,2.3l-4.7,2.5L537.5,168.3z M636.3,116.6
	l0.3,0.5l5.2-1.3l3.7-1.4l4.5-2.4l4.9-2.3l5.2-3.6l-0.2-0.4l-6.1,1.7l-4.9,2.3l-4.7,1.9l-3.5,1.9L636.3,116.6z M526.5,167.9l0.3,0.6
	l4.1-1.2l3-0.8l5.3-2.4l3.6-2.1l4.8-1.8l3.4-1.7l4.9-3l4.2-2.7l-0.2-0.3l-4.8,1.4l-5.5,1.8l-3.5,1.5l-4.5,2.5l-3.9,1.4l-5.3,2.5
	l-2.7,1.8L526.5,167.9z M645.1,107.2l0.2,0.4l2.9-0.3l5.3-1.9l3.9-3.3l-0.3-0.6l-5.1,0.8l-4.9,2.9L645.1,107.2z M522.6,164.1
	l0.3,0.4h2.6l4.5-2.5l5.1-1.9l3.2-1.4l4.3-1.9l5.6-3.7l-0.3-0.5l-6.6,1.6l-4.2,2.1l-3.1,1.4l-4.7,2.7l-4.9,1.8L522.6,164.1z
	 M646.5,100.9l0.2,0.3l2.5,0.3l2.7-1.2l2.3-2.5l-0.3-0.7l-3.4,0.2l-2.6,1.4L646.5,100.9z M518.7,160l0.3,0.8l3.6-1.2l4.3-1.8l4.1-2
	l4.5-3l-0.1-0.3l-5.3,1.4l-4.1,1.9l-4.2,2.1L518.7,160z M646,95.5l0.2,0.5l1.5,0.1l1.4,0.2l1.2-2.3l-0.3-0.7l-2.5-0.6l-0.8,1.3
	L646,95.5z M576.9,127.7l0.2,0.4l0.9,0.7l0.9,0.1l0.2-1.8l-0.3-0.4l-1.4-1l-0.4,1.1L576.9,127.7z M514.9,156.4l0.3,0.4l2.5,0.3
	l3-1.7l2.5-2.3l-0.2-0.3l-3.5,0.3l-3.1,1.2L514.9,156.4z M512.6,89.3l0.3,0.8l1.3,1l0.3-0.8l0.7-1.3l-0.2-0.4h-1.4l-0.3,0.7
	L512.6,89.3z"/>
<path opacity="0.25" d="M810.5,168.5l0.3,0.4l1.4,0.7l2.2-0.8l1.4-2.1l-0.3-0.4l-2.5-0.3l-2,1.1L810.5,168.5z M798.1,168.2l0.3,0.8
	l3.1-0.3l4.9-2.6l4.1-1.4l5-3.8l-0.3-0.6l-6.2,1.4l-3.6,2.4l-5.2,2L798.1,168.2z M786,168.2l0.2,0.4l3.4-0.3l5.2-1.9l3.6-1.5
	l5.1-2.9l2.7-0.8l5.6-4.4l-0.3-0.4l-6.9,1.4l-2.5,1.6l-5.5,2l-3.4,1.7l-4.7,2.7L786,168.2z M773.7,168.1l0.3,0.6l4.1-1.4l4.2-1.4
	l3-1.3l4.7-3l3.8-1.2l3.6-1.6l5.2-3l4.9-2.7l-0.3-0.6l-5.3,2l-5.6,2l-3.6,1.8l-3.4,2.1l-5.4,1.7l-2.9,1.5l-3.8,2.4L773.7,168.1z
	 M799.7,150.4l0.2,0.3l1.8,0.6l0.7-0.8l1.4-1.5l-0.3-0.6l-2.1,0.2h-1L799.7,150.4z M761.2,168.1l0.2,0.4l3.5-0.8l3.4-1l6-3l3.7-1.2
	l2.8-1.3l5.1-2.8l3.5-1.9l5.4-3.4l-0.3-0.5l-6.2,1.7l-3.6,1.4l-5.4,2.2l-2.8,1.3l-3.3,2.1l-6.1,2.6l-3,1.9L761.2,168.1z
	 M748.3,168.1l0.3,0.7l2.8-0.8l3.7-1.8l5.3-2.5l4.4-1.4l4.2-2.5l3.8-1.4l4.7-2.5l4.6-3l-0.2-0.3l-5.3,1.4l-5,2l-3.5,2l-4.7,1.7
	l-3.8,2.5l-5.3,2.5l-3.7,1.7L748.3,168.1z M735.4,168.3l0.4,0.8l3.8-1.4l3.3-0.6l4.7-2.5l5.3-2.9l2.9-0.6l6-2.5l3.8-2.5l4.7-3.2
	l-0.3-0.4l-5.5,1.4l-4.3,1.4l-5.8,3l-2.4,1.8l-5.5,2.2l-4.9,1.9l-2.6,2.2L735.4,168.3z M722.7,168.4l0.4,0.8l4.2-1.5l3.4-1.4
	l4.1-2.1l5.1-1.8l5-2.3l4.4-2.5l4.2-2.5l4.4-2.1l-0.3-0.4l-4.6,1.7l-4.7,1.5l-4.7,1.8l-5,2.5l-4.7,2.7l-4.2,1.8l-3.2,1.7
	L722.7,168.4z M710.8,168.3l0.2,0.4l2.7-0.8l5.4-1.4l3.8-2.1l4.8-2.7l4.8-1.4l4.2-2.1l3.6-1.4l4.9-3.9l-0.3-0.4l-6.2,0.9l-3.5,1.9
	l-4.3,1.9l-4.2,2.8l-5.3,1.9l-4,1.5l-4.6,3.3L710.8,168.3z M698.6,168.1l0.2,0.4l3.6-0.5l5-2.5l2.3-1.3l5.1-2.5l5.6-1.4l4-2.4
	l4.3-2.1l4-2.9l-0.3-0.6l-4.8,1l-4.4,1.9l-4.4,1.4l-4.7,3.4l-5.3,2.3l-2.5,0.9l-5,2.3L698.6,168.1z M774.5,127.1v0.2l3,0.5l1.8-1.7
	l2.4-1.8l-0.3-0.8l-2.9,0.7l-2.5,0.3L774.5,127.1z M685.6,168.1l0.3,0.8l3-1l4.5-1.1l4.7-2.7l3.7-0.8l4.7-3.6l4-1.3l5.2-2.2l3.9-3
	l-0.1-0.3l-5,0.9l-5,2.5l-3.5,2.2l-5.8,1.3l-3.1,2.3l-5.1,1.8l-3.6,2.8L685.6,168.1z M772.1,122.4l0.1,0.3l2.3,0.2l2.5-0.8l2.6-2.6
	l-0.3-0.4l-3.6,0.3l-2.3,1.3L772.1,122.4z M673,168.3l0.3,0.6l3.6-0.8l4.2-1.8l4.4-1.9l4.8-1.5l4.2-2.1l3.6-2.1l4.7-3l4.1-2.4
	l-0.2-0.4l-4.6,1.4l-5.3,1.7l-3.9,1.4l-4.4,1.9l-4.2,2.7l-4.3,2.1l-4.1,2.1L673,168.3z M769.8,117.6l0.2,0.3h2.3l2.5-1l2.5-2.1
	l-0.3-0.8l-3.2,0.6l-2.5,1.3L769.8,117.6z M669,164.2l0.3,0.8l3-0.8l5.8-1.8l3-1.2l5.2-3l3.7-2.1l5.1-3l-0.3-0.6l-5.7,1.8l-4.1,1.4
	l-5.6,2l-2.8,1.6l-5.1,3.1L669,164.2z M767.7,112.8L767.7,112.8l3,0.1l1.6-0.5l2.8-2.7l-0.2-0.4l-4,0.4l-1.4,0.8L767.7,112.8z
	 M665,160.3l0.3,0.6l2.8-0.4l4.8-2l5.2-2.1l4.7-3.6l-0.2-0.3l-5.8,1.2l-4.9,2.5l-4.7,2.5L665,160.3z M765.6,107.9l0.1,0.2l2.3-0.1
	l2.5-0.4l2.5-2.6l-0.3-0.7l-3.7,0.3l-1.9,1.8L765.6,107.9z M661,156.4l0.3,0.6l3.2,0.3l1.4-1.5l3.8-2.6l-0.2-0.5l-4.6,1.1l-2.1,0.2
	L661,156.4z M763.5,103.1v0.2l2.4-0.2l2.6-0.8l2.5-2l-0.3-0.8l-3.2,0.6l-2.3,1.4L763.5,103.1z M761.3,98.3l0.1,0.2l2.4,0.2l2.2-0.3
	l2.4-2.9l-0.3-0.6l-3.7-0.1l-1.7,1.5L761.3,98.3z M759.2,93.4l0.1,0.2l1.7,0.6l1.9-0.4l1.4-2.4l-0.3-0.4l-2.6-0.4l-1.6,1.2
	L759.2,93.4z M757.1,88.6v0.2l1.4,1l1.1-0.9l0.8-1.4l-0.2-0.4l-1.7-0.4l-1.4,0.3L757.1,88.6z M754.9,83.7L755,84l1.1,1.4l0.1-0.8
	l0.3-1l-0.3-0.8l-1-0.5l-0.6-0.4L754.9,83.7z"/>
<path opacity="0.25" d="M925.2,168.6l0.3,0.4l1.9,0.6l1-1.4l1.6-1.3l-0.3-0.4l-2,0.3l-1.7-0.2L925.2,168.6z M913.4,168.6l0.2,0.4
	l3.9-0.3l4.6-2.5l4.1-1.4l3.6-3.1l-0.3-0.6l-4.7,0.7l-3.7,2.3l-4.9,1.9L913.4,168.6z M901.5,168.4l0.3,0.8l3.1-0.8l5.8-2.4l3-1.2
	l5.4-2.8l4.6-2.3l5.6-3.6l-0.3-0.5l-6.3,2l-4.7,2l-5.8,2.4l-2.8,1.5l-5.6,3L901.5,168.4z M889.8,168.6l0.3,0.4l3.2-0.9l4-1l3.9-2.7
	l5.3-1.8l5.8-2.5l3.1-1.9l4.3-1.6l4.5-2.4l5.2-3.5l-0.3-0.4l-5.9,1.7l-4.7,1.9l-4.1,2.3l-3.4,1.2l-5.7,2.8l-4.7,2.9l-4.6,1.2
	l-3.3,2.5L889.8,168.6z M914,151.9l0.2,0.3l5.4-1.2l3.6-2.3l5.8-3.3l-0.3-0.7l-6.3,2.4l-4.1,1.3L914,151.9z M878,168.5l0.3,0.6
	l4.3-1l2.6-1.2l4.5-2.1l4.2-1.9l4.2-2.1l4.3-1.9l5.7-3.2l4.1-2.5l-0.2-0.3l-4.7,1.4l-6.1,2.3l-4.1,2.1l-4.3,1.9l-4.1,2l-4.6,2.1
	l-2.5,1.3L878,168.5z M913.7,146.5l0.3,0.5l5.3-0.8l3.2-2.5l6.3-3.6l-0.3-0.8l-6.8,2.5l-3.9,0.9L913.7,146.5z M866.6,168.4l0.3,0.4
	l4.2-1.4l3-0.7l4.9-2.9l4.7-2.2l4.2-1.4l3-1.4l4.7-3.2l5-2.4l-0.2-0.4l-5.2,1.9l-5.5,1.6l-2.9,1.4l-3.8,2.3l-4.7,2.2l-5.3,1.9
	l-2.5,1.8L866.6,168.4z M913.5,141.1l0.3,0.4l3.9-0.3l6.2-3.3l4.7-3.2l-0.2-0.5l-5.5,1.4l-6.6,2.6L913.5,141.1z M855.2,168.1
	l0.3,0.5l3.9-0.9l3.1-1.7l4.4-2.2l4.7-1.3l3-1.9l6.4-2.2l3.3-1.9l4.3-3.5l-0.1-0.3l-5.5,0.9l-3.6,1.3l-5.8,3.5l-3.3,1.1l-4.1,2.8
	l-4.4,2l-3.4,1.3L855.2,168.1z M913.3,135.8l0.2,0.3l4-0.7l4.2-1.8l6.5-4.4l-0.2-0.4l-7.5,2.2l-4.2,2L913.3,135.8z M843.5,168.1
	l0.3,0.4l3.6-0.9l4.1-1.6l3.6-1.6l4.3-2.5l4.7-1.5l4.2-1.9l4.3-2.6l4.3-2.6l-0.3-0.3l-4.8,1.3l-4.8,1.7l-4.1,2l-4.2,2.6l-4.7,1.7
	l-3.5,1.7l-4,2.1L843.5,168.1z M913.1,130.4l0.2,0.4l4.3-0.3l3.5-1.7l5.3-4.1l-0.3-0.7l-6.5,1.5l-3.6,1.5L913.1,130.4z M831.5,168.1
	l0.3,0.7l2.5-0.5l5.3-1.9l4.1-2.2l3.7-1.6l4.1-1.8l5.5-3l2.5-1.2l5.5-3.4l-0.2-0.3l-6.2,1.8l-2.5,1.2l-5.9,2.4l-4,2l-3.6,1.8
	l-4.3,1.7l-4.9,2.9L831.5,168.1z M912.8,125l0.3,0.5l2.3,0.1l4.1-1.5l3.1-3.2l-0.2-0.4l-4.4,0.4l-3.8,2.1L912.8,125z M819.2,168.4
	l0.3,0.6l3.2-0.8l5.7-1.9l2.6-1l5.8-2.9l2.5-1.7l5.3-1.7l3.7-2.1l5.3-3.6l-0.3-0.5l-6.3,1.4l-4.1,1.5l-4.7,3l-2.9,0.8l-6,2.6
	l-2.5,1.4l-5.1,3L819.2,168.4z M912.6,119.6l0.2,0.4l2.5,0.3l1.4-1l2.2-1.9l-0.3-0.8l-3,0.4l-1.7,0.4L912.6,119.6z M809.6,167.5
	l0.3,0.4l2.2-0.7l5.9-2.3l4-2.2l3-0.1l4.7-3l3.3-2l4.9-1.4l4.2-3.3l-0.2-0.3l-5.3,0.8l-4.2,2.9l-3.7,1.2l-5.3,1.8l-2.1,2.3l-4.2,1.6
	l-5.5,3.1L809.6,167.5z M912.3,114.4l0.3,0.4l1.1,0.3l0.8,0.3l0.6-1.9l-0.2-0.5l-1.9-0.7l-0.3,0.8L912.3,114.4z M805.8,163.6
	l0.4,0.8l3-0.8l4.4-1.4l4.5-2l4.8-2.1l2-1.9l5.8-3.2l-0.3-0.5l-6.3,2l-2.7,0.3l-4.8,2.5l-4.3,2.1l-4,2.4L805.8,163.6z M802,159.9
	l0.3,0.6l3.2,0.1l4-2.6l4.7-1.8l4.4-3.2l-0.3-0.5l-5.4,1l-4.4,2.5l-4.5,1.4L802,159.9z M798.3,156l0.3,0.8l2.8,0.2l2.3-1.6l2.6-2.3
	l-0.1-0.3l-3.6,0.4l-2.7,0.7L798.3,156z M903.7,101.7l0.2,0.3l1.4,1.1l0.3-1.1l1.2-1.2l-0.3-0.6l-1.7,0.2l-1-0.5L903.7,101.7z
	 M899.8,97.8l0.2,0.5l2,0.5l1.5-1.3l2.5-1.7l-0.3-0.8l-3,0.8l-1.9,0.3L899.8,97.8z M865,114.3l0.2,0.4l2.5-0.3l5-1.8l4.9-3.3
	l4.3-2.6l-0.3-0.4l-5,1.1l-5.3,2.4l-4.6,2.7L865,114.3z M865,108.9l0.2,0.4l3-0.5l4.7-2l3.2-1.1l4.5-2.3l4.7-2.5l3.3-0.9l3.8-2.8
	l4.6-1.9l5.3-3.1l-0.3-0.7l-5.8,2.1l-4.8,1.4l-4.2,1.9l-2.9,1.9l-4.9,2l-4.7,1.9l-3,1.8l-4.6,2.3L865,108.9z M865.3,103.3l0.3,0.5
	l2.5-0.9l4.8-1.4l5.5-2.3l2.9-2.2l4.3-2.1l4.3-1.8l4-2.2l4.7-2.6l-0.3-0.6l-5,1.9l-4.3,1.7l-4.1,2.1l-4.3,1.9l-3.6,0.8l-5.3,2.7
	l-4.2,2.8L865.3,103.3z M890.7,85.8l0.3,0.6l1.1-0.2l1.9,0.1l1-1.8l-0.4-0.8l-1.9-0.4l-1.1,1.5L890.7,85.8z M867.5,96.7l0.2,0.3
	l3.6-0.8l5.3-1.9l3-1.7l5.8-3.7l-0.3-0.5l-6.6,1.9l-3.3,1.3l-4.9,2.8L867.5,96.7z M797.5,90.6l0.3,0.8l1.4,0.9l0.4-0.9l0.8-1.6
	l-0.2-0.5h-1.7l-1-0.3L797.5,90.6z"/>
<path fill="#203223" d="M122.8,115.3c0-0.8,0.3-13,0.4-14.3c2.6,1.4,17.6,9.2,17.6,9.2l1.9-29.1l-15.2-15.2
	c-16.7,0-43.4,0.4-58.7,0.4c-15.2,0-42-0.4-58.9-0.4v6.4l15.2,15.2c2.1,0,3.9,0.1,5.5,0.3c0.7,3.1,0.9,6.9,0.9,11.2
	c0,21.3-4.8,31.3-21.6,31.3v6.4l15.2,15.2c14.6,0,37.7-0.4,50.9-0.4s36.3,0.4,51.2,0.4v-6.4L116,134.2l1.1-4.2l6.1,3
	C123.2,126.1,122.8,119.3,122.8,115.3z"/>
<path fill="#203223" d="M260.7,80.8l-15.2-15.2c-16.7,0-43.4,0.4-58.7,0.4s-42-0.4-58.9-0.4v6.7L143,87.5c2.1,0,3.9,0.1,5.5,0.3
	c0.7,3,0.9,6.8,0.9,11.2c0,22.6-5.3,31.3-21.6,31.3v6.7l15.2,15.2c16.6,0,43.4-0.4,58.6-0.4s42,0.4,59,0.4l-1.9-32.6l-9.7-9.7
	l2.5-3.7c3.9,1.9,7.2,3.7,7.2,3.7L260.7,80.8z"/>
<path fill="#203223" d="M332.9,88c0.8,3,1.4,6.8,1.4,11.1c0,13.3-2.6,21.7-9.2,26.8v-39C327.8,87,330.5,87.3,332.9,88z M245.6,130.3
	v6.7l15.2,15.2c11.7,0,29.8-0.4,40.1-0.4s28.5,0.4,38.8,0.4c29.5,0.2,55.7-11.1,55.7-37.9c0-11.3-5.2-22.4-15.3-32.4
	c-11.4-11.1-28.6-16.1-58.6-16.3c-9.9,0-27.2,0.4-37.1,0.4c-9.9,0-27.2-0.4-38.8-0.4v6.7l15.2,15.2c2.1,0,3.9,0.1,5.6,0.3
	c0.6,3.1,0.8,6.9,0.8,11.3C267.2,121.6,261.9,130.3,245.6,130.3z"/>
<path fill="#203223" d="M511.9,80.8l-15.2-15.2c-16.7,0-43.4,0.4-58.7,0.4c-15.2,0-42-0.4-58.9-0.4v6.7l15.2,15.2
	c2.1,0,3.9,0.1,5.5,0.3c0.7,3,0.9,6.8,0.9,11.2c0,22.6-5.3,31.3-21.6,31.3v6.7l15.2,15.2c16.6,0,43.4-0.4,58.6-0.4
	c15.2,0,42,0.4,59,0.4l-1.9-32.6l-9.7-9.7l2.5-3.7c3.9,1.9,7.2,3.7,7.2,3.7L511.9,80.8z"/>
<path fill="#203223" d="M634.3,115.5c6.1-2,11.6-6.5,11.6-15.4c0-4.8-2.1-11.8-10.4-20.2c-9.8-10.1-24.1-13.9-56.4-13.9H497v6.4
	l15.2,15.2c2.1,0,4,0.1,5.6,0.5c0.9,3.3,1.3,7.1,1.3,11.1c0,13.3-4.7,31.2-22,31.2v6.7l15.2,15.2c12,0,30.8-0.4,41.5-0.4
	s29.4,0.4,41.8,0.4v-6.8l-14.8-14.8c-1.5,0-3-0.3-4.1-0.5c0-0.1,0-10.6,0-10.6h1c1.9,8,4.5,12.9,14.2,22.2c8.6,8,19,11.9,39,11.9
	c15,0,22.7-0.5,30.5-1.9v-6.2L646,130.3c-0.5,0-1,0-1.4-0.1C642.1,123.8,638.2,118.8,634.3,115.5z"/>
<path fill="#203223" d="M752.8,81l-15.1-15.1h-47L672.6,106c-6.9,15.2-16.3,24.3-29.6,24.3v6.7l15.2,15.2c7.8,0,19.1-0.4,25.6-0.4
	c6.4,0,17.7,0.4,24.1,0.4c11.9,0,32.8-0.4,44.7-0.4c11.9,0,32.7,0.4,46.3,0.4v-6.7l-15.2-15.2c-3.6,0-6.7-0.6-9.5-1.8
	c-1.4-2.5-2.6-5.1-3.8-7.7L752.8,81z"/>
<path fill="#203223" d="M911.5,111.6L896,96.2c0,0-15.1,12.4-23.8,18.8c-2.4,1.8-5.3,3.7-8,5.6c0-1.1,0-14,0-14
	c0-14.1,9-19.1,25.7-19.1v-6.7l-15.2-15.2c-13.6,0-34.7,0.4-46.9,0.4c-12.2,0-33.5-0.4-47.3-0.4v6.7l15.2,15.2c2,0,3.8,0.1,5.4,0.3
	c0.7,3.5,1,7.6,1,12.7c0,22-5.8,29.8-21.6,29.8v6.7l15.2,15.2c10.2,0,25.4-0.4,34.2-0.4c8.8,0,24.1,0.4,32.9,0.4h50.6L911.5,111.6z"
	/>
<path fill="#99C4AB" d="M77.2,97.9V71h3.4c0,0,13.7,6.4,22.2,10.5c8.6,4.2,21.7,11.2,21.7,11.2l1.7-25.1c-15.2,0-42,0.4-57.3,0.4
	c-15.2,0-42-0.4-57.3-0.4V71c16.2,0,21.6,8.5,21.6,28c0,22.7-5.5,32.9-21.6,32.9v3.4c13.2,0,36.3-0.4,49.5-0.4s36.3,0.4,49.5,0.4
	V132c-22.8,0-33.5-6.8-33.5-20.8v-9.8h1.6l27.9,14c0-4-0.4-10.8-0.4-14.8s0.4-10.8,0.4-14.8L78.9,97.9H77.2z"/>
<path fill="#99C4AB" d="M195.1,97.9V71h3.4c0,0,13.6,6.4,22.1,10.6c8.6,4.2,21.8,11.1,21.8,11.1l1.7-25.3c-15.2,0-42,0.4-57.3,0.4
	s-42-0.4-57.3-0.4V71c14.9,0,21.6,6.6,21.6,28c0,24.1-6,32.9-21.6,32.9v3.6c15.2,0,42-0.4,57.3-0.4s42,0.4,57.3,0.4l-1.7-28.7
	c0,0-13,8.1-21.6,13c-8.6,4.9-22.3,12-22.3,12h-3.4v-30.7h1.7l27.8,14c0-4-0.4-10.8-0.4-14.8s0.4-10.8,0.4-14.8l-27.8,12.3H195.1z"
	/>
<path fill="#99C4AB" d="M335.4,99.1c0,22.9-8.4,32.9-26.3,32.9V71C323.1,71,335.4,77,335.4,99.1z M378.9,99.5
	c0-24.9-20.3-31.9-57.4-32.1c-9.9,0-27.2,0.4-37.1,0.4c-9.9,0-27.2-0.4-37.1-0.4V71c15.8,0,21.6,7.5,21.6,28.1
	c0,23.8-6,32.9-21.6,32.9v3.6c10.3,0,28.5-0.4,38.8-0.4c10.3,0,28.5,0.4,38.8,0.4C353.3,135.8,378.9,125.3,378.9,99.5z"/>
<path fill="#99C4AB" d="M446.3,97.9V71h3.4c0,0,13.6,6.4,22.1,10.6c8.6,4.2,21.8,11.1,21.8,11.1l1.7-25.3c-15.2,0-42,0.4-57.3,0.4
	c-15.2,0-42-0.4-57.3-0.4V71c14.9,0,21.6,6.6,21.6,28c0,24.1-6,32.9-21.6,32.9v3.6c15.2,0,42-0.4,57.3-0.4c15.2,0,42,0.4,57.3,0.4
	l-1.7-28.7c0,0-13,8.1-21.6,13c-8.6,4.9-22.3,12-22.3,12h-3.4v-30.7h1.7l27.8,14c0-4-0.4-10.8-0.4-14.8s0.4-10.8,0.4-14.8L448,97.9
	H446.3z"/>
<path fill="#99C4AB" d="M581.8,84.9c0,8.2-4.9,14.1-21.3,14.1V71C575,71,581.8,74,581.8,84.9z M644.7,135.4V132
	c-7.8,0-12.4-7.2-16.2-15.4c-3.8-8.1-9.9-14.1-19.8-14.1v-1.7c8.2,0,20.7-2.7,20.7-15.5c0-13.7-15.9-17.6-50.3-17.6h-80.4V71
	c16.3,0,22,12.7,22,28.1c0,14.1-5.3,32.9-22,32.9v3.6c10.7,0,29.5-0.4,40.1-0.4c10.7,0,29.4,0.4,40.1,0.4V132
	c-13.1,0-18.4-4.5-18.4-15.4v-13.6h4.1c11,0,12.4,7.4,14,14.7c2.5,12.2,8.2,19.5,37.3,19.5C630.7,137.1,638.3,136.5,644.7,135.4z"/>
<path fill="#99C4AB" d="M705.2,110c0,9.4-3.2,21.9-12.2,21.9c-10.3,0-13.1-13-13.1-21.9H705.2z M705,106.1h-24.7l12.5-29L705,106.1z
	 M782.4,135.6V132c-13.9,0-22.2-11.6-28.3-25.3l-17.3-39h-45l-17.7,39c-7.2,15.9-17.3,25.3-29.5,25.3v3.6c6.4,0,17.8-0.4,24.2-0.4
	c6.4,0,17.7,0.4,24.1,0.4c11.9,0,32.8-0.4,44.7-0.4C749.7,135.2,770.4,135.6,782.4,135.6z"/>
<path fill="#99C4AB" d="M896.7,135.6L895,99.3c0,0-13,10.8-21.8,17.1c-8.7,6.4-22.7,15.6-22.7,15.6h-2.8V91.8
	c0-15.1,9.5-20.8,25.7-20.8v-3.6c-12.2,0-33.4,0.4-45.6,0.4c-12.2,0-33.5-0.4-45.6-0.4V71c14.7,0,21.6,5.9,21.6,29.5
	c0,23.5-6.5,31.5-21.6,31.5v3.6c8.8,0,24.1-0.4,32.9-0.4s24.1,0.4,32.9,0.4H896.7z"/>
<path fill="#426847" d="M83.8,132.4L83.8,132.4l0.7,0.2l0.5-0.3l0.8-0.5l-0.1-0.3l-1.3-0.5l-0.5,0.3L83.8,132.4z M72,132.4L72,132.4
	l1.9-0.4l3-0.8l4-2.7l-0.1-0.2l-4.6,1.3l-3,1.1L72,132.4z M60.1,132.3l0.2,0.2l4.5-0.3l2.9-2.7l4.1-1.6l5.8-3.4l-0.1-0.2l-6.3,2.3
	l-4,2.1l-3.9,0.4L60.1,132.3z M99.2,108.7l0.1,0.2l2.2,0.3l1.4-1.4l1.5-1.4l-0.1-0.2l-2,0.3l-1.9,0.3L99.2,108.7z M48.4,132.3
	l0.1,0.2l3.9-0.4l2.6-0.8l4.6-2.5l4-1.5l4.2-3l3.9-1.8l4-2.5l-0.1-0.3l-4.5,1.5l-3.9,1.8l-5.1,1.3l-3.7,2.1l-4.8,1.9l-2.3,1.5
	L48.4,132.3z M93.3,105.9l0.1,0.2l3.6,0.7l3-1.9l4.4-3.9l-0.1-0.2l-5.8,0.9l-3.5,1.1L93.3,105.9z M36.6,132.4L36.6,132.4l2.8-0.6
	l4.8-1.3l4.3-1.5l1.9-2.2l5.1-1.9l3.1-1.9l4.1-0.2l4.2-3.6l2.4-1.4l5.3-3l-0.1-0.2l-5.8,2.1l-2.5,1l-5.5,0.9l-2.7,3l-3.5,1.2
	l-4.8,2.6l-2.9,0.2l-4,2.3l-4.1,2.8L36.6,132.4z M87.4,103.2l0.1,0.2l3.7,0.3l5.3-2.6l2.5-2.1l5.5-3.4l-0.1-0.3l-6.2,2.1l-3.2,0.4
	l-5.3,2.4L87.4,103.2z M24.8,132.3l0.1,0.2l3.3-0.9l4.6-1.5l3.9-1.2l2.5-1.4l4.4-2.7l3.4-1.3l3.2-1.6l4.8-2.4l3.4-2.1l3.4-1.2
	l3.4-1.9l5.6-2.7l3.7-2.2l-0.1-0.2l-4.1,1.4l-5.7,2.5l-3.6,1.4l-3.1,1.8l-3.8,1.4l-4.9,2.1l-3.3,1.4l-3.1,1.7l-4.9,1.7l-2.7,1
	l-3.5,2.2l-4,2.5L24.8,132.3z M115.3,84.7L115.3,84.7h2.5l2.4-1.4l2.2-1.7l-0.2-0.3l-2.6,0.7l-2.7,0.9L115.3,84.7z M81.6,100.4
	l0.1,0.2l4,0.2l2.4-1.6l4.8-2.4l3.1-1.9l4.1-1.4l4.6-3.6v-0.2L99.4,92l-4,1.9l-3.2,1.6l-5,2.1l-2.7,0.8L81.6,100.4z M31.9,123.6
	l0.1,0.2l3.1-0.4l3.9-1.3l4.4-1.9l4.1-2.3l2.8-1.4l3-2.4l5.2-1.8l3.7-1.8l4-2.1l3.8-0.5l4.4-4.1l-0.1-0.2l-5.9,0.8l-2.9,2.5
	l-4.1,1.8l-3.7,1.6l-4.7,2.9l-3.8,0.7l-2.9,1.3l-4.5,1.7l-4.2,2.3l-3.5,2.1L31.9,123.6z M109.5,81.8l0.2,0.3l3.1,0.9l5-4.1l5.1-3
	l-0.2-0.2l-5.5,1.9l-6.4,1.2L109.5,81.8z M34.3,116.9l0.1,0.2l2.7-0.2l3.6-0.8l4.3-2.5l3.7-1.7l3.3-1.2l3.6-1.6l4.6-3.4l2.2-1.1
	l4.2-1.8l4.6-1.6l3.4-2.8l-0.1-0.2L70.1,99l-4.1,2.5l-4.1,2.1l-2.3,0.9l-5.5,1.4l-3.6,1.7l-3,1.8l-3.6,1.8l-4.7,1.7l-3,2.2
	L34.3,116.9z M103.9,79L103.9,79l3,0.8l4.6-2.7l2.2-1.2l4.4-1.8l4.1-3.4l-0.1-0.2l-5.3,0.8l-4.1,2.2l-2.3,1l-5.1,1.7L103.9,79z
	 M35.3,111l0.1,0.3l4.2-0.7l3.7-0.8l3.6-2.5l4.4-2.5l3-1.3l3.4-1.8l4.4-2.5l4.5-1.8l3.1-1.6l4.8-3l-0.1-0.1l-5.3,1.8l-3.3,1.4
	l-4.2,2.3l-4.7,1.8l-3.6,1.4l-2.9,1.4l-4.7,1.8l-4.2,1.1l-3,2.4L35.3,111z M98.2,76.2l0.1,0.2l3.7-0.3l4.6-2.3l3.8-3.1l-0.1-0.1
	l-4.7,0.8l-4.7,2L98.2,76.2z M35.8,105.2l0.2,0.3l3-0.5l3.9-1.4l4.6-1.8l3-1.8l4.7-2.4l3.2-1.9l4.6-2.4l4-1.6l3-1.7l4.7-2.5
	l-0.1-0.3l-5,2l-3.2,1.1l-3.7,2l-4.7,1.9l-3.6,1.3l-4.9,2.1l-3.2,1.1l-4.3,2.3l-3.6,2.1L35.8,105.2z M92.5,73.3l0.1,0.2l2,0.7l2-0.7
	l1.9-2.8v-0.1l-2.9,0.7l-2.3,0.1L92.5,73.3z M36,99.7l0.1,0.2l3-0.1l3.1-1.8l4.1-1.8l5.5-2.8l3-1.2l3.7-1.8l3.8-2.2l4.1-2.1l4-1.7
	l4-2.5l-0.1-0.2l-4.6,1.4l-3.8,1.9l-4.2,1.9l-4.1,1.4l-3.8,1.8L51,91.7l-5.6,2.4l-4.1,2l-3.4,1.2L36,99.7z M35.8,94.2l0.1,0.2
	l3.6-0.3l4.9-1.5l2.4-1.1l4.7-2.8l2.4-1.3l4.1-2.7l4.4-2.3l4.1-0.9l4.7-1.6l3.5-3.5l-0.1-0.3l-4.9,0.5l-4.2,2.5L62,81.7l-4.6,1.9
	L52.8,85l-2.5,1l-5.2,1.7l-2.3,1.2l-4.3,2.8L35.8,94.2z M35.6,88.9V89l4.1-0.8l3.5-1.7l4-1.3l2.6-1.6l5.3-2.3l2.9-1.7l3.7-1.9
	l4.2-2.3l4.2-1.9l4.4-2.7l-0.1-0.3l-4.9,1.7l-4.1,2l-4.5,1.8l-3.8,1.7L54,79l-5.2,2.6l-3,0.9l-3.5,2.3l-3.6,1.5L35.6,88.9z
	 M34.6,83.8l0.1,0.2H39l2.5-1.4l4.9-3.2l3.5-1.6l5.2-3l2.5-0.9l5.6-3.1l-0.1-0.1l-5.9,2.3l-2.3,1.3l-5.8,1.9l-3.4,1.6l-5.7,1.7
	l-2.6,1.2L34.6,83.8z M32.9,79.1l0.1,0.2h3.2l4.5-1.6l2.3-2l3.4-2.1l5.1-2.9l-0.1-0.1l-5.4,2l-3.8,1.2l-3,0.5L35,76.7L32.9,79.1z
	 M29.9,74.9l0.2,0.3l3.6,0.6l1.7-2.3l4.3-2.7l-0.1-0.2L34.6,72l-2.8-0.1L29.9,74.9z"/>
<path fill="#426847" d="M236.8,132.3l0.1,0.2l1.5-0.1h1.3l1.4-1.8l-0.1-0.2l-2.3-0.2l-1.4-0.3L236.8,132.3z M225,132.3l0.1,0.2
	l3.4-0.3l4.4-2.1l3.2-2.2l4.6-2.5l-0.1-0.2l-4.9,1.8L232,128l-4.5,2L225,132.3z M213.2,132.3l0.2,0.2l3.6-1.5l4.5-1.2l3.2-1.6
	l4.2-1.7l3.2-0.6l3.1-3l5.2-3l-0.1-0.2l-5.6,1.9l-4.3,0.6l-2.5,2l-4.1,2.1l-3.3,1.4l-4.6,1L213.2,132.3z M209.8,128.5l0.1,0.3
	l3.5-0.2l3.6-0.9l4.1-1.9l2.6-2.5l4.8-2.5l2.5-1.4l5.1-2.5l4-2.3l-0.1-0.3l-4.3,1.6l-5.2,2.3l-2.7,1l-5,2l-2.8,2l-4.2,1.7l-3.2,1.9
	L209.8,128.5z M189.6,132.4L189.6,132.4l0.8,0.2l0.8-0.6l1.3-0.7l-0.1-0.2l-1.6-0.1l-0.9,0.2L189.6,132.4z M177.9,132.3l0.1,0.2
	l3.3-1.4l2.9-1.1l3.5-1.4l4.8-2.9l-0.1-0.2l-5.3,1.8l-3.2,1.9l-3.4,0.2L177.9,132.3z M217.2,108.5l0.1,0.2l2.1,0.3l1.4-1.4l1.4-1.3
	l-0.1-0.3l-1.9,0.3l-1.9,0.3L217.2,108.5z M166.1,132.3l0.1,0.2l3.7-0.4l2.5-0.7l4.4-2.5l3.9-1.4l4.1-3l3.8-1.7l3.8-2.5l-0.1-0.3
	l-4.3,1.4l-3.7,1.8l-5,1.2l-3.6,2l-4.7,1.8l-2.1,1.5L166.1,132.3z M211.4,105.7l0.1,0.2l3.6,0.7l3-1.9l4.3-3.8l-0.2-0.3l-5.6,0.9
	l-3.5,1.1L211.4,105.7z M154.3,132.4L154.3,132.4l2.8-0.6l4.7-1.3l4.3-1.6l1.9-2.1l5.2-2l3.1-1.9l4.1-0.2l4.1-3.6l2.5-1.3l5.3-3
	l-0.1-0.2l-5.8,2.1l-2.5,1l-5.5,0.8l-2.7,3l-3.5,1.2l-4.8,2.6l-2.9,0.2l-4,2.3l-4.1,2.8L154.3,132.4z M205.7,102.9L205.7,102.9
	l3.7,0.5l5.1-2.6l2.4-2.1l5.3-3.3l-0.1-0.3l-6,2l-3.1,0.4l-5.3,2.3L205.7,102.9z M142.5,132.3l0.1,0.2l3.4-0.9l4.6-1.5l3.9-1.3
	l2.6-1.4l4.3-2.7l3.4-1.3l3.3-1.6l4.8-2.5l3.5-2.1l3.4-1.2l3.4-1.9l5.5-2.7l3.8-2.2l-0.1-0.2l-4.1,1.4l-5.6,2.5l-3.6,1.4l-3,1.8
	l-3.9,1.4l-4.9,2.1l-3.4,1.4l-3.1,1.8l-4.9,1.6l-2.7,1.1l-3.5,2.2l-4.1,2.5L142.5,132.3z M233.1,84.6l0.1,0.2l2.5-0.2l2.5-1.4
	l2.2-1.7l-0.2-0.3l-2.6,0.7l-2.7,0.9L233.1,84.6z M200,100l0.1,0.2l3.8,0.3l2.3-1.6l4.7-2.3l3-1.9l4.1-1.4l4.4-3.5l-0.1-0.2l-5,2.2
	l-3.8,1.8l-3.2,1.6l-4.7,2l-2.7,0.8L200,100z M150.3,123.2l0.2,0.3l3-0.4l3.8-1.3l4.4-1.8l4.1-2.3l2.8-1.4l3-2.4l5.1-1.7l3.7-1.9
	l3.9-1.9l3.8-0.6l4.3-4l-0.1-0.3l-5.8,0.8l-2.8,2.5l-4.1,1.7l-3.7,1.7l-4.6,2.8l-3.7,0.7l-2.9,1.3l-4.4,1.7l-4.1,2.2l-3.5,2.1
	L150.3,123.2z M227.4,81.8L227.4,81.8l3.2,1.1l5-4.1l5.2-3l-0.2-0.3l-5.6,2l-6.4,1.3L227.4,81.8z M152.5,116.6l0.1,0.2l2.7-0.2
	l3.6-0.8l4.2-2.5l3.7-1.6l3.2-1.2l3.6-1.7l4.6-3.3l2.1-1.1l4.2-1.8l4.6-1.5l3.3-2.8l-0.1-0.3l-4.2,0.8l-4.1,2.5l-4.1,2l-2.2,1
	l-5.5,1.3l-3.5,1.7l-3,1.8L162,111l-4.7,1.6l-2.9,2.2L152.5,116.6z M221.6,79l0.1,0.2l3,0.7l4.5-2.8l2.2-1.1l4.4-1.8l4.1-3.4
	l-0.2-0.2l-5.2,0.8l-4.1,2.2l-2.3,0.9l-5,1.7L221.6,79z M153.4,110.8l0.1,0.3l4.2-0.7l3.7-0.8l3.6-2.5l4.4-2.5l3-1.3l3.3-1.7
	l4.4-2.5l4.4-1.8l3.1-1.7l4.8-2.9l-0.1-0.2l-5.3,1.9l-3.2,1.4l-4.2,2.2l-4.7,1.9l-3.4,1.4l-3,1.4l-4.7,1.7l-4.2,1.1l-3,2.4
	L153.4,110.8z M216,76.1l0.1,0.2l3.6-0.2l4.6-2.4l3.7-3l-0.1-0.1l-4.7,0.8l-4.7,2L216,76.1z M153.7,105.1l0.1,0.2l3-0.4l3.9-1.4
	l4.6-1.9l3-1.7l4.7-2.5l3.2-1.9l4.6-2.4l4-1.6l3-1.7l4.7-2.6l-0.1-0.2l-5,1.9l-3.2,1.2l-3.7,2l-4.7,1.9l-3.6,1.3l-4.9,2l-3.2,1.2
	l-4.3,2.3l-3.6,2L153.7,105.1z M210.3,73.3l0.1,0.2l2,0.6l1.9-0.6l1.9-2.8l-0.1-0.1l-2.8,0.6l-2.3,0.2L210.3,73.3z M153.9,99.5
	l0.1,0.3l3-0.1l3.2-1.9l4.1-1.7l5.4-2.8l3-1.2l3.7-1.8l3.9-2.2l4.1-2.1l4-1.7l4-2.6l-0.1-0.1l-4.6,1.4L184,85l-4.2,1.8l-4.1,1.5
	l-3.8,1.8l-2.9,1.6l-5.6,2.3l-4.1,2.1l-3.4,1.2L153.9,99.5z M153.7,94.1l0.1,0.2l3.6-0.3l4.9-1.6l2.4-1l4.7-2.8l2.4-1.3l4.1-2.8
	l4.4-2.2l4.1-0.9l4.7-1.6l3.5-3.5l-0.1-0.3l-4.9,0.5l-4.2,2.5l-3.3,2.5l-4.6,1.9l-4.7,1.4l-2.5,0.9l-5.2,1.8l-2.3,1.2l-4.3,2.8
	L153.7,94.1z M153.5,88.8l0.1,0.2l4-0.8l3.6-1.8l4-1.2l2.6-1.7l5.3-2.3l2.9-1.6l3.7-1.9l4.2-2.2l4.2-1.9l4.4-2.7l-0.1-0.2l-4.9,1.6
	l-4.1,2l-4.4,1.8l-3.9,1.6l-3.1,1.2l-5.1,2.6l-3,0.8l-3.5,2.3l-3.6,1.6L153.5,88.8z M152.6,83.6l0.1,0.2h4.3l2.5-1.3l4.8-3.2
	l3.4-1.6l5.2-3l2.4-0.9l5.5-3l-0.1-0.1l-5.8,2.2l-2.3,1.3L167,76l-3.4,1.6l-5.6,1.7l-2.6,1.1L152.6,83.6z M150.9,79l0.1,0.2h3.2
	l4.3-1.6l2.2-1.9l3.4-2.1l4.9-2.8l-0.1-0.1l-5.3,1.9l-3.8,1.2l-3,0.5l-3.9,2.3L150.9,79z M148,74.8L148,75l3.5,0.6l1.7-2.2l4.1-2.6
	l-0.1-0.2l-4.7,1.4l-2.8-0.2L148,74.8z"/>
<path fill="#426847" d="M350.4,129.3l0.1,0.3l3-0.8l4.9-2.6l3.9-2.1l-0.1-0.1l-4.3,0.9l-5.5,1.6L350.4,129.3z M331.8,132.4l0.1,0.2
	l2.5-0.8l4.3-1.4l3.3-1l3.6-1l4-2.7l3.6-1.5l4.9-2.2l2.4-1.9l4.1-1.9l4.7-0.8l3.1-3.6l-0.1-0.2l-4.7,0.2l-3.6,3.1l-4.1,1.9l-3,0.5
	l-4.9,2.4l-3.5,1.9l-4.7,1.3l-3,2.1l-2.9,1.8l-4.7,0.8L331.8,132.4z M330.3,127.5l0.1,0.2l2.8,0.3l3.4-1.6l4-2l3.7-1.6l4.9-2.2
	l2.6-1.6l4.8-1.3l3.1-2.3l4.1-2.7l4.1-1.5l3.9-0.3l3.4-4.1l-0.1-0.3h-5.3l-2.6,2.9l-3.9,2.1l-4.7,1.4l-3.7,1l-4.1,2.9l-2.9,0.9
	L343,120l-3.6,1.8l-4.1,1.8l-2.9,2.5L330.3,127.5z M335.1,119.6l0.1,0.2l3.2-0.1l4.1-2.5l3-0.7l3.7-2.9l4-1.4l4.3-1.9l3.9-2l2.1-1.2
	l5.4-1.7l3-2.3l4.1-2.5l-0.1-0.2l-4.5,1.5l-3.8,0.8l-4.7,3l-2.2,0.9l-4.1,1.7l-4.1,2l-3.6,2.1l-4.7,1l-2.5,1.9l-4.5,1.5L335.1,119.6
	z M337.2,113v0.2l2.5-0.3l5.5-1.4l2.5-1.4l4.7-3.3l3.6-1.6l4.7-1.9l1.9-1.5l6-1l3.1-3.3l3.9-2.3V95l-4.3,1.5l-4.6,0.3l-4.7,4
	l-2.4,0.5l-4.4,2.4l-3.6,1.7l-5.6,1.5l-2.8,1l-4.5,3.3L337.2,113z M295.6,132.4L295.6,132.4l2.3-0.9l4-0.9l4.1-2.8l-0.1-0.2
	l-4.8,1.3l-3.8,1.3L295.6,132.4z M338.1,106.9l0.1,0.3l3.7,0.2l4.1-2.5l3.9-0.9l2.1-1.9l4.6-2.6l2.7-1.1l2.9-2.1l5.2-1l2.7-2.5
	l4.4-2.5l-0.1-0.2l-4.7,1.8l-3.6,0.5l-4.1,3.3l-3.4,0.8l-2.6,1.4l-5,1.8L348,100l-3.2,2.3l-4.5,1.6L338.1,106.9z M283.5,132.3
	l0.1,0.2l2.5-0.9l5.1-1.1l2.3-1.2l4.3-2.7l4-1.2l4.3-3.3l-0.1-0.2l-5.3,1.2l-3.5,2.3l-4.7,1.5l-2.5,1l-4.7,1.9L283.5,132.3z
	 M338.4,101.1l0.1,0.2l3-0.3l3.6-0.4l3-3l4.4-1.8l4.8-2.4l2.7-1.7l3.6-1.7l4.1-1.6l4.4-3l-0.1-0.1l-5.1,1.5l-3.8,2l-3.6,1.7l-3,0.9
	l-4.9,2.2l-4.2,2.1l-4.2,0.5l-2.6,2.5L338.4,101.1z M271.4,132.4L271.4,132.4l4.1-0.1l3.9-1.4l4-2.7l3-0.5l4.9-2.4l1.9-2.5l4.3-0.6
	l4.3-2.7l4.1-3.2l-0.1-0.3l-5.1,1.2l-4.9,1.6l-3.2,2.9h-3.1l-4.9,2.2l-2.4,1.9l-4.6,1.3l-3.6,2.1L271.4,132.4z M338.3,95.5l0.1,0.2
	l2.8,0.2l5-3l2.9-0.9l3.5-1.8l4.1-1.9l3-1.9l3.9-2l5.3-2.9l-0.1-0.2l-5.6,2.1l-4.1,1.7l-3.4,1.1l-4.1,1.9l-3.6,1.6l-2.5,1.6
	l-5.5,1.9L338.3,95.5z M259.2,132.3l0.1,0.2l4.1-0.4l2.2-0.8l3.6-0.8l4.2-2.9l3-1.7l4.1-0.9l3.4-2.9l4.1-1.3l2.3-2l3.6-1.9l4.9-1.5
	l3.3-2.1l3.8-2.4l-0.1-0.1l-4.2,1.4l-3.7,1.2l-4.3,2.8l-3.9,1.5l-3,0.5l-3.6,2.3l-4.3,0.8l-3.3,2.5l-3.2,1.2l-4.9,1.4l-2.6,3
	l-1.9,1.2L259.2,132.3z M337.7,90.1l0.1,0.2l3-0.3l4.8-1.7l3.2-1.9l3.2-1.9l3.4-1.1l4.2-2.6l4.4-2.6l-0.1-0.2l-4.9,1.6l-4.7,1.5
	l-3,1.9l-3.6,1.3l-3.6,1.2l-4.4,2.6L337.7,90.1z M268.6,122.4l0.1,0.2l4.2,0.5l2.5-2.2l4.7-1.9l2.1-1.3l5.1-2.6l3.9-0.9l3.3-2.9
	l3.6-1.2l3.5-2.4l4.3-2.5l-0.1-0.3l-4.7,1.7l-4.1,1.2l-3.2,2l-4.4,0.7l-3.1,2.4l-5.3,2.2l-2.4,0.8l-4.6,2.4l-3.2,0.5L268.6,122.4z
	 M336.4,85.1l0.1,0.2l4.5,0.1l4.7-2.6l2.8-2.3l5.3-2.2l4.1-2.9l-0.1-0.2l-4.8,1.3l-5.1,2.5l-3.6,0.7l-5,1.9L336.4,85.1z
	 M270.3,115.9l0.1,0.2l4.1-0.3l3.6-0.8l2.9-1.8l4.1-2.4l5-3l2.3-1.4l5-1.4l3.5-1.1l5-4.3l-0.1-0.3l-6.4,1.2l-3.1,1.9l-4.3,3
	l-2.5,0.9l-5.5,1.8l-4.5,1.7l-3.2,1.1l-3,2.2L270.3,115.9z M334.5,80.3l0.1,0.2l3.2-0.2l5-2.3l2.2-1.4l5.3-3.4l-0.1-0.2l-6,1.9
	l-2.6,0.7l-4.9,2.5L334.5,80.3z M271.2,109.9v0.2l3.8-0.3l3.3-1.7l4.7-1.5l2.4-1.8l4.4-1.3l3-2.9l5.1-1.5l4.2-3l3.9-2.4l-0.1-0.2
	l-4.3,1.5l-5,1.4l-4.4,2.9l-4.2,0.5l-3.7,2.5l-3,0.7l-4.1,2.5l-3.3,1.5L271.2,109.9z M331.5,76.1l0.1,0.2l3.7,0.5l3-3l3-2l-0.1-0.2
	l-3.5,1.1l-4.2,0.3L331.5,76.1z M271.5,104l0.1,0.3l3.9,0.3l3.6-2.3l4.5-2.4l2.6-1.1l4-1.8l3.9-2.5l4.4-2.2l2.4-0.8l5.2-3.4
	l-0.1-0.3l-5.9,1.9l-2.1,1.2l-4.7,1.9l-4.3,1.4l-3.9,1.9l-2.5,1.3l-4.7,2l-4.1,1.3L271.5,104z M327.4,72.3l0.1,0.2l1.4,0.3l0.8-0.6
	l1.3-1.2l-0.1-0.3l-1.8,0.1l-0.9,0.3L327.4,72.3z M271.6,98.4l0.1,0.3l4.1-1l4-1.6l2.8-0.3l3.6-2.4l3.3-2L294,89l3.8-1.9l3.9-1.9
	l4.3-2.5l-0.1-0.2l-4.7,1.7l-4,1.7l-3.9,1.7l-4.7,1.9l-3.7,1.3l-4.1,1.2l-2,1.9l-3.8,2L271.6,98.4z M271.4,92.8l0.1,0.3l3.3-0.5
	l4.7-2l3-1.4l3.3-1.8l3.9-1.6l4.4-1.8l3.9-2.9l4.2-0.8l3.7-3.4l-0.1-0.2l-5,0.7l-3.4,2.7l-4.7,1.2l-4.1,2.2l-3.7,1.9l-3.5,1.4
	l-2.9,1.4l-4.7,2.3L271.4,92.8z M271,87.3l0.1,0.2l3.2,0.5l4.9-2.4l3.6-2.2l3-1.6l4.5-2.6l2.5-0.8l4.5-2.8l3.2-0.9l5.4-3.5l-0.1-0.1
	l-6.1,1.9l-2.9,1.9l-4.9,1.7l-2.3,1.4l-4.9,1.7l-3.1,1.3l-4.1,1.4l-4.9,2.2L271,87.3z M269.9,82.2l0.1,0.2l3.7-0.3l4.6-2.2l4.6-1.3
	l2.4-1.9l5-3.3l4.7-2.8l-0.1-0.1l-5.2,1.8l-5.8,1.8l-2.9,0.6l-3.9,2.7l-4.7,2L269.9,82.2z M268,77.4l0.1,0.2h3.3l4.4-1.6l2.1-2.5
	l5-2.8l-0.1-0.2l-5.4,1.9h-3.2l-4.1,2.4L268,77.4z M264.5,73.4l0.1,0.2l2.6,1.1l0.8-1.9l2.7-1.9l-0.1-0.2l-3.2,0.7l-2.1-0.6
	L264.5,73.4z"/>
<path fill="#426847" d="M488,132.3l0.1,0.2l1.5-0.1h1.3l1.4-1.8l-0.1-0.2l-2.3-0.2l-1.4-0.3L488,132.3z M476.2,132.3l0.1,0.2
	l3.4-0.3l4.4-2.1l3.2-2.2l4.6-2.5l-0.1-0.2l-4.9,1.8l-3.7,1.1l-4.5,2L476.2,132.3z M464.4,132.3l0.2,0.2l3.6-1.5l4.5-1.2l3.2-1.6
	l4.2-1.7l3.2-0.6l3.1-3l5.2-3l-0.1-0.2l-5.6,1.9l-4.3,0.6l-2.5,2l-4.1,2.1l-3.3,1.4l-4.6,1L464.4,132.3z M461,128.5l0.1,0.3l3.5-0.2
	l3.6-0.9l4.1-1.9l2.6-2.5l4.8-2.5l2.5-1.4l5.1-2.5l4-2.3l-0.1-0.3l-4.3,1.6l-5.2,2.3l-2.7,1l-5,2l-2.8,2l-4.2,1.7l-3.2,1.9
	L461,128.5z M440.8,132.4L440.8,132.4l0.8,0.2l0.8-0.6l1.3-0.7l-0.1-0.2l-1.6-0.1l-0.9,0.2L440.8,132.4z M429.1,132.3l0.1,0.2
	l3.3-1.4l2.9-1.1l3.5-1.4l4.8-2.9l-0.1-0.2l-5.3,1.8l-3.2,1.9l-3.4,0.2L429.1,132.3z M468.3,108.5l0.1,0.2l2.1,0.3l1.4-1.4l1.4-1.3
	l-0.1-0.3l-1.9,0.3l-1.9,0.3L468.3,108.5z M417.3,132.3l0.1,0.2l3.7-0.4l2.5-0.7l4.4-2.5l3.9-1.4l4.1-3l3.8-1.7l3.8-2.5l-0.1-0.3
	l-4.3,1.4l-3.7,1.8l-5,1.2l-3.6,2l-4.7,1.8l-2.1,1.5L417.3,132.3z M462.6,105.7l0.1,0.2l3.6,0.7l3-1.9l4.3-3.8l-0.2-0.3l-5.6,0.9
	l-3.5,1.1L462.6,105.7z M405.5,132.4L405.5,132.4l2.8-0.6l4.7-1.3l4.3-1.6l1.9-2.1l5.2-2l3.1-1.9l4.1-0.2l4.1-3.6l2.5-1.3l5.3-3
	l-0.1-0.2l-5.8,2.1l-2.5,1l-5.5,0.8l-2.7,3l-3.5,1.2l-4.8,2.6l-2.9,0.2l-4,2.3l-4.1,2.8L405.5,132.4z M456.9,102.9L456.9,102.9
	l3.7,0.5l5.1-2.6l2.4-2.1l5.3-3.3l-0.1-0.3l-6,2l-3.1,0.4l-5.3,2.3L456.9,102.9z M393.7,132.3l0.1,0.2l3.4-0.9l4.6-1.5l3.9-1.3
	l2.6-1.4l4.3-2.7l3.4-1.3l3.3-1.6l4.8-2.5l3.5-2.1l3.4-1.2l3.4-1.9l5.5-2.7l3.8-2.2l-0.1-0.2l-4.1,1.4l-5.6,2.5l-3.6,1.4l-3,1.8
	l-3.9,1.4l-4.9,2.1l-3.4,1.4l-3.1,1.8l-4.9,1.6l-2.7,1.1l-3.5,2.2l-4.1,2.5L393.7,132.3z M484.3,84.6l0.1,0.2l2.5-0.2l2.5-1.4
	l2.2-1.7l-0.2-0.3l-2.6,0.7l-2.7,0.9L484.3,84.6z M451.2,100l0.1,0.2l3.8,0.3l2.3-1.6l4.7-2.3l3-1.9l4.1-1.4l4.4-3.5l-0.1-0.2
	l-5,2.2l-3.8,1.8l-3.2,1.6l-4.7,2l-2.7,0.8L451.2,100z M401.5,123.2l0.2,0.3l3-0.4l3.8-1.3l4.4-1.8l4.1-2.3l2.8-1.4l3-2.4l5.1-1.7
	l3.7-1.9l3.9-1.9l3.8-0.6l4.3-4l-0.1-0.3l-5.8,0.8l-2.8,2.5l-4.1,1.7l-3.7,1.7l-4.6,2.8l-3.7,0.7l-2.9,1.3l-4.4,1.7l-4.1,2.2
	l-3.5,2.1L401.5,123.2z M478.6,81.8L478.6,81.8l3.2,1.1l5-4.1l5.2-3l-0.2-0.3l-5.6,2l-6.4,1.3L478.6,81.8z M403.7,116.6l0.1,0.2
	l2.7-0.2l3.6-0.8l4.2-2.5l3.7-1.6l3.2-1.2l3.6-1.7l4.6-3.3l2.1-1.1l4.2-1.8l4.6-1.5l3.3-2.8l-0.1-0.3l-4.2,0.8l-4.1,2.5l-4.1,2
	l-2.2,1l-5.5,1.3l-3.5,1.7l-3,1.8l-3.6,1.8l-4.7,1.6l-2.9,2.2L403.7,116.6z M472.8,79l0.1,0.2l3,0.7l4.5-2.8l2.2-1.1l4.4-1.8
	l4.1-3.4l-0.2-0.2l-5.2,0.8l-4.1,2.2l-2.3,0.9l-5,1.7L472.8,79z M404.6,110.8l0.1,0.3l4.2-0.7l3.7-0.8l3.6-2.5l4.4-2.5l3-1.3
	l3.3-1.7l4.4-2.5l4.4-1.8l3.1-1.7l4.8-2.9l-0.1-0.2l-5.3,1.9l-3.2,1.4l-4.2,2.2l-4.7,1.9l-3.4,1.4l-3,1.4l-4.7,1.7l-4.2,1.1l-3,2.4
	L404.6,110.8z M467.2,76.1l0.1,0.2l3.6-0.2l4.6-2.4l3.7-3l-0.1-0.1l-4.7,0.8l-4.7,2L467.2,76.1z M404.9,105.1l0.1,0.2l3-0.4l3.9-1.4
	l4.6-1.9l3-1.7l4.7-2.5l3.2-1.9l4.6-2.4l4-1.6l3-1.7l4.7-2.6l-0.1-0.2l-5,1.9l-3.2,1.2l-3.7,2l-4.7,1.9l-3.6,1.3l-4.9,2l-3.2,1.2
	l-4.3,2.3l-3.6,2L404.9,105.1z M461.5,73.3l0.1,0.2l2,0.6l1.9-0.6l1.9-2.8l-0.1-0.1l-2.8,0.6l-2.3,0.2L461.5,73.3z M405.1,99.5
	l0.1,0.3l3-0.1l3.2-1.9l4.1-1.7l5.4-2.8l3-1.2l3.7-1.8l3.9-2.2l4.1-2.1l4-1.7l4-2.6l-0.1-0.1L439,83l-3.8,1.9l-4.2,1.8l-4.1,1.5
	l-3.8,1.8l-2.9,1.6l-5.6,2.3l-4.1,2.1l-3.4,1.2L405.1,99.5z M404.9,94.1l0.1,0.2l3.6-0.3l4.9-1.6l2.4-1l4.7-2.8l2.4-1.3l4.1-2.8
	l4.4-2.2l4.1-0.9l4.7-1.6l3.5-3.5l-0.1-0.3l-4.9,0.5l-4.2,2.5l-3.3,2.5l-4.6,1.9l-4.7,1.4l-2.5,0.9l-5.2,1.8l-2.3,1.2l-4.3,2.8
	L404.9,94.1z M404.7,88.8l0.1,0.2l4-0.8l3.6-1.8l4-1.2l2.6-1.7l5.3-2.3l2.9-1.6l3.7-1.9l4.2-2.2l4.2-1.9l4.4-2.7l-0.1-0.2l-4.9,1.6
	l-4.1,2l-4.4,1.8l-3.9,1.6l-3.1,1.2l-5.1,2.6l-3,0.8l-3.5,2.3l-3.6,1.6L404.7,88.8z M403.8,83.6l0.1,0.2h4.3l2.5-1.3l4.8-3.2
	l3.4-1.6l5.2-3l2.4-0.9l5.5-3l-0.1-0.1l-5.8,2.2l-2.3,1.3l-5.6,1.9l-3.4,1.6l-5.6,1.7l-2.6,1.1L403.8,83.6z M402.1,79l0.1,0.2h3.2
	l4.3-1.6l2.2-1.9l3.4-2.1l4.9-2.8l-0.1-0.1l-5.3,1.9l-3.8,1.2l-3,0.5l-3.9,2.3L402.1,79z M399.2,74.8l0.1,0.2l3.5,0.6l1.7-2.2
	l4.1-2.6l-0.1-0.2l-4.7,1.4l-2.8-0.2L399.2,74.8z"/>
<path fill="#426847" d="M624.4,134.3L624.4,134.3l2-0.8l3.4,0.3l3.6-3.4l-0.1-0.3l-5,0.6l-2.6,1.2L624.4,134.3z M611.9,134.3
	l0.1,0.3l2.7-0.7l3.6-0.3l3.4-2.5l3.6-2.5l4.9-2.6l-0.1-0.2l-5.2,2l-4.1,1.2l-4.1,1l-2.9,1.9L611.9,134.3z M601.6,133.5l0.1,0.3
	l2.2-0.3l4.6-1l4.2-2.5l3.2-1.8l4.4-2.8l2.1-0.8l5.3-2.9l-0.1-0.2l-5.7,2.1l-1.9,1.1l-5.1,1.6l-3.3,1.4l-4.7,1.6l-3.6,2.8
	L601.6,133.5z M593.6,131.6l0.1,0.2l3.9-0.6l4.2-0.9l3.2-2l3.9-1.9l4.5-3.4l3.2-0.8l4.8-2.5l4.1-2.6l-0.1-0.2l-4.6,1.4l-5.2,2.1
	l-2.6,1.9l-5.5,1.2l-3.9,1.8l-3.6,1.2l-3.4,2.6L593.6,131.6z M588,128.6l0.1,0.2l3.5-0.3l4.3-1.4l3.1-1.8l4.2-2.7l2.9-1.4l4.5-2.1
	l3.6-2l3.4-1.4l5.3-3.1l-0.2-0.3l-5.8,2l-3.2,1.7l-3.8,1.4l-4.6,2l-2.9,1.4l-4.7,1.5l-3.5,1.3l-3.7,2.4L588,128.6z M584.3,124.7v0.2
	l3,0.9l4.4-2.4l3.5-2.3l3.9-2.1l3.7-1.5l3.5-2.5l3.8-1l5.8-1.9l3.6-3.4l-0.1-0.3l-4.9,0.4l-5.3,3.2l-3.2,2.2l-4.1,1.1l-3.6,1.9
	l-4.1,1.6l-4,1.2l-4.7,1.9L584.3,124.7z M582.1,120L582.1,120l3.8-0.7l5.2-1l2.1-1.9l4.1-1.3l4.1-1.7l4.7-4l4.1-1.8l4.1-2.5
	l-0.1-0.1l-4.5,1.4l-4.1,2l-6.1,1.1l-4,2l-3.6,2.3l-2.8,0.4l-4.1,3.3L582.1,120z M555.6,132.4L555.6,132.4l1.6-0.4l1.9-0.2l2.3-1.9
	l-0.1-0.2l-3,0.6l-1.7,0.4L555.6,132.4z M580.8,115v0.2l3.7-0.3l4.5-1.7l3.4-1.3l3.6-2.8l2.7-0.4l3.4-1.6l4.9-4.1l-0.1-0.1l-6.4,1
	l-3.4,1.6l-2,1.8l-4.5,1l-3.1,1.8l-4.1,2.4L580.8,115z M543.4,132.4L543.4,132.4l3.4-0.5l4.8-1.9l2.2-1.7l4.9-2.9l-0.1-0.2l-5.4,1.9
	l-2.7,0.6l-4.5,2.5L543.4,132.4z M579.3,110l0.1,0.2l4.1-0.3l3.7-1.4l3.7-1.5l2.7-1.9l3.3-1.1l4.3-3.1l3.1-1.4l3.3-1.7l3.2-1.8
	l4.5-2.2l2.3-0.8l3.8-1.9l4.8-2.9l-0.1-0.2l-5.3,1.8l-3.9,1.7l-2.1,1.3l-4.5,1.9l-3.6,1.4l-3.4,1.5l-3,1.5l-5.3,1.3l-3,1.8l-3.1,0.9
	l-3.6,1.8l-3.5,2L579.3,110z M531.3,132.4L531.3,132.4l2.6-0.1l3.5-1.6l4.3-2.4l3.9-0.8l3.2-1.9l5.8-1.5l3-3.7l-0.1-0.3h-4.7
	l-4.9,3.4l-3.5,1.3l-3.2,2.5l-4.7,1.8l-3.4,1.6L531.3,132.4z M577.1,105.3l0.1,0.2l4.3-0.3l3.4-1l3.5-1.4l3.5-2.3l4.2-2.8l3.9-1.4
	l3.7-2.2l2.4-0.6l3.9-2.9l4.4-1.6l4.1-2.5l4.1-1.2l3.6-2.7l-0.1-0.3l-4.5,1.1l-3.6,2.3l-4.4,1.5l-4.1,2.4l-4.7,1.2l-2,1.4l-4.1,1.4
	l-3.6,2.1l-4.9,1.4l-4,1.3l-3.2,1.8l-3,1.9L577.1,105.3z M519.1,132.4L519.1,132.4l4-0.5h3l3.7-3.4l3.6-0.8l3.3-2.5l4.5-1.8l4.8-2.8
	l2.9-1.4l3.6-1.6l4.9-2.9l-0.1-0.3l-5.3,2l-3.6,1.7l-3,1.3l-5.3,1.9l-4.1,2.4l-4.1,0.8l-2.8,2.3l-5.1,0.7l-1.9,2.3L519.1,132.4z
	 M572.4,101.8l0.1,0.2l3.3-1l4.6-0.8l2.4-1.6l3.8-1.3l4.1-1.7l3.1-1.9l4.6-1.2l2.5-2.6l4.5-2.2l2.5-0.4l3.5-2.5l3.6-1.9l4.1-0.8
	l4.5-3.8l-0.1-0.1l-5.8,0.9l-3.2,2.6l-3.6,1.5l-4.2,1.1l-1.9,1.6l-4.6,2l-3.6,0.2l-3.9,2.7L589,92l-3.9,2l-3.5,2.1l-2.4,1.8l-4,1.9
	L572.4,101.8z M514,129.1L514,129.1l4.1-0.3l3.4-1.4l3.6-1.8l3.7-2l3.1-1.6l3.6-1.9l4-1.8l2.3-1.4l3-1.8l4.5-1.9l4.4-2.2l3.6-2.1
	l-0.1-0.2l-3.9,1.4l-4.5,2l-4.3,2.2l-3.4,1.2l-2.5,0.8l-3.9,1.9l-3.8,1.5l-3.2,1.4l-4,1.6l-3.6,1.6l-3.2,1.7L514,129.1z M583.6,90.9
	l0.1,0.2l3.3-1l4.2-1l4.3-2.3l2.7-1.4l4.7-2.1l2.9-1.8l4-2l4.1-2.1l4.5-2.4l-0.1-0.2l-4.7,1.9l-4.3,1.9l-4.1,1.8l-3.2,1l-4.7,2.2
	l-2.8,1.2l-4.5,1.8l-3.6,2.6L583.6,90.9z M519.9,120.6l0.1,0.3l3.8-0.5l3.8-1.1l3.9-1.7l3.5-1.5l3.2-3l3.6-1.6l3.1-1.6l3.9-2.2
	l4.2-1.5l4.2-2.8l-0.1-0.2l-4.9,1.4l-3.8,2.3l-4.1,1.6l-3.3,1.3l-3.6,1.8l-4.2,0.6l-3.5,1.7l-3.8,1.9l-3.3,2.2L519.9,120.6z
	 M584.5,84.9L584.5,84.9l4-0.1l4.4-1.9l2.5-1.9l4.6-2.1l2.6-1.8l3.6-1.4l5-3l-0.1-0.3l-5.6,1.9l-3.4,1.9l-3,0.8l-4.6,2.1l-3.1,0.7
	l-4.3,2.2L584.5,84.9z M521.9,114l0.2,0.3l4-0.4l3.6-0.8l3-1.7l4.1-2.5l4.9-3l2.4-1.4l5-1.4l3.5-1.1l4.9-4.3l-0.1-0.3l-6.4,1.2
	l-3,1.9l-4.3,3l-2.5,0.8l-5.5,1.9l-4.5,1.6l-3.2,1.1l-3,2.3L521.9,114z M583.9,79.5v0.2l2.6,0.5l4.4-2.4l4.1-1.9l2.8-0.3l4.3-4.3
	l-0.1-0.2l-6.1,0.5l-2.1,1.9l-4.1,1.9l-4.6,1.9L583.9,79.5z M522.9,107.9L522.9,107.9l4.1-0.6l4-1.4l2.5-1.1l4.5-2.7l3.4-1.4
	l4.6-1.5l2.5-1.4l4.2-1.4l4.7-4.3l-0.1-0.3l-6.3,0.9l-3.8,2.3l-2.7,1.1l-4.1,2.5l-3.3,1.6l-5,1.7l-2.4,1.2l-3.7,2.1L522.9,107.9z
	 M581.8,74.8V75l2.7,0.1l4.1-2.6l3.1-2.1l-0.1-0.2l-3.6,1l-4.7,1.4L581.8,74.8z M523.3,102l0.1,0.3l4.4-0.2l3.6-1.7l2.3-1.5l3.6-1.8
	l4.9-2l4.2-2.6l2.4-1.7l4.6-0.3l4.1-4.1l-0.1-0.3l-5.8,0.7l-3.1,3.2l-2.8,0.8l-4.7,1.5l-4.7,2.5l-3.6,1.6l-2.6,0.7l-3.6,1.7
	L523.3,102z M577.3,71.2L577.3,71.2h0.7l1.5-0.6l0.8-0.7l-0.1-0.2l-1.1,0.3l-1.4,0.8L577.3,71.2z M523.3,96.3l0.1,0.3l3,0.1l4.8-1.8
	l2.8-2l4.5-2.5l3.7,0.1l2.6-3l4.9-2.6l3.9-0.2l3.7-3.9l-0.1-0.3l-5.4,0.5l-2.5,2.9l-5.2,2l-4.1,0.1l-2.3,2.9l-4.8,1.8l-3.4,0.8
	l-4.5,2.6L523.3,96.3z M522.9,90.8L523,91l2.6,0.2l4-1.5l4.2-1.8l4.1-2.5l3.5-2.1l3-1.2l5.7-1.4l2.8-1.6l4.5-4l-0.1-0.3l-5.9,1
	l-3,1.1l-4.7,3.5l-2.9,1.4l-3.8,1.3l-4.7,1.6l-4.1,2l-3.7,2.1L522.9,90.8z M522,85.6l0.1,0.2l3.2-0.8l3.9-1.1l3.3-2.3l4.1-1.4
	l2.9-1.4l4.4-1.7l2.4-2.3l4.4-1.8l3.7-2.3l-0.1-0.2l-4.1,1.4l-4.2,2.1l-3.3,0.4l-4.1,2.3l-3,1.3l-3.6,2.2l-3.9,1.1l-3.4,2.3
	L522,85.6z M520.3,80.7L520.3,80.7l3.3,0.3l4.1-1.4l3.4-2.3l2.9-1.5l4.4-2.5l3.9-2.5l-0.1-0.2l-4.5,1.2l-4.8,1.8l-3,1.3l-3.8,1.1
	l-3.6,2.3L520.3,80.7z M517.5,76.3l0.1,0.2l3.8,0.3l4.6-2.6l4.1-3.5l-0.1-0.1l-5.3,0.9l-5,1.8L517.5,76.3z M513.3,72.5l0.1,0.3
	l2.2,1.4l0.4-1.9l1.9-1.5l-0.1-0.2l-2.4,0.3l-0.8,1L513.3,72.5z"/>
<path fill="#426847" d="M765.4,132.4L765.4,132.4l1.2,0.2l0.6-0.6l1.2-0.7l-0.1-0.3l-1.6-0.3l-1.1-0.4L765.4,132.4z M752.9,132.3
	l0.1,0.2l3.3-0.2l3.8-2.5l3.6-2.2l-0.1-0.3l-4.1,1.4l-4.3,1.3L752.9,132.3z M740.5,132.4L740.5,132.4l2.3-0.4l6.4-1.2l3.2-2.5
	l2.1-1.9l5.8-3l-0.1-0.2l-6.1,2.5l-2.8,0.4l-3.9,0.8l-5.4,3.5L740.5,132.4z M727.9,132.4L727.9,132.4l2.1-0.6l4.1-0.5l4.1-2.2
	l4.6-2.5l2.8-1.3l3.2-2.1l4-1.4l4.4-2.7l-0.2-0.3l-4.8,1.6l-3.7,2.1l-3.7,1.2l-2.7,1.3l-4.9,1.9l-4.2,1.7l-3.6,1.6L727.9,132.4z
	 M715.4,132.4L715.4,132.4l2.5-0.8l4.7-0.1l3.7-2.3l5.3-2.6l3-0.8l4.7-2.8l2.3-2l4.2-0.8l4.7-2.5l4.1-3.4l-0.1-0.2l-5.3,0.9
	l-4.8,1.9l-3.4,2.8l-3,0.4l-5.3,1.9l-2.5,1.7l-5.4,2.5l-4.1,1.4l-3.6,2.5L715.4,132.4z M702.9,132.4L702.9,132.4l3-0.8l4.1-1
	l4.1-1.4l3.7-2.5l3.7-1.9l4.5-1.4l3.4-2.4l2.7-1.2l4.3-2.5l3.6-0.9l3.1-1.9l4.8-2.2l4.3-2.7l-0.1-0.3l-4.8,1.6l-4.9,2.3l-3.4,1.2
	l-3,2.1l-4.8,1.7l-2.6,1.4l-4,1l-4,2.5l-3.8,1.7l-4.2,1.2l-3.8,2.4l-3.4,2.5L702.9,132.4z M704.8,125.6l0.1,0.3l2.5-0.2l5.1-0.9
	l2.4-2.5l5.3-1.9l3.7-2.6l2.7-0.8l4.3-2.7l3.5-1.3l3-1.9l5.5-1.4l4.5-1.4l3-3.7l-0.2-0.3l-4.7-0.1l-3.9,2.5l-4.6,3.4l-3.4,1.1
	l-3.2,1.8l-4.8,1.6l-2.4,1.5l-4.3,1.2l-4.8,2.9l-3.5,0.2l-4,3.2L704.8,125.6z M707,118.8l0.2,0.3l4.1-0.1l2.3-0.8l5.1-2.5l3.6-1.6
	l3.4-2.7l3.8-0.8l3.4-2.6l3.5-1.9l3.2-1.5l4-1.9l4.7-2.6l-0.1-0.2l-5,1.9l-4.1,1.9l-3.2,1.4l-3.7,1.4l-4.1,0.8l-3,2.5l-4.3,0.8
	l-3.5,1.8l-5.2,2.2l-2.2,1.2L707,118.8z M677.9,132.4L677.9,132.4l1.7-0.7l1.4,0.6l2-2l-0.2-0.3l-2.9,0.2l-1.1-0.1L677.9,132.4z
	 M707.9,112.6l0.1,0.2l4.4-0.2l2.6-1.8l3.5-0.8l4.7-3.5l3.3-1.5l4.1-1.6l2.8-1.9l4.8-2l2.6-1.4l5.2-3l-0.1-0.3l-5.7,2l-2.8,1.2
	l-4.6,2.3l-3.2,0.9l-4,2.2l-3.3,1.6l-5.6,1.3l-2.9,2.1l-3.1,0.8L707.9,112.6z M665.3,132.4L665.3,132.4l2.7-0.5l4.8-1.8l3.2-2.2
	l3.7-2.1l-0.1-0.2l-4,1.5l-3.8,1l-5.2,1L665.3,132.4z M707.6,106.8v0.2l3-0.1l3.4-0.8l3.8-1.7l3.2-2l4.2-2.5l4.2-2.1l1.9-1.2l4.5-2
	l4.2-2.3l3.7-2l-0.2-0.3l-4,1.4l-4.5,1.9l-4.4,2.1l-2.1,0.8l-4.4,1.9l-4.7,1.6l-3.6,1.1l-3.7,1.9l-2.7,2L707.6,106.8z M663,127.7
	l0.1,0.3l4.2,0.4l3.3-3.6l2.8-1.6l4.5-2.3l-0.1-0.2l-4.7,1.9l-3,1.2l-4,2.1L663,127.7z M706.2,101.7l0.1,0.2l4,0.4l3.7-2.4l4.7-2.4
	l2.7-1.2l4-1.9l4.1-2.5l4.6-2.3l2.4-0.8l5.4-3.4l-0.2-0.3l-6.1,1.9l-2.2,1.4l-4.7,2l-4.5,1.4l-4,1.9l-2.6,1.3l-4.8,2.1l-4.2,1.3
	L706.2,101.7z M671.5,117.8l0.1,0.2l1.9,0.1l1.2-0.8l2-1.8l-0.2-0.2l-2.5,0.4l-1.4,0.4L671.5,117.8z M704.2,96.7l0.1,0.2l4.2-0.8
	l4.1-1.9l2.9-0.2l3.7-2.5l3.4-2l4.6-2.5l3.9-1.9l4-1.9l4.5-2.7l-0.1-0.1l-4.9,1.7l-4.1,1.8l-4,1.7l-4.8,2l-3.8,1.3l-4.2,1.2l-2,2.1
	l-4,1.9L704.2,96.7z M702.1,91.8l0.1,0.2l3.4-0.4l4.8-2.1l3-1.4l3.5-1.7l4-1.8l4.5-1.7l4-3l4.3-0.8l3.8-3.6l-0.1-0.1l-5.1,0.6
	l-3.5,2.8l-4.8,1.1l-4.2,2.4l-3.9,1.9l-3.5,1.6l-3,1.4l-4.7,2.4L702.1,91.8z M700,87l0.1,0.2l3.3,0.5l4.9-2.4l3.7-2.1l3-1.7l4.5-2.6
	l2.5-0.8l4.4-2.8l3.3-1l5.4-3.5l-0.1-0.2l-6.1,1.9l-2.9,1.9l-5,1.5l-2.3,1.4l-4.9,1.8l-3.2,1.2l-4,1.5l-5,2.2L700,87z M697.9,82.1
	l0.1,0.2l3.7-0.2l4.5-2.3l4.6-1.2l2.4-1.9l5-3.3l4.7-2.8l-0.1-0.1l-5.1,1.8l-5.8,1.7l-3,0.6l-3.8,2.7l-4.7,2L697.9,82.1z
	 M695.8,77.3l0.1,0.2l3.2,0.1l4.4-1.5l1.9-2.5l4.9-2.8l-0.1-0.2l-5.3,1.9l-3.1-0.1l-4,2.4L695.8,77.3z M693.8,72.4L693.8,72.4
	l2.1,1.6l0.3-1.8l1.6-1.5l-0.1-0.2l-2.3,0.2l-0.7,1L693.8,72.4z"/>
<path fill="#426847" d="M890.4,132.4L890.4,132.4l0.8-0.2l0.9-0.3l1.1-0.7l-0.1-0.2l-1.5-0.3h-1L890.4,132.4z M878.7,132.3l0.1,0.2
	l3-0.3l5.8-3.5l5.4-2.9l-0.1-0.3l-5.7,2.4l-6.4,2.2L878.7,132.3z M866.9,132.4L866.9,132.4l3.8-1l4.2-0.8l2.4-1.3l3.6-2.4l4.6-2.8
	l3-1l4.5-2.7l-0.1-0.2l-5,1.7l-2.6,1.5l-5.2,1.8l-4.1,1.2l-2.5,1l-3.9,1.4L866.9,132.4z M858.4,130.8v0.2l3.5,0.1l3.6-1.3l4.2-2
	l3.5-2.5l4.2-2l2.4-1.5l5.8-1.9l3-2.3l4.1-2.6l-0.1-0.1l-4.5,1.4l-3.8,0.8l-5.2,3.3l-2.7,0.8l-4.2,1.9l-4.1,1.1l-3.7,3.1l-3.2,1.9
	L858.4,130.8z M878.8,115.8l0.1,0.3l4.3-0.3l3.1-1.7l6.3-4.5l-0.1-0.1l-7.5,1.9l-2.8,2.4L878.8,115.8z M843.4,132.4L843.4,132.4
	l0.6,0.1l0.4-0.3l0.7-0.5l-0.1-0.2l-1-0.3l-0.7-0.1L843.4,132.4z M831.5,132.3l0.1,0.2l3.1-0.3l6-3.4l4.3-2.6l-0.1-0.1l-4.7,1.6
	l-6.4,2.4L831.5,132.3z M819.7,132.4L819.7,132.4l2.5-0.5l4-0.8l3.5-1.9l3.7-1.5l3.2-2.4l5.3-1.9l3.2-2.7l-0.1-0.1l-4.1,0.7
	l-4.7,2.9l-3.9,0.9l-3.6,1.9l-3.7,1.4l-3.6,1.6L819.7,132.4z M808,132.4L808,132.4l2.8-1l5.1-0.5l2.4-1.7l4.1-2.7l3.3-1.2l3.1-1.6
	l4.7-2.3l3.5-1.8l3.4-0.9l4.7-3.4L845,115l-5.7,1.4l-2.9,2l-3.6,1.5l-4.8,2.1l-3.2,1.4l-3,1.8l-4.8,1.4l-2.8,0.8l-4.2,2.4L808,132.4
	z M796.2,132.4L796.2,132.4l2.9-0.3l4.1-1.3l4.1-2.2l3.4-1.4l3.1-1.5l5.1-2.1l4.5-1.4l3-1.6l1.9-2.4l4.7-2.4l3.3-1.4l4.1-1.2
	l4.5-3.5l-0.1-0.2l-5.6,1.2l-3.6,2.4l-3.1,1.7l-4.8,2.1l-3.1-0.1l-3.2,1.4l-3.9,2.5l-4.9,2.5l-3.1,1.4l-3.3,1.7l-4.2,1.7l-3.7,2.4
	L796.2,132.4z M803.5,123.4l0.2,0.3h2.3l5-2l3.7-1.5l3.2-1.4l3.6-3l4.3-1.3l3.6-2.2l4.4-1.5l2.6-1.8l4.1-2.1l4.4-2.5L845,104
	l-4.7,1.9l-4.3,1.8l-3,0.8l-4,2.4l-4.1,1.4l-3.7,2.5l-4.6,0.8l-3.2,1.6l-3.6,1.9l-4.7,2.5L803.5,123.4z M805.3,117.1l0.1,0.2
	l2.6-0.2l3.6-0.8l4.2-2.5l3.6-1.6l3.3-1.2l3.6-1.6l4.5-3.3l2.2-1.1l4.1-1.8l4.6-1.6l3.3-2.7l-0.1-0.3l-4.2,0.8l-4.1,2.5l-4,2.1
	l-2.3,0.9l-5.4,1.4l-3.6,1.6l-3,1.8l-3.6,1.8l-4.7,1.6l-2.9,2.2L805.3,117.1z M806.1,111.2l0.1,0.2l2.7,0.2l5.3-2.3l4.3-1.4l2-2.1
	l4.5-2.3l4-0.6l4.3-2.7l3.8-2.5l3.8-1.9l4.1-2.5L845,93l-4.6,1.6l-3.9,1.7l-4.4,1.4l-4.8,1.5l-3,2.7l-4.7,1.9l-2.9,0.2l-3.8,2.5
	l-5.1,2.6L806.1,111.2z M806.4,105.6L806.4,105.6l2.7-0.4l4.7-1.1l4.4-1.6l3-2.4l4.5-1.9l2.6-1.4l4.3-1.3l3.1-2.8l5-1.8l4.4-3.3
	l-0.2-0.3l-5.3,1.4l-4.6,2.7l-4.1,0.6l-3.8,2.5l-2.7,1.1l-4.3,2.3l-3.7,0.8l-4.1,2.3l-3.9,3L806.4,105.6z M806.5,100l0.1,0.2
	l3.5-0.3l4.4-1.9l2.5-0.9l3.8-1.5l3.6-2.5l4.2-2l2.1-1l4.7-3l2.8-1l4.4-1.3l4-3.2l-0.2-0.2l-4.9,1.1l-3.8,2.5l-2.6,1.5l-5.3,1.6
	l-2.1,0.9l-4.3,1.9l-4.2,1.2l-3.6,1.9l-2.4,1.4l-4.3,2.1L806.5,100z M806.4,94.6l0.1,0.2l2.8-0.1l4.8-1.5l3-1.5l4.7-1.9l3-1.1l2.6-3
	l4.9-2.2l3.7-0.3l3-2.9l3.7-1.8l3.7-1.8l3.6-1.7l2.5-1.6l5.5-2.6l-0.1-0.2l-5.8,1.9l-3,0.4l-3,2.6l-3.9,1.7l-3.7,1.7l-4.1,0.5
	l-2.6,2.6l-4.9,2.4l-3.9,0.2l-2.8,1.5l-4.6,2.3l-3,1.4l-4.2,2.7L806.4,94.6z M805.9,89.3l0.1,0.2l3.5-1l3.9-1.5l3.7-0.5l2.7-1.9
	l3.3-1.7l3.7-1.9l3.7-2.3l4.1-2.2l3.6-1.3l3-0.9l5-3.5l-0.1-0.2l-5.9,1.5l-2.6,1.7l-3.3,1.9l-4.3,1.8l-4.1,1.4l-3.8,1.6l-3.5,1.5
	l-3.2,0.8l-2.8,2.5l-3.6,2L805.9,89.3z M805.2,84.2l0.1,0.2l4.2-0.3l2.8-1.4l3.6-2.4l3.6-1.9l3.6-1.7l3.9-2.1l3.1-0.9l4.3-3v-0.1
	l-5.1,1.4l-2.7,1.8l-4.1,1.6l-3.7,1.7l-3.8,1.6l-4.1,1.2l-2.9,1.3L805.2,84.2z M803.6,79.5L803.6,79.5l3.6,0.8l3.9-2.4l3.5-2.5
	l3.5-0.7l4.7-4l-0.1-0.1l-6,1l-2.8,2.2l-4.1,1l-4.3,1.4L803.6,79.5z M801,75.1v0.2l3.2,0.5l3.6-2.3l3.1-2.9l-0.1-0.1l-4.2,0.5
	l-4,1.4L801,75.1z M796.8,71.5l0.1,0.3l0.7-0.3l0.8,0.3l0.8-1.1l-0.1-0.2l-1.2,0.3l-0.4,0.4L796.8,71.5z"/>
</svg>
